<svg xmlns="http://www.w3.org/2000/svg" width="684" height="227" viewBox="0 0 684 227"><path d="M 11 37 L 10 37 L 11 34 L 14 30 L 19 28 L 23 29 L 24 33 L 22 38 L 19 43 L 15 47 L 11 49 L 10 51 L 10 53 L 12 54 L 18 54 L 25 51 L 32 49 L 37 48" stroke="#ffffff" stroke-width="2" stroke-linecap="round" stroke-linejoin="round" fill="none"/><path d="M 52 22 L 51 22 L 50 22 L 48 22 L 46 22 L 44 24 L 41 26 L 40 29 L 40 32 L 41 34 L 44 35 L 50 35 L 56 33 L 62 31 L 64 30" stroke="#ffffff" stroke-width="2" stroke-linecap="round" stroke-linejoin="round" fill="none"/><path d="M 52 20 L 51 20 L 49 20 L 49 19 L 50 21 L 50 28 L 50 41 L 49 52 L 49 57" stroke="#ffffff" stroke-width="2" stroke-linecap="round" stroke-linejoin="round" fill="none"/><path d="M 88 15 L 87 15 L 84 17 L 81 24 L 75 39 L 67 53 L 61 64 L 56 72 L 53 77 L 53 79" stroke="#ffffff" stroke-width="2" stroke-linecap="round" stroke-linejoin="round" fill="none"/><path d="M 97 45 L 96 43 L 95 42 L 94 48 L 93 56 L 93 64 L 93 69" stroke="#ffffff" stroke-width="2" stroke-linecap="round" stroke-linejoin="round" fill="none"/><path d="M 118 46 L 117 46 L 117 45 L 118 43 L 121 43 L 124 44 L 125 46 L 126 49 L 125 52 L 122 55 L 119 58 L 116 60 L 115 60 L 114 60 L 115 60 L 116 60 L 118 60 L 122 60 L 128 60 L 136 60 L 141 60" stroke="#ffffff" stroke-width="2" stroke-linecap="round" stroke-linejoin="round" fill="none"/><path d="M 186 32 L 184 31 L 183 29 L 186 25 L 193 21 L 199 18 L 203 17 L 204 17" stroke="#ffffff" stroke-width="2" stroke-linecap="round" stroke-linejoin="round" fill="none"/><path d="M 198 15 L 198 14 L 196 12 L 195 12 L 195 16 L 193 27 L 192 41 L 193 48 L 196 49" stroke="#ffffff" stroke-width="2" stroke-linecap="round" stroke-linejoin="round" fill="none"/><path d="M 204 31 L 204 29 L 204 27 L 205 27 L 208 27" stroke="#ffffff" stroke-width="2" stroke-linecap="round" stroke-linejoin="round" fill="none"/><path d="M 204 39 L 202 40 L 201 40 L 203 39 L 208 36 L 210 34" stroke="#ffffff" stroke-width="2" stroke-linecap="round" stroke-linejoin="round" fill="none"/><path d="M 228 22 L 225 22 L 223 23 L 222 26 L 224 30 L 227 33" stroke="#ffffff" stroke-width="2" stroke-linecap="round" stroke-linejoin="round" fill="none"/><path d="M 232 23 L 232 21 L 234 17 L 239 13 L 245 11 L 248 10" stroke="#ffffff" stroke-width="2" stroke-linecap="round" stroke-linejoin="round" fill="none"/><path d="M 240 6 L 239 5 L 239 7 L 241 15 L 241 27 L 238 38 L 235 44 L 232 47 L 232 48" stroke="#ffffff" stroke-width="2" stroke-linecap="round" stroke-linejoin="round" fill="none"/><path d="M 251 26 L 249 26 L 248 24 L 250 22 L 257 18 L 264 14 L 268 12" stroke="#ffffff" stroke-width="2" stroke-linecap="round" stroke-linejoin="round" fill="none"/><path d="M 260 13 L 258 13 L 257 12 L 256 14 L 255 20 L 254 29 L 254 35 L 255 39" stroke="#ffffff" stroke-width="2" stroke-linecap="round" stroke-linejoin="round" fill="none"/><path d="M 262 28 L 262 27 L 263 25 L 264 23 L 266 22 L 268 22" stroke="#ffffff" stroke-width="2" stroke-linecap="round" stroke-linejoin="round" fill="none"/><path d="M 263 33 L 262 34 L 261 34 L 263 32 L 268 28 L 271 26" stroke="#ffffff" stroke-width="2" stroke-linecap="round" stroke-linejoin="round" fill="none"/><path d="M 278 5 L 277 5 L 274 8 L 274 11 L 274 14 L 275 15" stroke="#ffffff" stroke-width="2" stroke-linecap="round" stroke-linejoin="round" fill="none"/><path d="M 283 4 L 283 3 L 282 2 L 282 3 L 281 8" stroke="#ffffff" stroke-width="2" stroke-linecap="round" stroke-linejoin="round" fill="none"/><path d="M 285 26 L 284 26 L 283 25 L 284 23 L 288 21 L 294 19 L 298 18" stroke="#ffffff" stroke-width="2" stroke-linecap="round" stroke-linejoin="round" fill="none"/><path d="M 293 17 L 292 17 L 291 17 L 290 17 L 290 19 L 290 23 L 290 28 L 290 29" stroke="#ffffff" stroke-width="2" stroke-linecap="round" stroke-linejoin="round" fill="none"/><path d="M 284 33 L 282 34 L 282 35 L 285 36 L 291 35 L 293 34" stroke="#ffffff" stroke-width="2" stroke-linecap="round" stroke-linejoin="round" fill="none"/><path d="M 306 18 L 304 19 L 303 21 L 303 25 L 303 28 L 303 30 L 304 29 L 305 28 L 306 28 L 308 29 L 312 30 L 318 28 L 323 26" stroke="#ffffff" stroke-width="2" stroke-linecap="round" stroke-linejoin="round" fill="none"/><path d="M 257 60 L 257 59 L 256 57 L 255 57 L 254 60 L 254 64 L 256 68 L 261 70 L 266 72 L 269 73 L 270 74 L 269 75 L 265 76 L 260 77 L 255 77 L 253 76" stroke="#ffffff" stroke-width="2" stroke-linecap="round" stroke-linejoin="round" fill="none"/><path d="M 254 61 L 255 59 L 256 57 L 259 55 L 265 54 L 276 54 L 283 54" stroke="#ffffff" stroke-width="2" stroke-linecap="round" stroke-linejoin="round" fill="none"/><path d="M 296 52 L 295 52 L 293 53 L 291 53 L 288 55 L 287 59 L 287 65 L 290 69 L 294 70 L 299 68 L 303 64 L 305 60 L 306 55 L 302 52 L 298 51 L 293 52 L 290 57" stroke="#ffffff" stroke-width="2" stroke-linecap="round" stroke-linejoin="round" fill="none"/><path d="M 371 0 L 370 -2 L 370 -3 L 368 0 L 363 15 L 357 34 L 352 47 L 347 56 L 346 62 L 346 64" stroke="#ffffff" stroke-width="2" stroke-linecap="round" stroke-linejoin="round" fill="none"/><path d="M 394 5 L 392 5 L 392 4 L 392 6 L 392 12 L 393 14" stroke="#ffffff" stroke-width="2" stroke-linecap="round" stroke-linejoin="round" fill="none"/><path d="M 402 7 L 402 6 L 401 5 L 399 5 L 397 8 L 394 12 L 391 15 L 389 17 L 388 19 L 390 19 L 394 19 L 399 17 L 403 16 L 404 15 L 402 17 L 399 21 L 396 27 L 395 32 L 397 35 L 399 36" stroke="#ffffff" stroke-width="2" stroke-linecap="round" stroke-linejoin="round" fill="none"/><path d="M 423 6 L 423 5 L 422 4 L 422 6 L 422 10 L 421 13" stroke="#ffffff" stroke-width="2" stroke-linecap="round" stroke-linejoin="round" fill="none"/><path d="M 418 14 L 415 14 L 413 14 L 412 17 L 411 20 L 413 21 L 416 21 L 419 21 L 421 21 L 423 23 L 423 24 L 422 26 L 418 29 L 413 30 L 410 31 L 409 31" stroke="#ffffff" stroke-width="2" stroke-linecap="round" stroke-linejoin="round" fill="none"/><path d="M 447 16 L 445 15 L 443 14 L 440 14 L 436 17 L 433 19 L 432 21 L 433 23 L 436 25 L 442 26 L 448 25 L 449 25" stroke="#ffffff" stroke-width="2" stroke-linecap="round" stroke-linejoin="round" fill="none"/><path d="M 460 11 L 458 12 L 456 16 L 454 21 L 452 24 L 451 25 L 453 24 L 455 22 L 458 20 L 460 19 L 462 20 L 464 23 L 468 25 L 475 24" stroke="#ffffff" stroke-width="2" stroke-linecap="round" stroke-linejoin="round" fill="none"/><path d="M 426 50 L 427 49 L 428 47 L 427 46 L 424 47 L 420 50 L 416 53 L 414 55 L 412 56 L 413 57 L 416 59 L 421 60 L 427 60 L 431 60 L 433 60" stroke="#ffffff" stroke-width="2" stroke-linecap="round" stroke-linejoin="round" fill="none"/><path d="M 429 46 L 428 46 L 427 45 L 425 53 L 422 64 L 420 74 L 420 79" stroke="#ffffff" stroke-width="2" stroke-linecap="round" stroke-linejoin="round" fill="none"/><path d="M 439 52 L 438 52 L 436 52 L 435 51 L 435 54 L 438 58 L 442 62 L 445 65 L 447 67 L 447 68 L 446 68 L 444 69 L 441 70 L 438 70 L 435 69" stroke="#ffffff" stroke-width="2" stroke-linecap="round" stroke-linejoin="round" fill="none"/><path d="M 438 53 L 439 52 L 441 49 L 443 49 L 446 50 L 450 52 L 455 54" stroke="#ffffff" stroke-width="2" stroke-linecap="round" stroke-linejoin="round" fill="none"/><path d="M 510 8 L 509 7 L 508 8 L 505 14 L 499 28 L 490 47 L 484 63 L 479 73 L 474 81 L 471 84" stroke="#ffffff" stroke-width="2" stroke-linecap="round" stroke-linejoin="round" fill="none"/><path d="M 538 12 L 537 12 L 536 11 L 536 10 L 539 9 L 543 8 L 545 8 L 546 9 L 546 12 L 544 14 L 540 18 L 535 23 L 531 27 L 530 28" stroke="#ffffff" stroke-width="2" stroke-linecap="round" stroke-linejoin="round" fill="none"/><path d="M 533 18 L 533 17 L 532 15 L 532 14 L 534 14 L 536 17 L 540 21 L 544 25 L 547 27" stroke="#ffffff" stroke-width="2" stroke-linecap="round" stroke-linejoin="round" fill="none"/><path d="M 557 15 L 556 13 L 556 11 L 559 9 L 562 9 L 564 12 L 564 15 L 563 19 L 560 22 L 557 25 L 554 27" stroke="#ffffff" stroke-width="2" stroke-linecap="round" stroke-linejoin="round" fill="none"/><path d="M 551 19 L 550 18 L 550 17 L 552 17 L 556 20 L 562 24 L 566 27" stroke="#ffffff" stroke-width="2" stroke-linecap="round" stroke-linejoin="round" fill="none"/><path d="M 582 13 L 581 11 L 581 9 L 583 8 L 585 8 L 587 8 L 587 10 L 586 12 L 584 16 L 583 19 L 583 23 L 584 27 L 584 31 L 584 34 L 583 37 L 581 38 L 578 39 L 575 39" stroke="#ffffff" stroke-width="2" stroke-linecap="round" stroke-linejoin="round" fill="none"/><path d="M 574 25 L 573 23 L 574 22 L 579 22 L 587 22 L 597 22" stroke="#ffffff" stroke-width="2" stroke-linecap="round" stroke-linejoin="round" fill="none"/><path d="M 542 53 L 542 51 L 545 50 L 548 48 L 551 48" stroke="#ffffff" stroke-width="2" stroke-linecap="round" stroke-linejoin="round" fill="none"/><path d="M 545 50 L 543 51 L 542 52 L 541 54 L 540 61 L 539 69 L 539 74 L 539 77" stroke="#ffffff" stroke-width="2" stroke-linecap="round" stroke-linejoin="round" fill="none"/><path d="M 539 65 L 538 64 L 538 63 L 539 63 L 543 62 L 549 61 L 553 59" stroke="#ffffff" stroke-width="2" stroke-linecap="round" stroke-linejoin="round" fill="none"/><path d="M 560 65 L 558 65 L 558 64 L 559 64 L 562 63 L 566 62 L 568 62" stroke="#ffffff" stroke-width="2" stroke-linecap="round" stroke-linejoin="round" fill="none"/><path d="M 593 57 L 593 56 L 593 55 L 592 54 L 592 53 L 590 52 L 588 52 L 586 54 L 582 59 L 580 66 L 580 71 L 585 72 L 593 71 L 597 69" stroke="#ffffff" stroke-width="2" stroke-linecap="round" stroke-linejoin="round" fill="none"/><path d="M 616 76 L 615 76 L 615 75 L 615 73 L 614 70 L 613 65 L 611 59 L 611 54 L 611 50 L 612 48 L 614 48 L 616 49 L 617 51 L 617 55 L 616 58 L 614 62 L 611 65 L 608 67 L 608 68 L 609 69 L 613 68 L 617 66 L 621 63 L 624 62 L 625 61 L 625 62 L 625 65 L 626 67 L 628 70 L 630 71" stroke="#ffffff" stroke-width="2" stroke-linecap="round" stroke-linejoin="round" fill="none"/><path d="M 652 57 L 651 55 L 649 53 L 646 52 L 643 51 L 641 53 L 640 55 L 639 57 L 640 60 L 642 64 L 645 67 L 647 69 L 648 70 L 646 70 L 641 70 L 636 68 L 635 66" stroke="#ffffff" stroke-width="2" stroke-linecap="round" stroke-linejoin="round" fill="none"/><path d="M 662 56 L 661 56 L 660 55 L 659 56 L 659 59 L 658 65 L 657 70 L 657 73" stroke="#ffffff" stroke-width="2" stroke-linecap="round" stroke-linejoin="round" fill="none"/><path d="M 659 59 L 659 58 L 659 55 L 660 53 L 663 52 L 667 52 L 670 54 L 670 57 L 669 59 L 665 62 L 661 63 L 659 63 L 660 62 L 663 63 L 665 65 L 666 67 L 667 70 L 666 72 L 663 73 L 659 74 L 657 74" stroke="#ffffff" stroke-width="2" stroke-linecap="round" stroke-linejoin="round" fill="none"/><path d="M 646 90 L 648 90 L 646 90 L 641 92 L 635 96 L 633 99 L 633 100" stroke="#ffffff" stroke-width="2" stroke-linecap="round" stroke-linejoin="round" fill="none"/><path d="M 632 90 L 632 91 L 633 91 L 635 93 L 640 96 L 645 101" stroke="#ffffff" stroke-width="2" stroke-linecap="round" stroke-linejoin="round" fill="none"/><path d="M 663 94 L 664 94 L 664 93 L 665 93 L 666 94 L 667 96 L 667 98 L 664 100 L 660 102 L 657 103 L 655 103 L 654 103 L 657 103 L 663 104 L 669 106 L 674 107" stroke="#ffffff" stroke-width="2" stroke-linecap="round" stroke-linejoin="round" fill="none"/><path d="M 550 101 L 551 101 L 552 100 L 556 100 L 561 102 L 564 104 L 563 107 L 559 110 L 555 110 L 553 110 L 552 110 L 553 109 L 555 110 L 557 113 L 558 116 L 558 120 L 555 122 L 550 123 L 545 123 L 542 121 L 542 118" stroke="#ffffff" stroke-width="2" stroke-linecap="round" stroke-linejoin="round" fill="none"/><path d="M 581 110 L 580 108 L 578 106 L 577 106 L 577 107 L 576 109 L 577 112 L 580 115 L 584 118 L 586 121 L 587 124 L 585 126 L 581 126 L 577 125 L 574 123" stroke="#ffffff" stroke-width="2" stroke-linecap="round" stroke-linejoin="round" fill="none"/><path d="M 574 108 L 573 108 L 578 108 L 588 109 L 598 110" stroke="#ffffff" stroke-width="2" stroke-linecap="round" stroke-linejoin="round" fill="none"/><path d="M 616 120 L 615 120 L 614 119 L 613 121 L 611 123 L 608 125 L 606 126" stroke="#ffffff" stroke-width="2" stroke-linecap="round" stroke-linejoin="round" fill="none"/><path d="M 608 117 L 607 118 L 606 118 L 607 119 L 610 122 L 613 124 L 617 127 L 618 128" stroke="#ffffff" stroke-width="2" stroke-linecap="round" stroke-linejoin="round" fill="none"/><path d="M 631 124 L 633 123 L 633 122 L 634 122 L 636 122 L 637 124 L 638 126 L 637 127 L 636 129 L 634 130 L 631 131 L 629 131 L 628 132 L 629 132 L 632 133 L 636 134 L 642 135 L 648 136" stroke="#ffffff" stroke-width="2" stroke-linecap="round" stroke-linejoin="round" fill="none"/><path d="M 413 97 L 412 95 L 412 94 L 411 96 L 408 103 L 404 112 L 401 122 L 400 130" stroke="#ffffff" stroke-width="2" stroke-linecap="round" stroke-linejoin="round" fill="none"/><path d="M 394 142 L 392 140 L 391 138 L 391 139 L 389 143 L 386 151 L 385 158 L 386 163 L 390 164 L 396 161 L 400 157 L 402 154 L 401 153 L 397 152 L 391 154 L 385 159 L 383 163" stroke="#ffffff" stroke-width="2" stroke-linecap="round" stroke-linejoin="round" fill="none"/><path d="M 356 178 L 356 176 L 355 175 L 354 177 L 351 185 L 348 195 L 348 202 L 348 203" stroke="#ffffff" stroke-width="2" stroke-linecap="round" stroke-linejoin="round" fill="none"/><path d="M 357 191 L 357 188 L 359 185 L 364 182 L 369 181 L 373 181" stroke="#ffffff" stroke-width="2" stroke-linecap="round" stroke-linejoin="round" fill="none"/><path d="M 357 198 L 356 199 L 355 199 L 357 197 L 362 195 L 369 192 L 373 190" stroke="#ffffff" stroke-width="2" stroke-linecap="round" stroke-linejoin="round" fill="none"/><path d="M 367 184 L 365 184 L 364 187 L 363 195 L 360 206 L 358 213 L 358 217" stroke="#ffffff" stroke-width="2" stroke-linecap="round" stroke-linejoin="round" fill="none"/><path d="M 361 200 L 362 198 L 364 197 L 367 198 L 371 202 L 375 204 L 379 206 L 381 206" stroke="#ffffff" stroke-width="2" stroke-linecap="round" stroke-linejoin="round" fill="none"/><path d="M 384 190 L 384 189 L 383 186 L 385 184 L 388 184 L 390 184 L 390 185 L 389 186 L 387 188 L 384 190 L 381 194 L 378 200 L 377 205 L 378 207 L 382 205 L 384 201 L 386 197 L 387 194 L 389 191 L 390 190 L 391 192 L 388 197 L 386 201 L 383 204 L 382 205" stroke="#ffffff" stroke-width="2" stroke-linecap="round" stroke-linejoin="round" fill="none"/><path d="M 379 204 L 378 206 L 377 206 L 378 206 L 381 205 L 385 203 L 389 200 L 392 198 L 393 197 L 392 197 L 389 200 L 386 204 L 383 207 L 381 210 L 379 211 L 378 211 L 376 212 L 374 214 L 373 215 L 372 215 L 374 214 L 377 212 L 382 211 L 389 208 L 401 205 L 415 201 L 418 200" stroke="#ffffff" stroke-width="2" stroke-linecap="round" stroke-linejoin="round" fill="none"/><path d="M 428 192 L 426 192 L 425 191 L 424 191 L 422 192 L 418 195 L 416 197 L 415 200 L 417 203 L 424 205 L 436 206 L 446 207" stroke="#ffffff" stroke-width="2" stroke-linecap="round" stroke-linejoin="round" fill="none"/><path d="M 291 108 L 290 107 L 290 108 L 293 114 L 298 121 L 307 129 L 319 135 L 327 139 L 329 143 L 330 147" stroke="#ffffff" stroke-width="2" stroke-linecap="round" stroke-linejoin="round" fill="none"/></svg>
