<svg xmlns="http://www.w3.org/2000/svg" width="624" height="156" viewBox="0 0 624 156"><path d="M 11 60 L 10 60 L 10 59 L 12 59 L 17 58 L 26 55 L 34 52 L 40 50 L 42 49" stroke="#ffffff" stroke-width="2" stroke-linecap="round" stroke-linejoin="round" fill="none"/><path d="M 22 50 L 21 49 L 22 53 L 24 58 L 25 63 L 26 65" stroke="#ffffff" stroke-width="2" stroke-linecap="round" stroke-linejoin="round" fill="none"/><path d="M 32 43 L 32 42 L 32 48 L 32 59 L 30 71 L 29 80 L 28 86 L 27 86" stroke="#ffffff" stroke-width="2" stroke-linecap="round" stroke-linejoin="round" fill="none"/><path d="M 61 49 L 60 49 L 59 49 L 56 51 L 54 56 L 51 62 L 48 67 L 46 71 L 46 72" stroke="#ffffff" stroke-width="2" stroke-linecap="round" stroke-linejoin="round" fill="none"/><path d="M 54 57 L 54 56 L 55 55 L 55 56 L 54 61 L 53 69 L 52 78 L 51 84 L 51 85" stroke="#ffffff" stroke-width="2" stroke-linecap="round" stroke-linejoin="round" fill="none"/><path d="M 61 62 L 60 63 L 60 67 L 60 73 L 61 78 L 63 82" stroke="#ffffff" stroke-width="2" stroke-linecap="round" stroke-linejoin="round" fill="none"/><path d="M 63 72 L 62 72 L 61 72 L 62 72 L 65 72 L 69 71 L 72 70" stroke="#ffffff" stroke-width="2" stroke-linecap="round" stroke-linejoin="round" fill="none"/><path d="M 72 57 L 70 58 L 70 59 L 70 61 L 70 62" stroke="#ffffff" stroke-width="2" stroke-linecap="round" stroke-linejoin="round" fill="none"/><path d="M 77 52 L 77 51 L 77 50 L 77 52 L 77 55" stroke="#ffffff" stroke-width="2" stroke-linecap="round" stroke-linejoin="round" fill="none"/><path d="M 102 61 L 100 60 L 99 60 L 98 65 L 97 71 L 97 73" stroke="#ffffff" stroke-width="2" stroke-linecap="round" stroke-linejoin="round" fill="none"/><path d="M 108 60 L 108 59 L 108 60 L 108 64 L 108 70 L 111 73 L 113 74 L 116 71 L 118 65 L 118 60 L 118 56 L 115 55 L 112 57 L 110 59" stroke="#ffffff" stroke-width="2" stroke-linecap="round" stroke-linejoin="round" fill="none"/><path d="M 145 53 L 145 52 L 144 51 L 143 52 L 143 56 L 142 62 L 142 67 L 143 69" stroke="#ffffff" stroke-width="2" stroke-linecap="round" stroke-linejoin="round" fill="none"/><path d="M 150 52 L 151 50 L 152 50 L 154 52 L 156 59 L 158 64" stroke="#ffffff" stroke-width="2" stroke-linecap="round" stroke-linejoin="round" fill="none"/><path d="M 160 36 L 159 36 L 158 38 L 158 41 L 158 43" stroke="#ffffff" stroke-width="2" stroke-linecap="round" stroke-linejoin="round" fill="none"/><path d="M 163 38 L 163 36 L 163 35 L 163 37 L 163 40" stroke="#ffffff" stroke-width="2" stroke-linecap="round" stroke-linejoin="round" fill="none"/><path d="M 176 55 L 175 55 L 174 54 L 173 56 L 173 57" stroke="#ffffff" stroke-width="2" stroke-linecap="round" stroke-linejoin="round" fill="none"/><path d="M 179 54 L 178 53 L 178 54" stroke="#ffffff" stroke-width="2" stroke-linecap="round" stroke-linejoin="round" fill="none"/><path d="M 185 52 L 184 52 L 183 53 L 181 56 L 180 61 L 179 63" stroke="#ffffff" stroke-width="2" stroke-linecap="round" stroke-linejoin="round" fill="none"/><path d="M 193 40 L 193 39 L 192 39 L 191 41 L 190 46 L 189 50 L 189 51" stroke="#ffffff" stroke-width="2" stroke-linecap="round" stroke-linejoin="round" fill="none"/><path d="M 189 48 L 190 45 L 190 42 L 192 40 L 194 38 L 196 39 L 199 41 L 199 46 L 199 52 L 197 59 L 193 65 L 191 69" stroke="#ffffff" stroke-width="2" stroke-linecap="round" stroke-linejoin="round" fill="none"/><path d="M 221 47 L 220 46 L 220 45 L 219 46 L 219 51 L 219 56 L 219 61" stroke="#ffffff" stroke-width="2" stroke-linecap="round" stroke-linejoin="round" fill="none"/><path d="M 228 49 L 228 48 L 229 48 L 230 48 L 232 51 L 235 55 L 237 58" stroke="#ffffff" stroke-width="2" stroke-linecap="round" stroke-linejoin="round" fill="none"/><path d="M 238 43 L 238 42 L 237 41 L 238 40 L 241 39 L 248 38 L 256 37 L 261 36 L 262 35" stroke="#ffffff" stroke-width="2" stroke-linecap="round" stroke-linejoin="round" fill="none"/><path d="M 246 33 L 245 32 L 244 31 L 244 34 L 245 40 L 246 45 L 248 48" stroke="#ffffff" stroke-width="2" stroke-linecap="round" stroke-linejoin="round" fill="none"/><path d="M 254 28 L 253 27 L 252 26 L 252 27 L 252 32 L 253 40 L 252 49 L 250 56 L 247 61 L 245 62" stroke="#ffffff" stroke-width="2" stroke-linecap="round" stroke-linejoin="round" fill="none"/><path d="M 272 39 L 271 39 L 271 38 L 273 38 L 277 37 L 280 37" stroke="#ffffff" stroke-width="2" stroke-linecap="round" stroke-linejoin="round" fill="none"/><path d="M 271 46 L 270 45 L 269 45 L 271 45 L 274 45 L 277 45" stroke="#ffffff" stroke-width="2" stroke-linecap="round" stroke-linejoin="round" fill="none"/><path d="M 269 53 L 268 53 L 268 54 L 270 54 L 275 54 L 282 53 L 283 52" stroke="#ffffff" stroke-width="2" stroke-linecap="round" stroke-linejoin="round" fill="none"/><path d="M 332 28 L 332 26 L 331 25 L 330 26 L 329 32 L 327 40 L 326 46 L 326 51" stroke="#ffffff" stroke-width="2" stroke-linecap="round" stroke-linejoin="round" fill="none"/><path d="M 331 39 L 332 35 L 334 32 L 337 30 L 340 29 L 342 29" stroke="#ffffff" stroke-width="2" stroke-linecap="round" stroke-linejoin="round" fill="none"/><path d="M 329 48 L 329 47 L 330 46 L 334 43 L 340 39 L 343 37" stroke="#ffffff" stroke-width="2" stroke-linecap="round" stroke-linejoin="round" fill="none"/><path d="M 336 36 L 335 36 L 335 37 L 334 43 L 333 51 L 332 59 L 330 64 L 330 66" stroke="#ffffff" stroke-width="2" stroke-linecap="round" stroke-linejoin="round" fill="none"/><path d="M 334 46 L 335 46 L 337 48 L 340 49 L 343 50" stroke="#ffffff" stroke-width="2" stroke-linecap="round" stroke-linejoin="round" fill="none"/><path d="M 353 34 L 353 32 L 353 29 L 356 27 L 359 25 L 361 25 L 363 26" stroke="#ffffff" stroke-width="2" stroke-linecap="round" stroke-linejoin="round" fill="none"/><path d="M 355 31 L 354 32 L 352 33 L 351 36 L 350 40 L 349 45 L 350 49" stroke="#ffffff" stroke-width="2" stroke-linecap="round" stroke-linejoin="round" fill="none"/><path d="M 353 43 L 354 39 L 355 36 L 357 35 L 358 35 L 358 37 L 358 40 L 356 43 L 355 45" stroke="#ffffff" stroke-width="2" stroke-linecap="round" stroke-linejoin="round" fill="none"/><path d="M 348 50 L 347 51 L 348 50 L 350 48 L 354 45 L 356 44" stroke="#ffffff" stroke-width="2" stroke-linecap="round" stroke-linejoin="round" fill="none"/><path d="M 359 41 L 358 42 L 357 45 L 356 49 L 356 50" stroke="#ffffff" stroke-width="2" stroke-linecap="round" stroke-linejoin="round" fill="none"/><path d="M 361 45 L 361 44 L 361 43 L 360 46 L 356 50 L 352 55 L 348 60 L 347 60" stroke="#ffffff" stroke-width="2" stroke-linecap="round" stroke-linejoin="round" fill="none"/><path d="M 345 60 L 346 60 L 351 58 L 360 55 L 366 53" stroke="#ffffff" stroke-width="2" stroke-linecap="round" stroke-linejoin="round" fill="none"/><path d="M 375 47 L 374 47 L 373 46 L 374 44 L 376 42 L 380 41 L 384 40 L 385 40 L 386 43 L 385 47 L 384 49 L 383 50 L 382 50 L 381 49 L 381 45 L 381 41 L 381 36 L 382 33 L 382 38 L 380 46 L 378 53 L 377 58 L 377 59" stroke="#ffffff" stroke-width="2" stroke-linecap="round" stroke-linejoin="round" fill="none"/><path d="M 391 30 L 391 29 L 392 28 L 393 29 L 395 34 L 398 42 L 400 44" stroke="#ffffff" stroke-width="2" stroke-linecap="round" stroke-linejoin="round" fill="none"/><path d="M 407 36 L 407 35 L 408 34 L 411 32 L 415 31 L 419 31 L 420 31 L 421 31" stroke="#ffffff" stroke-width="2" stroke-linecap="round" stroke-linejoin="round" fill="none"/><path d="M 414 29 L 414 28 L 414 27 L 414 31 L 414 38 L 412 46 L 410 52 L 408 54 L 406 54 L 405 51 L 405 48 L 407 44 L 410 41 L 412 41 L 414 43 L 415 49 L 414 54 L 412 58 L 410 61 L 409 62" stroke="#ffffff" stroke-width="2" stroke-linecap="round" stroke-linejoin="round" fill="none"/><path d="M 431 41 L 430 39 L 431 37 L 434 36 L 438 34 L 441 34 L 442 34" stroke="#ffffff" stroke-width="2" stroke-linecap="round" stroke-linejoin="round" fill="none"/><path d="M 429 45 L 428 45 L 427 45 L 430 44 L 434 42 L 438 40 L 439 39" stroke="#ffffff" stroke-width="2" stroke-linecap="round" stroke-linejoin="round" fill="none"/><path d="M 434 30 L 434 28 L 434 32 L 435 39 L 435 46 L 436 52" stroke="#ffffff" stroke-width="2" stroke-linecap="round" stroke-linejoin="round" fill="none"/><path d="M 429 51 L 429 52 L 429 53 L 430 56 L 433 58 L 437 59 L 438 59" stroke="#ffffff" stroke-width="2" stroke-linecap="round" stroke-linejoin="round" fill="none"/><path d="M 446 22 L 446 23 L 444 24 L 442 28 L 441 33" stroke="#ffffff" stroke-width="2" stroke-linecap="round" stroke-linejoin="round" fill="none"/><path d="M 453 19 L 453 17 L 452 17 L 452 21 L 452 25" stroke="#ffffff" stroke-width="2" stroke-linecap="round" stroke-linejoin="round" fill="none"/><path d="M 458 38 L 458 36 L 459 34 L 463 31 L 469 29 L 473 28 L 474 28" stroke="#ffffff" stroke-width="2" stroke-linecap="round" stroke-linejoin="round" fill="none"/><path d="M 468 26 L 468 25 L 468 27 L 468 32 L 466 40 L 463 48 L 460 53 L 458 54 L 457 53 L 457 50 L 457 46 L 459 42 L 462 40 L 466 40 L 469 44 L 469 50 L 466 57 L 462 62 L 459 64 L 457 63 L 457 62" stroke="#ffffff" stroke-width="2" stroke-linecap="round" stroke-linejoin="round" fill="none"/><path d="M 478 17 L 475 21 L 473 25" stroke="#ffffff" stroke-width="2" stroke-linecap="round" stroke-linejoin="round" fill="none"/><path d="M 488 10 L 487 10 L 484 12 L 483 18 L 482 21" stroke="#ffffff" stroke-width="2" stroke-linecap="round" stroke-linejoin="round" fill="none"/><path d="M 494 33 L 494 31 L 495 28 L 499 27 L 504 26 L 506 26" stroke="#ffffff" stroke-width="2" stroke-linecap="round" stroke-linejoin="round" fill="none"/><path d="M 498 32 L 497 32 L 496 32 L 495 33 L 495 35 L 495 40 L 495 44" stroke="#ffffff" stroke-width="2" stroke-linecap="round" stroke-linejoin="round" fill="none"/><path d="M 498 38 L 498 37 L 499 34 L 500 33 L 502 32 L 504 32" stroke="#ffffff" stroke-width="2" stroke-linecap="round" stroke-linejoin="round" fill="none"/><path d="M 493 45 L 492 45 L 491 45 L 492 44 L 496 41 L 502 38 L 507 36" stroke="#ffffff" stroke-width="2" stroke-linecap="round" stroke-linejoin="round" fill="none"/><path d="M 486 55 L 485 56 L 484 57 L 490 55 L 497 51 L 503 47 L 507 44 L 509 42 L 508 41 L 507 43 L 504 48 L 502 52 L 500 56 L 499 59 L 499 58 L 499 55 L 499 51 L 500 47 L 501 42 L 501 40 L 502 40 L 502 44 L 502 50 L 503 55 L 505 58 L 507 59 L 508 59" stroke="#ffffff" stroke-width="2" stroke-linecap="round" stroke-linejoin="round" fill="none"/><path d="M 524 33 L 523 32 L 523 30 L 523 29 L 525 27 L 530 26 L 536 26 L 541 26 L 542 26" stroke="#ffffff" stroke-width="2" stroke-linecap="round" stroke-linejoin="round" fill="none"/><path d="M 535 26 L 533 25 L 533 24 L 533 29 L 531 38 L 527 47 L 524 52 L 523 51 L 523 48 L 523 45 L 525 41 L 527 38 L 530 37 L 532 38 L 532 45 L 530 53 L 525 59 L 523 64 L 522 64" stroke="#ffffff" stroke-width="2" stroke-linecap="round" stroke-linejoin="round" fill="none"/><path d="M 554 40 L 553 40 L 553 38 L 554 37 L 557 36 L 560 35 L 563 35" stroke="#ffffff" stroke-width="2" stroke-linecap="round" stroke-linejoin="round" fill="none"/><path d="M 547 46 L 546 46 L 546 45 L 549 43 L 554 42 L 560 40 L 562 40" stroke="#ffffff" stroke-width="2" stroke-linecap="round" stroke-linejoin="round" fill="none"/><path d="M 556 32 L 555 31 L 555 32 L 555 36 L 556 42 L 556 47" stroke="#ffffff" stroke-width="2" stroke-linecap="round" stroke-linejoin="round" fill="none"/><path d="M 545 51 L 546 53 L 550 56 L 555 58" stroke="#ffffff" stroke-width="2" stroke-linecap="round" stroke-linejoin="round" fill="none"/><path d="M 566 24 L 564 24 L 563 26" stroke="#ffffff" stroke-width="2" stroke-linecap="round" stroke-linejoin="round" fill="none"/><path d="M 574 22 L 575 21 L 574 21 L 573 24 L 573 26" stroke="#ffffff" stroke-width="2" stroke-linecap="round" stroke-linejoin="round" fill="none"/><path d="M 576 37 L 576 36 L 576 35 L 577 33 L 581 31 L 586 31 L 591 31 L 594 31 L 594 32" stroke="#ffffff" stroke-width="2" stroke-linecap="round" stroke-linejoin="round" fill="none"/><path d="M 588 29 L 587 28 L 587 30 L 586 35 L 584 43 L 580 51 L 576 56 L 574 57 L 573 55 L 573 52 L 575 47 L 578 42 L 581 39 L 584 38 L 586 43 L 585 51 L 581 59 L 577 65 L 575 68" stroke="#ffffff" stroke-width="2" stroke-linecap="round" stroke-linejoin="round" fill="none"/><path d="M 607 18 L 607 19 L 604 24 L 604 25" stroke="#ffffff" stroke-width="2" stroke-linecap="round" stroke-linejoin="round" fill="none"/><path d="M 614 21 L 613 22 L 612 25" stroke="#ffffff" stroke-width="2" stroke-linecap="round" stroke-linejoin="round" fill="none"/><path d="M 534 19 L 534 18 L 533 17 L 533 16 L 533 15 L 533 18 L 533 22 L 533 26 L 533 29" stroke="#ffffff" stroke-width="2" stroke-linecap="round" stroke-linejoin="round" fill="none"/><path d="M 20 101 L 19 102 L 17 108 L 16 117 L 16 124 L 16 128 L 17 129" stroke="#ffffff" stroke-width="2" stroke-linecap="round" stroke-linejoin="round" fill="none"/><path d="M 18 121 L 18 118 L 18 116 L 21 113 L 26 110 L 31 109 L 35 108" stroke="#ffffff" stroke-width="2" stroke-linecap="round" stroke-linejoin="round" fill="none"/><path d="M 26 118 L 25 119 L 24 119 L 24 121 L 25 123 L 26 125" stroke="#ffffff" stroke-width="2" stroke-linecap="round" stroke-linejoin="round" fill="none"/><path d="M 28 121 L 28 119 L 28 117 L 29 115 L 32 114 L 34 114" stroke="#ffffff" stroke-width="2" stroke-linecap="round" stroke-linejoin="round" fill="none"/><path d="M 19 138 L 18 138 L 17 137 L 19 135 L 25 131 L 32 126 L 38 123 L 40 121 L 40 120" stroke="#ffffff" stroke-width="2" stroke-linecap="round" stroke-linejoin="round" fill="none"/><path d="M 31 114 L 30 112 L 30 111 L 30 112 L 32 118 L 33 127 L 34 138 L 34 146" stroke="#ffffff" stroke-width="2" stroke-linecap="round" stroke-linejoin="round" fill="none"/><path d="M 60 114 L 59 113 L 59 110 L 61 108 L 64 106 L 67 105" stroke="#ffffff" stroke-width="2" stroke-linecap="round" stroke-linejoin="round" fill="none"/><path d="M 60 120 L 59 120 L 58 119 L 60 117 L 63 114 L 67 113" stroke="#ffffff" stroke-width="2" stroke-linecap="round" stroke-linejoin="round" fill="none"/><path d="M 63 104 L 63 102 L 63 101 L 63 100 L 64 104 L 65 113 L 65 124 L 66 132 L 66 138 L 66 139" stroke="#ffffff" stroke-width="2" stroke-linecap="round" stroke-linejoin="round" fill="none"/><path d="M 68 122 L 68 121 L 67 121 L 66 121 L 63 127 L 60 133 L 57 138" stroke="#ffffff" stroke-width="2" stroke-linecap="round" stroke-linejoin="round" fill="none"/><path d="M 65 118 L 68 117 L 73 118 L 79 120 L 85 123" stroke="#ffffff" stroke-width="2" stroke-linecap="round" stroke-linejoin="round" fill="none"/><path d="M 67 115 L 67 114 L 67 113 L 69 113 L 71 112" stroke="#ffffff" stroke-width="2" stroke-linecap="round" stroke-linejoin="round" fill="none"/><path d="M 118 99 L 117 99 L 115 99 L 114 101 L 112 104 L 111 108" stroke="#ffffff" stroke-width="2" stroke-linecap="round" stroke-linejoin="round" fill="none"/><path d="M 112 107 L 111 106 L 110 108 L 110 113 L 110 120 L 111 125" stroke="#ffffff" stroke-width="2" stroke-linecap="round" stroke-linejoin="round" fill="none"/><path d="M 111 118 L 111 114 L 112 109 L 116 104 L 122 100 L 128 99 L 132 99 L 133 102 L 133 107 L 132 112 L 130 115 L 129 116" stroke="#ffffff" stroke-width="2" stroke-linecap="round" stroke-linejoin="round" fill="none"/><path d="M 120 115 L 119 115 L 119 113 L 120 111 L 122 109 L 125 106 L 127 104 L 127 103 L 127 104 L 126 107 L 126 111 L 126 115 L 126 118" stroke="#ffffff" stroke-width="2" stroke-linecap="round" stroke-linejoin="round" fill="none"/><path d="M 119 111 L 118 111 L 117 113 L 118 114 L 120 114" stroke="#ffffff" stroke-width="2" stroke-linecap="round" stroke-linejoin="round" fill="none"/><path d="M 129 103 L 129 102 L 128 102 L 127 106 L 125 110 L 125 113" stroke="#ffffff" stroke-width="2" stroke-linecap="round" stroke-linejoin="round" fill="none"/><path d="M 128 107 L 128 106 L 128 107 L 126 112 L 124 117 L 122 122" stroke="#ffffff" stroke-width="2" stroke-linecap="round" stroke-linejoin="round" fill="none"/><path d="M 107 133 L 106 133 L 108 132 L 115 128 L 128 121 L 137 115 L 143 111 L 144 109" stroke="#ffffff" stroke-width="2" stroke-linecap="round" stroke-linejoin="round" fill="none"/><path d="M 127 116 L 126 115 L 125 115 L 124 117 L 123 123 L 121 131 L 120 136 L 120 138" stroke="#ffffff" stroke-width="2" stroke-linecap="round" stroke-linejoin="round" fill="none"/><path d="M 126 122 L 128 120 L 130 121 L 135 125 L 140 129 L 147 130 L 149 130" stroke="#ffffff" stroke-width="2" stroke-linecap="round" stroke-linejoin="round" fill="none"/><path d="M 124 100 L 124 101 L 125 105" stroke="#ffffff" stroke-width="2" stroke-linecap="round" stroke-linejoin="round" fill="none"/><path d="M 163 115 L 162 114 L 162 111 L 164 109 L 168 106 L 172 104 L 175 103" stroke="#ffffff" stroke-width="2" stroke-linecap="round" stroke-linejoin="round" fill="none"/><path d="M 172 103 L 170 103 L 169 103 L 168 104 L 168 108 L 168 112 L 169 115" stroke="#ffffff" stroke-width="2" stroke-linecap="round" stroke-linejoin="round" fill="none"/><path d="M 161 123 L 159 124 L 159 126 L 162 128 L 167 128 L 170 128" stroke="#ffffff" stroke-width="2" stroke-linecap="round" stroke-linejoin="round" fill="none"/><path d="M 186 107 L 184 108 L 183 113 L 182 119 L 182 122 L 182 123 L 184 122 L 186 119 L 187 117 L 188 116 L 190 116 L 192 116 L 194 116" stroke="#ffffff" stroke-width="2" stroke-linecap="round" stroke-linejoin="round" fill="none"/><path d="M 214 106 L 214 104 L 214 102 L 218 99 L 223 97 L 228 95 L 229 95" stroke="#ffffff" stroke-width="2" stroke-linecap="round" stroke-linejoin="round" fill="none"/><path d="M 225 97 L 222 99 L 220 101 L 219 106 L 219 109 L 220 111" stroke="#ffffff" stroke-width="2" stroke-linecap="round" stroke-linejoin="round" fill="none"/><path d="M 233 100 L 232 100 L 230 100 L 228 101 L 225 104 L 222 108 L 220 111" stroke="#ffffff" stroke-width="2" stroke-linecap="round" stroke-linejoin="round" fill="none"/><path d="M 212 118 L 211 118 L 212 116 L 218 112 L 227 108 L 234 104 L 236 102" stroke="#ffffff" stroke-width="2" stroke-linecap="round" stroke-linejoin="round" fill="none"/><path d="M 225 86 L 224 85 L 224 86 L 224 94 L 224 106 L 225 118 L 225 125 L 225 130 L 225 132" stroke="#ffffff" stroke-width="2" stroke-linecap="round" stroke-linejoin="round" fill="none"/><path d="M 228 112 L 226 113 L 224 116 L 221 121 L 218 126 L 216 129" stroke="#ffffff" stroke-width="2" stroke-linecap="round" stroke-linejoin="round" fill="none"/><path d="M 223 115 L 223 114 L 225 113 L 230 114 L 239 115 L 249 115" stroke="#ffffff" stroke-width="2" stroke-linecap="round" stroke-linejoin="round" fill="none"/><path d="M 252 101 L 251 99 L 253 98 L 257 98 L 260 98 L 262 100 L 262 103 L 260 106 L 257 108 L 255 108 L 254 108 L 256 109 L 259 111 L 263 114 L 264 117 L 263 121 L 260 124 L 256 125 L 252 126 L 250 124 L 250 121 L 253 119 L 257 118 L 262 118 L 267 119 L 268 120" stroke="#ffffff" stroke-width="2" stroke-linecap="round" stroke-linejoin="round" fill="none"/><path d="M 120 92 L 121 91 L 121 90 L 121 93 L 119 100 L 118 106" stroke="#ffffff" stroke-width="2" stroke-linecap="round" stroke-linejoin="round" fill="none"/></svg>
