<svg xmlns="http://www.w3.org/2000/svg" width="711" height="694" viewBox="0 0 711 694"><path d="M 109 356 L 111 358 L 132 364 L 174 379 L 222 395 L 268 412 L 320 431 L 373 447 L 423 460 L 470 465 L 512 465 L 552 448 L 583 424 L 601 391 L 614 353 L 622 312 L 627 272 L 628 238 L 625 202 L 612 160 L 591 122 L 562 87 L 525 57 L 483 37 L 433 20 L 376 10 L 316 10 L 256 20 L 196 39 L 144 67 L 101 102 L 75 143 L 62 191 L 59 254 L 72 332 L 99 411 L 133 486 L 180 560 L 231 617 L 284 662 L 331 686 L 371 695 L 407 694 L 441 683 L 473 667 L 508 646 L 544 622 L 576 601 L 604 582 L 630 557 L 653 530 L 672 495 L 688 457 L 698 410 L 701 354 L 700 291 L 688 233 L 668 177 L 635 124 L 601 85 L 565 61 L 530 51 L 499 52 L 473 78 L 460 125 L 458 184 L 463 272 L 475 375 L 482 458 L 483 514 L 481 546 L 470 554 L 451 546 L 414 491 L 362 401 L 309 318 L 259 252 L 222 213 L 202 206 L 197 215 L 199 240 L 224 293 L 250 356 L 265 405 L 271 441 L 270 458 L 261 461 L 239 444 L 198 378 L 148 303 L 94 242 L 46 203 L 16 193 L 3 201 L 2 230 L 24 283 L 56 358 L 84 429 L 104 495 L 121 546 L 128 571 L 130 573 L 130 565 L 115 511 L 85 437 L 42 364 L -4 302 L -43 256 L -49 238" stroke="#ffffff" stroke-width="2" stroke-linecap="round" stroke-linejoin="round" fill="none"/></svg>
