<svg xmlns="http://www.w3.org/2000/svg" width="698" height="161" viewBox="0 0 698 161"><path d="M 56 21 L 55 18 L 54 14 L 52 11 L 50 10 L 48 10 L 46 10 L 45 12 L 44 14 L 44 18 L 44 24 L 46 30 L 48 36 L 49 39 L 49 41 L 48 43 L 44 43 L 41 44 L 39 43 L 38 41 L 39 38 L 42 33 L 46 29 L 50 25 L 54 22 L 55 21" stroke="#ffffff" stroke-width="2" stroke-linecap="round" stroke-linejoin="round" fill="none"/><path d="M 21 40 L 20 40 L 19 40 L 17 40 L 16 40 L 15 41 L 14 43 L 12 45 L 11 46 L 10 47 L 10 48 L 12 48 L 14 48 L 17 47 L 21 46 L 25 46 L 27 45 L 28 45" stroke="#ffffff" stroke-width="2" stroke-linecap="round" stroke-linejoin="round" fill="none"/><path d="M 83 11 L 82 11 L 79 18 L 71 32 L 63 49 L 57 62 L 54 70 L 53 75 L 53 77" stroke="#ffffff" stroke-width="2" stroke-linecap="round" stroke-linejoin="round" fill="none"/><path d="M 94 40 L 93 40 L 91 38 L 91 37 L 91 40 L 91 46 L 91 54 L 90 60 L 91 62" stroke="#ffffff" stroke-width="2" stroke-linecap="round" stroke-linejoin="round" fill="none"/><path d="M 111 36 L 110 35 L 109 34 L 109 35 L 109 39 L 109 43 L 109 48 L 109 54 L 109 57 L 109 58 L 109 59 L 109 58" stroke="#ffffff" stroke-width="2" stroke-linecap="round" stroke-linejoin="round" fill="none"/><path d="M 173 26 L 173 25 L 172 23 L 174 20 L 178 17 L 183 15 L 187 14 L 189 13" stroke="#ffffff" stroke-width="2" stroke-linecap="round" stroke-linejoin="round" fill="none"/><path d="M 177 20 L 175 20 L 174 20 L 174 23 L 174 31 L 174 41 L 174 50 L 174 55" stroke="#ffffff" stroke-width="2" stroke-linecap="round" stroke-linejoin="round" fill="none"/><path d="M 175 39 L 172 39 L 171 38 L 173 37 L 179 35 L 186 32 L 194 29" stroke="#ffffff" stroke-width="2" stroke-linecap="round" stroke-linejoin="round" fill="none"/><path d="M 206 36 L 203 36 L 202 36 L 204 34 L 209 32 L 214 29" stroke="#ffffff" stroke-width="2" stroke-linecap="round" stroke-linejoin="round" fill="none"/><path d="M 247 26 L 245 22 L 244 21 L 241 22 L 237 26 L 233 35 L 231 43 L 231 49 L 236 50 L 244 45 L 247 44" stroke="#ffffff" stroke-width="2" stroke-linecap="round" stroke-linejoin="round" fill="none"/><path d="M 270 30 L 269 29 L 269 28 L 269 27 L 272 27 L 275 29 L 276 32 L 276 36 L 273 40 L 269 43 L 265 44 L 263 44 L 264 44 L 268 44 L 273 43 L 280 42 L 285 41 L 288 41" stroke="#ffffff" stroke-width="2" stroke-linecap="round" stroke-linejoin="round" fill="none"/><path d="M 298 23 L 296 21 L 295 21 L 295 23 L 295 27 L 297 31 L 300 34 L 304 36 L 308 37 L 309 38 L 308 39 L 304 41 L 300 42 L 296 42" stroke="#ffffff" stroke-width="2" stroke-linecap="round" stroke-linejoin="round" fill="none"/><path d="M 297 26 L 297 25 L 298 22 L 300 21 L 304 21 L 310 23 L 314 24" stroke="#ffffff" stroke-width="2" stroke-linecap="round" stroke-linejoin="round" fill="none"/><path d="M 351 13 L 352 12 L 352 11 L 352 10 L 351 11 L 348 19 L 341 35 L 332 52 L 326 63 L 324 69" stroke="#ffffff" stroke-width="2" stroke-linecap="round" stroke-linejoin="round" fill="none"/><path d="M 373 34 L 372 34 L 371 34 L 371 33 L 375 30 L 381 27 L 389 25 L 395 24 L 397 23 L 397 21 L 393 21 L 390 23 L 388 24 L 386 25 L 385 28 L 383 33 L 380 44 L 377 55 L 377 62 L 379 63" stroke="#ffffff" stroke-width="2" stroke-linecap="round" stroke-linejoin="round" fill="none"/><path d="M 407 23 L 404 23 L 402 26 L 400 34 L 398 46 L 397 55 L 397 60 L 397 61" stroke="#ffffff" stroke-width="2" stroke-linecap="round" stroke-linejoin="round" fill="none"/><path d="M 401 34 L 401 30 L 402 27 L 404 26 L 407 26 L 410 29 L 412 32 L 412 35 L 410 38 L 407 40 L 404 41 L 401 41 L 400 41 L 400 42 L 403 43 L 407 45 L 412 49 L 418 54 L 423 57" stroke="#ffffff" stroke-width="2" stroke-linecap="round" stroke-linejoin="round" fill="none"/><path d="M 467 29 L 467 28 L 467 25 L 466 22 L 463 18 L 460 15 L 456 16 L 453 19 L 451 26 L 452 33 L 454 39 L 456 45 L 456 50 L 453 53 L 449 54 L 446 53 L 445 49 L 444 44 L 446 40 L 449 37 L 455 34 L 463 31 L 470 29 L 474 29 L 475 29 L 475 30 L 475 29 L 475 28 L 474 29 L 473 32 L 472 38 L 472 43 L 475 45 L 481 43 L 486 37 L 487 32 L 485 27 L 481 26 L 476 27 L 471 31 L 470 36" stroke="#ffffff" stroke-width="2" stroke-linecap="round" stroke-linejoin="round" fill="none"/><path d="M 57 98 L 56 98 L 56 96 L 55 96 L 56 101 L 57 107 L 59 112 L 60 113" stroke="#ffffff" stroke-width="2" stroke-linecap="round" stroke-linejoin="round" fill="none"/><path d="M 73 93 L 72 93 L 70 93 L 66 98 L 61 105 L 58 112 L 56 115" stroke="#ffffff" stroke-width="2" stroke-linecap="round" stroke-linejoin="round" fill="none"/><path d="M 46 125 L 46 123 L 48 120 L 56 113 L 69 106 L 78 102 L 82 101" stroke="#ffffff" stroke-width="2" stroke-linecap="round" stroke-linejoin="round" fill="none"/><path d="M 62 117 L 61 117 L 60 117 L 58 123 L 57 135 L 57 145 L 58 150 L 58 151" stroke="#ffffff" stroke-width="2" stroke-linecap="round" stroke-linejoin="round" fill="none"/><path d="M 61 128 L 61 125 L 61 120 L 63 117 L 65 117 L 66 122 L 67 130 L 67 138 L 67 144" stroke="#ffffff" stroke-width="2" stroke-linecap="round" stroke-linejoin="round" fill="none"/><path d="M 61 131 L 60 128 L 60 126 L 60 125 L 62 125" stroke="#ffffff" stroke-width="2" stroke-linecap="round" stroke-linejoin="round" fill="none"/><path d="M 62 136 L 61 136 L 61 135 L 63 131 L 66 127" stroke="#ffffff" stroke-width="2" stroke-linecap="round" stroke-linejoin="round" fill="none"/><path d="M 73 114 L 72 116 L 71 119 L 70 123 L 71 126" stroke="#ffffff" stroke-width="2" stroke-linecap="round" stroke-linejoin="round" fill="none"/><path d="M 80 109 L 80 108 L 79 108 L 79 114 L 77 127 L 76 140 L 75 147" stroke="#ffffff" stroke-width="2" stroke-linecap="round" stroke-linejoin="round" fill="none"/><path d="M 93 109 L 92 109 L 91 107 L 94 104 L 97 103 L 99 102 L 99 103 L 98 105 L 96 109 L 95 114 L 94 119" stroke="#ffffff" stroke-width="2" stroke-linecap="round" stroke-linejoin="round" fill="none"/><path d="M 97 113 L 96 111 L 96 109 L 97 108 L 98 108" stroke="#ffffff" stroke-width="2" stroke-linecap="round" stroke-linejoin="round" fill="none"/><path d="M 94 121 L 92 121 L 91 120 L 92 118 L 95 116" stroke="#ffffff" stroke-width="2" stroke-linecap="round" stroke-linejoin="round" fill="none"/><path d="M 93 131 L 92 131 L 91 130 L 92 127 L 98 119" stroke="#ffffff" stroke-width="2" stroke-linecap="round" stroke-linejoin="round" fill="none"/><path d="M 115 90 L 113 91 L 111 94 L 108 102 L 106 111 L 106 113" stroke="#ffffff" stroke-width="2" stroke-linecap="round" stroke-linejoin="round" fill="none"/><path d="M 118 96 L 117 95 L 116 95 L 115 96 L 113 102 L 112 105" stroke="#ffffff" stroke-width="2" stroke-linecap="round" stroke-linejoin="round" fill="none"/><path d="M 105 124 L 103 125 L 102 125 L 103 124 L 107 120 L 112 115 L 116 110 L 117 108 L 116 109 L 115 114 L 114 119 L 112 125 L 110 131 L 107 136 L 104 138" stroke="#ffffff" stroke-width="2" stroke-linecap="round" stroke-linejoin="round" fill="none"/><path d="M 103 122 L 104 121 L 107 121 L 112 123 L 119 128 L 123 131" stroke="#ffffff" stroke-width="2" stroke-linecap="round" stroke-linejoin="round" fill="none"/><path d="M 144 115 L 144 114 L 143 109 L 145 103 L 149 97 L 153 94 L 157 94 L 159 94 L 159 95 L 157 97 L 155 100 L 153 104 L 152 109 L 152 115 L 153 121 L 154 128 L 153 134 L 151 139 L 149 141 L 148 141" stroke="#ffffff" stroke-width="2" stroke-linecap="round" stroke-linejoin="round" fill="none"/><path d="M 172 113 L 171 110 L 171 107 L 174 104 L 177 102 L 180 103 L 182 105 L 183 109 L 182 114 L 180 120 L 177 126 L 174 130 L 172 130" stroke="#ffffff" stroke-width="2" stroke-linecap="round" stroke-linejoin="round" fill="none"/><path d="M 187 79 L 185 81 L 183 84 L 182 89 L 182 91" stroke="#ffffff" stroke-width="2" stroke-linecap="round" stroke-linejoin="round" fill="none"/><path d="M 196 75 L 195 76 L 192 80 L 191 86 L 191 88" stroke="#ffffff" stroke-width="2" stroke-linecap="round" stroke-linejoin="round" fill="none"/><path d="M 204 103 L 204 101 L 207 97 L 211 93 L 214 91" stroke="#ffffff" stroke-width="2" stroke-linecap="round" stroke-linejoin="round" fill="none"/><path d="M 207 114 L 206 113 L 207 111 L 212 107 L 218 102 L 223 101 L 224 104 L 223 109 L 219 116 L 215 122 L 211 127" stroke="#ffffff" stroke-width="2" stroke-linecap="round" stroke-linejoin="round" fill="none"/><path d="M 165 129 L 164 128 L 165 128 L 166 128 L 170 129" stroke="#ffffff" stroke-width="2" stroke-linecap="round" stroke-linejoin="round" fill="none"/><path d="M 254 95 L 254 94 L 252 94 L 248 99 L 243 107 L 238 114 L 235 120 L 234 122" stroke="#ffffff" stroke-width="2" stroke-linecap="round" stroke-linejoin="round" fill="none"/><path d="M 242 109 L 242 108 L 241 111 L 241 118 L 241 124" stroke="#ffffff" stroke-width="2" stroke-linecap="round" stroke-linejoin="round" fill="none"/><path d="M 256 113 L 256 111 L 256 109 L 257 108 L 260 107" stroke="#ffffff" stroke-width="2" stroke-linecap="round" stroke-linejoin="round" fill="none"/><path d="M 264 123 L 263 123 L 263 121 L 267 115 L 275 106 L 283 92" stroke="#ffffff" stroke-width="2" stroke-linecap="round" stroke-linejoin="round" fill="none"/><path d="M 305 98 L 303 98 L 301 102 L 299 112 L 299 121 L 302 125 L 303 125" stroke="#ffffff" stroke-width="2" stroke-linecap="round" stroke-linejoin="round" fill="none"/><path d="M 316 106 L 316 103 L 316 100 L 318 99 L 319 99 L 321 99" stroke="#ffffff" stroke-width="2" stroke-linecap="round" stroke-linejoin="round" fill="none"/><path d="M 319 111 L 318 112 L 321 110 L 324 108" stroke="#ffffff" stroke-width="2" stroke-linecap="round" stroke-linejoin="round" fill="none"/><path d="M 361 89 L 362 89 L 362 88 L 359 92 L 353 102 L 346 114 L 342 122 L 342 123" stroke="#ffffff" stroke-width="2" stroke-linecap="round" stroke-linejoin="round" fill="none"/><path d="M 353 105 L 354 104 L 354 109 L 353 118 L 353 127 L 353 128" stroke="#ffffff" stroke-width="2" stroke-linecap="round" stroke-linejoin="round" fill="none"/><path d="M 379 83 L 378 83 L 376 83 L 373 87 L 369 96 L 367 104 L 366 107" stroke="#ffffff" stroke-width="2" stroke-linecap="round" stroke-linejoin="round" fill="none"/><path d="M 370 100 L 370 99 L 371 96 L 375 91 L 381 87 L 384 86 L 385 86 L 385 87 L 384 87 L 383 87 L 381 89 L 380 93 L 379 99 L 378 108 L 377 118 L 377 124 L 378 125" stroke="#ffffff" stroke-width="2" stroke-linecap="round" stroke-linejoin="round" fill="none"/><path d="M 385 101 L 385 100 L 384 97 L 385 96 L 387 96 L 388 96" stroke="#ffffff" stroke-width="2" stroke-linecap="round" stroke-linejoin="round" fill="none"/><path d="M 383 110 L 381 110 L 380 109 L 383 106 L 390 101 L 392 99" stroke="#ffffff" stroke-width="2" stroke-linecap="round" stroke-linejoin="round" fill="none"/><path d="M 409 111 L 409 110 L 409 108 L 411 106 L 414 106 L 415 110 L 413 115 L 410 121 L 408 123" stroke="#ffffff" stroke-width="2" stroke-linecap="round" stroke-linejoin="round" fill="none"/><path d="M 429 100 L 428 99 L 428 97 L 431 94 L 438 90 L 446 87 L 450 85 L 451 84" stroke="#ffffff" stroke-width="2" stroke-linecap="round" stroke-linejoin="round" fill="none"/><path d="M 443 80 L 442 79 L 440 78 L 438 83 L 435 95 L 433 107 L 432 113 L 433 117 L 434 118 L 435 118" stroke="#ffffff" stroke-width="2" stroke-linecap="round" stroke-linejoin="round" fill="none"/><path d="M 445 104 L 446 102 L 446 100 L 447 98 L 450 98 L 453 97 L 454 97" stroke="#ffffff" stroke-width="2" stroke-linecap="round" stroke-linejoin="round" fill="none"/><path d="M 451 107 L 451 108 L 449 108 L 448 109 L 450 109 L 457 107 L 465 103 L 467 102" stroke="#ffffff" stroke-width="2" stroke-linecap="round" stroke-linejoin="round" fill="none"/><path d="M 504 103 L 503 103 L 504 100 L 509 97 L 513 94 L 516 93 L 517 92" stroke="#ffffff" stroke-width="2" stroke-linecap="round" stroke-linejoin="round" fill="none"/><path d="M 515 87 L 515 88 L 513 89 L 510 95 L 505 104 L 502 113 L 501 118 L 501 119" stroke="#ffffff" stroke-width="2" stroke-linecap="round" stroke-linejoin="round" fill="none"/><path d="M 522 94 L 524 92 L 525 90 L 528 89 L 531 89 L 533 89 L 534 89 L 533 90 L 532 91 L 529 93 L 527 95 L 525 100 L 523 106 L 520 112 L 518 117 L 517 119 L 516 118 L 516 116 L 516 113 L 518 110 L 522 107 L 528 104 L 535 102" stroke="#ffffff" stroke-width="2" stroke-linecap="round" stroke-linejoin="round" fill="none"/><path d="M 540 107 L 539 106 L 539 104 L 542 100 L 548 97 L 553 96 L 555 98 L 555 101 L 553 104 L 552 106 L 551 107 L 550 106 L 549 103 L 549 99 L 550 93 L 551 89 L 552 88 L 550 93 L 547 101 L 543 109 L 540 115 L 539 117" stroke="#ffffff" stroke-width="2" stroke-linecap="round" stroke-linejoin="round" fill="none"/><path d="M 556 88 L 556 89 L 557 90 L 560 92 L 565 96 L 573 99" stroke="#ffffff" stroke-width="2" stroke-linecap="round" stroke-linejoin="round" fill="none"/><path d="M 569 78 L 567 78 L 564 80 L 563 83" stroke="#ffffff" stroke-width="2" stroke-linecap="round" stroke-linejoin="round" fill="none"/><path d="M 575 77 L 575 76 L 573 78 L 572 83" stroke="#ffffff" stroke-width="2" stroke-linecap="round" stroke-linejoin="round" fill="none"/><path d="M 589 85 L 585 85 L 581 90 L 578 100 L 578 108 L 580 111 L 585 111 L 591 107 L 596 103" stroke="#ffffff" stroke-width="2" stroke-linecap="round" stroke-linejoin="round" fill="none"/><path d="M 621 74 L 621 73 L 621 71 L 620 71 L 617 74 L 613 80 L 608 86" stroke="#ffffff" stroke-width="2" stroke-linecap="round" stroke-linejoin="round" fill="none"/><path d="M 607 87 L 607 85 L 607 83 L 609 80 L 614 79 L 620 79 L 623 79" stroke="#ffffff" stroke-width="2" stroke-linecap="round" stroke-linejoin="round" fill="none"/><path d="M 614 97 L 614 96 L 613 95 L 615 92 L 618 91 L 621 90 L 623 93 L 624 97 L 622 102 L 620 105 L 617 107 L 615 106 L 613 103 L 613 98 L 614 92 L 616 86 L 617 82 L 618 81 L 617 82 L 615 87 L 611 95 L 605 105 L 599 114 L 597 119" stroke="#ffffff" stroke-width="2" stroke-linecap="round" stroke-linejoin="round" fill="none"/><path d="M 660 83 L 659 83 L 659 81 L 658 83 L 654 89 L 648 96 L 643 102 L 641 104" stroke="#ffffff" stroke-width="2" stroke-linecap="round" stroke-linejoin="round" fill="none"/><path d="M 653 93 L 653 92 L 653 91 L 653 92 L 650 98 L 648 104 L 647 110 L 647 112" stroke="#ffffff" stroke-width="2" stroke-linecap="round" stroke-linejoin="round" fill="none"/><path d="M 660 91 L 660 90 L 660 88 L 661 87 L 663 85 L 668 85 L 673 85 L 677 85" stroke="#ffffff" stroke-width="2" stroke-linecap="round" stroke-linejoin="round" fill="none"/><path d="M 660 100 L 660 99 L 661 97 L 663 95 L 666 94 L 669 94 L 669 95 L 668 98 L 666 101 L 663 105 L 661 107 L 660 108 L 660 106 L 662 103 L 665 101 L 667 100 L 672 100 L 678 101 L 685 101 L 686 101" stroke="#ffffff" stroke-width="2" stroke-linecap="round" stroke-linejoin="round" fill="none"/><path d="M 654 126 L 648 127 L 642 128 L 639 127 L 636 125 L 633 122 L 630 117 L 628 112 L 628 106 L 630 100 L 634 95 L 639 89 L 646 83 L 655 78 L 666 74 L 676 72 L 683 73 L 690 77 L 695 82 L 697 89 L 696 96 L 692 104 L 685 111 L 677 118 L 668 124 L 661 127 L 657 128 L 655 126 L 654 125" stroke="#ffffff" stroke-width="2" stroke-linecap="round" stroke-linejoin="round" fill="none"/><path d="M 666 96 L 667 96 L 668 95 L 670 95 L 673 94 L 678 94 L 681 93" stroke="#ffffff" stroke-width="2" stroke-linecap="round" stroke-linejoin="round" fill="none"/><path d="M 621 82 L 622 81 L 623 81 L 625 81" stroke="#ffffff" stroke-width="2" stroke-linecap="round" stroke-linejoin="round" fill="none"/></svg>
