<svg xmlns="http://www.w3.org/2000/svg" width="688" height="283" viewBox="0 0 688 283"><path d="M 287 94 L 285 87" stroke="#ffffff" stroke-width="2" stroke-linecap="round" stroke-linejoin="round" fill="none"/><path d="M 295 106 L 295 106" stroke="#ffffff" stroke-width="2" stroke-linecap="round" stroke-linejoin="round" fill="none"/><path d="M 11 20 L 10 19 L 10 20 L 10 26 L 10 35 L 10 45 L 10 51 L 11 53" stroke="#ffffff" stroke-width="2" stroke-linecap="round" stroke-linejoin="round" fill="none"/><path d="M 28 20 L 27 19 L 29 18 L 33 19 L 35 21 L 36 24 L 35 28 L 31 30 L 28 31 L 26 31 L 25 30 L 28 29 L 32 29 L 37 31 L 39 34 L 39 37 L 36 40 L 32 42 L 27 43 L 24 43 L 24 42" stroke="#ffffff" stroke-width="2" stroke-linecap="round" stroke-linejoin="round" fill="none"/><path d="M 73 11 L 71 10 L 69 12 L 65 22 L 57 39 L 51 53 L 44 64 L 41 71 L 40 75" stroke="#ffffff" stroke-width="2" stroke-linecap="round" stroke-linejoin="round" fill="none"/><path d="M 77 41 L 78 40 L 78 38 L 77 38 L 77 40 L 77 47 L 76 56 L 75 64 L 75 69" stroke="#ffffff" stroke-width="2" stroke-linecap="round" stroke-linejoin="round" fill="none"/><path d="M 98 41 L 99 41 L 103 41 L 106 42 L 107 44 L 106 46 L 103 48 L 100 51 L 97 54 L 95 56 L 95 57 L 97 58 L 101 58 L 105 58 L 111 57 L 116 56 L 121 56 L 122 56" stroke="#ffffff" stroke-width="2" stroke-linecap="round" stroke-linejoin="round" fill="none"/><path d="M 200 30 L 197 29 L 195 28 L 192 28 L 188 32 L 184 40 L 183 49 L 185 53 L 191 54 L 200 51 L 209 46 L 211 44" stroke="#ffffff" stroke-width="2" stroke-linecap="round" stroke-linejoin="round" fill="none"/><path d="M 239 16 L 237 15 L 233 15 L 231 17 L 228 25 L 224 40 L 223 50 L 223 54 L 226 55 L 230 52 L 234 46 L 237 40 L 237 36 L 235 35 L 229 37 L 223 43 L 219 51 L 219 53" stroke="#ffffff" stroke-width="2" stroke-linecap="round" stroke-linejoin="round" fill="none"/><path d="M 263 29 L 262 29 L 259 28 L 257 29 L 255 33 L 254 41 L 256 46 L 260 48 L 263 47 L 268 42 L 270 36 L 270 30 L 267 26 L 262 27 L 255 32 L 252 37" stroke="#ffffff" stroke-width="2" stroke-linecap="round" stroke-linejoin="round" fill="none"/><path d="M 27 109 L 25 109 L 25 107 L 27 105 L 34 102 L 43 99 L 50 97 L 54 95 L 56 95" stroke="#ffffff" stroke-width="2" stroke-linecap="round" stroke-linejoin="round" fill="none"/><path d="M 34 93 L 34 92 L 33 90 L 32 91 L 32 96 L 33 104 L 35 111 L 36 113" stroke="#ffffff" stroke-width="2" stroke-linecap="round" stroke-linejoin="round" fill="none"/><path d="M 41 88 L 41 87 L 41 89 L 42 98 L 42 111 L 39 124 L 36 132 L 35 135" stroke="#ffffff" stroke-width="2" stroke-linecap="round" stroke-linejoin="round" fill="none"/><path d="M 77 92 L 76 92 L 74 92 L 72 93 L 70 97 L 67 104 L 64 111 L 61 115 L 60 116" stroke="#ffffff" stroke-width="2" stroke-linecap="round" stroke-linejoin="round" fill="none"/><path d="M 69 101 L 69 100 L 68 105 L 68 114 L 68 124 L 68 131 L 69 132" stroke="#ffffff" stroke-width="2" stroke-linecap="round" stroke-linejoin="round" fill="none"/><path d="M 88 93 L 87 93 L 86 93 L 86 95 L 86 102 L 87 114 L 88 122 L 88 125" stroke="#ffffff" stroke-width="2" stroke-linecap="round" stroke-linejoin="round" fill="none"/><path d="M 86 106 L 87 106 L 87 105 L 91 105 L 96 105" stroke="#ffffff" stroke-width="2" stroke-linecap="round" stroke-linejoin="round" fill="none"/><path d="M 97 86 L 95 87 L 94 89 L 94 91" stroke="#ffffff" stroke-width="2" stroke-linecap="round" stroke-linejoin="round" fill="none"/><path d="M 101 84 L 100 83 L 99 83 L 99 87 L 100 90" stroke="#ffffff" stroke-width="2" stroke-linecap="round" stroke-linejoin="round" fill="none"/><path d="M 118 99 L 115 98 L 113 97 L 112 99 L 112 104 L 113 111 L 115 115 L 116 117" stroke="#ffffff" stroke-width="2" stroke-linecap="round" stroke-linejoin="round" fill="none"/><path d="M 131 95 L 129 95 L 127 96 L 126 102 L 126 109 L 129 113 L 132 114 L 136 111 L 140 106 L 142 99 L 142 94 L 139 91 L 133 92 L 127 98" stroke="#ffffff" stroke-width="2" stroke-linecap="round" stroke-linejoin="round" fill="none"/><path d="M 190 98 L 190 97 L 187 96 L 186 97 L 185 104 L 185 113 L 187 121 L 188 123" stroke="#ffffff" stroke-width="2" stroke-linecap="round" stroke-linejoin="round" fill="none"/><path d="M 202 101 L 202 103 L 202 107 L 204 113 L 206 116" stroke="#ffffff" stroke-width="2" stroke-linecap="round" stroke-linejoin="round" fill="none"/><path d="M 209 84 L 209 85 L 207 85 L 206 87 L 206 91 L 207 93" stroke="#ffffff" stroke-width="2" stroke-linecap="round" stroke-linejoin="round" fill="none"/><path d="M 214 82 L 213 81 L 212 84 L 214 88" stroke="#ffffff" stroke-width="2" stroke-linecap="round" stroke-linejoin="round" fill="none"/><path d="M 225 103 L 224 102 L 223 100 L 223 103 L 225 106" stroke="#ffffff" stroke-width="2" stroke-linecap="round" stroke-linejoin="round" fill="none"/><path d="M 229 102 L 229 101 L 228 101 L 227 101 L 227 102 L 228 104 L 229 104" stroke="#ffffff" stroke-width="2" stroke-linecap="round" stroke-linejoin="round" fill="none"/><path d="M 235 100 L 235 99 L 235 98 L 234 98 L 234 101 L 232 106 L 231 111 L 231 114" stroke="#ffffff" stroke-width="2" stroke-linecap="round" stroke-linejoin="round" fill="none"/><path d="M 255 83 L 254 83 L 252 84 L 250 86 L 250 90 L 250 95 L 249 99 L 248 101" stroke="#ffffff" stroke-width="2" stroke-linecap="round" stroke-linejoin="round" fill="none"/><path d="M 246 96 L 248 90 L 250 86 L 253 84 L 256 84 L 259 86 L 260 90 L 260 98 L 257 107 L 253 116 L 248 123 L 247 124" stroke="#ffffff" stroke-width="2" stroke-linecap="round" stroke-linejoin="round" fill="none"/><path d="M 282 91 L 283 91 L 283 90 L 284 89 L 284 96 L 283 106 L 282 115 L 285 118 L 287 118" stroke="#ffffff" stroke-width="2" stroke-linecap="round" stroke-linejoin="round" fill="none"/><path d="M 295 91 L 295 93 L 299 97 L 304 102 L 310 106 L 311 106" stroke="#ffffff" stroke-width="2" stroke-linecap="round" stroke-linejoin="round" fill="none"/><path d="M 313 92 L 309 92 L 310 89 L 316 86 L 324 85 L 332 84 L 336 84 L 337 84" stroke="#ffffff" stroke-width="2" stroke-linecap="round" stroke-linejoin="round" fill="none"/><path d="M 322 78 L 322 77 L 320 76 L 320 79 L 321 87 L 321 96 L 323 102 L 323 103" stroke="#ffffff" stroke-width="2" stroke-linecap="round" stroke-linejoin="round" fill="none"/><path d="M 329 76 L 329 75 L 330 79 L 332 90 L 331 104 L 328 113 L 324 120 L 321 122" stroke="#ffffff" stroke-width="2" stroke-linecap="round" stroke-linejoin="round" fill="none"/><path d="M 349 91 L 347 90 L 347 89 L 351 88 L 356 88 L 359 88" stroke="#ffffff" stroke-width="2" stroke-linecap="round" stroke-linejoin="round" fill="none"/><path d="M 349 99 L 348 99 L 345 99 L 347 99 L 351 99" stroke="#ffffff" stroke-width="2" stroke-linecap="round" stroke-linejoin="round" fill="none"/><path d="M 349 106 L 346 108 L 345 109 L 346 109 L 351 109 L 358 106" stroke="#ffffff" stroke-width="2" stroke-linecap="round" stroke-linejoin="round" fill="none"/><path d="M 408 76 L 408 75 L 408 73 L 407 71 L 407 72 L 406 78 L 404 87 L 403 95" stroke="#ffffff" stroke-width="2" stroke-linecap="round" stroke-linejoin="round" fill="none"/><path d="M 406 87 L 406 84 L 407 82 L 410 81 L 416 80 L 421 80" stroke="#ffffff" stroke-width="2" stroke-linecap="round" stroke-linejoin="round" fill="none"/><path d="M 408 98 L 407 98 L 406 97 L 410 94 L 417 89 L 424 86 L 424 85" stroke="#ffffff" stroke-width="2" stroke-linecap="round" stroke-linejoin="round" fill="none"/><path d="M 415 84 L 413 84 L 412 85 L 411 91 L 411 102 L 410 112 L 408 117 L 407 118 L 406 118" stroke="#ffffff" stroke-width="2" stroke-linecap="round" stroke-linejoin="round" fill="none"/><path d="M 412 96 L 412 94 L 414 94 L 418 95 L 423 98 L 429 101 L 433 100" stroke="#ffffff" stroke-width="2" stroke-linecap="round" stroke-linejoin="round" fill="none"/><path d="M 435 79 L 434 78 L 433 76 L 432 75 L 433 75 L 433 79 L 432 85 L 430 89 L 428 92 L 426 92 L 425 93 L 424 96 L 424 100 L 424 101 L 426 101 L 427 98 L 429 93 L 432 89 L 435 85 L 437 84 L 439 88 L 439 92 L 438 96 L 436 98 L 435 99" stroke="#ffffff" stroke-width="2" stroke-linecap="round" stroke-linejoin="round" fill="none"/><path d="M 426 105 L 425 105 L 428 104 L 432 102 L 436 100 L 438 98 L 438 97 L 437 97 L 437 99 L 436 102 L 435 105 L 434 108 L 432 111 L 431 112" stroke="#ffffff" stroke-width="2" stroke-linecap="round" stroke-linejoin="round" fill="none"/><path d="M 427 113 L 426 113 L 424 113 L 426 112 L 435 108 L 443 103 L 449 99 L 451 97" stroke="#ffffff" stroke-width="2" stroke-linecap="round" stroke-linejoin="round" fill="none"/><path d="M 426 83 L 424 82 L 424 81 L 425 79 L 431 78 L 439 75 L 444 74" stroke="#ffffff" stroke-width="2" stroke-linecap="round" stroke-linejoin="round" fill="none"/><path d="M 457 80 L 457 79 L 459 76 L 463 74 L 470 72 L 475 71 L 471 71 L 466 70 L 464 70 L 463 68 L 464 68 L 465 73 L 466 81 L 466 91 L 464 98 L 462 102 L 459 102 L 457 101 L 456 96 L 457 91 L 460 86 L 464 84 L 468 86 L 469 92 L 467 101 L 463 111 L 460 117 L 459 120 L 461 119" stroke="#ffffff" stroke-width="2" stroke-linecap="round" stroke-linejoin="round" fill="none"/><path d="M 487 84 L 486 84 L 487 82 L 491 80 L 497 79 L 500 79" stroke="#ffffff" stroke-width="2" stroke-linecap="round" stroke-linejoin="round" fill="none"/><path d="M 487 90 L 486 89 L 489 87 L 494 84 L 498 83 L 500 82" stroke="#ffffff" stroke-width="2" stroke-linecap="round" stroke-linejoin="round" fill="none"/><path d="M 490 74 L 490 73 L 488 73 L 488 74 L 490 80 L 493 87 L 495 94 L 496 100" stroke="#ffffff" stroke-width="2" stroke-linecap="round" stroke-linejoin="round" fill="none"/><path d="M 484 101 L 483 101 L 483 103 L 484 104 L 490 105 L 497 104 L 503 101" stroke="#ffffff" stroke-width="2" stroke-linecap="round" stroke-linejoin="round" fill="none"/><path d="M 508 61 L 503 63 L 501 68 L 501 74 L 502 75" stroke="#ffffff" stroke-width="2" stroke-linecap="round" stroke-linejoin="round" fill="none"/><path d="M 511 65 L 511 64 L 510 62 L 510 67 L 510 72" stroke="#ffffff" stroke-width="2" stroke-linecap="round" stroke-linejoin="round" fill="none"/><path d="M 513 83 L 512 79 L 516 76 L 523 73 L 531 73 L 535 73 L 536 73" stroke="#ffffff" stroke-width="2" stroke-linecap="round" stroke-linejoin="round" fill="none"/><path d="M 529 67 L 528 67 L 527 68 L 526 75 L 524 86 L 521 96 L 520 101 L 518 103 L 517 103 L 515 101 L 515 98 L 517 92 L 521 87 L 525 84 L 529 83 L 530 88 L 528 96 L 523 107 L 517 115 L 511 122 L 507 125" stroke="#ffffff" stroke-width="2" stroke-linecap="round" stroke-linejoin="round" fill="none"/><path d="M 543 58 L 542 56 L 541 56 L 541 59 L 541 65 L 542 68" stroke="#ffffff" stroke-width="2" stroke-linecap="round" stroke-linejoin="round" fill="none"/><path d="M 551 56 L 551 55 L 551 54 L 550 56 L 550 64" stroke="#ffffff" stroke-width="2" stroke-linecap="round" stroke-linejoin="round" fill="none"/><path d="M 561 76 L 562 72 L 565 68 L 570 66 L 574 66 L 575 67" stroke="#ffffff" stroke-width="2" stroke-linecap="round" stroke-linejoin="round" fill="none"/><path d="M 569 70 L 566 70 L 564 70 L 562 73 L 561 81 L 560 89 L 560 95 L 561 96" stroke="#ffffff" stroke-width="2" stroke-linecap="round" stroke-linejoin="round" fill="none"/><path d="M 564 83 L 563 81 L 563 79 L 564 79 L 565 79" stroke="#ffffff" stroke-width="2" stroke-linecap="round" stroke-linejoin="round" fill="none"/><path d="M 566 87 L 565 87 L 563 87 L 562 86 L 564 84 L 569 81 L 571 81" stroke="#ffffff" stroke-width="2" stroke-linecap="round" stroke-linejoin="round" fill="none"/><path d="M 542 111 L 542 110 L 542 107 L 550 100 L 563 93 L 574 88 L 579 85 L 577 85 L 574 87 L 569 92 L 564 99 L 560 108 L 561 114 L 567 115 L 575 112 L 581 105 L 584 99 L 585 96 L 581 97 L 575 102 L 568 107 L 564 111 L 563 112" stroke="#ffffff" stroke-width="2" stroke-linecap="round" stroke-linejoin="round" fill="none"/><path d="M 557 96 L 558 96 L 561 97 L 571 101 L 581 107 L 588 109" stroke="#ffffff" stroke-width="2" stroke-linecap="round" stroke-linejoin="round" fill="none"/><path d="M 588 82 L 586 81 L 586 78 L 590 75 L 598 73 L 606 73 L 612 73 L 613 73" stroke="#ffffff" stroke-width="2" stroke-linecap="round" stroke-linejoin="round" fill="none"/><path d="M 605 68 L 605 67 L 604 66 L 603 65 L 604 69 L 604 77 L 602 88 L 599 98 L 596 103 L 594 103 L 593 101 L 592 96 L 593 90 L 595 86 L 599 84 L 602 87 L 604 95 L 603 105 L 599 113 L 596 117 L 595 118" stroke="#ffffff" stroke-width="2" stroke-linecap="round" stroke-linejoin="round" fill="none"/><path d="M 622 84 L 620 82 L 621 81 L 625 81 L 629 81 L 631 82" stroke="#ffffff" stroke-width="2" stroke-linecap="round" stroke-linejoin="round" fill="none"/><path d="M 617 91 L 616 91 L 615 90 L 616 89 L 620 88 L 625 87 L 630 86" stroke="#ffffff" stroke-width="2" stroke-linecap="round" stroke-linejoin="round" fill="none"/><path d="M 624 74 L 623 74 L 623 75 L 624 79 L 625 86 L 626 93 L 627 96" stroke="#ffffff" stroke-width="2" stroke-linecap="round" stroke-linejoin="round" fill="none"/><path d="M 614 101 L 613 102 L 612 103 L 614 104 L 619 104 L 626 103" stroke="#ffffff" stroke-width="2" stroke-linecap="round" stroke-linejoin="round" fill="none"/><path d="M 636 57 L 634 57 L 632 60 L 631 65" stroke="#ffffff" stroke-width="2" stroke-linecap="round" stroke-linejoin="round" fill="none"/><path d="M 639 61 L 641 60 L 640 63 L 639 67" stroke="#ffffff" stroke-width="2" stroke-linecap="round" stroke-linejoin="round" fill="none"/><path d="M 647 74 L 648 72 L 650 70 L 654 69 L 659 69 L 666 69 L 671 69" stroke="#ffffff" stroke-width="2" stroke-linecap="round" stroke-linejoin="round" fill="none"/><path d="M 661 62 L 659 61 L 658 60 L 658 61 L 659 66 L 658 75 L 655 86 L 652 94 L 650 99 L 648 100 L 647 100 L 645 99 L 643 96 L 643 91 L 645 87 L 649 83 L 653 82 L 656 82 L 657 85 L 657 91 L 655 100 L 651 110 L 648 117 L 647 120 L 647 119" stroke="#ffffff" stroke-width="2" stroke-linecap="round" stroke-linejoin="round" fill="none"/><path d="M 676 74 L 675 74 L 672 74 L 669 79 L 668 83" stroke="#ffffff" stroke-width="2" stroke-linecap="round" stroke-linejoin="round" fill="none"/><path d="M 678 76 L 678 75 L 677 80 L 677 81" stroke="#ffffff" stroke-width="2" stroke-linecap="round" stroke-linejoin="round" fill="none"/><path d="M 319 230 L 319 230 L 319 230 L 319 230 L 319 230 L 319 230 L 319 230" stroke="#ffffff" stroke-width="2" stroke-linecap="round" stroke-linejoin="round" fill="none"/><path d="M 30 170 L 29 170 L 29 168 L 35 165 L 45 159 L 51 157 L 54 157" stroke="#ffffff" stroke-width="2" stroke-linecap="round" stroke-linejoin="round" fill="none"/><path d="M 43 165 L 41 166 L 40 168 L 40 171 L 41 173 L 43 174" stroke="#ffffff" stroke-width="2" stroke-linecap="round" stroke-linejoin="round" fill="none"/><path d="M 53 163 L 52 163 L 50 164 L 47 167 L 44 174" stroke="#ffffff" stroke-width="2" stroke-linecap="round" stroke-linejoin="round" fill="none"/><path d="M 48 146 L 46 144 L 45 144 L 45 149 L 46 161 L 48 177 L 49 187 L 50 195 L 50 199 L 50 201" stroke="#ffffff" stroke-width="2" stroke-linecap="round" stroke-linejoin="round" fill="none"/><path d="M 25 189 L 24 189 L 25 187 L 32 184 L 44 178 L 57 173 L 65 171 L 69 170 L 71 169" stroke="#ffffff" stroke-width="2" stroke-linecap="round" stroke-linejoin="round" fill="none"/><path d="M 50 180 L 49 180 L 47 180 L 46 181 L 44 187 L 41 194 L 38 200 L 36 203" stroke="#ffffff" stroke-width="2" stroke-linecap="round" stroke-linejoin="round" fill="none"/><path d="M 50 180 L 51 179 L 53 178 L 58 179 L 69 183 L 72 185" stroke="#ffffff" stroke-width="2" stroke-linecap="round" stroke-linejoin="round" fill="none"/><path d="M 97 164 L 96 163 L 96 160 L 95 159 L 95 161 L 94 172 L 93 187 L 92 197 L 92 201" stroke="#ffffff" stroke-width="2" stroke-linecap="round" stroke-linejoin="round" fill="none"/><path d="M 98 161 L 98 159 L 99 156 L 102 155 L 106 155 L 111 155 L 114 155 L 116 155 L 117 154 L 116 154 L 114 157 L 111 163 L 108 170 L 107 178 L 106 183 L 108 186 L 110 187 L 111 185 L 111 181 L 109 179 L 107 177 L 106 177 L 105 178 L 104 183 L 104 189 L 103 192" stroke="#ffffff" stroke-width="2" stroke-linecap="round" stroke-linejoin="round" fill="none"/><path d="M 79 154 L 78 153 L 77 152 L 77 154 L 78 164 L 79 176 L 78 185 L 76 189 L 74 189 L 71 189 L 70 188 L 70 187 L 72 187 L 77 189 L 84 192 L 95 194 L 108 194 L 114 194" stroke="#ffffff" stroke-width="2" stroke-linecap="round" stroke-linejoin="round" fill="none"/><path d="M 128 172 L 127 172 L 127 170 L 129 168 L 133 166 L 137 166 L 139 166 L 139 168 L 140 171 L 140 174 L 139 178 L 137 180 L 135 180 L 134 178 L 133 172 L 133 166 L 134 160 L 135 156 L 135 155 L 136 155 L 135 158 L 133 166 L 130 176 L 129 183 L 128 186 L 129 186" stroke="#ffffff" stroke-width="2" stroke-linecap="round" stroke-linejoin="round" fill="none"/><path d="M 146 153 L 147 153 L 148 156 L 151 162 L 156 168 L 157 169" stroke="#ffffff" stroke-width="2" stroke-linecap="round" stroke-linejoin="round" fill="none"/><path d="M 175 147 L 174 147 L 173 147 L 172 150 L 172 152" stroke="#ffffff" stroke-width="2" stroke-linecap="round" stroke-linejoin="round" fill="none"/><path d="M 167 156 L 165 158 L 164 160 L 163 164 L 162 167 L 162 169 L 164 169 L 167 169 L 171 169 L 174 170 L 176 173 L 175 176 L 172 179 L 166 181 L 160 182 L 157 181" stroke="#ffffff" stroke-width="2" stroke-linecap="round" stroke-linejoin="round" fill="none"/><path d="M 220 141 L 220 140 L 219 137 L 217 136 L 214 140 L 210 149 L 207 157 L 207 158" stroke="#ffffff" stroke-width="2" stroke-linecap="round" stroke-linejoin="round" fill="none"/><path d="M 207 154 L 207 155 L 206 155 L 206 159 L 207 167 L 209 175 L 209 177" stroke="#ffffff" stroke-width="2" stroke-linecap="round" stroke-linejoin="round" fill="none"/><path d="M 206 163 L 205 163 L 204 161 L 205 159 L 210 156 L 219 151 L 227 147 L 231 145 L 232 146 L 233 150 L 233 156 L 231 161 L 229 167 L 227 170" stroke="#ffffff" stroke-width="2" stroke-linecap="round" stroke-linejoin="round" fill="none"/><path d="M 215 165 L 214 165 L 212 163 L 212 162 L 215 162 L 221 160" stroke="#ffffff" stroke-width="2" stroke-linecap="round" stroke-linejoin="round" fill="none"/><path d="M 224 154 L 222 154 L 220 155 L 219 158 L 219 165 L 219 166" stroke="#ffffff" stroke-width="2" stroke-linecap="round" stroke-linejoin="round" fill="none"/><path d="M 220 155 L 217 158 L 215 161 L 215 164 L 218 166" stroke="#ffffff" stroke-width="2" stroke-linecap="round" stroke-linejoin="round" fill="none"/><path d="M 228 150 L 228 149 L 227 148 L 226 150 L 224 157 L 222 164 L 221 166" stroke="#ffffff" stroke-width="2" stroke-linecap="round" stroke-linejoin="round" fill="none"/><path d="M 199 187 L 198 187 L 204 183 L 218 176 L 231 168 L 237 163 L 240 160" stroke="#ffffff" stroke-width="2" stroke-linecap="round" stroke-linejoin="round" fill="none"/><path d="M 227 163 L 226 161 L 224 160 L 222 165 L 220 175 L 217 186 L 215 194 L 214 197" stroke="#ffffff" stroke-width="2" stroke-linecap="round" stroke-linejoin="round" fill="none"/><path d="M 223 168 L 224 171 L 228 177 L 239 184 L 251 185" stroke="#ffffff" stroke-width="2" stroke-linecap="round" stroke-linejoin="round" fill="none"/><path d="M 256 169 L 255 168 L 255 165 L 260 162 L 265 160 L 269 158 L 270 158" stroke="#ffffff" stroke-width="2" stroke-linecap="round" stroke-linejoin="round" fill="none"/><path d="M 265 156 L 264 156 L 262 155 L 262 157 L 263 163 L 263 169 L 263 173" stroke="#ffffff" stroke-width="2" stroke-linecap="round" stroke-linejoin="round" fill="none"/><path d="M 253 177 L 253 178 L 252 178 L 252 180 L 257 181 L 264 181 L 265 180" stroke="#ffffff" stroke-width="2" stroke-linecap="round" stroke-linejoin="round" fill="none"/><path d="M 277 163 L 276 165 L 274 171 L 273 178 L 273 180 L 274 181 L 275 178 L 277 175 L 279 175 L 282 175 L 286 176 L 293 175 L 299 173" stroke="#ffffff" stroke-width="2" stroke-linecap="round" stroke-linejoin="round" fill="none"/><path d="M 337 152 L 335 151 L 330 152 L 324 158 L 320 166 L 319 172 L 321 175 L 327 176 L 335 174 L 340 171" stroke="#ffffff" stroke-width="2" stroke-linecap="round" stroke-linejoin="round" fill="none"/><path d="M 348 155 L 347 155 L 347 152 L 350 150 L 357 149 L 362 149 L 365 151 L 365 153 L 361 156 L 357 159 L 353 161 L 351 161 L 354 162 L 358 164 L 362 167 L 363 172 L 363 177 L 360 181 L 357 183 L 354 183 L 352 181 L 352 179 L 353 175 L 356 173 L 360 171 L 363 171" stroke="#ffffff" stroke-width="2" stroke-linecap="round" stroke-linejoin="round" fill="none"/><path d="M 46 237 L 43 238 L 44 236 L 51 231 L 63 224 L 71 219 L 72 218" stroke="#ffffff" stroke-width="2" stroke-linecap="round" stroke-linejoin="round" fill="none"/><path d="M 57 230 L 55 231 L 55 233 L 55 238 L 56 242 L 57 242" stroke="#ffffff" stroke-width="2" stroke-linecap="round" stroke-linejoin="round" fill="none"/><path d="M 70 230 L 69 231 L 66 232 L 64 235 L 61 239 L 60 243" stroke="#ffffff" stroke-width="2" stroke-linecap="round" stroke-linejoin="round" fill="none"/><path d="M 47 255 L 47 254 L 48 252 L 54 246 L 64 238 L 71 233 L 75 231 L 76 230 L 76 229" stroke="#ffffff" stroke-width="2" stroke-linecap="round" stroke-linejoin="round" fill="none"/><path d="M 59 216 L 58 216 L 57 216 L 57 218 L 60 229 L 63 243 L 66 256 L 67 264 L 68 269 L 69 271" stroke="#ffffff" stroke-width="2" stroke-linecap="round" stroke-linejoin="round" fill="none"/><path d="M 70 245 L 69 244 L 66 245 L 63 250 L 59 257 L 55 264" stroke="#ffffff" stroke-width="2" stroke-linecap="round" stroke-linejoin="round" fill="none"/><path d="M 60 245 L 60 244 L 62 243 L 65 242 L 71 242 L 79 243 L 88 243" stroke="#ffffff" stroke-width="2" stroke-linecap="round" stroke-linejoin="round" fill="none"/><path d="M 97 219 L 96 219 L 94 220 L 93 222 L 93 230 L 94 238 L 94 240" stroke="#ffffff" stroke-width="2" stroke-linecap="round" stroke-linejoin="round" fill="none"/><path d="M 97 230 L 97 229 L 97 227 L 100 224 L 106 222 L 112 222 L 114 223" stroke="#ffffff" stroke-width="2" stroke-linecap="round" stroke-linejoin="round" fill="none"/><path d="M 104 232 L 104 233 L 102 234 L 102 237 L 102 241 L 103 245 L 103 246" stroke="#ffffff" stroke-width="2" stroke-linecap="round" stroke-linejoin="round" fill="none"/><path d="M 108 236 L 107 235 L 107 233 L 108 231 L 112 229 L 116 228" stroke="#ffffff" stroke-width="2" stroke-linecap="round" stroke-linejoin="round" fill="none"/><path d="M 101 254 L 100 254 L 101 251 L 108 247 L 115 242 L 120 238 L 122 235" stroke="#ffffff" stroke-width="2" stroke-linecap="round" stroke-linejoin="round" fill="none"/><path d="M 111 221 L 109 221 L 108 221 L 108 227 L 110 242 L 112 254 L 114 262 L 115 266" stroke="#ffffff" stroke-width="2" stroke-linecap="round" stroke-linejoin="round" fill="none"/><path d="M 143 234 L 143 233 L 142 232 L 143 229 L 148 225 L 155 223 L 157 222" stroke="#ffffff" stroke-width="2" stroke-linecap="round" stroke-linejoin="round" fill="none"/><path d="M 145 237 L 145 236 L 149 232 L 155 229 L 156 228" stroke="#ffffff" stroke-width="2" stroke-linecap="round" stroke-linejoin="round" fill="none"/><path d="M 153 218 L 152 217 L 152 219 L 152 229 L 152 241 L 153 251 L 152 254 L 150 254 L 148 252 L 147 248 L 147 245 L 150 243 L 154 242 L 160 242 L 163 241" stroke="#ffffff" stroke-width="2" stroke-linecap="round" stroke-linejoin="round" fill="none"/><path d="M 176 236 L 175 235 L 175 234 L 177 233 L 181 231 L 185 231 L 186 231 L 185 232 L 183 235 L 180 240 L 179 245 L 181 250 L 185 251 L 190 248 L 191 245" stroke="#ffffff" stroke-width="2" stroke-linecap="round" stroke-linejoin="round" fill="none"/><path d="M 187 214 L 187 215 L 185 217 L 184 219 L 185 223 L 185 224" stroke="#ffffff" stroke-width="2" stroke-linecap="round" stroke-linejoin="round" fill="none"/><path d="M 195 214 L 195 213 L 195 210 L 195 213 L 195 218" stroke="#ffffff" stroke-width="2" stroke-linecap="round" stroke-linejoin="round" fill="none"/><path d="M 205 238 L 204 238 L 203 237 L 204 235 L 208 232 L 214 231 L 218 231 L 221 233 L 221 236 L 221 238 L 220 239 L 219 240 L 217 239 L 215 236 L 214 231 L 214 224 L 214 218 L 214 217 L 214 218 L 213 224 L 212 234 L 210 243 L 209 250 L 210 253 L 211 253" stroke="#ffffff" stroke-width="2" stroke-linecap="round" stroke-linejoin="round" fill="none"/><path d="M 232 235 L 229 234 L 230 232 L 235 230 L 241 228 L 246 227 L 250 226" stroke="#ffffff" stroke-width="2" stroke-linecap="round" stroke-linejoin="round" fill="none"/><path d="M 244 212 L 243 212 L 242 214 L 240 223 L 238 238 L 237 248 L 236 254 L 236 257" stroke="#ffffff" stroke-width="2" stroke-linecap="round" stroke-linejoin="round" fill="none"/><path d="M 313 224 L 314 222 L 314 219 L 314 217 L 311 216 L 306 221 L 301 229 L 300 235 L 302 239 L 307 239 L 313 240 L 316 241 L 315 244 L 311 247 L 306 250 L 302 251 L 301 250" stroke="#ffffff" stroke-width="2" stroke-linecap="round" stroke-linejoin="round" fill="none"/><path d="M 325 231 L 325 230 L 326 231 L 329 234 L 333 239 L 336 241" stroke="#ffffff" stroke-width="2" stroke-linecap="round" stroke-linejoin="round" fill="none"/><path d="M 339 226 L 338 225 L 338 224 L 337 229 L 334 242 L 329 259 L 325 270 L 323 273" stroke="#ffffff" stroke-width="2" stroke-linecap="round" stroke-linejoin="round" fill="none"/><path d="M 374 210 L 373 210 L 370 210 L 368 215 L 367 228 L 367 239 L 368 246 L 369 249 L 368 249" stroke="#ffffff" stroke-width="2" stroke-linecap="round" stroke-linejoin="round" fill="none"/><path d="M 369 233 L 366 231 L 362 231 L 357 233 L 352 239 L 350 247 L 350 252 L 355 253 L 363 251 L 372 246 L 374 245" stroke="#ffffff" stroke-width="2" stroke-linecap="round" stroke-linejoin="round" fill="none"/><path d="M 392 238 L 390 238 L 388 239 L 389 240 L 391 241" stroke="#ffffff" stroke-width="2" stroke-linecap="round" stroke-linejoin="round" fill="none"/><path d="M 403 239 L 402 241 L 401 242 L 402 243 L 404 243" stroke="#ffffff" stroke-width="2" stroke-linecap="round" stroke-linejoin="round" fill="none"/><path d="M 416 237 L 415 237 L 415 239 L 418 242 L 421 243" stroke="#ffffff" stroke-width="2" stroke-linecap="round" stroke-linejoin="round" fill="none"/></svg>
