<svg xmlns="http://www.w3.org/2000/svg" width="535" height="156" viewBox="0 0 535 156"><path d="M 16 36 L 15 35 L 17 33 L 19 34 L 20 37 L 20 41 L 20 44 L 17 48 L 14 50 L 11 51 L 10 52 L 12 52 L 16 52 L 23 49 L 32 44 L 41 38 L 45 36" stroke="#ffffff" stroke-width="2" stroke-linecap="round" stroke-linejoin="round" fill="none"/><path d="M 55 27 L 52 24 L 50 21 L 48 19 L 46 17 L 43 17 L 40 19 L 38 23 L 37 29 L 38 36 L 41 42 L 44 47 L 45 50 L 45 52 L 44 53 L 41 53 L 39 51 L 38 48 L 37 44 L 39 40 L 44 35 L 50 31 L 52 30" stroke="#ffffff" stroke-width="2" stroke-linecap="round" stroke-linejoin="round" fill="none"/><path d="M 12 44 L 11 44 L 11 43 L 12 42 L 14 39 L 17 36 L 19 34" stroke="#ffffff" stroke-width="2" stroke-linecap="round" stroke-linejoin="round" fill="none"/><path d="M 86 11 L 83 10 L 80 16 L 76 33 L 69 58 L 63 77 L 59 89 L 58 97 L 58 99" stroke="#ffffff" stroke-width="2" stroke-linecap="round" stroke-linejoin="round" fill="none"/><path d="M 92 52 L 91 52 L 90 51 L 92 50 L 95 49 L 98 48 L 100 48 L 101 50 L 100 54 L 98 57 L 95 60 L 93 60 L 93 60 L 95 57 L 98 56 L 102 56 L 104 59 L 104 63 L 102 67 L 98 70 L 94 72 L 91 72 L 90 72" stroke="#ffffff" stroke-width="2" stroke-linecap="round" stroke-linejoin="round" fill="none"/><path d="M 176 29 L 176 29 L 173 26 L 173 26 L 170 28 L 167 35 L 164 44 L 163 51 L 166 53 L 172 52 L 183 45 L 190 38" stroke="#ffffff" stroke-width="2" stroke-linecap="round" stroke-linejoin="round" fill="none"/><path d="M 216 27 L 213 27 L 213 31 L 212 38 L 212 44 L 212 47 L 213 47 L 216 45 L 219 42 L 222 40 L 223 40 L 224 43 L 224 50 L 221 58 L 216 64 L 210 69 L 208 70 L 207 70" stroke="#ffffff" stroke-width="2" stroke-linecap="round" stroke-linejoin="round" fill="none"/><path d="M 212 38 L 211 37 L 210 35 L 210 33 L 215 28 L 220 23 L 227 20 L 231 19" stroke="#ffffff" stroke-width="2" stroke-linecap="round" stroke-linejoin="round" fill="none"/><path d="M 245 30 L 243 30 L 241 34 L 242 38 L 244 40 L 247 40 L 250 41 L 253 43 L 255 46 L 254 49 L 252 53 L 247 56 L 242 58 L 238 58 L 238 58" stroke="#ffffff" stroke-width="2" stroke-linecap="round" stroke-linejoin="round" fill="none"/><path d="M 240 35 L 241 33 L 243 30 L 244 29 L 252 25 L 259 25 L 263 25" stroke="#ffffff" stroke-width="2" stroke-linecap="round" stroke-linejoin="round" fill="none"/><path d="M 125 117 L 122 110 L 122 108 L 122 108 L 121 109 L 121 115 L 121 127 L 123 138 L 127 145 L 127 146" stroke="#ffffff" stroke-width="2" stroke-linecap="round" stroke-linejoin="round" fill="none"/><path d="M 136 112 L 135 114 L 135 118 L 136 125 L 137 131" stroke="#ffffff" stroke-width="2" stroke-linecap="round" stroke-linejoin="round" fill="none"/><path d="M 155 121 L 154 121 L 152 117 L 155 115 L 160 112 L 165 111 L 167 113 L 166 119 L 162 126 L 159 132 L 157 135" stroke="#ffffff" stroke-width="2" stroke-linecap="round" stroke-linejoin="round" fill="none"/><path d="M 181 116 L 180 116 L 180 114 L 182 111 L 186 107 L 190 104 L 192 103" stroke="#ffffff" stroke-width="2" stroke-linecap="round" stroke-linejoin="round" fill="none"/><path d="M 183 122 L 183 123 L 180 126 L 180 125 L 183 121 L 188 116 L 194 112" stroke="#ffffff" stroke-width="2" stroke-linecap="round" stroke-linejoin="round" fill="none"/><path d="M 189 97 L 188 96 L 187 93 L 188 94 L 189 100 L 190 109 L 190 121 L 192 133 L 197 138 L 202 137" stroke="#ffffff" stroke-width="2" stroke-linecap="round" stroke-linejoin="round" fill="none"/><path d="M 217 102 L 215 101 L 216 103 L 218 106 L 220 110 L 220 110" stroke="#ffffff" stroke-width="2" stroke-linecap="round" stroke-linejoin="round" fill="none"/><path d="M 228 107 L 228 106 L 228 104 L 226 106 L 223 110 L 220 114 L 219 119 L 221 123 L 224 125 L 228 124 L 232 119 L 237 114" stroke="#ffffff" stroke-width="2" stroke-linecap="round" stroke-linejoin="round" fill="none"/><path d="M 254 118 L 250 117 L 250 114 L 255 112 L 261 110 L 267 108 L 269 107" stroke="#ffffff" stroke-width="2" stroke-linecap="round" stroke-linejoin="round" fill="none"/><path d="M 288 85 L 285 83 L 284 88 L 283 95 L 281 100 L 280 101 L 282 100 L 287 95 L 294 91 L 297 89 L 296 93 L 289 99 L 283 103 L 283 105 L 286 105 L 290 103 L 292 102 L 292 101 L 293 101 L 295 100" stroke="#ffffff" stroke-width="2" stroke-linecap="round" stroke-linejoin="round" fill="none"/><path d="M 294 102 L 293 102 L 289 104 L 292 112 L 294 121 L 294 129 L 293 134 L 292 134" stroke="#ffffff" stroke-width="2" stroke-linecap="round" stroke-linejoin="round" fill="none"/><path d="M 292 116 L 288 116 L 285 121 L 285 126 L 285 127" stroke="#ffffff" stroke-width="2" stroke-linecap="round" stroke-linejoin="round" fill="none"/><path d="M 294 108 L 296 108 L 298 108 L 299 107" stroke="#ffffff" stroke-width="2" stroke-linecap="round" stroke-linejoin="round" fill="none"/><path d="M 303 100 L 304 96 L 308 93 L 312 90 L 314 87 L 315 85 L 314 85 L 313 85 L 311 89 L 309 93 L 308 98 L 307 102 L 306 105" stroke="#ffffff" stroke-width="2" stroke-linecap="round" stroke-linejoin="round" fill="none"/><path d="M 301 112 L 300 112 L 304 107 L 311 102 L 316 98 L 317 95 L 318 93 L 318 93 L 318 93 L 316 98 L 312 105 L 307 113 L 304 118 L 304 120" stroke="#ffffff" stroke-width="2" stroke-linecap="round" stroke-linejoin="round" fill="none"/><path d="M 312 110 L 310 110 L 310 111 L 312 115 L 314 119 L 315 123 L 316 126 L 315 126 L 314 126" stroke="#ffffff" stroke-width="2" stroke-linecap="round" stroke-linejoin="round" fill="none"/><path d="M 315 113 L 313 111 L 313 109 L 313 107 L 316 106 L 320 106 L 323 107 L 324 110 L 323 114 L 322 117 L 322 118" stroke="#ffffff" stroke-width="2" stroke-linecap="round" stroke-linejoin="round" fill="none"/><path d="M 319 118 L 316 117 L 316 117 L 319 114 L 322 111 L 323 111" stroke="#ffffff" stroke-width="2" stroke-linecap="round" stroke-linejoin="round" fill="none"/><path d="M 319 126 L 318 126 L 319 125 L 321 122" stroke="#ffffff" stroke-width="2" stroke-linecap="round" stroke-linejoin="round" fill="none"/><path d="M 375 87 L 374 87 L 374 89 L 372 93 L 370 98 L 369 102 L 369 103 L 371 101 L 375 98 L 378 95 L 380 94 L 380 95 L 378 99 L 376 103 L 375 106 L 375 106 L 375 106 L 377 104 L 380 101 L 381 101" stroke="#ffffff" stroke-width="2" stroke-linecap="round" stroke-linejoin="round" fill="none"/><path d="M 379 103 L 378 104 L 375 112 L 375 117 L 376 122 L 377 125" stroke="#ffffff" stroke-width="2" stroke-linecap="round" stroke-linejoin="round" fill="none"/><path d="M 376 113 L 373 114 L 369 117 L 368 119 L 365 128 L 364 129" stroke="#ffffff" stroke-width="2" stroke-linecap="round" stroke-linejoin="round" fill="none"/><path d="M 374 114 L 374 113 L 378 113 L 381 113" stroke="#ffffff" stroke-width="2" stroke-linecap="round" stroke-linejoin="round" fill="none"/><path d="M 385 98 L 385 97 L 386 91 L 391 88 L 397 84 L 401 81 L 401 80 L 398 80 L 395 80 L 394 80 L 394 83 L 394 88 L 394 93 L 392 98 L 391 100" stroke="#ffffff" stroke-width="2" stroke-linecap="round" stroke-linejoin="round" fill="none"/><path d="M 390 109 L 390 109 L 392 103 L 396 100 L 399 100 L 397 101 L 395 103 L 394 108 L 393 113 L 393 118 L 393 121 L 395 121 L 397 118 L 400 114 L 401 111 L 400 110 L 397 111 L 394 116 L 392 121 L 392 123" stroke="#ffffff" stroke-width="2" stroke-linecap="round" stroke-linejoin="round" fill="none"/><path d="M 419 85 L 418 85 L 413 92 L 412 101 L 411 109 L 413 114 L 415 115 L 418 114 L 420 111 L 422 108" stroke="#ffffff" stroke-width="2" stroke-linecap="round" stroke-linejoin="round" fill="none"/><path d="M 422 92 L 421 92 L 418 91 L 419 96 L 418 103 L 415 112 L 412 118 L 411 120" stroke="#ffffff" stroke-width="2" stroke-linecap="round" stroke-linejoin="round" fill="none"/><path d="M 405 107 L 404 107 L 406 101 L 413 97 L 417 95" stroke="#ffffff" stroke-width="2" stroke-linecap="round" stroke-linejoin="round" fill="none"/><path d="M 431 72 L 430 73 L 425 77 L 425 82 L 425 87 L 425 88" stroke="#ffffff" stroke-width="2" stroke-linecap="round" stroke-linejoin="round" fill="none"/><path d="M 425 89 L 425 89 L 425 87 L 426 85 L 428 85 L 428 87 L 426 92 L 425 97 L 424 101 L 424 104 L 425 104" stroke="#ffffff" stroke-width="2" stroke-linecap="round" stroke-linejoin="round" fill="none"/><path d="M 426 103 L 425 102 L 424 101 L 424 99 L 426 94 L 431 88 L 434 82" stroke="#ffffff" stroke-width="2" stroke-linecap="round" stroke-linejoin="round" fill="none"/><path d="M 430 83 L 430 83 L 429 84 L 429 85 L 431 88 L 434 90 L 435 91" stroke="#ffffff" stroke-width="2" stroke-linecap="round" stroke-linejoin="round" fill="none"/><path d="M 433 102 L 432 103 L 430 108 L 430 112 L 431 114 L 431 116" stroke="#ffffff" stroke-width="2" stroke-linecap="round" stroke-linejoin="round" fill="none"/><path d="M 430 113 L 429 111 L 430 104 L 432 100 L 435 97 L 437 97 L 438 99 L 438 102 L 437 106 L 436 108 L 436 110" stroke="#ffffff" stroke-width="2" stroke-linecap="round" stroke-linejoin="round" fill="none"/><path d="M 432 112 L 432 111 L 431 110 L 431 109 L 434 108 L 434 107" stroke="#ffffff" stroke-width="2" stroke-linecap="round" stroke-linejoin="round" fill="none"/><path d="M 433 116 L 431 117 L 430 117 L 431 116 L 435 112" stroke="#ffffff" stroke-width="2" stroke-linecap="round" stroke-linejoin="round" fill="none"/><path d="M 452 101 L 452 97 L 455 93 L 462 87 L 469 81 L 471 79 L 472 79 L 472 80" stroke="#ffffff" stroke-width="2" stroke-linecap="round" stroke-linejoin="round" fill="none"/><path d="M 455 109 L 455 109 L 453 109 L 457 108 L 462 105 L 466 102 L 467 100 L 466 99 L 465 100 L 464 105 L 464 112 L 462 118 L 460 121 L 458 121 L 458 118 L 459 114 L 462 111 L 466 108 L 470 106 L 473 104 L 474 102" stroke="#ffffff" stroke-width="2" stroke-linecap="round" stroke-linejoin="round" fill="none"/><path d="M 469 67 L 468 68 L 468 80 L 472 94 L 476 106 L 480 112 L 483 115 L 483 115 L 482 114 L 482 111" stroke="#ffffff" stroke-width="2" stroke-linecap="round" stroke-linejoin="round" fill="none"/><path d="M 474 65 L 473 63 L 473 63 L 473 69 L 473 77 L 473 80" stroke="#ffffff" stroke-width="2" stroke-linecap="round" stroke-linejoin="round" fill="none"/><path d="M 506 72 L 504 72 L 500 75 L 499 81 L 499 91 L 499 98 L 498 102 L 498 101 L 498 100 L 498 101 L 498 106 L 498 112 L 499 116 L 499 117 L 500 117 L 501 115 L 501 114 L 501 113 L 500 110 L 499 107 L 497 104 L 497 103" stroke="#ffffff" stroke-width="2" stroke-linecap="round" stroke-linejoin="round" fill="none"/><path d="M 525 65 L 522 65 L 520 65 L 519 70 L 518 76 L 515 81 L 513 84 L 514 84" stroke="#ffffff" stroke-width="2" stroke-linecap="round" stroke-linejoin="round" fill="none"/><path d="M 519 81 L 518 81 L 517 82 L 516 83 L 516 86 L 516 90 L 516 96 L 515 102 L 515 106 L 515 108 L 518 108 L 522 106 L 523 104 L 523 101 L 522 99 L 520 98 L 519 98 L 517 101 L 515 107 L 514 112 L 514 113" stroke="#ffffff" stroke-width="2" stroke-linecap="round" stroke-linejoin="round" fill="none"/></svg>
