<svg xmlns="http://www.w3.org/2000/svg" width="630" height="546" viewBox="0 0 630 546"><path d="M 171 309 L 201 328 L 230 349 L 257 365 L 279 373 L 293 373 L 299 356 L 294 316 L 272 260 L 235 198 L 188 140 L 135 88 L 82 48 L 42 30 L 18 29 L 10 50 L 19 94 L 52 172 L 98 267 L 145 356 L 191 434 L 238 498 L 275 530 L 299 536 L 317 528 L 334 491 L 353 429 L 373 354 L 391 277 L 410 207 L 432 150 L 458 113 L 489 98 L 521 101 L 557 136 L 594 192 L 621 244 L 635 284 L 637 303 L 630 309 L 613 306 L 575 274 L 517 208 L 445 130 L 356 59 L 261 15 L 195 10 L 146 34 L 118 72 L 99 126 L 82 194 L 62 261" stroke="#ffffff" stroke-width="2" stroke-linecap="round" stroke-linejoin="round" fill="none"/></svg>
