<svg xmlns="http://www.w3.org/2000/svg" width="232" height="67" viewBox="0 0 232 67"><path d="M 24 17 L 24 16 L 24 15 L 23 15 L 22 17 L 20 24 L 15 37 L 12 48 L 10 53 L 11 54" stroke="#ffffff" stroke-width="2" stroke-linecap="round" stroke-linejoin="round" fill="none"/><path d="M 39 29 L 38 29 L 37 28 L 37 27 L 41 25 L 47 23 L 53 22 L 56 21 L 57 21 L 57 20" stroke="#ffffff" stroke-width="2" stroke-linecap="round" stroke-linejoin="round" fill="none"/><path d="M 51 23 L 51 24 L 50 24 L 49 25 L 48 27 L 46 35 L 43 46 L 42 54 L 42 57" stroke="#ffffff" stroke-width="2" stroke-linecap="round" stroke-linejoin="round" fill="none"/><path d="M 69 22 L 68 21 L 66 22 L 63 27 L 61 35 L 61 42 L 61 47 L 62 50" stroke="#ffffff" stroke-width="2" stroke-linecap="round" stroke-linejoin="round" fill="none"/><path d="M 63 32 L 63 31 L 62 28 L 62 25 L 64 23 L 67 22 L 70 22 L 72 24 L 72 28 L 71 31 L 69 34 L 67 36 L 65 37 L 63 37 L 63 38 L 64 39 L 66 42 L 69 45 L 75 48 L 77 48" stroke="#ffffff" stroke-width="2" stroke-linecap="round" stroke-linejoin="round" fill="none"/><path d="M 106 26 L 106 25 L 104 24 L 100 24 L 95 24 L 91 26 L 89 29 L 88 31 L 88 33 L 89 34 L 92 35 L 96 36 L 101 36 L 105 36 L 106 36" stroke="#ffffff" stroke-width="2" stroke-linecap="round" stroke-linejoin="round" fill="none"/><path d="M 102 26 L 101 25 L 100 24 L 99 25 L 97 28 L 95 35 L 93 44 L 92 51 L 94 54" stroke="#ffffff" stroke-width="2" stroke-linecap="round" stroke-linejoin="round" fill="none"/><path d="M 113 31 L 112 31 L 110 31 L 108 34 L 107 40 L 107 46 L 109 48 L 112 48 L 115 44 L 117 39 L 118 35 L 118 31 L 116 30 L 113 30 L 109 33 L 108 35" stroke="#ffffff" stroke-width="2" stroke-linecap="round" stroke-linejoin="round" fill="none"/><path d="M 145 11 L 145 10 L 144 9 L 143 8 L 142 10 L 140 14 L 138 19 L 137 22 L 137 23" stroke="#ffffff" stroke-width="2" stroke-linecap="round" stroke-linejoin="round" fill="none"/><path d="M 147 12 L 147 11 L 146 15 L 144 21 L 142 28 L 140 33" stroke="#ffffff" stroke-width="2" stroke-linecap="round" stroke-linejoin="round" fill="none"/><path d="M 148 24 L 149 23 L 149 22 L 150 21 L 152 21 L 153 21" stroke="#ffffff" stroke-width="2" stroke-linecap="round" stroke-linejoin="round" fill="none"/><path d="M 148 35 L 148 36 L 151 34 L 155 30 L 158 28" stroke="#ffffff" stroke-width="2" stroke-linecap="round" stroke-linejoin="round" fill="none"/><path d="M 176 11 L 176 12 L 174 12 L 171 15 L 167 21 L 165 26 L 164 28" stroke="#ffffff" stroke-width="2" stroke-linecap="round" stroke-linejoin="round" fill="none"/><path d="M 172 23 L 172 21 L 173 19 L 174 17 L 176 16 L 178 16 L 179 16 L 180 16 L 180 17 L 178 18 L 176 21 L 173 25 L 171 31 L 170 37 L 169 41 L 169 42" stroke="#ffffff" stroke-width="2" stroke-linecap="round" stroke-linejoin="round" fill="none"/><path d="M 179 31 L 180 31 L 180 30 L 182 30 L 185 29" stroke="#ffffff" stroke-width="2" stroke-linecap="round" stroke-linejoin="round" fill="none"/><path d="M 197 24 L 197 23 L 198 22 L 198 21 L 199 20 L 200 19" stroke="#ffffff" stroke-width="2" stroke-linecap="round" stroke-linejoin="round" fill="none"/><path d="M 197 30 L 196 29 L 197 28 L 199 26" stroke="#ffffff" stroke-width="2" stroke-linecap="round" stroke-linejoin="round" fill="none"/><path d="M 193 43 L 193 45 L 193 46 L 193 45 L 198 41 L 204 35 L 209 28" stroke="#ffffff" stroke-width="2" stroke-linecap="round" stroke-linejoin="round" fill="none"/><path d="M 216 11 L 216 12 L 215 15 L 213 20 L 212 22" stroke="#ffffff" stroke-width="2" stroke-linecap="round" stroke-linejoin="round" fill="none"/><path d="M 220 15 L 222 15 L 222 17 L 221 21 L 219 24" stroke="#ffffff" stroke-width="2" stroke-linecap="round" stroke-linejoin="round" fill="none"/><path d="M 204 20 L 206 19 L 206 18 L 205 18 L 203 18 L 201 20 L 198 23 L 198 24" stroke="#ffffff" stroke-width="2" stroke-linecap="round" stroke-linejoin="round" fill="none"/></svg>
