<svg xmlns="http://www.w3.org/2000/svg" width="674" height="329" viewBox="0 0 674 329"><path d="M 12 29 L 12 28 L 11 27 L 11 25 L 12 24 L 15 24 L 19 24 L 23 26 L 25 27 L 25 29 L 25 32 L 23 36 L 20 40 L 16 44 L 13 47 L 11 49 L 10 50 L 12 50 L 16 49 L 21 48 L 27 47 L 34 45 L 37 45 L 39 45" stroke="#ffffff" stroke-width="2" stroke-linecap="round" stroke-linejoin="round" fill="none"/><path d="M 56 20 L 56 19 L 55 18 L 54 17 L 54 21 L 53 28 L 53 35 L 53 40 L 54 42" stroke="#ffffff" stroke-width="2" stroke-linecap="round" stroke-linejoin="round" fill="none"/><path d="M 90 13 L 90 12 L 90 10 L 87 16 L 81 28 L 73 44 L 65 58 L 60 67 L 58 74 L 58 75" stroke="#ffffff" stroke-width="2" stroke-linecap="round" stroke-linejoin="round" fill="none"/><path d="M 103 39 L 102 39 L 102 40 L 101 44 L 101 51 L 101 59 L 101 63 L 102 64" stroke="#ffffff" stroke-width="2" stroke-linecap="round" stroke-linejoin="round" fill="none"/><path d="M 117 37 L 116 36 L 115 36 L 115 41 L 115 50 L 115 58 L 115 63" stroke="#ffffff" stroke-width="2" stroke-linecap="round" stroke-linejoin="round" fill="none"/><path d="M 186 31 L 186 29 L 185 26 L 184 24 L 183 24 L 180 26 L 175 33 L 171 43 L 171 49 L 174 51 L 181 49 L 187 45" stroke="#ffffff" stroke-width="2" stroke-linecap="round" stroke-linejoin="round" fill="none"/><path d="M 223 30 L 222 28 L 221 25 L 221 23 L 221 20 L 220 19 L 218 20 L 215 23 L 210 29 L 209 34 L 210 36 L 215 35 L 220 31 L 224 26 L 226 23 L 226 22 L 223 23 L 221 27 L 219 32 L 217 39 L 213 48 L 212 55 L 211 58 L 211 59" stroke="#ffffff" stroke-width="2" stroke-linecap="round" stroke-linejoin="round" fill="none"/><path d="M 247 24 L 245 24 L 242 25 L 239 28 L 237 35 L 236 43 L 238 47 L 241 48 L 245 45 L 249 40 L 251 34 L 253 28 L 253 24 L 249 24 L 244 29 L 241 32" stroke="#ffffff" stroke-width="2" stroke-linecap="round" stroke-linejoin="round" fill="none"/><path d="M 23 109 L 23 110 L 24 108 L 27 105 L 32 101 L 37 98 L 40 97" stroke="#ffffff" stroke-width="2" stroke-linecap="round" stroke-linejoin="round" fill="none"/><path d="M 33 96 L 32 96 L 30 95 L 30 96 L 30 102 L 30 112 L 31 122 L 33 126" stroke="#ffffff" stroke-width="2" stroke-linecap="round" stroke-linejoin="round" fill="none"/><path d="M 41 105 L 40 105 L 39 108 L 36 117 L 32 127 L 28 133 L 24 135 L 21 135 L 20 134 L 20 130 L 24 124 L 31 117 L 40 111 L 47 110 L 50 113 L 50 118 L 50 123 L 48 127 L 48 128" stroke="#ffffff" stroke-width="2" stroke-linecap="round" stroke-linejoin="round" fill="none"/><path d="M 67 105 L 67 103 L 68 101 L 71 100 L 75 100 L 77 101 L 77 102 L 77 103 L 75 104 L 74 106" stroke="#ffffff" stroke-width="2" stroke-linecap="round" stroke-linejoin="round" fill="none"/><path d="M 66 115 L 66 116 L 65 119 L 64 121 L 65 123 L 69 123 L 74 122 L 79 119 L 80 118" stroke="#ffffff" stroke-width="2" stroke-linecap="round" stroke-linejoin="round" fill="none"/><path d="M 84 84 L 84 85 L 81 88 L 81 91 L 81 95" stroke="#ffffff" stroke-width="2" stroke-linecap="round" stroke-linejoin="round" fill="none"/><path d="M 93 83 L 92 83 L 92 85 L 92 87" stroke="#ffffff" stroke-width="2" stroke-linecap="round" stroke-linejoin="round" fill="none"/><path d="M 104 104 L 105 104 L 106 102 L 110 98 L 118 93 L 122 92" stroke="#ffffff" stroke-width="2" stroke-linecap="round" stroke-linejoin="round" fill="none"/><path d="M 115 90 L 114 90 L 112 93 L 111 102 L 109 112 L 109 116 L 110 113 L 112 110 L 115 108 L 119 108 L 121 111 L 119 116 L 114 122 L 110 125 L 108 126" stroke="#ffffff" stroke-width="2" stroke-linecap="round" stroke-linejoin="round" fill="none"/><path d="M 135 106 L 134 104 L 134 103 L 137 102 L 140 101 L 143 99 L 144 98 L 142 98 L 140 99 L 138 102 L 137 106 L 136 111 L 135 116 L 134 119 L 133 121 L 132 120 L 132 118 L 134 114 L 138 112 L 142 109 L 148 107 L 150 106" stroke="#ffffff" stroke-width="2" stroke-linecap="round" stroke-linejoin="round" fill="none"/><path d="M 161 99 L 160 100 L 158 102 L 157 104 L 156 108 L 157 110" stroke="#ffffff" stroke-width="2" stroke-linecap="round" stroke-linejoin="round" fill="none"/><path d="M 168 98 L 168 99 L 168 101 L 167 106" stroke="#ffffff" stroke-width="2" stroke-linecap="round" stroke-linejoin="round" fill="none"/><path d="M 199 89 L 199 88 L 199 89 L 198 94 L 197 101 L 197 108" stroke="#ffffff" stroke-width="2" stroke-linecap="round" stroke-linejoin="round" fill="none"/><path d="M 203 98 L 203 97 L 203 96 L 203 95 L 205 94 L 208 93 L 213 92" stroke="#ffffff" stroke-width="2" stroke-linecap="round" stroke-linejoin="round" fill="none"/><path d="M 187 116 L 186 116 L 184 116 L 184 115 L 187 114 L 193 112 L 200 111 L 207 111 L 215 109 L 220 107" stroke="#ffffff" stroke-width="2" stroke-linecap="round" stroke-linejoin="round" fill="none"/><path d="M 235 91 L 235 90 L 235 89 L 235 88 L 238 87 L 243 86 L 246 86" stroke="#ffffff" stroke-width="2" stroke-linecap="round" stroke-linejoin="round" fill="none"/><path d="M 234 98 L 233 98 L 232 98 L 233 98 L 236 96 L 241 93 L 246 91 L 248 89" stroke="#ffffff" stroke-width="2" stroke-linecap="round" stroke-linejoin="round" fill="none"/><path d="M 244 78 L 243 78 L 242 78 L 242 81 L 241 89 L 241 99 L 240 106 L 240 110 L 238 110 L 237 110 L 236 109 L 236 107 L 237 106 L 239 105 L 244 103 L 249 101 L 251 100" stroke="#ffffff" stroke-width="2" stroke-linecap="round" stroke-linejoin="round" fill="none"/><path d="M 262 94 L 262 93 L 262 92 L 264 90 L 268 88 L 272 87 L 273 87 L 271 88 L 269 89 L 266 92 L 265 96 L 264 101 L 266 105 L 270 106 L 275 104" stroke="#ffffff" stroke-width="2" stroke-linecap="round" stroke-linejoin="round" fill="none"/><path d="M 279 71 L 277 72 L 274 75 L 274 78 L 275 79" stroke="#ffffff" stroke-width="2" stroke-linecap="round" stroke-linejoin="round" fill="none"/><path d="M 286 71 L 284 74 L 283 78" stroke="#ffffff" stroke-width="2" stroke-linecap="round" stroke-linejoin="round" fill="none"/><path d="M 311 72 L 311 71 L 310 69 L 309 68 L 307 71 L 305 79 L 303 87 L 302 93 L 301 95" stroke="#ffffff" stroke-width="2" stroke-linecap="round" stroke-linejoin="round" fill="none"/><path d="M 308 82 L 309 80 L 311 77 L 315 74 L 318 73 L 320 73" stroke="#ffffff" stroke-width="2" stroke-linecap="round" stroke-linejoin="round" fill="none"/><path d="M 305 92 L 304 91 L 305 89 L 310 86 L 317 82 L 319 80" stroke="#ffffff" stroke-width="2" stroke-linecap="round" stroke-linejoin="round" fill="none"/><path d="M 315 80 L 313 81 L 312 82 L 311 86 L 310 93 L 307 102 L 304 108 L 303 109" stroke="#ffffff" stroke-width="2" stroke-linecap="round" stroke-linejoin="round" fill="none"/><path d="M 312 91 L 312 90 L 313 91 L 316 94 L 318 95" stroke="#ffffff" stroke-width="2" stroke-linecap="round" stroke-linejoin="round" fill="none"/><path d="M 325 77 L 325 76 L 327 73 L 331 70 L 337 69 L 339 70" stroke="#ffffff" stroke-width="2" stroke-linecap="round" stroke-linejoin="round" fill="none"/><path d="M 329 77 L 327 78 L 325 80 L 324 84 L 323 89 L 323 92" stroke="#ffffff" stroke-width="2" stroke-linecap="round" stroke-linejoin="round" fill="none"/><path d="M 325 87 L 326 86 L 327 84 L 328 81 L 331 80 L 332 81 L 332 85 L 331 88 L 330 89" stroke="#ffffff" stroke-width="2" stroke-linecap="round" stroke-linejoin="round" fill="none"/><path d="M 323 94 L 323 93 L 323 91 L 327 89 L 330 88" stroke="#ffffff" stroke-width="2" stroke-linecap="round" stroke-linejoin="round" fill="none"/><path d="M 333 87 L 333 88 L 331 90 L 330 93 L 329 97 L 330 98" stroke="#ffffff" stroke-width="2" stroke-linecap="round" stroke-linejoin="round" fill="none"/><path d="M 337 90 L 337 89 L 334 92 L 329 97 L 325 102" stroke="#ffffff" stroke-width="2" stroke-linecap="round" stroke-linejoin="round" fill="none"/><path d="M 317 105 L 318 104 L 323 103 L 332 100 L 341 98 L 343 98" stroke="#ffffff" stroke-width="2" stroke-linecap="round" stroke-linejoin="round" fill="none"/><path d="M 365 85 L 364 85 L 361 84 L 360 85 L 359 88 L 356 91 L 354 93 L 354 96 L 355 98 L 359 99 L 366 99 L 372 98" stroke="#ffffff" stroke-width="2" stroke-linecap="round" stroke-linejoin="round" fill="none"/><path d="M 400 77 L 399 77 L 399 76 L 398 75 L 397 76 L 395 83 L 393 93 L 394 100 L 398 102 L 404 99 L 410 94 L 412 91" stroke="#ffffff" stroke-width="2" stroke-linecap="round" stroke-linejoin="round" fill="none"/><path d="M 413 81 L 411 80 L 411 79 L 413 78 L 418 78 L 422 78 L 425 77 L 426 77 L 424 79 L 421 84 L 419 89 L 418 95 L 419 99 L 424 101 L 427 101" stroke="#ffffff" stroke-width="2" stroke-linecap="round" stroke-linejoin="round" fill="none"/><path d="M 454 85 L 453 84 L 453 82 L 456 79 L 462 77 L 468 76 L 469 77 L 468 82 L 463 89 L 458 96 L 454 101 L 453 103 L 453 102" stroke="#ffffff" stroke-width="2" stroke-linecap="round" stroke-linejoin="round" fill="none"/><path d="M 459 89 L 462 89 L 463 88 L 465 90 L 468 93 L 472 96 L 477 97 L 479 97" stroke="#ffffff" stroke-width="2" stroke-linecap="round" stroke-linejoin="round" fill="none"/><path d="M 494 75 L 493 75 L 491 74 L 489 75 L 486 80 L 483 86 L 483 90 L 483 91" stroke="#ffffff" stroke-width="2" stroke-linecap="round" stroke-linejoin="round" fill="none"/><path d="M 483 86 L 483 84 L 484 81 L 486 78 L 491 76 L 495 76 L 496 79 L 495 85 L 492 93 L 487 99 L 484 104 L 482 105 L 481 105" stroke="#ffffff" stroke-width="2" stroke-linecap="round" stroke-linejoin="round" fill="none"/><path d="M 505 87 L 504 85 L 505 83 L 508 80 L 513 78 L 516 77 L 517 77 L 516 77 L 515 77 L 513 79 L 512 81 L 510 85 L 508 90 L 508 95 L 507 98 L 506 100 L 504 100 L 501 100 L 498 101 L 497 102 L 497 103 L 500 104 L 505 103 L 511 101 L 518 97 L 525 94 L 527 93" stroke="#ffffff" stroke-width="2" stroke-linecap="round" stroke-linejoin="round" fill="none"/><path d="M 530 84 L 529 81 L 530 78 L 534 74 L 540 72 L 545 70 L 548 70 L 549 72 L 549 73 L 548 76 L 545 79 L 541 82 L 537 86 L 534 90 L 532 96 L 530 100 L 529 104" stroke="#ffffff" stroke-width="2" stroke-linecap="round" stroke-linejoin="round" fill="none"/><path d="M 565 80 L 564 80 L 561 79 L 558 79 L 556 82 L 555 86 L 555 90 L 555 91" stroke="#ffffff" stroke-width="2" stroke-linecap="round" stroke-linejoin="round" fill="none"/><path d="M 557 82 L 560 79 L 564 79 L 567 81 L 568 86 L 566 92 L 561 98 L 557 102 L 554 104" stroke="#ffffff" stroke-width="2" stroke-linecap="round" stroke-linejoin="round" fill="none"/><path d="M 572 64 L 570 64 L 569 64" stroke="#ffffff" stroke-width="2" stroke-linecap="round" stroke-linejoin="round" fill="none"/><path d="M 568 66 L 568 67 L 567 71 L 567 73" stroke="#ffffff" stroke-width="2" stroke-linecap="round" stroke-linejoin="round" fill="none"/><path d="M 586 64 L 587 64 L 586 63 L 582 63 L 579 67 L 578 69" stroke="#ffffff" stroke-width="2" stroke-linecap="round" stroke-linejoin="round" fill="none"/><path d="M 585 81 L 582 81 L 584 79 L 588 77 L 593 76 L 595 76" stroke="#ffffff" stroke-width="2" stroke-linecap="round" stroke-linejoin="round" fill="none"/><path d="M 581 90 L 581 89 L 580 88 L 582 88 L 587 87 L 593 86 L 595 86 L 594 89 L 592 93 L 586 98 L 579 102 L 574 105 L 573 105" stroke="#ffffff" stroke-width="2" stroke-linecap="round" stroke-linejoin="round" fill="none"/><path d="M 642 69 L 642 68 L 640 68 L 639 68 L 634 72 L 629 77 L 625 79" stroke="#ffffff" stroke-width="2" stroke-linecap="round" stroke-linejoin="round" fill="none"/><path d="M 621 85 L 623 83 L 629 80 L 634 79 L 637 79 L 638 80" stroke="#ffffff" stroke-width="2" stroke-linecap="round" stroke-linejoin="round" fill="none"/><path d="M 620 92 L 619 92 L 619 91 L 623 89 L 631 87 L 639 85 L 642 83" stroke="#ffffff" stroke-width="2" stroke-linecap="round" stroke-linejoin="round" fill="none"/><path d="M 630 77 L 630 78 L 631 81 L 631 90 L 625 101 L 620 109 L 616 112 L 615 112 L 614 112" stroke="#ffffff" stroke-width="2" stroke-linecap="round" stroke-linejoin="round" fill="none"/><path d="M 655 79 L 657 80 L 656 80 L 652 82 L 647 87 L 643 93 L 642 97 L 643 99" stroke="#ffffff" stroke-width="2" stroke-linecap="round" stroke-linejoin="round" fill="none"/><path d="M 651 89 L 653 88 L 654 86 L 656 86 L 658 86 L 659 86 L 660 87" stroke="#ffffff" stroke-width="2" stroke-linecap="round" stroke-linejoin="round" fill="none"/><path d="M 634 100 L 632 100 L 633 100 L 638 98 L 645 97 L 655 96 L 661 96 L 662 96" stroke="#ffffff" stroke-width="2" stroke-linecap="round" stroke-linejoin="round" fill="none"/><path d="M 30 169 L 28 169 L 27 170 L 25 175 L 25 182 L 26 188 L 28 190" stroke="#ffffff" stroke-width="2" stroke-linecap="round" stroke-linejoin="round" fill="none"/><path d="M 36 173 L 36 172 L 36 170 L 39 167 L 45 165 L 50 163 L 54 163" stroke="#ffffff" stroke-width="2" stroke-linecap="round" stroke-linejoin="round" fill="none"/><path d="M 46 156 L 46 155 L 45 154 L 46 160 L 47 173 L 44 187 L 42 197 L 40 201 L 39 202" stroke="#ffffff" stroke-width="2" stroke-linecap="round" stroke-linejoin="round" fill="none"/><path d="M 54 141 L 53 142 L 52 143 L 51 148 L 51 152" stroke="#ffffff" stroke-width="2" stroke-linecap="round" stroke-linejoin="round" fill="none"/><path d="M 62 141 L 64 139 L 64 142 L 64 145" stroke="#ffffff" stroke-width="2" stroke-linecap="round" stroke-linejoin="round" fill="none"/><path d="M 74 164 L 73 164 L 71 163 L 73 161 L 78 157 L 83 155 L 86 154 L 87 154" stroke="#ffffff" stroke-width="2" stroke-linecap="round" stroke-linejoin="round" fill="none"/><path d="M 73 169 L 72 169 L 72 168 L 73 167 L 77 165 L 82 162 L 86 159" stroke="#ffffff" stroke-width="2" stroke-linecap="round" stroke-linejoin="round" fill="none"/><path d="M 80 149 L 80 147 L 79 147 L 80 149 L 81 155 L 83 163 L 83 167" stroke="#ffffff" stroke-width="2" stroke-linecap="round" stroke-linejoin="round" fill="none"/><path d="M 75 175 L 75 176 L 76 179 L 78 184 L 80 188" stroke="#ffffff" stroke-width="2" stroke-linecap="round" stroke-linejoin="round" fill="none"/><path d="M 96 145 L 92 146 L 91 149 L 91 153" stroke="#ffffff" stroke-width="2" stroke-linecap="round" stroke-linejoin="round" fill="none"/><path d="M 102 144 L 101 144 L 101 145 L 101 146" stroke="#ffffff" stroke-width="2" stroke-linecap="round" stroke-linejoin="round" fill="none"/><path d="M 104 161 L 103 162 L 103 165 L 103 171 L 102 177 L 100 180 L 98 181 L 96 180 L 96 177 L 97 173 L 100 171 L 104 168 L 109 167 L 114 165 L 120 164 L 125 162" stroke="#ffffff" stroke-width="2" stroke-linecap="round" stroke-linejoin="round" fill="none"/><path d="M 121 153 L 120 154 L 120 159 L 120 167 L 118 176 L 114 183 L 113 185" stroke="#ffffff" stroke-width="2" stroke-linecap="round" stroke-linejoin="round" fill="none"/><path d="M 96 164 L 95 163 L 96 162 L 97 161 L 99 159 L 100 158 L 101 157 L 102 157 L 102 156 L 103 156 L 103 157 L 103 158 L 103 159 L 103 161 L 103 162" stroke="#ffffff" stroke-width="2" stroke-linecap="round" stroke-linejoin="round" fill="none"/><path d="M 149 161 L 149 160 L 149 161 L 148 164 L 147 167 L 146 170 L 144 172 L 142 172 L 142 169 L 143 165 L 147 160 L 153 158 L 158 160 L 159 166 L 157 172 L 153 176 L 151 177" stroke="#ffffff" stroke-width="2" stroke-linecap="round" stroke-linejoin="round" fill="none"/><path d="M 175 161 L 174 159 L 175 156 L 184 149 L 195 142 L 201 139 L 202 139 L 200 139 L 197 140 L 194 141 L 192 143 L 191 147 L 188 157 L 187 170 L 187 178 L 189 180" stroke="#ffffff" stroke-width="2" stroke-linecap="round" stroke-linejoin="round" fill="none"/><path d="M 208 152 L 207 152 L 204 153 L 202 157 L 202 164 L 204 168 L 207 169 L 210 166 L 211 162 L 211 158 L 211 154 L 207 153 L 203 155 L 201 160" stroke="#ffffff" stroke-width="2" stroke-linecap="round" stroke-linejoin="round" fill="none"/><path d="M 232 146 L 230 147 L 227 150 L 224 158 L 222 170 L 221 180 L 221 186 L 221 188" stroke="#ffffff" stroke-width="2" stroke-linecap="round" stroke-linejoin="round" fill="none"/><path d="M 225 157 L 226 154 L 227 148 L 231 146 L 235 145 L 237 148 L 236 153 L 233 159 L 228 164 L 223 167" stroke="#ffffff" stroke-width="2" stroke-linecap="round" stroke-linejoin="round" fill="none"/><path d="M 270 140 L 269 140 L 267 140 L 266 140 L 265 146 L 263 158 L 262 166 L 262 169 L 263 169 L 264 168 L 267 163 L 273 155 L 281 147" stroke="#ffffff" stroke-width="2" stroke-linecap="round" stroke-linejoin="round" fill="none"/><path d="M 304 134 L 302 134 L 300 136 L 296 141 L 291 150 L 285 157 L 283 161" stroke="#ffffff" stroke-width="2" stroke-linecap="round" stroke-linejoin="round" fill="none"/><path d="M 295 145 L 295 147 L 295 153 L 297 161 L 298 164" stroke="#ffffff" stroke-width="2" stroke-linecap="round" stroke-linejoin="round" fill="none"/><path d="M 308 162 L 307 159 L 308 155 L 314 147 L 323 139 L 329 135 L 331 134 L 331 135 L 331 138 L 330 141 L 328 145 L 326 148 L 325 149" stroke="#ffffff" stroke-width="2" stroke-linecap="round" stroke-linejoin="round" fill="none"/><path d="M 318 131 L 316 131 L 315 132 L 315 139 L 318 148 L 322 156 L 326 161 L 327 161" stroke="#ffffff" stroke-width="2" stroke-linecap="round" stroke-linejoin="round" fill="none"/><path d="M 346 153 L 346 152 L 346 151 L 349 150 L 356 149 L 368 149" stroke="#ffffff" stroke-width="2" stroke-linecap="round" stroke-linejoin="round" fill="none"/><path d="M 418 138 L 418 137 L 418 135 L 422 132 L 431 128 L 443 126 L 448 126 L 448 127" stroke="#ffffff" stroke-width="2" stroke-linecap="round" stroke-linejoin="round" fill="none"/><path d="M 436 124 L 436 123 L 435 123 L 434 130 L 431 141 L 428 151 L 425 156 L 424 158 L 423 157 L 422 153 L 424 147 L 426 143 L 429 142 L 432 144 L 432 151 L 431 159 L 428 165 L 426 168 L 425 168" stroke="#ffffff" stroke-width="2" stroke-linecap="round" stroke-linejoin="round" fill="none"/><path d="M 465 140 L 464 140 L 460 138 L 459 138 L 457 139 L 455 141 L 452 145 L 450 147 L 449 149 L 450 150 L 453 152 L 458 154 L 463 156 L 469 158 L 470 159" stroke="#ffffff" stroke-width="2" stroke-linecap="round" stroke-linejoin="round" fill="none"/><path d="M 51 216 L 50 216 L 50 214 L 53 212 L 57 210 L 60 210 L 61 212 L 59 215 L 58 219 L 57 223 L 57 231 L 58 239 L 59 246 L 58 251 L 56 254 L 53 255 L 51 255" stroke="#ffffff" stroke-width="2" stroke-linecap="round" stroke-linejoin="round" fill="none"/><path d="M 43 243 L 43 241 L 44 239 L 49 238 L 58 235 L 70 232 L 72 231" stroke="#ffffff" stroke-width="2" stroke-linecap="round" stroke-linejoin="round" fill="none"/><path d="M 86 212 L 85 212 L 84 212 L 82 218 L 78 228 L 74 237 L 72 241" stroke="#ffffff" stroke-width="2" stroke-linecap="round" stroke-linejoin="round" fill="none"/><path d="M 78 229 L 79 229 L 79 234 L 79 242 L 79 245" stroke="#ffffff" stroke-width="2" stroke-linecap="round" stroke-linejoin="round" fill="none"/><path d="M 84 228 L 85 226 L 88 223 L 93 219 L 100 216 L 104 213" stroke="#ffffff" stroke-width="2" stroke-linecap="round" stroke-linejoin="round" fill="none"/><path d="M 98 209 L 97 209 L 96 209 L 95 211 L 93 218 L 92 228 L 93 233 L 94 233" stroke="#ffffff" stroke-width="2" stroke-linecap="round" stroke-linejoin="round" fill="none"/><path d="M 102 211 L 102 209 L 101 209 L 100 213 L 98 219 L 98 221" stroke="#ffffff" stroke-width="2" stroke-linecap="round" stroke-linejoin="round" fill="none"/><path d="M 86 238 L 87 235 L 91 231 L 98 227 L 104 224 L 106 224 L 105 225 L 101 229 L 96 235 L 91 241 L 87 247 L 87 249" stroke="#ffffff" stroke-width="2" stroke-linecap="round" stroke-linejoin="round" fill="none"/><path d="M 97 235 L 99 234 L 101 234 L 104 235 L 109 237 L 113 239" stroke="#ffffff" stroke-width="2" stroke-linecap="round" stroke-linejoin="round" fill="none"/><path d="M 146 209 L 145 208 L 144 207 L 142 210 L 139 219 L 137 232 L 137 241 L 141 244" stroke="#ffffff" stroke-width="2" stroke-linecap="round" stroke-linejoin="round" fill="none"/><path d="M 169 202 L 168 202 L 165 203 L 163 205 L 161 210 L 161 213" stroke="#ffffff" stroke-width="2" stroke-linecap="round" stroke-linejoin="round" fill="none"/><path d="M 164 209 L 163 209 L 162 209 L 161 211 L 160 216 L 160 220" stroke="#ffffff" stroke-width="2" stroke-linecap="round" stroke-linejoin="round" fill="none"/><path d="M 163 214 L 163 211 L 163 208 L 166 207 L 169 206 L 171 207 L 172 210 L 171 213 L 171 214" stroke="#ffffff" stroke-width="2" stroke-linecap="round" stroke-linejoin="round" fill="none"/><path d="M 164 216 L 164 215 L 164 214 L 165 213 L 166 213" stroke="#ffffff" stroke-width="2" stroke-linecap="round" stroke-linejoin="round" fill="none"/><path d="M 165 218 L 164 219 L 163 219 L 164 218 L 167 216 L 169 215 L 170 214 L 169 215 L 165 219 L 161 226 L 157 236 L 154 243 L 154 246 L 154 245 L 155 241 L 158 235 L 160 229 L 163 225 L 165 224 L 166 228 L 168 234 L 170 238 L 173 239 L 176 236 L 178 231 L 179 226 L 179 225" stroke="#ffffff" stroke-width="2" stroke-linecap="round" stroke-linejoin="round" fill="none"/><path d="M 177 220 L 177 218 L 177 217 L 177 218 L 177 222 L 176 226 L 176 228" stroke="#ffffff" stroke-width="2" stroke-linecap="round" stroke-linejoin="round" fill="none"/><path d="M 183 217 L 182 219 L 181 221" stroke="#ffffff" stroke-width="2" stroke-linecap="round" stroke-linejoin="round" fill="none"/><path d="M 192 208 L 192 206 L 195 205 L 199 205 L 201 206 L 202 209 L 200 211 L 198 213 L 197 215 L 197 217 L 197 219 L 199 223 L 200 227 L 199 231 L 197 234 L 194 235 L 193 236" stroke="#ffffff" stroke-width="2" stroke-linecap="round" stroke-linejoin="round" fill="none"/><path d="M 192 224 L 192 223 L 194 222 L 201 219 L 209 216 L 213 214" stroke="#ffffff" stroke-width="2" stroke-linecap="round" stroke-linejoin="round" fill="none"/><path d="M 226 194 L 225 195 L 228 197 L 232 204 L 233 216 L 228 227 L 222 234 L 214 239 L 211 241" stroke="#ffffff" stroke-width="2" stroke-linecap="round" stroke-linejoin="round" fill="none"/><path d="M 279 195 L 279 194 L 279 192 L 278 190 L 277 187 L 275 185 L 272 185 L 270 187 L 267 193 L 265 202 L 265 213 L 267 221 L 267 224 L 266 225 L 262 225 L 259 224 L 257 221 L 258 217 L 261 213 L 267 207 L 275 201 L 282 197 L 286 195 L 287 195" stroke="#ffffff" stroke-width="2" stroke-linecap="round" stroke-linejoin="round" fill="none"/><path d="M 294 202 L 293 202 L 289 204 L 287 207 L 285 211 L 285 215 L 286 216" stroke="#ffffff" stroke-width="2" stroke-linecap="round" stroke-linejoin="round" fill="none"/><path d="M 288 210 L 288 209 L 288 208 L 289 208 L 294 206 L 300 204 L 304 203 L 303 203 L 301 203 L 299 203 L 297 206 L 295 212 L 293 220 L 292 227 L 293 229" stroke="#ffffff" stroke-width="2" stroke-linecap="round" stroke-linejoin="round" fill="none"/><path d="M 315 193 L 313 192 L 312 192 L 311 197 L 311 206 L 309 215 L 309 221 L 308 225" stroke="#ffffff" stroke-width="2" stroke-linecap="round" stroke-linejoin="round" fill="none"/><path d="M 310 199 L 310 195 L 311 192 L 314 188 L 318 186 L 321 184 L 323 184 L 323 187 L 324 193 L 323 202 L 322 212 L 321 220 L 321 224 L 321 225" stroke="#ffffff" stroke-width="2" stroke-linecap="round" stroke-linejoin="round" fill="none"/><path d="M 317 202 L 316 201 L 315 200 L 316 199 L 319 198 L 320 198" stroke="#ffffff" stroke-width="2" stroke-linecap="round" stroke-linejoin="round" fill="none"/><path d="M 316 209 L 313 211 L 312 211 L 313 211 L 319 208 L 320 207" stroke="#ffffff" stroke-width="2" stroke-linecap="round" stroke-linejoin="round" fill="none"/><path d="M 395 198 L 395 197 L 395 195 L 398 193 L 402 192 L 405 194 L 406 200 L 405 206 L 402 211 L 398 214 L 394 217 L 392 219 L 393 219 L 395 219 L 400 218 L 407 216 L 416 212 L 424 210" stroke="#ffffff" stroke-width="2" stroke-linecap="round" stroke-linejoin="round" fill="none"/><path d="M 427 193 L 427 194 L 426 194 L 425 194 L 423 198 L 421 205 L 419 211 L 419 214" stroke="#ffffff" stroke-width="2" stroke-linecap="round" stroke-linejoin="round" fill="none"/><path d="M 424 205 L 424 204 L 424 202 L 427 200 L 432 198 L 435 197 L 437 197 L 436 197 L 435 197 L 434 199 L 432 205 L 429 213 L 427 221 L 426 225 L 427 225" stroke="#ffffff" stroke-width="2" stroke-linecap="round" stroke-linejoin="round" fill="none"/><path d="M 450 187 L 448 186 L 447 186 L 446 190 L 445 200 L 443 211 L 442 216 L 442 218 L 441 218" stroke="#ffffff" stroke-width="2" stroke-linecap="round" stroke-linejoin="round" fill="none"/><path d="M 446 195 L 446 192 L 447 188 L 449 186 L 452 184 L 454 184 L 456 186 L 457 190 L 457 197 L 457 205 L 456 212 L 455 216 L 454 217" stroke="#ffffff" stroke-width="2" stroke-linecap="round" stroke-linejoin="round" fill="none"/><path d="M 448 203 L 447 202 L 446 200 L 447 198 L 449 197 L 453 196" stroke="#ffffff" stroke-width="2" stroke-linecap="round" stroke-linejoin="round" fill="none"/><path d="M 449 206 L 447 207 L 446 208 L 448 207 L 455 204" stroke="#ffffff" stroke-width="2" stroke-linecap="round" stroke-linejoin="round" fill="none"/><path d="M 497 192 L 495 190 L 493 188 L 490 189 L 486 195 L 485 202 L 485 208 L 489 210 L 497 207 L 503 203" stroke="#ffffff" stroke-width="2" stroke-linecap="round" stroke-linejoin="round" fill="none"/><path d="M 516 179 L 515 179 L 513 181 L 510 186 L 507 196 L 504 207 L 502 213 L 501 214 L 501 213 L 502 210 L 505 205 L 509 201 L 512 199 L 513 200 L 513 206 L 513 210 L 514 212 L 515 212" stroke="#ffffff" stroke-width="2" stroke-linecap="round" stroke-linejoin="round" fill="none"/><path d="M 524 202 L 524 203 L 523 204 L 521 207 L 520 211 L 520 214 L 520 215" stroke="#ffffff" stroke-width="2" stroke-linecap="round" stroke-linejoin="round" fill="none"/><path d="M 529 185 L 527 186 L 525 189 L 524 194 L 524 198" stroke="#ffffff" stroke-width="2" stroke-linecap="round" stroke-linejoin="round" fill="none"/><path d="M 536 192 L 533 194 L 530 199 L 529 204 L 529 207 L 530 207 L 531 205 L 533 201 L 535 198 L 536 197 L 537 197 L 537 202 L 537 206 L 537 208" stroke="#ffffff" stroke-width="2" stroke-linecap="round" stroke-linejoin="round" fill="none"/><path d="M 561 199 L 561 198 L 559 195 L 559 193 L 558 192 L 557 193 L 553 195 L 550 200 L 548 204 L 547 206 L 550 205 L 555 202 L 558 200 L 560 197 L 561 196 L 560 198 L 559 202 L 558 206 L 558 208" stroke="#ffffff" stroke-width="2" stroke-linecap="round" stroke-linejoin="round" fill="none"/><path d="M 582 179 L 582 178 L 581 177 L 580 181 L 579 187 L 579 192 L 579 194" stroke="#ffffff" stroke-width="2" stroke-linecap="round" stroke-linejoin="round" fill="none"/><path d="M 590 177 L 591 177 L 590 181 L 586 193 L 581 204 L 577 212 L 574 214" stroke="#ffffff" stroke-width="2" stroke-linecap="round" stroke-linejoin="round" fill="none"/><path d="M 595 177 L 596 174 L 596 172 L 598 171 L 601 171 L 603 172 L 603 174 L 603 176" stroke="#ffffff" stroke-width="2" stroke-linecap="round" stroke-linejoin="round" fill="none"/><path d="M 596 180 L 596 179 L 596 177 L 598 176 L 601 174 L 602 174" stroke="#ffffff" stroke-width="2" stroke-linecap="round" stroke-linejoin="round" fill="none"/><path d="M 600 178 L 598 178 L 597 178 L 600 177" stroke="#ffffff" stroke-width="2" stroke-linecap="round" stroke-linejoin="round" fill="none"/><path d="M 598 182 L 596 184 L 593 187 L 590 192 L 589 196 L 589 199" stroke="#ffffff" stroke-width="2" stroke-linecap="round" stroke-linejoin="round" fill="none"/><path d="M 591 193 L 591 191 L 593 189 L 597 186 L 603 185 L 606 186 L 606 189 L 605 192 L 602 195 L 600 197 L 598 197" stroke="#ffffff" stroke-width="2" stroke-linecap="round" stroke-linejoin="round" fill="none"/><path d="M 594 193 L 594 194 L 593 195 L 593 198 L 593 202 L 592 206 L 592 208 L 592 209 L 592 208 L 592 207 L 591 205 L 591 203 L 592 201 L 594 198 L 597 197 L 600 196 L 602 196 L 603 197 L 603 199 L 603 200 L 602 201 L 600 201 L 598 201 L 596 200 L 594 196 L 594 193 L 595 190 L 597 190 L 598 192 L 598 197 L 598 203 L 596 210 L 594 217 L 593 220" stroke="#ffffff" stroke-width="2" stroke-linecap="round" stroke-linejoin="round" fill="none"/><path d="M 606 209 L 607 208 L 609 207 L 610 208 L 610 210 L 608 213 L 607 215" stroke="#ffffff" stroke-width="2" stroke-linecap="round" stroke-linejoin="round" fill="none"/><path d="M 615 197 L 615 195 L 616 193 L 619 191 L 626 191 L 631 191 L 634 191 L 631 193 L 627 196 L 623 201 L 620 207 L 619 212 L 621 214 L 628 214 L 630 213" stroke="#ffffff" stroke-width="2" stroke-linecap="round" stroke-linejoin="round" fill="none"/><path d="M 644 196 L 644 194 L 649 191 L 657 189 L 661 188 L 664 187" stroke="#ffffff" stroke-width="2" stroke-linecap="round" stroke-linejoin="round" fill="none"/><path d="M 659 182 L 658 182 L 656 182 L 655 185 L 653 192 L 648 201 L 644 208 L 642 212 L 642 214" stroke="#ffffff" stroke-width="2" stroke-linecap="round" stroke-linejoin="round" fill="none"/><path d="M 655 203 L 655 202 L 655 200 L 657 199 L 659 198 L 664 198" stroke="#ffffff" stroke-width="2" stroke-linecap="round" stroke-linejoin="round" fill="none"/><path d="M 655 209 L 654 209 L 655 209 L 660 208 L 663 207" stroke="#ffffff" stroke-width="2" stroke-linecap="round" stroke-linejoin="round" fill="none"/><path d="M 34 273 L 33 271 L 33 270 L 33 272 L 32 280 L 30 289 L 29 297" stroke="#ffffff" stroke-width="2" stroke-linecap="round" stroke-linejoin="round" fill="none"/><path d="M 36 285 L 36 283 L 36 280 L 38 277 L 43 274 L 47 274" stroke="#ffffff" stroke-width="2" stroke-linecap="round" stroke-linejoin="round" fill="none"/><path d="M 32 300 L 31 301 L 30 300 L 32 297 L 38 292 L 46 286 L 51 282 L 51 281" stroke="#ffffff" stroke-width="2" stroke-linecap="round" stroke-linejoin="round" fill="none"/><path d="M 41 279 L 41 285 L 40 296 L 38 308 L 36 316 L 35 319" stroke="#ffffff" stroke-width="2" stroke-linecap="round" stroke-linejoin="round" fill="none"/><path d="M 38 297 L 42 298 L 50 300 L 54 300" stroke="#ffffff" stroke-width="2" stroke-linecap="round" stroke-linejoin="round" fill="none"/><path d="M 53 279 L 52 277 L 54 274 L 59 272 L 64 271 L 65 271" stroke="#ffffff" stroke-width="2" stroke-linecap="round" stroke-linejoin="round" fill="none"/><path d="M 57 279 L 55 283 L 54 287 L 53 292 L 53 296 L 53 297" stroke="#ffffff" stroke-width="2" stroke-linecap="round" stroke-linejoin="round" fill="none"/><path d="M 57 287 L 57 286 L 57 282 L 59 280 L 62 280 L 64 282 L 64 285 L 63 289 L 62 291" stroke="#ffffff" stroke-width="2" stroke-linecap="round" stroke-linejoin="round" fill="none"/><path d="M 54 298 L 53 298 L 53 297 L 54 295 L 58 292 L 61 289 L 60 290 L 58 293 L 55 298 L 54 301 L 54 304 L 56 304" stroke="#ffffff" stroke-width="2" stroke-linecap="round" stroke-linejoin="round" fill="none"/><path d="M 67 292 L 67 291 L 66 291 L 64 295 L 60 301 L 57 307 L 56 308" stroke="#ffffff" stroke-width="2" stroke-linecap="round" stroke-linejoin="round" fill="none"/><path d="M 46 312 L 46 311 L 47 310 L 49 310 L 55 308 L 66 304 L 77 300" stroke="#ffffff" stroke-width="2" stroke-linecap="round" stroke-linejoin="round" fill="none"/><path d="M 83 288 L 81 289 L 80 293 L 81 297 L 82 300 L 83 300" stroke="#ffffff" stroke-width="2" stroke-linecap="round" stroke-linejoin="round" fill="none"/><path d="M 91 289 L 91 288 L 91 287 L 92 288 L 92 291 L 92 296" stroke="#ffffff" stroke-width="2" stroke-linecap="round" stroke-linejoin="round" fill="none"/><path d="M 109 284 L 109 285 L 108 286 L 108 288 L 108 292 L 108 296 L 107 297 L 105 297 L 104 295 L 104 291 L 106 287 L 110 284 L 114 284 L 118 287 L 118 293 L 115 299 L 110 304 L 108 305" stroke="#ffffff" stroke-width="2" stroke-linecap="round" stroke-linejoin="round" fill="none"/><path d="M 152 271 L 151 272 L 150 276 L 149 289 L 149 301 L 151 305 L 151 306" stroke="#ffffff" stroke-width="2" stroke-linecap="round" stroke-linejoin="round" fill="none"/><path d="M 160 276 L 158 278 L 156 281 L 154 289 L 151 298 L 148 303 L 146 305 L 143 305 L 141 302 L 141 296 L 144 290 L 148 285 L 155 283 L 164 282 L 169 286 L 170 293 L 166 300 L 163 304" stroke="#ffffff" stroke-width="2" stroke-linecap="round" stroke-linejoin="round" fill="none"/><path d="M 180 295 L 179 295 L 178 294 L 179 294 L 181 294 L 184 295 L 184 297 L 183 300 L 179 303 L 178 304" stroke="#ffffff" stroke-width="2" stroke-linecap="round" stroke-linejoin="round" fill="none"/><path d="M 191 278 L 191 275 L 194 272 L 201 269 L 208 268 L 211 268" stroke="#ffffff" stroke-width="2" stroke-linecap="round" stroke-linejoin="round" fill="none"/><path d="M 203 265 L 202 265 L 202 269 L 201 278 L 200 286 L 199 289 L 199 287 L 202 284 L 205 282 L 209 282 L 210 287 L 207 294 L 203 300 L 200 302" stroke="#ffffff" stroke-width="2" stroke-linecap="round" stroke-linejoin="round" fill="none"/><path d="M 220 291 L 219 290 L 221 288 L 227 285 L 233 284 L 236 284 L 236 286 L 234 288 L 231 290 L 228 291" stroke="#ffffff" stroke-width="2" stroke-linecap="round" stroke-linejoin="round" fill="none"/><path d="M 226 281 L 225 283 L 224 286 L 223 292 L 224 296 L 224 297" stroke="#ffffff" stroke-width="2" stroke-linecap="round" stroke-linejoin="round" fill="none"/><path d="M 232 276 L 232 275 L 232 276 L 231 282 L 230 291 L 230 294" stroke="#ffffff" stroke-width="2" stroke-linecap="round" stroke-linejoin="round" fill="none"/><path d="M 269 260 L 268 260 L 267 260 L 264 267 L 260 276 L 256 285 L 252 290 L 251 291" stroke="#ffffff" stroke-width="2" stroke-linecap="round" stroke-linejoin="round" fill="none"/><path d="M 260 277 L 261 277 L 261 280 L 261 285 L 261 291 L 261 292" stroke="#ffffff" stroke-width="2" stroke-linecap="round" stroke-linejoin="round" fill="none"/><path d="M 272 268 L 272 267 L 271 268 L 270 272 L 269 280 L 267 288 L 266 292" stroke="#ffffff" stroke-width="2" stroke-linecap="round" stroke-linejoin="round" fill="none"/><path d="M 260 296 L 262 294 L 269 286 L 276 279 L 278 275 L 278 274 L 277 273 L 277 272 L 277 274 L 277 279 L 276 283 L 276 285" stroke="#ffffff" stroke-width="2" stroke-linecap="round" stroke-linejoin="round" fill="none"/><path d="M 290 258 L 289 258 L 289 257 L 288 258 L 288 263 L 288 269 L 288 273" stroke="#ffffff" stroke-width="2" stroke-linecap="round" stroke-linejoin="round" fill="none"/><path d="M 292 266 L 291 266 L 290 268 L 288 275 L 285 284 L 281 292 L 278 297 L 277 298" stroke="#ffffff" stroke-width="2" stroke-linecap="round" stroke-linejoin="round" fill="none"/><path d="M 286 280 L 289 282 L 294 284 L 300 285" stroke="#ffffff" stroke-width="2" stroke-linecap="round" stroke-linejoin="round" fill="none"/><path d="M 319 258 L 317 258 L 315 259 L 312 266 L 307 276 L 303 283 L 302 286 L 301 287" stroke="#ffffff" stroke-width="2" stroke-linecap="round" stroke-linejoin="round" fill="none"/><path d="M 314 260 L 314 257 L 316 255 L 320 254 L 326 255 L 333 256 L 339 255 L 340 255" stroke="#ffffff" stroke-width="2" stroke-linecap="round" stroke-linejoin="round" fill="none"/><path d="M 324 271 L 323 270 L 324 268 L 329 266 L 335 263 L 338 263" stroke="#ffffff" stroke-width="2" stroke-linecap="round" stroke-linejoin="round" fill="none"/><path d="M 326 273 L 326 274 L 323 276 L 321 279 L 321 284 L 321 288 L 322 291" stroke="#ffffff" stroke-width="2" stroke-linecap="round" stroke-linejoin="round" fill="none"/><path d="M 324 284 L 324 283 L 324 281 L 325 278 L 328 277 L 331 276 L 333 276 L 333 278 L 333 281 L 331 283 L 330 284" stroke="#ffffff" stroke-width="2" stroke-linecap="round" stroke-linejoin="round" fill="none"/><path d="M 323 292 L 320 292 L 322 290 L 328 287 L 333 283" stroke="#ffffff" stroke-width="2" stroke-linecap="round" stroke-linejoin="round" fill="none"/><path d="M 349 281 L 347 281 L 347 279 L 350 279 L 352 280 L 353 283 L 353 286 L 350 289 L 346 291" stroke="#ffffff" stroke-width="2" stroke-linecap="round" stroke-linejoin="round" fill="none"/><path d="M 359 269 L 359 266 L 360 263 L 364 261 L 369 260 L 374 259 L 376 259 L 377 259 L 377 260 L 375 263 L 372 269 L 369 277 L 367 283 L 368 287 L 374 287 L 378 286" stroke="#ffffff" stroke-width="2" stroke-linecap="round" stroke-linejoin="round" fill="none"/><path d="M 396 260 L 395 260 L 395 258 L 397 256 L 402 255 L 406 256 L 407 259 L 405 263 L 401 267 L 396 268 L 394 268 L 393 266 L 396 265 L 400 264 L 405 266 L 408 270 L 408 277 L 405 282 L 401 285 L 397 286 L 393 286 L 391 284 L 391 283 L 393 282 L 398 281 L 403 281 L 408 282" stroke="#ffffff" stroke-width="2" stroke-linecap="round" stroke-linejoin="round" fill="none"/><path d="M 477 239 L 476 239 L 474 241 L 472 247 L 472 254 L 473 256" stroke="#ffffff" stroke-width="2" stroke-linecap="round" stroke-linejoin="round" fill="none"/><path d="M 491 237 L 490 238 L 487 239 L 481 244 L 473 251 L 469 255" stroke="#ffffff" stroke-width="2" stroke-linecap="round" stroke-linejoin="round" fill="none"/><path d="M 456 260 L 457 259 L 463 256 L 478 251 L 492 246 L 498 246" stroke="#ffffff" stroke-width="2" stroke-linecap="round" stroke-linejoin="round" fill="none"/><path d="M 471 256 L 469 257 L 467 261 L 463 272 L 461 283 L 461 289 L 461 290" stroke="#ffffff" stroke-width="2" stroke-linecap="round" stroke-linejoin="round" fill="none"/><path d="M 465 271 L 467 265 L 470 260 L 473 259 L 474 261 L 475 267 L 473 276 L 471 284 L 469 289 L 467 291" stroke="#ffffff" stroke-width="2" stroke-linecap="round" stroke-linejoin="round" fill="none"/><path d="M 467 270 L 466 268 L 465 267 L 468 267 L 471 267 L 472 267" stroke="#ffffff" stroke-width="2" stroke-linecap="round" stroke-linejoin="round" fill="none"/><path d="M 470 270 L 470 271 L 467 274 L 466 275 L 469 274 L 474 271 L 478 266 L 481 261 L 484 256 L 485 254 L 484 255 L 482 259 L 481 264 L 480 268 L 480 270" stroke="#ffffff" stroke-width="2" stroke-linecap="round" stroke-linejoin="round" fill="none"/><path d="M 490 253 L 490 252 L 491 251 L 490 256 L 487 267 L 482 278 L 479 284 L 477 286 L 476 285" stroke="#ffffff" stroke-width="2" stroke-linecap="round" stroke-linejoin="round" fill="none"/><path d="M 504 250 L 505 247 L 507 243 L 512 240 L 515 239 L 516 239 L 516 240 L 516 242 L 514 245 L 511 251 L 507 257 L 507 259" stroke="#ffffff" stroke-width="2" stroke-linecap="round" stroke-linejoin="round" fill="none"/><path d="M 510 252 L 510 251 L 509 248 L 510 246 L 512 245 L 515 245 L 515 246" stroke="#ffffff" stroke-width="2" stroke-linecap="round" stroke-linejoin="round" fill="none"/><path d="M 506 256 L 504 257 L 504 256 L 507 253 L 512 251 L 514 250" stroke="#ffffff" stroke-width="2" stroke-linecap="round" stroke-linejoin="round" fill="none"/><path d="M 500 265 L 499 265 L 500 264 L 505 259 L 514 252 L 518 248" stroke="#ffffff" stroke-width="2" stroke-linecap="round" stroke-linejoin="round" fill="none"/><path d="M 528 232 L 527 236 L 523 244 L 519 250" stroke="#ffffff" stroke-width="2" stroke-linecap="round" stroke-linejoin="round" fill="none"/><path d="M 528 239 L 526 241 L 523 247 L 521 250" stroke="#ffffff" stroke-width="2" stroke-linecap="round" stroke-linejoin="round" fill="none"/><path d="M 508 267 L 508 266 L 508 263 L 512 260 L 517 257 L 521 256 L 522 256 L 522 257 L 521 259 L 518 264 L 513 270 L 508 276 L 504 281 L 502 282" stroke="#ffffff" stroke-width="2" stroke-linecap="round" stroke-linejoin="round" fill="none"/><path d="M 509 264 L 511 266 L 516 271 L 526 276 L 533 278" stroke="#ffffff" stroke-width="2" stroke-linecap="round" stroke-linejoin="round" fill="none"/><path d="M 546 263 L 546 262 L 546 259 L 549 255 L 555 252 L 562 250 L 563 250" stroke="#ffffff" stroke-width="2" stroke-linecap="round" stroke-linejoin="round" fill="none"/><path d="M 564 245 L 563 244 L 562 244 L 559 248 L 554 259 L 548 273 L 545 279 L 545 280" stroke="#ffffff" stroke-width="2" stroke-linecap="round" stroke-linejoin="round" fill="none"/><path d="M 573 254 L 577 250 L 581 247 L 583 247 L 584 247 L 584 248 L 584 249 L 582 250 L 580 253 L 577 259 L 574 266 L 571 273 L 567 278 L 565 279 L 563 278 L 562 276 L 563 274 L 566 272 L 571 269 L 577 267 L 580 266" stroke="#ffffff" stroke-width="2" stroke-linecap="round" stroke-linejoin="round" fill="none"/><path d="M 599 253 L 598 253 L 596 254 L 593 258 L 590 267 L 589 272 L 592 275 L 597 274 L 603 270 L 605 269" stroke="#ffffff" stroke-width="2" stroke-linecap="round" stroke-linejoin="round" fill="none"/><path d="M 617 253 L 616 253 L 615 252 L 616 251 L 619 249 L 624 249 L 627 249 L 629 249 L 630 249 L 628 250 L 624 254 L 620 259 L 618 264 L 618 268 L 622 269 L 629 266" stroke="#ffffff" stroke-width="2" stroke-linecap="round" stroke-linejoin="round" fill="none"/><path d="M 641 233 L 637 234 L 635 238 L 634 242" stroke="#ffffff" stroke-width="2" stroke-linecap="round" stroke-linejoin="round" fill="none"/><path d="M 643 235 L 643 234 L 641 235 L 640 239" stroke="#ffffff" stroke-width="2" stroke-linecap="round" stroke-linejoin="round" fill="none"/><path d="M 658 260 L 656 260 L 654 261 L 650 263 L 649 265 L 651 266 L 655 266 L 659 263 L 661 260 L 661 258 L 659 257 L 655 258 L 652 260" stroke="#ffffff" stroke-width="2" stroke-linecap="round" stroke-linejoin="round" fill="none"/></svg>
