<svg xmlns="http://www.w3.org/2000/svg" width="576" height="297" viewBox="0 0 576 297"><path d="M 367 166 L 367 166 L 367 166" stroke="#ffffff" stroke-width="2" stroke-linecap="round" stroke-linejoin="round" fill="none"/><path d="M 11 63 L 10 63 L 11 62 L 14 62 L 18 61 L 22 59 L 25 57 L 27 54 L 27 51 L 28 48 L 28 46 L 29 46 L 29 45 L 29 45 L 29 45" stroke="#ffffff" stroke-width="2" stroke-linecap="round" stroke-linejoin="round" fill="none"/><path d="M 42 24 L 41 23 L 40 22 L 40 25 L 40 34 L 41 44 L 41 53 L 43 58" stroke="#ffffff" stroke-width="2" stroke-linecap="round" stroke-linejoin="round" fill="none"/><path d="M 77 21 L 76 21 L 72 30 L 66 44 L 59 59 L 52 71 L 48 79 L 47 84" stroke="#ffffff" stroke-width="2" stroke-linecap="round" stroke-linejoin="round" fill="none"/><path d="M 95 49 L 93 52 L 92 61 L 91 73 L 91 77" stroke="#ffffff" stroke-width="2" stroke-linecap="round" stroke-linejoin="round" fill="none"/><path d="M 165 38 L 165 36 L 168 29 L 172 29 L 174 32 L 174 38 L 172 43 L 168 48 L 164 52 L 161 54 L 161 54 L 161 53 L 162 52 L 165 51 L 169 50 L 176 48 L 183 45 L 187 44" stroke="#ffffff" stroke-width="2" stroke-linecap="round" stroke-linejoin="round" fill="none"/><path d="M 195 27 L 194 27 L 190 27 L 189 33 L 189 40 L 191 44 L 194 45 L 196 44 L 198 41 L 200 36 L 200 30 L 200 26 L 196 24 L 192 25 L 188 31 L 188 34" stroke="#ffffff" stroke-width="2" stroke-linecap="round" stroke-linejoin="round" fill="none"/><path d="M 212 29 L 212 28 L 214 25 L 217 24 L 220 26 L 220 30 L 217 34 L 213 37 L 209 40 L 206 41 L 206 41 L 208 41 L 213 41 L 220 39 L 227 37 L 229 36" stroke="#ffffff" stroke-width="2" stroke-linecap="round" stroke-linejoin="round" fill="none"/><path d="M 254 8 L 248 7 L 244 13 L 239 24 L 237 33 L 239 37 L 243 37 L 247 35 L 250 31 L 251 28 L 250 25 L 246 24 L 239 29" stroke="#ffffff" stroke-width="2" stroke-linecap="round" stroke-linejoin="round" fill="none"/><path d="M 238 66 L 236 66 L 228 69 L 224 77 L 222 88 L 223 93 L 229 94 L 237 90 L 247 83 L 249 81" stroke="#ffffff" stroke-width="2" stroke-linecap="round" stroke-linejoin="round" fill="none"/><path d="M 279 53 L 276 51 L 273 52 L 270 59 L 268 68 L 267 76 L 270 79 L 274 79 L 279 76 L 282 72 L 283 68 L 281 66 L 276 66 L 270 71 L 265 76 L 265 78" stroke="#ffffff" stroke-width="2" stroke-linecap="round" stroke-linejoin="round" fill="none"/><path d="M 317 55 L 314 55 L 307 59 L 306 63 L 308 67 L 312 69 L 317 67 L 321 63 L 325 59 L 325 54 L 322 51 L 316 52 L 309 58" stroke="#ffffff" stroke-width="2" stroke-linecap="round" stroke-linejoin="round" fill="none"/><path d="M 79 116 L 79 115 L 77 115 L 76 116 L 68 127 L 63 136 L 61 139 L 61 140 L 64 140 L 70 139 L 78 134 L 86 130 L 89 128" stroke="#ffffff" stroke-width="2" stroke-linecap="round" stroke-linejoin="round" fill="none"/><path d="M 82 113 L 79 113 L 78 114 L 77 123 L 77 137 L 76 149 L 76 156" stroke="#ffffff" stroke-width="2" stroke-linecap="round" stroke-linejoin="round" fill="none"/><path d="M 90 145 L 89 145 L 86 147 L 86 148" stroke="#ffffff" stroke-width="2" stroke-linecap="round" stroke-linejoin="round" fill="none"/><path d="M 100 123 L 100 123 L 95 122 L 95 126 L 96 130 L 99 133 L 103 135 L 107 135 L 109 135 L 109 136 L 106 138 L 102 141 L 97 144 L 96 144" stroke="#ffffff" stroke-width="2" stroke-linecap="round" stroke-linejoin="round" fill="none"/><path d="M 97 126 L 97 125 L 98 121 L 98 120 L 103 117 L 109 116 L 113 116" stroke="#ffffff" stroke-width="2" stroke-linecap="round" stroke-linejoin="round" fill="none"/><path d="M 140 140 L 140 139 L 139 132 L 144 129 L 149 128 L 153 129 L 156 131 L 160 131" stroke="#ffffff" stroke-width="2" stroke-linecap="round" stroke-linejoin="round" fill="none"/><path d="M 187 117 L 186 118 L 183 124 L 179 137 L 177 145 L 176 152 L 175 153" stroke="#ffffff" stroke-width="2" stroke-linecap="round" stroke-linejoin="round" fill="none"/><path d="M 190 141 L 189 141 L 187 142 L 188 144 L 188 145" stroke="#ffffff" stroke-width="2" stroke-linecap="round" stroke-linejoin="round" fill="none"/><path d="M 206 119 L 201 120 L 199 124 L 199 128 L 202 131 L 207 132 L 212 132 L 215 132 L 214 134 L 211 137 L 207 140 L 202 143 L 198 144" stroke="#ffffff" stroke-width="2" stroke-linecap="round" stroke-linejoin="round" fill="none"/><path d="M 200 123 L 200 122 L 206 120 L 212 120" stroke="#ffffff" stroke-width="2" stroke-linecap="round" stroke-linejoin="round" fill="none"/><path d="M 290 98 L 286 99 L 284 103 L 285 108 L 285 110" stroke="#ffffff" stroke-width="2" stroke-linecap="round" stroke-linejoin="round" fill="none"/><path d="M 303 96 L 301 96 L 294 102 L 290 108" stroke="#ffffff" stroke-width="2" stroke-linecap="round" stroke-linejoin="round" fill="none"/><path d="M 281 116 L 282 111 L 288 107 L 298 103 L 307 101 L 311 100" stroke="#ffffff" stroke-width="2" stroke-linecap="round" stroke-linejoin="round" fill="none"/><path d="M 286 119 L 284 120 L 282 123 L 281 131 L 281 138 L 282 144 L 282 145" stroke="#ffffff" stroke-width="2" stroke-linecap="round" stroke-linejoin="round" fill="none"/><path d="M 285 125 L 285 124 L 285 119 L 285 117 L 286 116 L 288 119 L 289 127 L 289 135 L 289 142 L 289 144" stroke="#ffffff" stroke-width="2" stroke-linecap="round" stroke-linejoin="round" fill="none"/><path d="M 286 127 L 284 123 L 284 124" stroke="#ffffff" stroke-width="2" stroke-linecap="round" stroke-linejoin="round" fill="none"/><path d="M 287 132 L 286 132 L 286 132 L 286 130 L 287 129" stroke="#ffffff" stroke-width="2" stroke-linecap="round" stroke-linejoin="round" fill="none"/><path d="M 300 113 L 298 113 L 297 114 L 295 118 L 295 124 L 295 129" stroke="#ffffff" stroke-width="2" stroke-linecap="round" stroke-linejoin="round" fill="none"/><path d="M 304 113 L 305 112 L 306 110 L 307 117 L 307 126 L 304 138 L 299 148 L 294 155 L 291 157" stroke="#ffffff" stroke-width="2" stroke-linecap="round" stroke-linejoin="round" fill="none"/><path d="M 321 112 L 320 113 L 318 116 L 317 122 L 315 130 L 314 137 L 314 139" stroke="#ffffff" stroke-width="2" stroke-linecap="round" stroke-linejoin="round" fill="none"/><path d="M 314 123 L 315 118 L 317 114 L 323 109 L 328 108 L 331 107 L 334 110 L 336 115 L 337 121 L 336 126 L 334 130 L 333 131" stroke="#ffffff" stroke-width="2" stroke-linecap="round" stroke-linejoin="round" fill="none"/><path d="M 325 118 L 324 118 L 320 123 L 319 127" stroke="#ffffff" stroke-width="2" stroke-linecap="round" stroke-linejoin="round" fill="none"/><path d="M 323 121 L 323 118 L 324 117 L 324 118 L 325 120 L 325 122 L 325 124 L 325 124 L 324 124 L 324 124 L 323 124 L 324 124" stroke="#ffffff" stroke-width="2" stroke-linecap="round" stroke-linejoin="round" fill="none"/><path d="M 315 139 L 314 139 L 311 139 L 313 139 L 321 135 L 331 130" stroke="#ffffff" stroke-width="2" stroke-linecap="round" stroke-linejoin="round" fill="none"/><path d="M 355 109 L 352 106 L 351 107 L 351 112 L 353 118 L 355 122 L 358 123 L 361 123 L 362 121 L 362 119 L 362 117 L 361 116 L 360 116 L 358 116 L 355 119 L 352 123 L 351 127 L 353 130 L 358 130 L 366 127 L 368 126" stroke="#ffffff" stroke-width="2" stroke-linecap="round" stroke-linejoin="round" fill="none"/><path d="M 378 122 L 377 122 L 377 120 L 382 118 L 392 113" stroke="#ffffff" stroke-width="2" stroke-linecap="round" stroke-linejoin="round" fill="none"/><path d="M 417 103 L 417 102 L 415 100 L 413 102 L 410 106 L 408 109 L 408 111 L 409 111 L 412 110 L 416 109 L 418 110 L 418 111 L 417 113 L 416 113 L 415 114 L 415 113 L 416 112 L 418 111 L 420 109 L 421 109 L 421 109 L 419 111 L 417 113 L 415 116 L 412 121 L 411 128 L 412 133 L 414 135" stroke="#ffffff" stroke-width="2" stroke-linecap="round" stroke-linejoin="round" fill="none"/><path d="M 412 124 L 412 123 L 410 121 L 408 121 L 405 125 L 401 129 L 400 130" stroke="#ffffff" stroke-width="2" stroke-linecap="round" stroke-linejoin="round" fill="none"/><path d="M 408 120 L 411 119 L 414 118" stroke="#ffffff" stroke-width="2" stroke-linecap="round" stroke-linejoin="round" fill="none"/><path d="M 424 105 L 423 102 L 427 100 L 431 98 L 436 96 L 437 95 L 437 94 L 434 94 L 432 96 L 430 101 L 428 106 L 427 111" stroke="#ffffff" stroke-width="2" stroke-linecap="round" stroke-linejoin="round" fill="none"/><path d="M 418 119 L 418 118 L 433 108 L 439 106 L 440 105 L 439 105 L 437 105 L 433 108 L 428 113 L 422 119 L 417 126 L 415 129 L 414 130" stroke="#ffffff" stroke-width="2" stroke-linecap="round" stroke-linejoin="round" fill="none"/><path d="M 426 119 L 426 120 L 426 120 L 426 125 L 426 130 L 426 130" stroke="#ffffff" stroke-width="2" stroke-linecap="round" stroke-linejoin="round" fill="none"/><path d="M 427 124 L 426 123 L 426 120 L 426 119 L 431 116 L 435 116 L 438 117 L 439 120 L 437 124 L 435 128 L 432 131" stroke="#ffffff" stroke-width="2" stroke-linecap="round" stroke-linejoin="round" fill="none"/><path d="M 430 126 L 430 124 L 431 122 L 433 121 L 434 121" stroke="#ffffff" stroke-width="2" stroke-linecap="round" stroke-linejoin="round" fill="none"/><path d="M 427 134 L 426 134 L 424 134 L 425 133 L 430 130 L 436 127" stroke="#ffffff" stroke-width="2" stroke-linecap="round" stroke-linejoin="round" fill="none"/><path d="M 76 172 L 75 172 L 71 173 L 69 174 L 64 180 L 60 186 L 59 189" stroke="#ffffff" stroke-width="2" stroke-linecap="round" stroke-linejoin="round" fill="none"/><path d="M 58 205 L 57 204 L 61 195 L 66 191 L 72 187 L 74 187" stroke="#ffffff" stroke-width="2" stroke-linecap="round" stroke-linejoin="round" fill="none"/><path d="M 68 183 L 67 183 L 66 181 L 66 184 L 67 193 L 67 207 L 67 218 L 67 224" stroke="#ffffff" stroke-width="2" stroke-linecap="round" stroke-linejoin="round" fill="none"/><path d="M 69 201 L 67 202 L 61 214 L 58 220 L 57 224" stroke="#ffffff" stroke-width="2" stroke-linecap="round" stroke-linejoin="round" fill="none"/><path d="M 62 199 L 63 197 L 65 196 L 68 198 L 72 200" stroke="#ffffff" stroke-width="2" stroke-linecap="round" stroke-linejoin="round" fill="none"/><path d="M 81 191 L 80 191 L 76 199 L 75 207 L 75 213 L 75 215 L 76 214 L 77 211 L 79 208 L 82 206 L 85 204 L 89 204 L 93 204" stroke="#ffffff" stroke-width="2" stroke-linecap="round" stroke-linejoin="round" fill="none"/><path d="M 103 196 L 102 195 L 102 198 L 102 203 L 102 207 L 102 210 L 101 211 L 100 207 L 101 201 L 104 195 L 108 191 L 112 191 L 114 196 L 114 202 L 111 209 L 109 212" stroke="#ffffff" stroke-width="2" stroke-linecap="round" stroke-linejoin="round" fill="none"/><path d="M 137 198 L 137 196 L 142 187 L 149 183 L 153 181 L 154 180" stroke="#ffffff" stroke-width="2" stroke-linecap="round" stroke-linejoin="round" fill="none"/><path d="M 150 181 L 150 181 L 147 181 L 146 181 L 146 183 L 147 191 L 147 203 L 147 212 L 147 216" stroke="#ffffff" stroke-width="2" stroke-linecap="round" stroke-linejoin="round" fill="none"/><path d="M 142 201 L 141 201 L 137 203 L 135 209 L 134 216 L 134 220" stroke="#ffffff" stroke-width="2" stroke-linecap="round" stroke-linejoin="round" fill="none"/><path d="M 155 195 L 155 196 L 157 198" stroke="#ffffff" stroke-width="2" stroke-linecap="round" stroke-linejoin="round" fill="none"/><path d="M 172 183 L 170 183 L 167 189 L 169 194" stroke="#ffffff" stroke-width="2" stroke-linecap="round" stroke-linejoin="round" fill="none"/><path d="M 182 181 L 181 185 L 179 194 L 175 204 L 172 211 L 170 214" stroke="#ffffff" stroke-width="2" stroke-linecap="round" stroke-linejoin="round" fill="none"/><path d="M 200 189 L 199 188 L 201 184 L 206 181 L 212 179 L 213 179" stroke="#ffffff" stroke-width="2" stroke-linecap="round" stroke-linejoin="round" fill="none"/><path d="M 198 200 L 198 198 L 198 197 L 203 193 L 209 190 L 214 188 L 215 187 L 212 190 L 209 195 L 206 202 L 205 209 L 205 214" stroke="#ffffff" stroke-width="2" stroke-linecap="round" stroke-linejoin="round" fill="none"/><path d="M 220 170 L 218 170 L 216 172 L 216 176" stroke="#ffffff" stroke-width="2" stroke-linecap="round" stroke-linejoin="round" fill="none"/><path d="M 228 165 L 227 164 L 226 165 L 225 172 L 224 174" stroke="#ffffff" stroke-width="2" stroke-linecap="round" stroke-linejoin="round" fill="none"/><path d="M 235 195 L 234 194 L 239 191 L 247 187 L 254 185" stroke="#ffffff" stroke-width="2" stroke-linecap="round" stroke-linejoin="round" fill="none"/><path d="M 144 174 L 145 173 L 145 171 L 145 171 L 146 173 L 146 180" stroke="#ffffff" stroke-width="2" stroke-linecap="round" stroke-linejoin="round" fill="none"/><path d="M 288 174 L 287 173 L 285 173 L 285 179 L 286 185" stroke="#ffffff" stroke-width="2" stroke-linecap="round" stroke-linejoin="round" fill="none"/><path d="M 299 168 L 298 166 L 296 170 L 296 173" stroke="#ffffff" stroke-width="2" stroke-linecap="round" stroke-linejoin="round" fill="none"/><path d="M 303 165 L 302 165 L 300 166 L 299 167 L 294 176 L 293 180" stroke="#ffffff" stroke-width="2" stroke-linecap="round" stroke-linejoin="round" fill="none"/><path d="M 279 191 L 279 191 L 275 195 L 274 199 L 274 204 L 274 205" stroke="#ffffff" stroke-width="2" stroke-linecap="round" stroke-linejoin="round" fill="none"/><path d="M 282 193 L 283 190 L 293 173 L 300 169 L 305 168 L 309 168 L 310 170 L 310 173 L 307 177 L 306 178" stroke="#ffffff" stroke-width="2" stroke-linecap="round" stroke-linejoin="round" fill="none"/><path d="M 293 188 L 292 188 L 289 191 L 289 195 L 289 199" stroke="#ffffff" stroke-width="2" stroke-linecap="round" stroke-linejoin="round" fill="none"/><path d="M 289 199 L 289 196 L 289 193 L 291 189 L 295 186 L 297 185 L 299 186 L 299 189 L 298 194 L 298 198 L 298 198" stroke="#ffffff" stroke-width="2" stroke-linecap="round" stroke-linejoin="round" fill="none"/><path d="M 290 200 L 290 196 L 293 194 L 297 193 L 299 193 L 299 193 L 298 194 L 296 196 L 295 197 L 293 201 L 290 207 L 288 213 L 286 216 L 286 217 L 286 217 L 287 213 L 289 208 L 291 204 L 294 201 L 296 202 L 297 206 L 298 210 L 301 212 L 305 211 L 311 206" stroke="#ffffff" stroke-width="2" stroke-linecap="round" stroke-linejoin="round" fill="none"/><path d="M 320 182 L 318 181 L 321 179 L 327 176 L 332 175" stroke="#ffffff" stroke-width="2" stroke-linecap="round" stroke-linejoin="round" fill="none"/><path d="M 321 195 L 320 195 L 321 192 L 325 189 L 328 187 L 330 187 L 329 191 L 326 198 L 322 204 L 320 208 L 320 209 L 320 207 L 321 204 L 323 202 L 325 201 L 327 201 L 330 203 L 334 204 L 336 204" stroke="#ffffff" stroke-width="2" stroke-linecap="round" stroke-linejoin="round" fill="none"/><path d="M 348 185 L 348 183 L 351 182 L 354 181 L 357 180 L 358 180 L 357 182 L 353 186 L 350 192 L 349 196 L 351 201 L 357 202 L 359 202" stroke="#ffffff" stroke-width="2" stroke-linecap="round" stroke-linejoin="round" fill="none"/><path d="M 372 185 L 371 184 L 372 181 L 375 180 L 378 180 L 380 180 L 381 180 L 381 181 L 379 183 L 377 186 L 374 191 L 372 196 L 372 200 L 374 203 L 377 204" stroke="#ffffff" stroke-width="2" stroke-linecap="round" stroke-linejoin="round" fill="none"/><path d="M 404 179 L 407 173 L 415 167 L 423 163 L 426 163 L 426 164" stroke="#ffffff" stroke-width="2" stroke-linecap="round" stroke-linejoin="round" fill="none"/><path d="M 419 172 L 419 172 L 417 174 L 415 177 L 415 181 L 416 184" stroke="#ffffff" stroke-width="2" stroke-linecap="round" stroke-linejoin="round" fill="none"/><path d="M 427 174 L 427 173 L 426 173 L 422 175 L 418 181 L 413 188 L 411 189" stroke="#ffffff" stroke-width="2" stroke-linecap="round" stroke-linejoin="round" fill="none"/><path d="M 400 199 L 398 200 L 397 200 L 398 200 L 403 196 L 411 191 L 420 185 L 426 180 L 429 177" stroke="#ffffff" stroke-width="2" stroke-linecap="round" stroke-linejoin="round" fill="none"/><path d="M 415 157 L 414 155 L 414 154 L 416 163 L 418 177 L 419 193 L 419 204 L 418 211 L 417 213" stroke="#ffffff" stroke-width="2" stroke-linecap="round" stroke-linejoin="round" fill="none"/><path d="M 422 191 L 419 191 L 410 202 L 406 209 L 404 213 L 404 214" stroke="#ffffff" stroke-width="2" stroke-linecap="round" stroke-linejoin="round" fill="none"/><path d="M 415 191 L 419 192 L 425 195 L 429 197" stroke="#ffffff" stroke-width="2" stroke-linecap="round" stroke-linejoin="round" fill="none"/><path d="M 442 185 L 443 184 L 443 181 L 444 180 L 449 178 L 451 178 L 452 178 L 452 179 L 449 181 L 446 186 L 444 193 L 444 199 L 449 203 L 453 203" stroke="#ffffff" stroke-width="2" stroke-linecap="round" stroke-linejoin="round" fill="none"/><path d="M 485 178 L 482 177 L 481 177 L 477 177 L 473 180 L 471 184 L 471 188 L 473 190 L 479 191 L 487 189 L 489 188" stroke="#ffffff" stroke-width="2" stroke-linecap="round" stroke-linejoin="round" fill="none"/><path d="M 506 169 L 504 169 L 502 170 L 502 174 L 502 185 L 502 193 L 501 199 L 501 201" stroke="#ffffff" stroke-width="2" stroke-linecap="round" stroke-linejoin="round" fill="none"/><path d="M 498 179 L 497 176 L 496 174 L 497 173 L 501 172 L 505 172" stroke="#ffffff" stroke-width="2" stroke-linecap="round" stroke-linejoin="round" fill="none"/><path d="M 495 194 L 495 192 L 495 190 L 499 186 L 504 181 L 509 176 L 511 174 L 509 179 L 507 186 L 507 192 L 508 196 L 512 197" stroke="#ffffff" stroke-width="2" stroke-linecap="round" stroke-linejoin="round" fill="none"/><path d="M 529 179 L 527 177 L 528 176 L 533 173 L 540 170 L 546 169 L 549 168" stroke="#ffffff" stroke-width="2" stroke-linecap="round" stroke-linejoin="round" fill="none"/><path d="M 542 163 L 539 163 L 535 168 L 533 178 L 533 188 L 533 194 L 533 197" stroke="#ffffff" stroke-width="2" stroke-linecap="round" stroke-linejoin="round" fill="none"/><path d="M 545 188 L 543 185 L 543 182 L 545 180 L 550 179 L 553 180" stroke="#ffffff" stroke-width="2" stroke-linecap="round" stroke-linejoin="round" fill="none"/><path d="M 546 193 L 544 193 L 543 193 L 544 193 L 557 189 L 566 186" stroke="#ffffff" stroke-width="2" stroke-linecap="round" stroke-linejoin="round" fill="none"/><path d="M 64 249 L 64 247 L 63 244 L 61 250 L 57 261 L 53 273 L 51 281 L 50 285" stroke="#ffffff" stroke-width="2" stroke-linecap="round" stroke-linejoin="round" fill="none"/><path d="M 61 254 L 61 253 L 65 243 L 69 240 L 74 240 L 77 242 L 80 244" stroke="#ffffff" stroke-width="2" stroke-linecap="round" stroke-linejoin="round" fill="none"/><path d="M 72 260 L 70 260 L 69 259 L 69 258 L 72 256 L 76 255" stroke="#ffffff" stroke-width="2" stroke-linecap="round" stroke-linejoin="round" fill="none"/><path d="M 70 274 L 70 274 L 69 272 L 69 270 L 74 265 L 79 264 L 82 265 L 82 270 L 78 277 L 74 283 L 72 287" stroke="#ffffff" stroke-width="2" stroke-linecap="round" stroke-linejoin="round" fill="none"/><path d="M 94 251 L 93 253 L 93 258 L 93 264 L 94 269 L 94 270" stroke="#ffffff" stroke-width="2" stroke-linecap="round" stroke-linejoin="round" fill="none"/><path d="M 93 261 L 93 258 L 93 254 L 94 250 L 97 247 L 100 244 L 104 244 L 107 245 L 108 249 L 109 256 L 108 262 L 108 268 L 108 269" stroke="#ffffff" stroke-width="2" stroke-linecap="round" stroke-linejoin="round" fill="none"/><path d="M 99 262 L 97 261 L 98 257 L 101 255 L 102 255" stroke="#ffffff" stroke-width="2" stroke-linecap="round" stroke-linejoin="round" fill="none"/><path d="M 97 274 L 94 276 L 92 276 L 93 276 L 96 274 L 103 269" stroke="#ffffff" stroke-width="2" stroke-linecap="round" stroke-linejoin="round" fill="none"/><path d="M 125 256 L 124 256 L 124 253 L 130 250 L 136 246 L 139 245" stroke="#ffffff" stroke-width="2" stroke-linecap="round" stroke-linejoin="round" fill="none"/><path d="M 123 267 L 121 267 L 121 266 L 121 265 L 129 260 L 133 257" stroke="#ffffff" stroke-width="2" stroke-linecap="round" stroke-linejoin="round" fill="none"/><path d="M 134 238 L 133 239 L 131 239 L 130 241 L 129 255 L 130 263 L 133 266 L 137 266 L 142 263 L 147 257 L 148 255" stroke="#ffffff" stroke-width="2" stroke-linecap="round" stroke-linejoin="round" fill="none"/><path d="M 166 243 L 162 244 L 160 250 L 160 260 L 161 266 L 165 268 L 172 266 L 178 261 L 179 260" stroke="#ffffff" stroke-width="2" stroke-linecap="round" stroke-linejoin="round" fill="none"/><path d="M 159 252 L 158 249 L 159 246 L 164 241 L 172 237 L 178 234 L 181 234 L 182 234 L 183 234 L 183 237 L 183 242 L 181 249 L 180 254" stroke="#ffffff" stroke-width="2" stroke-linecap="round" stroke-linejoin="round" fill="none"/><path d="M 171 249 L 171 249 L 169 250 L 170 253 L 172 257 L 174 261 L 174 266 L 173 271 L 171 274 L 170 275" stroke="#ffffff" stroke-width="2" stroke-linecap="round" stroke-linejoin="round" fill="none"/><path d="M 148 264 L 148 264 L 146 263 L 150 260 L 160 255 L 174 248 L 185 243 L 190 241 L 191 241" stroke="#ffffff" stroke-width="2" stroke-linecap="round" stroke-linejoin="round" fill="none"/><path d="M 203 238 L 202 238 L 200 237 L 201 241 L 203 246 L 207 250" stroke="#ffffff" stroke-width="2" stroke-linecap="round" stroke-linejoin="round" fill="none"/><path d="M 217 244 L 216 244 L 212 242 L 209 243 L 206 247 L 204 252 L 203 258 L 204 261 L 209 261 L 216 259 L 225 254 L 228 251" stroke="#ffffff" stroke-width="2" stroke-linecap="round" stroke-linejoin="round" fill="none"/><path d="M 164 244 L 164 243 L 165 243 L 169 245 L 171 245" stroke="#ffffff" stroke-width="2" stroke-linecap="round" stroke-linejoin="round" fill="none"/></svg>
