<svg xmlns="http://www.w3.org/2000/svg" width="711" height="676" viewBox="0 0 711 676"><path d="M 12 39 L 12 35 L 13 31 L 14 30 L 19 29 L 22 32 L 24 36 L 24 41 L 23 46 L 19 50 L 15 54 L 12 55 L 10 55 L 10 55 L 12 54 L 16 54 L 22 53 L 29 50 L 37 47 L 42 45" stroke="#ffffff" stroke-width="2" stroke-linecap="round" stroke-linejoin="round" fill="none"/><path d="M 53 29 L 50 24 L 49 21 L 48 19 L 46 18 L 44 18 L 42 19 L 41 22 L 40 26 L 41 31 L 43 37 L 46 43 L 47 47 L 47 50 L 45 51 L 41 51 L 38 49 L 36 47 L 36 44 L 39 40 L 43 36 L 49 32 L 54 30" stroke="#ffffff" stroke-width="2" stroke-linecap="round" stroke-linejoin="round" fill="none"/><path d="M 79 16 L 79 16 L 76 14 L 74 17 L 69 31 L 61 51 L 53 67 L 49 78 L 48 84" stroke="#ffffff" stroke-width="2" stroke-linecap="round" stroke-linejoin="round" fill="none"/><path d="M 84 42 L 84 40 L 83 39 L 83 44 L 82 55 L 81 66 L 81 73" stroke="#ffffff" stroke-width="2" stroke-linecap="round" stroke-linejoin="round" fill="none"/><path d="M 154 23 L 153 20 L 154 20 L 156 20 L 159 23 L 160 28 L 159 32 L 156 36 L 151 39 L 147 39 L 145 39 L 145 37 L 147 37 L 151 37 L 157 36 L 164 34 L 172 32 L 174 31" stroke="#ffffff" stroke-width="2" stroke-linecap="round" stroke-linejoin="round" fill="none"/><path d="M 180 19 L 180 19 L 174 18 L 173 21 L 173 27 L 175 32 L 178 34 L 182 34 L 185 31 L 185 27 L 185 23 L 181 19 L 177 18 L 174 19 L 174 24" stroke="#ffffff" stroke-width="2" stroke-linecap="round" stroke-linejoin="round" fill="none"/><path d="M 200 19 L 199 19 L 197 17 L 200 17 L 203 18 L 204 21 L 204 24 L 201 28 L 197 30 L 193 31 L 192 30 L 192 30 L 195 29 L 198 29 L 203 29 L 209 27 L 215 26 L 220 26" stroke="#ffffff" stroke-width="2" stroke-linecap="round" stroke-linejoin="round" fill="none"/><path d="M 228 9 L 225 9 L 222 9 L 221 11 L 219 20 L 219 27 L 222 31 L 226 31 L 229 30 L 231 27 L 231 23 L 231 21 L 228 20 L 223 21 L 217 26 L 214 29" stroke="#ffffff" stroke-width="2" stroke-linecap="round" stroke-linejoin="round" fill="none"/><path d="M 144 32 L 144 30 L 145 29 L 146 27 L 148 26 L 150 24" stroke="#ffffff" stroke-width="2" stroke-linecap="round" stroke-linejoin="round" fill="none"/><path d="M 231 52 L 231 52 L 228 48 L 226 47 L 224 47 L 221 50 L 218 56 L 216 62 L 216 66 L 220 67 L 227 65 L 235 60 L 237 59" stroke="#ffffff" stroke-width="2" stroke-linecap="round" stroke-linejoin="round" fill="none"/><path d="M 260 50 L 258 48 L 258 46 L 258 41 L 258 38 L 258 37 L 256 37 L 252 40 L 249 45 L 247 50 L 246 53 L 249 53 L 254 50 L 257 46 L 259 43 L 260 42 L 259 41 L 257 44 L 255 49 L 253 57 L 250 66 L 249 73 L 249 77 L 251 78 L 252 78" stroke="#ffffff" stroke-width="2" stroke-linecap="round" stroke-linejoin="round" fill="none"/><path d="M 281 47 L 280 47 L 273 47 L 272 50 L 271 55 L 271 61 L 274 63 L 277 64 L 280 61 L 283 58 L 283 54 L 283 50 L 280 47 L 275 47 L 270 50 L 267 55 L 267 55" stroke="#ffffff" stroke-width="2" stroke-linecap="round" stroke-linejoin="round" fill="none"/><path d="M 146 28 L 146 28 L 146 27 L 147 26 L 149 25 L 151 23 L 153 23" stroke="#ffffff" stroke-width="2" stroke-linecap="round" stroke-linejoin="round" fill="none"/><path d="M 36 112 L 34 110 L 35 114 L 35 123 L 35 133 L 35 140 L 36 142" stroke="#ffffff" stroke-width="2" stroke-linecap="round" stroke-linejoin="round" fill="none"/><path d="M 44 111 L 44 111 L 43 108 L 46 107 L 52 106 L 59 106" stroke="#ffffff" stroke-width="2" stroke-linecap="round" stroke-linejoin="round" fill="none"/><path d="M 80 106 L 78 105 L 76 105 L 76 109 L 76 113 L 75 118 L 74 120" stroke="#ffffff" stroke-width="2" stroke-linecap="round" stroke-linejoin="round" fill="none"/><path d="M 82 104 L 84 99 L 87 97 L 92 96 L 95 96 L 96 96" stroke="#ffffff" stroke-width="2" stroke-linecap="round" stroke-linejoin="round" fill="none"/><path d="M 83 121 L 82 121 L 79 120 L 83 117 L 90 114 L 95 112 L 98 112 L 99 113 L 98 116 L 97 119 L 95 122 L 93 123 L 92 123 L 90 121 L 89 118 L 88 115 L 88 113 L 88 116 L 88 122 L 86 129 L 84 133" stroke="#ffffff" stroke-width="2" stroke-linecap="round" stroke-linejoin="round" fill="none"/><path d="M 122 105 L 121 105 L 117 103 L 116 103 L 115 105 L 113 109 L 111 113 L 110 117 L 110 119 L 113 121 L 118 121" stroke="#ffffff" stroke-width="2" stroke-linecap="round" stroke-linejoin="round" fill="none"/><path d="M 119 85 L 118 85 L 115 88 L 117 91 L 117 92" stroke="#ffffff" stroke-width="2" stroke-linecap="round" stroke-linejoin="round" fill="none"/><path d="M 124 85 L 124 85 L 124 84 L 124 83 L 125 84 L 126 86" stroke="#ffffff" stroke-width="2" stroke-linecap="round" stroke-linejoin="round" fill="none"/><path d="M 141 94 L 139 94 L 136 95 L 136 98" stroke="#ffffff" stroke-width="2" stroke-linecap="round" stroke-linejoin="round" fill="none"/><path d="M 137 99 L 136 100 L 135 101 L 134 103 L 133 107 L 133 111 L 134 112 L 135 112 L 137 110 L 140 108 L 143 108 L 145 109 L 144 114 L 140 120 L 136 126 L 132 128 L 131 128" stroke="#ffffff" stroke-width="2" stroke-linecap="round" stroke-linejoin="round" fill="none"/><path d="M 163 104 L 161 103 L 160 103 L 160 104 L 161 107 L 162 111 L 164 113" stroke="#ffffff" stroke-width="2" stroke-linecap="round" stroke-linejoin="round" fill="none"/><path d="M 175 100 L 174 100 L 174 101 L 172 110 L 172 113" stroke="#ffffff" stroke-width="2" stroke-linecap="round" stroke-linejoin="round" fill="none"/><path d="M 196 115 L 195 115 L 195 109 L 199 104 L 204 100 L 208 98 L 210 97 L 210 97 L 209 96 L 208 96" stroke="#ffffff" stroke-width="2" stroke-linecap="round" stroke-linejoin="round" fill="none"/><path d="M 204 96 L 202 95 L 201 94 L 200 94 L 200 93 L 201 93 L 203 98 L 204 107 L 204 119 L 203 128 L 202 131 L 201 131 L 200 129 L 199 125 L 199 119 L 201 114 L 205 109 L 210 107 L 213 110 L 214 116 L 212 122 L 210 127 L 208 128" stroke="#ffffff" stroke-width="2" stroke-linecap="round" stroke-linejoin="round" fill="none"/><path d="M 220 96 L 220 94 L 220 95 L 220 102 L 220 105" stroke="#ffffff" stroke-width="2" stroke-linecap="round" stroke-linejoin="round" fill="none"/><path d="M 241 98 L 239 96 L 235 96 L 233 99 L 231 103 L 229 108 L 228 113 L 227 115 L 230 116 L 236 115 L 240 113" stroke="#ffffff" stroke-width="2" stroke-linecap="round" stroke-linejoin="round" fill="none"/><path d="M 260 89 L 259 88 L 257 88 L 258 95 L 259 105 L 260 115 L 261 121 L 261 123" stroke="#ffffff" stroke-width="2" stroke-linecap="round" stroke-linejoin="round" fill="none"/><path d="M 252 104 L 251 102 L 250 101 L 251 99 L 254 97 L 256 97" stroke="#ffffff" stroke-width="2" stroke-linecap="round" stroke-linejoin="round" fill="none"/><path d="M 254 120 L 253 117 L 255 112 L 260 104 L 266 96 L 269 93 L 269 93 L 269 94 L 268 98 L 268 104 L 268 109 L 271 113 L 272 113" stroke="#ffffff" stroke-width="2" stroke-linecap="round" stroke-linejoin="round" fill="none"/><path d="M 285 95 L 284 95 L 282 92 L 284 90 L 288 90 L 290 90 L 292 90 L 292 91 L 290 96 L 288 102 L 287 107 L 287 110 L 291 111 L 296 109" stroke="#ffffff" stroke-width="2" stroke-linecap="round" stroke-linejoin="round" fill="none"/><path d="M 310 94 L 308 93 L 307 92 L 309 89 L 312 88 L 316 87 L 318 87" stroke="#ffffff" stroke-width="2" stroke-linecap="round" stroke-linejoin="round" fill="none"/><path d="M 308 101 L 308 101 L 309 98 L 313 95 L 317 92 L 318 91" stroke="#ffffff" stroke-width="2" stroke-linecap="round" stroke-linejoin="round" fill="none"/><path d="M 310 84 L 308 84 L 307 83 L 309 85 L 312 91 L 314 97" stroke="#ffffff" stroke-width="2" stroke-linecap="round" stroke-linejoin="round" fill="none"/><path d="M 306 110 L 306 110 L 304 111 L 304 111 L 306 116 L 310 120 L 312 122" stroke="#ffffff" stroke-width="2" stroke-linecap="round" stroke-linejoin="round" fill="none"/><path d="M 331 100 L 328 98 L 331 95 L 337 91 L 343 88 L 344 87" stroke="#ffffff" stroke-width="2" stroke-linecap="round" stroke-linejoin="round" fill="none"/><path d="M 337 84 L 337 83 L 335 85 L 335 94 L 334 104 L 333 112 L 334 115" stroke="#ffffff" stroke-width="2" stroke-linecap="round" stroke-linejoin="round" fill="none"/><path d="M 344 104 L 344 104 L 343 100 L 346 98 L 351 96 L 352 96" stroke="#ffffff" stroke-width="2" stroke-linecap="round" stroke-linejoin="round" fill="none"/><path d="M 348 108 L 348 108 L 346 107 L 350 104 L 356 100" stroke="#ffffff" stroke-width="2" stroke-linecap="round" stroke-linejoin="round" fill="none"/><path d="M 312 97 L 313 97 L 313 96 L 313 97 L 315 99 L 317 103" stroke="#ffffff" stroke-width="2" stroke-linecap="round" stroke-linejoin="round" fill="none"/><path d="M 385 92 L 384 91 L 381 90 L 381 93 L 381 97 L 383 102 L 384 105 L 384 106" stroke="#ffffff" stroke-width="2" stroke-linecap="round" stroke-linejoin="round" fill="none"/><path d="M 381 97 L 381 95 L 380 89 L 383 87 L 387 86 L 390 86 L 391 86 L 392 87 L 392 89 L 392 92 L 391 95 L 390 98 L 390 99" stroke="#ffffff" stroke-width="2" stroke-linecap="round" stroke-linejoin="round" fill="none"/><path d="M 384 110 L 381 109 L 383 107 L 387 103 L 392 100 L 396 98" stroke="#ffffff" stroke-width="2" stroke-linecap="round" stroke-linejoin="round" fill="none"/><path d="M 409 101 L 408 100 L 408 98 L 413 95 L 418 93" stroke="#ffffff" stroke-width="2" stroke-linecap="round" stroke-linejoin="round" fill="none"/><path d="M 430 90 L 429 90 L 428 87 L 432 85 L 437 83 L 439 82 L 440 83 L 438 87 L 436 92 L 433 97 L 430 101 L 428 103 L 428 104" stroke="#ffffff" stroke-width="2" stroke-linecap="round" stroke-linejoin="round" fill="none"/><path d="M 431 96 L 432 96 L 437 97 L 444 99 L 449 99 L 450 99" stroke="#ffffff" stroke-width="2" stroke-linecap="round" stroke-linejoin="round" fill="none"/><path d="M 449 64 L 447 63 L 443 64 L 444 68 L 444 69" stroke="#ffffff" stroke-width="2" stroke-linecap="round" stroke-linejoin="round" fill="none"/><path d="M 454 63 L 454 62 L 453 60 L 453 60 L 453 65 L 454 70" stroke="#ffffff" stroke-width="2" stroke-linecap="round" stroke-linejoin="round" fill="none"/><path d="M 466 86 L 466 86 L 465 86 L 464 91 L 463 98 L 463 102 L 464 104 L 466 104" stroke="#ffffff" stroke-width="2" stroke-linecap="round" stroke-linejoin="round" fill="none"/><path d="M 474 90 L 474 89 L 475 86 L 477 85 L 479 85" stroke="#ffffff" stroke-width="2" stroke-linecap="round" stroke-linejoin="round" fill="none"/><path d="M 476 97 L 475 97 L 473 98 L 473 99 L 475 97 L 481 93 L 485 89" stroke="#ffffff" stroke-width="2" stroke-linecap="round" stroke-linejoin="round" fill="none"/><path d="M 520 69 L 520 68 L 520 66 L 517 71 L 512 83 L 506 94 L 502 101 L 501 104 L 501 104" stroke="#ffffff" stroke-width="2" stroke-linecap="round" stroke-linejoin="round" fill="none"/><path d="M 508 87 L 508 84 L 509 83 L 510 84 L 511 90 L 511 98 L 511 105 L 511 108" stroke="#ffffff" stroke-width="2" stroke-linecap="round" stroke-linejoin="round" fill="none"/><path d="M 531 64 L 532 62 L 532 59 L 532 61 L 531 68 L 528 76" stroke="#ffffff" stroke-width="2" stroke-linecap="round" stroke-linejoin="round" fill="none"/><path d="M 523 82 L 523 82 L 522 81 L 522 81 L 525 78 L 531 76 L 536 73 L 538 71 L 538 70 L 536 70 L 534 71 L 533 74 L 531 79 L 530 84 L 529 91 L 529 95 L 529 97" stroke="#ffffff" stroke-width="2" stroke-linecap="round" stroke-linejoin="round" fill="none"/><path d="M 525 92 L 525 91 L 525 89 L 527 87 L 530 85 L 534 84 L 536 83" stroke="#ffffff" stroke-width="2" stroke-linecap="round" stroke-linejoin="round" fill="none"/><path d="M 523 99 L 522 100 L 518 102 L 520 103 L 524 102 L 531 99 L 539 94" stroke="#ffffff" stroke-width="2" stroke-linecap="round" stroke-linejoin="round" fill="none"/><path d="M 553 71 L 553 71 L 550 73 L 549 80 L 547 88 L 546 93 L 546 95 L 546 94 L 547 91 L 549 88 L 551 86 L 553 85 L 554 87 L 556 90 L 559 91 L 564 90 L 567 88" stroke="#ffffff" stroke-width="2" stroke-linecap="round" stroke-linejoin="round" fill="none"/><path d="M 577 75 L 576 75 L 574 73 L 577 72 L 581 71 L 584 70 L 586 70 L 583 72 L 580 76 L 577 81 L 576 85 L 578 88 L 583 89 L 587 88" stroke="#ffffff" stroke-width="2" stroke-linecap="round" stroke-linejoin="round" fill="none"/><path d="M 591 50 L 590 49 L 586 50 L 586 55 L 586 57" stroke="#ffffff" stroke-width="2" stroke-linecap="round" stroke-linejoin="round" fill="none"/><path d="M 594 53 L 594 52 L 594 49 L 594 48 L 595 50 L 595 53" stroke="#ffffff" stroke-width="2" stroke-linecap="round" stroke-linejoin="round" fill="none"/><path d="M 604 71 L 603 67 L 605 65 L 609 65 L 612 66 L 614 68 L 614 71 L 611 73 L 608 76 L 605 77 L 604 77 L 605 76 L 608 75 L 611 75 L 614 77 L 615 81 L 614 86 L 611 91 L 608 94 L 604 95 L 601 94 L 600 93 L 600 91 L 603 89 L 607 88 L 611 87" stroke="#ffffff" stroke-width="2" stroke-linecap="round" stroke-linejoin="round" fill="none"/><path d="M 38 160 L 38 160 L 37 159 L 37 158 L 40 157 L 43 156 L 46 155 L 47 154" stroke="#ffffff" stroke-width="2" stroke-linecap="round" stroke-linejoin="round" fill="none"/><path d="M 38 171 L 38 167 L 41 164 L 45 162 L 48 161 L 49 161 L 49 163 L 48 165 L 47 167" stroke="#ffffff" stroke-width="2" stroke-linecap="round" stroke-linejoin="round" fill="none"/><path d="M 42 172 L 42 172 L 44 167 L 47 166" stroke="#ffffff" stroke-width="2" stroke-linecap="round" stroke-linejoin="round" fill="none"/><path d="M 33 172 L 31 170 L 31 172 L 31 179 L 31 189 L 31 196 L 31 198" stroke="#ffffff" stroke-width="2" stroke-linecap="round" stroke-linejoin="round" fill="none"/><path d="M 40 180 L 39 179 L 39 184 L 40 192 L 40 200 L 41 206 L 41 207" stroke="#ffffff" stroke-width="2" stroke-linecap="round" stroke-linejoin="round" fill="none"/><path d="M 39 188 L 38 185 L 38 179 L 39 176 L 43 171 L 46 171 L 48 172 L 50 177 L 51 185 L 52 192 L 52 198 L 52 202" stroke="#ffffff" stroke-width="2" stroke-linecap="round" stroke-linejoin="round" fill="none"/><path d="M 43 189 L 42 188 L 41 183 L 44 180 L 46 180" stroke="#ffffff" stroke-width="2" stroke-linecap="round" stroke-linejoin="round" fill="none"/><path d="M 44 194 L 43 195 L 42 195 L 44 191 L 46 188" stroke="#ffffff" stroke-width="2" stroke-linecap="round" stroke-linejoin="round" fill="none"/><path d="M 85 170 L 83 170 L 79 168 L 79 167 L 77 169 L 75 175 L 73 183 L 72 188 L 74 189 L 80 188 L 84 184" stroke="#ffffff" stroke-width="2" stroke-linecap="round" stroke-linejoin="round" fill="none"/><path d="M 83 146 L 82 146 L 80 151 L 80 154" stroke="#ffffff" stroke-width="2" stroke-linecap="round" stroke-linejoin="round" fill="none"/><path d="M 89 142 L 88 142 L 87 146" stroke="#ffffff" stroke-width="2" stroke-linecap="round" stroke-linejoin="round" fill="none"/><path d="M 109 155 L 108 155 L 105 153 L 106 153" stroke="#ffffff" stroke-width="2" stroke-linecap="round" stroke-linejoin="round" fill="none"/><path d="M 106 157 L 105 157 L 103 158 L 101 160 L 99 164 L 99 171 L 99 175 L 99 176 L 101 175 L 103 172 L 107 169 L 110 167 L 113 169 L 113 174 L 109 181 L 105 186 L 101 189 L 100 190" stroke="#ffffff" stroke-width="2" stroke-linecap="round" stroke-linejoin="round" fill="none"/><path d="M 129 165 L 129 164 L 128 161 L 128 162 L 129 168 L 130 173 L 131 176" stroke="#ffffff" stroke-width="2" stroke-linecap="round" stroke-linejoin="round" fill="none"/><path d="M 141 160 L 139 164 L 139 168" stroke="#ffffff" stroke-width="2" stroke-linecap="round" stroke-linejoin="round" fill="none"/><path d="M 158 159 L 156 157 L 157 156 L 161 155 L 165 155 L 168 154 L 170 154 L 169 155 L 167 156 L 164 159 L 162 164 L 161 170 L 162 175 L 166 176 L 171 175 L 172 175" stroke="#ffffff" stroke-width="2" stroke-linecap="round" stroke-linejoin="round" fill="none"/><path d="M 168 137 L 165 138 L 165 139 L 165 143" stroke="#ffffff" stroke-width="2" stroke-linecap="round" stroke-linejoin="round" fill="none"/><path d="M 176 133 L 176 132 L 176 131 L 175 133 L 175 138" stroke="#ffffff" stroke-width="2" stroke-linecap="round" stroke-linejoin="round" fill="none"/><path d="M 200 161 L 200 159 L 203 153 L 208 150 L 213 150 L 215 151 L 215 153 L 212 159 L 209 164 L 206 170 L 205 173" stroke="#ffffff" stroke-width="2" stroke-linecap="round" stroke-linejoin="round" fill="none"/><path d="M 206 164 L 206 163 L 208 160 L 212 160 L 219 164 L 220 165" stroke="#ffffff" stroke-width="2" stroke-linecap="round" stroke-linejoin="round" fill="none"/><path d="M 241 145 L 239 143 L 236 146 L 234 152 L 233 158 L 232 162 L 231 164" stroke="#ffffff" stroke-width="2" stroke-linecap="round" stroke-linejoin="round" fill="none"/><path d="M 233 155 L 233 154 L 233 151 L 234 149 L 238 144 L 242 145 L 244 151 L 244 159 L 241 167 L 237 174 L 233 179 L 232 180" stroke="#ffffff" stroke-width="2" stroke-linecap="round" stroke-linejoin="round" fill="none"/><path d="M 260 156 L 259 155 L 258 154 L 259 151 L 263 148 L 266 146 L 267 145 L 267 146 L 266 149 L 265 155 L 263 161 L 261 166 L 260 170 L 257 172 L 254 173 L 252 173 L 251 173 L 252 173 L 255 173 L 260 171 L 266 168 L 273 164 L 276 162" stroke="#ffffff" stroke-width="2" stroke-linecap="round" stroke-linejoin="round" fill="none"/><path d="M 289 151 L 288 149 L 290 141 L 294 137 L 298 136 L 300 139 L 301 143 L 299 147 L 297 150 L 295 151 L 293 152 L 293 152 L 293 153 L 293 160 L 292 170 L 290 178 L 287 182" stroke="#ffffff" stroke-width="2" stroke-linecap="round" stroke-linejoin="round" fill="none"/><path d="M 265 148 L 265 148 L 265 148 L 265 146 L 267 145 L 271 143 L 273 142" stroke="#ffffff" stroke-width="2" stroke-linecap="round" stroke-linejoin="round" fill="none"/><path d="M 324 139 L 323 138 L 319 137 L 317 142 L 316 149 L 315 155 L 315 157" stroke="#ffffff" stroke-width="2" stroke-linecap="round" stroke-linejoin="round" fill="none"/><path d="M 317 149 L 317 145 L 317 143 L 319 138 L 322 137 L 325 140 L 327 147 L 326 156 L 323 164 L 321 169 L 319 171 L 319 171" stroke="#ffffff" stroke-width="2" stroke-linecap="round" stroke-linejoin="round" fill="none"/><path d="M 330 123 L 330 122 L 328 125 L 327 130" stroke="#ffffff" stroke-width="2" stroke-linecap="round" stroke-linejoin="round" fill="none"/><path d="M 335 125 L 335 124 L 336 121 L 336 120 L 336 121 L 336 127 L 336 129" stroke="#ffffff" stroke-width="2" stroke-linecap="round" stroke-linejoin="round" fill="none"/><path d="M 342 141 L 342 140 L 341 138 L 341 137 L 342 134 L 345 133 L 347 132" stroke="#ffffff" stroke-width="2" stroke-linecap="round" stroke-linejoin="round" fill="none"/><path d="M 341 151 L 340 151 L 339 151 L 339 150 L 344 145 L 350 142 L 355 141 L 356 144 L 354 151 L 349 158 L 343 164 L 338 167" stroke="#ffffff" stroke-width="2" stroke-linecap="round" stroke-linejoin="round" fill="none"/><path d="M 370 165 L 369 163 L 368 155 L 370 150 L 372 146 L 373 143 L 375 143 L 378 144 L 383 149 L 387 156 L 391 162 L 393 165 L 394 165" stroke="#ffffff" stroke-width="2" stroke-linecap="round" stroke-linejoin="round" fill="none"/><path d="M 384 127 L 383 127 L 380 129 L 380 135 L 383 137" stroke="#ffffff" stroke-width="2" stroke-linecap="round" stroke-linejoin="round" fill="none"/><path d="M 391 127 L 392 125 L 392 125 L 392 127 L 392 133 L 392 135" stroke="#ffffff" stroke-width="2" stroke-linecap="round" stroke-linejoin="round" fill="none"/><path d="M 405 147 L 404 147 L 402 146 L 405 144 L 412 142 L 419 139" stroke="#ffffff" stroke-width="2" stroke-linecap="round" stroke-linejoin="round" fill="none"/><path d="M 434 140 L 434 139 L 434 138 L 437 136 L 440 135 L 443 137 L 443 140 L 441 145 L 438 149 L 434 152 L 433 153 L 432 153" stroke="#ffffff" stroke-width="2" stroke-linecap="round" stroke-linejoin="round" fill="none"/><path d="M 437 144 L 437 144 L 439 143 L 442 145 L 447 148 L 452 150 L 453 150" stroke="#ffffff" stroke-width="2" stroke-linecap="round" stroke-linejoin="round" fill="none"/><path d="M 472 136 L 471 136 L 469 135 L 470 135 L 470 135 L 471 135 L 471 135 L 472 135 L 472 136 L 471 140 L 470 144 L 468 148 L 467 151 L 465 151 L 463 151 L 462 149 L 461 146 L 461 142 L 463 138 L 467 135 L 471 134 L 476 134 L 479 138 L 480 143 L 478 148 L 475 152 L 472 154 L 471 155" stroke="#ffffff" stroke-width="2" stroke-linecap="round" stroke-linejoin="round" fill="none"/><path d="M 510 122 L 510 122 L 509 122 L 507 126 L 505 137 L 504 148 L 504 155 L 505 157" stroke="#ffffff" stroke-width="2" stroke-linecap="round" stroke-linejoin="round" fill="none"/><path d="M 501 142 L 501 139 L 500 138 L 502 138 L 508 138 L 515 139 L 520 140" stroke="#ffffff" stroke-width="2" stroke-linecap="round" stroke-linejoin="round" fill="none"/><path d="M 530 134 L 527 135 L 526 136 L 526 139 L 527 141" stroke="#ffffff" stroke-width="2" stroke-linecap="round" stroke-linejoin="round" fill="none"/><path d="M 532 133 L 531 132 L 530 132 L 529 132 L 529 136 L 530 139 L 530 140" stroke="#ffffff" stroke-width="2" stroke-linecap="round" stroke-linejoin="round" fill="none"/><path d="M 539 131 L 539 131 L 538 132 L 535 138 L 531 147 L 527 153 L 526 154" stroke="#ffffff" stroke-width="2" stroke-linecap="round" stroke-linejoin="round" fill="none"/><path d="M 553 139 L 551 136 L 552 135 L 556 133 L 559 133 L 561 135 L 560 139 L 557 144 L 554 147 L 552 148" stroke="#ffffff" stroke-width="2" stroke-linecap="round" stroke-linejoin="round" fill="none"/><path d="M 560 129 L 560 128 L 561 122 L 562 118 L 564 116 L 565 116 L 566 117 L 565 119 L 564 121 L 562 123" stroke="#ffffff" stroke-width="2" stroke-linecap="round" stroke-linejoin="round" fill="none"/><path d="M 578 128 L 577 127 L 576 126 L 574 127 L 574 133 L 574 140 L 575 147 L 576 149" stroke="#ffffff" stroke-width="2" stroke-linecap="round" stroke-linejoin="round" fill="none"/><path d="M 576 134 L 576 133 L 576 126 L 578 124 L 582 124 L 585 124 L 587 124 L 588 127 L 588 131 L 586 136 L 585 138" stroke="#ffffff" stroke-width="2" stroke-linecap="round" stroke-linejoin="round" fill="none"/><path d="M 574 151 L 574 152 L 574 151 L 576 148 L 582 144 L 585 142" stroke="#ffffff" stroke-width="2" stroke-linecap="round" stroke-linejoin="round" fill="none"/><path d="M 601 138 L 601 138 L 600 135 L 605 133 L 613 130" stroke="#ffffff" stroke-width="2" stroke-linecap="round" stroke-linejoin="round" fill="none"/><path d="M 633 118 L 633 118 L 630 117 L 628 120 L 625 130 L 623 139 L 623 144 L 624 144 L 628 143 L 633 138 L 635 137" stroke="#ffffff" stroke-width="2" stroke-linecap="round" stroke-linejoin="round" fill="none"/><path d="M 653 116 L 653 116 L 650 115 L 648 117 L 643 122 L 635 131 L 629 139 L 625 143" stroke="#ffffff" stroke-width="2" stroke-linecap="round" stroke-linejoin="round" fill="none"/><path d="M 638 129 L 638 128 L 638 132 L 638 138 L 639 144 L 639 145" stroke="#ffffff" stroke-width="2" stroke-linecap="round" stroke-linejoin="round" fill="none"/><path d="M 652 144 L 652 140 L 652 138 L 657 130 L 666 122 L 674 117 L 678 115 L 679 115 L 678 116 L 676 120 L 674 125 L 671 129" stroke="#ffffff" stroke-width="2" stroke-linecap="round" stroke-linejoin="round" fill="none"/><path d="M 660 114 L 661 113 L 661 112 L 661 115 L 662 123 L 663 134 L 665 142 L 666 144" stroke="#ffffff" stroke-width="2" stroke-linecap="round" stroke-linejoin="round" fill="none"/><path d="M 686 142 L 686 141 L 687 141 L 695 140 L 705 139 L 708 139" stroke="#ffffff" stroke-width="2" stroke-linecap="round" stroke-linejoin="round" fill="none"/><path d="M 23 232 L 21 232 L 20 230 L 20 229 L 27 224 L 33 220 L 40 217 L 44 216 L 46 216" stroke="#ffffff" stroke-width="2" stroke-linecap="round" stroke-linejoin="round" fill="none"/><path d="M 35 216 L 34 215 L 35 217 L 35 225 L 35 235 L 34 243 L 33 247 L 32 247 L 30 246 L 29 243 L 29 239 L 30 235 L 33 233 L 35 234 L 37 241 L 36 252 L 32 261 L 31 267 L 30 268" stroke="#ffffff" stroke-width="2" stroke-linecap="round" stroke-linejoin="round" fill="none"/><path d="M 67 227 L 64 226 L 63 226 L 62 226 L 62 226 L 61 227 L 59 229 L 56 233 L 55 237 L 56 241 L 60 244 L 65 246 L 67 247" stroke="#ffffff" stroke-width="2" stroke-linecap="round" stroke-linejoin="round" fill="none"/><path d="M 104 210 L 104 206 L 103 208 L 103 213 L 102 220 L 102 226 L 102 228" stroke="#ffffff" stroke-width="2" stroke-linecap="round" stroke-linejoin="round" fill="none"/><path d="M 103 222 L 102 220 L 102 218 L 106 214 L 111 211 L 115 208 L 116 208" stroke="#ffffff" stroke-width="2" stroke-linecap="round" stroke-linejoin="round" fill="none"/><path d="M 110 206 L 109 205 L 108 204 L 108 204 L 108 211 L 108 222 L 108 233 L 108 237" stroke="#ffffff" stroke-width="2" stroke-linecap="round" stroke-linejoin="round" fill="none"/><path d="M 100 230 L 98 228 L 101 226 L 106 224 L 108 223" stroke="#ffffff" stroke-width="2" stroke-linecap="round" stroke-linejoin="round" fill="none"/><path d="M 118 209 L 118 208 L 118 206 L 118 205 L 121 200 L 124 197 L 127 196 L 127 195 L 127 195 L 125 195 L 124 197 L 123 201 L 123 203" stroke="#ffffff" stroke-width="2" stroke-linecap="round" stroke-linejoin="round" fill="none"/><path d="M 119 214 L 119 213 L 119 210 L 122 208 L 125 206" stroke="#ffffff" stroke-width="2" stroke-linecap="round" stroke-linejoin="round" fill="none"/><path d="M 119 223 L 119 222 L 119 220 L 119 218 L 122 213 L 125 210 L 126 209 L 127 209 L 128 213 L 129 220 L 129 228 L 128 235 L 127 241 L 126 243" stroke="#ffffff" stroke-width="2" stroke-linecap="round" stroke-linejoin="round" fill="none"/><path d="M 117 233 L 117 232 L 117 228 L 120 227 L 123 226" stroke="#ffffff" stroke-width="2" stroke-linecap="round" stroke-linejoin="round" fill="none"/><path d="M 154 212 L 152 212 L 149 212 L 148 217 L 148 225 L 149 231 L 150 232" stroke="#ffffff" stroke-width="2" stroke-linecap="round" stroke-linejoin="round" fill="none"/><path d="M 157 218 L 157 217 L 159 213 L 161 211 L 162 210" stroke="#ffffff" stroke-width="2" stroke-linecap="round" stroke-linejoin="round" fill="none"/><path d="M 159 227 L 159 228 L 158 228 L 161 225 L 166 220" stroke="#ffffff" stroke-width="2" stroke-linecap="round" stroke-linejoin="round" fill="none"/><path d="M 195 213 L 194 213 L 189 216 L 188 222 L 187 228 L 188 233" stroke="#ffffff" stroke-width="2" stroke-linecap="round" stroke-linejoin="round" fill="none"/><path d="M 198 215 L 199 216 L 201 220 L 205 224 L 206 225" stroke="#ffffff" stroke-width="2" stroke-linecap="round" stroke-linejoin="round" fill="none"/><path d="M 203 196 L 200 197 L 199 197 L 198 203" stroke="#ffffff" stroke-width="2" stroke-linecap="round" stroke-linejoin="round" fill="none"/><path d="M 208 195 L 207 194 L 207 196 L 208 199" stroke="#ffffff" stroke-width="2" stroke-linecap="round" stroke-linejoin="round" fill="none"/><path d="M 223 213 L 222 213 L 221 214 L 220 214" stroke="#ffffff" stroke-width="2" stroke-linecap="round" stroke-linejoin="round" fill="none"/><path d="M 227 211 L 227 212 L 227 213 L 225 214 L 225 214 L 225 215" stroke="#ffffff" stroke-width="2" stroke-linecap="round" stroke-linejoin="round" fill="none"/><path d="M 229 211 L 229 211 L 230 211 L 230 213 L 230 214 L 230 215" stroke="#ffffff" stroke-width="2" stroke-linecap="round" stroke-linejoin="round" fill="none"/><path d="M 246 194 L 246 194 L 246 195 L 245 198 L 243 202 L 243 203" stroke="#ffffff" stroke-width="2" stroke-linecap="round" stroke-linejoin="round" fill="none"/><path d="M 241 202 L 241 201 L 241 198 L 241 197 L 243 194 L 245 193 L 248 194 L 251 196 L 252 200 L 251 208 L 248 217 L 243 226 L 239 233 L 238 235" stroke="#ffffff" stroke-width="2" stroke-linecap="round" stroke-linejoin="round" fill="none"/><path d="M 240 210 L 239 210 L 239 210 L 239 210 L 239 209 L 239 207 L 241 205 L 243 202" stroke="#ffffff" stroke-width="2" stroke-linecap="round" stroke-linejoin="round" fill="none"/><path d="M 228 219 L 230 218 L 230 218 L 230 217 L 230 218 L 229 220 L 228 223 L 228 226 L 227 229 L 227 230" stroke="#ffffff" stroke-width="2" stroke-linecap="round" stroke-linejoin="round" fill="none"/><path d="M 316 181 L 316 180 L 313 177 L 313 178 L 313 182 L 314 186" stroke="#ffffff" stroke-width="2" stroke-linecap="round" stroke-linejoin="round" fill="none"/><path d="M 324 178 L 323 178 L 321 178 L 318 179 L 316 183 L 315 184" stroke="#ffffff" stroke-width="2" stroke-linecap="round" stroke-linejoin="round" fill="none"/><path d="M 303 197 L 303 197 L 304 195 L 305 194 L 314 189 L 323 185 L 330 183 L 332 183" stroke="#ffffff" stroke-width="2" stroke-linecap="round" stroke-linejoin="round" fill="none"/><path d="M 308 197 L 307 198 L 305 199 L 304 200 L 302 211 L 302 220 L 302 226 L 303 228" stroke="#ffffff" stroke-width="2" stroke-linecap="round" stroke-linejoin="round" fill="none"/><path d="M 303 214 L 303 210 L 303 205 L 306 198 L 309 195 L 311 198 L 311 206 L 311 214 L 310 222 L 309 226" stroke="#ffffff" stroke-width="2" stroke-linecap="round" stroke-linejoin="round" fill="none"/><path d="M 304 213 L 304 211 L 304 207 L 307 207 L 308 207" stroke="#ffffff" stroke-width="2" stroke-linecap="round" stroke-linejoin="round" fill="none"/><path d="M 309 208 L 309 209 L 309 211 L 308 212 L 310 210" stroke="#ffffff" stroke-width="2" stroke-linecap="round" stroke-linejoin="round" fill="none"/><path d="M 318 197 L 317 197 L 316 198 L 316 202 L 318 206" stroke="#ffffff" stroke-width="2" stroke-linecap="round" stroke-linejoin="round" fill="none"/><path d="M 328 192 L 328 191 L 328 195 L 327 205 L 325 216 L 322 225 L 319 230 L 316 231" stroke="#ffffff" stroke-width="2" stroke-linecap="round" stroke-linejoin="round" fill="none"/><path d="M 339 191 L 339 189 L 341 187 L 342 187 L 343 187 L 343 190 L 341 194 L 340 199 L 339 202 L 339 203" stroke="#ffffff" stroke-width="2" stroke-linecap="round" stroke-linejoin="round" fill="none"/><path d="M 341 197 L 341 197 L 340 196 L 340 195 L 341 194" stroke="#ffffff" stroke-width="2" stroke-linecap="round" stroke-linejoin="round" fill="none"/><path d="M 335 206 L 335 207 L 333 205 L 337 202" stroke="#ffffff" stroke-width="2" stroke-linecap="round" stroke-linejoin="round" fill="none"/><path d="M 337 207 L 336 207 L 334 205 L 338 201 L 343 197" stroke="#ffffff" stroke-width="2" stroke-linecap="round" stroke-linejoin="round" fill="none"/><path d="M 354 176 L 354 177 L 353 177 L 352 179 L 351 183 L 351 184" stroke="#ffffff" stroke-width="2" stroke-linecap="round" stroke-linejoin="round" fill="none"/><path d="M 355 177 L 353 180 L 351 186 L 351 192" stroke="#ffffff" stroke-width="2" stroke-linecap="round" stroke-linejoin="round" fill="none"/><path d="M 351 191 L 350 191 L 349 192 L 348 193 L 348 196" stroke="#ffffff" stroke-width="2" stroke-linecap="round" stroke-linejoin="round" fill="none"/><path d="M 344 207 L 344 207 L 343 205 L 343 203 L 345 199 L 349 196 L 351 195 L 353 196 L 353 201 L 351 206 L 348 212 L 345 217 L 343 219" stroke="#ffffff" stroke-width="2" stroke-linecap="round" stroke-linejoin="round" fill="none"/><path d="M 338 203 L 338 202 L 341 202 L 347 207 L 355 212" stroke="#ffffff" stroke-width="2" stroke-linecap="round" stroke-linejoin="round" fill="none"/><path d="M 384 180 L 384 179 L 383 176 L 383 178 L 383 185 L 383 192 L 383 199" stroke="#ffffff" stroke-width="2" stroke-linecap="round" stroke-linejoin="round" fill="none"/><path d="M 378 192 L 378 191 L 375 189 L 373 192 L 371 197 L 368 202 L 366 206 L 365 207" stroke="#ffffff" stroke-width="2" stroke-linecap="round" stroke-linejoin="round" fill="none"/><path d="M 387 189 L 391 186 L 403 181 L 405 181 L 404 184 L 402 186 L 400 187 L 398 187 L 397 187 L 396 187 L 395 188 L 393 191 L 389 201 L 384 212 L 378 220 L 374 223 L 373 224" stroke="#ffffff" stroke-width="2" stroke-linecap="round" stroke-linejoin="round" fill="none"/><path d="M 411 192 L 411 192 L 411 188 L 415 185 L 420 182 L 423 180 L 420 180 L 417 183 L 414 188 L 411 196 L 408 205 L 406 212" stroke="#ffffff" stroke-width="2" stroke-linecap="round" stroke-linejoin="round" fill="none"/><path d="M 430 184 L 431 184 L 432 182 L 433 182 L 434 181 L 435 181 L 435 181 L 435 182 L 432 186 L 429 192 L 425 199 L 423 205 L 421 209 L 419 209 L 417 209 L 417 207 L 418 205 L 420 203 L 425 200 L 432 197 L 436 195" stroke="#ffffff" stroke-width="2" stroke-linecap="round" stroke-linejoin="round" fill="none"/><path d="M 453 179 L 452 179 L 447 180 L 447 185 L 447 192 L 448 197 L 449 200 L 449 201" stroke="#ffffff" stroke-width="2" stroke-linecap="round" stroke-linejoin="round" fill="none"/><path d="M 455 182 L 454 182 L 451 184 L 448 191 L 446 197 L 444 202 L 442 204 L 441 203 L 440 200 L 442 196 L 445 193 L 449 190 L 454 189 L 457 191 L 459 194 L 459 198 L 458 201 L 457 203" stroke="#ffffff" stroke-width="2" stroke-linecap="round" stroke-linejoin="round" fill="none"/><path d="M 469 185 L 469 182 L 469 181 L 472 181 L 475 181 L 477 180 L 478 180 L 478 181 L 476 183 L 474 186 L 473 189 L 472 192 L 471 196 L 472 200 L 474 202 L 478 202" stroke="#ffffff" stroke-width="2" stroke-linecap="round" stroke-linejoin="round" fill="none"/><path d="M 482 163 L 481 164 L 477 172" stroke="#ffffff" stroke-width="2" stroke-linecap="round" stroke-linejoin="round" fill="none"/><path d="M 488 167 L 486 169 L 485 172 L 485 173" stroke="#ffffff" stroke-width="2" stroke-linecap="round" stroke-linejoin="round" fill="none"/><path d="M 517 176 L 517 175 L 515 170 L 515 171 L 513 179 L 512 190 L 512 199 L 512 204" stroke="#ffffff" stroke-width="2" stroke-linecap="round" stroke-linejoin="round" fill="none"/><path d="M 509 193 L 508 190 L 508 189 L 510 189 L 515 190 L 522 191 L 524 191" stroke="#ffffff" stroke-width="2" stroke-linecap="round" stroke-linejoin="round" fill="none"/><path d="M 529 174 L 527 173 L 527 173 L 526 175 L 528 182 L 528 184" stroke="#ffffff" stroke-width="2" stroke-linecap="round" stroke-linejoin="round" fill="none"/><path d="M 542 171 L 541 169 L 540 168 L 540 168 L 540 175 L 539 185 L 536 196 L 532 204 L 530 208 L 527 211 L 525 212" stroke="#ffffff" stroke-width="2" stroke-linecap="round" stroke-linejoin="round" fill="none"/><path d="M 559 176 L 558 176 L 557 176 L 554 181 L 552 189 L 551 197 L 552 199 L 554 199 L 556 196 L 558 193 L 560 190 L 562 188 L 564 187 L 566 190 L 570 195 L 571 196" stroke="#ffffff" stroke-width="2" stroke-linecap="round" stroke-linejoin="round" fill="none"/><path d="M 593 175 L 592 172 L 590 173 L 589 177 L 589 182 L 590 185 L 591 186" stroke="#ffffff" stroke-width="2" stroke-linecap="round" stroke-linejoin="round" fill="none"/><path d="M 602 168 L 602 168 L 601 170 L 597 182 L 593 195 L 590 203 L 589 208 L 589 209" stroke="#ffffff" stroke-width="2" stroke-linecap="round" stroke-linejoin="round" fill="none"/><path d="M 609 187 L 607 187 L 606 187 L 605 189 L 605 190" stroke="#ffffff" stroke-width="2" stroke-linecap="round" stroke-linejoin="round" fill="none"/><path d="M 611 186 L 611 186 L 610 186 L 610 186 L 609 188 L 609 190 L 609 190" stroke="#ffffff" stroke-width="2" stroke-linecap="round" stroke-linejoin="round" fill="none"/><path d="M 615 185 L 615 185 L 616 185 L 613 189 L 609 195 L 606 202 L 603 205 L 603 206" stroke="#ffffff" stroke-width="2" stroke-linecap="round" stroke-linejoin="round" fill="none"/><path d="M 622 190 L 622 189 L 622 184 L 624 182 L 627 182 L 629 183 L 629 186 L 629 189 L 627 193 L 625 195 L 623 197 L 622 197" stroke="#ffffff" stroke-width="2" stroke-linecap="round" stroke-linejoin="round" fill="none"/><path d="M 631 175 L 632 172 L 634 166 L 635 165 L 636 166 L 636 169 L 635 172 L 633 175 L 632 176" stroke="#ffffff" stroke-width="2" stroke-linecap="round" stroke-linejoin="round" fill="none"/><path d="M 649 175 L 647 175 L 647 175 L 647 173 L 650 171 L 653 171 L 654 171" stroke="#ffffff" stroke-width="2" stroke-linecap="round" stroke-linejoin="round" fill="none"/><path d="M 643 185 L 643 185 L 643 182 L 646 180 L 651 178 L 656 178 L 658 180 L 656 184 L 651 189 L 644 194 L 638 196 L 636 197" stroke="#ffffff" stroke-width="2" stroke-linecap="round" stroke-linejoin="round" fill="none"/><path d="M 683 172 L 682 172 L 679 173 L 674 177 L 666 183 L 661 188 L 658 192" stroke="#ffffff" stroke-width="2" stroke-linecap="round" stroke-linejoin="round" fill="none"/><path d="M 671 180 L 670 180 L 670 182 L 669 188 L 669 194 L 668 200 L 668 201" stroke="#ffffff" stroke-width="2" stroke-linecap="round" stroke-linejoin="round" fill="none"/><path d="M 26 289 L 25 289 L 24 288 L 25 283 L 27 281 L 30 280 L 32 280" stroke="#ffffff" stroke-width="2" stroke-linecap="round" stroke-linejoin="round" fill="none"/><path d="M 28 306 L 27 309 L 27 308 L 29 305 L 34 299 L 39 291 L 41 289" stroke="#ffffff" stroke-width="2" stroke-linecap="round" stroke-linejoin="round" fill="none"/><path d="M 73 276 L 71 276 L 67 278 L 64 283 L 63 289 L 65 294 L 68 296 L 72 294 L 75 292" stroke="#ffffff" stroke-width="2" stroke-linecap="round" stroke-linejoin="round" fill="none"/><path d="M 73 261 L 72 262 L 70 265 L 71 268" stroke="#ffffff" stroke-width="2" stroke-linecap="round" stroke-linejoin="round" fill="none"/><path d="M 80 257 L 79 256 L 79 255 L 79 256 L 82 259" stroke="#ffffff" stroke-width="2" stroke-linecap="round" stroke-linejoin="round" fill="none"/><path d="M 93 260 L 91 260 L 91 259 L 90 263 L 90 267" stroke="#ffffff" stroke-width="2" stroke-linecap="round" stroke-linejoin="round" fill="none"/><path d="M 89 271 L 88 271 L 87 272 L 85 278 L 84 282 L 85 284 L 87 284 L 89 282 L 91 279 L 94 277 L 97 277 L 98 280 L 97 284 L 94 290 L 90 293 L 86 295 L 86 295" stroke="#ffffff" stroke-width="2" stroke-linecap="round" stroke-linejoin="round" fill="none"/><path d="M 113 268 L 112 268 L 109 269 L 109 274 L 110 278 L 113 280 L 115 279" stroke="#ffffff" stroke-width="2" stroke-linecap="round" stroke-linejoin="round" fill="none"/><path d="M 122 268 L 123 267 L 123 268 L 123 274 L 122 278" stroke="#ffffff" stroke-width="2" stroke-linecap="round" stroke-linejoin="round" fill="none"/><path d="M 43 289 L 42 288 L 42 287 L 42 286 L 43 285 L 44 283 L 46 282 L 48 280 L 49 279" stroke="#ffffff" stroke-width="2" stroke-linecap="round" stroke-linejoin="round" fill="none"/><path d="M 146 273 L 144 273 L 143 273 L 142 274 L 143 275 L 145 276 L 148 275 L 149 274 L 149 272 L 148 271 L 145 272 L 142 277" stroke="#ffffff" stroke-width="2" stroke-linecap="round" stroke-linejoin="round" fill="none"/><path d="M 190 253 L 190 252 L 188 249 L 186 251 L 184 258 L 182 267 L 182 270" stroke="#ffffff" stroke-width="2" stroke-linecap="round" stroke-linejoin="round" fill="none"/><path d="M 185 257 L 185 255 L 187 249 L 191 246 L 198 244 L 203 243 L 206 243 L 207 244 L 205 247 L 202 252 L 202 253" stroke="#ffffff" stroke-width="2" stroke-linecap="round" stroke-linejoin="round" fill="none"/><path d="M 195 260 L 195 257 L 196 252 L 198 252 L 198 252 L 198 252 L 197 254 L 196 255 L 195 258 L 195 262 L 195 268 L 195 274 L 196 279 L 196 282 L 194 285 L 193 286" stroke="#ffffff" stroke-width="2" stroke-linecap="round" stroke-linejoin="round" fill="none"/><path d="M 181 281 L 180 280 L 180 278 L 185 275 L 195 270 L 201 267" stroke="#ffffff" stroke-width="2" stroke-linecap="round" stroke-linejoin="round" fill="none"/><path d="M 222 253 L 220 251 L 220 250 L 224 245 L 230 241 L 234 240 L 234 240 L 232 240 L 229 241 L 226 242 L 225 244 L 224 247 L 223 251 L 223 256" stroke="#ffffff" stroke-width="2" stroke-linecap="round" stroke-linejoin="round" fill="none"/><path d="M 224 255 L 223 256 L 220 260 L 220 265 L 220 270 L 220 272" stroke="#ffffff" stroke-width="2" stroke-linecap="round" stroke-linejoin="round" fill="none"/><path d="M 221 262 L 221 261 L 221 253 L 224 251 L 228 251 L 230 254 L 230 258 L 230 263 L 229 267 L 229 268" stroke="#ffffff" stroke-width="2" stroke-linecap="round" stroke-linejoin="round" fill="none"/><path d="M 225 262 L 224 260 L 224 259 L 225 256 L 227 255 L 228 254" stroke="#ffffff" stroke-width="2" stroke-linecap="round" stroke-linejoin="round" fill="none"/><path d="M 225 263 L 224 263 L 222 264 L 223 263 L 225 262 L 226 261" stroke="#ffffff" stroke-width="2" stroke-linecap="round" stroke-linejoin="round" fill="none"/><path d="M 210 283 L 207 283 L 206 283 L 211 280 L 219 275 L 228 269 L 235 265 L 237 263 L 236 263 L 233 267 L 229 273 L 225 280 L 221 286 L 218 290 L 218 291" stroke="#ffffff" stroke-width="2" stroke-linecap="round" stroke-linejoin="round" fill="none"/><path d="M 230 278 L 231 278 L 240 276 L 248 274 L 250 273" stroke="#ffffff" stroke-width="2" stroke-linecap="round" stroke-linejoin="round" fill="none"/><path d="M 226 233 L 226 231 L 226 231 L 225 234 L 225 242 L 225 245" stroke="#ffffff" stroke-width="2" stroke-linecap="round" stroke-linejoin="round" fill="none"/><path d="M 255 259 L 254 256 L 259 247 L 262 245 L 265 245 L 265 245 L 264 245 L 262 245 L 259 245 L 257 245 L 256 249 L 256 259 L 256 270 L 256 279 L 256 283 L 256 284" stroke="#ffffff" stroke-width="2" stroke-linecap="round" stroke-linejoin="round" fill="none"/><path d="M 249 273 L 249 272 L 248 266 L 251 264 L 256 262 L 261 261" stroke="#ffffff" stroke-width="2" stroke-linecap="round" stroke-linejoin="round" fill="none"/><path d="M 269 249 L 269 247 L 271 240 L 275 238 L 279 237 L 280 236 L 281 236 L 280 239 L 278 243 L 277 247 L 276 250" stroke="#ffffff" stroke-width="2" stroke-linecap="round" stroke-linejoin="round" fill="none"/><path d="M 270 256 L 269 253 L 271 250 L 275 248 L 280 246" stroke="#ffffff" stroke-width="2" stroke-linecap="round" stroke-linejoin="round" fill="none"/><path d="M 272 264 L 272 262 L 272 259 L 274 256 L 277 253 L 280 252 L 281 253 L 281 257 L 280 262 L 279 269 L 278 275 L 277 280 L 275 283 L 274 284" stroke="#ffffff" stroke-width="2" stroke-linecap="round" stroke-linejoin="round" fill="none"/><path d="M 268 275 L 267 273 L 269 270 L 276 266 L 278 265" stroke="#ffffff" stroke-width="2" stroke-linecap="round" stroke-linejoin="round" fill="none"/><path d="M 304 243 L 303 243 L 300 244 L 300 248 L 298 253 L 297 256 L 296 257 L 297 256 L 299 253 L 302 250 L 306 248 L 312 245 L 317 244 L 319 243" stroke="#ffffff" stroke-width="2" stroke-linecap="round" stroke-linejoin="round" fill="none"/><path d="M 292 268 L 290 268 L 293 264 L 302 259 L 312 255 L 316 252 L 316 252" stroke="#ffffff" stroke-width="2" stroke-linecap="round" stroke-linejoin="round" fill="none"/><path d="M 311 250 L 310 250 L 304 255 L 298 264 L 293 274 L 290 279 L 290 280" stroke="#ffffff" stroke-width="2" stroke-linecap="round" stroke-linejoin="round" fill="none"/><path d="M 305 259 L 305 258 L 310 256 L 317 256 L 325 255 L 330 254" stroke="#ffffff" stroke-width="2" stroke-linecap="round" stroke-linejoin="round" fill="none"/><path d="M 317 263 L 316 263 L 310 264 L 307 268 L 305 273 L 305 276" stroke="#ffffff" stroke-width="2" stroke-linecap="round" stroke-linejoin="round" fill="none"/><path d="M 315 270 L 314 270 L 311 272 L 309 275 L 308 278 L 308 279" stroke="#ffffff" stroke-width="2" stroke-linecap="round" stroke-linejoin="round" fill="none"/><path d="M 324 273 L 324 273 L 322 274 L 319 276 L 314 282 L 308 290 L 302 296" stroke="#ffffff" stroke-width="2" stroke-linecap="round" stroke-linejoin="round" fill="none"/><path d="M 406 241 L 406 240 L 404 235 L 403 237 L 400 243 L 397 253 L 393 261 L 392 266 L 392 267" stroke="#ffffff" stroke-width="2" stroke-linecap="round" stroke-linejoin="round" fill="none"/><path d="M 398 245 L 398 243 L 402 239 L 407 239 L 412 239 L 416 239 L 418 239" stroke="#ffffff" stroke-width="2" stroke-linecap="round" stroke-linejoin="round" fill="none"/><path d="M 402 254 L 401 254 L 402 251 L 408 248 L 414 245 L 419 244 L 419 244 L 418 244 L 415 244 L 413 244 L 411 245 L 410 247 L 409 252 L 409 257 L 409 263 L 409 267" stroke="#ffffff" stroke-width="2" stroke-linecap="round" stroke-linejoin="round" fill="none"/><path d="M 404 262 L 403 262 L 402 260 L 405 259 L 409 259 L 411 259" stroke="#ffffff" stroke-width="2" stroke-linecap="round" stroke-linejoin="round" fill="none"/><path d="M 399 273 L 399 273 L 397 274 L 401 272 L 409 269 L 418 264" stroke="#ffffff" stroke-width="2" stroke-linecap="round" stroke-linejoin="round" fill="none"/><path d="M 443 226 L 441 224 L 440 224 L 440 229 L 439 235" stroke="#ffffff" stroke-width="2" stroke-linecap="round" stroke-linejoin="round" fill="none"/><path d="M 433 243 L 433 243 L 432 241 L 432 239 L 438 234 L 443 232 L 446 232" stroke="#ffffff" stroke-width="2" stroke-linecap="round" stroke-linejoin="round" fill="none"/><path d="M 442 234 L 441 234 L 440 235 L 439 238 L 438 244 L 438 246" stroke="#ffffff" stroke-width="2" stroke-linecap="round" stroke-linejoin="round" fill="none"/><path d="M 446 236 L 446 236 L 446 234 L 445 235 L 442 238 L 439 243" stroke="#ffffff" stroke-width="2" stroke-linecap="round" stroke-linejoin="round" fill="none"/><path d="M 423 259 L 423 258 L 431 252 L 442 245 L 451 242 L 456 241" stroke="#ffffff" stroke-width="2" stroke-linecap="round" stroke-linejoin="round" fill="none"/><path d="M 438 254 L 435 254 L 434 257 L 434 262 L 434 267 L 434 270" stroke="#ffffff" stroke-width="2" stroke-linecap="round" stroke-linejoin="round" fill="none"/><path d="M 435 267 L 435 266 L 435 264 L 435 261 L 437 257 L 439 254 L 441 253 L 442 253 L 442 255 L 442 258 L 441 262 L 440 264" stroke="#ffffff" stroke-width="2" stroke-linecap="round" stroke-linejoin="round" fill="none"/><path d="M 436 269 L 435 270 L 433 270 L 435 268 L 439 265 L 440 264" stroke="#ffffff" stroke-width="2" stroke-linecap="round" stroke-linejoin="round" fill="none"/><path d="M 457 237 L 457 236 L 455 232 L 456 232 L 457 233 L 459 234 L 461 234 L 461 235 L 461 237 L 461 240 L 461 243 L 461 246 L 462 249 L 462 250 L 461 251 L 459 251 L 456 251 L 454 250 L 452 248 L 452 243 L 452 239 L 452 235 L 453 233 L 454 232 L 454 233 L 454 238 L 451 247 L 449 258 L 447 268 L 447 276 L 447 278" stroke="#ffffff" stroke-width="2" stroke-linecap="round" stroke-linejoin="round" fill="none"/><path d="M 496 230 L 496 229 L 495 227 L 493 229 L 489 233 L 486 238 L 484 241 L 484 242 L 485 241 L 488 239 L 491 238 L 493 238 L 494 239 L 493 242 L 490 245 L 488 246 L 488 246 L 489 245 L 491 243 L 493 241 L 494 241 L 494 241 L 493 242 L 492 243 L 491 244 L 490 248 L 490 255 L 490 263 L 490 269 L 490 271" stroke="#ffffff" stroke-width="2" stroke-linecap="round" stroke-linejoin="round" fill="none"/><path d="M 489 252 L 488 251 L 482 254 L 480 260 L 478 265" stroke="#ffffff" stroke-width="2" stroke-linecap="round" stroke-linejoin="round" fill="none"/><path d="M 486 255 L 487 255 L 488 254 L 490 255 L 492 255" stroke="#ffffff" stroke-width="2" stroke-linecap="round" stroke-linejoin="round" fill="none"/><path d="M 508 229 L 508 229 L 508 228 L 507 229 L 506 232 L 504 237 L 503 240" stroke="#ffffff" stroke-width="2" stroke-linecap="round" stroke-linejoin="round" fill="none"/><path d="M 501 238 L 501 236 L 503 229 L 507 226 L 511 226 L 514 227 L 515 231 L 512 238 L 506 247 L 500 256 L 494 262" stroke="#ffffff" stroke-width="2" stroke-linecap="round" stroke-linejoin="round" fill="none"/><path d="M 501 242 L 501 241 L 502 237 L 505 238 L 511 240 L 516 242 L 518 243" stroke="#ffffff" stroke-width="2" stroke-linecap="round" stroke-linejoin="round" fill="none"/><path d="M 508 255 L 507 254 L 508 250 L 512 249 L 514 249" stroke="#ffffff" stroke-width="2" stroke-linecap="round" stroke-linejoin="round" fill="none"/><path d="M 507 260 L 506 261 L 505 262 L 506 261 L 510 259 L 514 257 L 516 256" stroke="#ffffff" stroke-width="2" stroke-linecap="round" stroke-linejoin="round" fill="none"/><path d="M 526 260 L 525 259 L 525 256 L 528 255 L 530 256 L 531 259 L 529 263 L 525 267 L 524 268" stroke="#ffffff" stroke-width="2" stroke-linecap="round" stroke-linejoin="round" fill="none"/><path d="M 548 249 L 547 246 L 547 245 L 550 240 L 555 236 L 562 234 L 565 232" stroke="#ffffff" stroke-width="2" stroke-linecap="round" stroke-linejoin="round" fill="none"/><path d="M 559 228 L 558 228 L 555 234 L 553 243 L 552 252 L 551 259 L 551 262" stroke="#ffffff" stroke-width="2" stroke-linecap="round" stroke-linejoin="round" fill="none"/><path d="M 563 251 L 563 249 L 564 244 L 566 242 L 567 242" stroke="#ffffff" stroke-width="2" stroke-linecap="round" stroke-linejoin="round" fill="none"/><path d="M 561 258 L 560 258 L 559 257 L 562 255 L 569 250" stroke="#ffffff" stroke-width="2" stroke-linecap="round" stroke-linejoin="round" fill="none"/><path d="M 606 227 L 606 226 L 604 225 L 601 228 L 594 236 L 587 244 L 583 248 L 582 249" stroke="#ffffff" stroke-width="2" stroke-linecap="round" stroke-linejoin="round" fill="none"/><path d="M 607 235 L 607 234 L 602 238 L 596 244 L 590 252 L 587 256 L 587 257" stroke="#ffffff" stroke-width="2" stroke-linecap="round" stroke-linejoin="round" fill="none"/><path d="M 594 246 L 595 246 L 595 247 L 594 254 L 593 262 L 593 268" stroke="#ffffff" stroke-width="2" stroke-linecap="round" stroke-linejoin="round" fill="none"/><path d="M 619 221 L 619 217 L 618 217 L 615 220 L 611 226 L 609 232 L 608 235 L 610 235 L 613 231 L 616 229 L 618 227 L 619 227 L 618 228 L 616 231 L 614 234 L 612 236 L 610 238 L 610 238 L 612 238 L 615 236 L 620 234 L 623 233" stroke="#ffffff" stroke-width="2" stroke-linecap="round" stroke-linejoin="round" fill="none"/><path d="M 619 236 L 615 238 L 610 242 L 604 249 L 601 253 L 600 255" stroke="#ffffff" stroke-width="2" stroke-linecap="round" stroke-linejoin="round" fill="none"/><path d="M 607 247 L 609 244 L 614 239 L 616 239 L 616 243 L 615 249 L 611 255 L 608 261 L 604 266 L 604 267" stroke="#ffffff" stroke-width="2" stroke-linecap="round" stroke-linejoin="round" fill="none"/><path d="M 602 249 L 602 247 L 606 249 L 610 254 L 614 260 L 620 263" stroke="#ffffff" stroke-width="2" stroke-linecap="round" stroke-linejoin="round" fill="none"/><path d="M 641 238 L 638 238 L 631 246 L 629 254 L 628 259 L 630 262" stroke="#ffffff" stroke-width="2" stroke-linecap="round" stroke-linejoin="round" fill="none"/><path d="M 643 248 L 643 244 L 643 243 L 646 240 L 649 239 L 654 239 L 656 239" stroke="#ffffff" stroke-width="2" stroke-linecap="round" stroke-linejoin="round" fill="none"/><path d="M 645 253 L 643 254 L 642 254 L 644 254 L 649 252 L 656 250" stroke="#ffffff" stroke-width="2" stroke-linecap="round" stroke-linejoin="round" fill="none"/><path d="M 25 346 L 24 345 L 26 336 L 30 330 L 36 328 L 39 331 L 39 338 L 37 346 L 34 353 L 30 358 L 27 362 L 26 363 L 30 362 L 35 360 L 43 355 L 50 351 L 57 347" stroke="#ffffff" stroke-width="2" stroke-linecap="round" stroke-linejoin="round" fill="none"/><path d="M 69 339 L 66 336 L 65 335 L 64 334 L 63 336 L 62 341 L 61 347 L 61 353 L 63 356 L 67 355 L 73 351 L 74 350" stroke="#ffffff" stroke-width="2" stroke-linecap="round" stroke-linejoin="round" fill="none"/><path d="M 74 346 L 72 343 L 74 341 L 77 339 L 79 340 L 79 344 L 78 349 L 78 352 L 79 349 L 81 345 L 82 344 L 83 345 L 84 347 L 85 349 L 88 348 L 90 346" stroke="#ffffff" stroke-width="2" stroke-linecap="round" stroke-linejoin="round" fill="none"/><path d="M 118 328 L 117 327 L 113 328 L 112 332 L 112 338 L 114 342 L 118 344 L 123 343 L 126 340" stroke="#ffffff" stroke-width="2" stroke-linecap="round" stroke-linejoin="round" fill="none"/><path d="M 119 307 L 118 308 L 115 312 L 116 314" stroke="#ffffff" stroke-width="2" stroke-linecap="round" stroke-linejoin="round" fill="none"/><path d="M 126 304 L 126 304 L 125 305 L 127 308" stroke="#ffffff" stroke-width="2" stroke-linecap="round" stroke-linejoin="round" fill="none"/><path d="M 139 309 L 139 309 L 136 308 L 136 308 L 136 310 L 137 313" stroke="#ffffff" stroke-width="2" stroke-linecap="round" stroke-linejoin="round" fill="none"/><path d="M 136 317 L 135 317 L 133 317 L 132 321 L 131 326 L 131 330 L 133 331 L 134 331 L 137 329 L 140 327 L 143 327 L 144 330 L 143 336 L 138 343 L 133 347 L 131 349" stroke="#ffffff" stroke-width="2" stroke-linecap="round" stroke-linejoin="round" fill="none"/><path d="M 160 321 L 156 325 L 156 329 L 158 332 L 160 332 L 160 332" stroke="#ffffff" stroke-width="2" stroke-linecap="round" stroke-linejoin="round" fill="none"/><path d="M 166 323 L 167 322 L 168 321 L 168 322 L 168 326 L 168 330" stroke="#ffffff" stroke-width="2" stroke-linecap="round" stroke-linejoin="round" fill="none"/><path d="M 192 307 L 192 306 L 190 303 L 189 303 L 188 307 L 186 318 L 184 328 L 184 334" stroke="#ffffff" stroke-width="2" stroke-linecap="round" stroke-linejoin="round" fill="none"/><path d="M 187 324 L 187 319 L 189 315 L 193 312 L 198 311" stroke="#ffffff" stroke-width="2" stroke-linecap="round" stroke-linejoin="round" fill="none"/><path d="M 187 333 L 186 333 L 185 332 L 185 331 L 190 327 L 196 322 L 199 320" stroke="#ffffff" stroke-width="2" stroke-linecap="round" stroke-linejoin="round" fill="none"/><path d="M 197 313 L 196 313 L 195 313 L 195 314 L 194 324 L 192 336 L 190 346 L 188 351 L 187 353" stroke="#ffffff" stroke-width="2" stroke-linecap="round" stroke-linejoin="round" fill="none"/><path d="M 195 326 L 195 326 L 194 328 L 196 334 L 199 339 L 201 340" stroke="#ffffff" stroke-width="2" stroke-linecap="round" stroke-linejoin="round" fill="none"/><path d="M 209 316 L 208 314 L 210 309 L 215 306 L 220 304" stroke="#ffffff" stroke-width="2" stroke-linecap="round" stroke-linejoin="round" fill="none"/><path d="M 208 318 L 205 322 L 205 327 L 205 332 L 205 334" stroke="#ffffff" stroke-width="2" stroke-linecap="round" stroke-linejoin="round" fill="none"/><path d="M 206 330 L 206 328 L 206 324 L 208 320 L 211 317 L 213 316 L 214 318 L 214 321 L 213 324" stroke="#ffffff" stroke-width="2" stroke-linecap="round" stroke-linejoin="round" fill="none"/><path d="M 203 337 L 203 337 L 203 336 L 205 332 L 209 328 L 211 325 L 212 325 L 210 327 L 208 330 L 207 334 L 207 336 L 208 336" stroke="#ffffff" stroke-width="2" stroke-linecap="round" stroke-linejoin="round" fill="none"/><path d="M 216 328 L 217 328 L 214 332 L 209 340 L 208 342" stroke="#ffffff" stroke-width="2" stroke-linecap="round" stroke-linejoin="round" fill="none"/><path d="M 196 349 L 197 348 L 198 347 L 204 345 L 213 341 L 222 337" stroke="#ffffff" stroke-width="2" stroke-linecap="round" stroke-linejoin="round" fill="none"/><path d="M 247 318 L 246 317 L 243 315 L 241 315 L 239 317 L 237 320 L 235 326 L 235 331 L 237 335 L 242 335 L 248 334" stroke="#ffffff" stroke-width="2" stroke-linecap="round" stroke-linejoin="round" fill="none"/><path d="M 266 315 L 264 313 L 263 312 L 262 316 L 261 325 L 261 334 L 264 338 L 269 338 L 276 333 L 282 326" stroke="#ffffff" stroke-width="2" stroke-linecap="round" stroke-linejoin="round" fill="none"/><path d="M 283 320 L 282 320 L 282 315 L 287 311 L 293 307 L 298 305 L 300 303" stroke="#ffffff" stroke-width="2" stroke-linecap="round" stroke-linejoin="round" fill="none"/><path d="M 294 300 L 293 299 L 293 299 L 292 300 L 290 308 L 288 323 L 286 334 L 287 340" stroke="#ffffff" stroke-width="2" stroke-linecap="round" stroke-linejoin="round" fill="none"/><path d="M 296 323 L 295 318 L 297 317 L 299 317" stroke="#ffffff" stroke-width="2" stroke-linecap="round" stroke-linejoin="round" fill="none"/><path d="M 297 330 L 295 331 L 295 330 L 300 327 L 301 326" stroke="#ffffff" stroke-width="2" stroke-linecap="round" stroke-linejoin="round" fill="none"/><path d="M 314 312 L 314 313 L 310 317 L 311 320 L 312 321" stroke="#ffffff" stroke-width="2" stroke-linecap="round" stroke-linejoin="round" fill="none"/><path d="M 321 311 L 322 309 L 323 307 L 323 313 L 323 319" stroke="#ffffff" stroke-width="2" stroke-linecap="round" stroke-linejoin="round" fill="none"/><path d="M 340 304 L 337 302 L 337 305 L 337 310 L 338 311" stroke="#ffffff" stroke-width="2" stroke-linecap="round" stroke-linejoin="round" fill="none"/><path d="M 348 311 L 348 310 L 347 309 L 346 308 L 344 309 L 341 312 L 339 316 L 337 321 L 337 324 L 339 326 L 344 325 L 347 323" stroke="#ffffff" stroke-width="2" stroke-linecap="round" stroke-linejoin="round" fill="none"/><path d="M 358 317 L 358 316 L 357 313 L 359 311 L 364 311 L 367 311 L 368 313 L 369 316 L 368 318 L 367 319 L 365 320 L 363 317 L 362 313 L 362 307 L 363 302 L 364 300 L 364 302 L 363 309 L 361 317 L 360 323 L 359 326 L 359 326" stroke="#ffffff" stroke-width="2" stroke-linecap="round" stroke-linejoin="round" fill="none"/><path d="M 375 298 L 379 299 L 384 303 L 391 308 L 393 308" stroke="#ffffff" stroke-width="2" stroke-linecap="round" stroke-linejoin="round" fill="none"/><path d="M 417 288 L 417 287 L 416 283 L 416 285 L 416 291 L 416 299 L 416 301" stroke="#ffffff" stroke-width="2" stroke-linecap="round" stroke-linejoin="round" fill="none"/><path d="M 410 306 L 409 304 L 411 298 L 417 294 L 423 292" stroke="#ffffff" stroke-width="2" stroke-linecap="round" stroke-linejoin="round" fill="none"/><path d="M 415 309 L 414 309 L 414 306 L 418 302 L 420 301" stroke="#ffffff" stroke-width="2" stroke-linecap="round" stroke-linejoin="round" fill="none"/><path d="M 418 311 L 417 311 L 416 311 L 416 310 L 416 312 L 415 316 L 414 322 L 413 329 L 414 336 L 417 338 L 421 337 L 423 333 L 423 329 L 422 326 L 420 323 L 417 322 L 415 323 L 414 328 L 413 332 L 413 333" stroke="#ffffff" stroke-width="2" stroke-linecap="round" stroke-linejoin="round" fill="none"/><path d="M 433 322 L 432 320 L 432 319 L 435 318 L 438 318 L 439 321 L 438 324 L 436 327 L 436 328" stroke="#ffffff" stroke-width="2" stroke-linecap="round" stroke-linejoin="round" fill="none"/><path d="M 442 308 L 443 300 L 448 298 L 453 297 L 457 296 L 458 297 L 457 299 L 454 302 L 452 307 L 450 313 L 450 319 L 454 323 L 460 324 L 461 324" stroke="#ffffff" stroke-width="2" stroke-linecap="round" stroke-linejoin="round" fill="none"/><path d="M 490 307 L 488 306 L 488 305 L 491 302 L 497 299 L 505 295 L 509 293 L 509 293" stroke="#ffffff" stroke-width="2" stroke-linecap="round" stroke-linejoin="round" fill="none"/><path d="M 500 289 L 500 289 L 497 289 L 496 295 L 496 302 L 498 308 L 501 309 L 505 307 L 509 302 L 510 300" stroke="#ffffff" stroke-width="2" stroke-linecap="round" stroke-linejoin="round" fill="none"/><path d="M 512 300 L 512 299 L 512 294 L 517 291 L 524 290 L 528 290 L 528 293 L 527 297 L 524 300 L 522 303 L 521 303 L 519 302 L 518 298 L 518 294 L 518 292 L 519 291 L 519 295 L 517 303 L 515 310 L 514 314 L 514 315" stroke="#ffffff" stroke-width="2" stroke-linecap="round" stroke-linejoin="round" fill="none"/><path d="M 552 281 L 552 281 L 545 284 L 544 289 L 546 294 L 549 295" stroke="#ffffff" stroke-width="2" stroke-linecap="round" stroke-linejoin="round" fill="none"/><path d="M 558 281 L 559 280 L 559 278 L 558 282 L 556 291 L 552 302 L 546 312 L 541 319 L 539 320" stroke="#ffffff" stroke-width="2" stroke-linecap="round" stroke-linejoin="round" fill="none"/><path d="M 569 289 L 570 289 L 570 288 L 575 283 L 583 279 L 588 276 L 589 275 L 587 275 L 584 276 L 583 276 L 581 277 L 580 280 L 580 284 L 580 289 L 580 290" stroke="#ffffff" stroke-width="2" stroke-linecap="round" stroke-linejoin="round" fill="none"/><path d="M 581 291 L 580 291 L 579 291 L 578 294 L 577 299 L 577 304" stroke="#ffffff" stroke-width="2" stroke-linecap="round" stroke-linejoin="round" fill="none"/><path d="M 579 300 L 579 299 L 579 292 L 581 290 L 583 289 L 585 289 L 586 290 L 587 293 L 587 296 L 586 299 L 586 299" stroke="#ffffff" stroke-width="2" stroke-linecap="round" stroke-linejoin="round" fill="none"/><path d="M 582 299 L 581 298 L 580 295 L 581 294 L 583 293" stroke="#ffffff" stroke-width="2" stroke-linecap="round" stroke-linejoin="round" fill="none"/><path d="M 581 302 L 580 302 L 578 301 L 579 299 L 583 298" stroke="#ffffff" stroke-width="2" stroke-linecap="round" stroke-linejoin="round" fill="none"/><path d="M 581 304 L 581 305 L 580 305 L 580 305 L 581 304 L 584 302 L 584 302" stroke="#ffffff" stroke-width="2" stroke-linecap="round" stroke-linejoin="round" fill="none"/><path d="M 570 299 L 568 300 L 568 304 L 568 310 L 572 316 L 578 318 L 585 315 L 590 311 L 594 307" stroke="#ffffff" stroke-width="2" stroke-linecap="round" stroke-linejoin="round" fill="none"/><path d="M 612 285 L 607 293 L 606 301 L 609 306 L 615 306 L 623 304 L 630 299 L 635 294" stroke="#ffffff" stroke-width="2" stroke-linecap="round" stroke-linejoin="round" fill="none"/><path d="M 41 379 L 38 375 L 38 374 L 36 380 L 36 389 L 38 395 L 39 396" stroke="#ffffff" stroke-width="2" stroke-linecap="round" stroke-linejoin="round" fill="none"/><path d="M 49 383 L 49 382 L 47 380 L 47 379 L 44 381 L 42 386 L 40 392 L 39 396" stroke="#ffffff" stroke-width="2" stroke-linecap="round" stroke-linejoin="round" fill="none"/><path d="M 29 408 L 28 405 L 30 398 L 38 392 L 48 385 L 56 382 L 60 383" stroke="#ffffff" stroke-width="2" stroke-linecap="round" stroke-linejoin="round" fill="none"/><path d="M 37 404 L 36 403 L 34 408 L 35 417 L 37 426 L 38 432 L 38 435" stroke="#ffffff" stroke-width="2" stroke-linecap="round" stroke-linejoin="round" fill="none"/><path d="M 37 428 L 37 426 L 35 420 L 34 415 L 34 409 L 36 405 L 39 404 L 42 408 L 44 416 L 45 425 L 45 432 L 45 436" stroke="#ffffff" stroke-width="2" stroke-linecap="round" stroke-linejoin="round" fill="none"/><path d="M 37 414 L 35 410 L 36 411 L 37 411" stroke="#ffffff" stroke-width="2" stroke-linecap="round" stroke-linejoin="round" fill="none"/><path d="M 41 422 L 39 421 L 39 415 L 42 410" stroke="#ffffff" stroke-width="2" stroke-linecap="round" stroke-linejoin="round" fill="none"/><path d="M 47 402 L 47 403 L 45 405 L 45 409 L 46 414 L 48 416" stroke="#ffffff" stroke-width="2" stroke-linecap="round" stroke-linejoin="round" fill="none"/><path d="M 53 396 L 53 393 L 54 400 L 55 411 L 56 424 L 55 435 L 53 442 L 50 444 L 50 445" stroke="#ffffff" stroke-width="2" stroke-linecap="round" stroke-linejoin="round" fill="none"/><path d="M 75 396 L 73 396 L 70 396 L 71 403 L 72 413 L 73 423 L 74 427" stroke="#ffffff" stroke-width="2" stroke-linecap="round" stroke-linejoin="round" fill="none"/><path d="M 72 406 L 72 402 L 72 392 L 76 389 L 81 388 L 84 388 L 87 391 L 88 395 L 89 400 L 89 405 L 89 409 L 89 410" stroke="#ffffff" stroke-width="2" stroke-linecap="round" stroke-linejoin="round" fill="none"/><path d="M 80 401 L 79 399 L 78 399 L 78 401 L 79 406 L 79 411 L 80 414" stroke="#ffffff" stroke-width="2" stroke-linecap="round" stroke-linejoin="round" fill="none"/><path d="M 79 412 L 79 408 L 79 404 L 80 399 L 82 396 L 83 396 L 83 399 L 83 403 L 83 406 L 82 407" stroke="#ffffff" stroke-width="2" stroke-linecap="round" stroke-linejoin="round" fill="none"/><path d="M 79 408 L 78 409 L 78 409 L 79 409 L 81 408 L 82 407" stroke="#ffffff" stroke-width="2" stroke-linecap="round" stroke-linejoin="round" fill="none"/><path d="M 76 423 L 76 424 L 73 425 L 75 424 L 82 420 L 90 413 L 93 411" stroke="#ffffff" stroke-width="2" stroke-linecap="round" stroke-linejoin="round" fill="none"/><path d="M 128 392 L 126 391 L 125 389 L 124 388 L 120 388 L 117 389 L 115 393 L 114 398 L 114 404 L 116 407 L 121 408 L 126 405 L 130 401" stroke="#ffffff" stroke-width="2" stroke-linecap="round" stroke-linejoin="round" fill="none"/><path d="M 134 372 L 131 374 L 130 380 L 130 392 L 130 401 L 131 406 L 131 407 L 131 406 L 132 402 L 133 398 L 134 394 L 136 392 L 137 392 L 139 395 L 141 398 L 142 400 L 143 401" stroke="#ffffff" stroke-width="2" stroke-linecap="round" stroke-linejoin="round" fill="none"/><path d="M 151 392 L 150 393 L 148 397 L 148 400 L 150 401" stroke="#ffffff" stroke-width="2" stroke-linecap="round" stroke-linejoin="round" fill="none"/><path d="M 151 372 L 150 372 L 147 371 L 147 372 L 147 378 L 148 382" stroke="#ffffff" stroke-width="2" stroke-linecap="round" stroke-linejoin="round" fill="none"/><path d="M 163 381 L 159 381 L 159 386 L 159 394 L 159 400 L 160 402 L 160 401 L 160 397 L 160 391 L 162 384 L 164 380 L 167 379 L 170 382 L 171 386 L 172 392 L 172 394" stroke="#ffffff" stroke-width="2" stroke-linecap="round" stroke-linejoin="round" fill="none"/><path d="M 184 386 L 183 384 L 181 380 L 181 379 L 180 382 L 179 386 L 178 390 L 178 393 L 180 394 L 183 391 L 185 388 L 186 384 L 186 382 L 185 381 L 185 385 L 186 389 L 188 394 L 188 395" stroke="#ffffff" stroke-width="2" stroke-linecap="round" stroke-linejoin="round" fill="none"/><path d="M 205 379 L 203 378 L 204 378 L 208 378 L 214 377 L 218 376 L 220 376 L 220 375 L 217 375 L 215 375 L 213 379 L 211 384 L 211 391 L 214 396 L 217 397 L 219 396" stroke="#ffffff" stroke-width="2" stroke-linecap="round" stroke-linejoin="round" fill="none"/><path d="M 220 361 L 218 361 L 215 366 L 216 369" stroke="#ffffff" stroke-width="2" stroke-linecap="round" stroke-linejoin="round" fill="none"/><path d="M 226 358 L 226 357 L 225 356 L 225 358 L 226 363" stroke="#ffffff" stroke-width="2" stroke-linecap="round" stroke-linejoin="round" fill="none"/><path d="M 245 389 L 245 389 L 244 386 L 248 382 L 253 379 L 258 378 L 259 378" stroke="#ffffff" stroke-width="2" stroke-linecap="round" stroke-linejoin="round" fill="none"/><path d="M 254 371 L 251 371 L 250 372 L 249 377 L 248 385 L 248 392 L 251 394 L 255 392 L 257 391" stroke="#ffffff" stroke-width="2" stroke-linecap="round" stroke-linejoin="round" fill="none"/><path d="M 264 384 L 264 382 L 264 377 L 268 375 L 273 373 L 277 373 L 279 375 L 279 377 L 277 380 L 275 382 L 274 383 L 272 383 L 271 381 L 271 377 L 271 374 L 271 373 L 271 375 L 271 383 L 269 392 L 267 399 L 266 401 L 266 402" stroke="#ffffff" stroke-width="2" stroke-linecap="round" stroke-linejoin="round" fill="none"/><path d="M 286 386 L 285 385 L 284 382 L 288 381 L 291 381 L 293 382 L 292 386 L 290 389 L 288 392 L 287 392" stroke="#ffffff" stroke-width="2" stroke-linecap="round" stroke-linejoin="round" fill="none"/><path d="M 301 371 L 300 370 L 301 365 L 306 362 L 311 359 L 316 357 L 319 355 L 319 355" stroke="#ffffff" stroke-width="2" stroke-linecap="round" stroke-linejoin="round" fill="none"/><path d="M 310 354 L 307 353 L 307 355 L 307 363 L 307 373 L 306 382 L 306 388 L 306 390" stroke="#ffffff" stroke-width="2" stroke-linecap="round" stroke-linejoin="round" fill="none"/><path d="M 315 375 L 315 372 L 314 370 L 318 368 L 320 367" stroke="#ffffff" stroke-width="2" stroke-linecap="round" stroke-linejoin="round" fill="none"/><path d="M 317 382 L 314 383 L 313 384 L 315 383 L 321 379 L 322 378" stroke="#ffffff" stroke-width="2" stroke-linecap="round" stroke-linejoin="round" fill="none"/><path d="M 333 362 L 333 359 L 333 359 L 332 362 L 332 370 L 331 380 L 331 386 L 332 389 L 333 388 L 335 385 L 338 378 L 344 369 L 348 365" stroke="#ffffff" stroke-width="2" stroke-linecap="round" stroke-linejoin="round" fill="none"/><path d="M 366 353 L 363 353 L 362 353 L 360 359 L 359 365 L 356 371 L 353 377 L 352 379" stroke="#ffffff" stroke-width="2" stroke-linecap="round" stroke-linejoin="round" fill="none"/><path d="M 359 368 L 359 368 L 358 369 L 358 373 L 359 378 L 361 382 L 363 384" stroke="#ffffff" stroke-width="2" stroke-linecap="round" stroke-linejoin="round" fill="none"/><path d="M 376 379 L 374 376 L 374 374 L 377 367 L 384 360 L 391 354 L 394 352 L 395 351 L 395 351 L 396 352 L 396 353 L 396 356 L 394 358" stroke="#ffffff" stroke-width="2" stroke-linecap="round" stroke-linejoin="round" fill="none"/><path d="M 379 353 L 377 352 L 378 353 L 381 358 L 385 365 L 389 371 L 391 373" stroke="#ffffff" stroke-width="2" stroke-linecap="round" stroke-linejoin="round" fill="none"/><path d="M 412 366 L 411 366 L 409 365 L 413 363 L 420 361 L 427 359" stroke="#ffffff" stroke-width="2" stroke-linecap="round" stroke-linejoin="round" fill="none"/><path d="M 437 367 L 436 364 L 438 362 L 443 360 L 446 359 L 448 360 L 449 362 L 449 363 L 449 364 L 448 364 L 447 364 L 446 361 L 445 357 L 444 352 L 444 349 L 444 349 L 444 352 L 442 360 L 440 368 L 439 374 L 438 376" stroke="#ffffff" stroke-width="2" stroke-linecap="round" stroke-linejoin="round" fill="none"/><path d="M 446 352 L 448 351 L 454 353 L 460 358 L 467 362 L 469 363" stroke="#ffffff" stroke-width="2" stroke-linecap="round" stroke-linejoin="round" fill="none"/><path d="M 462 338 L 460 337 L 457 341 L 458 347" stroke="#ffffff" stroke-width="2" stroke-linecap="round" stroke-linejoin="round" fill="none"/><path d="M 465 344 L 465 342 L 465 340 L 465 344" stroke="#ffffff" stroke-width="2" stroke-linecap="round" stroke-linejoin="round" fill="none"/><path d="M 493 347 L 493 345 L 494 342 L 493 343 L 490 349 L 487 356 L 482 364 L 477 371 L 476 374" stroke="#ffffff" stroke-width="2" stroke-linecap="round" stroke-linejoin="round" fill="none"/><path d="M 484 357 L 485 356 L 486 354 L 486 354 L 486 359 L 486 367 L 485 376 L 485 381" stroke="#ffffff" stroke-width="2" stroke-linecap="round" stroke-linejoin="round" fill="none"/><path d="M 502 371 L 502 371 L 505 362 L 514 354 L 521 349 L 524 347 L 525 347 L 526 348 L 526 349 L 525 351 L 522 354 L 519 356 L 517 357" stroke="#ffffff" stroke-width="2" stroke-linecap="round" stroke-linejoin="round" fill="none"/><path d="M 510 341 L 510 340 L 509 340 L 509 341 L 509 349 L 511 361 L 514 371 L 516 376" stroke="#ffffff" stroke-width="2" stroke-linecap="round" stroke-linejoin="round" fill="none"/><path d="M 541 366 L 540 366 L 540 362 L 544 359 L 550 356 L 556 355 L 559 355 L 559 355 L 559 355 L 559 356 L 558 356 L 557 358 L 555 359 L 554 360 L 552 361 L 550 362 L 548 362" stroke="#ffffff" stroke-width="2" stroke-linecap="round" stroke-linejoin="round" fill="none"/><path d="M 547 346 L 545 345 L 544 347 L 544 353 L 544 361 L 545 368 L 546 372" stroke="#ffffff" stroke-width="2" stroke-linecap="round" stroke-linejoin="round" fill="none"/><path d="M 553 345 L 553 344 L 552 343 L 552 347 L 552 354 L 552 358" stroke="#ffffff" stroke-width="2" stroke-linecap="round" stroke-linejoin="round" fill="none"/><path d="M 560 368 L 560 366 L 560 362 L 563 361 L 566 361 L 566 364 L 564 368 L 561 371 L 559 373" stroke="#ffffff" stroke-width="2" stroke-linecap="round" stroke-linejoin="round" fill="none"/><path d="M 578 355 L 577 355 L 576 350 L 582 347 L 590 343 L 596 340 L 598 338" stroke="#ffffff" stroke-width="2" stroke-linecap="round" stroke-linejoin="round" fill="none"/><path d="M 590 336 L 589 335 L 587 335 L 585 341 L 583 352 L 582 361 L 582 367 L 582 370" stroke="#ffffff" stroke-width="2" stroke-linecap="round" stroke-linejoin="round" fill="none"/><path d="M 594 354 L 594 353 L 595 348 L 598 347 L 600 347" stroke="#ffffff" stroke-width="2" stroke-linecap="round" stroke-linejoin="round" fill="none"/><path d="M 595 362 L 595 362 L 597 360 L 605 355 L 610 353" stroke="#ffffff" stroke-width="2" stroke-linecap="round" stroke-linejoin="round" fill="none"/><path d="M 48 458 L 48 458 L 46 457 L 46 457 L 45 470 L 45 483 L 46 491 L 48 496" stroke="#ffffff" stroke-width="2" stroke-linecap="round" stroke-linejoin="round" fill="none"/><path d="M 46 492 L 45 492 L 44 490 L 43 489 L 45 485 L 50 481 L 56 476 L 57 475" stroke="#ffffff" stroke-width="2" stroke-linecap="round" stroke-linejoin="round" fill="none"/><path d="M 61 456 L 60 455 L 58 455 L 58 463 L 59 474 L 60 485 L 61 493" stroke="#ffffff" stroke-width="2" stroke-linecap="round" stroke-linejoin="round" fill="none"/><path d="M 75 459 L 74 458 L 73 458 L 72 463 L 72 472 L 74 480 L 76 484 L 78 485 L 81 483 L 84 479 L 88 474" stroke="#ffffff" stroke-width="2" stroke-linecap="round" stroke-linejoin="round" fill="none"/><path d="M 118 436 L 118 436 L 117 434 L 118 440 L 119 449 L 119 454" stroke="#ffffff" stroke-width="2" stroke-linecap="round" stroke-linejoin="round" fill="none"/><path d="M 116 460 L 114 456 L 116 453 L 121 448 L 126 444 L 128 444 L 129 444 L 128 446 L 126 451 L 122 457 L 118 465 L 115 472 L 115 475" stroke="#ffffff" stroke-width="2" stroke-linecap="round" stroke-linejoin="round" fill="none"/><path d="M 120 457 L 120 455 L 120 454 L 121 457 L 121 464 L 121 472 L 121 479" stroke="#ffffff" stroke-width="2" stroke-linecap="round" stroke-linejoin="round" fill="none"/><path d="M 123 456 L 123 455 L 124 454 L 126 456 L 128 462 L 129 463" stroke="#ffffff" stroke-width="2" stroke-linecap="round" stroke-linejoin="round" fill="none"/><path d="M 131 461 L 130 459 L 130 454 L 134 449 L 139 444 L 144 443 L 146 444 L 147 447 L 147 451 L 146 454 L 145 456 L 142 456 L 140 455 L 138 451 L 138 447 L 138 444 L 138 444 L 139 447 L 139 454 L 137 462 L 134 472 L 133 476" stroke="#ffffff" stroke-width="2" stroke-linecap="round" stroke-linejoin="round" fill="none"/><path d="M 163 434 L 163 436 L 164 444 L 166 454 L 169 460 L 169 461" stroke="#ffffff" stroke-width="2" stroke-linecap="round" stroke-linejoin="round" fill="none"/><path d="M 171 438 L 170 437 L 168 439 L 166 446 L 164 455 L 162 462 L 160 465 L 158 464 L 157 462 L 157 457 L 160 450 L 166 443 L 173 439 L 178 441 L 178 447 L 178 452 L 178 455" stroke="#ffffff" stroke-width="2" stroke-linecap="round" stroke-linejoin="round" fill="none"/><path d="M 189 438 L 189 438 L 188 434 L 191 432 L 196 430 L 200 429 L 201 429 L 199 432 L 197 437 L 195 443 L 194 450 L 195 455 L 199 457 L 203 457" stroke="#ffffff" stroke-width="2" stroke-linecap="round" stroke-linejoin="round" fill="none"/><path d="M 233 425 L 231 424 L 229 424 L 228 426 L 227 435 L 227 447 L 229 453 L 233 454 L 236 452 L 241 445" stroke="#ffffff" stroke-width="2" stroke-linecap="round" stroke-linejoin="round" fill="none"/><path d="M 247 435 L 246 433 L 246 431 L 249 428 L 256 423 L 262 420 L 264 418" stroke="#ffffff" stroke-width="2" stroke-linecap="round" stroke-linejoin="round" fill="none"/><path d="M 260 411 L 259 411 L 258 412 L 257 419 L 255 431 L 254 441 L 253 447 L 253 449" stroke="#ffffff" stroke-width="2" stroke-linecap="round" stroke-linejoin="round" fill="none"/><path d="M 265 433 L 265 432 L 266 426 L 268 425" stroke="#ffffff" stroke-width="2" stroke-linecap="round" stroke-linejoin="round" fill="none"/><path d="M 266 439 L 265 441 L 268 439 L 273 434" stroke="#ffffff" stroke-width="2" stroke-linecap="round" stroke-linejoin="round" fill="none"/><path d="M 320 430 L 319 429 L 320 425 L 326 422 L 333 418" stroke="#ffffff" stroke-width="2" stroke-linecap="round" stroke-linejoin="round" fill="none"/><path d="M 325 414 L 323 414 L 321 416 L 319 424 L 318 433 L 320 438 L 323 440 L 327 439 L 332 435 L 334 432" stroke="#ffffff" stroke-width="2" stroke-linecap="round" stroke-linejoin="round" fill="none"/><path d="M 341 403 L 338 405 L 336 411 L 336 415 L 338 417 L 340 416 L 341 413 L 342 409 L 342 405 L 342 403 L 341 402 L 340 406" stroke="#ffffff" stroke-width="2" stroke-linecap="round" stroke-linejoin="round" fill="none"/><path d="M 348 421 L 347 420 L 350 414 L 353 413 L 354 413" stroke="#ffffff" stroke-width="2" stroke-linecap="round" stroke-linejoin="round" fill="none"/><path d="M 350 434 L 350 433 L 350 430 L 352 425 L 357 418 L 365 409 L 367 407" stroke="#ffffff" stroke-width="2" stroke-linecap="round" stroke-linejoin="round" fill="none"/><path d="M 378 400 L 376 401 L 372 405 L 371 409 L 370 413 L 370 414 L 369 414 L 369 412 L 369 409 L 372 405 L 374 401 L 377 400 L 380 401 L 382 407 L 382 414 L 378 422 L 373 430 L 369 434 L 367 436" stroke="#ffffff" stroke-width="2" stroke-linecap="round" stroke-linejoin="round" fill="none"/><path d="M 420 402 L 418 398 L 416 398 L 414 403 L 410 412 L 407 423 L 405 429 L 404 433 L 404 434" stroke="#ffffff" stroke-width="2" stroke-linecap="round" stroke-linejoin="round" fill="none"/><path d="M 404 421 L 404 420 L 406 415 L 413 412 L 421 410 L 427 409 L 429 408" stroke="#ffffff" stroke-width="2" stroke-linecap="round" stroke-linejoin="round" fill="none"/><path d="M 432 399 L 432 399 L 429 400 L 425 408 L 422 417 L 420 424 L 420 428" stroke="#ffffff" stroke-width="2" stroke-linecap="round" stroke-linejoin="round" fill="none"/><path d="M 445 399 L 440 406 L 438 414 L 437 421 L 438 423 L 441 424 L 445 423 L 452 420 L 459 416 L 461 415" stroke="#ffffff" stroke-width="2" stroke-linecap="round" stroke-linejoin="round" fill="none"/></svg>
