<svg xmlns="http://www.w3.org/2000/svg" width="571" height="220" viewBox="0 0 571 220"><path d="M 11 32 L 10 31 L 14 29 L 19 28 L 23 27 L 23 31 L 22 36 L 19 42 L 16 48 L 13 51 L 12 53 L 11 53 L 12 52 L 14 51 L 17 50 L 21 48 L 27 46 L 33 45 L 36 43" stroke="#ffffff" stroke-width="2" stroke-linecap="round" stroke-linejoin="round" fill="none"/><path d="M 49 20 L 46 20 L 44 22 L 42 29 L 42 38 L 43 43 L 47 44 L 50 43 L 53 39 L 56 33 L 58 26 L 58 21 L 55 18 L 51 18 L 47 21 L 41 27 L 41 28" stroke="#ffffff" stroke-width="2" stroke-linecap="round" stroke-linejoin="round" fill="none"/><path d="M 88 11 L 84 10 L 82 12 L 80 17 L 74 29 L 67 42 L 55 61 L 47 76 L 46 83 L 46 84" stroke="#ffffff" stroke-width="2" stroke-linecap="round" stroke-linejoin="round" fill="none"/><path d="M 85 48 L 84 48 L 82 50 L 82 56 L 82 65 L 81 72 L 81 75 L 82 75" stroke="#ffffff" stroke-width="2" stroke-linecap="round" stroke-linejoin="round" fill="none"/><path d="M 97 52 L 97 50 L 98 48 L 100 48 L 102 48 L 104 50 L 104 52 L 103 56 L 101 59 L 99 62 L 96 63 L 94 63 L 95 64 L 98 64 L 103 64 L 109 64 L 117 61" stroke="#ffffff" stroke-width="2" stroke-linecap="round" stroke-linejoin="round" fill="none"/><path d="M 187 33 L 186 33 L 182 32 L 179 33 L 175 36 L 172 41 L 170 49 L 170 54 L 172 57 L 178 58 L 187 54 L 198 46" stroke="#ffffff" stroke-width="2" stroke-linecap="round" stroke-linejoin="round" fill="none"/><path d="M 229 13 L 227 14 L 222 16 L 220 20 L 216 32 L 212 46 L 211 55 L 212 58 L 216 58 L 222 53 L 225 49 L 227 44 L 227 41 L 225 39 L 221 38 L 214 41 L 209 46 L 208 51" stroke="#ffffff" stroke-width="2" stroke-linecap="round" stroke-linejoin="round" fill="none"/><path d="M 251 32 L 248 32 L 247 33 L 243 39 L 242 44 L 243 48 L 247 48 L 253 44 L 256 40 L 257 36 L 257 33 L 255 30 L 251 29 L 246 32 L 243 38" stroke="#ffffff" stroke-width="2" stroke-linecap="round" stroke-linejoin="round" fill="none"/><path d="M 52 100 L 51 99 L 51 95 L 51 94 L 51 95 L 52 100 L 52 105 L 52 108" stroke="#ffffff" stroke-width="2" stroke-linecap="round" stroke-linejoin="round" fill="none"/><path d="M 62 92 L 62 91 L 63 90 L 60 95 L 57 99 L 54 104 L 51 108 L 50 109" stroke="#ffffff" stroke-width="2" stroke-linecap="round" stroke-linejoin="round" fill="none"/><path d="M 37 118 L 37 117 L 37 116 L 40 114 L 49 109 L 63 103 L 73 98 L 76 98" stroke="#ffffff" stroke-width="2" stroke-linecap="round" stroke-linejoin="round" fill="none"/><path d="M 55 109 L 53 111 L 51 117 L 51 130 L 51 139 L 52 143 L 52 144" stroke="#ffffff" stroke-width="2" stroke-linecap="round" stroke-linejoin="round" fill="none"/><path d="M 53 123 L 53 119 L 53 114 L 54 111 L 56 110 L 59 113 L 61 120 L 61 129 L 62 136 L 61 143 L 60 145" stroke="#ffffff" stroke-width="2" stroke-linecap="round" stroke-linejoin="round" fill="none"/><path d="M 55 124 L 53 121 L 53 120 L 54 120" stroke="#ffffff" stroke-width="2" stroke-linecap="round" stroke-linejoin="round" fill="none"/><path d="M 57 127 L 56 128 L 57 127" stroke="#ffffff" stroke-width="2" stroke-linecap="round" stroke-linejoin="round" fill="none"/><path d="M 65 110 L 65 114 L 65 120 L 66 123" stroke="#ffffff" stroke-width="2" stroke-linecap="round" stroke-linejoin="round" fill="none"/><path d="M 74 103 L 76 111 L 77 127 L 75 140 L 71 149 L 67 155 L 64 157" stroke="#ffffff" stroke-width="2" stroke-linecap="round" stroke-linejoin="round" fill="none"/><path d="M 99 105 L 97 105 L 95 105 L 95 110 L 95 120 L 95 128 L 95 134 L 95 135" stroke="#ffffff" stroke-width="2" stroke-linecap="round" stroke-linejoin="round" fill="none"/><path d="M 95 115 L 95 108 L 98 102 L 103 97 L 109 96 L 113 96 L 115 98 L 117 102 L 117 108 L 117 114 L 116 119 L 115 120" stroke="#ffffff" stroke-width="2" stroke-linecap="round" stroke-linejoin="round" fill="none"/><path d="M 106 108 L 106 109 L 105 115 L 104 119 L 103 122 L 102 122 L 102 118 L 102 114 L 104 112 L 105 110 L 106 110 L 106 112 L 105 114 L 105 115" stroke="#ffffff" stroke-width="2" stroke-linecap="round" stroke-linejoin="round" fill="none"/><path d="M 102 120 L 103 119 L 105 118" stroke="#ffffff" stroke-width="2" stroke-linecap="round" stroke-linejoin="round" fill="none"/><path d="M 97 134 L 95 134 L 94 134 L 95 134 L 101 130 L 109 123 L 110 122" stroke="#ffffff" stroke-width="2" stroke-linecap="round" stroke-linejoin="round" fill="none"/><path d="M 137 99 L 135 99 L 132 99 L 131 102 L 131 108 L 133 113 L 135 114" stroke="#ffffff" stroke-width="2" stroke-linecap="round" stroke-linejoin="round" fill="none"/><path d="M 144 107 L 145 107 L 145 106 L 145 105 L 143 105 L 141 107 L 137 110 L 134 114 L 133 119 L 135 123 L 141 123 L 149 119" stroke="#ffffff" stroke-width="2" stroke-linecap="round" stroke-linejoin="round" fill="none"/><path d="M 168 111 L 168 110 L 168 109 L 169 107 L 174 105 L 179 103 L 183 101" stroke="#ffffff" stroke-width="2" stroke-linecap="round" stroke-linejoin="round" fill="none"/><path d="M 206 86 L 205 86 L 204 86 L 202 86 L 198 92 L 194 98 L 191 101 L 191 102 L 192 101 L 195 99 L 199 98 L 203 97 L 205 96 L 207 97 L 207 98 L 205 100 L 204 101 L 202 101" stroke="#ffffff" stroke-width="2" stroke-linecap="round" stroke-linejoin="round" fill="none"/><path d="M 199 103 L 199 104 L 198 105 L 198 109 L 197 118 L 197 125 L 197 129" stroke="#ffffff" stroke-width="2" stroke-linecap="round" stroke-linejoin="round" fill="none"/><path d="M 198 108 L 196 109 L 193 112 L 190 118 L 188 123" stroke="#ffffff" stroke-width="2" stroke-linecap="round" stroke-linejoin="round" fill="none"/><path d="M 200 105 L 200 106 L 200 110 L 200 111" stroke="#ffffff" stroke-width="2" stroke-linecap="round" stroke-linejoin="round" fill="none"/><path d="M 208 98 L 208 97 L 208 96 L 211 94 L 217 92 L 222 89 L 223 86 L 222 85 L 221 84 L 220 84 L 220 85 L 219 89 L 218 95 L 216 101 L 214 108 L 213 110" stroke="#ffffff" stroke-width="2" stroke-linecap="round" stroke-linejoin="round" fill="none"/><path d="M 209 110 L 209 109 L 209 108 L 215 104 L 224 98 L 229 93 L 231 92 L 230 91 L 230 92 L 228 95 L 226 100 L 221 108 L 214 116 L 210 121 L 208 122" stroke="#ffffff" stroke-width="2" stroke-linecap="round" stroke-linejoin="round" fill="none"/><path d="M 222 108 L 221 109 L 220 113 L 220 119 L 220 124 L 220 127 L 219 128" stroke="#ffffff" stroke-width="2" stroke-linecap="round" stroke-linejoin="round" fill="none"/><path d="M 219 114 L 218 112 L 217 111 L 217 110 L 220 108 L 223 107 L 226 107 L 229 107 L 231 109 L 232 112 L 231 116 L 230 120 L 228 124 L 227 124" stroke="#ffffff" stroke-width="2" stroke-linecap="round" stroke-linejoin="round" fill="none"/><path d="M 223 119 L 222 118 L 220 116 L 220 115 L 221 114 L 224 114 L 225 114 L 226 115 L 226 117 L 225 121 L 223 124 L 222 126 L 222 127 L 224 126 L 228 122 L 230 121" stroke="#ffffff" stroke-width="2" stroke-linecap="round" stroke-linejoin="round" fill="none"/><path d="M 278 103 L 277 103 L 277 102 L 278 99 L 283 96 L 288 92 L 291 91 L 292 91" stroke="#ffffff" stroke-width="2" stroke-linecap="round" stroke-linejoin="round" fill="none"/><path d="M 290 87 L 289 86 L 288 86 L 286 93 L 282 106 L 280 118 L 279 121" stroke="#ffffff" stroke-width="2" stroke-linecap="round" stroke-linejoin="round" fill="none"/><path d="M 303 92 L 303 91 L 303 90 L 304 90 L 305 90 L 306 89 L 306 91 L 304 97 L 302 106 L 299 117 L 296 123 L 294 124 L 292 123 L 291 121 L 291 118 L 293 115 L 297 113 L 302 111" stroke="#ffffff" stroke-width="2" stroke-linecap="round" stroke-linejoin="round" fill="none"/><path d="M 322 93 L 321 94 L 319 97 L 318 105 L 317 114 L 316 118 L 317 115 L 320 111 L 323 107 L 326 106 L 329 108 L 330 112 L 334 113" stroke="#ffffff" stroke-width="2" stroke-linecap="round" stroke-linejoin="round" fill="none"/><path d="M 344 107 L 342 106 L 342 105 L 346 103 L 350 102 L 352 102 L 354 103 L 354 107 L 353 111 L 352 113 L 349 113 L 347 111 L 346 106 L 346 100 L 347 95 L 348 93 L 348 95 L 348 102 L 346 110 L 345 116 L 345 119" stroke="#ffffff" stroke-width="2" stroke-linecap="round" stroke-linejoin="round" fill="none"/><path d="M 360 89 L 362 90 L 365 95 L 368 101" stroke="#ffffff" stroke-width="2" stroke-linecap="round" stroke-linejoin="round" fill="none"/><path d="M 376 93 L 376 90 L 380 86 L 389 82 L 399 78 L 404 76 L 405 76" stroke="#ffffff" stroke-width="2" stroke-linecap="round" stroke-linejoin="round" fill="none"/><path d="M 386 74 L 385 75 L 383 76 L 383 80 L 384 87 L 384 88" stroke="#ffffff" stroke-width="2" stroke-linecap="round" stroke-linejoin="round" fill="none"/><path d="M 394 75 L 394 74 L 395 71 L 393 79 L 390 89 L 386 97" stroke="#ffffff" stroke-width="2" stroke-linecap="round" stroke-linejoin="round" fill="none"/><path d="M 375 105 L 375 103 L 377 100 L 385 95 L 395 91 L 402 87 L 404 85 L 403 84 L 401 85 L 397 89 L 393 94 L 388 101 L 382 109 L 375 117 L 372 120 L 371 120" stroke="#ffffff" stroke-width="2" stroke-linecap="round" stroke-linejoin="round" fill="none"/><path d="M 389 106 L 388 105 L 388 107 L 390 112 L 392 116" stroke="#ffffff" stroke-width="2" stroke-linecap="round" stroke-linejoin="round" fill="none"/><path d="M 390 111 L 389 108 L 390 106 L 395 104 L 401 102 L 403 102 L 404 104 L 402 108 L 400 112 L 398 115 L 398 116" stroke="#ffffff" stroke-width="2" stroke-linecap="round" stroke-linejoin="round" fill="none"/><path d="M 392 120 L 390 120 L 389 119 L 393 117 L 400 113" stroke="#ffffff" stroke-width="2" stroke-linecap="round" stroke-linejoin="round" fill="none"/><path d="M 423 91 L 423 90 L 422 87 L 426 83 L 431 81 L 434 81 L 435 80" stroke="#ffffff" stroke-width="2" stroke-linecap="round" stroke-linejoin="round" fill="none"/><path d="M 433 79 L 433 80 L 431 82 L 428 89 L 423 100 L 420 110 L 420 113" stroke="#ffffff" stroke-width="2" stroke-linecap="round" stroke-linejoin="round" fill="none"/><path d="M 439 88 L 440 87 L 443 84 L 446 85 L 448 87 L 450 88 L 452 88 L 453 87 L 453 86 L 450 88 L 446 94 L 442 102 L 438 110 L 436 115 L 434 116 L 434 114 L 434 111 L 436 108 L 440 105 L 446 102 L 452 100 L 454 99" stroke="#ffffff" stroke-width="2" stroke-linecap="round" stroke-linejoin="round" fill="none"/><path d="M 456 111 L 454 111 L 455 109 L 459 107 L 463 107 L 465 108 L 463 111 L 460 114 L 458 115" stroke="#ffffff" stroke-width="2" stroke-linecap="round" stroke-linejoin="round" fill="none"/><path d="M 470 92 L 470 91 L 470 88 L 473 86 L 478 86 L 482 86 L 485 86 L 484 87 L 482 92 L 479 99 L 477 107 L 477 114 L 481 116 L 486 114 L 489 111" stroke="#ffffff" stroke-width="2" stroke-linecap="round" stroke-linejoin="round" fill="none"/><path d="M 496 89 L 496 86 L 499 83 L 506 82 L 511 84 L 512 87 L 511 90 L 506 94 L 502 96 L 498 97 L 497 96 L 499 95 L 503 96 L 507 99 L 510 102 L 511 106 L 508 109 L 504 111 L 500 112 L 497 112 L 496 111 L 496 109 L 499 107 L 504 106 L 509 105 L 513 105" stroke="#ffffff" stroke-width="2" stroke-linecap="round" stroke-linejoin="round" fill="none"/><path d="M 337 200 L 337 200 L 332 200 L 327 201 L 325 202" stroke="#ffffff" stroke-width="2" stroke-linecap="round" stroke-linejoin="round" fill="none"/><path d="M 73 168 L 72 167 L 71 165 L 70 165 L 66 169 L 61 177 L 56 185 L 53 190" stroke="#ffffff" stroke-width="2" stroke-linecap="round" stroke-linejoin="round" fill="none"/><path d="M 57 191 L 56 189 L 57 186 L 62 182 L 67 179 L 70 178 L 72 177" stroke="#ffffff" stroke-width="2" stroke-linecap="round" stroke-linejoin="round" fill="none"/><path d="M 57 202 L 55 203 L 53 204 L 54 204 L 59 200 L 65 194 L 71 188 L 76 182 L 77 178 L 77 177" stroke="#ffffff" stroke-width="2" stroke-linecap="round" stroke-linejoin="round" fill="none"/><path d="M 63 173 L 62 171 L 62 170 L 65 175 L 66 185 L 67 197 L 68 207 L 72 210 L 78 206 L 82 200" stroke="#ffffff" stroke-width="2" stroke-linecap="round" stroke-linejoin="round" fill="none"/><path d="M 94 167 L 91 166 L 90 167 L 90 173 L 89 182 L 89 188" stroke="#ffffff" stroke-width="2" stroke-linecap="round" stroke-linejoin="round" fill="none"/><path d="M 90 178 L 90 176 L 91 172 L 96 170 L 101 168 L 104 167 L 105 166 L 106 164 L 105 162 L 103 161 L 102 161 L 101 161 L 100 161 L 100 163 L 100 168 L 100 172 L 100 177 L 100 186 L 100 190" stroke="#ffffff" stroke-width="2" stroke-linecap="round" stroke-linejoin="round" fill="none"/><path d="M 92 193 L 91 193 L 90 192 L 95 189 L 100 186 L 106 182 L 109 179 L 109 178 L 109 177 L 107 178 L 106 180 L 104 185 L 102 191 L 100 198 L 98 204 L 96 206" stroke="#ffffff" stroke-width="2" stroke-linecap="round" stroke-linejoin="round" fill="none"/><path d="M 105 183 L 105 182 L 105 183 L 106 189 L 108 194 L 111 198 L 115 198 L 120 193 L 123 187" stroke="#ffffff" stroke-width="2" stroke-linecap="round" stroke-linejoin="round" fill="none"/><path d="M 125 183 L 125 182 L 125 180 L 128 177 L 133 174 L 137 172 L 139 169" stroke="#ffffff" stroke-width="2" stroke-linecap="round" stroke-linejoin="round" fill="none"/><path d="M 136 164 L 135 164 L 134 166 L 133 176 L 131 189 L 130 196 L 130 197" stroke="#ffffff" stroke-width="2" stroke-linecap="round" stroke-linejoin="round" fill="none"/><path d="M 150 167 L 151 166 L 152 164 L 154 164 L 155 164 L 154 164 L 152 165 L 151 169 L 150 176 L 149 185 L 148 192 L 147 196 L 145 196 L 143 194 L 142 192 L 143 189 L 146 187 L 150 185 L 153 184" stroke="#ffffff" stroke-width="2" stroke-linecap="round" stroke-linejoin="round" fill="none"/><path d="M 166 182 L 164 182 L 165 180 L 169 178 L 174 176 L 178 175 L 180 176 L 180 179 L 180 182 L 179 184 L 177 184 L 175 184 L 174 181 L 172 177 L 172 173 L 172 170 L 173 170 L 173 175 L 173 183 L 172 190 L 172 194 L 173 194" stroke="#ffffff" stroke-width="2" stroke-linecap="round" stroke-linejoin="round" fill="none"/><path d="M 178 167 L 178 166 L 180 165 L 186 168 L 192 174 L 197 179 L 198 181" stroke="#ffffff" stroke-width="2" stroke-linecap="round" stroke-linejoin="round" fill="none"/><path d="M 190 155 L 188 154 L 188 157 L 188 158" stroke="#ffffff" stroke-width="2" stroke-linecap="round" stroke-linejoin="round" fill="none"/><path d="M 195 153 L 195 154" stroke="#ffffff" stroke-width="2" stroke-linecap="round" stroke-linejoin="round" fill="none"/><path d="M 209 162 L 208 164 L 208 171 L 208 181 L 208 188 L 208 192 L 208 193" stroke="#ffffff" stroke-width="2" stroke-linecap="round" stroke-linejoin="round" fill="none"/><path d="M 200 175 L 198 173 L 199 171 L 202 169 L 203 169" stroke="#ffffff" stroke-width="2" stroke-linecap="round" stroke-linejoin="round" fill="none"/><path d="M 202 189 L 201 189 L 201 188 L 203 185 L 209 179 L 215 171 L 219 165 L 221 163 L 222 163 L 222 165 L 223 172 L 225 180 L 230 184 L 232 185" stroke="#ffffff" stroke-width="2" stroke-linecap="round" stroke-linejoin="round" fill="none"/><path d="M 247 185 L 246 184 L 247 181 L 251 175 L 258 165 L 267 156 L 272 154 L 272 157 L 270 162 L 267 168 L 264 172" stroke="#ffffff" stroke-width="2" stroke-linecap="round" stroke-linejoin="round" fill="none"/><path d="M 251 156 L 250 155 L 251 159 L 256 168 L 263 181 L 267 188" stroke="#ffffff" stroke-width="2" stroke-linecap="round" stroke-linejoin="round" fill="none"/><path d="M 266 144 L 265 144 L 264 143 L 265 146 L 268 155 L 270 160" stroke="#ffffff" stroke-width="2" stroke-linecap="round" stroke-linejoin="round" fill="none"/><path d="M 284 157 L 283 156 L 281 154 L 284 152 L 291 149 L 297 147 L 301 145 L 299 144 L 298 144 L 296 143 L 295 142 L 295 144 L 295 152 L 295 163 L 294 172 L 292 177 L 290 178 L 288 177 L 288 174 L 288 168 L 291 162 L 294 160 L 297 161 L 298 168 L 298 176 L 296 183 L 294 188 L 294 189 L 294 188" stroke="#ffffff" stroke-width="2" stroke-linecap="round" stroke-linejoin="round" fill="none"/><path d="M 312 163 L 311 163 L 310 165 L 310 169 L 312 172 L 313 171" stroke="#ffffff" stroke-width="2" stroke-linecap="round" stroke-linejoin="round" fill="none"/><path d="M 319 163 L 320 160 L 321 159 L 321 162 L 321 168" stroke="#ffffff" stroke-width="2" stroke-linecap="round" stroke-linejoin="round" fill="none"/><path d="M 337 162 L 337 159 L 339 155 L 347 150 L 356 146 L 359 145 L 359 144" stroke="#ffffff" stroke-width="2" stroke-linecap="round" stroke-linejoin="round" fill="none"/><path d="M 354 142 L 351 142 L 350 143 L 349 148 L 349 160 L 349 174 L 350 182 L 350 184" stroke="#ffffff" stroke-width="2" stroke-linecap="round" stroke-linejoin="round" fill="none"/><path d="M 350 156 L 349 156 L 346 156 L 343 164 L 341 174 L 340 179 L 339 180" stroke="#ffffff" stroke-width="2" stroke-linecap="round" stroke-linejoin="round" fill="none"/><path d="M 351 153 L 350 153 L 349 153 L 349 157 L 351 160" stroke="#ffffff" stroke-width="2" stroke-linecap="round" stroke-linejoin="round" fill="none"/><path d="M 370 132 L 367 132 L 366 135 L 366 141 L 367 145" stroke="#ffffff" stroke-width="2" stroke-linecap="round" stroke-linejoin="round" fill="none"/><path d="M 373 133 L 370 133 L 367 137 L 365 143 L 364 146" stroke="#ffffff" stroke-width="2" stroke-linecap="round" stroke-linejoin="round" fill="none"/><path d="M 359 154 L 360 152 L 363 150 L 369 147 L 373 145" stroke="#ffffff" stroke-width="2" stroke-linecap="round" stroke-linejoin="round" fill="none"/><path d="M 362 159 L 360 159 L 358 158 L 360 157 L 365 155 L 371 152 L 374 150" stroke="#ffffff" stroke-width="2" stroke-linecap="round" stroke-linejoin="round" fill="none"/><path d="M 365 158 L 364 157 L 365 154 L 367 152 L 369 149 L 370 147 L 370 146 L 369 147 L 369 152 L 369 160 L 369 169 L 369 179 L 367 185 L 365 187" stroke="#ffffff" stroke-width="2" stroke-linecap="round" stroke-linejoin="round" fill="none"/><path d="M 358 171 L 358 170 L 357 168 L 359 168" stroke="#ffffff" stroke-width="2" stroke-linecap="round" stroke-linejoin="round" fill="none"/><path d="M 358 183 L 357 183 L 356 181 L 361 177 L 367 171" stroke="#ffffff" stroke-width="2" stroke-linecap="round" stroke-linejoin="round" fill="none"/><path d="M 381 153 L 380 153 L 378 154 L 376 159 L 372 166 L 369 170" stroke="#ffffff" stroke-width="2" stroke-linecap="round" stroke-linejoin="round" fill="none"/><path d="M 368 165 L 368 164 L 370 164 L 375 165 L 380 168 L 384 171 L 387 171" stroke="#ffffff" stroke-width="2" stroke-linecap="round" stroke-linejoin="round" fill="none"/><path d="M 401 154 L 397 156 L 394 162 L 394 172 L 396 179 L 397 181 L 399 180" stroke="#ffffff" stroke-width="2" stroke-linecap="round" stroke-linejoin="round" fill="none"/><path d="M 409 163 L 409 160 L 410 157 L 414 155 L 419 154 L 421 155" stroke="#ffffff" stroke-width="2" stroke-linecap="round" stroke-linejoin="round" fill="none"/><path d="M 412 170 L 411 171 L 408 172 L 409 173 L 415 172 L 423 167 L 425 166" stroke="#ffffff" stroke-width="2" stroke-linecap="round" stroke-linejoin="round" fill="none"/><path d="M 467 155 L 465 155 L 464 154 L 464 153 L 467 151 L 472 150 L 476 148 L 478 147" stroke="#ffffff" stroke-width="2" stroke-linecap="round" stroke-linejoin="round" fill="none"/><path d="M 463 163 L 462 163 L 464 162 L 468 159 L 475 154 L 479 150" stroke="#ffffff" stroke-width="2" stroke-linecap="round" stroke-linejoin="round" fill="none"/><path d="M 470 141 L 470 140 L 469 138 L 468 136 L 470 138 L 471 147 L 471 161 L 470 175 L 469 181 L 468 182 L 466 181 L 465 178 L 464 174 L 464 170 L 466 168 L 472 166 L 481 165 L 486 164" stroke="#ffffff" stroke-width="2" stroke-linecap="round" stroke-linejoin="round" fill="none"/><path d="M 495 159 L 494 158 L 492 156 L 493 155 L 497 153 L 501 153 L 504 152 L 504 153 L 502 156 L 499 162 L 497 169 L 497 175 L 500 176 L 504 174 L 508 169 L 511 163 L 512 157 L 513 154 L 514 157 L 517 161 L 519 167 L 521 170" stroke="#ffffff" stroke-width="2" stroke-linecap="round" stroke-linejoin="round" fill="none"/><path d="M 522 134 L 520 134 L 519 135 L 519 141 L 519 143" stroke="#ffffff" stroke-width="2" stroke-linecap="round" stroke-linejoin="round" fill="none"/><path d="M 529 135 L 527 133 L 527 132 L 527 138 L 528 144" stroke="#ffffff" stroke-width="2" stroke-linecap="round" stroke-linejoin="round" fill="none"/><path d="M 552 153 L 550 152 L 549 151 L 548 151 L 546 154 L 541 158 L 537 161 L 535 164 L 536 167 L 542 171 L 551 174 L 561 177" stroke="#ffffff" stroke-width="2" stroke-linecap="round" stroke-linejoin="round" fill="none"/></svg>
