<svg xmlns="http://www.w3.org/2000/svg" width="656" height="225" viewBox="0 0 656 225"><path d="M 22 21 L 22 19 L 22 17 L 21 17 L 18 19 L 16 23 L 13 27 L 11 32 L 10 36 L 12 38 L 17 36 L 24 31 L 30 27 L 33 26" stroke="#ffffff" stroke-width="2" stroke-linecap="round" stroke-linejoin="round" fill="none"/><path d="M 24 12 L 23 12 L 22 13 L 21 18 L 20 26 L 20 37 L 20 47 L 20 54" stroke="#ffffff" stroke-width="2" stroke-linecap="round" stroke-linejoin="round" fill="none"/><path d="M 58 10 L 57 10 L 54 10 L 52 11 L 50 17 L 46 30 L 42 47 L 37 62 L 34 71 L 33 77" stroke="#ffffff" stroke-width="2" stroke-linecap="round" stroke-linejoin="round" fill="none"/><path d="M 70 39 L 69 37 L 67 37 L 65 38 L 63 42 L 61 46 L 59 49 L 59 52 L 60 53 L 64 54 L 69 52 L 75 50 L 78 49" stroke="#ffffff" stroke-width="2" stroke-linecap="round" stroke-linejoin="round" fill="none"/><path d="M 74 36 L 73 35 L 72 36 L 71 41 L 70 51 L 69 63 L 68 73 L 68 76" stroke="#ffffff" stroke-width="2" stroke-linecap="round" stroke-linejoin="round" fill="none"/><path d="M 136 33 L 136 33 L 136 32 L 135 30 L 134 29 L 132 29 L 129 31 L 126 39 L 125 48 L 127 52 L 132 52 L 140 47 L 145 44" stroke="#ffffff" stroke-width="2" stroke-linecap="round" stroke-linejoin="round" fill="none"/><path d="M 187 16 L 186 16 L 184 15 L 182 15 L 180 17 L 178 22 L 176 32 L 174 46 L 174 53 L 177 55 L 181 52 L 185 47 L 188 42 L 188 37 L 186 35 L 182 35 L 177 38 L 173 44 L 172 47" stroke="#ffffff" stroke-width="2" stroke-linecap="round" stroke-linejoin="round" fill="none"/><path d="M 215 30 L 214 30 L 210 29 L 208 32 L 206 37 L 206 43 L 209 47 L 213 47 L 218 43 L 221 38 L 222 33 L 222 30 L 219 28 L 214 30 L 210 34" stroke="#ffffff" stroke-width="2" stroke-linecap="round" stroke-linejoin="round" fill="none"/><path d="M 78 107 L 77 107 L 74 107 L 73 107 L 70 110 L 69 117 L 69 127 L 71 132 L 74 133 L 78 131 L 81 125 L 84 118 L 85 111 L 84 106 L 81 105 L 76 107 L 72 111 L 70 117" stroke="#ffffff" stroke-width="2" stroke-linecap="round" stroke-linejoin="round" fill="none"/><path d="M 110 103 L 110 103 L 109 101 L 109 100 L 112 99 L 116 98" stroke="#ffffff" stroke-width="2" stroke-linecap="round" stroke-linejoin="round" fill="none"/><path d="M 109 112 L 109 112 L 112 109 L 118 105 L 122 102" stroke="#ffffff" stroke-width="2" stroke-linecap="round" stroke-linejoin="round" fill="none"/><path d="M 115 90 L 114 90 L 113 89 L 114 93 L 115 101 L 117 112 L 117 122 L 116 129 L 114 132 L 112 132 L 111 130 L 110 128 L 110 126 L 110 124 L 113 122 L 116 120 L 122 118" stroke="#ffffff" stroke-width="2" stroke-linecap="round" stroke-linejoin="round" fill="none"/><path d="M 142 107 L 141 106 L 144 103 L 148 101 L 150 100 L 151 100 L 151 101 L 149 104 L 147 108 L 145 113 L 145 118 L 148 120 L 153 120 L 156 117" stroke="#ffffff" stroke-width="2" stroke-linecap="round" stroke-linejoin="round" fill="none"/><path d="M 157 84 L 155 85 L 152 88 L 151 91 L 151 96" stroke="#ffffff" stroke-width="2" stroke-linecap="round" stroke-linejoin="round" fill="none"/><path d="M 167 78 L 166 77 L 165 80 L 165 84" stroke="#ffffff" stroke-width="2" stroke-linecap="round" stroke-linejoin="round" fill="none"/><path d="M 191 96 L 191 96 L 189 95 L 191 94 L 194 92 L 198 91" stroke="#ffffff" stroke-width="2" stroke-linecap="round" stroke-linejoin="round" fill="none"/><path d="M 193 106 L 191 106 L 189 105 L 189 105 L 192 101 L 199 97 L 204 95 L 207 94 L 207 97 L 204 104 L 199 111 L 193 118 L 190 122 L 189 123" stroke="#ffffff" stroke-width="2" stroke-linecap="round" stroke-linejoin="round" fill="none"/><path d="M 235 83 L 232 83 L 229 83 L 228 84 L 223 94 L 219 103 L 216 109 L 215 112" stroke="#ffffff" stroke-width="2" stroke-linecap="round" stroke-linejoin="round" fill="none"/><path d="M 224 99 L 223 98 L 222 98 L 222 98 L 222 107 L 221 116 L 221 123 L 221 125" stroke="#ffffff" stroke-width="2" stroke-linecap="round" stroke-linejoin="round" fill="none"/><path d="M 237 106 L 237 104 L 237 103 L 237 102 L 241 101" stroke="#ffffff" stroke-width="2" stroke-linecap="round" stroke-linejoin="round" fill="none"/><path d="M 245 115 L 245 115 L 243 115 L 245 112 L 251 105 L 260 95 L 266 87" stroke="#ffffff" stroke-width="2" stroke-linecap="round" stroke-linejoin="round" fill="none"/><path d="M 286 96 L 285 96 L 283 94 L 284 93 L 287 91 L 292 89 L 295 88" stroke="#ffffff" stroke-width="2" stroke-linecap="round" stroke-linejoin="round" fill="none"/><path d="M 283 106 L 282 106 L 281 106 L 283 105 L 288 102 L 293 99 L 296 98" stroke="#ffffff" stroke-width="2" stroke-linecap="round" stroke-linejoin="round" fill="none"/><path d="M 293 81 L 293 80 L 291 81 L 290 86 L 290 95 L 290 105 L 291 114 L 292 118 L 295 119 L 298 116 L 302 111 L 303 109" stroke="#ffffff" stroke-width="2" stroke-linecap="round" stroke-linejoin="round" fill="none"/><path d="M 370 79 L 370 77 L 371 75 L 374 73 L 377 73 L 380 73" stroke="#ffffff" stroke-width="2" stroke-linecap="round" stroke-linejoin="round" fill="none"/><path d="M 373 84 L 373 85 L 370 86 L 369 88 L 369 91 L 369 93" stroke="#ffffff" stroke-width="2" stroke-linecap="round" stroke-linejoin="round" fill="none"/><path d="M 376 86 L 375 84 L 375 83 L 375 83 L 376 86 L 377 87 L 378 89 L 379 90 L 379 91" stroke="#ffffff" stroke-width="2" stroke-linecap="round" stroke-linejoin="round" fill="none"/><path d="M 370 98 L 369 99 L 368 99 L 368 99 L 369 98 L 372 96 L 374 95" stroke="#ffffff" stroke-width="2" stroke-linecap="round" stroke-linejoin="round" fill="none"/><path d="M 375 96 L 375 96 L 373 97 L 372 98 L 371 99 L 371 101 L 373 101 L 376 99 L 379 97 L 381 96 L 382 95 L 380 96 L 376 100 L 371 104 L 370 105" stroke="#ffffff" stroke-width="2" stroke-linecap="round" stroke-linejoin="round" fill="none"/><path d="M 362 112 L 361 113 L 363 112 L 368 109 L 374 104 L 376 102" stroke="#ffffff" stroke-width="2" stroke-linecap="round" stroke-linejoin="round" fill="none"/><path d="M 388 79 L 387 78 L 386 75 L 387 73 L 392 71 L 395 70 L 397 70 L 398 71 L 398 71 L 396 72 L 393 74 L 391 77 L 389 81 L 387 85 L 387 88 L 387 89" stroke="#ffffff" stroke-width="2" stroke-linecap="round" stroke-linejoin="round" fill="none"/><path d="M 389 88 L 389 89 L 388 92 L 387 96 L 386 100 L 386 103 L 385 104" stroke="#ffffff" stroke-width="2" stroke-linecap="round" stroke-linejoin="round" fill="none"/><path d="M 388 92 L 388 91 L 386 89 L 386 87 L 388 86 L 391 85 L 394 85 L 396 85 L 397 86 L 398 88 L 397 90" stroke="#ffffff" stroke-width="2" stroke-linecap="round" stroke-linejoin="round" fill="none"/><path d="M 389 97 L 389 97 L 388 95 L 388 95 L 389 95 L 391 95 L 391 97 L 391 100 L 390 104 L 387 108 L 383 111 L 380 112 L 380 110 L 382 107 L 386 104 L 389 103 L 392 103 L 395 104 L 398 106 L 402 106 L 405 106" stroke="#ffffff" stroke-width="2" stroke-linecap="round" stroke-linejoin="round" fill="none"/><path d="M 413 86 L 412 85 L 412 83 L 415 80 L 420 77 L 425 75 L 427 75 L 428 76 L 427 78 L 425 81 L 422 84 L 421 85" stroke="#ffffff" stroke-width="2" stroke-linecap="round" stroke-linejoin="round" fill="none"/><path d="M 413 84 L 413 83 L 413 83 L 411 84 L 409 92 L 406 104 L 404 115 L 404 119 L 406 119" stroke="#ffffff" stroke-width="2" stroke-linecap="round" stroke-linejoin="round" fill="none"/><path d="M 425 63 L 425 63 L 423 62 L 422 62 L 420 71 L 418 83 L 416 89" stroke="#ffffff" stroke-width="2" stroke-linecap="round" stroke-linejoin="round" fill="none"/><path d="M 411 96 L 410 95 L 410 93 L 410 93 L 415 92 L 418 92 L 419 94 L 418 98 L 415 103 L 412 108 L 408 111 L 407 111" stroke="#ffffff" stroke-width="2" stroke-linecap="round" stroke-linejoin="round" fill="none"/><path d="M 409 101 L 408 100 L 408 101 L 410 103 L 415 106 L 420 108 L 428 108 L 430 107" stroke="#ffffff" stroke-width="2" stroke-linecap="round" stroke-linejoin="round" fill="none"/><path d="M 447 90 L 446 91 L 443 92 L 442 93 L 441 100 L 439 104 L 438 106 L 436 106 L 435 104 L 436 99 L 439 94 L 443 91 L 449 91 L 452 96 L 452 103 L 448 109 L 446 110" stroke="#ffffff" stroke-width="2" stroke-linecap="round" stroke-linejoin="round" fill="none"/><path d="M 467 83 L 466 83 L 465 82 L 467 79 L 473 75 L 481 71 L 487 68 L 491 68 L 491 68" stroke="#ffffff" stroke-width="2" stroke-linecap="round" stroke-linejoin="round" fill="none"/><path d="M 476 68 L 475 68 L 474 68 L 473 72 L 472 80 L 472 86" stroke="#ffffff" stroke-width="2" stroke-linecap="round" stroke-linejoin="round" fill="none"/><path d="M 486 63 L 485 64 L 483 66 L 480 71 L 477 77" stroke="#ffffff" stroke-width="2" stroke-linecap="round" stroke-linejoin="round" fill="none"/><path d="M 479 78 L 478 80 L 477 82 L 476 84 L 476 85" stroke="#ffffff" stroke-width="2" stroke-linecap="round" stroke-linejoin="round" fill="none"/><path d="M 478 83 L 478 84 L 476 86 L 475 91 L 473 98 L 472 101 L 472 102" stroke="#ffffff" stroke-width="2" stroke-linecap="round" stroke-linejoin="round" fill="none"/><path d="M 475 96 L 475 95 L 474 92 L 475 88 L 477 85 L 479 85 L 481 87 L 482 90 L 483 93 L 483 95 L 482 96" stroke="#ffffff" stroke-width="2" stroke-linecap="round" stroke-linejoin="round" fill="none"/><path d="M 474 98 L 474 98 L 473 96 L 474 94 L 477 93 L 478 92" stroke="#ffffff" stroke-width="2" stroke-linecap="round" stroke-linejoin="round" fill="none"/><path d="M 477 98 L 477 99 L 476 100 L 476 99 L 478 96 L 478 96" stroke="#ffffff" stroke-width="2" stroke-linecap="round" stroke-linejoin="round" fill="none"/><path d="M 464 92 L 464 93 L 462 93 L 462 94 L 462 97 L 463 100 L 463 102 L 464 104 L 463 107 L 461 111 L 461 113 L 461 114 L 464 110 L 470 104 L 477 95 L 480 90" stroke="#ffffff" stroke-width="2" stroke-linecap="round" stroke-linejoin="round" fill="none"/><path d="M 498 80 L 497 80 L 496 80 L 494 80 L 493 82 L 490 85 L 486 88" stroke="#ffffff" stroke-width="2" stroke-linecap="round" stroke-linejoin="round" fill="none"/><path d="M 486 91 L 486 91 L 487 91 L 490 90 L 495 89 L 498 88 L 499 88" stroke="#ffffff" stroke-width="2" stroke-linecap="round" stroke-linejoin="round" fill="none"/><path d="M 469 114 L 469 114 L 467 113 L 470 110 L 477 106 L 485 102 L 491 99 L 494 95 L 495 93" stroke="#ffffff" stroke-width="2" stroke-linecap="round" stroke-linejoin="round" fill="none"/><path d="M 484 94 L 484 94 L 483 94 L 483 97 L 483 105 L 482 115 L 482 119 L 482 121" stroke="#ffffff" stroke-width="2" stroke-linecap="round" stroke-linejoin="round" fill="none"/><path d="M 484 104 L 481 105 L 478 109 L 475 114 L 472 118 L 469 119" stroke="#ffffff" stroke-width="2" stroke-linecap="round" stroke-linejoin="round" fill="none"/><path d="M 480 108 L 483 107 L 493 107" stroke="#ffffff" stroke-width="2" stroke-linecap="round" stroke-linejoin="round" fill="none"/><path d="M 511 94 L 511 94 L 511 95 L 512 95 L 513 94 L 514 94 L 515 96 L 515 99 L 514 103 L 513 105 L 511 106 L 509 108 L 507 109 L 506 110 L 505 110 L 505 108 L 505 105 L 507 102 L 511 98 L 516 94 L 520 92 L 523 92 L 525 95 L 527 99 L 527 104 L 524 109 L 521 112 L 520 112" stroke="#ffffff" stroke-width="2" stroke-linecap="round" stroke-linejoin="round" fill="none"/><path d="M 542 97 L 542 97 L 541 96 L 541 94 L 544 92 L 547 91 L 550 92 L 550 96 L 549 100 L 547 103 L 545 104 L 542 105 L 540 104 L 540 103 L 543 101 L 549 99 L 558 95 L 568 91 L 575 89 L 576 89" stroke="#ffffff" stroke-width="2" stroke-linecap="round" stroke-linejoin="round" fill="none"/><path d="M 567 79 L 565 79 L 565 79 L 563 90 L 561 101 L 559 108 L 557 113 L 557 115" stroke="#ffffff" stroke-width="2" stroke-linecap="round" stroke-linejoin="round" fill="none"/><path d="M 584 96 L 581 97 L 579 99 L 579 102 L 579 105 L 581 106" stroke="#ffffff" stroke-width="2" stroke-linecap="round" stroke-linejoin="round" fill="none"/><path d="M 594 90 L 596 89 L 604 87 L 607 86 L 608 84 L 609 82 L 607 81 L 605 81 L 603 81 L 602 83 L 601 86 L 599 90 L 596 96 L 594 102 L 594 106 L 594 106 L 594 105 L 594 103 L 594 101 L 594 100 L 596 98 L 600 97 L 607 95 L 614 94" stroke="#ffffff" stroke-width="2" stroke-linecap="round" stroke-linejoin="round" fill="none"/><path d="M 625 80 L 623 80 L 623 80 L 620 90 L 620 96 L 621 99 L 626 99 L 631 97 L 637 95" stroke="#ffffff" stroke-width="2" stroke-linecap="round" stroke-linejoin="round" fill="none"/><path d="M 641 76 L 640 76 L 633 77 L 631 78 L 630 82" stroke="#ffffff" stroke-width="2" stroke-linecap="round" stroke-linejoin="round" fill="none"/><path d="M 644 75 L 644 75 L 644 73 L 644 76" stroke="#ffffff" stroke-width="2" stroke-linecap="round" stroke-linejoin="round" fill="none"/><path d="M 592 102 L 592 101 L 592 101 L 592 100 L 592 99 L 592 99 L 591 99 L 590 101 L 590 103 L 589 105 L 589 107 L 589 108 L 590 108 L 592 107 L 593 107 L 595 107" stroke="#ffffff" stroke-width="2" stroke-linecap="round" stroke-linejoin="round" fill="none"/><path d="M 587 121 L 587 119 L 587 119 L 588 119 L 589 124 L 590 130 L 591 133 L 591 135" stroke="#ffffff" stroke-width="2" stroke-linecap="round" stroke-linejoin="round" fill="none"/><path d="M 598 120 L 596 119 L 594 120 L 592 126 L 590 132 L 588 137 L 586 139 L 585 139 L 584 138 L 584 135 L 586 132 L 589 128 L 594 125 L 599 123 L 602 125 L 603 130 L 600 137 L 596 141 L 595 142" stroke="#ffffff" stroke-width="2" stroke-linecap="round" stroke-linejoin="round" fill="none"/><path d="M 610 129 L 610 127 L 610 125 L 614 123 L 620 120 L 625 119 L 628 117 L 630 116" stroke="#ffffff" stroke-width="2" stroke-linecap="round" stroke-linejoin="round" fill="none"/><path d="M 625 112 L 624 112 L 623 111 L 623 111 L 622 115 L 618 124 L 612 134 L 609 141 L 608 145" stroke="#ffffff" stroke-width="2" stroke-linecap="round" stroke-linejoin="round" fill="none"/><path d="M 626 131 L 625 128 L 625 127 L 626 126 L 629 126 L 631 126" stroke="#ffffff" stroke-width="2" stroke-linecap="round" stroke-linejoin="round" fill="none"/><path d="M 626 137 L 624 137 L 630 136 L 639 133 L 646 131" stroke="#ffffff" stroke-width="2" stroke-linecap="round" stroke-linejoin="round" fill="none"/><path d="M 26 171 L 25 171 L 24 172 L 24 179 L 25 183 L 25 183" stroke="#ffffff" stroke-width="2" stroke-linecap="round" stroke-linejoin="round" fill="none"/><path d="M 26 171 L 26 168 L 27 166 L 30 165 L 32 165 L 35 168 L 35 171 L 35 175" stroke="#ffffff" stroke-width="2" stroke-linecap="round" stroke-linejoin="round" fill="none"/><path d="M 25 176 L 26 176 L 26 174 L 27 173 L 29 173 L 30 172" stroke="#ffffff" stroke-width="2" stroke-linecap="round" stroke-linejoin="round" fill="none"/><path d="M 30 176 L 30 176 L 29 173 L 29 172" stroke="#ffffff" stroke-width="2" stroke-linecap="round" stroke-linejoin="round" fill="none"/><path d="M 13 193 L 10 194 L 12 190 L 20 183 L 31 175 L 40 170 L 44 168 L 47 167" stroke="#ffffff" stroke-width="2" stroke-linecap="round" stroke-linejoin="round" fill="none"/><path d="M 27 183 L 26 183 L 23 187 L 23 195 L 23 201" stroke="#ffffff" stroke-width="2" stroke-linecap="round" stroke-linejoin="round" fill="none"/><path d="M 27 190 L 27 190 L 27 187 L 27 186 L 28 186 L 28 186" stroke="#ffffff" stroke-width="2" stroke-linecap="round" stroke-linejoin="round" fill="none"/><path d="M 27 194 L 25 193 L 28 190" stroke="#ffffff" stroke-width="2" stroke-linecap="round" stroke-linejoin="round" fill="none"/><path d="M 21 215 L 20 214 L 22 208 L 28 200" stroke="#ffffff" stroke-width="2" stroke-linecap="round" stroke-linejoin="round" fill="none"/><path d="M 32 177 L 28 176 L 28 179 L 29 187 L 30 197 L 32 206 L 33 210" stroke="#ffffff" stroke-width="2" stroke-linecap="round" stroke-linejoin="round" fill="none"/><path d="M 40 191 L 39 185 L 40 183 L 42 182 L 44 183 L 45 186 L 45 190 L 44 194 L 43 198 L 42 199" stroke="#ffffff" stroke-width="2" stroke-linecap="round" stroke-linejoin="round" fill="none"/><path d="M 37 190 L 37 190 L 37 189 L 40 189 L 44 191 L 50 193 L 54 193" stroke="#ffffff" stroke-width="2" stroke-linecap="round" stroke-linejoin="round" fill="none"/><path d="M 71 156 L 69 156 L 69 156 L 67 160 L 66 166 L 66 168" stroke="#ffffff" stroke-width="2" stroke-linecap="round" stroke-linejoin="round" fill="none"/><path d="M 63 174 L 62 170 L 67 166 L 74 162 L 80 160 L 82 160" stroke="#ffffff" stroke-width="2" stroke-linecap="round" stroke-linejoin="round" fill="none"/><path d="M 72 170 L 71 171 L 70 173 L 70 176 L 70 177" stroke="#ffffff" stroke-width="2" stroke-linecap="round" stroke-linejoin="round" fill="none"/><path d="M 77 170 L 77 169 L 77 168 L 77 167 L 77 166 L 78 167 L 78 170 L 76 173" stroke="#ffffff" stroke-width="2" stroke-linecap="round" stroke-linejoin="round" fill="none"/><path d="M 71 177 L 72 177 L 73 176 L 75 175 L 77 174" stroke="#ffffff" stroke-width="2" stroke-linecap="round" stroke-linejoin="round" fill="none"/><path d="M 70 180 L 68 182 L 67 184 L 66 195 L 66 200 L 66 204 L 67 206" stroke="#ffffff" stroke-width="2" stroke-linecap="round" stroke-linejoin="round" fill="none"/><path d="M 69 191 L 69 191 L 70 185 L 75 181 L 82 176 L 88 174 L 92 174 L 95 177 L 95 181 L 95 186 L 93 191 L 92 195 L 91 196" stroke="#ffffff" stroke-width="2" stroke-linecap="round" stroke-linejoin="round" fill="none"/><path d="M 80 187 L 80 187 L 78 187 L 77 188 L 77 191 L 77 194 L 77 195" stroke="#ffffff" stroke-width="2" stroke-linecap="round" stroke-linejoin="round" fill="none"/><path d="M 81 189 L 81 188 L 80 186 L 81 184 L 82 184 L 83 184 L 83 186 L 83 188 L 81 190 L 80 192 L 79 193 L 78 195 L 77 195 L 81 192 L 85 188" stroke="#ffffff" stroke-width="2" stroke-linecap="round" stroke-linejoin="round" fill="none"/><path d="M 126 170 L 126 170 L 123 169 L 121 170 L 119 172 L 117 175 L 116 178 L 116 182 L 118 185 L 123 186 L 127 186" stroke="#ffffff" stroke-width="2" stroke-linecap="round" stroke-linejoin="round" fill="none"/><path d="M 124 153 L 123 154 L 122 154 L 122 158 L 122 160 L 124 161" stroke="#ffffff" stroke-width="2" stroke-linecap="round" stroke-linejoin="round" fill="none"/><path d="M 133 150 L 133 150 L 133 152 L 133 155" stroke="#ffffff" stroke-width="2" stroke-linecap="round" stroke-linejoin="round" fill="none"/><path d="M 156 156 L 156 156 L 153 160" stroke="#ffffff" stroke-width="2" stroke-linecap="round" stroke-linejoin="round" fill="none"/><path d="M 150 162 L 147 162 L 145 164 L 144 167 L 144 171 L 144 173 L 146 174 L 148 174 L 152 172 L 156 172 L 159 172 L 160 175 L 158 178 L 154 182 L 149 184 L 145 185" stroke="#ffffff" stroke-width="2" stroke-linecap="round" stroke-linejoin="round" fill="none"/><path d="M 172 163 L 171 165 L 171 170 L 171 174 L 173 176" stroke="#ffffff" stroke-width="2" stroke-linecap="round" stroke-linejoin="round" fill="none"/><path d="M 183 163 L 183 162 L 183 161 L 183 161 L 183 162 L 183 166 L 183 169" stroke="#ffffff" stroke-width="2" stroke-linecap="round" stroke-linejoin="round" fill="none"/><path d="M 206 165 L 206 165 L 204 164 L 204 165 L 205 169 L 205 173 L 203 177 L 202 179 L 200 179 L 200 176 L 200 172 L 202 167 L 206 163 L 212 161 L 218 161 L 220 165 L 219 171 L 216 177 L 214 181" stroke="#ffffff" stroke-width="2" stroke-linecap="round" stroke-linejoin="round" fill="none"/><path d="M 235 167 L 233 167 L 231 165 L 234 164 L 236 163 L 238 162 L 240 161 L 240 161 L 240 163 L 238 169 L 236 176 L 236 182 L 237 185 L 240 183 L 243 179 L 245 174 L 247 169 L 247 165 L 248 164 L 248 163 L 249 165 L 250 168 L 251 173 L 253 176 L 255 178" stroke="#ffffff" stroke-width="2" stroke-linecap="round" stroke-linejoin="round" fill="none"/><path d="M 256 146 L 254 146 L 251 152 L 252 154 L 254 154 L 257 151 L 260 147 L 262 144 L 263 142 L 263 142 L 262 147 L 262 153 L 262 154" stroke="#ffffff" stroke-width="2" stroke-linecap="round" stroke-linejoin="round" fill="none"/><path d="M 266 166 L 265 166 L 264 165 L 264 164 L 270 162 L 274 161 L 276 160 L 277 160 L 277 160 L 275 162 L 272 166 L 271 170 L 270 175 L 273 179 L 278 179 L 281 177" stroke="#ffffff" stroke-width="2" stroke-linecap="round" stroke-linejoin="round" fill="none"/><path d="M 293 167 L 293 166 L 294 163 L 299 160 L 306 157 L 310 155 L 311 155" stroke="#ffffff" stroke-width="2" stroke-linecap="round" stroke-linejoin="round" fill="none"/><path d="M 304 150 L 304 150 L 302 149 L 301 149 L 301 154 L 300 163 L 299 172 L 298 179 L 298 183 L 298 185" stroke="#ffffff" stroke-width="2" stroke-linecap="round" stroke-linejoin="round" fill="none"/><path d="M 306 172 L 306 172 L 306 170 L 306 169 L 309 167 L 312 166" stroke="#ffffff" stroke-width="2" stroke-linecap="round" stroke-linejoin="round" fill="none"/><path d="M 309 179 L 309 179 L 306 180 L 306 181 L 310 179 L 315 176 L 323 171" stroke="#ffffff" stroke-width="2" stroke-linecap="round" stroke-linejoin="round" fill="none"/></svg>
