<svg xmlns="http://www.w3.org/2000/svg" width="691" height="525" viewBox="0 0 691 525"><path d="M 21 25 L 21 24 L 20 22 L 21 22 L 21 27 L 21 36 L 20 44 L 20 51" stroke="#ffffff" stroke-width="2" stroke-linecap="round" stroke-linejoin="round" fill="none"/><path d="M 45 26 L 45 25 L 45 22 L 45 19 L 45 16 L 44 15 L 42 14 L 41 15 L 39 16 L 38 20 L 38 25 L 38 30 L 39 36 L 40 40 L 41 42 L 39 42 L 36 42 L 33 42 L 31 40 L 30 39 L 31 36 L 36 31 L 42 26 L 47 24" stroke="#ffffff" stroke-width="2" stroke-linecap="round" stroke-linejoin="round" fill="none"/><path d="M 72 13 L 71 11 L 71 10 L 69 13 L 66 22 L 60 37 L 53 51 L 46 63 L 44 68" stroke="#ffffff" stroke-width="2" stroke-linecap="round" stroke-linejoin="round" fill="none"/><path d="M 79 41 L 78 40 L 77 40 L 76 40 L 74 44 L 72 52 L 72 60" stroke="#ffffff" stroke-width="2" stroke-linecap="round" stroke-linejoin="round" fill="none"/><path d="M 91 37 L 90 37 L 88 37 L 87 38 L 87 42 L 88 48 L 91 53 L 94 53 L 97 51 L 99 46 L 99 42 L 99 38 L 98 36 L 96 36 L 93 36 L 90 39 L 88 42" stroke="#ffffff" stroke-width="2" stroke-linecap="round" stroke-linejoin="round" fill="none"/><path d="M 169 31 L 168 31 L 167 29 L 166 27 L 164 27 L 162 29 L 159 36 L 157 44 L 157 49 L 160 50 L 168 46 L 174 43" stroke="#ffffff" stroke-width="2" stroke-linecap="round" stroke-linejoin="round" fill="none"/><path d="M 200 25 L 198 23 L 196 23 L 195 25 L 195 28 L 195 31 L 198 34 L 203 35 L 206 38 L 207 41 L 205 44 L 202 45 L 199 46 L 195 44 L 194 43" stroke="#ffffff" stroke-width="2" stroke-linecap="round" stroke-linejoin="round" fill="none"/><path d="M 197 26 L 197 25 L 197 24 L 201 25 L 207 27 L 214 27" stroke="#ffffff" stroke-width="2" stroke-linecap="round" stroke-linejoin="round" fill="none"/><path d="M 227 25 L 225 25 L 224 24 L 223 24 L 223 28 L 223 35 L 224 41 L 228 43 L 233 41 L 236 35 L 237 30 L 236 26 L 233 23 L 231 22 L 226 24 L 222 30" stroke="#ffffff" stroke-width="2" stroke-linecap="round" stroke-linejoin="round" fill="none"/><path d="M 300 12 L 300 11 L 299 10 L 297 10 L 294 16 L 288 28 L 282 41 L 277 51 L 275 58 L 274 59" stroke="#ffffff" stroke-width="2" stroke-linecap="round" stroke-linejoin="round" fill="none"/><path d="M 334 25 L 333 25 L 331 24 L 330 24 L 328 24 L 325 29 L 322 37 L 321 46 L 322 49 L 325 50 L 332 46" stroke="#ffffff" stroke-width="2" stroke-linecap="round" stroke-linejoin="round" fill="none"/><path d="M 367 18 L 366 17 L 364 17 L 362 22 L 360 30 L 359 36 L 359 38" stroke="#ffffff" stroke-width="2" stroke-linecap="round" stroke-linejoin="round" fill="none"/><path d="M 365 22 L 365 21 L 365 19 L 365 18 L 365 17 L 366 19 L 367 25 L 366 34 L 363 43 L 358 50 L 355 55" stroke="#ffffff" stroke-width="2" stroke-linecap="round" stroke-linejoin="round" fill="none"/><path d="M 388 30 L 387 29 L 386 28 L 386 27 L 389 27 L 391 28 L 392 29 L 392 32 L 389 35 L 385 38 L 381 39 L 378 39 L 377 39 L 379 39 L 383 40 L 388 42 L 393 43 L 399 44 L 402 44" stroke="#ffffff" stroke-width="2" stroke-linecap="round" stroke-linejoin="round" fill="none"/><path d="M 382 32 L 381 32 L 380 32 L 380 31 L 382 30 L 386 29 L 388 28" stroke="#ffffff" stroke-width="2" stroke-linecap="round" stroke-linejoin="round" fill="none"/><path d="M 185 69 L 185 66 L 185 64 L 184 64 L 182 67 L 179 73 L 176 80 L 173 89 L 170 95 L 169 99 L 169 100 L 169 98 L 171 96 L 174 93 L 178 90 L 184 85 L 186 84" stroke="#ffffff" stroke-width="2" stroke-linecap="round" stroke-linejoin="round" fill="none"/><path d="M 165 80 L 164 80 L 163 78 L 163 80 L 165 87 L 168 94 L 170 97" stroke="#ffffff" stroke-width="2" stroke-linecap="round" stroke-linejoin="round" fill="none"/><path d="M 47 126 L 47 125 L 45 124 L 44 124 L 44 129 L 44 136 L 44 144 L 45 148" stroke="#ffffff" stroke-width="2" stroke-linecap="round" stroke-linejoin="round" fill="none"/><path d="M 57 127 L 55 127 L 53 127 L 53 129 L 54 134 L 56 139 L 59 141 L 61 142 L 62 139 L 63 135 L 64 130 L 64 127 L 63 125 L 62 124 L 60 124 L 57 125 L 55 129 L 54 132" stroke="#ffffff" stroke-width="2" stroke-linecap="round" stroke-linejoin="round" fill="none"/><path d="M 99 124 L 98 123 L 97 122 L 96 122 L 96 126 L 97 133 L 98 140 L 99 144 L 100 145" stroke="#ffffff" stroke-width="2" stroke-linecap="round" stroke-linejoin="round" fill="none"/><path d="M 108 122 L 108 121 L 108 125 L 108 132 L 107 136" stroke="#ffffff" stroke-width="2" stroke-linecap="round" stroke-linejoin="round" fill="none"/><path d="M 124 133 L 123 133 L 121 133 L 121 132 L 123 130 L 125 129 L 127 129 L 129 130 L 130 133 L 130 138 L 127 143 L 126 144" stroke="#ffffff" stroke-width="2" stroke-linecap="round" stroke-linejoin="round" fill="none"/><path d="M 141 130 L 140 130 L 139 129 L 140 128 L 143 127 L 147 126 L 151 125 L 152 124" stroke="#ffffff" stroke-width="2" stroke-linecap="round" stroke-linejoin="round" fill="none"/><path d="M 142 136 L 139 136 L 138 135 L 140 134 L 145 132 L 150 131 L 151 130" stroke="#ffffff" stroke-width="2" stroke-linecap="round" stroke-linejoin="round" fill="none"/><path d="M 148 117 L 148 116 L 147 116 L 147 117 L 147 124 L 147 133 L 147 140 L 149 144 L 152 143 L 154 141" stroke="#ffffff" stroke-width="2" stroke-linecap="round" stroke-linejoin="round" fill="none"/><path d="M 169 120 L 168 120 L 165 119 L 165 120 L 167 123 L 168 125" stroke="#ffffff" stroke-width="2" stroke-linecap="round" stroke-linejoin="round" fill="none"/><path d="M 177 122 L 176 121 L 174 120 L 173 120 L 173 122 L 173 124 L 172 126 L 170 129 L 169 133 L 168 136 L 170 139 L 174 139 L 179 136 L 181 135" stroke="#ffffff" stroke-width="2" stroke-linecap="round" stroke-linejoin="round" fill="none"/><path d="M 169 125 L 168 125 L 167 125 L 167 127 L 168 129 L 170 130" stroke="#ffffff" stroke-width="2" stroke-linecap="round" stroke-linejoin="round" fill="none"/><path d="M 193 127 L 192 127 L 189 126 L 190 125 L 196 124 L 199 123" stroke="#ffffff" stroke-width="2" stroke-linecap="round" stroke-linejoin="round" fill="none"/><path d="M 221 111 L 221 110 L 221 109 L 221 108 L 222 108 L 222 109 L 221 111 L 218 115 L 216 118 L 214 119 L 216 118 L 218 118 L 220 117 L 221 117 L 222 118 L 222 120 L 221 121 L 222 122 L 224 122" stroke="#ffffff" stroke-width="2" stroke-linecap="round" stroke-linejoin="round" fill="none"/><path d="M 221 119 L 220 119 L 218 121 L 218 125 L 219 130 L 219 135 L 220 137" stroke="#ffffff" stroke-width="2" stroke-linecap="round" stroke-linejoin="round" fill="none"/><path d="M 217 128 L 216 129 L 213 130 L 210 132 L 209 135 L 209 136" stroke="#ffffff" stroke-width="2" stroke-linecap="round" stroke-linejoin="round" fill="none"/><path d="M 218 125 L 217 124 L 220 124 L 222 123" stroke="#ffffff" stroke-width="2" stroke-linecap="round" stroke-linejoin="round" fill="none"/><path d="M 228 117 L 228 116 L 227 114 L 228 111 L 232 108 L 238 105 L 242 102 L 242 101 L 239 100 L 237 100 L 236 101 L 235 103 L 234 108 L 233 113 L 233 118" stroke="#ffffff" stroke-width="2" stroke-linecap="round" stroke-linejoin="round" fill="none"/><path d="M 227 124 L 227 123 L 227 121 L 229 118 L 234 114 L 239 112 L 243 110" stroke="#ffffff" stroke-width="2" stroke-linecap="round" stroke-linejoin="round" fill="none"/><path d="M 246 108 L 246 109 L 245 110 L 242 111 L 240 114 L 237 119 L 234 124 L 230 128 L 228 130" stroke="#ffffff" stroke-width="2" stroke-linecap="round" stroke-linejoin="round" fill="none"/><path d="M 235 122 L 233 122 L 232 123 L 231 127 L 230 132 L 231 136" stroke="#ffffff" stroke-width="2" stroke-linecap="round" stroke-linejoin="round" fill="none"/><path d="M 236 125 L 236 124 L 236 122 L 236 121 L 237 120 L 239 119 L 241 119 L 243 119 L 243 121 L 243 125 L 242 128 L 242 131" stroke="#ffffff" stroke-width="2" stroke-linecap="round" stroke-linejoin="round" fill="none"/><path d="M 240 128 L 239 128 L 237 126 L 238 125 L 240 125" stroke="#ffffff" stroke-width="2" stroke-linecap="round" stroke-linejoin="round" fill="none"/><path d="M 235 138 L 233 138 L 232 138 L 234 136 L 239 133 L 241 132" stroke="#ffffff" stroke-width="2" stroke-linecap="round" stroke-linejoin="round" fill="none"/><path d="M 13 185 L 12 186 L 10 186 L 11 185 L 16 181 L 26 175 L 38 170 L 44 169 L 45 169" stroke="#ffffff" stroke-width="2" stroke-linecap="round" stroke-linejoin="round" fill="none"/><path d="M 25 169 L 24 169 L 23 168 L 23 171 L 24 175 L 26 180 L 27 182" stroke="#ffffff" stroke-width="2" stroke-linecap="round" stroke-linejoin="round" fill="none"/><path d="M 30 166 L 29 165 L 29 164 L 30 169 L 31 179 L 31 193 L 29 204 L 27 209 L 26 210" stroke="#ffffff" stroke-width="2" stroke-linecap="round" stroke-linejoin="round" fill="none"/><path d="M 57 172 L 56 172 L 54 172 L 53 171 L 53 173 L 52 178 L 48 184 L 43 192 L 41 195" stroke="#ffffff" stroke-width="2" stroke-linecap="round" stroke-linejoin="round" fill="none"/><path d="M 50 184 L 49 184 L 48 184 L 47 184 L 47 188 L 49 194 L 49 201" stroke="#ffffff" stroke-width="2" stroke-linecap="round" stroke-linejoin="round" fill="none"/><path d="M 62 173 L 61 173 L 60 173 L 60 176 L 62 185 L 63 194 L 64 200" stroke="#ffffff" stroke-width="2" stroke-linecap="round" stroke-linejoin="round" fill="none"/><path d="M 62 188 L 61 188 L 62 187 L 67 187 L 70 186" stroke="#ffffff" stroke-width="2" stroke-linecap="round" stroke-linejoin="round" fill="none"/><path d="M 75 165 L 72 167 L 70 170 L 71 174" stroke="#ffffff" stroke-width="2" stroke-linecap="round" stroke-linejoin="round" fill="none"/><path d="M 81 163 L 80 162 L 78 162 L 77 167" stroke="#ffffff" stroke-width="2" stroke-linecap="round" stroke-linejoin="round" fill="none"/><path d="M 85 192 L 84 192 L 83 192 L 85 189 L 88 188 L 90 188 L 92 189 L 92 193 L 90 197 L 88 199" stroke="#ffffff" stroke-width="2" stroke-linecap="round" stroke-linejoin="round" fill="none"/><path d="M 104 183 L 103 181 L 103 179 L 107 177 L 110 175 L 111 174" stroke="#ffffff" stroke-width="2" stroke-linecap="round" stroke-linejoin="round" fill="none"/><path d="M 111 170 L 111 171 L 110 173 L 108 178 L 106 186 L 104 193 L 103 197" stroke="#ffffff" stroke-width="2" stroke-linecap="round" stroke-linejoin="round" fill="none"/><path d="M 125 170 L 124 169 L 122 168 L 121 168 L 122 168 L 126 168 L 128 168 L 129 168 L 128 170 L 126 174 L 123 179 L 121 185 L 120 190 L 120 193 L 118 194 L 116 194 L 115 193 L 115 192 L 116 190 L 120 188 L 125 185 L 126 184" stroke="#ffffff" stroke-width="2" stroke-linecap="round" stroke-linejoin="round" fill="none"/><path d="M 142 177 L 141 177 L 139 176 L 138 178 L 137 182 L 139 186 L 140 188 L 141 189" stroke="#ffffff" stroke-width="2" stroke-linecap="round" stroke-linejoin="round" fill="none"/><path d="M 147 177 L 144 176 L 143 175 L 145 173 L 152 171 L 158 169 L 163 167" stroke="#ffffff" stroke-width="2" stroke-linecap="round" stroke-linejoin="round" fill="none"/><path d="M 152 166 L 152 164 L 152 163 L 154 168 L 154 178 L 152 189 L 149 199 L 146 204 L 145 205" stroke="#ffffff" stroke-width="2" stroke-linecap="round" stroke-linejoin="round" fill="none"/><path d="M 155 153 L 154 154 L 152 156 L 152 160 L 153 163" stroke="#ffffff" stroke-width="2" stroke-linecap="round" stroke-linejoin="round" fill="none"/><path d="M 164 154 L 163 154 L 161 154 L 160 158 L 160 164" stroke="#ffffff" stroke-width="2" stroke-linecap="round" stroke-linejoin="round" fill="none"/><path d="M 170 176 L 168 176 L 168 175 L 169 173 L 173 172 L 178 171 L 181 170 L 183 170 L 182 171 L 180 172 L 178 175 L 176 179 L 176 184 L 176 187 L 180 189 L 182 189" stroke="#ffffff" stroke-width="2" stroke-linecap="round" stroke-linejoin="round" fill="none"/><path d="M 205 152 L 204 152 L 203 151 L 203 156 L 204 160" stroke="#ffffff" stroke-width="2" stroke-linecap="round" stroke-linejoin="round" fill="none"/><path d="M 216 155 L 215 155 L 211 157 L 208 159 L 206 161 L 205 163" stroke="#ffffff" stroke-width="2" stroke-linecap="round" stroke-linejoin="round" fill="none"/><path d="M 196 170 L 195 170 L 193 168 L 196 165 L 205 161 L 216 158 L 222 157 L 224 158" stroke="#ffffff" stroke-width="2" stroke-linecap="round" stroke-linejoin="round" fill="none"/><path d="M 204 171 L 203 171 L 201 171 L 200 171 L 199 175 L 198 182 L 198 189 L 198 194 L 198 195" stroke="#ffffff" stroke-width="2" stroke-linecap="round" stroke-linejoin="round" fill="none"/><path d="M 201 176 L 201 175 L 200 172 L 200 171 L 201 171 L 203 173 L 205 177 L 206 182 L 206 187 L 205 189" stroke="#ffffff" stroke-width="2" stroke-linecap="round" stroke-linejoin="round" fill="none"/><path d="M 201 179 L 199 179 L 199 178 L 200 178" stroke="#ffffff" stroke-width="2" stroke-linecap="round" stroke-linejoin="round" fill="none"/><path d="M 202 182 L 200 182 L 198 182 L 198 181 L 201 180" stroke="#ffffff" stroke-width="2" stroke-linecap="round" stroke-linejoin="round" fill="none"/><path d="M 212 169 L 209 169 L 208 170 L 208 173 L 209 175" stroke="#ffffff" stroke-width="2" stroke-linecap="round" stroke-linejoin="round" fill="none"/><path d="M 216 167 L 216 166 L 215 170 L 213 180 L 211 191 L 209 197 L 207 198" stroke="#ffffff" stroke-width="2" stroke-linecap="round" stroke-linejoin="round" fill="none"/><path d="M 231 162 L 230 161 L 229 159 L 229 158 L 231 157 L 232 157 L 233 157 L 234 157 L 234 158 L 233 161 L 230 166 L 228 171 L 227 174" stroke="#ffffff" stroke-width="2" stroke-linecap="round" stroke-linejoin="round" fill="none"/><path d="M 231 168 L 230 166 L 229 164 L 230 165 L 231 165" stroke="#ffffff" stroke-width="2" stroke-linecap="round" stroke-linejoin="round" fill="none"/><path d="M 228 171 L 225 171 L 224 171 L 225 171 L 226 170" stroke="#ffffff" stroke-width="2" stroke-linecap="round" stroke-linejoin="round" fill="none"/><path d="M 223 179 L 223 180 L 221 180 L 220 180 L 225 176 L 227 174" stroke="#ffffff" stroke-width="2" stroke-linecap="round" stroke-linejoin="round" fill="none"/><path d="M 244 150 L 241 150 L 239 152 L 237 155 L 236 161 L 236 164" stroke="#ffffff" stroke-width="2" stroke-linecap="round" stroke-linejoin="round" fill="none"/><path d="M 244 153 L 243 153 L 241 155 L 240 158 L 240 160" stroke="#ffffff" stroke-width="2" stroke-linecap="round" stroke-linejoin="round" fill="none"/><path d="M 233 174 L 232 174 L 230 173 L 229 173 L 233 171 L 238 168" stroke="#ffffff" stroke-width="2" stroke-linecap="round" stroke-linejoin="round" fill="none"/><path d="M 240 167 L 239 168 L 237 169 L 235 172 L 234 176 L 232 181 L 231 186 L 229 189 L 227 192 L 226 192" stroke="#ffffff" stroke-width="2" stroke-linecap="round" stroke-linejoin="round" fill="none"/><path d="M 226 179 L 227 181 L 233 184 L 238 186" stroke="#ffffff" stroke-width="2" stroke-linecap="round" stroke-linejoin="round" fill="none"/><path d="M 256 165 L 256 164 L 256 163 L 256 162 L 259 160 L 263 159 L 266 160" stroke="#ffffff" stroke-width="2" stroke-linecap="round" stroke-linejoin="round" fill="none"/><path d="M 253 175 L 252 175 L 250 176 L 253 173 L 258 170 L 263 168 L 266 166" stroke="#ffffff" stroke-width="2" stroke-linecap="round" stroke-linejoin="round" fill="none"/><path d="M 261 154 L 261 155 L 260 155 L 259 158 L 259 167 L 259 176 L 259 184 L 257 188 L 254 191 L 252 191 L 251 190 L 251 187 L 251 184 L 251 183 L 253 182 L 255 182 L 261 180 L 266 179" stroke="#ffffff" stroke-width="2" stroke-linecap="round" stroke-linejoin="round" fill="none"/><path d="M 285 161 L 284 161 L 283 162 L 281 167 L 281 174 L 282 179 L 284 180 L 284 179 L 285 176 L 287 170 L 291 164 L 296 159 L 301 158 L 303 161 L 303 166 L 301 170 L 298 173 L 295 174 L 291 174 L 289 171 L 288 166 L 288 161 L 288 157 L 290 155 L 291 154 L 293 156 L 293 161 L 293 169 L 291 180 L 291 190 L 293 196 L 293 197" stroke="#ffffff" stroke-width="2" stroke-linecap="round" stroke-linejoin="round" fill="none"/><path d="M 363 68 L 362 68 L 360 68 L 360 67 L 363 69 L 367 74 L 372 80 L 377 86 L 384 89 L 389 90" stroke="#ffffff" stroke-width="2" stroke-linecap="round" stroke-linejoin="round" fill="none"/><path d="M 385 76 L 382 75 L 381 74 L 382 77 L 385 82 L 387 88 L 389 92 L 391 94 L 390 94 L 387 95 L 385 95 L 381 96 L 377 97 L 371 98 L 367 100" stroke="#ffffff" stroke-width="2" stroke-linecap="round" stroke-linejoin="round" fill="none"/><path d="M 412 81 L 413 79 L 412 80 L 410 85 L 409 91 L 409 96" stroke="#ffffff" stroke-width="2" stroke-linecap="round" stroke-linejoin="round" fill="none"/><path d="M 412 81 L 411 80 L 410 78 L 414 74 L 420 71 L 427 70 L 432 70 L 434 71 L 435 71 L 433 75 L 430 80 L 427 84 L 427 86" stroke="#ffffff" stroke-width="2" stroke-linecap="round" stroke-linejoin="round" fill="none"/><path d="M 423 83 L 422 81 L 422 80 L 423 80 L 424 80 L 425 81 L 426 83 L 425 87 L 424 93 L 423 99 L 421 105 L 419 109 L 417 112 L 416 114" stroke="#ffffff" stroke-width="2" stroke-linecap="round" stroke-linejoin="round" fill="none"/><path d="M 406 106 L 402 105 L 401 104 L 405 101 L 413 98 L 424 94 L 435 90 L 441 87" stroke="#ffffff" stroke-width="2" stroke-linecap="round" stroke-linejoin="round" fill="none"/><path d="M 450 78 L 449 78 L 448 78 L 449 76 L 456 72 L 462 68 L 466 66" stroke="#ffffff" stroke-width="2" stroke-linecap="round" stroke-linejoin="round" fill="none"/><path d="M 461 66 L 459 66 L 458 67 L 456 71 L 456 78 L 456 79" stroke="#ffffff" stroke-width="2" stroke-linecap="round" stroke-linejoin="round" fill="none"/><path d="M 455 84 L 454 85 L 451 86 L 449 90 L 449 94 L 450 98 L 451 99" stroke="#ffffff" stroke-width="2" stroke-linecap="round" stroke-linejoin="round" fill="none"/><path d="M 452 90 L 452 88 L 452 85 L 453 83 L 456 81 L 460 79 L 462 78 L 463 80 L 463 83 L 462 88 L 462 92 L 462 94" stroke="#ffffff" stroke-width="2" stroke-linecap="round" stroke-linejoin="round" fill="none"/><path d="M 457 92 L 455 90 L 454 88 L 456 88" stroke="#ffffff" stroke-width="2" stroke-linecap="round" stroke-linejoin="round" fill="none"/><path d="M 456 94 L 455 93 L 454 92 L 456 91 L 457 91" stroke="#ffffff" stroke-width="2" stroke-linecap="round" stroke-linejoin="round" fill="none"/><path d="M 440 109 L 438 109 L 437 107 L 443 102 L 451 98 L 458 94 L 461 93 L 458 96 L 454 102 L 449 108 L 445 114 L 444 117" stroke="#ffffff" stroke-width="2" stroke-linecap="round" stroke-linejoin="round" fill="none"/><path d="M 458 103 L 459 103 L 460 104 L 464 105 L 467 105" stroke="#ffffff" stroke-width="2" stroke-linecap="round" stroke-linejoin="round" fill="none"/><path d="M 478 88 L 478 86 L 478 83 L 481 79 L 488 75 L 494 71 L 495 69 L 493 68 L 490 69 L 487 71 L 484 75 L 483 81 L 483 88 L 483 96 L 483 104 L 483 109" stroke="#ffffff" stroke-width="2" stroke-linecap="round" stroke-linejoin="round" fill="none"/><path d="M 479 102 L 477 100 L 476 98 L 479 95 L 488 90 L 491 89" stroke="#ffffff" stroke-width="2" stroke-linecap="round" stroke-linejoin="round" fill="none"/><path d="M 498 75 L 495 75 L 495 73 L 498 71 L 502 69 L 503 68" stroke="#ffffff" stroke-width="2" stroke-linecap="round" stroke-linejoin="round" fill="none"/><path d="M 505 65 L 503 67 L 501 69 L 500 72 L 500 76 L 500 78" stroke="#ffffff" stroke-width="2" stroke-linecap="round" stroke-linejoin="round" fill="none"/><path d="M 495 87 L 495 85 L 495 82 L 497 79 L 501 77 L 505 76" stroke="#ffffff" stroke-width="2" stroke-linecap="round" stroke-linejoin="round" fill="none"/><path d="M 497 92 L 496 92 L 496 89 L 499 85 L 502 82 L 503 80 L 504 80 L 503 83 L 502 89 L 501 96 L 500 102 L 499 106 L 498 108" stroke="#ffffff" stroke-width="2" stroke-linecap="round" stroke-linejoin="round" fill="none"/><path d="M 491 106 L 490 105 L 490 103 L 490 101 L 494 98 L 497 96" stroke="#ffffff" stroke-width="2" stroke-linecap="round" stroke-linejoin="round" fill="none"/><path d="M 530 67 L 527 67 L 525 67 L 523 68 L 522 72 L 521 76 L 520 78 L 521 77 L 524 75 L 527 73 L 530 72 L 534 71 L 539 71" stroke="#ffffff" stroke-width="2" stroke-linecap="round" stroke-linejoin="round" fill="none"/><path d="M 514 92 L 513 92 L 511 91 L 513 89 L 520 86 L 528 83 L 530 82" stroke="#ffffff" stroke-width="2" stroke-linecap="round" stroke-linejoin="round" fill="none"/><path d="M 531 77 L 529 78 L 527 78 L 524 81 L 520 88 L 516 96 L 513 101 L 512 103" stroke="#ffffff" stroke-width="2" stroke-linecap="round" stroke-linejoin="round" fill="none"/><path d="M 522 84 L 524 84 L 525 83 L 529 83 L 535 83 L 541 83" stroke="#ffffff" stroke-width="2" stroke-linecap="round" stroke-linejoin="round" fill="none"/><path d="M 528 92 L 525 92 L 522 94 L 520 96 L 519 100 L 519 102" stroke="#ffffff" stroke-width="2" stroke-linecap="round" stroke-linejoin="round" fill="none"/><path d="M 531 97 L 529 97 L 524 99 L 522 102 L 521 105" stroke="#ffffff" stroke-width="2" stroke-linecap="round" stroke-linejoin="round" fill="none"/><path d="M 537 99 L 535 100 L 530 104 L 524 109 L 518 116 L 514 121 L 513 121" stroke="#ffffff" stroke-width="2" stroke-linecap="round" stroke-linejoin="round" fill="none"/><path d="M 562 95 L 561 95 L 563 93 L 569 89 L 576 85 L 579 83" stroke="#ffffff" stroke-width="2" stroke-linecap="round" stroke-linejoin="round" fill="none"/><path d="M 575 79 L 574 79 L 573 79 L 571 80 L 569 86 L 567 97 L 566 105 L 566 110 L 566 112" stroke="#ffffff" stroke-width="2" stroke-linecap="round" stroke-linejoin="round" fill="none"/><path d="M 578 98 L 578 97 L 577 96 L 577 95 L 578 95 L 580 94" stroke="#ffffff" stroke-width="2" stroke-linecap="round" stroke-linejoin="round" fill="none"/><path d="M 577 105 L 576 106 L 574 107 L 576 105 L 581 102 L 584 100" stroke="#ffffff" stroke-width="2" stroke-linecap="round" stroke-linejoin="round" fill="none"/><path d="M 588 73 L 587 74 L 586 75 L 586 78 L 586 79" stroke="#ffffff" stroke-width="2" stroke-linecap="round" stroke-linejoin="round" fill="none"/><path d="M 594 73 L 594 74 L 592 77 L 591 80" stroke="#ffffff" stroke-width="2" stroke-linecap="round" stroke-linejoin="round" fill="none"/><path d="M 596 94 L 595 94 L 593 94 L 592 95 L 591 98 L 593 100 L 594 101" stroke="#ffffff" stroke-width="2" stroke-linecap="round" stroke-linejoin="round" fill="none"/><path d="M 603 93 L 604 91 L 604 90 L 605 92 L 605 95 L 605 98" stroke="#ffffff" stroke-width="2" stroke-linecap="round" stroke-linejoin="round" fill="none"/><path d="M 612 91 L 612 90 L 612 88 L 617 86 L 622 84 L 626 84 L 628 83" stroke="#ffffff" stroke-width="2" stroke-linecap="round" stroke-linejoin="round" fill="none"/><path d="M 623 76 L 622 75 L 621 74 L 621 77 L 620 84 L 618 95 L 616 105 L 615 111 L 615 113" stroke="#ffffff" stroke-width="2" stroke-linecap="round" stroke-linejoin="round" fill="none"/><path d="M 625 98 L 625 97 L 625 95 L 624 94 L 625 93 L 628 92 L 630 92" stroke="#ffffff" stroke-width="2" stroke-linecap="round" stroke-linejoin="round" fill="none"/><path d="M 623 105 L 622 105 L 625 102 L 628 100" stroke="#ffffff" stroke-width="2" stroke-linecap="round" stroke-linejoin="round" fill="none"/><path d="M 648 84 L 645 84 L 644 86 L 644 89 L 644 92 L 644 93" stroke="#ffffff" stroke-width="2" stroke-linecap="round" stroke-linejoin="round" fill="none"/><path d="M 654 84 L 654 83 L 654 82 L 654 85 L 653 90 L 652 91" stroke="#ffffff" stroke-width="2" stroke-linecap="round" stroke-linejoin="round" fill="none"/><path d="M 398 141 L 396 141 L 395 142 L 394 148 L 394 157 L 396 162 L 397 163" stroke="#ffffff" stroke-width="2" stroke-linecap="round" stroke-linejoin="round" fill="none"/><path d="M 408 141 L 407 140 L 406 140 L 406 141 L 407 146 L 408 152 L 409 155" stroke="#ffffff" stroke-width="2" stroke-linecap="round" stroke-linejoin="round" fill="none"/><path d="M 419 153 L 418 152 L 417 151 L 419 148 L 424 145 L 429 144 L 432 145 L 433 149 L 430 155 L 425 160 L 422 163" stroke="#ffffff" stroke-width="2" stroke-linecap="round" stroke-linejoin="round" fill="none"/><path d="M 442 150 L 441 150 L 441 148 L 444 146 L 448 143 L 453 141 L 453 140" stroke="#ffffff" stroke-width="2" stroke-linecap="round" stroke-linejoin="round" fill="none"/><path d="M 442 156 L 440 155 L 440 154 L 442 151 L 446 149 L 451 147 L 453 146" stroke="#ffffff" stroke-width="2" stroke-linecap="round" stroke-linejoin="round" fill="none"/><path d="M 451 134 L 449 134 L 447 135 L 447 138 L 447 146 L 448 155 L 449 161 L 451 163 L 454 163 L 458 158 L 460 154" stroke="#ffffff" stroke-width="2" stroke-linecap="round" stroke-linejoin="round" fill="none"/><path d="M 472 139 L 472 138 L 471 137 L 470 137 L 469 141 L 468 151 L 467 162 L 467 169 L 469 171" stroke="#ffffff" stroke-width="2" stroke-linecap="round" stroke-linejoin="round" fill="none"/><path d="M 468 144 L 466 143 L 466 140 L 469 136 L 474 133 L 479 132 L 484 131 L 487 131 L 489 131 L 491 133 L 491 139 L 490 148 L 489 157 L 489 163 L 489 166" stroke="#ffffff" stroke-width="2" stroke-linecap="round" stroke-linejoin="round" fill="none"/><path d="M 479 148 L 478 147 L 476 147 L 476 150 L 476 153 L 477 157 L 478 159 L 480 159 L 481 157 L 481 154 L 481 152 L 481 151 L 480 151 L 478 154 L 476 158 L 474 162 L 474 163" stroke="#ffffff" stroke-width="2" stroke-linecap="round" stroke-linejoin="round" fill="none"/><path d="M 474 145 L 473 145 L 473 146 L 475 144 L 482 139 L 485 138" stroke="#ffffff" stroke-width="2" stroke-linecap="round" stroke-linejoin="round" fill="none"/><path d="M 509 144 L 509 142 L 508 142 L 506 148 L 505 154 L 506 159 L 511 160 L 516 157 L 518 154" stroke="#ffffff" stroke-width="2" stroke-linecap="round" stroke-linejoin="round" fill="none"/><path d="M 517 133 L 517 134 L 514 138 L 513 141 L 514 142" stroke="#ffffff" stroke-width="2" stroke-linecap="round" stroke-linejoin="round" fill="none"/><path d="M 521 133 L 521 134 L 519 138 L 519 143 L 520 145" stroke="#ffffff" stroke-width="2" stroke-linecap="round" stroke-linejoin="round" fill="none"/><path d="M 540 137 L 539 135 L 541 132 L 547 129 L 555 127 L 560 126" stroke="#ffffff" stroke-width="2" stroke-linecap="round" stroke-linejoin="round" fill="none"/><path d="M 543 133 L 544 133 L 543 133 L 541 137 L 538 145 L 535 152 L 534 155 L 535 155" stroke="#ffffff" stroke-width="2" stroke-linecap="round" stroke-linejoin="round" fill="none"/><path d="M 551 139 L 550 139 L 547 139 L 545 141 L 544 142 L 548 142 L 551 141 L 554 139 L 555 137 L 555 136 L 552 137 L 550 140 L 548 142 L 548 144 L 549 145" stroke="#ffffff" stroke-width="2" stroke-linecap="round" stroke-linejoin="round" fill="none"/><path d="M 557 119 L 555 119 L 554 120 L 553 125 L 555 137 L 558 147 L 561 151" stroke="#ffffff" stroke-width="2" stroke-linecap="round" stroke-linejoin="round" fill="none"/><path d="M 567 137 L 567 136 L 564 136 L 560 140 L 555 147 L 552 153 L 551 153" stroke="#ffffff" stroke-width="2" stroke-linecap="round" stroke-linejoin="round" fill="none"/><path d="M 555 123 L 557 120 L 560 120 L 562 124 L 564 128" stroke="#ffffff" stroke-width="2" stroke-linecap="round" stroke-linejoin="round" fill="none"/><path d="M 545 157 L 544 157 L 540 157 L 538 160 L 536 166 L 536 171 L 538 172" stroke="#ffffff" stroke-width="2" stroke-linecap="round" stroke-linejoin="round" fill="none"/><path d="M 550 155 L 551 155 L 552 155 L 553 157 L 556 161 L 559 163 L 560 163" stroke="#ffffff" stroke-width="2" stroke-linecap="round" stroke-linejoin="round" fill="none"/><path d="M 564 146 L 564 144 L 564 143 L 562 146 L 561 150 L 561 153" stroke="#ffffff" stroke-width="2" stroke-linecap="round" stroke-linejoin="round" fill="none"/><path d="M 565 148 L 566 146 L 567 145 L 567 147 L 567 149" stroke="#ffffff" stroke-width="2" stroke-linecap="round" stroke-linejoin="round" fill="none"/><path d="M 585 133 L 584 134 L 582 136 L 579 143 L 578 153 L 579 161 L 584 164 L 590 162 L 595 158 L 596 157" stroke="#ffffff" stroke-width="2" stroke-linecap="round" stroke-linejoin="round" fill="none"/><path d="M 598 129 L 597 130 L 595 133 L 594 137 L 593 141" stroke="#ffffff" stroke-width="2" stroke-linecap="round" stroke-linejoin="round" fill="none"/><path d="M 606 128 L 606 130 L 604 136 L 604 138" stroke="#ffffff" stroke-width="2" stroke-linecap="round" stroke-linejoin="round" fill="none"/><path d="M 399 184 L 399 183 L 399 179 L 399 180 L 398 186 L 396 197 L 394 211 L 393 220 L 394 222" stroke="#ffffff" stroke-width="2" stroke-linecap="round" stroke-linejoin="round" fill="none"/><path d="M 397 198 L 395 198 L 394 198 L 397 199 L 403 200 L 405 200" stroke="#ffffff" stroke-width="2" stroke-linecap="round" stroke-linejoin="round" fill="none"/><path d="M 417 194 L 416 195 L 415 198 L 415 202" stroke="#ffffff" stroke-width="2" stroke-linecap="round" stroke-linejoin="round" fill="none"/><path d="M 422 194 L 422 193 L 421 192 L 420 192 L 420 195 L 420 198 L 420 199" stroke="#ffffff" stroke-width="2" stroke-linecap="round" stroke-linejoin="round" fill="none"/><path d="M 428 194 L 427 197 L 423 205 L 417 213 L 416 215" stroke="#ffffff" stroke-width="2" stroke-linecap="round" stroke-linejoin="round" fill="none"/><path d="M 434 207 L 435 207 L 435 206 L 436 203 L 440 198 L 446 195 L 449 196 L 449 202 L 447 208 L 444 213 L 443 215 L 442 216 L 442 215" stroke="#ffffff" stroke-width="2" stroke-linecap="round" stroke-linejoin="round" fill="none"/><path d="M 449 193 L 449 189 L 450 185 L 451 182 L 453 182 L 454 184 L 453 189 L 451 194 L 450 196" stroke="#ffffff" stroke-width="2" stroke-linecap="round" stroke-linejoin="round" fill="none"/><path d="M 469 191 L 468 190 L 467 190 L 465 197 L 463 207 L 462 215 L 463 217 L 465 214 L 470 208 L 475 199" stroke="#ffffff" stroke-width="2" stroke-linecap="round" stroke-linejoin="round" fill="none"/><path d="M 496 187 L 494 187 L 492 188 L 489 192 L 485 200 L 481 207 L 478 212 L 477 213" stroke="#ffffff" stroke-width="2" stroke-linecap="round" stroke-linejoin="round" fill="none"/><path d="M 488 197 L 487 198 L 485 203 L 485 211 L 487 216 L 490 218" stroke="#ffffff" stroke-width="2" stroke-linecap="round" stroke-linejoin="round" fill="none"/><path d="M 500 211 L 500 209 L 499 205 L 501 199 L 507 192 L 513 188 L 518 185 L 520 185 L 519 187 L 517 191 L 515 195 L 513 199" stroke="#ffffff" stroke-width="2" stroke-linecap="round" stroke-linejoin="round" fill="none"/><path d="M 506 184 L 506 183 L 505 183 L 505 187 L 506 196 L 509 206 L 513 213" stroke="#ffffff" stroke-width="2" stroke-linecap="round" stroke-linejoin="round" fill="none"/><path d="M 526 204 L 525 203 L 523 203 L 524 202 L 529 201 L 537 199" stroke="#ffffff" stroke-width="2" stroke-linecap="round" stroke-linejoin="round" fill="none"/><path d="M 554 192 L 552 192 L 549 191 L 552 191 L 557 191 L 562 190 L 565 189 L 566 189 L 565 189 L 562 191 L 558 195 L 555 200 L 555 205 L 557 209 L 561 210 L 564 210" stroke="#ffffff" stroke-width="2" stroke-linecap="round" stroke-linejoin="round" fill="none"/><path d="M 570 176 L 569 177 L 566 178 L 564 181 L 564 182" stroke="#ffffff" stroke-width="2" stroke-linecap="round" stroke-linejoin="round" fill="none"/><path d="M 576 175 L 576 174 L 576 175 L 575 179" stroke="#ffffff" stroke-width="2" stroke-linecap="round" stroke-linejoin="round" fill="none"/><path d="M 583 195 L 583 194 L 584 191 L 589 188 L 597 185 L 605 184 L 610 183 L 611 183" stroke="#ffffff" stroke-width="2" stroke-linecap="round" stroke-linejoin="round" fill="none"/><path d="M 596 180 L 594 180 L 592 182 L 591 187 L 591 193 L 593 197 L 594 198" stroke="#ffffff" stroke-width="2" stroke-linecap="round" stroke-linejoin="round" fill="none"/><path d="M 604 176 L 603 176 L 602 176 L 601 181 L 598 192 L 594 207 L 591 216 L 590 218" stroke="#ffffff" stroke-width="2" stroke-linecap="round" stroke-linejoin="round" fill="none"/><path d="M 624 183 L 624 181 L 624 180 L 622 182 L 617 189 L 611 197 L 606 203 L 602 206 L 601 207" stroke="#ffffff" stroke-width="2" stroke-linecap="round" stroke-linejoin="round" fill="none"/><path d="M 615 193 L 614 193 L 612 196 L 611 203 L 611 211 L 611 213" stroke="#ffffff" stroke-width="2" stroke-linecap="round" stroke-linejoin="round" fill="none"/><path d="M 635 180 L 634 179 L 632 178 L 630 181 L 628 190 L 627 200 L 626 208 L 626 212" stroke="#ffffff" stroke-width="2" stroke-linecap="round" stroke-linejoin="round" fill="none"/><path d="M 625 200 L 624 200 L 625 200 L 630 199 L 634 199" stroke="#ffffff" stroke-width="2" stroke-linecap="round" stroke-linejoin="round" fill="none"/><path d="M 641 175 L 639 176 L 637 178 L 635 182 L 636 186" stroke="#ffffff" stroke-width="2" stroke-linecap="round" stroke-linejoin="round" fill="none"/><path d="M 646 174 L 646 173 L 645 173 L 643 178 L 643 181" stroke="#ffffff" stroke-width="2" stroke-linecap="round" stroke-linejoin="round" fill="none"/><path d="M 654 194 L 653 193 L 653 191 L 655 189 L 658 187 L 660 188" stroke="#ffffff" stroke-width="2" stroke-linecap="round" stroke-linejoin="round" fill="none"/><path d="M 645 202 L 644 202 L 643 202 L 646 199 L 652 196 L 659 194 L 664 193 L 665 193" stroke="#ffffff" stroke-width="2" stroke-linecap="round" stroke-linejoin="round" fill="none"/><path d="M 659 180 L 659 179 L 659 177 L 658 181 L 656 191 L 653 202 L 653 209 L 656 211 L 662 209 L 669 205 L 671 204" stroke="#ffffff" stroke-width="2" stroke-linecap="round" stroke-linejoin="round" fill="none"/><path d="M 443 248 L 443 247 L 442 246 L 441 246 L 439 249 L 436 254 L 432 260 L 426 267 L 421 271 L 416 273 L 413 274 L 411 276 L 410 277 L 411 277 L 413 276 L 416 273 L 417 273 L 419 273 L 421 273 L 423 273 L 426 273 L 431 271 L 437 269 L 441 268 L 445 265 L 449 263 L 450 261 L 447 263 L 445 265 L 444 267 L 442 268 L 441 270 L 439 273 L 436 277 L 431 283 L 427 288 L 424 292 L 421 294 L 419 295 L 419 293 L 422 291 L 425 289 L 429 287 L 434 285 L 438 284 L 441 284 L 442 284 L 442 282 L 441 281 L 440 280 L 439 280 L 438 282 L 436 285 L 434 289 L 431 295 L 426 301 L 421 306 L 417 309 L 412 313 L 407 315 L 405 317 L 404 318 L 403 319 L 405 317 L 408 315 L 410 314 L 413 313 L 418 311 L 425 307 L 432 303 L 436 302 L 435 302 L 434 302 L 433 303 L 432 305 L 430 307 L 428 310 L 426 313 L 424 315 L 422 318 L 420 320 L 418 322 L 416 324 L 414 326 L 414 327 L 415 327 L 416 326 L 419 324 L 422 323 L 424 323 L 427 321 L 431 319" stroke="#ffffff" stroke-width="2" stroke-linecap="round" stroke-linejoin="round" fill="none"/><path d="M 465 292 L 467 290 L 470 285 L 474 281 L 479 279 L 482 280 L 482 284 L 481 289 L 478 294 L 474 299 L 470 302 L 469 302" stroke="#ffffff" stroke-width="2" stroke-linecap="round" stroke-linejoin="round" fill="none"/><path d="M 538 241 L 537 241 L 535 240 L 535 242 L 534 247 L 537 251 L 538 251" stroke="#ffffff" stroke-width="2" stroke-linecap="round" stroke-linejoin="round" fill="none"/><path d="M 550 238 L 551 237 L 549 237 L 546 241 L 541 248 L 540 249" stroke="#ffffff" stroke-width="2" stroke-linecap="round" stroke-linejoin="round" fill="none"/><path d="M 527 264 L 526 262 L 531 258 L 543 251 L 557 247 L 564 245 L 565 245" stroke="#ffffff" stroke-width="2" stroke-linecap="round" stroke-linejoin="round" fill="none"/><path d="M 541 259 L 539 259 L 537 262 L 535 271 L 534 279 L 535 283 L 536 284" stroke="#ffffff" stroke-width="2" stroke-linecap="round" stroke-linejoin="round" fill="none"/><path d="M 538 267 L 538 265 L 539 260 L 540 258 L 542 259 L 542 264 L 541 272 L 540 279 L 539 283" stroke="#ffffff" stroke-width="2" stroke-linecap="round" stroke-linejoin="round" fill="none"/><path d="M 539 267 L 539 265 L 538 264 L 539 266" stroke="#ffffff" stroke-width="2" stroke-linecap="round" stroke-linejoin="round" fill="none"/><path d="M 541 267 L 540 267 L 538 267 L 539 267" stroke="#ffffff" stroke-width="2" stroke-linecap="round" stroke-linejoin="round" fill="none"/><path d="M 554 254 L 552 254 L 549 254 L 547 258 L 546 263 L 548 266 L 549 266" stroke="#ffffff" stroke-width="2" stroke-linecap="round" stroke-linejoin="round" fill="none"/><path d="M 556 253 L 556 252 L 556 253 L 555 258 L 554 267 L 552 276 L 547 283 L 544 286 L 543 286" stroke="#ffffff" stroke-width="2" stroke-linecap="round" stroke-linejoin="round" fill="none"/><path d="M 574 247 L 574 246 L 573 244 L 573 243 L 575 241 L 578 241 L 580 241" stroke="#ffffff" stroke-width="2" stroke-linecap="round" stroke-linejoin="round" fill="none"/><path d="M 579 243 L 578 243 L 576 243 L 573 245 L 571 250 L 570 257 L 570 261 L 570 262" stroke="#ffffff" stroke-width="2" stroke-linecap="round" stroke-linejoin="round" fill="none"/><path d="M 574 253 L 574 251 L 574 249 L 574 248 L 575 248" stroke="#ffffff" stroke-width="2" stroke-linecap="round" stroke-linejoin="round" fill="none"/><path d="M 570 259 L 567 259 L 566 259 L 567 256 L 572 254 L 573 253" stroke="#ffffff" stroke-width="2" stroke-linecap="round" stroke-linejoin="round" fill="none"/><path d="M 572 260 L 571 258 L 571 256 L 574 252" stroke="#ffffff" stroke-width="2" stroke-linecap="round" stroke-linejoin="round" fill="none"/><path d="M 594 235 L 593 235 L 591 235 L 588 238 L 585 242 L 583 247 L 582 248" stroke="#ffffff" stroke-width="2" stroke-linecap="round" stroke-linejoin="round" fill="none"/><path d="M 587 241 L 585 244 L 583 248 L 581 252" stroke="#ffffff" stroke-width="2" stroke-linecap="round" stroke-linejoin="round" fill="none"/><path d="M 573 261 L 572 260 L 571 259 L 574 256 L 579 253 L 583 252 L 584 253 L 584 257 L 581 261 L 578 266 L 573 271 L 570 275 L 568 276" stroke="#ffffff" stroke-width="2" stroke-linecap="round" stroke-linejoin="round" fill="none"/><path d="M 570 259 L 571 259 L 573 263 L 578 268 L 582 272" stroke="#ffffff" stroke-width="2" stroke-linecap="round" stroke-linejoin="round" fill="none"/><path d="M 620 274 L 620 273 L 619 273 L 619 272 L 618 272 L 618 273 L 617 279 L 616 289 L 614 301 L 614 308 L 616 309" stroke="#ffffff" stroke-width="2" stroke-linecap="round" stroke-linejoin="round" fill="none"/><path d="M 626 279 L 626 278 L 626 275 L 627 274 L 627 277 L 627 283 L 626 290 L 625 298 L 625 302" stroke="#ffffff" stroke-width="2" stroke-linecap="round" stroke-linejoin="round" fill="none"/><path d="M 640 272 L 639 270 L 639 269 L 640 271 L 640 277 L 639 288 L 636 299 L 636 306 L 636 307" stroke="#ffffff" stroke-width="2" stroke-linecap="round" stroke-linejoin="round" fill="none"/><path d="M 602 288 L 602 287 L 602 286 L 601 286 L 600 289 L 599 293 L 596 300 L 593 308 L 589 314 L 585 318 L 580 319 L 575 319 L 572 318" stroke="#ffffff" stroke-width="2" stroke-linecap="round" stroke-linejoin="round" fill="none"/><path d="M 591 299 L 590 298 L 588 298 L 588 299 L 586 305 L 583 312 L 579 317 L 574 320 L 568 321 L 566 319" stroke="#ffffff" stroke-width="2" stroke-linecap="round" stroke-linejoin="round" fill="none"/><path d="M 591 306 L 587 307 L 584 308 L 580 310 L 577 313 L 572 315 L 565 318 L 561 318" stroke="#ffffff" stroke-width="2" stroke-linecap="round" stroke-linejoin="round" fill="none"/><path d="M 668 275 L 668 274 L 667 273 L 665 277 L 663 285 L 662 296 L 665 304 L 672 307 L 680 308" stroke="#ffffff" stroke-width="2" stroke-linecap="round" stroke-linejoin="round" fill="none"/><path d="M 665 279 L 663 280 L 659 284 L 659 290 L 663 297 L 669 304 L 674 309 L 679 312 L 680 312" stroke="#ffffff" stroke-width="2" stroke-linecap="round" stroke-linejoin="round" fill="none"/><path d="M 670 276 L 668 277 L 662 282 L 661 285 L 660 290 L 662 296 L 666 302 L 670 306 L 676 308 L 681 309" stroke="#ffffff" stroke-width="2" stroke-linecap="round" stroke-linejoin="round" fill="none"/><path d="M 657 282 L 655 283 L 652 283 L 652 286 L 655 291 L 656 297 L 658 303 L 660 307 L 664 310 L 671 310 L 674 310" stroke="#ffffff" stroke-width="2" stroke-linecap="round" stroke-linejoin="round" fill="none"/><path d="M 379 367 L 378 367 L 377 367 L 379 365 L 386 363 L 397 359 L 409 354 L 414 351" stroke="#ffffff" stroke-width="2" stroke-linecap="round" stroke-linejoin="round" fill="none"/><path d="M 393 352 L 392 352 L 392 356 L 394 362 L 396 367 L 397 370" stroke="#ffffff" stroke-width="2" stroke-linecap="round" stroke-linejoin="round" fill="none"/><path d="M 400 349 L 399 349 L 399 351 L 400 359 L 400 372 L 398 384 L 394 392 L 392 396" stroke="#ffffff" stroke-width="2" stroke-linecap="round" stroke-linejoin="round" fill="none"/><path d="M 428 357 L 427 355 L 425 353 L 424 354 L 422 359 L 420 366 L 417 374 L 413 380 L 411 384 L 410 384" stroke="#ffffff" stroke-width="2" stroke-linecap="round" stroke-linejoin="round" fill="none"/><path d="M 417 369 L 418 368 L 418 370 L 417 378 L 417 387 L 417 395 L 418 396" stroke="#ffffff" stroke-width="2" stroke-linecap="round" stroke-linejoin="round" fill="none"/><path d="M 433 361 L 432 360 L 430 361 L 430 365 L 430 372 L 431 380 L 432 386 L 432 389 L 432 390" stroke="#ffffff" stroke-width="2" stroke-linecap="round" stroke-linejoin="round" fill="none"/><path d="M 431 376 L 431 375 L 434 374 L 439 374 L 441 374" stroke="#ffffff" stroke-width="2" stroke-linecap="round" stroke-linejoin="round" fill="none"/><path d="M 439 359 L 438 359 L 437 360 L 437 362" stroke="#ffffff" stroke-width="2" stroke-linecap="round" stroke-linejoin="round" fill="none"/><path d="M 444 357 L 443 357 L 442 360 L 442 364" stroke="#ffffff" stroke-width="2" stroke-linecap="round" stroke-linejoin="round" fill="none"/><path d="M 461 370 L 462 368 L 463 365 L 467 362 L 471 359 L 474 358" stroke="#ffffff" stroke-width="2" stroke-linecap="round" stroke-linejoin="round" fill="none"/><path d="M 473 353 L 472 353 L 471 354 L 469 358 L 465 371 L 462 382 L 461 388" stroke="#ffffff" stroke-width="2" stroke-linecap="round" stroke-linejoin="round" fill="none"/><path d="M 480 360 L 481 358 L 481 356 L 482 355 L 483 355 L 486 355 L 487 356 L 488 358 L 487 360 L 485 362 L 483 365 L 481 370 L 478 375 L 476 380 L 474 383 L 472 385 L 471 385 L 471 383 L 472 381 L 475 378 L 477 376 L 481 373 L 485 371" stroke="#ffffff" stroke-width="2" stroke-linecap="round" stroke-linejoin="round" fill="none"/><path d="M 498 374 L 496 373 L 495 372 L 497 371 L 501 370 L 505 370 L 508 371 L 509 374 L 507 377 L 505 380 L 503 381 L 501 380 L 501 376 L 501 370 L 501 364 L 501 361 L 501 360 L 501 363 L 500 368 L 499 374 L 498 379 L 496 382 L 496 383" stroke="#ffffff" stroke-width="2" stroke-linecap="round" stroke-linejoin="round" fill="none"/><path d="M 504 360 L 504 359 L 506 360 L 510 364 L 515 368 L 516 369" stroke="#ffffff" stroke-width="2" stroke-linecap="round" stroke-linejoin="round" fill="none"/><path d="M 515 350 L 512 351 L 510 356 L 510 360 L 511 361" stroke="#ffffff" stroke-width="2" stroke-linecap="round" stroke-linejoin="round" fill="none"/><path d="M 519 348 L 518 349 L 517 354 L 517 356" stroke="#ffffff" stroke-width="2" stroke-linecap="round" stroke-linejoin="round" fill="none"/><path d="M 535 359 L 532 356 L 530 356 L 529 360 L 529 369 L 530 378 L 533 382 L 538 380 L 542 374 L 547 367" stroke="#ffffff" stroke-width="2" stroke-linecap="round" stroke-linejoin="round" fill="none"/><path d="M 558 350 L 554 350 L 553 351 L 552 357 L 554 365 L 556 370 L 557 372" stroke="#ffffff" stroke-width="2" stroke-linecap="round" stroke-linejoin="round" fill="none"/><path d="M 564 354 L 564 355 L 562 357 L 559 363 L 556 370 L 554 376 L 552 378 L 550 378 L 548 376 L 547 372 L 548 368 L 550 364 L 555 361 L 561 359 L 568 358 L 573 362 L 575 367 L 572 374 L 568 379 L 565 382 L 564 383" stroke="#ffffff" stroke-width="2" stroke-linecap="round" stroke-linejoin="round" fill="none"/><path d="M 344 410 L 344 409 L 342 406 L 343 409 L 344 415 L 344 422 L 343 423" stroke="#ffffff" stroke-width="2" stroke-linecap="round" stroke-linejoin="round" fill="none"/><path d="M 336 431 L 336 429 L 336 426 L 339 423 L 345 420 L 352 418 L 357 417 L 355 418 L 351 424 L 346 432 L 341 443 L 337 452 L 337 454" stroke="#ffffff" stroke-width="2" stroke-linecap="round" stroke-linejoin="round" fill="none"/><path d="M 344 432 L 345 431 L 345 432 L 346 438 L 347 446 L 347 453 L 347 455" stroke="#ffffff" stroke-width="2" stroke-linecap="round" stroke-linejoin="round" fill="none"/><path d="M 350 432 L 349 432 L 352 434 L 355 437" stroke="#ffffff" stroke-width="2" stroke-linecap="round" stroke-linejoin="round" fill="none"/><path d="M 367 438 L 365 438 L 368 437 L 374 435 L 380 433" stroke="#ffffff" stroke-width="2" stroke-linecap="round" stroke-linejoin="round" fill="none"/><path d="M 393 435 L 392 435 L 390 434 L 390 433 L 394 431 L 398 429 L 403 427 L 405 427 L 406 428 L 406 431 L 404 436 L 402 441 L 400 445 L 400 446" stroke="#ffffff" stroke-width="2" stroke-linecap="round" stroke-linejoin="round" fill="none"/><path d="M 409 422 L 405 420 L 405 417 L 406 414 L 409 412 L 413 412 L 414 414 L 413 418 L 410 421 L 408 423 L 407 424" stroke="#ffffff" stroke-width="2" stroke-linecap="round" stroke-linejoin="round" fill="none"/><path d="M 431 430 L 429 428 L 428 429 L 428 433 L 430 439 L 432 445 L 432 446" stroke="#ffffff" stroke-width="2" stroke-linecap="round" stroke-linejoin="round" fill="none"/><path d="M 430 431 L 428 429 L 427 425 L 430 422 L 436 418 L 445 415 L 452 414 L 454 413 L 456 413 L 457 414 L 457 418 L 457 425 L 455 433 L 454 439 L 453 440" stroke="#ffffff" stroke-width="2" stroke-linecap="round" stroke-linejoin="round" fill="none"/><path d="M 442 420 L 441 420 L 439 419 L 438 420 L 438 426 L 438 432 L 438 433" stroke="#ffffff" stroke-width="2" stroke-linecap="round" stroke-linejoin="round" fill="none"/><path d="M 450 417 L 449 418 L 448 421 L 446 427 L 446 429" stroke="#ffffff" stroke-width="2" stroke-linecap="round" stroke-linejoin="round" fill="none"/><path d="M 433 448 L 431 448 L 430 447 L 436 443 L 444 440 L 448 438" stroke="#ffffff" stroke-width="2" stroke-linecap="round" stroke-linejoin="round" fill="none"/><path d="M 481 408 L 480 408 L 476 408 L 472 412 L 469 418 L 468 423 L 468 425" stroke="#ffffff" stroke-width="2" stroke-linecap="round" stroke-linejoin="round" fill="none"/><path d="M 473 415 L 473 412 L 474 408 L 477 406 L 481 406 L 482 409 L 482 415 L 480 420 L 478 424 L 476 426 L 474 426 L 473 425 L 473 423 L 473 422 L 473 425 L 473 430 L 472 437 L 471 443 L 470 447 L 470 449" stroke="#ffffff" stroke-width="2" stroke-linecap="round" stroke-linejoin="round" fill="none"/><path d="M 472 432 L 472 426 L 473 422 L 475 420 L 480 418 L 485 417 L 488 418 L 488 422 L 487 428 L 486 435 L 485 439 L 485 442" stroke="#ffffff" stroke-width="2" stroke-linecap="round" stroke-linejoin="round" fill="none"/><path d="M 485 420 L 482 421 L 480 422 L 479 426 L 479 431 L 479 433" stroke="#ffffff" stroke-width="2" stroke-linecap="round" stroke-linejoin="round" fill="none"/><path d="M 477 429 L 475 428 L 475 427 L 477 426 L 480 425 L 481 425" stroke="#ffffff" stroke-width="2" stroke-linecap="round" stroke-linejoin="round" fill="none"/><path d="M 476 435 L 474 435 L 472 435 L 473 435 L 478 433 L 486 430" stroke="#ffffff" stroke-width="2" stroke-linecap="round" stroke-linejoin="round" fill="none"/><path d="M 505 413 L 505 412 L 504 411 L 504 410 L 504 414 L 505 422 L 507 429 L 509 434 L 510 435" stroke="#ffffff" stroke-width="2" stroke-linecap="round" stroke-linejoin="round" fill="none"/><path d="M 516 417 L 513 418 L 510 419 L 508 423 L 506 430 L 504 436 L 502 440 L 500 440 L 499 438 L 499 435 L 500 431 L 503 427 L 508 423 L 515 419 L 522 418 L 525 421 L 526 428 L 525 435 L 522 440 L 520 444 L 519 444" stroke="#ffffff" stroke-width="2" stroke-linecap="round" stroke-linejoin="round" fill="none"/><path d="M 551 426 L 551 422 L 550 421 L 550 422 L 550 425 L 550 430 L 550 433 L 549 435 L 548 434 L 547 431 L 546 427 L 548 423 L 551 421 L 555 422 L 559 427 L 561 431 L 560 435 L 559 437" stroke="#ffffff" stroke-width="2" stroke-linecap="round" stroke-linejoin="round" fill="none"/><path d="M 589 406 L 589 401 L 588 400 L 585 403 L 582 410 L 580 415 L 579 417" stroke="#ffffff" stroke-width="2" stroke-linecap="round" stroke-linejoin="round" fill="none"/><path d="M 585 411 L 585 409 L 587 406 L 589 403 L 591 402 L 592 404 L 593 408 L 593 412 L 592 414" stroke="#ffffff" stroke-width="2" stroke-linecap="round" stroke-linejoin="round" fill="none"/><path d="M 587 417 L 585 418 L 583 422 L 581 431 L 580 439 L 580 443 L 581 445" stroke="#ffffff" stroke-width="2" stroke-linecap="round" stroke-linejoin="round" fill="none"/><path d="M 585 422 L 585 421 L 584 418 L 584 415 L 586 413 L 590 412 L 596 411 L 600 413 L 601 417 L 601 422 L 601 428 L 601 433 L 600 438 L 600 440" stroke="#ffffff" stroke-width="2" stroke-linecap="round" stroke-linejoin="round" fill="none"/><path d="M 597 415 L 597 414 L 595 412 L 593 414 L 592 419 L 592 424 L 592 428" stroke="#ffffff" stroke-width="2" stroke-linecap="round" stroke-linejoin="round" fill="none"/><path d="M 588 425 L 588 424 L 587 422 L 587 420 L 589 420 L 593 420" stroke="#ffffff" stroke-width="2" stroke-linecap="round" stroke-linejoin="round" fill="none"/><path d="M 585 430 L 584 431 L 582 431 L 583 431 L 589 430 L 596 428 L 598 428" stroke="#ffffff" stroke-width="2" stroke-linecap="round" stroke-linejoin="round" fill="none"/><path d="M 512 481 L 512 479 L 511 479 L 511 482 L 511 486 L 511 491 L 512 495 L 514 500 L 518 504 L 523 507 L 526 507 L 530 507 L 534 506 L 538 505 L 543 504 L 546 502 L 548 500 L 549 498 L 550 494 L 551 491 L 551 488 L 552 485 L 552 483 L 552 479 L 552 476 L 553 474 L 554 473 L 555 472 L 556 472" stroke="#ffffff" stroke-width="2" stroke-linecap="round" stroke-linejoin="round" fill="none"/><path d="M 496 491 L 495 491 L 495 490 L 495 489 L 495 491 L 494 493 L 494 497 L 493 500 L 493 503 L 492 506 L 491 510 L 490 513 L 491 512 L 491 511 L 492 511 L 493 510 L 495 510 L 499 509 L 502 509 L 505 510 L 506 511 L 507 512 L 508 512 L 509 512" stroke="#ffffff" stroke-width="2" stroke-linecap="round" stroke-linejoin="round" fill="none"/><path d="M 576 478 L 576 476 L 575 475 L 574 476 L 574 480 L 574 486 L 573 492 L 572 498 L 572 502 L 572 505 L 573 507 L 573 508 L 574 508 L 574 509 L 573 509 L 572 509 L 571 509 L 570 509 L 569 509 L 568 509 L 567 509 L 565 509 L 562 510 L 559 511 L 557 512 L 555 513 L 554 513 L 553 513 L 551 513 L 550 513 L 549 514 L 549 513 L 550 513 L 551 512 L 552 511 L 552 510 L 552 509 L 552 508 L 552 507 L 552 506 L 552 505 L 552 503 L 551 501 L 551 499 L 551 498 L 551 497 L 552 497" stroke="#ffffff" stroke-width="2" stroke-linecap="round" stroke-linejoin="round" fill="none"/><path d="M 512 503 L 511 502 L 511 501 L 510 501 L 511 504 L 511 507 L 511 511 L 510 514 L 509 515 L 508 515 L 507 515 L 506 515 L 506 514 L 505 514" stroke="#ffffff" stroke-width="2" stroke-linecap="round" stroke-linejoin="round" fill="none"/><path d="M 507 482 L 507 480 L 507 479 L 507 478 L 506 478 L 505 478 L 504 477 L 502 475 L 501 473 L 499 471 L 497 470 L 496 469 L 495 469 L 495 470 L 494 472 L 493 476 L 493 481 L 493 486 L 495 488 L 497 489 L 500 489 L 502 487 L 504 485 L 506 483 L 508 482 L 510 481" stroke="#ffffff" stroke-width="2" stroke-linecap="round" stroke-linejoin="round" fill="none"/><path d="M 556 477 L 555 477 L 554 476 L 553 474 L 553 472 L 555 471 L 556 469 L 559 468 L 562 467 L 565 467 L 568 467 L 568 471 L 566 477 L 564 482 L 563 485 L 561 487 L 559 487 L 556 487 L 553 487 L 550 486 L 549 484 L 549 482 L 551 480" stroke="#ffffff" stroke-width="2" stroke-linecap="round" stroke-linejoin="round" fill="none"/></svg>
