<svg xmlns="http://www.w3.org/2000/svg" width="512" height="158" viewBox="0 0 512 158"><path d="M 14 28 L 13 28 L 12 27 L 11 29 L 10 36 L 10 46 L 11 52" stroke="#ffffff" stroke-width="2" stroke-linecap="round" stroke-linejoin="round" fill="none"/><path d="M 31 27 L 29 28 L 27 30 L 25 34 L 26 38 L 28 40 L 32 40 L 35 37 L 38 32 L 39 27 L 38 24 L 35 24 L 32 25 L 28 28 L 26 34" stroke="#ffffff" stroke-width="2" stroke-linecap="round" stroke-linejoin="round" fill="none"/><path d="M 83 19 L 83 18 L 81 16 L 79 17 L 74 25 L 68 39 L 59 56 L 51 71 L 47 82 L 46 88" stroke="#ffffff" stroke-width="2" stroke-linecap="round" stroke-linejoin="round" fill="none"/><path d="M 85 50 L 84 49 L 83 49 L 83 55 L 81 65 L 80 76 L 79 83" stroke="#ffffff" stroke-width="2" stroke-linecap="round" stroke-linejoin="round" fill="none"/><path d="M 150 31 L 149 30 L 149 27 L 153 25 L 158 24 L 161 26 L 160 31 L 157 37 L 153 42 L 148 45 L 145 46 L 143 46 L 143 45 L 145 45 L 151 45 L 158 44 L 167 42 L 175 40 L 177 40" stroke="#ffffff" stroke-width="2" stroke-linecap="round" stroke-linejoin="round" fill="none"/><path d="M 185 23 L 180 23 L 177 25 L 176 31 L 176 36 L 180 39 L 184 39 L 187 36 L 190 31 L 190 26 L 189 22 L 184 20 L 178 22 L 175 28 L 175 32" stroke="#ffffff" stroke-width="2" stroke-linecap="round" stroke-linejoin="round" fill="none"/><path d="M 214 23 L 212 23 L 211 23 L 211 21 L 214 21 L 217 21 L 218 24 L 217 27 L 212 31 L 206 34 L 202 35 L 201 35 L 202 34 L 207 34 L 213 34 L 219 34 L 226 34 L 232 34 L 233 34" stroke="#ffffff" stroke-width="2" stroke-linecap="round" stroke-linejoin="round" fill="none"/><path d="M 254 6 L 250 6 L 247 8 L 244 14 L 241 23 L 240 32 L 241 37 L 244 39 L 247 39 L 250 36 L 252 32 L 252 28 L 250 26 L 246 25 L 238 29 L 232 36" stroke="#ffffff" stroke-width="2" stroke-linecap="round" stroke-linejoin="round" fill="none"/><path d="M 223 56 L 221 55 L 217 55 L 213 57 L 208 63 L 204 73 L 203 81 L 206 83 L 211 84 L 220 81 L 230 74 L 233 72" stroke="#ffffff" stroke-width="2" stroke-linecap="round" stroke-linejoin="round" fill="none"/><path d="M 255 59 L 255 58 L 254 57 L 253 57 L 251 60 L 249 65 L 249 69 L 251 71 L 255 72 L 260 73 L 262 75 L 261 78 L 257 80 L 252 83 L 247 84 L 244 84" stroke="#ffffff" stroke-width="2" stroke-linecap="round" stroke-linejoin="round" fill="none"/><path d="M 251 61 L 251 60 L 251 58 L 251 57 L 255 57 L 264 57 L 276 59 L 282 59" stroke="#ffffff" stroke-width="2" stroke-linecap="round" stroke-linejoin="round" fill="none"/><path d="M 298 59 L 296 58 L 295 57 L 293 57 L 293 59 L 291 63 L 290 68 L 290 73 L 292 75 L 296 74 L 300 70 L 303 65 L 304 60 L 302 57 L 298 56 L 294 58 L 291 62" stroke="#ffffff" stroke-width="2" stroke-linecap="round" stroke-linejoin="round" fill="none"/><path d="M 124 122 L 124 121 L 123 120 L 122 121 L 121 126 L 120 131 L 119 136 L 119 138 L 117 138 L 116 135 L 116 131 L 116 127 L 119 124 L 124 123 L 129 125 L 131 129 L 131 134 L 128 138 L 126 141 L 126 142" stroke="#ffffff" stroke-width="2" stroke-linecap="round" stroke-linejoin="round" fill="none"/><path d="M 148 124 L 147 124 L 146 122 L 146 121 L 149 120 L 153 119 L 155 119 L 156 119 L 156 120 L 154 122 L 151 128 L 150 134 L 150 140 L 153 141 L 158 139 L 162 133 L 165 126 L 165 122 L 165 121 L 165 122 L 165 126 L 166 131 L 168 135 L 170 138" stroke="#ffffff" stroke-width="2" stroke-linecap="round" stroke-linejoin="round" fill="none"/><path d="M 175 104 L 171 104 L 170 107 L 170 112 L 170 113" stroke="#ffffff" stroke-width="2" stroke-linecap="round" stroke-linejoin="round" fill="none"/><path d="M 179 102 L 179 101 L 178 100 L 177 106 L 176 110" stroke="#ffffff" stroke-width="2" stroke-linecap="round" stroke-linejoin="round" fill="none"/><path d="M 190 123 L 189 122 L 188 120 L 192 118 L 199 115 L 208 113 L 212 113 L 213 113" stroke="#ffffff" stroke-width="2" stroke-linecap="round" stroke-linejoin="round" fill="none"/><path d="M 203 108 L 201 107 L 200 107 L 200 110 L 198 118 L 195 131 L 192 141 L 191 148" stroke="#ffffff" stroke-width="2" stroke-linecap="round" stroke-linejoin="round" fill="none"/><path d="M 209 128 L 209 126 L 208 124 L 208 123 L 211 123 L 215 124" stroke="#ffffff" stroke-width="2" stroke-linecap="round" stroke-linejoin="round" fill="none"/><path d="M 207 138 L 206 138 L 204 139 L 209 137 L 217 134 L 219 133" stroke="#ffffff" stroke-width="2" stroke-linecap="round" stroke-linejoin="round" fill="none"/><path d="M 250 108 L 249 107 L 248 106 L 245 110 L 241 118 L 237 127 L 235 133 L 235 134" stroke="#ffffff" stroke-width="2" stroke-linecap="round" stroke-linejoin="round" fill="none"/><path d="M 254 113 L 255 110 L 257 108 L 261 106 L 266 105 L 269 106 L 271 108" stroke="#ffffff" stroke-width="2" stroke-linecap="round" stroke-linejoin="round" fill="none"/><path d="M 253 131 L 249 130 L 249 129 L 252 126 L 259 122 L 265 120 L 270 119 L 272 119 L 273 120 L 273 122 L 273 125 L 272 127 L 270 129 L 268 130 L 265 130 L 262 129 L 261 126 L 261 124 L 261 129 L 257 136 L 252 144" stroke="#ffffff" stroke-width="2" stroke-linecap="round" stroke-linejoin="round" fill="none"/><path d="M 374 100 L 373 100 L 372 100 L 371 98 L 372 97 L 376 95 L 381 93 L 383 93 L 381 97 L 377 102 L 375 107 L 374 113 L 375 119 L 377 126 L 377 131 L 376 135 L 373 138 L 368 138 L 363 138 L 362 137" stroke="#ffffff" stroke-width="2" stroke-linecap="round" stroke-linejoin="round" fill="none"/><path d="M 362 126 L 362 124 L 363 120 L 370 117 L 382 113 L 396 110 L 399 109" stroke="#ffffff" stroke-width="2" stroke-linecap="round" stroke-linejoin="round" fill="none"/><path d="M 419 94 L 418 92 L 417 92 L 413 97 L 407 107 L 401 116 L 398 122 L 397 123" stroke="#ffffff" stroke-width="2" stroke-linecap="round" stroke-linejoin="round" fill="none"/><path d="M 405 112 L 405 113 L 404 119 L 402 129 L 401 138" stroke="#ffffff" stroke-width="2" stroke-linecap="round" stroke-linejoin="round" fill="none"/><path d="M 417 108 L 415 107 L 415 105 L 421 102 L 432 98 L 443 93 L 444 92" stroke="#ffffff" stroke-width="2" stroke-linecap="round" stroke-linejoin="round" fill="none"/><path d="M 431 93 L 430 93 L 430 91 L 430 90 L 430 91 L 428 98 L 426 107 L 424 114" stroke="#ffffff" stroke-width="2" stroke-linecap="round" stroke-linejoin="round" fill="none"/><path d="M 440 94 L 437 93 L 435 94 L 432 100 L 429 109 L 428 113" stroke="#ffffff" stroke-width="2" stroke-linecap="round" stroke-linejoin="round" fill="none"/><path d="M 416 120 L 416 117 L 419 114 L 426 111 L 433 110 L 437 110" stroke="#ffffff" stroke-width="2" stroke-linecap="round" stroke-linejoin="round" fill="none"/><path d="M 434 112 L 433 113 L 430 115 L 427 118 L 422 124 L 420 129 L 419 131" stroke="#ffffff" stroke-width="2" stroke-linecap="round" stroke-linejoin="round" fill="none"/><path d="M 436 119 L 437 119 L 437 118 L 438 118 L 442 121 L 447 125" stroke="#ffffff" stroke-width="2" stroke-linecap="round" stroke-linejoin="round" fill="none"/><path d="M 473 91 L 473 90 L 472 90 L 471 91 L 469 96 L 467 102 L 467 105 L 468 106 L 469 105 L 469 103 L 468 103 L 467 105 L 465 111 L 463 120 L 462 126 L 463 128 L 465 127 L 467 126 L 469 123 L 470 121 L 470 118 L 468 116 L 464 116 L 458 119 L 453 125 L 453 128" stroke="#ffffff" stroke-width="2" stroke-linecap="round" stroke-linejoin="round" fill="none"/><path d="M 502 86 L 500 86 L 498 87 L 494 90 L 490 95 L 488 99" stroke="#ffffff" stroke-width="2" stroke-linecap="round" stroke-linejoin="round" fill="none"/><path d="M 485 109 L 485 107 L 486 103 L 491 99 L 497 96 L 501 95 L 499 96 L 497 96 L 495 96 L 494 96 L 493 98 L 492 102 L 491 107 L 490 112 L 490 115 L 491 115 L 493 114 L 494 114 L 493 116 L 492 118 L 490 122 L 489 126 L 490 128 L 494 128 L 497 125 L 499 121 L 498 117 L 495 115 L 491 115 L 487 119 L 483 124 L 484 127" stroke="#ffffff" stroke-width="2" stroke-linecap="round" stroke-linejoin="round" fill="none"/></svg>
