<svg xmlns="http://www.w3.org/2000/svg" width="468" height="144" viewBox="0 0 468 144"><path d="M 12 21 L 12 19 L 11 17 L 11 18 L 11 22 L 11 29 L 10 37 L 10 45 L 10 48" stroke="#ffffff" stroke-width="2" stroke-linecap="round" stroke-linejoin="round" fill="none"/><path d="M 31 26 L 30 24 L 30 22 L 30 20 L 31 18 L 31 16 L 30 15 L 28 15 L 25 17 L 23 22 L 21 27 L 22 30 L 27 29 L 30 25 L 33 21 L 34 18 L 33 17 L 32 17 L 31 21 L 30 26 L 29 35 L 28 44 L 28 50 L 29 52" stroke="#ffffff" stroke-width="2" stroke-linecap="round" stroke-linejoin="round" fill="none"/><path d="M 62 13 L 61 11 L 60 11 L 59 12 L 57 17 L 54 28 L 48 47 L 41 62 L 38 70 L 37 73" stroke="#ffffff" stroke-width="2" stroke-linecap="round" stroke-linejoin="round" fill="none"/><path d="M 70 43 L 69 42 L 68 42 L 67 46 L 66 51 L 66 56 L 67 58 L 68 58" stroke="#ffffff" stroke-width="2" stroke-linecap="round" stroke-linejoin="round" fill="none"/><path d="M 86 39 L 84 40 L 82 41 L 81 45 L 83 50 L 86 53 L 89 54 L 93 53 L 95 50 L 96 45 L 96 41 L 95 37 L 93 35 L 89 36 L 86 40 L 85 43" stroke="#ffffff" stroke-width="2" stroke-linecap="round" stroke-linejoin="round" fill="none"/><path d="M 165 34 L 163 32 L 162 29 L 162 25 L 162 21 L 163 20 L 163 22 L 163 29 L 164 38 L 165 45 L 166 48 L 168 47 L 170 42 L 171 35 L 172 30 L 173 28 L 173 29 L 174 35 L 176 40 L 177 42 L 179 42 L 182 38 L 185 31 L 187 24 L 188 22" stroke="#ffffff" stroke-width="2" stroke-linecap="round" stroke-linejoin="round" fill="none"/><path d="M 194 37 L 193 37 L 192 38 L 193 39 L 196 38 L 200 34 L 203 29 L 203 24 L 201 22 L 196 25 L 192 32 L 189 41 L 189 47 L 193 48 L 199 45 L 204 40" stroke="#ffffff" stroke-width="2" stroke-linecap="round" stroke-linejoin="round" fill="none"/><path d="M 223 13 L 222 12 L 221 12 L 221 15 L 220 22 L 219 32 L 219 40 L 219 44" stroke="#ffffff" stroke-width="2" stroke-linecap="round" stroke-linejoin="round" fill="none"/><path d="M 220 35 L 219 32 L 218 31 L 216 31 L 214 34 L 212 38 L 209 44 L 209 48 L 212 48 L 218 44 L 222 41" stroke="#ffffff" stroke-width="2" stroke-linecap="round" stroke-linejoin="round" fill="none"/><path d="M 243 11 L 243 10 L 242 10 L 242 12 L 241 19 L 239 29 L 238 38 L 238 43" stroke="#ffffff" stroke-width="2" stroke-linecap="round" stroke-linejoin="round" fill="none"/><path d="M 239 33 L 239 32 L 238 29 L 237 28 L 235 28 L 231 33 L 228 41 L 226 47 L 227 50 L 232 49 L 239 43" stroke="#ffffff" stroke-width="2" stroke-linecap="round" stroke-linejoin="round" fill="none"/><path d="M 253 33 L 252 33 L 250 34 L 248 38 L 248 42 L 248 45" stroke="#ffffff" stroke-width="2" stroke-linecap="round" stroke-linejoin="round" fill="none"/><path d="M 253 20 L 251 20 L 249 20 L 249 23 L 248 29" stroke="#ffffff" stroke-width="2" stroke-linecap="round" stroke-linejoin="round" fill="none"/><path d="M 262 25 L 261 25 L 260 26 L 259 28 L 258 33 L 257 38 L 257 41 L 258 40 L 259 36 L 262 32 L 264 28 L 267 27 L 268 30 L 268 34 L 267 39 L 266 42" stroke="#ffffff" stroke-width="2" stroke-linecap="round" stroke-linejoin="round" fill="none"/><path d="M 295 29 L 294 28 L 293 26 L 293 23 L 293 21 L 293 20 L 292 19 L 289 21 L 284 26 L 282 31 L 282 33 L 285 32 L 290 28 L 293 25 L 294 22 L 293 22 L 291 26 L 290 31 L 288 38 L 285 44 L 282 49 L 278 52 L 275 53 L 274 52 L 273 49 L 275 46 L 278 43 L 285 39 L 294 34 L 304 29" stroke="#ffffff" stroke-width="2" stroke-linecap="round" stroke-linejoin="round" fill="none"/><path d="M 219 58 L 219 59 L 218 60 L 217 63 L 216 69 L 215 77 L 214 85 L 213 89 L 213 87 L 214 83 L 216 79 L 219 76 L 221 73 L 224 72 L 226 73 L 227 79 L 227 84 L 226 89 L 227 90" stroke="#ffffff" stroke-width="2" stroke-linecap="round" stroke-linejoin="round" fill="none"/><path d="M 250 80 L 249 79 L 248 78 L 246 77 L 245 76 L 244 75 L 241 75 L 239 79 L 236 84 L 235 89 L 236 90 L 239 89 L 242 84 L 245 81 L 246 78 L 246 77 L 246 76 L 245 76 L 245 77 L 245 80 L 244 83 L 244 86 L 244 88" stroke="#ffffff" stroke-width="2" stroke-linecap="round" stroke-linejoin="round" fill="none"/><path d="M 260 60 L 259 59 L 258 64 L 257 72 L 256 83 L 255 88 L 255 89" stroke="#ffffff" stroke-width="2" stroke-linecap="round" stroke-linejoin="round" fill="none"/><path d="M 263 73 L 261 73 L 260 73 L 265 73 L 273 72 L 280 70 L 286 68" stroke="#ffffff" stroke-width="2" stroke-linecap="round" stroke-linejoin="round" fill="none"/><path d="M 288 60 L 287 59 L 285 57 L 284 57 L 282 56 L 280 57 L 279 58 L 277 60 L 275 65 L 272 73 L 270 83 L 270 90 L 272 93" stroke="#ffffff" stroke-width="2" stroke-linecap="round" stroke-linejoin="round" fill="none"/><path d="M 310 66 L 308 66 L 307 66 L 307 69 L 307 75 L 308 82 L 310 87 L 313 87 L 317 84 L 320 79 L 323 74 L 324 68 L 324 63 L 322 60 L 322 61" stroke="#ffffff" stroke-width="2" stroke-linecap="round" stroke-linejoin="round" fill="none"/><path d="M 342 66 L 341 66 L 339 67 L 338 71 L 336 78 L 336 85 L 336 90 L 338 93" stroke="#ffffff" stroke-width="2" stroke-linecap="round" stroke-linejoin="round" fill="none"/><path d="M 338 70 L 337 68 L 336 64 L 338 61 L 343 57 L 347 57 L 349 59 L 349 64 L 346 69 L 343 72 L 340 73 L 337 74" stroke="#ffffff" stroke-width="2" stroke-linecap="round" stroke-linejoin="round" fill="none"/><path d="M 385 47 L 384 45 L 385 43 L 389 42 L 392 43 L 394 48 L 393 53 L 389 59 L 384 63 L 379 65 L 376 65 L 375 64 L 378 63 L 384 62 L 393 61 L 403 60 L 411 59 L 414 59" stroke="#ffffff" stroke-width="2" stroke-linecap="round" stroke-linejoin="round" fill="none"/><path d="M 421 39 L 419 39 L 417 39 L 416 41 L 415 45 L 415 49 L 419 53 L 423 56 L 426 59 L 427 61 L 425 63 L 422 64 L 418 65 L 413 64 L 409 62 L 408 61" stroke="#ffffff" stroke-width="2" stroke-linecap="round" stroke-linejoin="round" fill="none"/><path d="M 414 41 L 414 40 L 414 37 L 415 37 L 419 38 L 425 41 L 432 42 L 440 42 L 446 41 L 449 40 L 450 40 L 449 40 L 448 40 L 446 42 L 444 46 L 443 53 L 443 59 L 448 60 L 453 58 L 457 53 L 458 48 L 456 43 L 452 40 L 448 39 L 442 42 L 440 48 L 439 50" stroke="#ffffff" stroke-width="2" stroke-linecap="round" stroke-linejoin="round" fill="none"/><path d="M 74 91 L 73 90 L 71 92 L 69 98 L 66 105 L 63 113 L 61 119 L 60 121" stroke="#ffffff" stroke-width="2" stroke-linecap="round" stroke-linejoin="round" fill="none"/><path d="M 65 106 L 66 106 L 66 107 L 67 108 L 67 113 L 67 119 L 67 125 L 67 128" stroke="#ffffff" stroke-width="2" stroke-linecap="round" stroke-linejoin="round" fill="none"/><path d="M 74 110 L 74 109 L 74 107 L 76 105 L 81 102 L 86 99 L 90 96 L 92 94 L 92 92 L 92 89 L 90 88 L 87 88 L 85 90 L 83 91 L 83 93 L 85 97 L 86 104 L 87 113 L 88 119 L 88 123" stroke="#ffffff" stroke-width="2" stroke-linecap="round" stroke-linejoin="round" fill="none"/><path d="M 87 105 L 87 104 L 87 103 L 86 102 L 85 105 L 82 111 L 78 118 L 77 120" stroke="#ffffff" stroke-width="2" stroke-linecap="round" stroke-linejoin="round" fill="none"/><path d="M 86 101 L 86 100 L 88 99 L 90 100 L 93 101 L 97 103" stroke="#ffffff" stroke-width="2" stroke-linecap="round" stroke-linejoin="round" fill="none"/><path d="M 107 102 L 107 101 L 106 102 L 106 106 L 106 111 L 106 116 L 106 118" stroke="#ffffff" stroke-width="2" stroke-linecap="round" stroke-linejoin="round" fill="none"/><path d="M 105 104 L 104 104 L 103 102 L 103 101 L 104 99 L 107 96 L 112 94 L 115 92 L 117 91 L 118 90 L 119 90 L 119 93 L 119 100 L 119 105 L 119 110 L 118 113" stroke="#ffffff" stroke-width="2" stroke-linecap="round" stroke-linejoin="round" fill="none"/><path d="M 107 110 L 108 110 L 108 109 L 108 108 L 109 107 L 111 106 L 112 106" stroke="#ffffff" stroke-width="2" stroke-linecap="round" stroke-linejoin="round" fill="none"/><path d="M 108 119 L 107 119 L 106 120 L 107 120 L 111 116 L 117 112 L 120 109" stroke="#ffffff" stroke-width="2" stroke-linecap="round" stroke-linejoin="round" fill="none"/><path d="M 146 92 L 145 92 L 144 94 L 144 101 L 143 110 L 143 116 L 143 117" stroke="#ffffff" stroke-width="2" stroke-linecap="round" stroke-linejoin="round" fill="none"/><path d="M 133 96 L 132 97 L 132 101 L 134 104 L 138 105 L 143 103 L 148 97 L 151 93 L 151 91 L 151 93 L 152 96 L 152 100 L 151 104" stroke="#ffffff" stroke-width="2" stroke-linecap="round" stroke-linejoin="round" fill="none"/><path d="M 132 110 L 132 111 L 131 112 L 131 115 L 135 117 L 140 117 L 146 113 L 150 109 L 151 106 L 152 105 L 152 108 L 153 111 L 154 113 L 156 114 L 157 114" stroke="#ffffff" stroke-width="2" stroke-linecap="round" stroke-linejoin="round" fill="none"/><path d="M 164 98 L 163 98 L 164 97 L 169 95 L 176 91 L 183 89 L 184 87" stroke="#ffffff" stroke-width="2" stroke-linecap="round" stroke-linejoin="round" fill="none"/><path d="M 170 85 L 170 87 L 170 90 L 170 93" stroke="#ffffff" stroke-width="2" stroke-linecap="round" stroke-linejoin="round" fill="none"/><path d="M 178 85 L 176 88 L 173 93 L 171 98" stroke="#ffffff" stroke-width="2" stroke-linecap="round" stroke-linejoin="round" fill="none"/><path d="M 167 102 L 166 102 L 165 103 L 164 106 L 164 110 L 163 110" stroke="#ffffff" stroke-width="2" stroke-linecap="round" stroke-linejoin="round" fill="none"/><path d="M 167 104 L 167 102 L 168 100 L 170 98 L 172 97 L 175 97 L 175 99 L 175 101 L 174 103 L 173 103" stroke="#ffffff" stroke-width="2" stroke-linecap="round" stroke-linejoin="round" fill="none"/><path d="M 166 109 L 166 108 L 166 107 L 169 105 L 172 102" stroke="#ffffff" stroke-width="2" stroke-linecap="round" stroke-linejoin="round" fill="none"/><path d="M 170 99 L 170 98 L 169 98 L 169 101 L 170 106 L 170 111 L 170 116 L 170 117" stroke="#ffffff" stroke-width="2" stroke-linecap="round" stroke-linejoin="round" fill="none"/><path d="M 166 114 L 165 113 L 165 112 L 167 111 L 168 111" stroke="#ffffff" stroke-width="2" stroke-linecap="round" stroke-linejoin="round" fill="none"/><path d="M 168 115 L 166 115 L 164 116 L 167 115 L 171 112 L 175 109" stroke="#ffffff" stroke-width="2" stroke-linecap="round" stroke-linejoin="round" fill="none"/><path d="M 165 128 L 163 128 L 163 126 L 167 124 L 170 121" stroke="#ffffff" stroke-width="2" stroke-linecap="round" stroke-linejoin="round" fill="none"/><path d="M 178 117 L 178 114 L 180 111 L 184 107 L 189 104 L 192 104 L 193 106 L 192 110 L 191 113 L 190 115 L 188 116 L 187 116 L 186 112 L 185 107 L 185 101 L 186 96 L 187 94 L 187 96 L 186 101 L 184 108 L 180 119 L 175 129 L 174 133 L 173 134" stroke="#ffffff" stroke-width="2" stroke-linecap="round" stroke-linejoin="round" fill="none"/><path d="M 170 121 L 170 122 L 170 120 L 171 118 L 172 114 L 173 109" stroke="#ffffff" stroke-width="2" stroke-linecap="round" stroke-linejoin="round" fill="none"/><path d="M 170 122 L 170 121 L 170 120 L 171 120 L 172 119 L 175 117 L 178 114" stroke="#ffffff" stroke-width="2" stroke-linecap="round" stroke-linejoin="round" fill="none"/></svg>
