<svg xmlns="http://www.w3.org/2000/svg" width="650" height="346" viewBox="0 0 650 346"><path d="M 15 29 L 14 27 L 12 25 L 12 25 L 11 31 L 11 38 L 11 44 L 12 48" stroke="#ffffff" stroke-width="2" stroke-linecap="round" stroke-linejoin="round" fill="none"/><path d="M 11 36 L 10 28 L 12 25 L 15 23 L 17 23 L 20 24 L 21 27 L 22 34 L 23 46 L 23 61 L 23 71 L 23 78 L 23 79" stroke="#ffffff" stroke-width="2" stroke-linecap="round" stroke-linejoin="round" fill="none"/><path d="M 66 23 L 65 23 L 61 29 L 58 41 L 53 57 L 47 73 L 43 84 L 40 93 L 37 100 L 36 102" stroke="#ffffff" stroke-width="2" stroke-linecap="round" stroke-linejoin="round" fill="none"/><path d="M 82 67 L 79 64 L 79 62 L 83 60 L 88 59 L 92 60 L 94 63 L 93 68 L 90 73 L 87 77 L 83 81 L 80 83 L 79 83 L 81 83 L 86 81 L 93 80 L 100 79 L 107 78" stroke="#ffffff" stroke-width="2" stroke-linecap="round" stroke-linejoin="round" fill="none"/><path d="M 181 35 L 179 36 L 180 32 L 184 27 L 189 23 L 194 23 L 196 28 L 195 37 L 192 45 L 188 51 L 185 53 L 183 54 L 183 54 L 183 54 L 186 53 L 192 51 L 199 47 L 208 44 L 210 43" stroke="#ffffff" stroke-width="2" stroke-linecap="round" stroke-linejoin="round" fill="none"/><path d="M 224 24 L 221 21 L 220 20 L 218 24 L 217 34 L 217 44 L 218 49 L 221 50 L 224 46 L 226 41 L 228 35 L 228 28 L 226 23 L 222 20 L 218 23 L 216 29" stroke="#ffffff" stroke-width="2" stroke-linecap="round" stroke-linejoin="round" fill="none"/><path d="M 246 25 L 246 25 L 246 21 L 249 22 L 252 24 L 252 28 L 251 32 L 247 36 L 244 38 L 241 38 L 241 38 L 241 38 L 245 39 L 250 39 L 257 38 L 260 37" stroke="#ffffff" stroke-width="2" stroke-linecap="round" stroke-linejoin="round" fill="none"/><path d="M 285 11 L 283 10 L 278 11 L 275 18 L 273 29 L 273 38 L 276 41 L 279 41 L 283 38 L 284 34 L 284 32 L 282 30 L 278 30 L 273 33" stroke="#ffffff" stroke-width="2" stroke-linecap="round" stroke-linejoin="round" fill="none"/><path d="M 265 67 L 262 66 L 254 64 L 251 69 L 248 79 L 247 87 L 251 91 L 257 91 L 264 87" stroke="#ffffff" stroke-width="2" stroke-linecap="round" stroke-linejoin="round" fill="none"/><path d="M 306 62 L 307 56 L 308 52 L 309 49 L 310 46 L 310 46 L 309 46 L 306 47 L 303 50 L 299 55 L 297 61 L 297 64 L 301 65 L 306 62 L 310 59 L 311 56 L 311 54 L 310 53 L 310 53 L 309 54 L 307 59 L 303 71 L 299 83 L 298 91 L 299 94" stroke="#ffffff" stroke-width="2" stroke-linecap="round" stroke-linejoin="round" fill="none"/><path d="M 333 56 L 332 55 L 329 54 L 327 60 L 324 70 L 323 78 L 326 82 L 329 81 L 333 76 L 336 70 L 338 64 L 338 59 L 335 56 L 332 56 L 328 57 L 325 60 L 325 62" stroke="#ffffff" stroke-width="2" stroke-linecap="round" stroke-linejoin="round" fill="none"/><path d="M 21 131 L 20 130 L 19 129 L 20 137 L 21 147 L 23 156 L 26 161 L 29 161" stroke="#ffffff" stroke-width="2" stroke-linecap="round" stroke-linejoin="round" fill="none"/><path d="M 36 126 L 36 125 L 37 123 L 37 128 L 37 137 L 37 147 L 37 153" stroke="#ffffff" stroke-width="2" stroke-linecap="round" stroke-linejoin="round" fill="none"/><path d="M 54 138 L 54 138 L 54 134 L 59 132 L 64 132 L 67 132 L 67 135 L 65 138 L 60 142 L 57 147" stroke="#ffffff" stroke-width="2" stroke-linecap="round" stroke-linejoin="round" fill="none"/><path d="M 86 129 L 84 129 L 84 127 L 89 124 L 94 121 L 98 120 L 100 120" stroke="#ffffff" stroke-width="2" stroke-linecap="round" stroke-linejoin="round" fill="none"/><path d="M 84 142 L 80 141 L 84 137 L 89 134 L 93 132 L 97 130" stroke="#ffffff" stroke-width="2" stroke-linecap="round" stroke-linejoin="round" fill="none"/><path d="M 93 113 L 92 111 L 91 111 L 91 117 L 91 128 L 92 140 L 93 147 L 95 150 L 99 150 L 102 146" stroke="#ffffff" stroke-width="2" stroke-linecap="round" stroke-linejoin="round" fill="none"/><path d="M 122 113 L 119 113 L 118 114 L 119 119 L 121 124 L 121 125" stroke="#ffffff" stroke-width="2" stroke-linecap="round" stroke-linejoin="round" fill="none"/><path d="M 131 120 L 129 119 L 126 118 L 124 121 L 121 126 L 119 133 L 118 138 L 120 140 L 125 139 L 131 135 L 133 133" stroke="#ffffff" stroke-width="2" stroke-linecap="round" stroke-linejoin="round" fill="none"/><path d="M 136 101 L 131 106 L 131 112 L 131 113" stroke="#ffffff" stroke-width="2" stroke-linecap="round" stroke-linejoin="round" fill="none"/><path d="M 142 98 L 141 97 L 140 100 L 140 104" stroke="#ffffff" stroke-width="2" stroke-linecap="round" stroke-linejoin="round" fill="none"/><path d="M 152 113 L 151 113 L 152 108 L 155 107 L 157 107" stroke="#ffffff" stroke-width="2" stroke-linecap="round" stroke-linejoin="round" fill="none"/><path d="M 150 129 L 147 129 L 146 129 L 148 127 L 152 124 L 157 123 L 161 124 L 161 128 L 158 134 L 152 140 L 148 144" stroke="#ffffff" stroke-width="2" stroke-linecap="round" stroke-linejoin="round" fill="none"/><path d="M 179 114 L 177 111 L 176 109 L 177 110 L 177 115 L 178 121 L 178 123" stroke="#ffffff" stroke-width="2" stroke-linecap="round" stroke-linejoin="round" fill="none"/><path d="M 190 108 L 189 108 L 188 108 L 188 114 L 188 124 L 184 136 L 178 147 L 172 153 L 170 155" stroke="#ffffff" stroke-width="2" stroke-linecap="round" stroke-linejoin="round" fill="none"/><path d="M 206 133 L 206 133 L 207 127 L 213 123 L 219 121 L 222 123 L 221 128 L 218 135 L 215 141 L 213 146 L 211 149" stroke="#ffffff" stroke-width="2" stroke-linecap="round" stroke-linejoin="round" fill="none"/><path d="M 216 137 L 215 135 L 223 137 L 227 140" stroke="#ffffff" stroke-width="2" stroke-linecap="round" stroke-linejoin="round" fill="none"/><path d="M 246 119 L 245 118 L 243 119 L 243 124 L 242 130 L 242 132" stroke="#ffffff" stroke-width="2" stroke-linecap="round" stroke-linejoin="round" fill="none"/><path d="M 242 126 L 242 121 L 243 117 L 246 116 L 249 117 L 251 120 L 251 126 L 249 133 L 245 141 L 240 148 L 237 153 L 236 153" stroke="#ffffff" stroke-width="2" stroke-linecap="round" stroke-linejoin="round" fill="none"/><path d="M 268 127 L 268 127 L 270 121 L 273 118 L 277 117 L 278 117 L 278 118 L 277 119 L 276 119 L 276 121 L 275 126 L 273 133 L 270 141 L 267 147 L 265 149 L 262 149 L 260 148 L 260 147 L 261 145 L 263 145 L 268 143 L 274 142 L 281 139 L 289 136" stroke="#ffffff" stroke-width="2" stroke-linecap="round" stroke-linejoin="round" fill="none"/><path d="M 298 124 L 297 122 L 300 114 L 306 110 L 311 109 L 315 109 L 317 110 L 317 113 L 315 116 L 312 120 L 309 124 L 307 128 L 304 133 L 303 139 L 301 145 L 298 150 L 296 153" stroke="#ffffff" stroke-width="2" stroke-linecap="round" stroke-linejoin="round" fill="none"/><path d="M 341 118 L 339 116 L 338 112 L 337 116 L 334 123 L 333 131 L 332 135" stroke="#ffffff" stroke-width="2" stroke-linecap="round" stroke-linejoin="round" fill="none"/><path d="M 334 125 L 333 121 L 333 118 L 335 115 L 339 115 L 343 118 L 345 126 L 343 136 L 340 146 L 337 154 L 335 157 L 335 158" stroke="#ffffff" stroke-width="2" stroke-linecap="round" stroke-linejoin="round" fill="none"/><path d="M 349 100 L 348 99 L 344 98 L 344 104 L 345 109" stroke="#ffffff" stroke-width="2" stroke-linecap="round" stroke-linejoin="round" fill="none"/><path d="M 354 97 L 355 93 L 356 89 L 356 98 L 355 102" stroke="#ffffff" stroke-width="2" stroke-linecap="round" stroke-linejoin="round" fill="none"/><path d="M 358 117 L 358 116 L 358 112 L 359 111 L 365 108 L 368 108 L 368 109" stroke="#ffffff" stroke-width="2" stroke-linecap="round" stroke-linejoin="round" fill="none"/><path d="M 357 130 L 357 130 L 356 126 L 361 123 L 368 121 L 372 121 L 374 123 L 372 130 L 368 137 L 363 145 L 358 151 L 357 152" stroke="#ffffff" stroke-width="2" stroke-linecap="round" stroke-linejoin="round" fill="none"/><path d="M 396 114 L 396 113 L 394 111 L 392 117 L 391 128 L 390 139 L 390 146 L 391 148" stroke="#ffffff" stroke-width="2" stroke-linecap="round" stroke-linejoin="round" fill="none"/><path d="M 405 126 L 405 124 L 406 118 L 409 118 L 413 119" stroke="#ffffff" stroke-width="2" stroke-linecap="round" stroke-linejoin="round" fill="none"/><path d="M 406 136 L 403 137 L 405 136 L 410 133 L 414 132" stroke="#ffffff" stroke-width="2" stroke-linecap="round" stroke-linejoin="round" fill="none"/><path d="M 444 104 L 442 104 L 438 108 L 438 113 L 438 119 L 437 123" stroke="#ffffff" stroke-width="2" stroke-linecap="round" stroke-linejoin="round" fill="none"/><path d="M 439 117 L 439 116 L 440 110 L 444 109 L 450 109 L 455 109" stroke="#ffffff" stroke-width="2" stroke-linecap="round" stroke-linejoin="round" fill="none"/><path d="M 437 129 L 436 129 L 436 129 L 441 126 L 448 121 L 454 118 L 456 116" stroke="#ffffff" stroke-width="2" stroke-linecap="round" stroke-linejoin="round" fill="none"/><path d="M 446 112 L 446 113 L 445 114 L 444 114 L 444 124 L 442 134 L 439 143 L 436 148 L 436 149" stroke="#ffffff" stroke-width="2" stroke-linecap="round" stroke-linejoin="round" fill="none"/><path d="M 441 126 L 441 125 L 445 126 L 451 130 L 457 133" stroke="#ffffff" stroke-width="2" stroke-linecap="round" stroke-linejoin="round" fill="none"/><path d="M 463 108 L 462 106 L 466 102 L 471 101 L 476 102 L 476 103" stroke="#ffffff" stroke-width="2" stroke-linecap="round" stroke-linejoin="round" fill="none"/><path d="M 461 116 L 459 116 L 458 117 L 457 119 L 458 126 L 458 129" stroke="#ffffff" stroke-width="2" stroke-linecap="round" stroke-linejoin="round" fill="none"/><path d="M 462 124 L 462 121 L 463 117 L 464 115 L 467 114 L 469 117 L 469 120 L 469 123 L 468 125 L 467 126" stroke="#ffffff" stroke-width="2" stroke-linecap="round" stroke-linejoin="round" fill="none"/><path d="M 456 132 L 455 132 L 455 131 L 460 129 L 466 127 L 470 125 L 472 123 L 472 122 L 471 122 L 470 123 L 468 127 L 465 133 L 463 138 L 461 141 L 462 138 L 463 136 L 463 135 L 461 136 L 457 141 L 453 146 L 450 149 L 449 149 L 449 148 L 451 146 L 455 143 L 462 140 L 472 137 L 485 133 L 491 133" stroke="#ffffff" stroke-width="2" stroke-linecap="round" stroke-linejoin="round" fill="none"/><path d="M 510 115 L 510 114 L 507 111 L 505 115 L 500 122 L 495 130 L 493 133 L 494 134 L 498 135 L 508 133 L 512 133" stroke="#ffffff" stroke-width="2" stroke-linecap="round" stroke-linejoin="round" fill="none"/><path d="M 528 121 L 528 121 L 530 117 L 537 113 L 545 112 L 548 111" stroke="#ffffff" stroke-width="2" stroke-linecap="round" stroke-linejoin="round" fill="none"/><path d="M 529 129 L 526 128 L 530 126 L 536 124 L 542 121 L 547 119" stroke="#ffffff" stroke-width="2" stroke-linecap="round" stroke-linejoin="round" fill="none"/><path d="M 543 103 L 541 100 L 540 101 L 538 110 L 536 123 L 534 133 L 535 139 L 539 139 L 545 138 L 550 135" stroke="#ffffff" stroke-width="2" stroke-linecap="round" stroke-linejoin="round" fill="none"/><path d="M 567 107 L 566 106 L 564 107 L 564 113 L 564 117" stroke="#ffffff" stroke-width="2" stroke-linecap="round" stroke-linejoin="round" fill="none"/><path d="M 572 117 L 571 116 L 569 114 L 568 115 L 566 118 L 563 124 L 560 130 L 560 134 L 563 135 L 569 134 L 572 133" stroke="#ffffff" stroke-width="2" stroke-linecap="round" stroke-linejoin="round" fill="none"/><path d="M 582 96 L 581 96 L 575 102 L 574 108" stroke="#ffffff" stroke-width="2" stroke-linecap="round" stroke-linejoin="round" fill="none"/><path d="M 585 98 L 585 97 L 585 96 L 585 97 L 584 104 L 584 106" stroke="#ffffff" stroke-width="2" stroke-linecap="round" stroke-linejoin="round" fill="none"/><path d="M 600 113 L 597 110 L 596 111 L 592 119 L 589 128 L 590 135 L 593 138 L 601 137 L 608 133 L 610 132" stroke="#ffffff" stroke-width="2" stroke-linecap="round" stroke-linejoin="round" fill="none"/><path d="M 613 118 L 611 117 L 613 111 L 617 109 L 621 108 L 625 108 L 629 108 L 630 108" stroke="#ffffff" stroke-width="2" stroke-linecap="round" stroke-linejoin="round" fill="none"/><path d="M 628 101 L 626 99 L 625 99 L 623 107 L 619 118 L 615 129 L 613 136 L 613 140 L 613 141" stroke="#ffffff" stroke-width="2" stroke-linecap="round" stroke-linejoin="round" fill="none"/><path d="M 627 127 L 626 125 L 627 121 L 631 120 L 636 120 L 637 120" stroke="#ffffff" stroke-width="2" stroke-linecap="round" stroke-linejoin="round" fill="none"/><path d="M 630 132 L 627 132 L 627 132 L 631 132 L 640 130" stroke="#ffffff" stroke-width="2" stroke-linecap="round" stroke-linejoin="round" fill="none"/><path d="M 25 192 L 24 192 L 24 190 L 26 187 L 30 184 L 35 182 L 36 181" stroke="#ffffff" stroke-width="2" stroke-linecap="round" stroke-linejoin="round" fill="none"/><path d="M 28 198 L 28 195 L 31 191 L 36 189 L 39 188 L 40 190 L 39 193 L 37 196 L 36 199" stroke="#ffffff" stroke-width="2" stroke-linecap="round" stroke-linejoin="round" fill="none"/><path d="M 34 204 L 31 203 L 36 196 L 40 194 L 41 193" stroke="#ffffff" stroke-width="2" stroke-linecap="round" stroke-linejoin="round" fill="none"/><path d="M 32 195 L 30 194 L 29 193 L 30 198 L 29 207 L 27 218 L 25 227 L 23 232" stroke="#ffffff" stroke-width="2" stroke-linecap="round" stroke-linejoin="round" fill="none"/><path d="M 36 211 L 35 210 L 33 211 L 34 219 L 35 229 L 35 238 L 36 242" stroke="#ffffff" stroke-width="2" stroke-linecap="round" stroke-linejoin="round" fill="none"/><path d="M 36 213 L 35 211 L 34 208 L 34 207 L 39 204 L 43 203 L 46 203 L 47 207 L 48 215 L 48 224 L 49 232 L 50 238" stroke="#ffffff" stroke-width="2" stroke-linecap="round" stroke-linejoin="round" fill="none"/><path d="M 42 219 L 40 218 L 38 214 L 41 214 L 43 213" stroke="#ffffff" stroke-width="2" stroke-linecap="round" stroke-linejoin="round" fill="none"/><path d="M 42 225 L 39 226 L 39 226 L 40 225 L 45 222" stroke="#ffffff" stroke-width="2" stroke-linecap="round" stroke-linejoin="round" fill="none"/><path d="M 81 204 L 79 204 L 75 203 L 74 203 L 73 207 L 73 211 L 73 215 L 75 217 L 78 218 L 82 217" stroke="#ffffff" stroke-width="2" stroke-linecap="round" stroke-linejoin="round" fill="none"/><path d="M 80 181 L 79 180 L 77 182 L 78 187 L 79 188" stroke="#ffffff" stroke-width="2" stroke-linecap="round" stroke-linejoin="round" fill="none"/><path d="M 88 179 L 88 179 L 88 178 L 88 179 L 90 181" stroke="#ffffff" stroke-width="2" stroke-linecap="round" stroke-linejoin="round" fill="none"/><path d="M 102 190 L 101 190 L 99 189 L 99 191 L 100 192" stroke="#ffffff" stroke-width="2" stroke-linecap="round" stroke-linejoin="round" fill="none"/><path d="M 101 192 L 99 193 L 97 195 L 95 200 L 94 205 L 94 209 L 96 210 L 98 209 L 101 208 L 104 208 L 107 209 L 107 214 L 104 219 L 98 224 L 92 226 L 88 227" stroke="#ffffff" stroke-width="2" stroke-linecap="round" stroke-linejoin="round" fill="none"/><path d="M 127 196 L 125 195 L 125 195 L 125 200 L 127 206 L 129 212 L 129 212" stroke="#ffffff" stroke-width="2" stroke-linecap="round" stroke-linejoin="round" fill="none"/><path d="M 138 193 L 138 192 L 137 194 L 137 201 L 137 204" stroke="#ffffff" stroke-width="2" stroke-linecap="round" stroke-linejoin="round" fill="none"/><path d="M 160 193 L 159 193 L 156 194 L 156 197 L 157 201 L 157 205 L 155 206 L 153 206 L 152 203 L 153 199 L 156 195 L 162 192 L 167 193 L 169 199 L 167 206 L 164 213 L 163 215" stroke="#ffffff" stroke-width="2" stroke-linecap="round" stroke-linejoin="round" fill="none"/><path d="M 202 184 L 202 181 L 200 178 L 200 181 L 200 193 L 200 207 L 200 215 L 201 217 L 203 214 L 206 208 L 209 200 L 213 194" stroke="#ffffff" stroke-width="2" stroke-linecap="round" stroke-linejoin="round" fill="none"/><path d="M 226 192 L 224 192 L 223 190 L 226 188 L 230 187 L 232 187" stroke="#ffffff" stroke-width="2" stroke-linecap="round" stroke-linejoin="round" fill="none"/><path d="M 227 208 L 227 209 L 225 210 L 227 207 L 231 202 L 237 195 L 244 186" stroke="#ffffff" stroke-width="2" stroke-linecap="round" stroke-linejoin="round" fill="none"/><path d="M 264 179 L 264 178 L 260 177 L 258 181 L 256 188 L 255 194 L 254 197 L 254 198" stroke="#ffffff" stroke-width="2" stroke-linecap="round" stroke-linejoin="round" fill="none"/><path d="M 259 186 L 259 186 L 260 179 L 262 178 L 266 179 L 268 184 L 268 193 L 265 204 L 261 215 L 257 222 L 255 224" stroke="#ffffff" stroke-width="2" stroke-linecap="round" stroke-linejoin="round" fill="none"/><path d="M 269 164 L 268 164 L 265 174 L 266 180" stroke="#ffffff" stroke-width="2" stroke-linecap="round" stroke-linejoin="round" fill="none"/><path d="M 275 166 L 275 164 L 275 161 L 277 165 L 277 167" stroke="#ffffff" stroke-width="2" stroke-linecap="round" stroke-linejoin="round" fill="none"/><path d="M 281 190 L 279 189 L 283 185 L 287 184 L 290 185 L 290 189 L 288 195 L 285 201 L 283 205" stroke="#ffffff" stroke-width="2" stroke-linecap="round" stroke-linejoin="round" fill="none"/><path d="M 285 193 L 286 193 L 289 194 L 294 198 L 300 201" stroke="#ffffff" stroke-width="2" stroke-linecap="round" stroke-linejoin="round" fill="none"/><path d="M 368 181 L 368 179 L 368 179 L 368 188 L 367 198 L 366 205 L 363 209 L 361 208 L 360 204 L 359 197 L 361 189 L 365 182 L 371 176 L 377 175 L 379 179 L 380 188 L 378 198 L 375 206 L 374 212" stroke="#ffffff" stroke-width="2" stroke-linecap="round" stroke-linejoin="round" fill="none"/><path d="M 400 188 L 397 186 L 396 185 L 399 181 L 402 179 L 404 179 L 405 179 L 405 180 L 403 182 L 400 190 L 398 199 L 399 205 L 404 206 L 409 201 L 412 194 L 413 187 L 414 182 L 414 181 L 414 182 L 415 187 L 416 192 L 419 197 L 421 199" stroke="#ffffff" stroke-width="2" stroke-linecap="round" stroke-linejoin="round" fill="none"/><path d="M 425 164 L 422 163 L 421 169 L 422 172" stroke="#ffffff" stroke-width="2" stroke-linecap="round" stroke-linejoin="round" fill="none"/><path d="M 428 162 L 428 159 L 429 157 L 429 158 L 429 165" stroke="#ffffff" stroke-width="2" stroke-linecap="round" stroke-linejoin="round" fill="none"/><path d="M 444 173 L 443 172 L 445 170 L 448 171 L 449 173 L 449 177 L 447 180 L 443 183 L 441 183 L 440 182 L 441 182 L 444 182 L 448 183 L 449 187 L 448 191 L 445 195 L 441 197 L 438 197 L 437 196 L 437 195 L 440 194 L 444 193 L 446 192" stroke="#ffffff" stroke-width="2" stroke-linecap="round" stroke-linejoin="round" fill="none"/><path d="M 471 179 L 470 179 L 469 179 L 469 182 L 469 185 L 468 188 L 466 189 L 463 189 L 463 186 L 465 182 L 470 179 L 475 177 L 479 179 L 479 183 L 477 189 L 473 195 L 469 198" stroke="#ffffff" stroke-width="2" stroke-linecap="round" stroke-linejoin="round" fill="none"/><path d="M 502 169 L 502 168 L 500 165 L 500 166 L 501 170 L 503 175 L 504 179" stroke="#ffffff" stroke-width="2" stroke-linecap="round" stroke-linejoin="round" fill="none"/><path d="M 502 172 L 502 169 L 501 165 L 501 164 L 506 161 L 511 160 L 518 158 L 521 158 L 522 158 L 520 162 L 517 167 L 515 173 L 515 175" stroke="#ffffff" stroke-width="2" stroke-linecap="round" stroke-linejoin="round" fill="none"/><path d="M 509 174 L 508 173 L 506 171 L 506 170 L 509 170 L 515 170" stroke="#ffffff" stroke-width="2" stroke-linecap="round" stroke-linejoin="round" fill="none"/><path d="M 507 180 L 506 179 L 505 178 L 508 175 L 513 174" stroke="#ffffff" stroke-width="2" stroke-linecap="round" stroke-linejoin="round" fill="none"/><path d="M 494 200 L 490 200 L 490 199 L 499 194 L 510 189 L 522 184 L 528 182" stroke="#ffffff" stroke-width="2" stroke-linecap="round" stroke-linejoin="round" fill="none"/><path d="M 512 177 L 510 177 L 508 181 L 508 192 L 508 205 L 508 216 L 508 218" stroke="#ffffff" stroke-width="2" stroke-linecap="round" stroke-linejoin="round" fill="none"/><path d="M 546 181 L 545 181 L 541 177 L 541 180 L 543 186 L 544 190" stroke="#ffffff" stroke-width="2" stroke-linecap="round" stroke-linejoin="round" fill="none"/><path d="M 558 177 L 558 176 L 558 175 L 556 178 L 554 185 L 553 192 L 553 193" stroke="#ffffff" stroke-width="2" stroke-linecap="round" stroke-linejoin="round" fill="none"/><path d="M 31 282 L 29 280 L 33 275 L 40 270 L 48 266 L 53 262 L 55 261" stroke="#ffffff" stroke-width="2" stroke-linecap="round" stroke-linejoin="round" fill="none"/><path d="M 44 259 L 42 258 L 42 258 L 42 258 L 42 266 L 40 282 L 35 296 L 31 305 L 30 307 L 30 308" stroke="#ffffff" stroke-width="2" stroke-linecap="round" stroke-linejoin="round" fill="none"/><path d="M 43 287 L 43 287 L 42 287 L 43 292 L 46 298 L 47 300" stroke="#ffffff" stroke-width="2" stroke-linecap="round" stroke-linejoin="round" fill="none"/><path d="M 47 290 L 45 284 L 46 283 L 49 282 L 52 282 L 55 282 L 55 285 L 55 288 L 54 291 L 54 294" stroke="#ffffff" stroke-width="2" stroke-linecap="round" stroke-linejoin="round" fill="none"/><path d="M 49 305 L 48 305 L 45 302 L 49 296 L 54 292" stroke="#ffffff" stroke-width="2" stroke-linecap="round" stroke-linejoin="round" fill="none"/><path d="M 78 259 L 77 258 L 75 256 L 76 259 L 77 268 L 78 281 L 78 293 L 79 300 L 80 301" stroke="#ffffff" stroke-width="2" stroke-linecap="round" stroke-linejoin="round" fill="none"/><path d="M 72 281 L 68 278 L 68 276 L 70 272 L 76 270" stroke="#ffffff" stroke-width="2" stroke-linecap="round" stroke-linejoin="round" fill="none"/><path d="M 76 294 L 74 294 L 73 289 L 78 281 L 84 273 L 90 269 L 93 270 L 94 277 L 93 284 L 91 290 L 89 295" stroke="#ffffff" stroke-width="2" stroke-linecap="round" stroke-linejoin="round" fill="none"/><path d="M 113 267 L 109 267 L 106 272 L 106 276 L 108 279 L 111 280" stroke="#ffffff" stroke-width="2" stroke-linecap="round" stroke-linejoin="round" fill="none"/><path d="M 117 265 L 116 263 L 123 255 L 131 251 L 136 248 L 138 247" stroke="#ffffff" stroke-width="2" stroke-linecap="round" stroke-linejoin="round" fill="none"/><path d="M 125 245 L 123 250 L 125 261 L 127 276 L 126 290 L 123 301 L 118 308 L 114 312" stroke="#ffffff" stroke-width="2" stroke-linecap="round" stroke-linejoin="round" fill="none"/></svg>
