<svg xmlns="http://www.w3.org/2000/svg" width="678" height="273" viewBox="0 0 678 273"><path d="M 16 21 L 15 21 L 14 20 L 13 19 L 13 21 L 12 28 L 10 39 L 10 49 L 10 55" stroke="#ffffff" stroke-width="2" stroke-linecap="round" stroke-linejoin="round" fill="none"/><path d="M 31 24 L 29 24 L 28 24 L 28 26 L 28 29 L 29 33 L 32 34 L 37 34 L 42 33 L 44 34 L 44 36 L 41 38 L 37 40 L 33 40 L 30 41" stroke="#ffffff" stroke-width="2" stroke-linecap="round" stroke-linejoin="round" fill="none"/><path d="M 30 25 L 29 23 L 29 22 L 33 21 L 40 21 L 49 20" stroke="#ffffff" stroke-width="2" stroke-linecap="round" stroke-linejoin="round" fill="none"/><path d="M 83 11 L 83 10 L 81 10 L 79 11 L 76 19 L 70 32 L 61 47 L 54 59 L 51 66 L 51 68" stroke="#ffffff" stroke-width="2" stroke-linecap="round" stroke-linejoin="round" fill="none"/><path d="M 87 40 L 86 43 L 85 49 L 85 55 L 85 60" stroke="#ffffff" stroke-width="2" stroke-linecap="round" stroke-linejoin="round" fill="none"/><path d="M 101 37 L 100 38 L 98 39 L 97 42 L 97 48 L 96 55 L 97 59" stroke="#ffffff" stroke-width="2" stroke-linecap="round" stroke-linejoin="round" fill="none"/><path d="M 185 34 L 184 32 L 183 30 L 180 28 L 177 28 L 174 33 L 171 41 L 170 49 L 172 54 L 177 55 L 183 52 L 190 48" stroke="#ffffff" stroke-width="2" stroke-linecap="round" stroke-linejoin="round" fill="none"/><path d="M 231 15 L 230 13 L 229 13 L 226 16 L 223 26 L 219 39 L 218 47 L 218 50 L 221 50 L 224 48 L 228 43 L 230 39 L 230 37 L 229 35 L 226 36 L 221 39 L 216 45 L 215 47" stroke="#ffffff" stroke-width="2" stroke-linecap="round" stroke-linejoin="round" fill="none"/><path d="M 253 28 L 251 27 L 250 27 L 249 28 L 247 33 L 246 40 L 247 46 L 251 47 L 256 45 L 260 39 L 261 34 L 262 30 L 260 27 L 257 25 L 254 25 L 251 27 L 249 29" stroke="#ffffff" stroke-width="2" stroke-linecap="round" stroke-linejoin="round" fill="none"/><path d="M 42 109 L 41 108 L 42 107 L 47 106 L 57 102 L 67 98 L 73 96 L 76 95 L 77 95" stroke="#ffffff" stroke-width="2" stroke-linecap="round" stroke-linejoin="round" fill="none"/><path d="M 58 93 L 56 92 L 55 92 L 55 93 L 56 98 L 58 105 L 60 111 L 60 112" stroke="#ffffff" stroke-width="2" stroke-linecap="round" stroke-linejoin="round" fill="none"/><path d="M 67 88 L 67 89 L 68 96 L 68 110 L 66 122 L 64 131 L 62 136 L 61 137" stroke="#ffffff" stroke-width="2" stroke-linecap="round" stroke-linejoin="round" fill="none"/><path d="M 100 95 L 99 95 L 98 95 L 96 99 L 93 104 L 88 110 L 85 114" stroke="#ffffff" stroke-width="2" stroke-linecap="round" stroke-linejoin="round" fill="none"/><path d="M 92 103 L 92 102 L 92 101 L 93 101 L 93 106 L 93 115 L 92 125 L 92 131 L 91 132" stroke="#ffffff" stroke-width="2" stroke-linecap="round" stroke-linejoin="round" fill="none"/><path d="M 118 93 L 116 93 L 115 94 L 114 97 L 115 104 L 115 113 L 115 121 L 115 126" stroke="#ffffff" stroke-width="2" stroke-linecap="round" stroke-linejoin="round" fill="none"/><path d="M 113 113 L 113 112 L 114 111 L 119 110 L 125 110 L 130 110" stroke="#ffffff" stroke-width="2" stroke-linecap="round" stroke-linejoin="round" fill="none"/><path d="M 129 92 L 128 92 L 127 93 L 126 94 L 126 96" stroke="#ffffff" stroke-width="2" stroke-linecap="round" stroke-linejoin="round" fill="none"/><path d="M 134 87 L 133 89 L 133 92" stroke="#ffffff" stroke-width="2" stroke-linecap="round" stroke-linejoin="round" fill="none"/><path d="M 156 97 L 155 97 L 154 97 L 154 100 L 154 107 L 154 114 L 155 118" stroke="#ffffff" stroke-width="2" stroke-linecap="round" stroke-linejoin="round" fill="none"/><path d="M 166 98 L 167 98 L 169 100 L 172 104 L 175 108" stroke="#ffffff" stroke-width="2" stroke-linecap="round" stroke-linejoin="round" fill="none"/><path d="M 177 86 L 176 86 L 175 86 L 174 87 L 174 90" stroke="#ffffff" stroke-width="2" stroke-linecap="round" stroke-linejoin="round" fill="none"/><path d="M 181 83 L 180 83 L 179 85 L 179 88" stroke="#ffffff" stroke-width="2" stroke-linecap="round" stroke-linejoin="round" fill="none"/><path d="M 195 99 L 193 99 L 192 100 L 192 102 L 192 103" stroke="#ffffff" stroke-width="2" stroke-linecap="round" stroke-linejoin="round" fill="none"/><path d="M 199 99 L 198 99 L 197 99 L 196 100 L 196 101" stroke="#ffffff" stroke-width="2" stroke-linecap="round" stroke-linejoin="round" fill="none"/><path d="M 206 96 L 205 98 L 203 102 L 200 106 L 198 109" stroke="#ffffff" stroke-width="2" stroke-linecap="round" stroke-linejoin="round" fill="none"/><path d="M 215 82 L 214 82 L 213 84 L 212 88 L 212 94 L 211 97" stroke="#ffffff" stroke-width="2" stroke-linecap="round" stroke-linejoin="round" fill="none"/><path d="M 211 94 L 211 93 L 212 89 L 213 85 L 216 83 L 220 82 L 223 83 L 225 89 L 224 97 L 222 106 L 217 114 L 215 118" stroke="#ffffff" stroke-width="2" stroke-linecap="round" stroke-linejoin="round" fill="none"/><path d="M 240 89 L 240 88 L 239 88 L 238 92 L 237 100 L 237 106 L 238 110 L 238 111" stroke="#ffffff" stroke-width="2" stroke-linecap="round" stroke-linejoin="round" fill="none"/><path d="M 252 90 L 252 91 L 253 94 L 255 99" stroke="#ffffff" stroke-width="2" stroke-linecap="round" stroke-linejoin="round" fill="none"/><path d="M 259 84 L 258 83 L 257 82 L 261 82 L 269 82 L 278 82 L 284 81 L 288 80" stroke="#ffffff" stroke-width="2" stroke-linecap="round" stroke-linejoin="round" fill="none"/><path d="M 268 76 L 267 76 L 266 76 L 266 78 L 266 84 L 266 91 L 268 95" stroke="#ffffff" stroke-width="2" stroke-linecap="round" stroke-linejoin="round" fill="none"/><path d="M 277 73 L 277 78 L 277 88 L 277 99 L 275 108 L 271 113 L 270 114" stroke="#ffffff" stroke-width="2" stroke-linecap="round" stroke-linejoin="round" fill="none"/><path d="M 301 84 L 301 83 L 302 83 L 304 83 L 306 83" stroke="#ffffff" stroke-width="2" stroke-linecap="round" stroke-linejoin="round" fill="none"/><path d="M 298 93 L 297 93 L 296 93 L 297 93 L 301 93 L 302 93" stroke="#ffffff" stroke-width="2" stroke-linecap="round" stroke-linejoin="round" fill="none"/><path d="M 296 104 L 295 104 L 294 104 L 294 105 L 297 106 L 302 106 L 309 104" stroke="#ffffff" stroke-width="2" stroke-linecap="round" stroke-linejoin="round" fill="none"/><path d="M 330 87 L 329 86 L 329 85 L 333 84 L 338 83 L 343 83 L 345 83 L 344 83 L 341 85 L 337 89 L 334 93 L 332 98 L 334 101 L 339 101 L 344 99 L 347 96" stroke="#ffffff" stroke-width="2" stroke-linecap="round" stroke-linejoin="round" fill="none"/><path d="M 352 66 L 351 67 L 348 69 L 346 73 L 347 75 L 347 76" stroke="#ffffff" stroke-width="2" stroke-linecap="round" stroke-linejoin="round" fill="none"/><path d="M 360 66 L 360 65 L 358 70 L 357 74" stroke="#ffffff" stroke-width="2" stroke-linecap="round" stroke-linejoin="round" fill="none"/><path d="M 372 93 L 372 92 L 372 91 L 371 93 L 370 96 L 370 99 L 371 100 L 372 100 L 373 97 L 373 93 L 372 91 L 369 91 L 368 92" stroke="#ffffff" stroke-width="2" stroke-linecap="round" stroke-linejoin="round" fill="none"/><path d="M 423 65 L 421 65 L 420 69 L 419 79 L 418 91 L 417 99 L 419 104" stroke="#ffffff" stroke-width="2" stroke-linecap="round" stroke-linejoin="round" fill="none"/><path d="M 416 87 L 416 85 L 416 83 L 418 82 L 423 82 L 430 83 L 433 83" stroke="#ffffff" stroke-width="2" stroke-linecap="round" stroke-linejoin="round" fill="none"/><path d="M 442 79 L 441 77 L 439 77 L 439 79 L 440 83" stroke="#ffffff" stroke-width="2" stroke-linecap="round" stroke-linejoin="round" fill="none"/><path d="M 447 77 L 446 77 L 445 77 L 443 79 L 443 81" stroke="#ffffff" stroke-width="2" stroke-linecap="round" stroke-linejoin="round" fill="none"/><path d="M 450 76 L 450 75 L 451 75 L 450 76 L 448 82 L 445 89 L 440 97 L 437 100" stroke="#ffffff" stroke-width="2" stroke-linecap="round" stroke-linejoin="round" fill="none"/><path d="M 468 85 L 467 85 L 467 83 L 469 80 L 473 80 L 475 81 L 475 86 L 472 91 L 469 94 L 468 95" stroke="#ffffff" stroke-width="2" stroke-linecap="round" stroke-linejoin="round" fill="none"/><path d="M 476 73 L 476 69 L 478 64 L 480 61 L 483 60 L 484 61 L 484 64 L 482 67 L 479 70 L 478 71" stroke="#ffffff" stroke-width="2" stroke-linecap="round" stroke-linejoin="round" fill="none"/><path d="M 506 72 L 505 71 L 504 70 L 505 68 L 510 66 L 515 64 L 519 64" stroke="#ffffff" stroke-width="2" stroke-linecap="round" stroke-linejoin="round" fill="none"/><path d="M 499 80 L 498 80 L 498 79 L 499 78 L 505 75 L 511 72 L 517 70 L 520 67" stroke="#ffffff" stroke-width="2" stroke-linecap="round" stroke-linejoin="round" fill="none"/><path d="M 514 59 L 513 59 L 512 58 L 511 59 L 510 64 L 509 73 L 507 83 L 506 90 L 504 92 L 502 93 L 500 92 L 500 90 L 500 89 L 502 88 L 506 86 L 510 85 L 516 83" stroke="#ffffff" stroke-width="2" stroke-linecap="round" stroke-linejoin="round" fill="none"/><path d="M 530 79 L 530 78 L 529 76 L 530 74 L 533 72 L 537 71 L 538 70" stroke="#ffffff" stroke-width="2" stroke-linecap="round" stroke-linejoin="round" fill="none"/><path d="M 536 70 L 535 71 L 533 72 L 532 75 L 532 80 L 533 85 L 534 89" stroke="#ffffff" stroke-width="2" stroke-linecap="round" stroke-linejoin="round" fill="none"/><path d="M 540 78 L 539 77 L 537 78 L 534 83 L 532 89 L 529 93 L 528 94 L 528 92 L 529 88 L 532 84 L 536 82 L 540 81 L 543 83 L 543 88 L 541 92 L 540 94" stroke="#ffffff" stroke-width="2" stroke-linecap="round" stroke-linejoin="round" fill="none"/><path d="M 559 66 L 558 66 L 557 66 L 558 65 L 562 64 L 567 63 L 570 63" stroke="#ffffff" stroke-width="2" stroke-linecap="round" stroke-linejoin="round" fill="none"/><path d="M 556 75 L 555 74 L 556 72 L 560 70 L 565 69 L 568 69" stroke="#ffffff" stroke-width="2" stroke-linecap="round" stroke-linejoin="round" fill="none"/><path d="M 565 53 L 564 52 L 563 53 L 562 59 L 561 71 L 560 83 L 559 90 L 558 94 L 557 94 L 554 94 L 553 91 L 553 88 L 555 85 L 558 84 L 562 82 L 567 81 L 569 81" stroke="#ffffff" stroke-width="2" stroke-linecap="round" stroke-linejoin="round" fill="none"/><path d="M 578 80 L 579 79 L 579 77 L 580 75 L 583 73 L 587 72 L 591 71" stroke="#ffffff" stroke-width="2" stroke-linecap="round" stroke-linejoin="round" fill="none"/><path d="M 585 69 L 584 69 L 583 69 L 582 70 L 581 75 L 581 82 L 581 89 L 582 93 L 583 93" stroke="#ffffff" stroke-width="2" stroke-linecap="round" stroke-linejoin="round" fill="none"/><path d="M 586 84 L 587 82 L 587 80 L 588 78 L 588 79 L 587 83 L 584 87 L 581 91 L 578 93 L 576 93 L 576 90 L 578 87 L 581 84 L 584 83 L 587 83 L 588 86 L 588 90" stroke="#ffffff" stroke-width="2" stroke-linecap="round" stroke-linejoin="round" fill="none"/><path d="M 600 67 L 600 66 L 601 64 L 605 63 L 613 63 L 621 63 L 626 64" stroke="#ffffff" stroke-width="2" stroke-linecap="round" stroke-linejoin="round" fill="none"/><path d="M 618 59 L 618 58 L 618 57 L 616 61 L 613 69 L 610 78 L 608 84 L 607 85 L 606 85 L 605 83 L 605 80 L 606 76 L 608 73 L 611 71 L 615 72 L 617 77 L 616 84 L 612 91 L 607 97 L 606 99" stroke="#ffffff" stroke-width="2" stroke-linecap="round" stroke-linejoin="round" fill="none"/><path d="M 648 79 L 646 78 L 645 77 L 644 77 L 643 77 L 642 77 L 639 78 L 636 80 L 633 82 L 632 85 L 633 87 L 636 90 L 641 94 L 645 96 L 649 98" stroke="#ffffff" stroke-width="2" stroke-linecap="round" stroke-linejoin="round" fill="none"/><path d="M 24 174 L 23 174 L 22 173 L 21 173 L 21 172 L 25 171 L 37 166 L 54 158 L 65 155 L 69 154 L 69 156" stroke="#ffffff" stroke-width="2" stroke-linecap="round" stroke-linejoin="round" fill="none"/><path d="M 36 158 L 36 157 L 35 156 L 35 157 L 36 162 L 38 168 L 40 174 L 41 175" stroke="#ffffff" stroke-width="2" stroke-linecap="round" stroke-linejoin="round" fill="none"/><path d="M 46 147 L 46 146 L 46 145 L 48 149 L 50 160 L 50 174 L 47 187 L 43 198 L 42 204" stroke="#ffffff" stroke-width="2" stroke-linecap="round" stroke-linejoin="round" fill="none"/><path d="M 86 157 L 85 156 L 84 155 L 83 155 L 82 158 L 80 163 L 77 170 L 73 178 L 70 183 L 69 183" stroke="#ffffff" stroke-width="2" stroke-linecap="round" stroke-linejoin="round" fill="none"/><path d="M 78 167 L 77 167 L 77 170 L 77 178 L 77 188 L 77 196 L 79 198" stroke="#ffffff" stroke-width="2" stroke-linecap="round" stroke-linejoin="round" fill="none"/><path d="M 96 160 L 95 160 L 93 159 L 92 159 L 92 160 L 93 166 L 95 174 L 95 183 L 96 189 L 96 191" stroke="#ffffff" stroke-width="2" stroke-linecap="round" stroke-linejoin="round" fill="none"/><path d="M 94 179 L 94 178 L 93 178 L 96 178 L 100 178 L 104 176" stroke="#ffffff" stroke-width="2" stroke-linecap="round" stroke-linejoin="round" fill="none"/><path d="M 105 155 L 104 156 L 103 158 L 103 159" stroke="#ffffff" stroke-width="2" stroke-linecap="round" stroke-linejoin="round" fill="none"/><path d="M 110 152 L 109 152 L 108 153 L 108 154" stroke="#ffffff" stroke-width="2" stroke-linecap="round" stroke-linejoin="round" fill="none"/><path d="M 115 174 L 114 173 L 115 170 L 122 164 L 132 157 L 140 153 L 142 152 L 141 152 L 139 153 L 136 154 L 133 156 L 130 159 L 127 164 L 126 173 L 126 181 L 127 187 L 129 190" stroke="#ffffff" stroke-width="2" stroke-linecap="round" stroke-linejoin="round" fill="none"/><path d="M 136 166 L 136 165 L 135 165 L 135 166 L 137 171 L 138 172" stroke="#ffffff" stroke-width="2" stroke-linecap="round" stroke-linejoin="round" fill="none"/><path d="M 155 163 L 154 161 L 154 158 L 156 155 L 161 153 L 164 153 L 165 157 L 162 163 L 159 166 L 157 168 L 156 168 L 158 167 L 162 165 L 166 165 L 168 166 L 167 170 L 163 175 L 158 179 L 154 181" stroke="#ffffff" stroke-width="2" stroke-linecap="round" stroke-linejoin="round" fill="none"/><path d="M 188 156 L 185 156 L 182 156 L 180 160 L 179 166 L 180 172 L 183 174 L 186 175 L 191 171 L 192 170" stroke="#ffffff" stroke-width="2" stroke-linecap="round" stroke-linejoin="round" fill="none"/><path d="M 199 151 L 199 150 L 198 149 L 201 147 L 205 146 L 210 145 L 214 145 L 216 145 L 215 145 L 213 147 L 210 151 L 207 155 L 206 161 L 207 167 L 210 170 L 213 171" stroke="#ffffff" stroke-width="2" stroke-linecap="round" stroke-linejoin="round" fill="none"/><path d="M 232 151 L 233 150 L 236 148 L 242 145 L 246 142 L 249 142" stroke="#ffffff" stroke-width="2" stroke-linecap="round" stroke-linejoin="round" fill="none"/><path d="M 241 137 L 240 137 L 239 141 L 239 149 L 238 157 L 238 161 L 239 160 L 241 158 L 243 156 L 247 155 L 249 157 L 249 162 L 247 168 L 244 172 L 241 174 L 239 174" stroke="#ffffff" stroke-width="2" stroke-linecap="round" stroke-linejoin="round" fill="none"/><path d="M 262 153 L 262 152 L 262 151 L 263 151 L 267 150 L 269 150" stroke="#ffffff" stroke-width="2" stroke-linecap="round" stroke-linejoin="round" fill="none"/><path d="M 268 150 L 265 150 L 263 151 L 263 152 L 262 155 L 262 160 L 262 164 L 261 167 L 260 168 L 258 168 L 258 166 L 259 164 L 261 162 L 264 160 L 268 158 L 269 158" stroke="#ffffff" stroke-width="2" stroke-linecap="round" stroke-linejoin="round" fill="none"/><path d="M 284 144 L 284 142 L 284 139 L 286 138 L 289 137 L 291 137" stroke="#ffffff" stroke-width="2" stroke-linecap="round" stroke-linejoin="round" fill="none"/><path d="M 283 157 L 282 157 L 282 156 L 282 154 L 285 152 L 290 151 L 294 152 L 294 155 L 292 160 L 287 166 L 283 169" stroke="#ffffff" stroke-width="2" stroke-linecap="round" stroke-linejoin="round" fill="none"/><path d="M 312 141 L 310 140 L 309 139 L 309 143 L 311 147" stroke="#ffffff" stroke-width="2" stroke-linecap="round" stroke-linejoin="round" fill="none"/><path d="M 320 148 L 319 148 L 317 147 L 315 146 L 314 146 L 314 147 L 312 150 L 311 154 L 310 159 L 311 163 L 314 165 L 320 164 L 323 163" stroke="#ffffff" stroke-width="2" stroke-linecap="round" stroke-linejoin="round" fill="none"/><path d="M 327 132 L 325 132 L 324 133 L 323 136" stroke="#ffffff" stroke-width="2" stroke-linecap="round" stroke-linejoin="round" fill="none"/><path d="M 332 128 L 332 127 L 331 126 L 330 130 L 329 135" stroke="#ffffff" stroke-width="2" stroke-linecap="round" stroke-linejoin="round" fill="none"/><path d="M 345 144 L 345 143 L 344 141 L 347 138 L 356 133 L 365 130 L 370 129" stroke="#ffffff" stroke-width="2" stroke-linecap="round" stroke-linejoin="round" fill="none"/><path d="M 357 137 L 355 138 L 353 138 L 351 140 L 350 145 L 350 152 L 350 156 L 351 157" stroke="#ffffff" stroke-width="2" stroke-linecap="round" stroke-linejoin="round" fill="none"/><path d="M 356 148 L 356 146 L 356 144 L 356 142 L 357 141 L 358 140" stroke="#ffffff" stroke-width="2" stroke-linecap="round" stroke-linejoin="round" fill="none"/><path d="M 357 146 L 355 147 L 354 147 L 356 146 L 359 144" stroke="#ffffff" stroke-width="2" stroke-linecap="round" stroke-linejoin="round" fill="none"/><path d="M 343 170 L 341 171 L 340 170 L 344 166 L 352 161 L 354 159" stroke="#ffffff" stroke-width="2" stroke-linecap="round" stroke-linejoin="round" fill="none"/><path d="M 363 136 L 363 135 L 362 134 L 362 135 L 362 140 L 362 150 L 361 162 L 360 171 L 361 173" stroke="#ffffff" stroke-width="2" stroke-linecap="round" stroke-linejoin="round" fill="none"/><path d="M 396 134 L 395 132 L 394 131 L 393 132 L 391 138 L 390 145 L 390 152 L 390 156" stroke="#ffffff" stroke-width="2" stroke-linecap="round" stroke-linejoin="round" fill="none"/><path d="M 395 144 L 395 142 L 395 140 L 396 139 L 399 139 L 403 139" stroke="#ffffff" stroke-width="2" stroke-linecap="round" stroke-linejoin="round" fill="none"/><path d="M 376 161 L 376 160 L 382 158 L 392 155 L 403 153 L 409 152" stroke="#ffffff" stroke-width="2" stroke-linecap="round" stroke-linejoin="round" fill="none"/><path d="M 390 145 L 391 145 L 391 144 L 393 143 L 397 141" stroke="#ffffff" stroke-width="2" stroke-linecap="round" stroke-linejoin="round" fill="none"/><path d="M 446 135 L 444 134 L 442 133 L 440 133 L 437 136 L 435 139 L 432 143 L 431 147 L 432 150 L 434 151 L 438 152 L 442 152" stroke="#ffffff" stroke-width="2" stroke-linecap="round" stroke-linejoin="round" fill="none"/><path d="M 447 121 L 445 121 L 443 121 L 442 125 L 442 126" stroke="#ffffff" stroke-width="2" stroke-linecap="round" stroke-linejoin="round" fill="none"/><path d="M 471 122 L 470 122 L 468 123 L 467 125" stroke="#ffffff" stroke-width="2" stroke-linecap="round" stroke-linejoin="round" fill="none"/><path d="M 465 129 L 464 129 L 462 129 L 460 131 L 457 134 L 456 139 L 456 142 L 458 142 L 461 141 L 464 140 L 467 140 L 470 141 L 471 144 L 470 148 L 466 151 L 461 153 L 456 153 L 455 151" stroke="#ffffff" stroke-width="2" stroke-linecap="round" stroke-linejoin="round" fill="none"/><path d="M 492 134 L 491 134 L 489 134 L 488 134 L 487 137 L 487 141 L 488 144 L 490 145" stroke="#ffffff" stroke-width="2" stroke-linecap="round" stroke-linejoin="round" fill="none"/><path d="M 507 135 L 506 136 L 504 139 L 502 146 L 501 149" stroke="#ffffff" stroke-width="2" stroke-linecap="round" stroke-linejoin="round" fill="none"/><path d="M 57 215 L 56 211 L 55 216 L 55 224 L 57 231" stroke="#ffffff" stroke-width="2" stroke-linecap="round" stroke-linejoin="round" fill="none"/><path d="M 58 224 L 58 223 L 58 219 L 59 214 L 62 211 L 65 210 L 67 210 L 69 214 L 69 218 L 69 222 L 69 223" stroke="#ffffff" stroke-width="2" stroke-linecap="round" stroke-linejoin="round" fill="none"/><path d="M 61 224 L 61 223 L 61 220 L 61 218 L 62 217 L 63 217" stroke="#ffffff" stroke-width="2" stroke-linecap="round" stroke-linejoin="round" fill="none"/><path d="M 62 224 L 62 223 L 63 222 L 64 221" stroke="#ffffff" stroke-width="2" stroke-linecap="round" stroke-linejoin="round" fill="none"/><path d="M 40 252 L 39 250 L 41 246 L 49 238 L 62 228 L 72 223 L 76 221 L 78 220" stroke="#ffffff" stroke-width="2" stroke-linecap="round" stroke-linejoin="round" fill="none"/><path d="M 63 233 L 61 233 L 60 235 L 60 240 L 60 248 L 60 255 L 61 256" stroke="#ffffff" stroke-width="2" stroke-linecap="round" stroke-linejoin="round" fill="none"/><path d="M 64 242 L 64 239 L 64 236 L 64 234 L 65 234" stroke="#ffffff" stroke-width="2" stroke-linecap="round" stroke-linejoin="round" fill="none"/><path d="M 62 250 L 61 251 L 62 249 L 64 247" stroke="#ffffff" stroke-width="2" stroke-linecap="round" stroke-linejoin="round" fill="none"/><path d="M 58 263 L 56 263 L 56 261 L 59 254 L 65 245" stroke="#ffffff" stroke-width="2" stroke-linecap="round" stroke-linejoin="round" fill="none"/><path d="M 71 225 L 70 225 L 69 225 L 69 226 L 69 232 L 69 244 L 68 255 L 69 263" stroke="#ffffff" stroke-width="2" stroke-linecap="round" stroke-linejoin="round" fill="none"/><path d="M 78 235 L 78 233 L 77 230 L 77 229 L 80 229 L 83 231 L 84 236 L 84 241 L 83 247 L 81 249" stroke="#ffffff" stroke-width="2" stroke-linecap="round" stroke-linejoin="round" fill="none"/><path d="M 75 235 L 75 233 L 76 233 L 79 235 L 83 240 L 86 247" stroke="#ffffff" stroke-width="2" stroke-linecap="round" stroke-linejoin="round" fill="none"/><path d="M 127 207 L 126 204 L 125 204 L 124 205 L 122 211 L 121 216" stroke="#ffffff" stroke-width="2" stroke-linecap="round" stroke-linejoin="round" fill="none"/><path d="M 120 217 L 119 217 L 118 217 L 117 218 L 116 222 L 116 226 L 117 228" stroke="#ffffff" stroke-width="2" stroke-linecap="round" stroke-linejoin="round" fill="none"/><path d="M 121 223 L 121 222 L 121 220 L 123 216 L 127 212 L 131 211 L 132 210 L 130 210 L 128 210 L 127 212 L 126 215 L 125 220 L 125 226 L 126 230" stroke="#ffffff" stroke-width="2" stroke-linecap="round" stroke-linejoin="round" fill="none"/><path d="M 107 213 L 105 212 L 105 215 L 106 224 L 106 234 L 105 242 L 103 247 L 100 247 L 97 247 L 96 244 L 96 243 L 98 242 L 103 242 L 111 242 L 123 240 L 135 238 L 145 237" stroke="#ffffff" stroke-width="2" stroke-linecap="round" stroke-linejoin="round" fill="none"/><path d="M 174 200 L 173 200 L 171 200 L 167 207 L 163 217 L 160 225 L 157 231 L 156 234" stroke="#ffffff" stroke-width="2" stroke-linecap="round" stroke-linejoin="round" fill="none"/><path d="M 162 218 L 162 217 L 162 216 L 162 218 L 163 224 L 164 230 L 165 234" stroke="#ffffff" stroke-width="2" stroke-linecap="round" stroke-linejoin="round" fill="none"/><path d="M 177 218 L 177 215 L 179 213 L 183 209 L 189 206 L 193 204 L 195 201 L 195 199 L 193 199 L 191 200 L 189 202 L 188 204 L 187 209 L 186 214 L 185 219 L 184 224 L 182 228 L 179 230 L 178 231 L 177 230 L 179 230 L 182 228 L 187 225 L 194 221 L 196 220" stroke="#ffffff" stroke-width="2" stroke-linecap="round" stroke-linejoin="round" fill="none"/><path d="M 216 203 L 216 202 L 216 200 L 218 197 L 224 193 L 230 191" stroke="#ffffff" stroke-width="2" stroke-linecap="round" stroke-linejoin="round" fill="none"/><path d="M 217 208 L 215 210 L 214 211 L 214 213 L 215 215" stroke="#ffffff" stroke-width="2" stroke-linecap="round" stroke-linejoin="round" fill="none"/><path d="M 220 211 L 221 209 L 221 206 L 221 202 L 224 200 L 228 200 L 231 201 L 232 203 L 231 205 L 230 207" stroke="#ffffff" stroke-width="2" stroke-linecap="round" stroke-linejoin="round" fill="none"/><path d="M 222 213 L 221 212 L 221 211 L 222 209 L 225 206 L 226 206" stroke="#ffffff" stroke-width="2" stroke-linecap="round" stroke-linejoin="round" fill="none"/><path d="M 220 217 L 219 217 L 218 215 L 221 212 L 225 209 L 230 207 L 232 208 L 232 211 L 231 214 L 230 218 L 229 219" stroke="#ffffff" stroke-width="2" stroke-linecap="round" stroke-linejoin="round" fill="none"/><path d="M 220 223 L 220 221 L 220 220 L 221 218 L 224 217 L 228 215" stroke="#ffffff" stroke-width="2" stroke-linecap="round" stroke-linejoin="round" fill="none"/><path d="M 216 232 L 214 232 L 213 233 L 214 231 L 218 228 L 225 224 L 230 219" stroke="#ffffff" stroke-width="2" stroke-linecap="round" stroke-linejoin="round" fill="none"/><path d="M 225 187 L 225 185 L 224 183 L 224 188 L 224 198 L 224 212 L 223 225 L 222 234 L 222 241 L 222 244" stroke="#ffffff" stroke-width="2" stroke-linecap="round" stroke-linejoin="round" fill="none"/><path d="M 259 208 L 260 207 L 260 205 L 260 204 L 261 206 L 260 211 L 259 218 L 258 223 L 256 225 L 255 225 L 254 222 L 253 217 L 254 212 L 256 206 L 260 202 L 264 200 L 269 202 L 270 207 L 270 214 L 268 221 L 266 225" stroke="#ffffff" stroke-width="2" stroke-linecap="round" stroke-linejoin="round" fill="none"/><path d="M 294 206 L 292 205 L 291 205 L 290 208 L 290 214 L 291 219 L 293 222" stroke="#ffffff" stroke-width="2" stroke-linecap="round" stroke-linejoin="round" fill="none"/><path d="M 300 206 L 301 205 L 303 202 L 306 200 L 309 199 L 312 198" stroke="#ffffff" stroke-width="2" stroke-linecap="round" stroke-linejoin="round" fill="none"/><path d="M 309 191 L 309 193 L 308 198 L 307 209 L 305 219 L 303 227 L 301 232" stroke="#ffffff" stroke-width="2" stroke-linecap="round" stroke-linejoin="round" fill="none"/><path d="M 323 199 L 324 200 L 324 201 L 322 205 L 320 213 L 319 220 L 319 223 L 320 222 L 322 218 L 323 215 L 325 214 L 326 214 L 328 216 L 331 216 L 336 214" stroke="#ffffff" stroke-width="2" stroke-linecap="round" stroke-linejoin="round" fill="none"/><path d="M 351 193 L 351 192 L 350 190 L 349 190 L 348 194 L 346 204 L 346 214 L 346 219 L 350 220 L 356 217 L 358 216" stroke="#ffffff" stroke-width="2" stroke-linecap="round" stroke-linejoin="round" fill="none"/><path d="M 367 202 L 366 202 L 364 202 L 362 205 L 362 209 L 364 211 L 366 211 L 369 208 L 372 205 L 374 203 L 377 202 L 378 202 L 378 205 L 378 207 L 376 208 L 374 208 L 372 208 L 372 205 L 372 201 L 374 197 L 375 194 L 376 194 L 376 198 L 374 204 L 372 210 L 371 214 L 371 215" stroke="#ffffff" stroke-width="2" stroke-linecap="round" stroke-linejoin="round" fill="none"/><path d="M 393 195 L 393 194 L 394 192 L 396 190 L 399 189 L 401 189" stroke="#ffffff" stroke-width="2" stroke-linecap="round" stroke-linejoin="round" fill="none"/><path d="M 391 207 L 390 206 L 391 205 L 395 204 L 399 204 L 401 207 L 400 211 L 397 216 L 393 219 L 390 222" stroke="#ffffff" stroke-width="2" stroke-linecap="round" stroke-linejoin="round" fill="none"/><path d="M 414 199 L 415 199 L 416 197 L 420 195 L 426 193 L 430 193 L 432 193 L 430 193 L 427 194 L 424 197 L 422 200 L 420 204 L 419 209 L 422 212 L 426 213 L 430 212" stroke="#ffffff" stroke-width="2" stroke-linecap="round" stroke-linejoin="round" fill="none"/><path d="M 435 178 L 434 179 L 431 181 L 430 185 L 430 186" stroke="#ffffff" stroke-width="2" stroke-linecap="round" stroke-linejoin="round" fill="none"/><path d="M 441 178 L 439 178 L 437 182 L 437 183" stroke="#ffffff" stroke-width="2" stroke-linecap="round" stroke-linejoin="round" fill="none"/><path d="M 464 190 L 464 189 L 464 188 L 463 188 L 462 192 L 460 200 L 459 207 L 459 212 L 459 213" stroke="#ffffff" stroke-width="2" stroke-linecap="round" stroke-linejoin="round" fill="none"/><path d="M 462 193 L 462 189 L 462 186 L 463 183 L 466 183 L 468 183 L 471 185 L 472 189 L 472 193 L 472 198 L 471 202 L 471 205 L 470 206" stroke="#ffffff" stroke-width="2" stroke-linecap="round" stroke-linejoin="round" fill="none"/><path d="M 464 203 L 462 202 L 461 200 L 461 198 L 464 198 L 468 198" stroke="#ffffff" stroke-width="2" stroke-linecap="round" stroke-linejoin="round" fill="none"/><path d="M 459 214 L 458 215 L 456 217 L 457 215 L 462 212 L 467 208" stroke="#ffffff" stroke-width="2" stroke-linecap="round" stroke-linejoin="round" fill="none"/><path d="M 483 194 L 482 194 L 481 191 L 483 189 L 489 186 L 495 183 L 500 181 L 503 179 L 503 177" stroke="#ffffff" stroke-width="2" stroke-linecap="round" stroke-linejoin="round" fill="none"/><path d="M 496 176 L 496 177 L 495 177 L 495 180 L 495 190 L 494 202 L 494 211 L 495 215 L 495 216" stroke="#ffffff" stroke-width="2" stroke-linecap="round" stroke-linejoin="round" fill="none"/><path d="M 498 192 L 497 189 L 496 188 L 493 190 L 490 195 L 486 201 L 482 206 L 478 209 L 477 209" stroke="#ffffff" stroke-width="2" stroke-linecap="round" stroke-linejoin="round" fill="none"/><path d="M 493 193 L 494 191 L 496 189 L 500 189 L 505 189 L 510 190" stroke="#ffffff" stroke-width="2" stroke-linecap="round" stroke-linejoin="round" fill="none"/><path d="M 490 210 L 488 210 L 488 208 L 492 205 L 499 202 L 505 200 L 509 199" stroke="#ffffff" stroke-width="2" stroke-linecap="round" stroke-linejoin="round" fill="none"/><path d="M 525 192 L 523 192 L 524 191 L 529 187 L 535 185 L 539 183" stroke="#ffffff" stroke-width="2" stroke-linecap="round" stroke-linejoin="round" fill="none"/><path d="M 536 181 L 533 181 L 532 181 L 531 185 L 531 191 L 532 195 L 532 196" stroke="#ffffff" stroke-width="2" stroke-linecap="round" stroke-linejoin="round" fill="none"/><path d="M 527 183 L 526 182 L 525 182 L 524 183 L 527 186" stroke="#ffffff" stroke-width="2" stroke-linecap="round" stroke-linejoin="round" fill="none"/><path d="M 539 178 L 536 180 L 532 184 L 528 190 L 527 194 L 527 195" stroke="#ffffff" stroke-width="2" stroke-linecap="round" stroke-linejoin="round" fill="none"/><path d="M 530 192 L 529 194 L 525 198 L 521 203 L 519 205" stroke="#ffffff" stroke-width="2" stroke-linecap="round" stroke-linejoin="round" fill="none"/><path d="M 530 194 L 531 192 L 533 189 L 537 187 L 541 186 L 544 186 L 544 187" stroke="#ffffff" stroke-width="2" stroke-linecap="round" stroke-linejoin="round" fill="none"/><path d="M 535 192 L 534 192 L 531 194 L 528 198 L 527 203 L 528 207 L 531 209 L 535 210 L 539 208" stroke="#ffffff" stroke-width="2" stroke-linecap="round" stroke-linejoin="round" fill="none"/><path d="M 540 194 L 536 195 L 533 198 L 529 204 L 525 210 L 522 215 L 519 218 L 518 218" stroke="#ffffff" stroke-width="2" stroke-linecap="round" stroke-linejoin="round" fill="none"/><path d="M 524 208 L 527 205 L 532 201 L 537 196 L 541 193" stroke="#ffffff" stroke-width="2" stroke-linecap="round" stroke-linejoin="round" fill="none"/><path d="M 551 170 L 548 171 L 545 176 L 541 183 L 538 192 L 537 195" stroke="#ffffff" stroke-width="2" stroke-linecap="round" stroke-linejoin="round" fill="none"/><path d="M 541 191 L 541 188 L 543 186 L 546 182 L 551 180 L 554 180 L 553 180 L 551 183 L 548 187 L 546 194 L 543 202 L 540 208 L 538 211" stroke="#ffffff" stroke-width="2" stroke-linecap="round" stroke-linejoin="round" fill="none"/><path d="M 537 194 L 536 192 L 535 191 L 537 191 L 542 195 L 548 199 L 555 203 L 559 204" stroke="#ffffff" stroke-width="2" stroke-linecap="round" stroke-linejoin="round" fill="none"/><path d="M 569 194 L 569 193 L 567 192 L 566 192 L 565 195 L 564 203 L 564 209 L 564 214 L 565 214" stroke="#ffffff" stroke-width="2" stroke-linecap="round" stroke-linejoin="round" fill="none"/><path d="M 567 191 L 566 188 L 565 185 L 566 184 L 570 183 L 575 183 L 578 185 L 581 188 L 581 192 L 580 197 L 578 202 L 577 206 L 576 207" stroke="#ffffff" stroke-width="2" stroke-linecap="round" stroke-linejoin="round" fill="none"/><path d="M 567 205 L 566 202 L 566 201 L 567 199 L 572 199" stroke="#ffffff" stroke-width="2" stroke-linecap="round" stroke-linejoin="round" fill="none"/><path d="M 567 213 L 565 213 L 563 213 L 566 211 L 572 210 L 574 209" stroke="#ffffff" stroke-width="2" stroke-linecap="round" stroke-linejoin="round" fill="none"/><path d="M 611 178 L 612 178 L 611 177 L 610 178 L 607 182 L 603 188 L 599 193 L 598 195" stroke="#ffffff" stroke-width="2" stroke-linecap="round" stroke-linejoin="round" fill="none"/><path d="M 614 189 L 611 192 L 605 198 L 600 203 L 598 206 L 597 207" stroke="#ffffff" stroke-width="2" stroke-linecap="round" stroke-linejoin="round" fill="none"/><path d="M 603 200 L 604 200 L 605 203 L 605 207 L 606 212 L 606 213" stroke="#ffffff" stroke-width="2" stroke-linecap="round" stroke-linejoin="round" fill="none"/><path d="M 625 182 L 625 181 L 624 178 L 624 177 L 625 176 L 629 175 L 634 175" stroke="#ffffff" stroke-width="2" stroke-linecap="round" stroke-linejoin="round" fill="none"/><path d="M 618 198 L 618 197 L 620 195 L 623 192 L 629 189 L 633 187 L 635 187 L 634 187 L 632 188 L 630 189 L 629 190 L 627 193 L 625 198 L 624 205 L 622 211 L 622 213" stroke="#ffffff" stroke-width="2" stroke-linecap="round" stroke-linejoin="round" fill="none"/><path d="M 637 208 L 636 207 L 636 205 L 638 203 L 641 203 L 642 204 L 640 208 L 637 212 L 634 214" stroke="#ffffff" stroke-width="2" stroke-linecap="round" stroke-linejoin="round" fill="none"/><path d="M 650 193 L 650 192 L 651 189 L 654 187 L 658 185 L 663 184 L 666 184 L 668 185 L 667 187 L 664 192 L 660 198 L 655 205 L 654 211 L 657 213 L 662 213" stroke="#ffffff" stroke-width="2" stroke-linecap="round" stroke-linejoin="round" fill="none"/><path d="M 604 244 L 604 243 L 603 241 L 606 238 L 613 235 L 621 233 L 627 231 L 631 230" stroke="#ffffff" stroke-width="2" stroke-linecap="round" stroke-linejoin="round" fill="none"/><path d="M 623 228 L 622 227 L 621 226 L 619 227 L 616 234 L 613 242 L 611 250 L 610 256 L 611 257" stroke="#ffffff" stroke-width="2" stroke-linecap="round" stroke-linejoin="round" fill="none"/><path d="M 624 246 L 624 244 L 625 242 L 628 240 L 631 238 L 632 238" stroke="#ffffff" stroke-width="2" stroke-linecap="round" stroke-linejoin="round" fill="none"/><path d="M 625 252 L 624 253 L 623 253 L 624 253 L 629 251 L 637 249" stroke="#ffffff" stroke-width="2" stroke-linecap="round" stroke-linejoin="round" fill="none"/></svg>
