<svg xmlns="http://www.w3.org/2000/svg" width="85" height="70" viewBox="0 0 85 70"><path d="M 25 16 L 25 15 L 25 14 L 24 14 L 23 14 L 21 15 L 18 18 L 14 22 L 11 25 L 10 27 L 10 28 L 14 28 L 19 28 L 24 27 L 28 27 L 31 27" stroke="#ffffff" stroke-width="2" stroke-linecap="round" stroke-linejoin="round" fill="none"/><path d="M 23 16 L 22 16 L 21 15 L 20 15 L 20 16 L 20 21 L 20 29 L 19 38 L 19 45" stroke="#ffffff" stroke-width="2" stroke-linecap="round" stroke-linejoin="round" fill="none"/><path d="M 51 11 L 49 10 L 48 10 L 46 13 L 43 21 L 40 33 L 35 44 L 30 52 L 27 58 L 27 60" stroke="#ffffff" stroke-width="2" stroke-linecap="round" stroke-linejoin="round" fill="none"/><path d="M 58 36 L 57 35 L 56 35 L 55 35 L 55 36 L 55 43 L 54 49 L 55 54 L 56 55" stroke="#ffffff" stroke-width="2" stroke-linecap="round" stroke-linejoin="round" fill="none"/><path d="M 71 33 L 70 33 L 69 33 L 67 34 L 67 37 L 67 40 L 69 44 L 70 46 L 72 46 L 73 45 L 74 42 L 75 39 L 75 37 L 74 35 L 72 33 L 70 33 L 68 36 L 67 39 L 66 40" stroke="#ffffff" stroke-width="2" stroke-linecap="round" stroke-linejoin="round" fill="none"/></svg>
