<svg xmlns="http://www.w3.org/2000/svg" width="679" height="220" viewBox="0 0 679 220"><path d="M 13 25 L 13 23 L 12 21 L 11 20 L 11 21 L 11 26 L 10 34 L 10 43 L 11 49 L 12 50" stroke="#ffffff" stroke-width="2" stroke-linecap="round" stroke-linejoin="round" fill="none"/><path d="M 30 23 L 28 23 L 26 23 L 25 26 L 25 31 L 27 37 L 30 39 L 34 38 L 36 34 L 38 29 L 38 25 L 38 21 L 35 19 L 32 18 L 29 22 L 27 28 L 27 31" stroke="#ffffff" stroke-width="2" stroke-linecap="round" stroke-linejoin="round" fill="none"/><path d="M 71 11 L 69 10 L 67 11 L 64 16 L 59 30 L 55 46 L 52 59 L 51 68 L 50 74" stroke="#ffffff" stroke-width="2" stroke-linecap="round" stroke-linejoin="round" fill="none"/><path d="M 80 35 L 78 39 L 76 50 L 76 60 L 78 65 L 79 66" stroke="#ffffff" stroke-width="2" stroke-linecap="round" stroke-linejoin="round" fill="none"/><path d="M 91 44 L 90 43 L 90 42 L 90 40 L 93 39 L 97 39 L 100 39 L 101 42 L 102 45 L 100 48 L 97 50 L 94 52 L 91 53 L 90 54 L 91 54 L 93 54 L 96 54 L 100 54 L 105 52 L 108 51" stroke="#ffffff" stroke-width="2" stroke-linecap="round" stroke-linejoin="round" fill="none"/><path d="M 193 29 L 192 28 L 191 27 L 188 27 L 184 30 L 180 38 L 179 47 L 181 51 L 187 52 L 195 49 L 203 44" stroke="#ffffff" stroke-width="2" stroke-linecap="round" stroke-linejoin="round" fill="none"/><path d="M 229 17 L 230 16 L 230 14 L 229 13 L 228 14 L 225 20 L 221 32 L 218 45 L 219 51 L 222 53 L 227 51 L 231 47 L 233 43 L 234 38 L 234 36 L 231 34 L 227 35 L 222 40 L 220 45" stroke="#ffffff" stroke-width="2" stroke-linecap="round" stroke-linejoin="round" fill="none"/><path d="M 260 27 L 257 27 L 254 28 L 252 31 L 252 36 L 253 41 L 256 43 L 260 42 L 264 39 L 266 36 L 266 32 L 266 28 L 263 26 L 260 25 L 255 29 L 252 32" stroke="#ffffff" stroke-width="2" stroke-linecap="round" stroke-linejoin="round" fill="none"/><path d="M 94 84 L 93 82 L 92 81 L 91 81 L 88 82 L 84 86 L 80 90 L 77 94 L 75 97 L 76 98 L 80 99 L 85 99 L 90 99 L 97 99 L 101 98" stroke="#ffffff" stroke-width="2" stroke-linecap="round" stroke-linejoin="round" fill="none"/><path d="M 93 83 L 92 83 L 90 83 L 89 85 L 89 96 L 89 109 L 89 119 L 89 122" stroke="#ffffff" stroke-width="2" stroke-linecap="round" stroke-linejoin="round" fill="none"/><path d="M 105 109 L 104 110 L 103 112 L 103 113 L 103 115 L 103 116" stroke="#ffffff" stroke-width="2" stroke-linecap="round" stroke-linejoin="round" fill="none"/><path d="M 121 91 L 120 92 L 118 92 L 116 94 L 116 97 L 119 101 L 123 104 L 128 106 L 131 107 L 131 108 L 129 109 L 125 110 L 122 111 L 121 111" stroke="#ffffff" stroke-width="2" stroke-linecap="round" stroke-linejoin="round" fill="none"/><path d="M 116 95 L 115 94 L 118 93 L 124 93 L 128 92" stroke="#ffffff" stroke-width="2" stroke-linecap="round" stroke-linejoin="round" fill="none"/><path d="M 148 105 L 147 103 L 147 102 L 148 100 L 151 99 L 155 99 L 158 101 L 160 103 L 163 103 L 171 99 L 182 93" stroke="#ffffff" stroke-width="2" stroke-linecap="round" stroke-linejoin="round" fill="none"/><path d="M 211 86 L 211 85 L 211 83 L 210 83 L 209 86 L 206 96 L 203 107 L 202 116 L 202 117" stroke="#ffffff" stroke-width="2" stroke-linecap="round" stroke-linejoin="round" fill="none"/><path d="M 220 108 L 219 108 L 217 109 L 216 111 L 216 113 L 217 115" stroke="#ffffff" stroke-width="2" stroke-linecap="round" stroke-linejoin="round" fill="none"/><path d="M 240 87 L 239 87 L 237 86 L 235 85 L 235 87 L 235 91 L 236 94 L 239 97 L 242 98 L 246 99 L 248 100 L 250 100 L 250 101 L 248 102 L 245 104 L 241 106 L 238 107 L 236 107" stroke="#ffffff" stroke-width="2" stroke-linecap="round" stroke-linejoin="round" fill="none"/><path d="M 237 87 L 238 86 L 240 85 L 244 85 L 251 86 L 258 86 L 260 86" stroke="#ffffff" stroke-width="2" stroke-linecap="round" stroke-linejoin="round" fill="none"/><path d="M 129 92 L 128 92 L 129 92 L 130 91 L 131 91 L 132 91 L 133 91 L 135 91 L 136 91" stroke="#ffffff" stroke-width="2" stroke-linecap="round" stroke-linejoin="round" fill="none"/><path d="M 315 88 L 314 87 L 313 87 L 312 92 L 312 101 L 314 108 L 314 109" stroke="#ffffff" stroke-width="2" stroke-linecap="round" stroke-linejoin="round" fill="none"/><path d="M 328 86 L 327 86 L 326 86 L 326 87 L 326 94 L 326 105 L 327 112" stroke="#ffffff" stroke-width="2" stroke-linecap="round" stroke-linejoin="round" fill="none"/><path d="M 342 99 L 341 97 L 342 96 L 346 95 L 351 95 L 354 98 L 355 101 L 353 105 L 349 108 L 345 110" stroke="#ffffff" stroke-width="2" stroke-linecap="round" stroke-linejoin="round" fill="none"/><path d="M 369 91 L 368 91 L 367 90 L 368 89 L 371 89 L 375 88 L 380 87" stroke="#ffffff" stroke-width="2" stroke-linecap="round" stroke-linejoin="round" fill="none"/><path d="M 369 99 L 368 99 L 368 98 L 370 97 L 374 94 L 379 92 L 381 90" stroke="#ffffff" stroke-width="2" stroke-linecap="round" stroke-linejoin="round" fill="none"/><path d="M 380 77 L 379 75 L 378 75 L 377 80 L 376 90 L 376 101 L 377 108 L 379 110 L 381 109 L 384 105 L 385 103" stroke="#ffffff" stroke-width="2" stroke-linecap="round" stroke-linejoin="round" fill="none"/><path d="M 402 81 L 401 81 L 401 82 L 401 86 L 402 90 L 403 91" stroke="#ffffff" stroke-width="2" stroke-linecap="round" stroke-linejoin="round" fill="none"/><path d="M 410 89 L 410 88 L 409 87 L 407 88 L 405 91 L 402 97 L 402 102 L 405 103 L 411 103 L 415 101" stroke="#ffffff" stroke-width="2" stroke-linecap="round" stroke-linejoin="round" fill="none"/><path d="M 435 83 L 432 83 L 430 83 L 428 87 L 426 97 L 426 105 L 428 110 L 430 111" stroke="#ffffff" stroke-width="2" stroke-linecap="round" stroke-linejoin="round" fill="none"/><path d="M 428 85 L 428 84 L 428 81 L 429 78 L 431 76 L 436 74 L 442 73 L 449 72 L 453 71 L 456 71 L 456 73 L 456 79 L 456 87 L 454 95 L 453 100 L 452 103" stroke="#ffffff" stroke-width="2" stroke-linecap="round" stroke-linejoin="round" fill="none"/><path d="M 443 86 L 442 85 L 441 85 L 440 85 L 441 87 L 442 91 L 443 93 L 444 95 L 445 95 L 446 95 L 446 93 L 447 92 L 447 90 L 446 90 L 444 91 L 442 94 L 440 98 L 440 100 L 441 100" stroke="#ffffff" stroke-width="2" stroke-linecap="round" stroke-linejoin="round" fill="none"/><path d="M 481 81 L 479 80 L 478 80 L 477 81 L 475 88 L 475 95 L 477 100 L 482 101 L 486 98" stroke="#ffffff" stroke-width="2" stroke-linecap="round" stroke-linejoin="round" fill="none"/><path d="M 486 74 L 485 76 L 483 78 L 483 81 L 483 83" stroke="#ffffff" stroke-width="2" stroke-linecap="round" stroke-linejoin="round" fill="none"/><path d="M 491 72 L 489 74 L 488 79 L 488 81" stroke="#ffffff" stroke-width="2" stroke-linecap="round" stroke-linejoin="round" fill="none"/><path d="M 503 91 L 503 89 L 506 88 L 510 87 L 514 87 L 516 88 L 516 90 L 515 92 L 514 93 L 513 93 L 512 92 L 512 90 L 512 86 L 512 82 L 512 79 L 513 78 L 513 79 L 512 85 L 510 91 L 508 97 L 507 101 L 506 101" stroke="#ffffff" stroke-width="2" stroke-linecap="round" stroke-linejoin="round" fill="none"/><path d="M 518 79 L 519 78 L 520 78 L 521 80 L 524 85 L 527 88" stroke="#ffffff" stroke-width="2" stroke-linecap="round" stroke-linejoin="round" fill="none"/><path d="M 538 79 L 537 78 L 536 77 L 536 79 L 534 85 L 533 93 L 531 100 L 531 103 L 533 100 L 535 96 L 537 93 L 539 90 L 541 90 L 542 92 L 542 97 L 543 99 L 546 100 L 549 100" stroke="#ffffff" stroke-width="2" stroke-linecap="round" stroke-linejoin="round" fill="none"/><path d="M 567 79 L 566 78 L 562 77 L 560 78 L 558 84 L 557 92 L 559 98 L 562 101 L 566 102 L 570 99 L 571 97" stroke="#ffffff" stroke-width="2" stroke-linecap="round" stroke-linejoin="round" fill="none"/><path d="M 574 74 L 573 74 L 571 75 L 570 78 L 570 82" stroke="#ffffff" stroke-width="2" stroke-linecap="round" stroke-linejoin="round" fill="none"/><path d="M 579 74 L 578 75 L 576 81" stroke="#ffffff" stroke-width="2" stroke-linecap="round" stroke-linejoin="round" fill="none"/><path d="M 64 142 L 62 139 L 62 137 L 62 138 L 61 146 L 61 158 L 62 170 L 64 177 L 65 180" stroke="#ffffff" stroke-width="2" stroke-linecap="round" stroke-linejoin="round" fill="none"/><path d="M 62 163 L 61 162 L 60 160 L 60 159 L 63 159 L 66 160 L 70 162 L 71 162" stroke="#ffffff" stroke-width="2" stroke-linecap="round" stroke-linejoin="round" fill="none"/><path d="M 82 156 L 81 157 L 79 158 L 78 161 L 79 164" stroke="#ffffff" stroke-width="2" stroke-linecap="round" stroke-linejoin="round" fill="none"/><path d="M 85 157 L 84 157 L 83 157 L 84 157" stroke="#ffffff" stroke-width="2" stroke-linecap="round" stroke-linejoin="round" fill="none"/><path d="M 93 152 L 92 152 L 91 152 L 90 153 L 89 158 L 86 167 L 84 174 L 84 176" stroke="#ffffff" stroke-width="2" stroke-linecap="round" stroke-linejoin="round" fill="none"/><path d="M 102 165 L 101 163 L 101 162 L 102 160 L 106 158 L 110 157 L 111 159 L 111 164 L 108 170 L 105 175 L 103 178" stroke="#ffffff" stroke-width="2" stroke-linecap="round" stroke-linejoin="round" fill="none"/><path d="M 115 149 L 114 147 L 114 144 L 115 142 L 117 141 L 119 141 L 119 143 L 119 144 L 116 146 L 114 148" stroke="#ffffff" stroke-width="2" stroke-linecap="round" stroke-linejoin="round" fill="none"/><path d="M 141 148 L 140 147 L 140 145 L 140 143 L 144 142 L 151 140 L 158 138 L 162 137" stroke="#ffffff" stroke-width="2" stroke-linecap="round" stroke-linejoin="round" fill="none"/><path d="M 156 136 L 155 136 L 154 136 L 154 135 L 154 138 L 153 146 L 150 155 L 148 161 L 146 164 L 145 164 L 145 162 L 144 159 L 145 156 L 147 153 L 149 150 L 152 150 L 153 153 L 153 160 L 151 166 L 148 171 L 147 173" stroke="#ffffff" stroke-width="2" stroke-linecap="round" stroke-linejoin="round" fill="none"/><path d="M 170 151 L 169 150 L 169 151 L 169 155 L 169 159 L 169 160" stroke="#ffffff" stroke-width="2" stroke-linecap="round" stroke-linejoin="round" fill="none"/><path d="M 179 150 L 179 149 L 179 148 L 178 148 L 178 150 L 178 151" stroke="#ffffff" stroke-width="2" stroke-linecap="round" stroke-linejoin="round" fill="none"/><path d="M 189 148 L 189 147 L 189 145 L 192 143 L 197 142 L 202 142 L 205 142 L 203 143 L 201 145 L 199 150 L 197 156 L 196 161 L 199 165 L 204 167" stroke="#ffffff" stroke-width="2" stroke-linecap="round" stroke-linejoin="round" fill="none"/><path d="M 180 150 L 180 149 L 180 151 L 180 154 L 179 156 L 179 158 L 179 159" stroke="#ffffff" stroke-width="2" stroke-linecap="round" stroke-linejoin="round" fill="none"/><path d="M 237 142 L 237 140 L 237 139 L 236 142 L 235 150 L 234 160 L 234 166 L 234 168 L 235 167 L 237 162 L 241 156 L 244 152" stroke="#ffffff" stroke-width="2" stroke-linecap="round" stroke-linejoin="round" fill="none"/><path d="M 268 135 L 266 136 L 265 136 L 264 137 L 262 140 L 259 148 L 255 156 L 250 163 L 248 166" stroke="#ffffff" stroke-width="2" stroke-linecap="round" stroke-linejoin="round" fill="none"/><path d="M 255 152 L 256 150 L 256 147 L 257 151 L 257 159 L 256 168 L 256 174" stroke="#ffffff" stroke-width="2" stroke-linecap="round" stroke-linejoin="round" fill="none"/><path d="M 273 160 L 272 160 L 270 160 L 269 159 L 270 158 L 275 155 L 282 149 L 289 143 L 293 138 L 294 138 L 293 139 L 292 142 L 289 146 L 287 148" stroke="#ffffff" stroke-width="2" stroke-linecap="round" stroke-linejoin="round" fill="none"/><path d="M 278 139 L 278 138 L 278 136 L 277 135 L 277 136 L 278 143 L 280 151 L 282 159 L 285 165" stroke="#ffffff" stroke-width="2" stroke-linecap="round" stroke-linejoin="round" fill="none"/><path d="M 305 156 L 304 156 L 303 156 L 302 155 L 303 155 L 307 155 L 315 153 L 323 152" stroke="#ffffff" stroke-width="2" stroke-linecap="round" stroke-linejoin="round" fill="none"/><path d="M 419 138 L 418 138 L 418 137 L 418 136 L 422 133 L 428 131 L 434 129 L 438 128 L 439 127" stroke="#ffffff" stroke-width="2" stroke-linecap="round" stroke-linejoin="round" fill="none"/><path d="M 431 132 L 431 133 L 428 135 L 426 137 L 426 140 L 427 144 L 430 145 L 430 146" stroke="#ffffff" stroke-width="2" stroke-linecap="round" stroke-linejoin="round" fill="none"/><path d="M 436 136 L 435 136 L 433 136 L 431 139 L 427 143" stroke="#ffffff" stroke-width="2" stroke-linecap="round" stroke-linejoin="round" fill="none"/><path d="M 417 154 L 416 153 L 416 151 L 420 148 L 429 143 L 438 139 L 442 137 L 443 137 L 442 137" stroke="#ffffff" stroke-width="2" stroke-linecap="round" stroke-linejoin="round" fill="none"/><path d="M 431 121 L 431 119 L 430 117 L 429 122 L 429 133 L 429 147 L 429 158 L 429 165 L 429 169 L 428 170" stroke="#ffffff" stroke-width="2" stroke-linecap="round" stroke-linejoin="round" fill="none"/><path d="M 433 148 L 433 147 L 432 147 L 430 149 L 426 154 L 423 159 L 420 163" stroke="#ffffff" stroke-width="2" stroke-linecap="round" stroke-linejoin="round" fill="none"/><path d="M 426 150 L 426 149 L 429 148 L 432 148 L 437 151 L 441 153 L 444 155" stroke="#ffffff" stroke-width="2" stroke-linecap="round" stroke-linejoin="round" fill="none"/><path d="M 457 130 L 456 130 L 454 129 L 452 130 L 450 136 L 448 144 L 446 151 L 445 154" stroke="#ffffff" stroke-width="2" stroke-linecap="round" stroke-linejoin="round" fill="none"/><path d="M 451 143 L 451 141 L 454 138 L 459 135 L 465 133 L 469 133 L 470 133" stroke="#ffffff" stroke-width="2" stroke-linecap="round" stroke-linejoin="round" fill="none"/><path d="M 460 142 L 459 142 L 457 143 L 456 145 L 455 148 L 455 150 L 455 152" stroke="#ffffff" stroke-width="2" stroke-linecap="round" stroke-linejoin="round" fill="none"/><path d="M 457 148 L 457 147 L 457 145 L 458 142 L 461 140 L 466 139 L 470 138" stroke="#ffffff" stroke-width="2" stroke-linecap="round" stroke-linejoin="round" fill="none"/><path d="M 451 156 L 451 157 L 454 155 L 460 152 L 466 148 L 471 145 L 472 143 L 473 142" stroke="#ffffff" stroke-width="2" stroke-linecap="round" stroke-linejoin="round" fill="none"/><path d="M 462 134 L 461 134 L 461 135 L 461 140 L 460 150 L 458 159 L 457 165 L 457 167" stroke="#ffffff" stroke-width="2" stroke-linecap="round" stroke-linejoin="round" fill="none"/><path d="M 489 134 L 489 133 L 489 132 L 488 133 L 486 139 L 484 148 L 483 156 L 483 160" stroke="#ffffff" stroke-width="2" stroke-linecap="round" stroke-linejoin="round" fill="none"/><path d="M 499 133 L 500 132 L 500 131 L 499 131 L 498 136 L 496 144 L 495 153 L 495 159 L 495 160" stroke="#ffffff" stroke-width="2" stroke-linecap="round" stroke-linejoin="round" fill="none"/><path d="M 522 134 L 521 134 L 519 135 L 517 138 L 514 144 L 513 152 L 512 158 L 511 161 L 511 162" stroke="#ffffff" stroke-width="2" stroke-linecap="round" stroke-linejoin="round" fill="none"/><path d="M 516 136 L 516 134 L 517 131 L 518 129 L 522 128 L 527 128 L 528 132 L 528 138 L 527 146 L 526 152 L 525 157 L 525 160 L 525 161" stroke="#ffffff" stroke-width="2" stroke-linecap="round" stroke-linejoin="round" fill="none"/><path d="M 521 141 L 520 139 L 519 138 L 520 137 L 524 137 L 525 137" stroke="#ffffff" stroke-width="2" stroke-linecap="round" stroke-linejoin="round" fill="none"/><path d="M 520 146 L 518 147 L 517 147 L 518 147 L 522 146 L 528 144" stroke="#ffffff" stroke-width="2" stroke-linecap="round" stroke-linejoin="round" fill="none"/><path d="M 540 145 L 539 144 L 538 142 L 540 141 L 544 139 L 548 138 L 550 138 L 551 138 L 551 142 L 550 146 L 548 149 L 546 153 L 544 155" stroke="#ffffff" stroke-width="2" stroke-linecap="round" stroke-linejoin="round" fill="none"/><path d="M 555 127 L 555 124 L 556 120 L 558 118 L 561 117 L 563 120 L 562 124 L 558 128 L 555 131 L 555 132" stroke="#ffffff" stroke-width="2" stroke-linecap="round" stroke-linejoin="round" fill="none"/><path d="M 570 139 L 569 139 L 567 138 L 566 138 L 564 141 L 564 145 L 565 149" stroke="#ffffff" stroke-width="2" stroke-linecap="round" stroke-linejoin="round" fill="none"/><path d="M 567 142 L 566 140 L 566 137 L 567 135 L 570 134 L 573 134 L 575 134 L 576 136 L 576 139 L 576 141 L 575 144 L 574 146" stroke="#ffffff" stroke-width="2" stroke-linecap="round" stroke-linejoin="round" fill="none"/><path d="M 567 152 L 566 152 L 565 151 L 565 150 L 569 149 L 572 148" stroke="#ffffff" stroke-width="2" stroke-linecap="round" stroke-linejoin="round" fill="none"/><path d="M 588 137 L 588 136 L 588 135 L 588 133 L 591 131 L 597 130 L 605 128 L 608 127" stroke="#ffffff" stroke-width="2" stroke-linecap="round" stroke-linejoin="round" fill="none"/><path d="M 598 123 L 598 122 L 597 123 L 596 130 L 594 142 L 593 151 L 593 156" stroke="#ffffff" stroke-width="2" stroke-linecap="round" stroke-linejoin="round" fill="none"/><path d="M 589 145 L 588 144 L 586 143 L 584 145 L 582 148 L 580 152" stroke="#ffffff" stroke-width="2" stroke-linecap="round" stroke-linejoin="round" fill="none"/><path d="M 596 144 L 597 144 L 598 143 L 600 144 L 603 148 L 606 149" stroke="#ffffff" stroke-width="2" stroke-linecap="round" stroke-linejoin="round" fill="none"/><path d="M 614 125 L 613 121 L 613 117 L 615 114 L 621 114 L 624 117 L 623 122 L 618 127 L 613 131 L 612 132" stroke="#ffffff" stroke-width="2" stroke-linecap="round" stroke-linejoin="round" fill="none"/><path d="M 615 144 L 615 143 L 614 142 L 616 141 L 623 141 L 631 140" stroke="#ffffff" stroke-width="2" stroke-linecap="round" stroke-linejoin="round" fill="none"/><path d="M 639 137 L 640 137 L 640 136 L 640 135 L 642 134 L 646 134 L 650 134 L 651 135 L 651 137 L 648 141 L 644 145 L 640 149 L 636 152 L 635 154" stroke="#ffffff" stroke-width="2" stroke-linecap="round" stroke-linejoin="round" fill="none"/><path d="M 642 146 L 643 146 L 645 146 L 646 147 L 649 149 L 652 151 L 654 152" stroke="#ffffff" stroke-width="2" stroke-linecap="round" stroke-linejoin="round" fill="none"/><path d="M 658 126 L 658 125 L 657 125 L 657 126 L 657 127" stroke="#ffffff" stroke-width="2" stroke-linecap="round" stroke-linejoin="round" fill="none"/><path d="M 667 126 L 669 125 L 666 130 L 664 133" stroke="#ffffff" stroke-width="2" stroke-linecap="round" stroke-linejoin="round" fill="none"/><path d="M 576 176 L 575 175 L 574 173 L 576 172 L 582 170 L 591 169 L 598 169 L 603 169" stroke="#ffffff" stroke-width="2" stroke-linecap="round" stroke-linejoin="round" fill="none"/><path d="M 599 162 L 598 162 L 597 161 L 596 162 L 596 166 L 594 172 L 592 179 L 589 184 L 586 186 L 584 186 L 583 185 L 583 182 L 584 179 L 587 177 L 590 176 L 592 177 L 592 182 L 589 189 L 585 196 L 580 201 L 579 202" stroke="#ffffff" stroke-width="2" stroke-linecap="round" stroke-linejoin="round" fill="none"/><path d="M 610 175 L 610 172 L 612 170 L 615 170 L 621 170 L 625 172 L 626 174 L 624 177 L 620 179 L 616 180 L 613 180 L 613 179 L 614 179 L 617 179 L 620 182 L 622 186 L 622 190 L 620 193 L 617 195 L 615 195 L 612 196 L 610 195 L 608 194 L 608 192 L 611 190 L 614 190 L 619 190 L 622 190 L 625 190" stroke="#ffffff" stroke-width="2" stroke-linecap="round" stroke-linejoin="round" fill="none"/></svg>
