<svg xmlns="http://www.w3.org/2000/svg" width="631" height="165" viewBox="0 0 631 165"><path d="M 22 66 L 22 65 L 22 64 L 21 63 L 19 63 L 16 64 L 14 67 L 13 71 L 12 74 L 14 77 L 17 77 L 21 77 L 24 77 L 25 77 L 25 79 L 22 83 L 18 86 L 14 88 L 12 89 L 11 89" stroke="#ffffff" stroke-width="2" stroke-linecap="round" stroke-linejoin="round" fill="none"/><path d="M 36 51 L 35 51 L 34 52 L 33 59 L 32 70 L 31 79 L 31 83 L 32 83 L 32 82 L 34 78 L 36 74 L 37 71 L 39 71 L 40 73 L 40 77 L 41 82 L 43 85 L 44 85" stroke="#ffffff" stroke-width="2" stroke-linecap="round" stroke-linejoin="round" fill="none"/><path d="M 53 72 L 51 72 L 51 74 L 50 76 L 50 80 L 51 81" stroke="#ffffff" stroke-width="2" stroke-linecap="round" stroke-linejoin="round" fill="none"/><path d="M 51 59 L 50 59 L 50 61 L 50 65 L 50 67" stroke="#ffffff" stroke-width="2" stroke-linecap="round" stroke-linejoin="round" fill="none"/><path d="M 63 63 L 63 65 L 62 70 L 61 76 L 61 80 L 61 81 L 61 79 L 62 75 L 64 71 L 66 69 L 68 70 L 68 74 L 68 78 L 68 81 L 69 82" stroke="#ffffff" stroke-width="2" stroke-linecap="round" stroke-linejoin="round" fill="none"/><path d="M 84 48 L 83 47 L 82 47 L 82 51 L 82 60 L 83 71 L 83 80 L 83 82" stroke="#ffffff" stroke-width="2" stroke-linecap="round" stroke-linejoin="round" fill="none"/><path d="M 94 64 L 93 63 L 90 61 L 89 60 L 87 60 L 85 61 L 82 64 L 81 67 L 80 70 L 81 71 L 84 72 L 91 71 L 96 69" stroke="#ffffff" stroke-width="2" stroke-linecap="round" stroke-linejoin="round" fill="none"/><path d="M 109 66 L 108 64 L 107 63 L 106 63 L 105 63 L 104 65 L 103 68 L 102 72 L 102 74 L 103 75 L 105 74 L 107 71 L 108 68 L 109 66 L 109 65 L 109 66 L 110 68 L 111 71 L 112 73" stroke="#ffffff" stroke-width="2" stroke-linecap="round" stroke-linejoin="round" fill="none"/><path d="M 149 41 L 149 40 L 148 39 L 145 41 L 142 47 L 138 53 L 134 60 L 133 62" stroke="#ffffff" stroke-width="2" stroke-linecap="round" stroke-linejoin="round" fill="none"/><path d="M 148 51 L 147 51 L 146 51 L 144 54 L 141 59 L 138 65 L 138 66" stroke="#ffffff" stroke-width="2" stroke-linecap="round" stroke-linejoin="round" fill="none"/><path d="M 142 59 L 142 58 L 142 60 L 142 65 L 143 71 L 143 75" stroke="#ffffff" stroke-width="2" stroke-linecap="round" stroke-linejoin="round" fill="none"/><path d="M 153 51 L 153 50 L 153 47 L 153 45 L 157 44 L 161 43 L 166 42" stroke="#ffffff" stroke-width="2" stroke-linecap="round" stroke-linejoin="round" fill="none"/><path d="M 150 61 L 150 60 L 152 58 L 158 54 L 163 52 L 165 51 L 164 51 L 163 52 L 161 52 L 160 52 L 160 53 L 159 56 L 159 61 L 158 69 L 158 75 L 159 77" stroke="#ffffff" stroke-width="2" stroke-linecap="round" stroke-linejoin="round" fill="none"/><path d="M 175 66 L 174 65 L 174 64 L 174 63 L 177 63 L 180 63 L 180 66 L 179 69 L 177 71 L 176 72" stroke="#ffffff" stroke-width="2" stroke-linecap="round" stroke-linejoin="round" fill="none"/><path d="M 187 51 L 186 51 L 185 50 L 188 49 L 192 49 L 196 48 L 199 48 L 200 48 L 198 49 L 196 51 L 193 55 L 192 60 L 192 66 L 194 70 L 196 70" stroke="#ffffff" stroke-width="2" stroke-linecap="round" stroke-linejoin="round" fill="none"/><path d="M 210 53 L 209 52 L 208 51 L 212 49 L 218 46 L 223 45 L 227 44" stroke="#ffffff" stroke-width="2" stroke-linecap="round" stroke-linejoin="round" fill="none"/><path d="M 219 40 L 218 40 L 216 39 L 215 40 L 215 46 L 215 55 L 215 63 L 215 68 L 215 71" stroke="#ffffff" stroke-width="2" stroke-linecap="round" stroke-linejoin="round" fill="none"/><path d="M 224 57 L 224 56 L 224 54 L 224 53 L 226 53 L 228 53" stroke="#ffffff" stroke-width="2" stroke-linecap="round" stroke-linejoin="round" fill="none"/><path d="M 227 63 L 226 63 L 225 63 L 229 62 L 235 60" stroke="#ffffff" stroke-width="2" stroke-linecap="round" stroke-linejoin="round" fill="none"/><path d="M 297 42 L 296 42 L 296 40 L 298 37 L 303 34 L 307 32 L 308 32 L 307 34" stroke="#ffffff" stroke-width="2" stroke-linecap="round" stroke-linejoin="round" fill="none"/><path d="M 297 52 L 296 52 L 296 50 L 298 48 L 302 46 L 306 45 L 309 49 L 309 54 L 306 59 L 302 64 L 299 65 L 299 66" stroke="#ffffff" stroke-width="2" stroke-linecap="round" stroke-linejoin="round" fill="none"/><path d="M 324 35 L 323 34 L 322 36 L 321 42 L 321 51 L 321 58 L 324 60 L 330 58 L 336 53" stroke="#ffffff" stroke-width="2" stroke-linecap="round" stroke-linejoin="round" fill="none"/><path d="M 340 39 L 339 37 L 339 36 L 340 35 L 343 35 L 345 36 L 347 38 L 346 40 L 343 43 L 341 44 L 340 44 L 343 45 L 347 47 L 349 51 L 348 55 L 344 58 L 340 59 L 337 57 L 337 56" stroke="#ffffff" stroke-width="2" stroke-linecap="round" stroke-linejoin="round" fill="none"/><path d="M 363 48 L 362 48 L 362 47 L 364 46 L 369 45 L 374 44 L 377 45 L 376 48 L 374 51 L 372 53 L 370 53 L 370 52 L 369 48 L 369 43 L 369 39 L 369 36 L 369 38 L 368 44 L 367 50 L 365 56 L 364 59" stroke="#ffffff" stroke-width="2" stroke-linecap="round" stroke-linejoin="round" fill="none"/><path d="M 375 33 L 376 31 L 377 31 L 380 33 L 383 38 L 387 42 L 388 43" stroke="#ffffff" stroke-width="2" stroke-linecap="round" stroke-linejoin="round" fill="none"/><path d="M 407 24 L 406 23 L 405 22 L 405 23 L 403 27 L 402 30 L 401 30" stroke="#ffffff" stroke-width="2" stroke-linecap="round" stroke-linejoin="round" fill="none"/><path d="M 400 31 L 398 31 L 396 32 L 395 35 L 394 41 L 394 44 L 395 45 L 398 45 L 402 43 L 406 43 L 408 45 L 407 49 L 403 52 L 398 55 L 393 55 L 392 54 L 392 53" stroke="#ffffff" stroke-width="2" stroke-linecap="round" stroke-linejoin="round" fill="none"/><path d="M 429 18 L 429 17 L 428 16 L 428 19 L 428 23 L 428 26 L 428 27" stroke="#ffffff" stroke-width="2" stroke-linecap="round" stroke-linejoin="round" fill="none"/><path d="M 439 21 L 440 20 L 438 20 L 435 22 L 430 26 L 425 30 L 423 31" stroke="#ffffff" stroke-width="2" stroke-linecap="round" stroke-linejoin="round" fill="none"/><path d="M 418 34 L 418 33 L 420 32 L 424 29 L 435 26 L 445 24 L 451 24 L 451 25 L 450 27" stroke="#ffffff" stroke-width="2" stroke-linecap="round" stroke-linejoin="round" fill="none"/><path d="M 427 36 L 425 36 L 424 38 L 424 44 L 422 52 L 421 58 L 421 61" stroke="#ffffff" stroke-width="2" stroke-linecap="round" stroke-linejoin="round" fill="none"/><path d="M 423 43 L 424 39 L 426 35 L 428 35 L 429 36 L 429 41 L 429 47 L 428 52 L 426 57 L 425 60" stroke="#ffffff" stroke-width="2" stroke-linecap="round" stroke-linejoin="round" fill="none"/><path d="M 426 44 L 425 43 L 424 42 L 425 43 L 426 43" stroke="#ffffff" stroke-width="2" stroke-linecap="round" stroke-linejoin="round" fill="none"/><path d="M 426 48 L 424 49 L 423 50 L 425 48 L 429 45 L 431 42" stroke="#ffffff" stroke-width="2" stroke-linecap="round" stroke-linejoin="round" fill="none"/><path d="M 434 37 L 435 37 L 434 39 L 434 42 L 434 44" stroke="#ffffff" stroke-width="2" stroke-linecap="round" stroke-linejoin="round" fill="none"/><path d="M 441 32 L 443 31 L 444 31 L 444 36 L 440 46 L 435 56 L 430 63 L 427 65 L 424 65" stroke="#ffffff" stroke-width="2" stroke-linecap="round" stroke-linejoin="round" fill="none"/><path d="M 461 34 L 461 33 L 460 33 L 458 38 L 457 44 L 456 51 L 457 54" stroke="#ffffff" stroke-width="2" stroke-linecap="round" stroke-linejoin="round" fill="none"/><path d="M 466 41 L 466 40 L 467 37 L 469 35 L 471 34 L 473 34 L 474 34" stroke="#ffffff" stroke-width="2" stroke-linecap="round" stroke-linejoin="round" fill="none"/><path d="M 468 47 L 467 47 L 466 48 L 470 47 L 476 43 L 478 41" stroke="#ffffff" stroke-width="2" stroke-linecap="round" stroke-linejoin="round" fill="none"/><path d="M 494 43 L 493 43 L 492 42 L 493 41 L 496 39 L 502 37 L 506 37 L 507 38 L 507 41 L 505 44 L 504 45 L 502 45 L 500 45 L 500 41 L 500 36 L 501 31 L 502 29 L 502 28 L 502 30 L 501 35 L 498 42 L 496 48 L 496 51" stroke="#ffffff" stroke-width="2" stroke-linecap="round" stroke-linejoin="round" fill="none"/><path d="M 509 26 L 510 24 L 512 23 L 516 25 L 524 29 L 531 32" stroke="#ffffff" stroke-width="2" stroke-linecap="round" stroke-linejoin="round" fill="none"/><path d="M 541 19 L 540 17 L 539 17 L 539 21 L 539 29 L 539 39 L 538 48 L 537 54" stroke="#ffffff" stroke-width="2" stroke-linecap="round" stroke-linejoin="round" fill="none"/><path d="M 534 35 L 533 33 L 533 31 L 535 29 L 538 28 L 539 28" stroke="#ffffff" stroke-width="2" stroke-linecap="round" stroke-linejoin="round" fill="none"/><path d="M 533 49 L 531 49 L 531 47 L 534 42 L 540 36 L 545 33 L 548 33 L 549 37 L 549 42 L 547 46 L 544 49 L 544 50" stroke="#ffffff" stroke-width="2" stroke-linecap="round" stroke-linejoin="round" fill="none"/><path d="M 559 41 L 560 40 L 560 38 L 561 36 L 563 35 L 565 35 L 566 37 L 568 40 L 569 43 L 569 46 L 569 47 L 568 47 L 566 44 L 566 40 L 566 35 L 567 30 L 567 28 L 567 27 L 566 30 L 564 35 L 562 41 L 561 45 L 560 47" stroke="#ffffff" stroke-width="2" stroke-linecap="round" stroke-linejoin="round" fill="none"/><path d="M 572 28 L 573 27 L 575 27 L 579 30 L 584 33 L 587 36" stroke="#ffffff" stroke-width="2" stroke-linecap="round" stroke-linejoin="round" fill="none"/><path d="M 579 19 L 579 18 L 579 15 L 584 14 L 593 14 L 602 15 L 606 16 L 607 16" stroke="#ffffff" stroke-width="2" stroke-linecap="round" stroke-linejoin="round" fill="none"/><path d="M 598 11 L 597 11 L 597 10 L 597 12 L 597 17 L 594 25 L 590 33 L 587 39 L 585 40 L 585 37 L 585 33 L 586 29 L 588 26 L 591 25 L 594 27 L 595 33 L 593 41 L 588 48 L 585 52 L 584 52 L 585 51" stroke="#ffffff" stroke-width="2" stroke-linecap="round" stroke-linejoin="round" fill="none"/><path d="M 609 30 L 609 29 L 610 29 L 610 31 L 608 34 L 605 38 L 604 40 L 603 41 L 603 38 L 605 34 L 608 30 L 613 28 L 618 28 L 621 31 L 620 38 L 616 44 L 612 48 L 609 49" stroke="#ffffff" stroke-width="2" stroke-linecap="round" stroke-linejoin="round" fill="none"/><path d="M 544 76 L 543 75 L 541 76 L 538 82 L 533 89 L 529 94 L 526 97 L 524 98" stroke="#ffffff" stroke-width="2" stroke-linecap="round" stroke-linejoin="round" fill="none"/><path d="M 537 86 L 537 84 L 536 83 L 537 86 L 537 91 L 537 96 L 537 99 L 537 101" stroke="#ffffff" stroke-width="2" stroke-linecap="round" stroke-linejoin="round" fill="none"/><path d="M 546 87 L 546 86 L 547 84 L 548 82 L 554 81 L 562 79 L 565 78" stroke="#ffffff" stroke-width="2" stroke-linecap="round" stroke-linejoin="round" fill="none"/><path d="M 548 92 L 549 91 L 553 89 L 559 88 L 561 87 L 561 90 L 557 94 L 553 98 L 550 100 L 549 101 L 550 101 L 553 99 L 555 97 L 557 96 L 559 95 L 563 95 L 568 95 L 575 94 L 579 93" stroke="#ffffff" stroke-width="2" stroke-linecap="round" stroke-linejoin="round" fill="none"/><path d="M 547 114 L 540 114 L 534 113 L 530 111 L 526 107 L 522 102 L 519 96 L 520 90 L 524 83 L 530 76 L 535 71 L 541 66 L 551 63 L 565 63 L 580 67 L 592 75 L 596 83 L 594 92 L 586 99 L 577 105 L 566 108 L 554 109 L 546 109 L 544 106" stroke="#ffffff" stroke-width="2" stroke-linecap="round" stroke-linejoin="round" fill="none"/><path d="M 556 90 L 556 89 L 556 88 L 556 87 L 557 87 L 560 87 L 564 87 L 568 86 L 569 86" stroke="#ffffff" stroke-width="2" stroke-linecap="round" stroke-linejoin="round" fill="none"/><path d="M 10 134 L 11 134 L 12 131 L 17 127 L 25 122 L 32 119 L 35 119" stroke="#ffffff" stroke-width="2" stroke-linecap="round" stroke-linejoin="round" fill="none"/><path d="M 25 117 L 25 116 L 24 116 L 23 121 L 23 128 L 22 135 L 22 139 L 22 141 L 23 141 L 25 138 L 28 136 L 31 135 L 32 138 L 32 143 L 29 149 L 25 153 L 24 155" stroke="#ffffff" stroke-width="2" stroke-linecap="round" stroke-linejoin="round" fill="none"/><path d="M 50 132 L 50 131 L 50 129 L 51 128 L 55 128 L 58 127 L 59 127 L 58 126 L 56 126 L 53 127 L 51 130 L 50 135 L 50 140 L 50 143 L 50 145 L 50 146 L 49 146 L 48 144 L 47 143 L 47 141 L 50 140 L 54 139" stroke="#ffffff" stroke-width="2" stroke-linecap="round" stroke-linejoin="round" fill="none"/><path d="M 67 139 L 67 137 L 67 135 L 70 134 L 72 134 L 74 137 L 73 139 L 72 142" stroke="#ffffff" stroke-width="2" stroke-linecap="round" stroke-linejoin="round" fill="none"/><path d="M 86 119 L 85 118 L 84 118 L 84 121 L 85 125 L 87 127 L 88 128" stroke="#ffffff" stroke-width="2" stroke-linecap="round" stroke-linejoin="round" fill="none"/><path d="M 96 125 L 95 124 L 94 123 L 93 122 L 92 122 L 91 123 L 90 124 L 89 127 L 87 130 L 86 134 L 86 138 L 88 140 L 93 140 L 100 136 L 102 135" stroke="#ffffff" stroke-width="2" stroke-linecap="round" stroke-linejoin="round" fill="none"/><path d="M 134 115 L 133 116 L 134 115 L 136 114 L 139 113 L 143 113 L 144 113" stroke="#ffffff" stroke-width="2" stroke-linecap="round" stroke-linejoin="round" fill="none"/><path d="M 132 126 L 132 125 L 132 124 L 134 124 L 136 124 L 140 124 L 142 125 L 144 126 L 145 127 L 145 129 L 143 132 L 140 136 L 137 139 L 136 140" stroke="#ffffff" stroke-width="2" stroke-linecap="round" stroke-linejoin="round" fill="none"/><path d="M 154 121 L 154 119 L 154 117 L 156 117 L 161 116 L 167 115 L 172 114" stroke="#ffffff" stroke-width="2" stroke-linecap="round" stroke-linejoin="round" fill="none"/><path d="M 167 107 L 166 107 L 164 107 L 163 109 L 161 116 L 159 124 L 157 132 L 156 138 L 156 141 L 157 141" stroke="#ffffff" stroke-width="2" stroke-linecap="round" stroke-linejoin="round" fill="none"/><path d="M 170 126 L 170 124 L 170 122 L 171 122 L 174 123" stroke="#ffffff" stroke-width="2" stroke-linecap="round" stroke-linejoin="round" fill="none"/><path d="M 169 134 L 169 133 L 169 132 L 169 131 L 172 131 L 178 130 L 182 129" stroke="#ffffff" stroke-width="2" stroke-linecap="round" stroke-linejoin="round" fill="none"/><path d="M 190 126 L 189 126 L 189 124 L 192 122 L 197 120 L 201 120 L 203 120 L 204 122 L 204 125 L 203 127 L 201 130 L 200 131 L 199 132 L 198 131 L 198 128 L 198 124 L 198 119 L 199 115 L 199 113 L 198 114 L 198 118 L 197 123 L 195 128 L 194 132 L 192 135 L 192 136" stroke="#ffffff" stroke-width="2" stroke-linecap="round" stroke-linejoin="round" fill="none"/><path d="M 207 113 L 208 112 L 210 110 L 212 113 L 215 120 L 217 125 L 218 127" stroke="#ffffff" stroke-width="2" stroke-linecap="round" stroke-linejoin="round" fill="none"/><path d="M 219 98 L 219 97 L 217 98 L 216 104 L 216 108" stroke="#ffffff" stroke-width="2" stroke-linecap="round" stroke-linejoin="round" fill="none"/><path d="M 223 101 L 223 100 L 223 99 L 224 103 L 224 104" stroke="#ffffff" stroke-width="2" stroke-linecap="round" stroke-linejoin="round" fill="none"/><path d="M 230 131 L 230 129 L 230 128 L 231 128 L 232 129 L 233 130 L 233 131 L 233 133 L 231 134" stroke="#ffffff" stroke-width="2" stroke-linecap="round" stroke-linejoin="round" fill="none"/><path d="M 236 120 L 237 117 L 240 115 L 246 113 L 250 112 L 252 112 L 254 112 L 255 112 L 254 112 L 252 114 L 249 117 L 246 121 L 245 126 L 246 131 L 251 134 L 257 134" stroke="#ffffff" stroke-width="2" stroke-linecap="round" stroke-linejoin="round" fill="none"/><path d="M 271 108 L 271 105 L 273 103 L 277 104 L 280 106 L 280 109 L 280 111 L 278 113 L 275 114 L 273 115 L 272 115 L 273 114 L 276 114 L 281 116 L 284 119 L 285 124 L 282 128 L 278 131 L 274 132 L 270 132 L 268 130 L 267 128 L 270 126 L 273 125 L 276 125 L 279 125" stroke="#ffffff" stroke-width="2" stroke-linecap="round" stroke-linejoin="round" fill="none"/><path d="M 314 96 L 312 94 L 310 96 L 309 102 L 309 107 L 308 109" stroke="#ffffff" stroke-width="2" stroke-linecap="round" stroke-linejoin="round" fill="none"/><path d="M 302 111 L 303 106 L 306 102 L 312 100 L 316 99 L 318 100" stroke="#ffffff" stroke-width="2" stroke-linecap="round" stroke-linejoin="round" fill="none"/><path d="M 308 106 L 306 105 L 307 107 L 308 108" stroke="#ffffff" stroke-width="2" stroke-linecap="round" stroke-linejoin="round" fill="none"/><path d="M 315 103 L 315 101 L 313 104 L 309 108 L 305 111 L 303 113" stroke="#ffffff" stroke-width="2" stroke-linecap="round" stroke-linejoin="round" fill="none"/><path d="M 301 116 L 301 115 L 301 113 L 303 111 L 309 108 L 315 106 L 317 106" stroke="#ffffff" stroke-width="2" stroke-linecap="round" stroke-linejoin="round" fill="none"/><path d="M 306 112 L 304 113 L 302 116 L 301 122 L 300 127 L 299 130 L 298 132" stroke="#ffffff" stroke-width="2" stroke-linecap="round" stroke-linejoin="round" fill="none"/><path d="M 316 113 L 315 113 L 311 113 L 307 116 L 305 119 L 304 121" stroke="#ffffff" stroke-width="2" stroke-linecap="round" stroke-linejoin="round" fill="none"/><path d="M 313 118 L 312 118 L 310 119 L 308 121 L 307 123" stroke="#ffffff" stroke-width="2" stroke-linecap="round" stroke-linejoin="round" fill="none"/><path d="M 314 118 L 314 119 L 314 121 L 312 124 L 310 127 L 309 129" stroke="#ffffff" stroke-width="2" stroke-linecap="round" stroke-linejoin="round" fill="none"/><path d="M 321 103 L 323 99 L 324 95 L 328 94 L 332 94 L 333 94 L 333 96 L 331 98 L 328 101 L 325 102 L 323 103 L 322 103 L 322 102 L 322 104 L 323 110 L 323 118 L 322 124 L 322 127 L 322 128" stroke="#ffffff" stroke-width="2" stroke-linecap="round" stroke-linejoin="round" fill="none"/><path d="M 324 110 L 325 108 L 325 105 L 326 104 L 327 104 L 329 105 L 330 107 L 331 111 L 331 115 L 330 119 L 328 122" stroke="#ffffff" stroke-width="2" stroke-linecap="round" stroke-linejoin="round" fill="none"/><path d="M 327 116 L 327 115 L 327 114 L 329 114 L 330 114 L 330 115 L 329 118 L 326 121 L 323 124 L 320 126 L 318 127 L 318 126 L 321 125 L 323 124 L 325 124 L 326 124 L 327 126 L 328 127 L 331 128 L 335 128" stroke="#ffffff" stroke-width="2" stroke-linecap="round" stroke-linejoin="round" fill="none"/><path d="M 351 106 L 349 107 L 345 111 L 345 117 L 346 121 L 348 123 L 352 122 L 357 120 L 361 118" stroke="#ffffff" stroke-width="2" stroke-linecap="round" stroke-linejoin="round" fill="none"/><path d="M 362 108 L 362 106 L 363 103 L 367 102 L 370 101 L 373 101 L 374 101 L 375 102 L 374 103 L 372 105 L 369 109 L 368 114 L 368 117 L 372 119 L 377 119 L 380 118" stroke="#ffffff" stroke-width="2" stroke-linecap="round" stroke-linejoin="round" fill="none"/><path d="M 388 108 L 388 107 L 387 104 L 390 103 L 398 102 L 406 100 L 410 100 L 411 100" stroke="#ffffff" stroke-width="2" stroke-linecap="round" stroke-linejoin="round" fill="none"/><path d="M 402 95 L 400 94 L 399 93 L 399 94 L 399 99 L 397 106 L 394 112 L 391 118 L 390 121 L 390 122" stroke="#ffffff" stroke-width="2" stroke-linecap="round" stroke-linejoin="round" fill="none"/><path d="M 399 115 L 400 112 L 403 110 L 407 109 L 409 109 L 410 110" stroke="#ffffff" stroke-width="2" stroke-linecap="round" stroke-linejoin="round" fill="none"/><path d="M 400 121 L 399 121 L 399 120 L 402 119 L 408 118 L 414 116" stroke="#ffffff" stroke-width="2" stroke-linecap="round" stroke-linejoin="round" fill="none"/><path d="M 433 104 L 433 103 L 433 102 L 432 102 L 431 106 L 431 111 L 431 116 L 430 121 L 429 127 L 429 130 L 431 130 L 435 129 L 437 126 L 438 123 L 437 120 L 435 117 L 434 114 L 433 110 L 432 106 L 430 102 L 427 101 L 427 102" stroke="#ffffff" stroke-width="2" stroke-linecap="round" stroke-linejoin="round" fill="none"/><path d="M 447 101 L 446 99 L 445 97 L 446 98 L 447 102 L 449 107 L 450 113 L 451 119 L 453 123 L 454 124 L 454 121 L 454 118 L 454 115 L 454 111 L 452 107 L 450 104 L 448 101 L 447 98 L 446 97 L 444 97 L 443 97 L 442 97 L 442 98" stroke="#ffffff" stroke-width="2" stroke-linecap="round" stroke-linejoin="round" fill="none"/></svg>
