<svg xmlns="http://www.w3.org/2000/svg" width="557" height="547" viewBox="0 0 557 547"><path d="M 99 57 L 99 59 L 94 71 L 86 89 L 80 117 L 78 154 L 78 200 L 84 246 L 101 285 L 129 321 L 168 350 L 213 377 L 261 398 L 311 413 L 353 417 L 389 413 L 413 392 L 429 358 L 435 312 L 434 258 L 419 207 L 395 156 L 362 108 L 321 67 L 279 40 L 235 23 L 191 16 L 147 16 L 102 26 L 61 49 L 33 80 L 15 116 L 10 154 L 17 196 L 40 241 L 75 290 L 118 342 L 165 393 L 215 439 L 275 483 L 328 513 L 376 533 L 417 537 L 451 528 L 482 500 L 507 468 L 526 437 L 540 403 L 547 367 L 547 327 L 537 280 L 516 226 L 486 177 L 445 127 L 391 76 L 333 40 L 282 19 L 232 10 L 208 10" stroke="#ffffff" stroke-width="2" stroke-linecap="round" stroke-linejoin="round" fill="none"/></svg>
