<svg xmlns="http://www.w3.org/2000/svg" width="585" height="259" viewBox="0 0 585 259"><path d="M 14 26 L 13 25 L 10 24 L 10 29 L 11 35 L 12 43 L 14 49 L 15 51" stroke="#ffffff" stroke-width="2" stroke-linecap="round" stroke-linejoin="round" fill="none"/><path d="M 25 24 L 23 23 L 23 27 L 24 34 L 25 41 L 26 49" stroke="#ffffff" stroke-width="2" stroke-linecap="round" stroke-linejoin="round" fill="none"/><path d="M 62 22 L 62 22 L 59 22 L 58 27 L 54 40 L 47 59 L 41 75 L 37 86 L 37 93 L 37 94" stroke="#ffffff" stroke-width="2" stroke-linecap="round" stroke-linejoin="round" fill="none"/><path d="M 68 63 L 67 63 L 66 60 L 71 58 L 76 58 L 79 60 L 80 65 L 77 69 L 73 73 L 69 76 L 66 77 L 65 77 L 66 77 L 68 77 L 73 77 L 80 77 L 88 75 L 94 75" stroke="#ffffff" stroke-width="2" stroke-linecap="round" stroke-linejoin="round" fill="none"/><path d="M 169 32 L 168 32 L 165 30 L 167 27 L 171 25 L 175 25 L 178 30 L 178 36 L 175 43 L 172 48 L 169 50 L 167 51 L 166 50 L 167 49 L 173 47 L 182 44 L 193 40 L 199 39" stroke="#ffffff" stroke-width="2" stroke-linecap="round" stroke-linejoin="round" fill="none"/><path d="M 207 23 L 206 23 L 201 24 L 200 31 L 200 39 L 202 44 L 205 45 L 208 43 L 210 39 L 211 34 L 211 28 L 209 24 L 205 23 L 201 27 L 199 33" stroke="#ffffff" stroke-width="2" stroke-linecap="round" stroke-linejoin="round" fill="none"/><path d="M 235 25 L 234 25 L 230 25 L 232 25 L 236 25 L 239 26 L 241 28 L 240 31 L 236 35 L 229 39 L 224 41 L 223 42 L 223 42 L 226 42 L 233 41 L 241 39 L 249 36 L 256 35" stroke="#ffffff" stroke-width="2" stroke-linecap="round" stroke-linejoin="round" fill="none"/><path d="M 271 10 L 263 13 L 260 22 L 258 32 L 260 37 L 264 38 L 269 37 L 273 34 L 275 31 L 274 28 L 270 27 L 263 30 L 259 33" stroke="#ffffff" stroke-width="2" stroke-linecap="round" stroke-linejoin="round" fill="none"/><path d="M 250 69 L 250 68 L 250 64 L 249 63 L 246 63 L 242 66 L 237 74 L 235 85 L 236 92 L 242 93 L 251 88 L 257 84" stroke="#ffffff" stroke-width="2" stroke-linecap="round" stroke-linejoin="round" fill="none"/><path d="M 296 71 L 295 69 L 295 62 L 296 58 L 297 56 L 297 54 L 296 54 L 293 54 L 289 57 L 285 63 L 282 70 L 282 75 L 285 76 L 291 72 L 295 68 L 296 65 L 296 63 L 295 63 L 293 65 L 290 71 L 287 82 L 285 93 L 285 100 L 288 101" stroke="#ffffff" stroke-width="2" stroke-linecap="round" stroke-linejoin="round" fill="none"/><path d="M 313 66 L 311 66 L 308 68 L 307 75 L 307 82 L 309 86 L 312 86 L 315 83 L 319 78 L 321 73 L 320 69 L 317 66 L 312 66 L 308 69 L 306 73 L 306 74" stroke="#ffffff" stroke-width="2" stroke-linecap="round" stroke-linejoin="round" fill="none"/><path d="M 46 138 L 46 136 L 45 136 L 43 142 L 43 153 L 44 163 L 46 168 L 50 170" stroke="#ffffff" stroke-width="2" stroke-linecap="round" stroke-linejoin="round" fill="none"/><path d="M 59 135 L 58 133 L 58 134 L 59 141 L 60 149 L 61 159 L 62 163" stroke="#ffffff" stroke-width="2" stroke-linecap="round" stroke-linejoin="round" fill="none"/><path d="M 79 152 L 79 151 L 77 145 L 82 141 L 87 139 L 91 140 L 92 144 L 90 151 L 87 158 L 83 163" stroke="#ffffff" stroke-width="2" stroke-linecap="round" stroke-linejoin="round" fill="none"/><path d="M 105 145 L 104 144 L 106 140 L 111 137 L 113 136" stroke="#ffffff" stroke-width="2" stroke-linecap="round" stroke-linejoin="round" fill="none"/><path d="M 105 154 L 103 154 L 102 154 L 102 153 L 105 151 L 110 147 L 115 143 L 117 142" stroke="#ffffff" stroke-width="2" stroke-linecap="round" stroke-linejoin="round" fill="none"/><path d="M 109 126 L 109 126 L 107 126 L 107 128 L 108 136 L 109 147 L 111 154 L 112 157 L 114 158 L 117 156 L 118 154" stroke="#ffffff" stroke-width="2" stroke-linecap="round" stroke-linejoin="round" fill="none"/><path d="M 132 132 L 132 131 L 132 131 L 132 133 L 133 136" stroke="#ffffff" stroke-width="2" stroke-linecap="round" stroke-linejoin="round" fill="none"/><path d="M 145 136 L 143 135 L 141 134 L 139 134 L 137 136 L 136 141 L 134 148 L 134 154 L 135 157 L 141 157 L 146 154" stroke="#ffffff" stroke-width="2" stroke-linecap="round" stroke-linejoin="round" fill="none"/><path d="M 171 145 L 170 144 L 171 141 L 177 137 L 184 134" stroke="#ffffff" stroke-width="2" stroke-linecap="round" stroke-linejoin="round" fill="none"/><path d="M 210 122 L 209 122 L 206 122 L 204 126 L 202 130 L 202 133 L 202 133 L 205 132 L 208 130 L 211 128 L 213 127 L 214 127 L 214 129 L 211 131 L 209 133 L 208 134 L 209 133 L 212 131 L 213 129 L 214 129 L 213 129 L 211 130 L 210 134 L 208 140 L 206 149 L 206 156 L 206 158" stroke="#ffffff" stroke-width="2" stroke-linecap="round" stroke-linejoin="round" fill="none"/><path d="M 206 145 L 206 144 L 203 144 L 200 149 L 198 154 L 198 154" stroke="#ffffff" stroke-width="2" stroke-linecap="round" stroke-linejoin="round" fill="none"/><path d="M 203 141 L 203 140 L 204 139 L 206 138 L 212 138" stroke="#ffffff" stroke-width="2" stroke-linecap="round" stroke-linejoin="round" fill="none"/><path d="M 218 133 L 217 131 L 217 129 L 219 126 L 223 122 L 227 119 L 229 117 L 229 116 L 227 116 L 226 118 L 224 122 L 222 127 L 221 130" stroke="#ffffff" stroke-width="2" stroke-linecap="round" stroke-linejoin="round" fill="none"/><path d="M 214 143 L 215 140 L 217 138 L 225 129 L 230 124 L 232 124 L 232 125 L 232 126 L 230 128 L 227 132 L 223 139 L 220 146" stroke="#ffffff" stroke-width="2" stroke-linecap="round" stroke-linejoin="round" fill="none"/><path d="M 226 141 L 223 143 L 222 146 L 222 151 L 223 156 L 223 158" stroke="#ffffff" stroke-width="2" stroke-linecap="round" stroke-linejoin="round" fill="none"/><path d="M 227 144 L 227 143 L 228 138 L 228 138 L 228 138 L 230 139 L 230 142 L 231 147 L 231 150 L 231 153" stroke="#ffffff" stroke-width="2" stroke-linecap="round" stroke-linejoin="round" fill="none"/><path d="M 228 149 L 227 149 L 225 145 L 227 144 L 230 144 L 231 144" stroke="#ffffff" stroke-width="2" stroke-linecap="round" stroke-linejoin="round" fill="none"/><path d="M 227 156 L 226 157 L 225 158 L 228 154 L 230 152" stroke="#ffffff" stroke-width="2" stroke-linecap="round" stroke-linejoin="round" fill="none"/><path d="M 129 126 L 129 126 L 129 125 L 129 124 L 130 125 L 130 126 L 130 127 L 131 129 L 131 132 L 131 133" stroke="#ffffff" stroke-width="2" stroke-linecap="round" stroke-linejoin="round" fill="none"/><path d="M 292 126 L 291 124 L 290 123 L 289 123 L 287 129 L 286 136 L 285 142 L 286 146" stroke="#ffffff" stroke-width="2" stroke-linecap="round" stroke-linejoin="round" fill="none"/><path d="M 298 123 L 298 122 L 298 123 L 301 130 L 305 138 L 310 144 L 311 145" stroke="#ffffff" stroke-width="2" stroke-linecap="round" stroke-linejoin="round" fill="none"/><path d="M 308 115 L 307 115 L 304 116 L 303 121 L 304 123" stroke="#ffffff" stroke-width="2" stroke-linecap="round" stroke-linejoin="round" fill="none"/><path d="M 313 114 L 312 115 L 310 120 L 311 121" stroke="#ffffff" stroke-width="2" stroke-linecap="round" stroke-linejoin="round" fill="none"/><path d="M 326 130 L 324 129 L 321 128 L 322 130 L 324 133" stroke="#ffffff" stroke-width="2" stroke-linecap="round" stroke-linejoin="round" fill="none"/><path d="M 330 131 L 330 130 L 330 128 L 328 128 L 328 130 L 328 132 L 330 133 L 331 133" stroke="#ffffff" stroke-width="2" stroke-linecap="round" stroke-linejoin="round" fill="none"/><path d="M 335 129 L 335 130 L 334 133 L 333 137 L 333 139" stroke="#ffffff" stroke-width="2" stroke-linecap="round" stroke-linejoin="round" fill="none"/><path d="M 351 111 L 350 113 L 349 118 L 347 126 L 346 128" stroke="#ffffff" stroke-width="2" stroke-linecap="round" stroke-linejoin="round" fill="none"/><path d="M 348 120 L 348 119 L 349 115 L 351 112 L 354 110 L 358 110 L 360 113 L 361 119 L 359 128 L 355 138 L 350 147 L 346 152" stroke="#ffffff" stroke-width="2" stroke-linecap="round" stroke-linejoin="round" fill="none"/><path d="M 393 101 L 393 99 L 393 98 L 392 97 L 391 102 L 389 111 L 387 121 L 385 127 L 385 129" stroke="#ffffff" stroke-width="2" stroke-linecap="round" stroke-linejoin="round" fill="none"/><path d="M 391 118 L 391 117 L 392 111 L 395 109 L 399 108 L 403 108" stroke="#ffffff" stroke-width="2" stroke-linecap="round" stroke-linejoin="round" fill="none"/><path d="M 389 130 L 388 130 L 388 128 L 392 124 L 399 119 L 406 116 L 410 114" stroke="#ffffff" stroke-width="2" stroke-linecap="round" stroke-linejoin="round" fill="none"/><path d="M 401 113 L 401 113 L 401 118 L 399 128 L 395 138 L 392 145 L 391 146" stroke="#ffffff" stroke-width="2" stroke-linecap="round" stroke-linejoin="round" fill="none"/><path d="M 398 124 L 399 122 L 403 122 L 408 125 L 412 129 L 417 132 L 418 133" stroke="#ffffff" stroke-width="2" stroke-linecap="round" stroke-linejoin="round" fill="none"/><path d="M 418 111 L 417 107 L 417 106 L 422 102 L 427 102 L 431 103 L 432 104" stroke="#ffffff" stroke-width="2" stroke-linecap="round" stroke-linejoin="round" fill="none"/><path d="M 421 112 L 419 113 L 418 115 L 417 116 L 417 119 L 418 121" stroke="#ffffff" stroke-width="2" stroke-linecap="round" stroke-linejoin="round" fill="none"/><path d="M 420 119 L 420 118 L 422 112 L 425 111 L 429 111 L 430 114 L 429 118 L 426 121 L 426 121" stroke="#ffffff" stroke-width="2" stroke-linecap="round" stroke-linejoin="round" fill="none"/><path d="M 417 129 L 416 129 L 415 129 L 416 127 L 420 124 L 425 121 L 430 119 L 431 118 L 431 119 L 429 123 L 427 127 L 426 131 L 425 133 L 424 133 L 423 132 L 421 132 L 418 134 L 415 136 L 413 138 L 412 139 L 414 139 L 418 138 L 425 135 L 433 131 L 441 129 L 443 129" stroke="#ffffff" stroke-width="2" stroke-linecap="round" stroke-linejoin="round" fill="none"/><path d="M 465 119 L 465 119 L 461 117 L 461 117 L 460 118 L 458 121 L 455 125 L 454 129 L 454 131 L 457 132 L 463 132 L 471 132 L 475 133" stroke="#ffffff" stroke-width="2" stroke-linecap="round" stroke-linejoin="round" fill="none"/><path d="M 37 220 L 36 220 L 38 215 L 47 208 L 59 201 L 67 198 L 71 198 L 73 198" stroke="#ffffff" stroke-width="2" stroke-linecap="round" stroke-linejoin="round" fill="none"/><path d="M 49 198 L 47 197 L 46 197 L 46 201 L 47 209 L 50 217 L 53 221" stroke="#ffffff" stroke-width="2" stroke-linecap="round" stroke-linejoin="round" fill="none"/><path d="M 56 192 L 56 191 L 56 192 L 57 201 L 57 217 L 56 232 L 54 242 L 53 249" stroke="#ffffff" stroke-width="2" stroke-linecap="round" stroke-linejoin="round" fill="none"/><path d="M 91 198 L 90 198 L 89 197 L 86 200 L 83 207 L 80 216 L 77 224 L 76 227" stroke="#ffffff" stroke-width="2" stroke-linecap="round" stroke-linejoin="round" fill="none"/><path d="M 85 208 L 85 207 L 84 207 L 84 212 L 84 221 L 84 231 L 85 240 L 87 243" stroke="#ffffff" stroke-width="2" stroke-linecap="round" stroke-linejoin="round" fill="none"/><path d="M 102 200 L 101 200 L 97 205 L 97 213 L 99 223 L 101 230 L 102 233 L 102 234" stroke="#ffffff" stroke-width="2" stroke-linecap="round" stroke-linejoin="round" fill="none"/><path d="M 101 217 L 100 216 L 102 216 L 105 216 L 107 215" stroke="#ffffff" stroke-width="2" stroke-linecap="round" stroke-linejoin="round" fill="none"/><path d="M 109 192 L 107 193 L 107 194 L 106 198" stroke="#ffffff" stroke-width="2" stroke-linecap="round" stroke-linejoin="round" fill="none"/><path d="M 112 193 L 112 193 L 110 193 L 111 197 L 111 199" stroke="#ffffff" stroke-width="2" stroke-linecap="round" stroke-linejoin="round" fill="none"/><path d="M 127 209 L 125 209 L 127 204 L 132 200 L 136 198" stroke="#ffffff" stroke-width="2" stroke-linecap="round" stroke-linejoin="round" fill="none"/><path d="M 125 219 L 123 220 L 124 219 L 129 216 L 134 212 L 137 211" stroke="#ffffff" stroke-width="2" stroke-linecap="round" stroke-linejoin="round" fill="none"/><path d="M 133 189 L 133 189 L 129 191 L 129 199 L 129 211 L 130 222 L 133 227 L 136 229 L 139 228 L 142 224" stroke="#ffffff" stroke-width="2" stroke-linecap="round" stroke-linejoin="round" fill="none"/><path d="M 173 206 L 169 206 L 170 204 L 175 199 L 181 194 L 185 191 L 187 190" stroke="#ffffff" stroke-width="2" stroke-linecap="round" stroke-linejoin="round" fill="none"/><path d="M 173 213 L 172 214 L 171 214 L 171 213 L 174 210 L 179 206 L 183 203" stroke="#ffffff" stroke-width="2" stroke-linecap="round" stroke-linejoin="round" fill="none"/><path d="M 175 187 L 174 185 L 173 184 L 174 185 L 177 193 L 180 206 L 183 220 L 184 223" stroke="#ffffff" stroke-width="2" stroke-linecap="round" stroke-linejoin="round" fill="none"/><path d="M 200 187 L 200 188 L 198 194 L 198 201 L 200 209 L 201 213 L 202 214 L 203 212 L 205 206 L 209 196" stroke="#ffffff" stroke-width="2" stroke-linecap="round" stroke-linejoin="round" fill="none"/><path d="M 229 182 L 228 181 L 225 180 L 224 185 L 222 193 L 219 202 L 216 209 L 215 210" stroke="#ffffff" stroke-width="2" stroke-linecap="round" stroke-linejoin="round" fill="none"/><path d="M 219 198 L 219 197 L 221 197 L 222 203 L 222 212 L 222 219" stroke="#ffffff" stroke-width="2" stroke-linecap="round" stroke-linejoin="round" fill="none"/><path d="M 243 191 L 240 190 L 239 190 L 238 197 L 239 206 L 240 211" stroke="#ffffff" stroke-width="2" stroke-linecap="round" stroke-linejoin="round" fill="none"/><path d="M 248 196 L 249 193 L 252 189 L 255 188 L 258 188" stroke="#ffffff" stroke-width="2" stroke-linecap="round" stroke-linejoin="round" fill="none"/><path d="M 254 205 L 252 206 L 254 203 L 261 197 L 266 194" stroke="#ffffff" stroke-width="2" stroke-linecap="round" stroke-linejoin="round" fill="none"/><path d="M 282 189 L 282 190 L 284 184 L 288 182" stroke="#ffffff" stroke-width="2" stroke-linecap="round" stroke-linejoin="round" fill="none"/><path d="M 286 201 L 286 201 L 282 198 L 284 196 L 287 194" stroke="#ffffff" stroke-width="2" stroke-linecap="round" stroke-linejoin="round" fill="none"/><path d="M 286 218 L 284 219 L 284 215 L 289 207 L 293 202" stroke="#ffffff" stroke-width="2" stroke-linecap="round" stroke-linejoin="round" fill="none"/><path d="M 305 166 L 305 168 L 303 172 L 301 182" stroke="#ffffff" stroke-width="2" stroke-linecap="round" stroke-linejoin="round" fill="none"/><path d="M 297 191 L 297 187 L 297 185 L 305 177 L 311 173 L 315 173 L 315 174 L 313 179 L 309 185 L 305 189 L 302 192 L 301 193 L 302 191 L 305 189 L 310 186 L 316 183 L 320 182 L 321 182" stroke="#ffffff" stroke-width="2" stroke-linecap="round" stroke-linejoin="round" fill="none"/><path d="M 303 193 L 302 193 L 299 201 L 299 211 L 299 217 L 300 218" stroke="#ffffff" stroke-width="2" stroke-linecap="round" stroke-linejoin="round" fill="none"/><path d="M 305 195 L 305 195 L 304 196 L 304 201 L 304 206" stroke="#ffffff" stroke-width="2" stroke-linecap="round" stroke-linejoin="round" fill="none"/><path d="M 313 188 L 313 186 L 312 186 L 312 190 L 313 196 L 314 201 L 317 204 L 321 203 L 324 200" stroke="#ffffff" stroke-width="2" stroke-linecap="round" stroke-linejoin="round" fill="none"/><path d="M 342 175 L 340 176 L 337 183 L 337 194 L 338 203 L 340 209 L 340 210" stroke="#ffffff" stroke-width="2" stroke-linecap="round" stroke-linejoin="round" fill="none"/><path d="M 333 189 L 333 189 L 331 184 L 333 182 L 338 182 L 339 182" stroke="#ffffff" stroke-width="2" stroke-linecap="round" stroke-linejoin="round" fill="none"/><path d="M 333 204 L 333 205 L 330 207 L 333 203 L 338 197 L 343 190 L 348 183 L 351 179 L 350 182 L 350 187 L 351 192 L 351 194" stroke="#ffffff" stroke-width="2" stroke-linecap="round" stroke-linejoin="round" fill="none"/><path d="M 360 181 L 360 179 L 364 175 L 367 175 L 369 176 L 370 179 L 369 182 L 367 185 L 365 186 L 364 187 L 366 187 L 368 190 L 369 194 L 368 198 L 366 201 L 364 202 L 362 202 L 361 200 L 362 197 L 365 194 L 370 191 L 374 190" stroke="#ffffff" stroke-width="2" stroke-linecap="round" stroke-linejoin="round" fill="none"/><path d="M 387 186 L 384 186 L 388 180 L 395 176 L 401 174 L 402 173 L 402 172" stroke="#ffffff" stroke-width="2" stroke-linecap="round" stroke-linejoin="round" fill="none"/><path d="M 395 169 L 393 169 L 392 169 L 392 170 L 392 177 L 392 189 L 392 198 L 392 204 L 392 206" stroke="#ffffff" stroke-width="2" stroke-linecap="round" stroke-linejoin="round" fill="none"/><path d="M 393 185 L 393 182 L 392 182 L 388 186 L 385 193 L 383 199 L 382 201" stroke="#ffffff" stroke-width="2" stroke-linecap="round" stroke-linejoin="round" fill="none"/><path d="M 386 184 L 387 182 L 390 183 L 393 185 L 395 186" stroke="#ffffff" stroke-width="2" stroke-linecap="round" stroke-linejoin="round" fill="none"/><path d="M 406 163 L 405 162 L 401 166 L 401 170 L 403 171" stroke="#ffffff" stroke-width="2" stroke-linecap="round" stroke-linejoin="round" fill="none"/><path d="M 413 160 L 413 160 L 411 159 L 409 164 L 407 168 L 407 171" stroke="#ffffff" stroke-width="2" stroke-linecap="round" stroke-linejoin="round" fill="none"/><path d="M 402 177 L 402 175 L 402 175 L 405 172 L 410 169 L 415 167" stroke="#ffffff" stroke-width="2" stroke-linecap="round" stroke-linejoin="round" fill="none"/><path d="M 407 181 L 406 181 L 404 180 L 407 177 L 412 174 L 416 171" stroke="#ffffff" stroke-width="2" stroke-linecap="round" stroke-linejoin="round" fill="none"/><path d="M 407 186 L 405 187 L 404 187 L 408 182 L 412 179 L 415 174" stroke="#ffffff" stroke-width="2" stroke-linecap="round" stroke-linejoin="round" fill="none"/><path d="M 413 168 L 412 167 L 411 167 L 410 169 L 410 176 L 410 186 L 409 194 L 409 200 L 408 203 L 408 204" stroke="#ffffff" stroke-width="2" stroke-linecap="round" stroke-linejoin="round" fill="none"/><path d="M 401 201 L 400 201 L 398 199 L 400 196 L 404 193 L 406 192" stroke="#ffffff" stroke-width="2" stroke-linecap="round" stroke-linejoin="round" fill="none"/><path d="M 402 204 L 400 206 L 400 206 L 401 204 L 404 200 L 409 193 L 414 185 L 419 178 L 421 174 L 422 174 L 421 177 L 418 183 L 414 188 L 411 192 L 411 193" stroke="#ffffff" stroke-width="2" stroke-linecap="round" stroke-linejoin="round" fill="none"/><path d="M 410 188 L 411 188 L 412 190 L 415 193 L 420 194 L 422 194" stroke="#ffffff" stroke-width="2" stroke-linecap="round" stroke-linejoin="round" fill="none"/><path d="M 442 175 L 441 174 L 438 181 L 437 191 L 437 200 L 439 204 L 442 204" stroke="#ffffff" stroke-width="2" stroke-linecap="round" stroke-linejoin="round" fill="none"/><path d="M 452 187 L 452 187 L 451 184 L 451 182 L 454 179 L 458 178 L 460 178" stroke="#ffffff" stroke-width="2" stroke-linecap="round" stroke-linejoin="round" fill="none"/><path d="M 455 192 L 453 194 L 452 195 L 453 195 L 457 193 L 463 189 L 467 186" stroke="#ffffff" stroke-width="2" stroke-linecap="round" stroke-linejoin="round" fill="none"/><path d="M 492 175 L 490 175 L 495 170 L 499 169" stroke="#ffffff" stroke-width="2" stroke-linecap="round" stroke-linejoin="round" fill="none"/><path d="M 489 186 L 487 187 L 487 186 L 491 184 L 496 181 L 502 177" stroke="#ffffff" stroke-width="2" stroke-linecap="round" stroke-linejoin="round" fill="none"/><path d="M 498 159 L 497 159 L 495 158 L 495 159 L 494 170 L 493 185 L 492 196 L 492 202 L 490 206 L 488 206 L 485 206 L 483 204 L 483 201 L 485 199 L 490 196 L 496 193 L 504 189" stroke="#ffffff" stroke-width="2" stroke-linecap="round" stroke-linejoin="round" fill="none"/><path d="M 514 184 L 513 182 L 513 181 L 518 177 L 522 176 L 524 175 L 524 175 L 523 177 L 520 181 L 518 187 L 516 194 L 517 198 L 521 199 L 526 195 L 530 190 L 532 184 L 533 179 L 533 177 L 534 179 L 535 184 L 536 189 L 538 192" stroke="#ffffff" stroke-width="2" stroke-linecap="round" stroke-linejoin="round" fill="none"/><path d="M 542 157 L 539 156 L 538 157 L 538 163 L 538 164" stroke="#ffffff" stroke-width="2" stroke-linecap="round" stroke-linejoin="round" fill="none"/><path d="M 545 160 L 545 159 L 543 158 L 543 160 L 543 164" stroke="#ffffff" stroke-width="2" stroke-linecap="round" stroke-linejoin="round" fill="none"/><path d="M 574 175 L 573 175 L 570 173 L 569 172 L 568 171 L 565 172 L 561 176 L 557 181 L 555 187 L 557 190 L 564 192 L 575 192" stroke="#ffffff" stroke-width="2" stroke-linecap="round" stroke-linejoin="round" fill="none"/></svg>
