<svg xmlns="http://www.w3.org/2000/svg" width="510" height="130" viewBox="0 0 510 130"><path d="M 316 100 L 310 96 L 308 95 L 308 94" stroke="#ffffff" stroke-width="2" stroke-linecap="round" stroke-linejoin="round" fill="none"/><path d="M 14 32 L 13 32 L 12 32 L 12 29 L 13 27 L 17 25 L 22 25 L 25 27 L 26 31 L 26 35 L 23 39 L 19 41 L 15 44 L 12 45 L 10 46 L 12 47 L 16 47 L 21 46 L 27 46 L 32 46 L 36 46" stroke="#ffffff" stroke-width="2" stroke-linecap="round" stroke-linejoin="round" fill="none"/><path d="M 50 14 L 48 13 L 46 13 L 43 18 L 41 26 L 41 35 L 42 40 L 44 42 L 47 42 L 50 40 L 53 36 L 54 33 L 54 31 L 52 31 L 50 30 L 46 32 L 42 35 L 40 38" stroke="#ffffff" stroke-width="2" stroke-linecap="round" stroke-linejoin="round" fill="none"/><path d="M 81 12 L 80 11 L 78 10 L 77 11 L 73 19 L 66 34 L 59 50 L 55 60 L 52 67 L 52 69" stroke="#ffffff" stroke-width="2" stroke-linecap="round" stroke-linejoin="round" fill="none"/><path d="M 92 40 L 93 38 L 93 37 L 94 34 L 94 32 L 93 30 L 92 30 L 89 30 L 86 32 L 83 37 L 82 42 L 82 44 L 85 44 L 89 42 L 92 39 L 94 36 L 95 35 L 95 34 L 93 37 L 92 42 L 90 50 L 89 58 L 88 65 L 88 67" stroke="#ffffff" stroke-width="2" stroke-linecap="round" stroke-linejoin="round" fill="none"/><path d="M 162 30 L 160 30 L 159 29 L 158 28 L 157 28 L 156 28 L 153 30 L 150 36 L 148 44 L 147 49 L 150 50 L 154 48 L 160 44 L 165 41" stroke="#ffffff" stroke-width="2" stroke-linecap="round" stroke-linejoin="round" fill="none"/><path d="M 189 26 L 188 25 L 187 25 L 186 26 L 184 29 L 184 33 L 186 36 L 190 38 L 194 39 L 197 40 L 197 41 L 197 43 L 194 44 L 190 45 L 186 46 L 183 46" stroke="#ffffff" stroke-width="2" stroke-linecap="round" stroke-linejoin="round" fill="none"/><path d="M 184 30 L 183 28 L 185 28 L 190 28 L 196 29" stroke="#ffffff" stroke-width="2" stroke-linecap="round" stroke-linejoin="round" fill="none"/><path d="M 221 23 L 220 23 L 217 23 L 215 23 L 213 24 L 212 26 L 213 29 L 216 33 L 220 35 L 225 37 L 228 39 L 229 41 L 227 43 L 223 44 L 219 46 L 215 46 L 212 45" stroke="#ffffff" stroke-width="2" stroke-linecap="round" stroke-linejoin="round" fill="none"/><path d="M 214 25 L 214 26 L 213 26 L 215 27 L 221 27 L 229 27 L 234 27" stroke="#ffffff" stroke-width="2" stroke-linecap="round" stroke-linejoin="round" fill="none"/><path d="M 264 16 L 264 17 L 262 18 L 258 23 L 251 35 L 244 47 L 239 55 L 237 60" stroke="#ffffff" stroke-width="2" stroke-linecap="round" stroke-linejoin="round" fill="none"/><path d="M 290 23 L 289 22 L 289 21 L 288 21 L 288 22 L 287 29 L 285 39 L 284 49 L 284 54" stroke="#ffffff" stroke-width="2" stroke-linecap="round" stroke-linejoin="round" fill="none"/><path d="M 287 42 L 286 41 L 285 40 L 285 39 L 288 38 L 294 35 L 301 32 L 305 30" stroke="#ffffff" stroke-width="2" stroke-linecap="round" stroke-linejoin="round" fill="none"/><path d="M 305 19 L 306 18 L 305 19 L 304 24 L 303 32 L 302 41 L 302 45" stroke="#ffffff" stroke-width="2" stroke-linecap="round" stroke-linejoin="round" fill="none"/><path d="M 328 22 L 326 20 L 324 20 L 321 20 L 318 21 L 317 23 L 316 27 L 317 29 L 319 32 L 322 33 L 325 35 L 327 36 L 327 37 L 325 38 L 322 39 L 318 39 L 315 38" stroke="#ffffff" stroke-width="2" stroke-linecap="round" stroke-linejoin="round" fill="none"/><path d="M 342 25 L 340 25 L 339 25 L 338 27 L 337 35 L 337 45 L 337 53 L 338 57" stroke="#ffffff" stroke-width="2" stroke-linecap="round" stroke-linejoin="round" fill="none"/><path d="M 336 37 L 336 35 L 336 31 L 337 27 L 341 23 L 346 22 L 350 24 L 351 26 L 350 30 L 346 33 L 342 36 L 339 38 L 337 38" stroke="#ffffff" stroke-width="2" stroke-linecap="round" stroke-linejoin="round" fill="none"/><path d="M 375 25 L 376 24 L 374 24 L 372 24 L 370 27 L 370 30 L 370 33 L 373 35 L 377 38 L 380 40 L 380 42 L 379 44 L 376 45 L 373 45 L 369 45 L 368 44" stroke="#ffffff" stroke-width="2" stroke-linecap="round" stroke-linejoin="round" fill="none"/><path d="M 368 26 L 369 26 L 371 26 L 376 26 L 383 27 L 391 28 L 396 27 L 397 27" stroke="#ffffff" stroke-width="2" stroke-linecap="round" stroke-linejoin="round" fill="none"/><path d="M 399 25 L 400 25 L 399 27 L 398 31 L 398 36 L 399 40 L 402 40 L 405 38 L 407 33 L 407 29 L 405 26 L 402 23 L 398 23 L 395 26 L 393 32" stroke="#ffffff" stroke-width="2" stroke-linecap="round" stroke-linejoin="round" fill="none"/><path d="M 419 117 L 415 120 L 413 120" stroke="#ffffff" stroke-width="2" stroke-linecap="round" stroke-linejoin="round" fill="none"/><path d="M 130 81 L 129 81 L 129 80 L 131 78 L 136 76 L 142 74 L 145 73 L 147 73" stroke="#ffffff" stroke-width="2" stroke-linecap="round" stroke-linejoin="round" fill="none"/><path d="M 141 76 L 139 78 L 138 79 L 137 81 L 137 84 L 137 89 L 137 93 L 137 97" stroke="#ffffff" stroke-width="2" stroke-linecap="round" stroke-linejoin="round" fill="none"/><path d="M 129 98 L 128 98 L 129 97 L 134 95 L 142 92 L 149 89" stroke="#ffffff" stroke-width="2" stroke-linecap="round" stroke-linejoin="round" fill="none"/><path d="M 163 72 L 162 72 L 161 72 L 160 73 L 160 76 L 160 79 L 160 80" stroke="#ffffff" stroke-width="2" stroke-linecap="round" stroke-linejoin="round" fill="none"/><path d="M 169 71 L 169 75 L 168 81 L 166 88 L 165 93 L 163 96" stroke="#ffffff" stroke-width="2" stroke-linecap="round" stroke-linejoin="round" fill="none"/><path d="M 177 82 L 177 81 L 180 79 L 187 77 L 194 74 L 198 73 L 199 73" stroke="#ffffff" stroke-width="2" stroke-linecap="round" stroke-linejoin="round" fill="none"/><path d="M 189 70 L 188 69 L 188 70 L 187 76 L 185 86 L 185 93 L 185 96" stroke="#ffffff" stroke-width="2" stroke-linecap="round" stroke-linejoin="round" fill="none"/><path d="M 207 81 L 207 80 L 207 79 L 210 77 L 216 75 L 221 73 L 223 72" stroke="#ffffff" stroke-width="2" stroke-linecap="round" stroke-linejoin="round" fill="none"/><path d="M 214 71 L 214 72 L 214 76 L 212 84 L 211 89 L 211 93 L 213 89 L 216 86 L 220 85 L 223 85 L 223 88 L 221 92 L 218 96 L 215 99 L 214 99" stroke="#ffffff" stroke-width="2" stroke-linecap="round" stroke-linejoin="round" fill="none"/><path d="M 232 93 L 234 91 L 238 90 L 242 89 L 243 89 L 242 91 L 240 92 L 237 93" stroke="#ffffff" stroke-width="2" stroke-linecap="round" stroke-linejoin="round" fill="none"/><path d="M 234 85 L 233 86 L 233 87 L 232 89 L 232 93" stroke="#ffffff" stroke-width="2" stroke-linecap="round" stroke-linejoin="round" fill="none"/><path d="M 238 82 L 237 85 L 237 90 L 237 91" stroke="#ffffff" stroke-width="2" stroke-linecap="round" stroke-linejoin="round" fill="none"/><path d="M 254 76 L 253 77 L 252 81 L 250 87 L 250 92 L 250 94 L 252 93 L 253 90 L 254 87 L 255 85 L 256 84 L 258 85 L 260 87 L 263 87 L 268 85 L 269 84" stroke="#ffffff" stroke-width="2" stroke-linecap="round" stroke-linejoin="round" fill="none"/><path d="M 293 65 L 291 64 L 290 63 L 289 65 L 288 70 L 287 76 L 287 77" stroke="#ffffff" stroke-width="2" stroke-linecap="round" stroke-linejoin="round" fill="none"/><path d="M 283 81 L 283 80 L 285 78 L 290 75 L 297 72 L 301 72 L 301 74 L 298 78 L 293 82 L 289 86 L 286 89 L 285 89" stroke="#ffffff" stroke-width="2" stroke-linecap="round" stroke-linejoin="round" fill="none"/><path d="M 293 80 L 293 82 L 292 86 L 292 90 L 292 93 L 292 95" stroke="#ffffff" stroke-width="2" stroke-linecap="round" stroke-linejoin="round" fill="none"/><path d="M 295 82 L 295 81 L 296 81 L 297 81 L 300 83 L 304 84 L 305 84" stroke="#ffffff" stroke-width="2" stroke-linecap="round" stroke-linejoin="round" fill="none"/><path d="M 302 85 L 302 84 L 301 83 L 301 81 L 303 80 L 307 78 L 310 78 L 312 79 L 312 81 L 311 82 L 310 84 L 308 85 L 306 85 L 304 84 L 304 83 L 303 82 L 304 84 L 304 88 L 304 91 L 302 94 L 301 95 L 300 96 L 299 96 L 297 97 L 295 98 L 291 98 L 287 98 L 283 97 L 278 95 L 275 91 L 273 86 L 273 80 L 273 76 L 275 72 L 278 68 L 283 65 L 292 62 L 302 61 L 310 62 L 316 65 L 319 70 L 319 76 L 316 82 L 314 86 L 310 91 L 305 95 L 300 97 L 295 98 L 290 98 L 287 96 L 287 95" stroke="#ffffff" stroke-width="2" stroke-linecap="round" stroke-linejoin="round" fill="none"/><path d="M 331 78 L 330 78 L 330 76 L 331 75 L 336 74 L 340 74 L 342 75 L 343 78 L 342 81 L 340 84 L 336 85 L 332 86 L 329 87 L 328 87 L 330 87 L 334 89 L 338 90 L 342 91 L 345 92" stroke="#ffffff" stroke-width="2" stroke-linecap="round" stroke-linejoin="round" fill="none"/><path d="M 353 84 L 352 84 L 350 84 L 349 84 L 350 87 L 351 87" stroke="#ffffff" stroke-width="2" stroke-linecap="round" stroke-linejoin="round" fill="none"/><path d="M 358 82 L 357 82 L 356 82 L 355 82 L 355 84 L 355 85" stroke="#ffffff" stroke-width="2" stroke-linecap="round" stroke-linejoin="round" fill="none"/><path d="M 363 81 L 364 81 L 363 83 L 361 89 L 360 91" stroke="#ffffff" stroke-width="2" stroke-linecap="round" stroke-linejoin="round" fill="none"/><path d="M 371 76 L 370 76 L 371 75 L 377 74 L 385 72 L 395 71 L 402 70 L 403 69" stroke="#ffffff" stroke-width="2" stroke-linecap="round" stroke-linejoin="round" fill="none"/><path d="M 382 66 L 381 66 L 380 66 L 380 68 L 380 73 L 381 78 L 383 82" stroke="#ffffff" stroke-width="2" stroke-linecap="round" stroke-linejoin="round" fill="none"/><path d="M 391 61 L 390 67 L 388 78 L 386 89 L 385 94 L 385 97" stroke="#ffffff" stroke-width="2" stroke-linecap="round" stroke-linejoin="round" fill="none"/><path d="M 399 84 L 398 83 L 398 82 L 400 82 L 405 81 L 408 81" stroke="#ffffff" stroke-width="2" stroke-linecap="round" stroke-linejoin="round" fill="none"/><path d="M 422 76 L 421 76 L 423 74 L 426 73 L 428 73 L 429 73" stroke="#ffffff" stroke-width="2" stroke-linecap="round" stroke-linejoin="round" fill="none"/><path d="M 425 82 L 424 82 L 423 82 L 423 81 L 426 79 L 430 78 L 431 78" stroke="#ffffff" stroke-width="2" stroke-linecap="round" stroke-linejoin="round" fill="none"/><path d="M 427 94 L 429 91 L 436 85 L 445 75" stroke="#ffffff" stroke-width="2" stroke-linecap="round" stroke-linejoin="round" fill="none"/><path d="M 449 62 L 447 64 L 445 66 L 445 68" stroke="#ffffff" stroke-width="2" stroke-linecap="round" stroke-linejoin="round" fill="none"/><path d="M 455 63 L 455 64 L 453 66 L 453 68" stroke="#ffffff" stroke-width="2" stroke-linecap="round" stroke-linejoin="round" fill="none"/><path d="M 472 81 L 472 83 L 471 83 L 472 83 L 475 83 L 479 82 L 484 80 L 488 79 L 490 78" stroke="#ffffff" stroke-width="2" stroke-linecap="round" stroke-linejoin="round" fill="none"/><path d="M 470 73 L 469 72 L 468 71 L 469 71 L 472 71 L 479 71 L 487 70 L 494 69 L 496 69" stroke="#ffffff" stroke-width="2" stroke-linecap="round" stroke-linejoin="round" fill="none"/><path d="M 486 63 L 485 62 L 485 61 L 484 61 L 484 62 L 484 65 L 483 71 L 482 79 L 482 86 L 485 90 L 490 91 L 495 89 L 498 86 L 500 84 L 500 82" stroke="#ffffff" stroke-width="2" stroke-linecap="round" stroke-linejoin="round" fill="none"/></svg>
