<svg xmlns="http://www.w3.org/2000/svg" width="619" height="677" viewBox="0 0 619 677"><path d="M 39 80 L 38 89 L 36 105 L 30 130 L 26 162 L 25 207 L 23 265 L 18 325 L 15 385 L 14 442 L 17 498 L 30 555 L 47 606 L 70 645 L 96 675 L 121 693 L 143 697 L 171 690 L 200 658 L 227 614 L 253 559 L 279 494 L 306 426 L 330 364 L 350 310 L 364 259 L 373 209 L 374 162 L 361 115 L 333 73 L 293 39 L 244 17 L 190 10 L 135 18 L 84 43 L 43 81 L 20 123 L 10 176 L 12 247 L 31 327 L 62 406 L 100 481 L 146 547 L 191 591 L 227 611 L 251 610 L 266 584 L 272 533 L 270 465 L 253 383 L 230 310 L 206 253 L 186 208 L 175 183 L 174 175 L 179 175 L 201 185 L 254 230 L 317 280 L 383 326 L 445 362 L 499 383 L 544 385 L 576 371 L 599 344 L 609 300 L 609 247 L 598 190 L 572 126 L 541 78 L 511 47 L 480 34 L 452 33 L 426 49 L 403 79 L 387 116 L 375 159 L 361 211 L 348 259" stroke="#ffffff" stroke-width="2" stroke-linecap="round" stroke-linejoin="round" fill="none"/></svg>
