<svg xmlns="http://www.w3.org/2000/svg" width="652" height="366" viewBox="0 0 652 366"><path d="M 12 29 L 10 27 L 10 27 L 10 27 L 10 30 L 11 37 L 11 44 L 12 51 L 13 55" stroke="#ffffff" stroke-width="2" stroke-linecap="round" stroke-linejoin="round" fill="none"/><path d="M 28 21 L 27 21 L 26 21 L 25 23 L 25 27 L 25 32 L 26 35 L 27 36" stroke="#ffffff" stroke-width="2" stroke-linecap="round" stroke-linejoin="round" fill="none"/><path d="M 25 27 L 25 26 L 25 22 L 25 20 L 26 18 L 28 17 L 30 16 L 33 16 L 36 17 L 37 19 L 37 24 L 37 31 L 36 39 L 35 46 L 35 51 L 34 53 L 34 54" stroke="#ffffff" stroke-width="2" stroke-linecap="round" stroke-linejoin="round" fill="none"/><path d="M 70 14 L 69 15 L 68 16 L 64 27 L 58 45 L 52 61 L 48 70 L 45 77 L 43 80" stroke="#ffffff" stroke-width="2" stroke-linecap="round" stroke-linejoin="round" fill="none"/><path d="M 88 41 L 87 41 L 87 41 L 87 47 L 86 60 L 85 72 L 85 78" stroke="#ffffff" stroke-width="2" stroke-linecap="round" stroke-linejoin="round" fill="none"/><path d="M 148 25 L 148 23 L 148 22 L 150 21 L 154 21 L 158 24 L 160 27 L 160 30 L 158 33 L 153 36 L 149 37 L 145 37 L 145 37 L 145 37 L 149 37 L 154 37 L 161 35 L 167 34 L 172 34 L 173 34" stroke="#ffffff" stroke-width="2" stroke-linecap="round" stroke-linejoin="round" fill="none"/><path d="M 184 19 L 183 19 L 178 20 L 177 23 L 178 28 L 179 33 L 182 35 L 186 35 L 189 32 L 191 28 L 191 23 L 191 19 L 188 17 L 184 18 L 180 21 L 179 24" stroke="#ffffff" stroke-width="2" stroke-linecap="round" stroke-linejoin="round" fill="none"/><path d="M 207 19 L 206 19 L 205 17 L 207 17 L 211 17 L 213 20 L 213 23 L 211 27 L 207 31 L 203 32 L 201 32 L 201 32 L 201 31 L 203 31 L 206 32 L 211 32 L 217 32 L 223 31" stroke="#ffffff" stroke-width="2" stroke-linecap="round" stroke-linejoin="round" fill="none"/><path d="M 243 10 L 241 10 L 237 13 L 234 20 L 232 29 L 233 35 L 236 37 L 239 36 L 243 34 L 245 31 L 245 28 L 244 26 L 240 25 L 236 28 L 234 29" stroke="#ffffff" stroke-width="2" stroke-linecap="round" stroke-linejoin="round" fill="none"/><path d="M 224 61 L 224 61 L 222 59 L 221 59 L 217 58 L 214 61 L 210 66 L 208 73 L 207 81 L 210 85 L 216 86 L 225 81 L 230 77" stroke="#ffffff" stroke-width="2" stroke-linecap="round" stroke-linejoin="round" fill="none"/><path d="M 255 64 L 255 64 L 257 59 L 258 55 L 258 52 L 257 51 L 255 51 L 252 54 L 249 58 L 247 64 L 246 68 L 248 69 L 252 67 L 256 63 L 258 59 L 259 56 L 259 55 L 258 55 L 257 57 L 256 61 L 254 69 L 251 79 L 250 87 L 251 90 L 252 90" stroke="#ffffff" stroke-width="2" stroke-linecap="round" stroke-linejoin="round" fill="none"/><path d="M 278 56 L 276 58 L 271 68 L 270 74 L 272 78 L 275 78 L 279 75 L 282 70 L 283 64 L 284 59 L 283 55 L 277 56 L 271 63 L 270 66" stroke="#ffffff" stroke-width="2" stroke-linecap="round" stroke-linejoin="round" fill="none"/><path d="M 322 42 L 322 42 L 321 42 L 319 41 L 315 47 L 310 61 L 307 76 L 308 83 L 313 86" stroke="#ffffff" stroke-width="2" stroke-linecap="round" stroke-linejoin="round" fill="none"/><path d="M 345 57 L 345 56 L 345 54 L 344 51 L 343 50 L 341 49 L 337 51 L 334 55 L 331 62 L 330 67 L 333 70 L 340 70 L 346 67" stroke="#ffffff" stroke-width="2" stroke-linecap="round" stroke-linejoin="round" fill="none"/><path d="M 357 62 L 355 61 L 355 56 L 356 54 L 357 53 L 357 52 L 355 53 L 353 55 L 351 58 L 350 61 L 350 63 L 351 63 L 354 61 L 356 59 L 358 58 L 358 61 L 357 63 L 357 65 L 357 66" stroke="#ffffff" stroke-width="2" stroke-linecap="round" stroke-linejoin="round" fill="none"/><path d="M 372 56 L 372 53 L 371 52 L 369 52 L 367 52 L 366 53 L 365 54 L 365 56 L 365 60 L 366 64 L 366 69 L 367 71 L 367 71 L 366 70 L 364 67 L 362 64" stroke="#ffffff" stroke-width="2" stroke-linecap="round" stroke-linejoin="round" fill="none"/><path d="M 379 46 L 378 47 L 375 54 L 374 61 L 373 66 L 373 68 L 374 68 L 376 65 L 378 62 L 379 60 L 380 60 L 380 63 L 380 67 L 381 69 L 385 69 L 391 65" stroke="#ffffff" stroke-width="2" stroke-linecap="round" stroke-linejoin="round" fill="none"/><path d="M 400 48 L 399 48 L 397 48 L 400 46 L 408 44 L 415 42 L 419 42 L 421 42" stroke="#ffffff" stroke-width="2" stroke-linecap="round" stroke-linejoin="round" fill="none"/><path d="M 401 57 L 400 57 L 399 58 L 403 56 L 409 53 L 414 52 L 418 51 L 419 50 L 418 50 L 417 50 L 415 50 L 414 51 L 413 52 L 411 57 L 409 65 L 408 73 L 409 76 L 409 76" stroke="#ffffff" stroke-width="2" stroke-linecap="round" stroke-linejoin="round" fill="none"/><path d="M 427 29 L 427 29 L 421 29 L 420 34 L 421 38 L 422 39" stroke="#ffffff" stroke-width="2" stroke-linecap="round" stroke-linejoin="round" fill="none"/><path d="M 429 33 L 428 33 L 427 36 L 425 42 L 425 43" stroke="#ffffff" stroke-width="2" stroke-linecap="round" stroke-linejoin="round" fill="none"/><path d="M 428 58 L 426 58 L 426 58 L 427 57 L 429 56 L 431 57 L 432 58 L 431 61 L 428 65 L 425 68 L 424 69" stroke="#ffffff" stroke-width="2" stroke-linecap="round" stroke-linejoin="round" fill="none"/><path d="M 418 62 L 418 63 L 419 63 L 419 64 L 417 66 L 415 68 L 413 70 L 412 71" stroke="#ffffff" stroke-width="2" stroke-linecap="round" stroke-linejoin="round" fill="none"/><path d="M 418 64 L 419 64 L 419 63 L 419 65 L 418 69 L 417 73" stroke="#ffffff" stroke-width="2" stroke-linecap="round" stroke-linejoin="round" fill="none"/><path d="M 434 62 L 432 62 L 433 63 L 435 65 L 436 67 L 438 69 L 439 70" stroke="#ffffff" stroke-width="2" stroke-linecap="round" stroke-linejoin="round" fill="none"/><path d="M 444 60 L 443 60 L 442 57 L 445 56 L 450 55 L 454 55 L 456 57 L 456 59 L 456 61 L 454 62 L 452 62 L 451 62 L 449 60 L 449 57 L 449 53 L 450 50 L 450 49 L 451 49 L 451 52 L 450 58 L 447 64 L 445 69 L 445 71" stroke="#ffffff" stroke-width="2" stroke-linecap="round" stroke-linejoin="round" fill="none"/><path d="M 477 41 L 477 41 L 476 41 L 475 41 L 472 45 L 470 50 L 469 51" stroke="#ffffff" stroke-width="2" stroke-linecap="round" stroke-linejoin="round" fill="none"/><path d="M 468 54 L 466 53 L 465 53 L 464 56 L 463 59 L 463 62 L 463 64" stroke="#ffffff" stroke-width="2" stroke-linecap="round" stroke-linejoin="round" fill="none"/><path d="M 467 57 L 467 55 L 469 51 L 471 51 L 473 52 L 473 57 L 471 63 L 469 67 L 466 70 L 466 72" stroke="#ffffff" stroke-width="2" stroke-linecap="round" stroke-linejoin="round" fill="none"/><path d="M 479 61 L 478 59 L 480 59 L 482 60 L 483 61" stroke="#ffffff" stroke-width="2" stroke-linecap="round" stroke-linejoin="round" fill="none"/><path d="M 480 72 L 480 71 L 482 68 L 487 64 L 493 60" stroke="#ffffff" stroke-width="2" stroke-linecap="round" stroke-linejoin="round" fill="none"/><path d="M 514 46 L 513 45 L 512 45 L 510 47 L 509 56 L 508 67 L 508 76 L 509 80 L 509 81" stroke="#ffffff" stroke-width="2" stroke-linecap="round" stroke-linejoin="round" fill="none"/><path d="M 507 63 L 507 62 L 506 60 L 509 61 L 513 63 L 519 65 L 522 65" stroke="#ffffff" stroke-width="2" stroke-linecap="round" stroke-linejoin="round" fill="none"/><path d="M 547 51 L 547 49 L 546 48 L 543 50 L 539 54 L 535 60 L 531 64 L 531 65" stroke="#ffffff" stroke-width="2" stroke-linecap="round" stroke-linejoin="round" fill="none"/><path d="M 550 58 L 548 57 L 547 57 L 542 58 L 539 62 L 537 65 L 536 67" stroke="#ffffff" stroke-width="2" stroke-linecap="round" stroke-linejoin="round" fill="none"/><path d="M 541 64 L 541 65 L 540 66 L 538 72 L 538 75 L 539 77 L 539 77" stroke="#ffffff" stroke-width="2" stroke-linecap="round" stroke-linejoin="round" fill="none"/><path d="M 563 46 L 561 46 L 556 47 L 555 50 L 554 53 L 554 55 L 555 55 L 558 54 L 560 53 L 561 52 L 562 52 L 561 53 L 558 56 L 554 59 L 552 61 L 551 61 L 552 61 L 554 60 L 559 59 L 563 58 L 566 58 L 567 57 L 565 57 L 563 58 L 561 58 L 559 60 L 556 63 L 552 68 L 549 71 L 549 72 L 549 70 L 551 67 L 554 65 L 557 62 L 559 61 L 561 61 L 562 64 L 560 68 L 556 73 L 552 76 L 549 78 L 547 79 L 546 78" stroke="#ffffff" stroke-width="2" stroke-linecap="round" stroke-linejoin="round" fill="none"/><path d="M 554 64 L 553 64 L 553 66 L 553 68 L 558 72 L 567 75 L 570 75" stroke="#ffffff" stroke-width="2" stroke-linecap="round" stroke-linejoin="round" fill="none"/><path d="M 590 40 L 590 39 L 591 39 L 592 39 L 595 52 L 594 66 L 586 77 L 578 83 L 574 87" stroke="#ffffff" stroke-width="2" stroke-linecap="round" stroke-linejoin="round" fill="none"/><path d="M 295 111 L 293 110 L 293 110 L 297 107 L 304 104 L 310 102 L 313 102 L 314 102 L 313 102" stroke="#ffffff" stroke-width="2" stroke-linecap="round" stroke-linejoin="round" fill="none"/><path d="M 303 100 L 303 100 L 302 98 L 302 97 L 302 98 L 302 104 L 303 112 L 303 120 L 303 126 L 302 127" stroke="#ffffff" stroke-width="2" stroke-linecap="round" stroke-linejoin="round" fill="none"/><path d="M 299 119 L 297 118 L 296 117 L 295 119 L 294 122 L 293 124" stroke="#ffffff" stroke-width="2" stroke-linecap="round" stroke-linejoin="round" fill="none"/><path d="M 309 116 L 308 116 L 310 118 L 312 120" stroke="#ffffff" stroke-width="2" stroke-linecap="round" stroke-linejoin="round" fill="none"/><path d="M 328 112 L 328 112 L 326 111 L 326 111 L 328 112 L 329 114 L 329 119 L 327 124 L 325 128 L 324 129 L 327 125 L 332 120 L 339 112 L 343 108" stroke="#ffffff" stroke-width="2" stroke-linecap="round" stroke-linejoin="round" fill="none"/><path d="M 349 99 L 346 99 L 345 103 L 345 110 L 345 119 L 345 124 L 346 126" stroke="#ffffff" stroke-width="2" stroke-linecap="round" stroke-linejoin="round" fill="none"/><path d="M 346 115 L 347 114 L 350 114 L 355 114 L 359 113" stroke="#ffffff" stroke-width="2" stroke-linecap="round" stroke-linejoin="round" fill="none"/><path d="M 373 105 L 371 105 L 368 105 L 368 106 L 366 112 L 366 118 L 368 122 L 370 123" stroke="#ffffff" stroke-width="2" stroke-linecap="round" stroke-linejoin="round" fill="none"/><path d="M 376 112 L 376 110 L 383 107 L 388 107 L 392 106 L 392 106" stroke="#ffffff" stroke-width="2" stroke-linecap="round" stroke-linejoin="round" fill="none"/><path d="M 389 102 L 389 102 L 387 101 L 386 102 L 385 105 L 384 110 L 382 116 L 382 120 L 381 121 L 380 121 L 380 119 L 379 118 L 379 117 L 380 116 L 383 116 L 390 114 L 394 113" stroke="#ffffff" stroke-width="2" stroke-linecap="round" stroke-linejoin="round" fill="none"/><path d="M 430 103 L 429 103 L 425 104 L 423 110 L 423 118 L 424 125" stroke="#ffffff" stroke-width="2" stroke-linecap="round" stroke-linejoin="round" fill="none"/><path d="M 446 104 L 445 104 L 443 104 L 442 105 L 441 111 L 441 116 L 442 118 L 444 119 L 445 117 L 447 113 L 447 110 L 446 107 L 444 105 L 442 107 L 442 109" stroke="#ffffff" stroke-width="2" stroke-linecap="round" stroke-linejoin="round" fill="none"/><path d="M 467 105 L 465 105 L 460 106 L 458 110 L 458 114 L 459 117 L 462 118 L 466 115 L 468 112 L 470 108 L 470 106 L 466 105 L 461 108 L 459 111" stroke="#ffffff" stroke-width="2" stroke-linecap="round" stroke-linejoin="round" fill="none"/><path d="M 40 147 L 40 147 L 39 147 L 39 150 L 38 157 L 37 166 L 36 174 L 35 179 L 35 181 L 36 181" stroke="#ffffff" stroke-width="2" stroke-linecap="round" stroke-linejoin="round" fill="none"/><path d="M 59 146 L 59 146 L 58 147 L 57 152 L 56 157 L 55 162 L 55 163 L 56 162" stroke="#ffffff" stroke-width="2" stroke-linecap="round" stroke-linejoin="round" fill="none"/><path d="M 57 151 L 57 150 L 57 149 L 58 148 L 60 146 L 61 146 L 64 146 L 65 149 L 67 153 L 67 159 L 66 164 L 64 170 L 63 173 L 62 175 L 61 176" stroke="#ffffff" stroke-width="2" stroke-linecap="round" stroke-linejoin="round" fill="none"/><path d="M 91 140 L 90 138 L 89 139 L 87 145 L 84 155 L 79 169 L 73 181 L 69 189 L 66 194 L 64 196 L 64 197" stroke="#ffffff" stroke-width="2" stroke-linecap="round" stroke-linejoin="round" fill="none"/><path d="M 96 169 L 96 168 L 95 171 L 94 176 L 93 184 L 93 190 L 92 194" stroke="#ffffff" stroke-width="2" stroke-linecap="round" stroke-linejoin="round" fill="none"/><path d="M 19 133 L 18 134 L 14 140 L 13 149 L 12 163 L 12 180 L 14 193 L 20 202 L 22 203" stroke="#ffffff" stroke-width="2" stroke-linecap="round" stroke-linejoin="round" fill="none"/><path d="M 112 132 L 113 132 L 115 136 L 118 146 L 120 161 L 119 176 L 116 187 L 112 197 L 108 203 L 105 206" stroke="#ffffff" stroke-width="2" stroke-linecap="round" stroke-linejoin="round" fill="none"/><path d="M 165 168 L 164 166 L 163 170 L 162 180 L 161 191 L 161 199 L 162 202" stroke="#ffffff" stroke-width="2" stroke-linecap="round" stroke-linejoin="round" fill="none"/><path d="M 160 184 L 160 183 L 162 183 L 166 184 L 170 184" stroke="#ffffff" stroke-width="2" stroke-linecap="round" stroke-linejoin="round" fill="none"/><path d="M 183 170 L 182 169 L 181 170 L 181 174 L 182 179 L 184 182" stroke="#ffffff" stroke-width="2" stroke-linecap="round" stroke-linejoin="round" fill="none"/><path d="M 191 165 L 192 165 L 192 169 L 190 178 L 188 189 L 186 197 L 184 201 L 184 201" stroke="#ffffff" stroke-width="2" stroke-linecap="round" stroke-linejoin="round" fill="none"/><path d="M 210 173 L 209 174 L 205 182 L 204 187 L 205 189 L 206 189 L 209 186 L 211 183 L 213 181 L 215 180 L 217 182 L 219 185 L 221 187 L 226 188" stroke="#ffffff" stroke-width="2" stroke-linecap="round" stroke-linejoin="round" fill="none"/><path d="M 258 170 L 258 170 L 261 168 L 265 165 L 270 163 L 273 162 L 273 161" stroke="#ffffff" stroke-width="2" stroke-linecap="round" stroke-linejoin="round" fill="none"/><path d="M 263 166 L 262 166 L 261 171 L 261 177 L 261 183" stroke="#ffffff" stroke-width="2" stroke-linecap="round" stroke-linejoin="round" fill="none"/><path d="M 260 176 L 260 175 L 261 172 L 262 171 L 264 171 L 265 171" stroke="#ffffff" stroke-width="2" stroke-linecap="round" stroke-linejoin="round" fill="none"/><path d="M 265 175 L 264 175 L 264 175 L 263 175 L 265 174 L 268 172 L 271 170 L 271 170" stroke="#ffffff" stroke-width="2" stroke-linecap="round" stroke-linejoin="round" fill="none"/><path d="M 244 194 L 242 194 L 247 190 L 255 184 L 263 179 L 268 176 L 268 176 L 267 176 L 265 178 L 261 180 L 258 184 L 255 188 L 253 195 L 254 198 L 257 199 L 261 197 L 264 194" stroke="#ffffff" stroke-width="2" stroke-linecap="round" stroke-linejoin="round" fill="none"/><path d="M 270 186 L 271 184 L 269 188 L 267 191 L 265 194 L 263 196 L 260 197" stroke="#ffffff" stroke-width="2" stroke-linecap="round" stroke-linejoin="round" fill="none"/><path d="M 255 185 L 255 185 L 257 184 L 261 188 L 267 193 L 273 196 L 278 196" stroke="#ffffff" stroke-width="2" stroke-linecap="round" stroke-linejoin="round" fill="none"/><path d="M 287 182 L 284 181 L 287 179 L 296 175 L 304 171 L 309 169 L 309 169" stroke="#ffffff" stroke-width="2" stroke-linecap="round" stroke-linejoin="round" fill="none"/><path d="M 297 168 L 297 168 L 297 169 L 298 175 L 299 182 L 299 188 L 299 189" stroke="#ffffff" stroke-width="2" stroke-linecap="round" stroke-linejoin="round" fill="none"/><path d="M 289 189 L 287 190 L 294 195 L 300 196 L 307 194 L 309 193" stroke="#ffffff" stroke-width="2" stroke-linecap="round" stroke-linejoin="round" fill="none"/><path d="M 322 177 L 321 176 L 321 176 L 326 175 L 329 175 L 332 174 L 333 174" stroke="#ffffff" stroke-width="2" stroke-linecap="round" stroke-linejoin="round" fill="none"/><path d="M 323 184 L 322 184 L 321 185 L 323 185 L 328 183 L 333 182 L 338 179 L 338 179" stroke="#ffffff" stroke-width="2" stroke-linecap="round" stroke-linejoin="round" fill="none"/><path d="M 333 166 L 333 166 L 330 166 L 329 171 L 327 180 L 327 189 L 328 194 L 332 195 L 338 194 L 345 189 L 349 186" stroke="#ffffff" stroke-width="2" stroke-linecap="round" stroke-linejoin="round" fill="none"/><path d="M 363 180 L 363 180 L 365 178 L 372 175 L 379 172 L 383 171 L 383 170" stroke="#ffffff" stroke-width="2" stroke-linecap="round" stroke-linejoin="round" fill="none"/><path d="M 372 169 L 371 169 L 371 170 L 371 173 L 372 179 L 373 184 L 373 185" stroke="#ffffff" stroke-width="2" stroke-linecap="round" stroke-linejoin="round" fill="none"/><path d="M 361 192 L 361 196 L 364 198 L 370 197 L 377 194 L 384 190 L 385 189" stroke="#ffffff" stroke-width="2" stroke-linecap="round" stroke-linejoin="round" fill="none"/><path d="M 400 167 L 399 167 L 396 171 L 396 180 L 395 189 L 395 195 L 395 198 L 395 198" stroke="#ffffff" stroke-width="2" stroke-linecap="round" stroke-linejoin="round" fill="none"/><path d="M 390 182 L 390 177 L 391 177 L 394 177 L 395 177" stroke="#ffffff" stroke-width="2" stroke-linecap="round" stroke-linejoin="round" fill="none"/><path d="M 392 193 L 391 194 L 389 194 L 390 192 L 393 187 L 397 181 L 403 176 L 408 175 L 410 179 L 410 184 L 408 188 L 405 192 L 403 194" stroke="#ffffff" stroke-width="2" stroke-linecap="round" stroke-linejoin="round" fill="none"/><path d="M 435 167 L 434 166 L 434 165 L 433 169 L 432 178 L 431 189 L 431 196 L 430 198" stroke="#ffffff" stroke-width="2" stroke-linecap="round" stroke-linejoin="round" fill="none"/><path d="M 424 179 L 424 178 L 426 173 L 430 171 L 432 171 L 433 171" stroke="#ffffff" stroke-width="2" stroke-linecap="round" stroke-linejoin="round" fill="none"/><path d="M 423 192 L 422 192 L 422 189 L 427 185 L 433 180 L 439 174 L 443 172 L 442 175 L 440 181 L 439 187 L 439 191 L 443 193 L 444 193" stroke="#ffffff" stroke-width="2" stroke-linecap="round" stroke-linejoin="round" fill="none"/><path d="M 457 177 L 457 176 L 459 173 L 462 172 L 465 170" stroke="#ffffff" stroke-width="2" stroke-linecap="round" stroke-linejoin="round" fill="none"/><path d="M 466 169 L 465 169 L 464 170 L 463 171 L 460 177 L 455 185 L 452 190 L 451 192" stroke="#ffffff" stroke-width="2" stroke-linecap="round" stroke-linejoin="round" fill="none"/><path d="M 475 171 L 480 167 L 483 167 L 484 167 L 485 167 L 484 168 L 482 169 L 480 171 L 477 175 L 475 180 L 473 185 L 471 190 L 469 193 L 468 193 L 466 192 L 465 190 L 465 188 L 468 185 L 472 184 L 478 182 L 484 182 L 485 182" stroke="#ffffff" stroke-width="2" stroke-linecap="round" stroke-linejoin="round" fill="none"/><path d="M 493 175 L 493 176 L 492 183 L 492 184 L 492 184" stroke="#ffffff" stroke-width="2" stroke-linecap="round" stroke-linejoin="round" fill="none"/><path d="M 499 177 L 501 176 L 501 176 L 502 177 L 502 181 L 503 183" stroke="#ffffff" stroke-width="2" stroke-linecap="round" stroke-linejoin="round" fill="none"/><path d="M 520 179 L 520 177 L 522 176 L 525 175 L 528 175 L 530 178 L 530 182 L 529 185 L 526 188 L 524 188 L 523 186 L 523 182 L 524 177 L 526 171 L 528 167 L 529 166 L 529 167 L 529 169 L 526 175 L 522 182 L 519 189 L 518 193" stroke="#ffffff" stroke-width="2" stroke-linecap="round" stroke-linejoin="round" fill="none"/><path d="M 539 164 L 539 164 L 542 165 L 547 171 L 552 176 L 553 177" stroke="#ffffff" stroke-width="2" stroke-linecap="round" stroke-linejoin="round" fill="none"/><path d="M 567 162 L 566 163 L 564 166 L 562 170 L 561 171 L 561 171 L 560 170 L 558 171 L 555 175 L 552 179 L 552 182 L 553 183 L 555 183 L 559 182 L 563 182 L 565 183 L 565 185 L 563 188 L 558 190 L 552 192 L 546 193 L 543 193" stroke="#ffffff" stroke-width="2" stroke-linecap="round" stroke-linejoin="round" fill="none"/><path d="M 78 236 L 79 235 L 79 233 L 76 234 L 72 237 L 68 240 L 67 243 L 67 246 L 72 249 L 77 252 L 81 254 L 82 256 L 81 257 L 77 259 L 73 261 L 69 261 L 66 261" stroke="#ffffff" stroke-width="2" stroke-linecap="round" stroke-linejoin="round" fill="none"/><path d="M 95 225 L 93 226 L 92 236 L 91 248 L 89 257 L 89 260 L 89 261 L 89 260 L 91 257 L 93 253 L 95 251 L 97 251 L 100 254 L 102 257 L 106 259 L 111 257" stroke="#ffffff" stroke-width="2" stroke-linecap="round" stroke-linejoin="round" fill="none"/><path d="M 123 227 L 121 229 L 119 234 L 117 240 L 116 243 L 118 243 L 121 240 L 123 238 L 127 236 L 130 235 L 134 235 L 139 236 L 143 236 L 144 236" stroke="#ffffff" stroke-width="2" stroke-linecap="round" stroke-linejoin="round" fill="none"/><path d="M 125 250 L 125 250 L 125 254 L 125 259 L 126 262 L 128 262" stroke="#ffffff" stroke-width="2" stroke-linecap="round" stroke-linejoin="round" fill="none"/><path d="M 129 256 L 128 255 L 128 251 L 131 248 L 135 247 L 138 247 L 139 249 L 139 253 L 137 256 L 135 259 L 134 259" stroke="#ffffff" stroke-width="2" stroke-linecap="round" stroke-linejoin="round" fill="none"/><path d="M 127 262 L 127 262 L 127 262 L 129 261 L 134 258 L 138 255" stroke="#ffffff" stroke-width="2" stroke-linecap="round" stroke-linejoin="round" fill="none"/><path d="M 159 239 L 157 240 L 157 244 L 157 249 L 156 253 L 155 254 L 155 254 L 154 253 L 154 250 L 154 247 L 157 244 L 160 241 L 165 241 L 168 243 L 169 249 L 168 254 L 166 260 L 165 261" stroke="#ffffff" stroke-width="2" stroke-linecap="round" stroke-linejoin="round" fill="none"/><path d="M 188 241 L 188 240 L 191 237 L 200 232 L 210 226 L 213 225 L 213 224 L 212 225 L 209 227 L 206 230 L 203 235 L 200 244 L 199 256 L 200 263 L 203 265 L 204 265" stroke="#ffffff" stroke-width="2" stroke-linecap="round" stroke-linejoin="round" fill="none"/><path d="M 224 233 L 224 233 L 222 234 L 221 239 L 221 247 L 221 255 L 221 261 L 221 263 L 222 263" stroke="#ffffff" stroke-width="2" stroke-linecap="round" stroke-linejoin="round" fill="none"/><path d="M 220 243 L 220 239 L 225 231 L 229 230 L 231 231 L 232 234 L 232 237 L 231 240 L 228 242 L 225 244 L 223 245 L 221 245 L 220 247 L 223 249 L 229 252 L 237 253 L 246 253" stroke="#ffffff" stroke-width="2" stroke-linecap="round" stroke-linejoin="round" fill="none"/><path d="M 245 237 L 245 237 L 250 236 L 260 232 L 270 229 L 275 228 L 276 228" stroke="#ffffff" stroke-width="2" stroke-linecap="round" stroke-linejoin="round" fill="none"/><path d="M 255 221 L 255 222 L 253 225 L 252 234 L 254 242 L 257 245 L 258 245" stroke="#ffffff" stroke-width="2" stroke-linecap="round" stroke-linejoin="round" fill="none"/><path d="M 261 220 L 261 219 L 261 217 L 262 222 L 263 232 L 262 244 L 259 255 L 257 261 L 257 262" stroke="#ffffff" stroke-width="2" stroke-linecap="round" stroke-linejoin="round" fill="none"/><path d="M 276 247 L 275 245 L 277 245 L 283 244 L 290 242 L 294 241" stroke="#ffffff" stroke-width="2" stroke-linecap="round" stroke-linejoin="round" fill="none"/><path d="M 304 238 L 304 238 L 306 237 L 308 236 L 312 235 L 313 234" stroke="#ffffff" stroke-width="2" stroke-linecap="round" stroke-linejoin="round" fill="none"/><path d="M 311 230 L 311 230 L 308 228 L 308 229 L 307 232 L 306 237 L 305 244 L 306 250 L 309 252 L 314 252 L 319 249 L 321 246" stroke="#ffffff" stroke-width="2" stroke-linecap="round" stroke-linejoin="round" fill="none"/><path d="M 319 221 L 319 221 L 316 224 L 317 227" stroke="#ffffff" stroke-width="2" stroke-linecap="round" stroke-linejoin="round" fill="none"/><path d="M 330 217 L 330 216 L 330 215 L 330 218 L 330 222 L 331 224" stroke="#ffffff" stroke-width="2" stroke-linecap="round" stroke-linejoin="round" fill="none"/><path d="M 334 233 L 333 231 L 335 231 L 339 230 L 342 229 L 343 229 L 344 232 L 341 238 L 338 243 L 335 247 L 334 248" stroke="#ffffff" stroke-width="2" stroke-linecap="round" stroke-linejoin="round" fill="none"/><path d="M 339 237 L 340 237 L 344 240 L 351 242 L 354 243" stroke="#ffffff" stroke-width="2" stroke-linecap="round" stroke-linejoin="round" fill="none"/><path d="M 366 224 L 365 224 L 362 229 L 361 238 L 362 243 L 365 244 L 371 241 L 376 236 L 378 233" stroke="#ffffff" stroke-width="2" stroke-linecap="round" stroke-linejoin="round" fill="none"/><path d="M 382 230 L 382 229 L 382 226 L 385 224 L 391 221 L 398 218 L 401 217 L 402 216" stroke="#ffffff" stroke-width="2" stroke-linecap="round" stroke-linejoin="round" fill="none"/><path d="M 396 212 L 396 212 L 394 213 L 393 218 L 390 230 L 387 240 L 386 245 L 386 247" stroke="#ffffff" stroke-width="2" stroke-linecap="round" stroke-linejoin="round" fill="none"/><path d="M 398 235 L 398 231 L 400 230 L 404 228 L 407 228 L 407 228" stroke="#ffffff" stroke-width="2" stroke-linecap="round" stroke-linejoin="round" fill="none"/><path d="M 404 239 L 403 240 L 401 241 L 402 241 L 408 238 L 415 234" stroke="#ffffff" stroke-width="2" stroke-linecap="round" stroke-linejoin="round" fill="none"/><path d="M 553 225 L 553 222 L 552 217 L 550 216 L 547 219 L 542 226 L 539 234 L 539 240 L 545 241 L 555 239 L 558 238" stroke="#ffffff" stroke-width="2" stroke-linecap="round" stroke-linejoin="round" fill="none"/><path d="M 590 222 L 590 222 L 590 216 L 590 214 L 589 213 L 587 212 L 583 214 L 579 219 L 577 223 L 577 226 L 580 227 L 585 224 L 589 221 L 591 218 L 592 215 L 592 215 L 591 215 L 589 220 L 585 227 L 580 237 L 577 245 L 576 250 L 577 251" stroke="#ffffff" stroke-width="2" stroke-linecap="round" stroke-linejoin="round" fill="none"/><path d="M 608 219 L 605 221 L 602 227 L 600 235 L 601 240 L 604 240 L 608 238 L 612 234 L 615 228 L 617 221 L 617 216 L 613 215 L 609 217 L 606 221" stroke="#ffffff" stroke-width="2" stroke-linecap="round" stroke-linejoin="round" fill="none"/><path d="M 535 261 L 535 261 L 534 260 L 532 262 L 529 269 L 527 281 L 526 291 L 531 297" stroke="#ffffff" stroke-width="2" stroke-linecap="round" stroke-linejoin="round" fill="none"/><path d="M 565 272 L 565 271 L 562 268 L 559 268 L 556 269 L 554 271 L 551 276 L 549 282 L 549 286 L 553 287 L 560 285 L 568 282" stroke="#ffffff" stroke-width="2" stroke-linecap="round" stroke-linejoin="round" fill="none"/><path d="M 581 275 L 580 273 L 580 272 L 579 272 L 578 272 L 576 273 L 573 276 L 571 280 L 570 283 L 573 284 L 576 283 L 579 280 L 581 277 L 582 274 L 582 274 L 581 274 L 581 276 L 581 279 L 580 283 L 580 284" stroke="#ffffff" stroke-width="2" stroke-linecap="round" stroke-linejoin="round" fill="none"/><path d="M 600 274 L 595 270 L 592 270 L 591 271 L 591 273 L 592 275 L 594 278 L 595 281 L 597 284 L 598 286 L 598 287 L 596 287 L 593 286 L 591 283 L 590 280" stroke="#ffffff" stroke-width="2" stroke-linecap="round" stroke-linejoin="round" fill="none"/><path d="M 607 261 L 608 261 L 607 264 L 606 271 L 604 278 L 603 282 L 603 282 L 604 280 L 606 277 L 608 274 L 609 273 L 610 274 L 611 278 L 613 280 L 618 281 L 624 279 L 627 278" stroke="#ffffff" stroke-width="2" stroke-linecap="round" stroke-linejoin="round" fill="none"/><path d="M 635 250 L 635 250 L 637 251 L 639 257 L 641 267 L 642 277 L 638 285 L 631 291 L 625 295 L 624 295" stroke="#ffffff" stroke-width="2" stroke-linecap="round" stroke-linejoin="round" fill="none"/><path d="M 52 314 L 51 313 L 51 308 L 53 307 L 55 306 L 58 307 L 60 309 L 61 314 L 60 318 L 58 323 L 54 326 L 51 327 L 50 327 L 50 327 L 51 326 L 55 326 L 60 326 L 65 325 L 70 325 L 76 324 L 78 323" stroke="#ffffff" stroke-width="2" stroke-linecap="round" stroke-linejoin="round" fill="none"/><path d="M 96 294 L 96 294 L 95 293 L 94 298 L 91 311 L 86 329 L 81 343 L 78 350 L 76 355 L 76 356" stroke="#ffffff" stroke-width="2" stroke-linecap="round" stroke-linejoin="round" fill="none"/><path d="M 106 326 L 106 324 L 106 323 L 108 322 L 111 322 L 112 325 L 112 328 L 111 331 L 109 334 L 107 335 L 106 335 L 105 335 L 107 334 L 111 333 L 117 331 L 124 328 L 125 327" stroke="#ffffff" stroke-width="2" stroke-linecap="round" stroke-linejoin="round" fill="none"/><path d="M 131 321 L 131 321 L 129 321 L 131 321 L 133 321 L 135 322 L 136 323 L 137 324 L 135 326 L 132 327 L 130 329 L 129 330 L 130 331 L 135 332 L 141 331 L 149 330 L 154 329" stroke="#ffffff" stroke-width="2" stroke-linecap="round" stroke-linejoin="round" fill="none"/><path d="M 164 314 L 164 313 L 166 309 L 172 305 L 178 302 L 182 301 L 183 300" stroke="#ffffff" stroke-width="2" stroke-linecap="round" stroke-linejoin="round" fill="none"/><path d="M 173 297 L 173 299 L 173 307 L 175 318 L 176 325 L 177 327" stroke="#ffffff" stroke-width="2" stroke-linecap="round" stroke-linejoin="round" fill="none"/><path d="M 181 307 L 180 309 L 179 313 L 178 320 L 176 326 L 173 330 L 171 331 L 170 331 L 169 328 L 168 324 L 170 320 L 174 316 L 180 314 L 186 315 L 189 320 L 189 325 L 187 329 L 186 330" stroke="#ffffff" stroke-width="2" stroke-linecap="round" stroke-linejoin="round" fill="none"/><path d="M 201 310 L 201 308 L 205 305 L 211 301 L 215 299 L 217 298 L 216 298" stroke="#ffffff" stroke-width="2" stroke-linecap="round" stroke-linejoin="round" fill="none"/><path d="M 209 297 L 210 297 L 210 298 L 210 302 L 208 311 L 207 320 L 207 327 L 207 328" stroke="#ffffff" stroke-width="2" stroke-linecap="round" stroke-linejoin="round" fill="none"/><path d="M 215 315 L 215 314 L 216 311 L 219 309 L 221 308" stroke="#ffffff" stroke-width="2" stroke-linecap="round" stroke-linejoin="round" fill="none"/><path d="M 218 323 L 218 324 L 218 324 L 221 321 L 226 315 L 229 310" stroke="#ffffff" stroke-width="2" stroke-linecap="round" stroke-linejoin="round" fill="none"/><path d="M 240 295 L 239 295 L 238 296 L 237 302 L 237 305 L 237 306" stroke="#ffffff" stroke-width="2" stroke-linecap="round" stroke-linejoin="round" fill="none"/><path d="M 247 292 L 248 294 L 248 301 L 248 311 L 245 319 L 241 325 L 237 327 L 236 327" stroke="#ffffff" stroke-width="2" stroke-linecap="round" stroke-linejoin="round" fill="none"/><path d="M 274 293 L 274 292 L 273 292 L 272 296 L 271 302 L 271 309" stroke="#ffffff" stroke-width="2" stroke-linecap="round" stroke-linejoin="round" fill="none"/><path d="M 274 318 L 274 318 L 273 318 L 273 319 L 273 322 L 274 324 L 274 325" stroke="#ffffff" stroke-width="2" stroke-linecap="round" stroke-linejoin="round" fill="none"/><path d="M 286 295 L 287 293 L 290 288 L 292 288 L 294 291 L 295 295 L 295 298 L 294 302 L 293 303" stroke="#ffffff" stroke-width="2" stroke-linecap="round" stroke-linejoin="round" fill="none"/><path d="M 293 311 L 292 311 L 290 314 L 290 316 L 292 318 L 295 319 L 297 318 L 298 316 L 298 314 L 297 313 L 295 313 L 292 316" stroke="#ffffff" stroke-width="2" stroke-linecap="round" stroke-linejoin="round" fill="none"/><path d="M 321 297 L 322 297 L 322 297 L 325 295 L 332 292 L 341 288 L 344 288" stroke="#ffffff" stroke-width="2" stroke-linecap="round" stroke-linejoin="round" fill="none"/><path d="M 322 309 L 322 310 L 323 308 L 328 305 L 331 302 L 333 301 L 333 302 L 331 305 L 329 310 L 327 314 L 326 316" stroke="#ffffff" stroke-width="2" stroke-linecap="round" stroke-linejoin="round" fill="none"/><path d="M 324 318 L 324 318 L 322 316 L 326 313 L 330 309 L 334 305" stroke="#ffffff" stroke-width="2" stroke-linecap="round" stroke-linejoin="round" fill="none"/><path d="M 336 281 L 335 281 L 335 282 L 336 290 L 338 302 L 341 312 L 344 317 L 346 319 L 346 318 L 347 316 L 348 312 L 348 307" stroke="#ffffff" stroke-width="2" stroke-linecap="round" stroke-linejoin="round" fill="none"/><path d="M 344 272 L 342 270 L 342 275 L 343 283" stroke="#ffffff" stroke-width="2" stroke-linecap="round" stroke-linejoin="round" fill="none"/></svg>
