<svg xmlns="http://www.w3.org/2000/svg" width="638" height="235" viewBox="0 0 638 235"><path d="M 17 31 L 17 30 L 18 28 L 19 25 L 20 23 L 20 21 L 19 20 L 18 18 L 16 18 L 14 18 L 12 21 L 10 26 L 10 31 L 11 34 L 13 35 L 16 32 L 19 28 L 20 25 L 20 23 L 19 23 L 18 23 L 18 24 L 17 27 L 16 33 L 16 42 L 16 50 L 16 54 L 17 56" stroke="#ffffff" stroke-width="2" stroke-linecap="round" stroke-linejoin="round" fill="none"/><path d="M 54 10 L 52 10 L 50 12 L 46 21 L 41 36 L 34 52 L 28 65 L 24 74 L 24 78" stroke="#ffffff" stroke-width="2" stroke-linecap="round" stroke-linejoin="round" fill="none"/><path d="M 62 43 L 61 43 L 60 42 L 60 41 L 59 44 L 59 54 L 57 68 L 56 78 L 56 81" stroke="#ffffff" stroke-width="2" stroke-linecap="round" stroke-linejoin="round" fill="none"/><path d="M 125 22 L 124 22 L 125 21 L 128 20 L 132 20 L 135 23 L 135 28 L 134 33 L 130 37 L 125 39 L 122 40 L 121 40 L 120 40 L 121 41 L 124 42 L 128 43 L 133 43 L 140 42 L 150 41" stroke="#ffffff" stroke-width="2" stroke-linecap="round" stroke-linejoin="round" fill="none"/><path d="M 160 21 L 158 22 L 157 22 L 155 24 L 153 29 L 153 36 L 155 41 L 158 42 L 160 39 L 162 34 L 163 29 L 163 24 L 161 21 L 158 21 L 155 24 L 153 28 L 153 31" stroke="#ffffff" stroke-width="2" stroke-linecap="round" stroke-linejoin="round" fill="none"/><path d="M 181 23 L 179 21 L 179 20 L 182 20 L 185 21 L 186 24 L 186 28 L 183 32 L 179 35 L 176 36 L 174 37 L 173 37 L 175 37 L 178 38 L 183 38 L 189 37 L 195 36" stroke="#ffffff" stroke-width="2" stroke-linecap="round" stroke-linejoin="round" fill="none"/><path d="M 214 11 L 211 10 L 210 10 L 208 13 L 206 19 L 203 30 L 202 38 L 203 42 L 206 43 L 210 40 L 212 37 L 214 33 L 214 29 L 213 27 L 210 27 L 205 29 L 202 33 L 200 35" stroke="#ffffff" stroke-width="2" stroke-linecap="round" stroke-linejoin="round" fill="none"/><path d="M 161 74 L 161 73 L 159 72 L 157 72 L 155 71 L 153 72 L 152 76 L 151 82 L 152 88 L 155 91 L 161 90 L 165 87" stroke="#ffffff" stroke-width="2" stroke-linecap="round" stroke-linejoin="round" fill="none"/><path d="M 195 60 L 193 58 L 192 58 L 191 59 L 189 63 L 187 72 L 185 83 L 185 91 L 187 93 L 191 92 L 194 88 L 197 82 L 198 77 L 198 74 L 195 73 L 191 75 L 187 79 L 184 83 L 184 85" stroke="#ffffff" stroke-width="2" stroke-linecap="round" stroke-linejoin="round" fill="none"/><path d="M 218 68 L 217 68 L 214 68 L 212 69 L 210 72 L 209 76 L 210 80 L 213 81 L 217 79 L 220 75 L 222 70 L 222 66 L 218 65 L 214 67 L 209 73 L 208 78" stroke="#ffffff" stroke-width="2" stroke-linecap="round" stroke-linejoin="round" fill="none"/><path d="M 261 53 L 260 52 L 259 51 L 258 52 L 255 57 L 250 71 L 243 86 L 240 93 L 240 97 L 240 98" stroke="#ffffff" stroke-width="2" stroke-linecap="round" stroke-linejoin="round" fill="none"/><path d="M 286 57 L 284 57 L 283 58 L 282 63 L 281 72 L 281 80 L 282 85 L 282 87" stroke="#ffffff" stroke-width="2" stroke-linecap="round" stroke-linejoin="round" fill="none"/><path d="M 282 81 L 281 81 L 280 79 L 280 78 L 283 74 L 288 70 L 293 67 L 296 65" stroke="#ffffff" stroke-width="2" stroke-linecap="round" stroke-linejoin="round" fill="none"/><path d="M 297 53 L 297 52 L 296 51 L 295 53 L 295 60 L 293 71 L 292 80 L 292 86" stroke="#ffffff" stroke-width="2" stroke-linecap="round" stroke-linejoin="round" fill="none"/><path d="M 322 56 L 321 55 L 318 53 L 315 53 L 313 54 L 311 56 L 310 60 L 310 63 L 312 66 L 315 68 L 318 69 L 318 71 L 318 74 L 314 76 L 311 77 L 308 77 L 308 76" stroke="#ffffff" stroke-width="2" stroke-linecap="round" stroke-linejoin="round" fill="none"/><path d="M 338 57 L 335 57 L 333 57 L 333 62 L 332 71 L 332 81 L 332 90 L 332 94 L 332 96" stroke="#ffffff" stroke-width="2" stroke-linecap="round" stroke-linejoin="round" fill="none"/><path d="M 331 68 L 332 64 L 334 57 L 339 53 L 342 52 L 344 55 L 343 61 L 340 67 L 336 72 L 333 76 L 330 77" stroke="#ffffff" stroke-width="2" stroke-linecap="round" stroke-linejoin="round" fill="none"/><path d="M 367 58 L 366 58 L 364 58 L 363 59 L 362 63 L 363 66 L 367 68 L 371 70 L 374 71 L 374 72 L 372 74 L 368 76 L 363 77 L 360 77 L 358 75" stroke="#ffffff" stroke-width="2" stroke-linecap="round" stroke-linejoin="round" fill="none"/><path d="M 365 61 L 364 59 L 364 57 L 366 56 L 372 55 L 380 53 L 384 53" stroke="#ffffff" stroke-width="2" stroke-linecap="round" stroke-linejoin="round" fill="none"/><path d="M 397 51 L 393 50 L 391 50 L 391 51 L 390 54 L 390 58 L 391 62 L 394 66 L 396 68 L 399 70 L 401 71 L 401 72 L 398 74 L 395 75 L 391 75 L 389 74" stroke="#ffffff" stroke-width="2" stroke-linecap="round" stroke-linejoin="round" fill="none"/><path d="M 392 55 L 392 54 L 392 52 L 394 51 L 400 51 L 408 51 L 416 51" stroke="#ffffff" stroke-width="2" stroke-linecap="round" stroke-linejoin="round" fill="none"/><path d="M 17 132 L 16 131 L 15 128 L 14 127 L 14 128 L 14 135 L 14 144 L 17 151 L 20 154 L 21 154" stroke="#ffffff" stroke-width="2" stroke-linecap="round" stroke-linejoin="round" fill="none"/><path d="M 25 128 L 25 127 L 25 124 L 26 123 L 27 128 L 28 136 L 28 145 L 28 147" stroke="#ffffff" stroke-width="2" stroke-linecap="round" stroke-linejoin="round" fill="none"/><path d="M 45 136 L 44 136 L 42 135 L 43 133 L 46 132 L 50 131 L 53 133 L 54 137 L 52 143 L 49 147 L 48 148" stroke="#ffffff" stroke-width="2" stroke-linecap="round" stroke-linejoin="round" fill="none"/><path d="M 67 135 L 66 135 L 64 134 L 65 132 L 69 129 L 73 126 L 76 125" stroke="#ffffff" stroke-width="2" stroke-linecap="round" stroke-linejoin="round" fill="none"/><path d="M 66 143 L 65 144 L 64 144 L 64 143 L 67 140 L 72 137 L 77 133" stroke="#ffffff" stroke-width="2" stroke-linecap="round" stroke-linejoin="round" fill="none"/><path d="M 72 120 L 71 119 L 70 118 L 70 119 L 71 125 L 72 134 L 72 144 L 74 149 L 76 150 L 79 148" stroke="#ffffff" stroke-width="2" stroke-linecap="round" stroke-linejoin="round" fill="none"/><path d="M 92 126 L 91 126 L 89 126 L 90 127 L 92 130" stroke="#ffffff" stroke-width="2" stroke-linecap="round" stroke-linejoin="round" fill="none"/><path d="M 101 128 L 100 128 L 98 128 L 97 127 L 95 128 L 94 131 L 92 136 L 92 141 L 93 145 L 96 146 L 100 145" stroke="#ffffff" stroke-width="2" stroke-linecap="round" stroke-linejoin="round" fill="none"/><path d="M 103 115 L 100 116 L 99 118 L 99 121 L 100 122" stroke="#ffffff" stroke-width="2" stroke-linecap="round" stroke-linejoin="round" fill="none"/><path d="M 108 112 L 107 112 L 107 113 L 107 115" stroke="#ffffff" stroke-width="2" stroke-linecap="round" stroke-linejoin="round" fill="none"/><path d="M 118 125 L 117 124 L 116 122 L 118 121 L 121 120 L 123 119" stroke="#ffffff" stroke-width="2" stroke-linecap="round" stroke-linejoin="round" fill="none"/><path d="M 117 137 L 115 136 L 114 135 L 117 133 L 122 132 L 125 133 L 125 137 L 123 143 L 120 147 L 117 150 L 116 150" stroke="#ffffff" stroke-width="2" stroke-linecap="round" stroke-linejoin="round" fill="none"/><path d="M 138 121 L 136 121 L 135 124 L 135 128 L 136 131 L 137 131" stroke="#ffffff" stroke-width="2" stroke-linecap="round" stroke-linejoin="round" fill="none"/><path d="M 145 117 L 146 119 L 146 128 L 143 141 L 138 152 L 133 158 L 131 159" stroke="#ffffff" stroke-width="2" stroke-linecap="round" stroke-linejoin="round" fill="none"/><path d="M 228 133 L 228 132 L 228 129 L 231 127 L 235 126 L 238 128 L 239 133 L 237 138 L 234 142 L 231 144 L 230 143 L 231 141 L 233 138 L 237 137 L 240 139 L 241 146 L 239 152 L 236 157 L 232 159 L 230 158 L 230 155" stroke="#ffffff" stroke-width="2" stroke-linecap="round" stroke-linejoin="round" fill="none"/><path d="M 262 128 L 259 126 L 258 125 L 257 127 L 257 135 L 256 146 L 256 156 L 256 161" stroke="#ffffff" stroke-width="2" stroke-linecap="round" stroke-linejoin="round" fill="none"/><path d="M 259 131 L 257 127 L 257 124 L 258 122 L 262 121 L 266 123 L 269 128 L 269 136 L 269 144 L 269 150 L 269 152" stroke="#ffffff" stroke-width="2" stroke-linecap="round" stroke-linejoin="round" fill="none"/><path d="M 260 137 L 258 136 L 258 134 L 258 133 L 262 132 L 263 132" stroke="#ffffff" stroke-width="2" stroke-linecap="round" stroke-linejoin="round" fill="none"/><path d="M 261 144 L 260 144 L 258 144 L 262 140 L 264 138" stroke="#ffffff" stroke-width="2" stroke-linecap="round" stroke-linejoin="round" fill="none"/><path d="M 292 128 L 292 126 L 291 121 L 293 115 L 295 111 L 292 114 L 288 119 L 283 128 L 281 136 L 281 140 L 285 139 L 289 135 L 292 130 L 294 126 L 294 123 L 293 123 L 292 126 L 291 133 L 290 142 L 289 150 L 289 155 L 290 155" stroke="#ffffff" stroke-width="2" stroke-linecap="round" stroke-linejoin="round" fill="none"/><path d="M 310 125 L 309 124 L 308 123 L 308 125 L 308 130 L 308 136 L 308 141 L 308 142" stroke="#ffffff" stroke-width="2" stroke-linecap="round" stroke-linejoin="round" fill="none"/><path d="M 307 127 L 307 125 L 306 123 L 306 121 L 309 119 L 312 118 L 314 118 L 316 118 L 317 121 L 318 125 L 318 130 L 318 135 L 318 138" stroke="#ffffff" stroke-width="2" stroke-linecap="round" stroke-linejoin="round" fill="none"/><path d="M 309 135 L 307 135 L 307 133 L 309 131 L 312 130" stroke="#ffffff" stroke-width="2" stroke-linecap="round" stroke-linejoin="round" fill="none"/><path d="M 311 141 L 309 142 L 308 144 L 309 144 L 312 142 L 315 140" stroke="#ffffff" stroke-width="2" stroke-linecap="round" stroke-linejoin="round" fill="none"/><path d="M 337 139 L 336 138 L 336 135 L 340 130 L 345 127 L 350 126 L 352 129 L 353 132 L 355 133 L 360 131 L 362 129" stroke="#ffffff" stroke-width="2" stroke-linecap="round" stroke-linejoin="round" fill="none"/><path d="M 378 119 L 376 119 L 375 120 L 375 125 L 375 133 L 375 139 L 375 142" stroke="#ffffff" stroke-width="2" stroke-linecap="round" stroke-linejoin="round" fill="none"/><path d="M 376 124 L 374 119 L 374 116 L 377 112 L 382 109 L 386 108 L 388 110 L 388 114 L 388 118 L 387 123 L 387 128 L 387 133" stroke="#ffffff" stroke-width="2" stroke-linecap="round" stroke-linejoin="round" fill="none"/><path d="M 378 133 L 376 131 L 375 129 L 376 128 L 380 127 L 382 127" stroke="#ffffff" stroke-width="2" stroke-linecap="round" stroke-linejoin="round" fill="none"/><path d="M 379 144 L 377 144 L 377 142 L 382 138 L 386 135" stroke="#ffffff" stroke-width="2" stroke-linecap="round" stroke-linejoin="round" fill="none"/><path d="M 404 123 L 404 124 L 401 123 L 402 121 L 407 117 L 414 112 L 419 109 L 420 107" stroke="#ffffff" stroke-width="2" stroke-linecap="round" stroke-linejoin="round" fill="none"/><path d="M 415 104 L 414 104 L 412 103 L 412 104 L 413 110 L 415 122 L 416 133 L 417 140 L 417 143" stroke="#ffffff" stroke-width="2" stroke-linecap="round" stroke-linejoin="round" fill="none"/><path d="M 417 119 L 415 118 L 412 118 L 411 120 L 409 126 L 406 132 L 403 137 L 402 139" stroke="#ffffff" stroke-width="2" stroke-linecap="round" stroke-linejoin="round" fill="none"/><path d="M 415 119 L 417 118 L 419 118 L 423 117 L 427 117" stroke="#ffffff" stroke-width="2" stroke-linecap="round" stroke-linejoin="round" fill="none"/><path d="M 411 140 L 409 141 L 408 141 L 410 139 L 416 135 L 419 133" stroke="#ffffff" stroke-width="2" stroke-linecap="round" stroke-linejoin="round" fill="none"/><path d="M 437 136 L 437 134 L 440 128 L 445 119 L 451 111 L 455 108 L 458 108 L 460 109 L 461 112 L 459 117 L 456 122 L 453 124" stroke="#ffffff" stroke-width="2" stroke-linecap="round" stroke-linejoin="round" fill="none"/><path d="M 442 110 L 441 110 L 440 113 L 442 120 L 446 129 L 451 134 L 454 136" stroke="#ffffff" stroke-width="2" stroke-linecap="round" stroke-linejoin="round" fill="none"/><path d="M 456 99 L 454 96 L 453 96 L 454 101 L 455 111 L 456 113" stroke="#ffffff" stroke-width="2" stroke-linecap="round" stroke-linejoin="round" fill="none"/><path d="M 417 136 L 417 137 L 416 137 L 417 136 L 420 134" stroke="#ffffff" stroke-width="2" stroke-linecap="round" stroke-linejoin="round" fill="none"/><path d="M 466 128 L 466 127 L 466 124 L 469 120 L 474 117 L 478 116 L 479 117 L 479 121 L 477 124 L 475 126 L 474 126 L 473 125 L 473 120 L 473 114 L 474 108 L 474 106 L 474 107 L 473 112 L 471 120 L 469 127 L 467 132 L 467 134" stroke="#ffffff" stroke-width="2" stroke-linecap="round" stroke-linejoin="round" fill="none"/><path d="M 483 105 L 484 104 L 484 103 L 486 104 L 488 108 L 491 112" stroke="#ffffff" stroke-width="2" stroke-linecap="round" stroke-linejoin="round" fill="none"/><path d="M 504 101 L 502 101 L 501 102 L 501 105 L 501 106" stroke="#ffffff" stroke-width="2" stroke-linecap="round" stroke-linejoin="round" fill="none"/><path d="M 499 110 L 498 111 L 496 112 L 493 116 L 492 121 L 493 123 L 496 122 L 500 119 L 504 117 L 507 117 L 508 118 L 507 123 L 503 130 L 498 135 L 493 137 L 491 137" stroke="#ffffff" stroke-width="2" stroke-linecap="round" stroke-linejoin="round" fill="none"/><path d="M 542 107 L 542 103 L 542 102 L 540 105 L 535 112 L 529 120 L 528 124 L 528 125" stroke="#ffffff" stroke-width="2" stroke-linecap="round" stroke-linejoin="round" fill="none"/><path d="M 551 107 L 550 106 L 548 107 L 543 111 L 537 118 L 532 125 L 531 128" stroke="#ffffff" stroke-width="2" stroke-linecap="round" stroke-linejoin="round" fill="none"/><path d="M 539 123 L 539 124 L 538 125 L 538 127 L 538 132 L 540 137 L 541 138" stroke="#ffffff" stroke-width="2" stroke-linecap="round" stroke-linejoin="round" fill="none"/><path d="M 555 101 L 555 99 L 554 96 L 556 95 L 559 95 L 565 95 L 570 95 L 571 95" stroke="#ffffff" stroke-width="2" stroke-linecap="round" stroke-linejoin="round" fill="none"/><path d="M 548 120 L 548 118 L 551 115 L 558 110 L 566 107 L 570 104 L 568 104 L 566 105 L 564 107 L 562 111 L 561 117 L 561 124 L 560 133 L 560 139 L 560 141" stroke="#ffffff" stroke-width="2" stroke-linecap="round" stroke-linejoin="round" fill="none"/><path d="M 587 111 L 585 111 L 582 110 L 581 110 L 580 111 L 579 113 L 577 116 L 577 119 L 577 120 L 580 121 L 585 121 L 589 120" stroke="#ffffff" stroke-width="2" stroke-linecap="round" stroke-linejoin="round" fill="none"/><path d="M 609 94 L 607 91 L 607 94 L 606 100 L 606 104" stroke="#ffffff" stroke-width="2" stroke-linecap="round" stroke-linejoin="round" fill="none"/><path d="M 620 92 L 619 91 L 618 91 L 615 92 L 612 96 L 610 98" stroke="#ffffff" stroke-width="2" stroke-linecap="round" stroke-linejoin="round" fill="none"/><path d="M 595 110 L 595 109 L 596 107 L 602 104 L 612 100 L 621 98 L 626 98 L 628 98" stroke="#ffffff" stroke-width="2" stroke-linecap="round" stroke-linejoin="round" fill="none"/><path d="M 606 108 L 605 108 L 604 109 L 603 114 L 602 123 L 601 130 L 601 133" stroke="#ffffff" stroke-width="2" stroke-linecap="round" stroke-linejoin="round" fill="none"/><path d="M 603 115 L 603 114 L 603 110 L 604 108 L 605 108 L 607 111 L 607 118 L 607 125 L 607 131 L 606 133" stroke="#ffffff" stroke-width="2" stroke-linecap="round" stroke-linejoin="round" fill="none"/><path d="M 602 121 L 601 118 L 601 117 L 602 116 L 604 116" stroke="#ffffff" stroke-width="2" stroke-linecap="round" stroke-linejoin="round" fill="none"/><path d="M 604 122 L 603 122 L 602 123 L 602 122 L 605 120" stroke="#ffffff" stroke-width="2" stroke-linecap="round" stroke-linejoin="round" fill="none"/><path d="M 614 110 L 612 110 L 611 112 L 611 114 L 611 116" stroke="#ffffff" stroke-width="2" stroke-linecap="round" stroke-linejoin="round" fill="none"/><path d="M 618 110 L 618 109 L 618 108 L 619 110 L 619 118 L 614 130 L 607 142 L 601 149 L 600 151" stroke="#ffffff" stroke-width="2" stroke-linecap="round" stroke-linejoin="round" fill="none"/><path d="M 535 122 L 534 122 L 534 123 L 534 124" stroke="#ffffff" stroke-width="2" stroke-linecap="round" stroke-linejoin="round" fill="none"/><path d="M 25 195 L 22 194 L 20 195 L 19 203 L 20 213 L 22 221 L 25 225 L 27 225" stroke="#ffffff" stroke-width="2" stroke-linecap="round" stroke-linejoin="round" fill="none"/><path d="M 35 206 L 34 204 L 34 202 L 37 200 L 40 199 L 41 198" stroke="#ffffff" stroke-width="2" stroke-linecap="round" stroke-linejoin="round" fill="none"/><path d="M 38 212 L 37 214 L 36 214 L 37 214 L 41 213 L 43 211" stroke="#ffffff" stroke-width="2" stroke-linecap="round" stroke-linejoin="round" fill="none"/><path d="M 70 199 L 69 199 L 68 198 L 68 196 L 71 192 L 78 187 L 83 184" stroke="#ffffff" stroke-width="2" stroke-linecap="round" stroke-linejoin="round" fill="none"/><path d="M 79 182 L 78 182 L 76 182 L 75 183 L 75 186 L 75 196 L 74 208 L 73 218 L 73 223" stroke="#ffffff" stroke-width="2" stroke-linecap="round" stroke-linejoin="round" fill="none"/><path d="M 85 204 L 83 202 L 83 200 L 84 199 L 88 197" stroke="#ffffff" stroke-width="2" stroke-linecap="round" stroke-linejoin="round" fill="none"/><path d="M 86 210 L 85 211 L 84 211 L 86 210 L 90 206 L 95 201" stroke="#ffffff" stroke-width="2" stroke-linecap="round" stroke-linejoin="round" fill="none"/><path d="M 93 179 L 90 180 L 88 182 L 88 184 L 90 185" stroke="#ffffff" stroke-width="2" stroke-linecap="round" stroke-linejoin="round" fill="none"/><path d="M 97 174 L 96 173 L 96 176 L 96 179" stroke="#ffffff" stroke-width="2" stroke-linecap="round" stroke-linejoin="round" fill="none"/><path d="M 113 183 L 111 182 L 109 181 L 109 182 L 111 188 L 112 196 L 113 204 L 114 209" stroke="#ffffff" stroke-width="2" stroke-linecap="round" stroke-linejoin="round" fill="none"/><path d="M 108 197 L 105 195 L 104 193 L 105 191 L 109 190 L 111 189" stroke="#ffffff" stroke-width="2" stroke-linecap="round" stroke-linejoin="round" fill="none"/><path d="M 108 210 L 106 210 L 106 208 L 108 204 L 113 197 L 118 189 L 121 183 L 122 182 L 121 182 L 121 184 L 121 188 L 122 195 L 123 202" stroke="#ffffff" stroke-width="2" stroke-linecap="round" stroke-linejoin="round" fill="none"/><path d="M 135 200 L 133 198 L 134 196 L 137 192 L 143 189 L 147 188 L 149 190 L 149 193 L 148 197 L 147 199 L 145 199 L 144 199 L 143 195 L 142 189 L 142 183 L 142 181 L 141 186 L 140 194 L 139 202 L 138 207 L 138 209" stroke="#ffffff" stroke-width="2" stroke-linecap="round" stroke-linejoin="round" fill="none"/><path d="M 149 180 L 148 179 L 149 179 L 153 182 L 159 186 L 162 188" stroke="#ffffff" stroke-width="2" stroke-linecap="round" stroke-linejoin="round" fill="none"/><path d="M 170 191 L 169 189 L 168 189 L 167 191 L 166 199 L 166 206 L 168 211 L 170 211" stroke="#ffffff" stroke-width="2" stroke-linecap="round" stroke-linejoin="round" fill="none"/><path d="M 181 193 L 180 189 L 180 187 L 182 186 L 184 186 L 186 186" stroke="#ffffff" stroke-width="2" stroke-linecap="round" stroke-linejoin="round" fill="none"/><path d="M 183 201 L 182 201 L 179 203 L 179 204 L 183 202 L 189 198" stroke="#ffffff" stroke-width="2" stroke-linecap="round" stroke-linejoin="round" fill="none"/><path d="M 208 201 L 207 201 L 206 201 L 206 200 L 210 197 L 215 192 L 219 188" stroke="#ffffff" stroke-width="2" stroke-linecap="round" stroke-linejoin="round" fill="none"/><path d="M 214 183 L 212 182 L 211 182 L 211 186 L 211 195 L 212 203 L 214 205 L 218 203 L 222 198" stroke="#ffffff" stroke-width="2" stroke-linecap="round" stroke-linejoin="round" fill="none"/><path d="M 227 193 L 225 193 L 225 192 L 226 189 L 231 185 L 236 182 L 240 182 L 241 183 L 241 187 L 239 191 L 238 194 L 237 195 L 235 194 L 234 191 L 234 186 L 234 183 L 234 181 L 234 183 L 233 191 L 231 201 L 228 211 L 226 216" stroke="#ffffff" stroke-width="2" stroke-linecap="round" stroke-linejoin="round" fill="none"/><path d="M 258 202 L 257 201 L 256 199 L 258 196 L 263 194 L 267 195 L 268 199 L 265 205 L 261 210" stroke="#ffffff" stroke-width="2" stroke-linecap="round" stroke-linejoin="round" fill="none"/><path d="M 267 189 L 267 188 L 267 185 L 267 182 L 272 179 L 280 176 L 284 174 L 285 174 L 285 175 L 283 177 L 281 181 L 279 188 L 278 196 L 279 204 L 284 208 L 287 208" stroke="#ffffff" stroke-width="2" stroke-linecap="round" stroke-linejoin="round" fill="none"/><path d="M 306 185 L 304 184 L 305 182 L 309 178 L 313 176 L 315 175" stroke="#ffffff" stroke-width="2" stroke-linecap="round" stroke-linejoin="round" fill="none"/><path d="M 307 193 L 305 193 L 305 192 L 307 190 L 311 186 L 312 185" stroke="#ffffff" stroke-width="2" stroke-linecap="round" stroke-linejoin="round" fill="none"/><path d="M 313 170 L 312 169 L 311 168 L 311 169 L 312 176 L 313 186 L 315 196 L 317 201 L 318 202 L 320 200 L 323 198" stroke="#ffffff" stroke-width="2" stroke-linecap="round" stroke-linejoin="round" fill="none"/><path d="M 344 165 L 340 165 L 340 166 L 341 170 L 342 171" stroke="#ffffff" stroke-width="2" stroke-linecap="round" stroke-linejoin="round" fill="none"/><path d="M 339 175 L 337 176 L 334 178 L 332 183 L 331 188 L 332 190 L 333 190 L 335 188 L 338 186 L 342 184 L 347 182 L 350 183 L 350 187 L 346 193 L 341 199 L 336 202 L 332 202" stroke="#ffffff" stroke-width="2" stroke-linecap="round" stroke-linejoin="round" fill="none"/><path d="M 314 187 L 314 186 L 315 184 L 319 180 L 320 180" stroke="#ffffff" stroke-width="2" stroke-linecap="round" stroke-linejoin="round" fill="none"/><path d="M 359 181 L 359 180 L 361 177 L 364 173 L 369 168 L 373 166 L 374 166" stroke="#ffffff" stroke-width="2" stroke-linecap="round" stroke-linejoin="round" fill="none"/><path d="M 367 166 L 366 165 L 367 170 L 368 179 L 368 189 L 368 195 L 367 198 L 366 198 L 364 196 L 362 194 L 362 189 L 364 185 L 367 180 L 373 177 L 379 176 L 382 181 L 381 188 L 378 194 L 375 197 L 373 198" stroke="#ffffff" stroke-width="2" stroke-linecap="round" stroke-linejoin="round" fill="none"/><path d="M 388 165 L 388 164 L 387 164 L 387 166 L 387 171 L 387 177" stroke="#ffffff" stroke-width="2" stroke-linecap="round" stroke-linejoin="round" fill="none"/><path d="M 403 171 L 400 169 L 401 167 L 405 165 L 408 165 L 410 166" stroke="#ffffff" stroke-width="2" stroke-linecap="round" stroke-linejoin="round" fill="none"/><path d="M 400 185 L 399 185 L 398 184 L 399 180 L 406 176 L 413 174 L 416 176 L 416 181 L 414 187 L 410 194 L 405 200 L 400 204 L 397 205 L 396 205" stroke="#ffffff" stroke-width="2" stroke-linecap="round" stroke-linejoin="round" fill="none"/></svg>
