<svg xmlns="http://www.w3.org/2000/svg" width="694" height="211" viewBox="0 0 694 211"><path d="M 13 28 L 13 27 L 12 26 L 13 23 L 16 22 L 19 22 L 22 24 L 23 27 L 23 30 L 21 34 L 17 39 L 13 42 L 11 44 L 10 44 L 12 44 L 15 43 L 20 43 L 26 42 L 31 40 L 35 39" stroke="#ffffff" stroke-width="2" stroke-linecap="round" stroke-linejoin="round" fill="none"/><path d="M 54 9 L 53 9 L 51 8 L 50 8 L 48 13 L 46 22 L 46 33 L 47 38 L 50 39 L 53 35 L 56 31 L 56 27 L 56 25 L 54 24 L 51 26 L 45 32 L 42 38" stroke="#ffffff" stroke-width="2" stroke-linecap="round" stroke-linejoin="round" fill="none"/><path d="M 89 12 L 87 11 L 86 10 L 83 15 L 77 26 L 69 44 L 61 58 L 56 68 L 55 73 L 55 74" stroke="#ffffff" stroke-width="2" stroke-linecap="round" stroke-linejoin="round" fill="none"/><path d="M 97 39 L 97 38 L 96 37 L 95 37 L 95 40 L 94 48 L 93 55 L 92 61 L 92 62" stroke="#ffffff" stroke-width="2" stroke-linecap="round" stroke-linejoin="round" fill="none"/><path d="M 112 37 L 110 35 L 109 34 L 108 38 L 107 46 L 106 56 L 106 62" stroke="#ffffff" stroke-width="2" stroke-linecap="round" stroke-linejoin="round" fill="none"/><path d="M 179 31 L 178 30 L 176 29 L 175 27 L 173 27 L 170 28 L 166 33 L 163 40 L 162 47 L 163 51 L 167 51 L 174 47 L 180 42" stroke="#ffffff" stroke-width="2" stroke-linecap="round" stroke-linejoin="round" fill="none"/><path d="M 220 20 L 219 20 L 217 19 L 215 19 L 212 22 L 208 30 L 204 42 L 204 48 L 206 50 L 210 49 L 214 46 L 217 41 L 218 38 L 217 36 L 212 36 L 207 40 L 202 46 L 202 48" stroke="#ffffff" stroke-width="2" stroke-linecap="round" stroke-linejoin="round" fill="none"/><path d="M 244 29 L 241 29 L 238 29 L 236 32 L 235 37 L 235 43 L 238 46 L 242 45 L 245 42 L 247 38 L 247 35 L 246 32 L 243 31 L 238 33 L 236 36" stroke="#ffffff" stroke-width="2" stroke-linecap="round" stroke-linejoin="round" fill="none"/><path d="M 78 102 L 78 101 L 76 101 L 74 102 L 72 109 L 70 118 L 72 125 L 76 126 L 79 122 L 82 116 L 84 109 L 84 104 L 82 101 L 79 101 L 76 102 L 73 107 L 72 109" stroke="#ffffff" stroke-width="2" stroke-linecap="round" stroke-linejoin="round" fill="none"/><path d="M 109 101 L 108 100 L 108 99 L 109 97 L 113 95 L 115 95" stroke="#ffffff" stroke-width="2" stroke-linecap="round" stroke-linejoin="round" fill="none"/><path d="M 104 109 L 105 109 L 105 108 L 109 105 L 114 101 L 115 100" stroke="#ffffff" stroke-width="2" stroke-linecap="round" stroke-linejoin="round" fill="none"/><path d="M 115 89 L 113 90 L 112 90 L 111 91 L 111 96 L 111 106 L 111 116 L 110 121 L 108 123 L 107 124 L 106 122 L 105 120 L 106 117 L 109 116 L 114 114" stroke="#ffffff" stroke-width="2" stroke-linecap="round" stroke-linejoin="round" fill="none"/><path d="M 134 105 L 133 104 L 133 102 L 135 100 L 139 99 L 141 99 L 143 99 L 143 100 L 142 100 L 140 102 L 137 105 L 136 109 L 136 113 L 138 116 L 143 116 L 144 116" stroke="#ffffff" stroke-width="2" stroke-linecap="round" stroke-linejoin="round" fill="none"/><path d="M 148 84 L 147 84 L 145 85 L 145 87" stroke="#ffffff" stroke-width="2" stroke-linecap="round" stroke-linejoin="round" fill="none"/><path d="M 156 83 L 154 84 L 153 85 L 153 87" stroke="#ffffff" stroke-width="2" stroke-linecap="round" stroke-linejoin="round" fill="none"/><path d="M 186 97 L 186 96 L 185 96 L 184 99 L 184 106 L 184 113 L 184 115" stroke="#ffffff" stroke-width="2" stroke-linecap="round" stroke-linejoin="round" fill="none"/><path d="M 198 96 L 198 99 L 200 105 L 203 110" stroke="#ffffff" stroke-width="2" stroke-linecap="round" stroke-linejoin="round" fill="none"/><path d="M 233 87 L 233 86 L 233 85 L 231 84 L 228 86 L 225 92 L 220 100 L 215 107 L 213 109" stroke="#ffffff" stroke-width="2" stroke-linecap="round" stroke-linejoin="round" fill="none"/><path d="M 226 96 L 227 96 L 227 97 L 227 102 L 226 111 L 226 121 L 226 124" stroke="#ffffff" stroke-width="2" stroke-linecap="round" stroke-linejoin="round" fill="none"/><path d="M 302 90 L 303 90 L 305 88 L 308 85 L 313 83 L 315 81 L 312 83 L 309 88 L 306 96 L 304 103 L 305 108 L 309 107 L 313 103 L 316 97 L 319 91 L 320 86 L 321 83 L 321 85 L 321 89 L 321 94 L 323 98" stroke="#ffffff" stroke-width="2" stroke-linecap="round" stroke-linejoin="round" fill="none"/><path d="M 336 83 L 335 83 L 332 84 L 331 85 L 330 88 L 333 92 L 336 94" stroke="#ffffff" stroke-width="2" stroke-linecap="round" stroke-linejoin="round" fill="none"/><path d="M 341 85 L 341 83 L 341 81 L 344 78 L 348 77 L 353 76 L 356 75 L 357 73" stroke="#ffffff" stroke-width="2" stroke-linecap="round" stroke-linejoin="round" fill="none"/><path d="M 350 70 L 349 70 L 349 75 L 349 88 L 345 101 L 343 108 L 342 109 L 341 109" stroke="#ffffff" stroke-width="2" stroke-linecap="round" stroke-linejoin="round" fill="none"/><path d="M 360 57 L 359 57 L 357 57 L 356 60 L 356 64" stroke="#ffffff" stroke-width="2" stroke-linecap="round" stroke-linejoin="round" fill="none"/><path d="M 366 57 L 366 56 L 366 55 L 365 55 L 364 60 L 364 66" stroke="#ffffff" stroke-width="2" stroke-linecap="round" stroke-linejoin="round" fill="none"/><path d="M 373 79 L 371 77 L 370 76 L 371 77 L 373 80 L 374 81" stroke="#ffffff" stroke-width="2" stroke-linecap="round" stroke-linejoin="round" fill="none"/><path d="M 384 73 L 382 72 L 380 72 L 377 76 L 374 82 L 371 87 L 369 90 L 368 91 L 368 90 L 369 89 L 373 87 L 377 85 L 382 83 L 384 82 L 385 82 L 383 84 L 382 86 L 379 89 L 377 95 L 376 101 L 377 105 L 380 105" stroke="#ffffff" stroke-width="2" stroke-linecap="round" stroke-linejoin="round" fill="none"/><path d="M 403 80 L 401 80 L 398 80 L 397 82 L 397 85 L 399 89" stroke="#ffffff" stroke-width="2" stroke-linecap="round" stroke-linejoin="round" fill="none"/><path d="M 409 73 L 409 72 L 408 73 L 408 79 L 407 87 L 404 97 L 398 105 L 391 110 L 388 111" stroke="#ffffff" stroke-width="2" stroke-linecap="round" stroke-linejoin="round" fill="none"/><path d="M 426 91 L 425 90 L 426 88 L 431 86 L 436 85 L 439 84 L 437 84 L 434 86 L 432 89 L 430 92 L 430 98 L 432 103 L 438 104 L 441 102" stroke="#ffffff" stroke-width="2" stroke-linecap="round" stroke-linejoin="round" fill="none"/><path d="M 446 67 L 444 68 L 442 70 L 442 74 L 444 75" stroke="#ffffff" stroke-width="2" stroke-linecap="round" stroke-linejoin="round" fill="none"/><path d="M 454 65 L 452 65 L 449 69 L 448 76 L 448 78" stroke="#ffffff" stroke-width="2" stroke-linecap="round" stroke-linejoin="round" fill="none"/><path d="M 466 86 L 466 85 L 466 83 L 472 79 L 482 75 L 487 74 L 488 74" stroke="#ffffff" stroke-width="2" stroke-linecap="round" stroke-linejoin="round" fill="none"/><path d="M 479 78 L 477 78 L 475 78 L 474 79 L 473 83 L 472 89 L 472 94 L 471 97" stroke="#ffffff" stroke-width="2" stroke-linecap="round" stroke-linejoin="round" fill="none"/><path d="M 476 89 L 476 88 L 474 86 L 474 85 L 477 85 L 479 85" stroke="#ffffff" stroke-width="2" stroke-linecap="round" stroke-linejoin="round" fill="none"/><path d="M 469 96 L 467 97 L 469 95 L 474 93 L 475 92" stroke="#ffffff" stroke-width="2" stroke-linecap="round" stroke-linejoin="round" fill="none"/><path d="M 465 109 L 462 110 L 461 110 L 464 107 L 470 103 L 478 96 L 481 92" stroke="#ffffff" stroke-width="2" stroke-linecap="round" stroke-linejoin="round" fill="none"/><path d="M 487 76 L 487 75 L 486 74 L 485 74 L 484 79 L 482 89 L 479 102 L 476 112 L 475 116" stroke="#ffffff" stroke-width="2" stroke-linecap="round" stroke-linejoin="round" fill="none"/><path d="M 501 86 L 500 84 L 501 82 L 507 78 L 513 76 L 515 76" stroke="#ffffff" stroke-width="2" stroke-linecap="round" stroke-linejoin="round" fill="none"/><path d="M 510 75 L 509 74 L 508 75 L 506 82 L 505 89 L 504 94 L 504 95 L 505 93 L 508 92 L 511 92 L 511 96 L 509 101 L 505 105 L 502 106 L 501 105 L 502 103" stroke="#ffffff" stroke-width="2" stroke-linecap="round" stroke-linejoin="round" fill="none"/><path d="M 527 88 L 527 87 L 527 84 L 528 82 L 529 82 L 531 82 L 531 83 L 529 84 L 527 88 L 525 93 L 523 98 L 522 101 L 521 102 L 520 101 L 519 98 L 519 96 L 520 95 L 524 94 L 525 94" stroke="#ffffff" stroke-width="2" stroke-linecap="round" stroke-linejoin="round" fill="none"/><path d="M 539 96 L 538 95 L 538 93 L 540 91 L 544 91 L 545 93 L 544 95 L 541 98 L 539 99" stroke="#ffffff" stroke-width="2" stroke-linecap="round" stroke-linejoin="round" fill="none"/><path d="M 557 80 L 555 79 L 554 80 L 555 83 L 557 86" stroke="#ffffff" stroke-width="2" stroke-linecap="round" stroke-linejoin="round" fill="none"/><path d="M 567 86 L 565 85 L 563 85 L 562 84 L 561 84 L 560 86 L 557 90 L 553 95 L 551 99 L 552 101 L 557 100 L 563 99" stroke="#ffffff" stroke-width="2" stroke-linecap="round" stroke-linejoin="round" fill="none"/><path d="M 578 93 L 577 92 L 575 91 L 576 89 L 583 87 L 592 86 L 595 85" stroke="#ffffff" stroke-width="2" stroke-linecap="round" stroke-linejoin="round" fill="none"/><path d="M 593 78 L 592 77 L 591 77 L 589 80 L 585 89 L 584 96 L 586 99 L 592 99 L 595 98" stroke="#ffffff" stroke-width="2" stroke-linecap="round" stroke-linejoin="round" fill="none"/><path d="M 602 91 L 602 90 L 602 89 L 603 88 L 606 87 L 609 87 L 612 88 L 613 91 L 613 95 L 612 97 L 610 98 L 608 98 L 607 96 L 607 93 L 607 90 L 607 88 L 608 87 L 606 92 L 601 100 L 596 107 L 594 110" stroke="#ffffff" stroke-width="2" stroke-linecap="round" stroke-linejoin="round" fill="none"/><path d="M 617 103 L 616 101 L 616 99 L 619 99 L 622 101 L 623 103 L 622 106 L 619 108 L 618 108" stroke="#ffffff" stroke-width="2" stroke-linecap="round" stroke-linejoin="round" fill="none"/><path d="M 633 90 L 632 89 L 632 87 L 632 86 L 635 84 L 640 84 L 646 83 L 650 83" stroke="#ffffff" stroke-width="2" stroke-linecap="round" stroke-linejoin="round" fill="none"/><path d="M 645 77 L 645 75 L 644 74 L 642 81 L 637 92 L 633 103 L 631 108 L 631 110" stroke="#ffffff" stroke-width="2" stroke-linecap="round" stroke-linejoin="round" fill="none"/><path d="M 645 99 L 645 97 L 644 95 L 646 94 L 649 94 L 650 94" stroke="#ffffff" stroke-width="2" stroke-linecap="round" stroke-linejoin="round" fill="none"/><path d="M 643 104 L 642 105 L 640 106 L 641 106 L 646 105 L 653 102 L 655 101" stroke="#ffffff" stroke-width="2" stroke-linecap="round" stroke-linejoin="round" fill="none"/><path d="M 664 77 L 665 75 L 665 72 L 667 70 L 671 67 L 676 64 L 680 61 L 682 61 L 684 61 L 683 64 L 681 67 L 679 69 L 677 71 L 675 71 L 673 70 L 671 69 L 669 68 L 668 68" stroke="#ffffff" stroke-width="2" stroke-linecap="round" stroke-linejoin="round" fill="none"/><path d="M 664 85 L 663 84 L 663 82 L 666 81 L 670 80 L 674 80 L 679 81 L 682 82 L 684 83 L 684 84 L 683 86 L 681 87 L 679 87 L 677 88 L 675 88 L 674 88 L 671 87 L 669 86 L 665 85 L 662 84 L 659 83 L 658 83 L 659 83 L 660 83" stroke="#ffffff" stroke-width="2" stroke-linecap="round" stroke-linejoin="round" fill="none"/><path d="M 39 162 L 39 160 L 39 159 L 39 162 L 39 170 L 39 179 L 39 187 L 39 191" stroke="#ffffff" stroke-width="2" stroke-linecap="round" stroke-linejoin="round" fill="none"/><path d="M 28 168 L 26 164 L 25 164 L 25 166 L 27 171 L 31 174 L 36 175 L 41 172 L 46 167 L 47 162 L 47 160 L 47 163 L 48 167 L 48 171" stroke="#ffffff" stroke-width="2" stroke-linecap="round" stroke-linejoin="round" fill="none"/><path d="M 26 188 L 24 189 L 25 190 L 28 192 L 34 192 L 39 188 L 44 183 L 45 180 L 45 179 L 46 180 L 47 183 L 49 185 L 51 185" stroke="#ffffff" stroke-width="2" stroke-linecap="round" stroke-linejoin="round" fill="none"/><path d="M 65 167 L 63 166 L 63 164 L 68 161 L 74 158 L 78 157" stroke="#ffffff" stroke-width="2" stroke-linecap="round" stroke-linejoin="round" fill="none"/><path d="M 67 171 L 65 171 L 64 171 L 64 172 L 66 174 L 67 175" stroke="#ffffff" stroke-width="2" stroke-linecap="round" stroke-linejoin="round" fill="none"/><path d="M 80 165 L 80 164 L 78 164 L 77 165 L 74 169 L 73 172" stroke="#ffffff" stroke-width="2" stroke-linecap="round" stroke-linejoin="round" fill="none"/><path d="M 59 186 L 60 185 L 66 179 L 76 172 L 82 168 L 85 166" stroke="#ffffff" stroke-width="2" stroke-linecap="round" stroke-linejoin="round" fill="none"/><path d="M 74 150 L 73 149 L 72 148 L 73 153 L 75 164 L 76 179 L 76 192 L 75 199 L 75 201" stroke="#ffffff" stroke-width="2" stroke-linecap="round" stroke-linejoin="round" fill="none"/><path d="M 77 178 L 76 178 L 75 177 L 72 180 L 69 187 L 66 195" stroke="#ffffff" stroke-width="2" stroke-linecap="round" stroke-linejoin="round" fill="none"/><path d="M 77 178 L 79 177 L 80 177 L 82 177 L 86 177" stroke="#ffffff" stroke-width="2" stroke-linecap="round" stroke-linejoin="round" fill="none"/><path d="M 102 165 L 102 164 L 101 162 L 101 161 L 105 160 L 108 160 L 110 162 L 110 165 L 107 168 L 104 171 L 102 171 L 104 170 L 108 171 L 110 174 L 110 179 L 108 183 L 105 185 L 101 186 L 99 185 L 99 183 L 99 182 L 102 182 L 106 181 L 109 180" stroke="#ffffff" stroke-width="2" stroke-linecap="round" stroke-linejoin="round" fill="none"/><path d="M 130 169 L 129 168 L 128 166 L 132 162 L 139 158 L 145 155 L 146 155" stroke="#ffffff" stroke-width="2" stroke-linecap="round" stroke-linejoin="round" fill="none"/><path d="M 141 149 L 140 149 L 139 149 L 137 150 L 136 159 L 134 173 L 133 183 L 133 189 L 133 190" stroke="#ffffff" stroke-width="2" stroke-linecap="round" stroke-linejoin="round" fill="none"/><path d="M 145 173 L 145 172 L 145 169 L 147 167 L 149 165 L 153 163 L 154 163" stroke="#ffffff" stroke-width="2" stroke-linecap="round" stroke-linejoin="round" fill="none"/><path d="M 145 178 L 145 180 L 145 181 L 146 180 L 151 177 L 157 171" stroke="#ffffff" stroke-width="2" stroke-linecap="round" stroke-linejoin="round" fill="none"/><path d="M 160 146 L 158 147 L 156 149 L 156 151 L 158 151" stroke="#ffffff" stroke-width="2" stroke-linecap="round" stroke-linejoin="round" fill="none"/><path d="M 168 140 L 169 140 L 169 138 L 167 140 L 166 146 L 166 148" stroke="#ffffff" stroke-width="2" stroke-linecap="round" stroke-linejoin="round" fill="none"/><path d="M 173 163 L 171 163 L 169 163 L 169 164 L 170 167 L 172 169 L 174 170" stroke="#ffffff" stroke-width="2" stroke-linecap="round" stroke-linejoin="round" fill="none"/><path d="M 181 159 L 181 158 L 182 155 L 185 152 L 190 150 L 194 148 L 197 147" stroke="#ffffff" stroke-width="2" stroke-linecap="round" stroke-linejoin="round" fill="none"/><path d="M 191 143 L 190 143 L 189 143 L 188 146 L 188 155 L 187 168 L 183 180 L 178 188 L 175 192 L 174 192" stroke="#ffffff" stroke-width="2" stroke-linecap="round" stroke-linejoin="round" fill="none"/><path d="M 223 149 L 223 148 L 221 146 L 220 145 L 218 150 L 216 158 L 214 166 L 214 167" stroke="#ffffff" stroke-width="2" stroke-linecap="round" stroke-linejoin="round" fill="none"/><path d="M 223 155 L 224 152 L 225 149 L 228 147 L 232 146" stroke="#ffffff" stroke-width="2" stroke-linecap="round" stroke-linejoin="round" fill="none"/><path d="M 219 170 L 219 171 L 216 171 L 216 169 L 220 166 L 226 163 L 232 159 L 234 157" stroke="#ffffff" stroke-width="2" stroke-linecap="round" stroke-linejoin="round" fill="none"/><path d="M 229 152 L 228 152 L 227 155 L 226 165 L 224 177 L 221 185 L 221 187" stroke="#ffffff" stroke-width="2" stroke-linecap="round" stroke-linejoin="round" fill="none"/><path d="M 227 166 L 226 166 L 227 167 L 231 169 L 234 169" stroke="#ffffff" stroke-width="2" stroke-linecap="round" stroke-linejoin="round" fill="none"/><path d="M 250 149 L 250 147 L 249 145 L 251 142 L 255 141 L 259 141" stroke="#ffffff" stroke-width="2" stroke-linecap="round" stroke-linejoin="round" fill="none"/><path d="M 250 152 L 245 154 L 243 157 L 243 161 L 244 165 L 246 167" stroke="#ffffff" stroke-width="2" stroke-linecap="round" stroke-linejoin="round" fill="none"/><path d="M 248 160 L 249 159 L 249 156 L 249 154 L 250 153 L 252 154 L 253 156 L 253 159 L 253 161" stroke="#ffffff" stroke-width="2" stroke-linecap="round" stroke-linejoin="round" fill="none"/><path d="M 244 169 L 243 168 L 243 167 L 245 164 L 250 161 L 254 158 L 255 158 L 254 159 L 251 161 L 249 164 L 248 167 L 247 169 L 250 170 L 254 167 L 257 164 L 259 162 L 259 161 L 257 163 L 254 167 L 250 172 L 245 177 L 244 178" stroke="#ffffff" stroke-width="2" stroke-linecap="round" stroke-linejoin="round" fill="none"/><path d="M 237 179 L 237 180 L 238 180 L 239 180 L 244 179 L 250 177 L 257 174 L 266 172 L 271 171" stroke="#ffffff" stroke-width="2" stroke-linecap="round" stroke-linejoin="round" fill="none"/><path d="M 300 156 L 299 156 L 297 153 L 296 152 L 295 152 L 293 153 L 289 156 L 285 160 L 283 163 L 282 167 L 286 171 L 293 174 L 302 175 L 308 175" stroke="#ffffff" stroke-width="2" stroke-linecap="round" stroke-linejoin="round" fill="none"/></svg>
