<svg xmlns="http://www.w3.org/2000/svg" width="677" height="351" viewBox="0 0 677 351"><path d="M 14 19 L 13 19 L 12 19 L 12 20 L 12 26 L 12 37 L 12 47 L 13 53 L 15 54" stroke="#ffffff" stroke-width="2" stroke-linecap="round" stroke-linejoin="round" fill="none"/><path d="M 40 25 L 39 25 L 38 22 L 38 20 L 37 18 L 37 16 L 37 14 L 36 13 L 34 14 L 31 18 L 28 26 L 27 31 L 29 34 L 33 32 L 38 26 L 41 21 L 41 18 L 40 17 L 39 18 L 38 20 L 37 23 L 36 26 L 36 32 L 36 40 L 37 47 L 38 50" stroke="#ffffff" stroke-width="2" stroke-linecap="round" stroke-linejoin="round" fill="none"/><path d="M 69 10 L 66 10 L 65 13 L 63 21 L 60 35 L 56 50 L 52 63 L 47 72 L 45 77 L 44 78" stroke="#ffffff" stroke-width="2" stroke-linecap="round" stroke-linejoin="round" fill="none"/><path d="M 81 42 L 79 42 L 78 43 L 77 48 L 76 57 L 75 66 L 76 71 L 78 72" stroke="#ffffff" stroke-width="2" stroke-linecap="round" stroke-linejoin="round" fill="none"/><path d="M 91 49 L 91 48 L 90 47 L 91 47 L 93 47 L 96 47 L 98 47 L 99 49 L 99 53 L 97 57 L 94 59 L 91 60 L 90 61 L 89 61 L 90 60 L 91 60 L 94 60 L 97 60 L 101 61 L 105 62 L 110 62 L 115 62" stroke="#ffffff" stroke-width="2" stroke-linecap="round" stroke-linejoin="round" fill="none"/><path d="M 197 34 L 196 34 L 195 33 L 193 32 L 191 32 L 188 33 L 186 36 L 184 42 L 183 51 L 183 57 L 186 58 L 192 54 L 200 46" stroke="#ffffff" stroke-width="2" stroke-linecap="round" stroke-linejoin="round" fill="none"/><path d="M 224 31 L 224 30 L 223 29 L 222 29 L 222 32 L 222 36 L 224 41 L 228 44 L 233 46 L 235 49 L 235 52 L 232 56 L 228 58 L 223 58 L 220 57 L 220 56" stroke="#ffffff" stroke-width="2" stroke-linecap="round" stroke-linejoin="round" fill="none"/><path d="M 221 38 L 220 36 L 221 33 L 223 32 L 228 32 L 234 34 L 240 34" stroke="#ffffff" stroke-width="2" stroke-linecap="round" stroke-linejoin="round" fill="none"/><path d="M 257 27 L 254 27 L 252 27 L 250 29 L 250 31 L 250 34 L 251 38 L 254 42 L 258 45 L 262 46 L 264 48 L 264 50 L 260 53 L 256 55 L 251 55 L 248 52 L 247 51" stroke="#ffffff" stroke-width="2" stroke-linecap="round" stroke-linejoin="round" fill="none"/><path d="M 250 33 L 250 32 L 251 28 L 256 26 L 262 27 L 267 29 L 274 31 L 277 31" stroke="#ffffff" stroke-width="2" stroke-linecap="round" stroke-linejoin="round" fill="none"/><path d="M 330 23 L 329 20 L 328 19 L 326 20 L 323 28 L 319 41 L 316 55 L 316 63 L 320 65" stroke="#ffffff" stroke-width="2" stroke-linecap="round" stroke-linejoin="round" fill="none"/><path d="M 356 43 L 354 42 L 353 39 L 353 37 L 352 35 L 350 35 L 347 38 L 344 45 L 341 52 L 341 57 L 343 58 L 349 55 L 357 50 L 364 45 L 366 44" stroke="#ffffff" stroke-width="2" stroke-linecap="round" stroke-linejoin="round" fill="none"/><path d="M 375 42 L 375 41 L 374 40 L 373 40 L 372 39 L 370 39 L 367 40 L 365 43 L 364 46 L 364 47 L 368 47 L 372 44 L 374 42 L 375 40 L 375 39 L 374 39 L 373 41 L 373 45 L 372 50 L 372 54 L 373 55 L 375 54" stroke="#ffffff" stroke-width="2" stroke-linecap="round" stroke-linejoin="round" fill="none"/><path d="M 395 41 L 393 41 L 391 39 L 389 37 L 388 36 L 387 36 L 385 39 L 385 43 L 385 46 L 385 49 L 386 50 L 384 51 L 380 51 L 377 49 L 376 46 L 376 44" stroke="#ffffff" stroke-width="2" stroke-linecap="round" stroke-linejoin="round" fill="none"/><path d="M 400 25 L 399 26 L 398 27 L 396 33 L 394 43 L 393 49 L 392 52 L 393 52 L 394 49 L 396 45 L 398 43 L 399 43 L 401 44 L 402 47 L 405 49 L 409 49 L 413 47" stroke="#ffffff" stroke-width="2" stroke-linecap="round" stroke-linejoin="round" fill="none"/><path d="M 425 13 L 426 14 L 427 15 L 430 20 L 431 30 L 430 42 L 425 52 L 420 59 L 413 65 L 406 67" stroke="#ffffff" stroke-width="2" stroke-linecap="round" stroke-linejoin="round" fill="none"/><path d="M 24 111 L 22 110 L 21 110 L 20 110 L 19 113 L 19 121 L 18 131 L 20 139 L 24 141 L 29 137 L 33 130 L 35 123 L 35 116 L 33 111 L 30 108 L 27 108 L 22 109 L 18 116 L 16 123" stroke="#ffffff" stroke-width="2" stroke-linecap="round" stroke-linejoin="round" fill="none"/><path d="M 57 110 L 55 110 L 56 108 L 59 106 L 63 104 L 67 102" stroke="#ffffff" stroke-width="2" stroke-linecap="round" stroke-linejoin="round" fill="none"/><path d="M 56 117 L 54 117 L 55 116 L 59 113 L 63 110 L 67 108 L 68 107" stroke="#ffffff" stroke-width="2" stroke-linecap="round" stroke-linejoin="round" fill="none"/><path d="M 62 100 L 61 100 L 60 99 L 59 99 L 60 103 L 62 111 L 62 122 L 62 130 L 62 132 L 60 131 L 58 129 L 56 127 L 55 127 L 57 126 L 62 124 L 68 121 L 72 119" stroke="#ffffff" stroke-width="2" stroke-linecap="round" stroke-linejoin="round" fill="none"/><path d="M 85 113 L 85 111 L 85 109 L 88 108 L 90 107 L 91 106 L 92 106 L 93 106 L 93 107 L 91 109 L 89 113 L 87 119 L 86 125 L 88 129 L 92 129 L 95 126 L 96 125" stroke="#ffffff" stroke-width="2" stroke-linecap="round" stroke-linejoin="round" fill="none"/><path d="M 97 91 L 95 92 L 93 97 L 93 101" stroke="#ffffff" stroke-width="2" stroke-linecap="round" stroke-linejoin="round" fill="none"/><path d="M 103 91 L 103 90 L 103 89 L 103 96 L 103 97" stroke="#ffffff" stroke-width="2" stroke-linecap="round" stroke-linejoin="round" fill="none"/><path d="M 146 86 L 144 86 L 142 89 L 142 100 L 142 116 L 142 125 L 144 130 L 145 130" stroke="#ffffff" stroke-width="2" stroke-linecap="round" stroke-linejoin="round" fill="none"/><path d="M 139 112 L 138 110 L 140 110 L 145 110 L 152 109 L 155 108" stroke="#ffffff" stroke-width="2" stroke-linecap="round" stroke-linejoin="round" fill="none"/><path d="M 169 104 L 168 104 L 165 104 L 165 105 L 165 108 L 166 110 L 167 110" stroke="#ffffff" stroke-width="2" stroke-linecap="round" stroke-linejoin="round" fill="none"/><path d="M 174 102 L 172 102 L 170 102 L 169 104 L 169 106 L 170 108 L 172 108" stroke="#ffffff" stroke-width="2" stroke-linecap="round" stroke-linejoin="round" fill="none"/><path d="M 175 104 L 174 104 L 174 105 L 174 108 L 172 113 L 170 119 L 168 122" stroke="#ffffff" stroke-width="2" stroke-linecap="round" stroke-linejoin="round" fill="none"/><path d="M 185 114 L 183 114 L 185 111 L 189 108 L 193 106 L 195 106 L 196 110 L 195 115 L 193 120 L 191 123" stroke="#ffffff" stroke-width="2" stroke-linecap="round" stroke-linejoin="round" fill="none"/><path d="M 200 96 L 200 95 L 199 92 L 200 90 L 202 88 L 204 88 L 204 90 L 205 94 L 203 97 L 202 99" stroke="#ffffff" stroke-width="2" stroke-linecap="round" stroke-linejoin="round" fill="none"/><path d="M 222 103 L 220 103 L 219 102 L 220 101 L 222 100 L 225 99 L 228 97" stroke="#ffffff" stroke-width="2" stroke-linecap="round" stroke-linejoin="round" fill="none"/><path d="M 222 107 L 219 108 L 217 110 L 218 110 L 222 107 L 226 104 L 230 101 L 233 100" stroke="#ffffff" stroke-width="2" stroke-linecap="round" stroke-linejoin="round" fill="none"/><path d="M 225 92 L 225 91 L 224 90 L 224 92 L 225 97 L 225 104 L 226 113 L 227 119 L 229 122 L 231 122 L 235 117 L 239 112" stroke="#ffffff" stroke-width="2" stroke-linecap="round" stroke-linejoin="round" fill="none"/><path d="M 258 113 L 257 113 L 257 112 L 258 109 L 263 103 L 269 98 L 274 98 L 275 104 L 274 110 L 272 114 L 270 116 L 268 116 L 267 113 L 267 107 L 267 100 L 268 92 L 268 88 L 268 87 L 268 88 L 267 91 L 267 98 L 265 109 L 263 119 L 263 125" stroke="#ffffff" stroke-width="2" stroke-linecap="round" stroke-linejoin="round" fill="none"/><path d="M 284 84 L 284 85 L 284 92 L 286 99 L 288 103" stroke="#ffffff" stroke-width="2" stroke-linecap="round" stroke-linejoin="round" fill="none"/><path d="M 293 79 L 292 81 L 291 83 L 291 85 L 292 86 L 293 86" stroke="#ffffff" stroke-width="2" stroke-linecap="round" stroke-linejoin="round" fill="none"/><path d="M 297 79 L 298 79 L 299 77 L 299 78 L 297 83 L 296 86" stroke="#ffffff" stroke-width="2" stroke-linecap="round" stroke-linejoin="round" fill="none"/><path d="M 295 115 L 296 112 L 299 107 L 303 105 L 305 107 L 305 114 L 303 120 L 300 123 L 299 123" stroke="#ffffff" stroke-width="2" stroke-linecap="round" stroke-linejoin="round" fill="none"/><path d="M 318 108 L 316 107 L 317 104 L 321 100 L 326 96 L 330 95 L 333 99 L 332 105 L 328 111 L 325 115 L 323 116 L 323 115" stroke="#ffffff" stroke-width="2" stroke-linecap="round" stroke-linejoin="round" fill="none"/><path d="M 350 90 L 349 89 L 347 89 L 347 94 L 348 98 L 349 100 L 350 100" stroke="#ffffff" stroke-width="2" stroke-linecap="round" stroke-linejoin="round" fill="none"/><path d="M 360 87 L 362 86 L 363 88 L 363 96 L 359 107 L 352 120 L 346 128 L 341 132 L 339 132" stroke="#ffffff" stroke-width="2" stroke-linecap="round" stroke-linejoin="round" fill="none"/><path d="M 393 83 L 393 81 L 393 79 L 393 81 L 392 89 L 389 99 L 386 108" stroke="#ffffff" stroke-width="2" stroke-linecap="round" stroke-linejoin="round" fill="none"/><path d="M 395 96 L 395 93 L 397 90 L 400 89 L 404 89 L 405 89" stroke="#ffffff" stroke-width="2" stroke-linecap="round" stroke-linejoin="round" fill="none"/><path d="M 393 106 L 391 105 L 393 103 L 397 101 L 402 98 L 405 95 L 406 94" stroke="#ffffff" stroke-width="2" stroke-linecap="round" stroke-linejoin="round" fill="none"/><path d="M 402 88 L 400 89 L 399 92 L 398 100 L 398 111 L 397 118 L 396 122" stroke="#ffffff" stroke-width="2" stroke-linecap="round" stroke-linejoin="round" fill="none"/><path d="M 398 103 L 399 104 L 401 109 L 404 112 L 409 112 L 411 112" stroke="#ffffff" stroke-width="2" stroke-linecap="round" stroke-linejoin="round" fill="none"/><path d="M 421 87 L 419 87 L 418 85 L 423 83 L 429 81 L 433 79" stroke="#ffffff" stroke-width="2" stroke-linecap="round" stroke-linejoin="round" fill="none"/><path d="M 422 89 L 418 93 L 415 100 L 414 105 L 416 105 L 419 103 L 422 99 L 423 95 L 424 92 L 424 90 L 424 89 L 424 91 L 423 96 L 423 100 L 422 103" stroke="#ffffff" stroke-width="2" stroke-linecap="round" stroke-linejoin="round" fill="none"/><path d="M 414 110 L 411 111 L 414 108 L 419 105 L 424 100 L 429 97 L 431 96 L 431 97 L 428 100 L 426 103 L 424 107 L 422 111 L 421 114 L 419 115 L 419 116" stroke="#ffffff" stroke-width="2" stroke-linecap="round" stroke-linejoin="round" fill="none"/><path d="M 415 116 L 414 116 L 412 116 L 411 117 L 412 117 L 415 118 L 420 116 L 425 113 L 432 110 L 441 107 L 443 107" stroke="#ffffff" stroke-width="2" stroke-linecap="round" stroke-linejoin="round" fill="none"/><path d="M 464 94 L 461 92 L 459 92 L 458 93 L 455 95 L 452 99 L 449 103 L 447 108 L 448 110 L 452 111 L 458 111 L 467 110" stroke="#ffffff" stroke-width="2" stroke-linecap="round" stroke-linejoin="round" fill="none"/><path d="M 517 75 L 516 75 L 512 74 L 507 76 L 500 81 L 495 86 L 494 91 L 498 95 L 504 96 L 511 96 L 515 97 L 515 101 L 510 106 L 503 109 L 496 111 L 491 112 L 492 111" stroke="#ffffff" stroke-width="2" stroke-linecap="round" stroke-linejoin="round" fill="none"/><path d="M 527 92 L 524 91 L 523 93 L 523 97 L 524 101 L 526 102 L 529 101 L 532 98 L 535 94 L 536 90 L 536 89 L 535 91 L 533 97 L 532 102 L 533 106 L 537 107 L 538 107" stroke="#ffffff" stroke-width="2" stroke-linecap="round" stroke-linejoin="round" fill="none"/><path d="M 552 86 L 551 86 L 548 86 L 547 92 L 546 99 L 545 102 L 546 102 L 548 99 L 550 95 L 552 91 L 554 88 L 555 89 L 552 96 L 550 101 L 550 104 L 552 103 L 555 99 L 558 94 L 559 93 L 557 96 L 555 103 L 554 106" stroke="#ffffff" stroke-width="2" stroke-linecap="round" stroke-linejoin="round" fill="none"/><path d="M 570 85 L 568 86 L 567 90 L 566 97 L 565 101 L 565 102 L 566 100 L 569 96 L 571 92 L 572 91 L 572 94 L 570 100 L 569 104 L 569 105 L 571 103 L 573 99 L 575 95 L 576 94 L 576 96 L 576 101 L 577 102" stroke="#ffffff" stroke-width="2" stroke-linecap="round" stroke-linejoin="round" fill="none"/><path d="M 587 91 L 586 91 L 583 92 L 583 94 L 585 95 L 589 94 L 593 92 L 595 89 L 595 87 L 593 87 L 588 90 L 583 96 L 579 103 L 581 106 L 587 106 L 593 104" stroke="#ffffff" stroke-width="2" stroke-linecap="round" stroke-linejoin="round" fill="none"/><path d="M 602 87 L 601 88 L 600 91 L 597 98 L 596 104 L 594 107 L 596 105 L 599 101 L 602 98 L 607 95 L 615 92 L 619 92" stroke="#ffffff" stroke-width="2" stroke-linecap="round" stroke-linejoin="round" fill="none"/><path d="M 635 91 L 634 89 L 634 88 L 638 88 L 643 87 L 648 87 L 649 86 L 646 88 L 641 93 L 636 99 L 635 104 L 636 105 L 642 105 L 648 103 L 651 103" stroke="#ffffff" stroke-width="2" stroke-linecap="round" stroke-linejoin="round" fill="none"/><path d="M 664 64 L 664 59 L 662 59 L 657 67" stroke="#ffffff" stroke-width="2" stroke-linecap="round" stroke-linejoin="round" fill="none"/><path d="M 667 65 L 665 66 L 662 73 L 662 75" stroke="#ffffff" stroke-width="2" stroke-linecap="round" stroke-linejoin="round" fill="none"/><path d="M 27 154 L 25 157 L 25 160 L 25 165 L 28 170 L 29 171" stroke="#ffffff" stroke-width="2" stroke-linecap="round" stroke-linejoin="round" fill="none"/><path d="M 41 151 L 39 151 L 36 154 L 33 161 L 29 168 L 25 171" stroke="#ffffff" stroke-width="2" stroke-linecap="round" stroke-linejoin="round" fill="none"/><path d="M 12 181 L 10 181 L 11 179 L 18 174 L 30 165 L 42 158 L 45 158 L 46 160" stroke="#ffffff" stroke-width="2" stroke-linecap="round" stroke-linejoin="round" fill="none"/><path d="M 23 180 L 21 180 L 20 179 L 20 182 L 19 190 L 21 199 L 23 206 L 26 209" stroke="#ffffff" stroke-width="2" stroke-linecap="round" stroke-linejoin="round" fill="none"/><path d="M 25 192 L 24 186 L 24 181 L 26 178 L 27 177 L 29 179 L 31 185 L 32 191 L 33 197 L 33 202 L 33 204" stroke="#ffffff" stroke-width="2" stroke-linecap="round" stroke-linejoin="round" fill="none"/><path d="M 26 190 L 25 188 L 24 185 L 25 186" stroke="#ffffff" stroke-width="2" stroke-linecap="round" stroke-linejoin="round" fill="none"/><path d="M 29 191 L 27 192 L 26 192 L 27 192 L 30 188" stroke="#ffffff" stroke-width="2" stroke-linecap="round" stroke-linejoin="round" fill="none"/><path d="M 39 170 L 38 170 L 36 170 L 35 172 L 35 177 L 35 181 L 35 182" stroke="#ffffff" stroke-width="2" stroke-linecap="round" stroke-linejoin="round" fill="none"/><path d="M 40 169 L 40 166 L 41 166 L 42 169 L 43 178 L 43 189 L 41 198 L 39 204 L 37 206" stroke="#ffffff" stroke-width="2" stroke-linecap="round" stroke-linejoin="round" fill="none"/><path d="M 65 163 L 62 161 L 62 159 L 62 158 L 62 157 L 63 156 L 64 156 L 64 159 L 62 166 L 61 175 L 60 180" stroke="#ffffff" stroke-width="2" stroke-linecap="round" stroke-linejoin="round" fill="none"/><path d="M 63 169 L 62 168 L 61 167 L 61 166 L 63 165 L 64 165" stroke="#ffffff" stroke-width="2" stroke-linecap="round" stroke-linejoin="round" fill="none"/><path d="M 64 173 L 60 174 L 63 171 L 64 170" stroke="#ffffff" stroke-width="2" stroke-linecap="round" stroke-linejoin="round" fill="none"/><path d="M 56 186 L 55 187 L 54 187 L 55 186 L 59 180 L 64 173" stroke="#ffffff" stroke-width="2" stroke-linecap="round" stroke-linejoin="round" fill="none"/><path d="M 79 145 L 77 145 L 76 147 L 73 154 L 72 161 L 71 164" stroke="#ffffff" stroke-width="2" stroke-linecap="round" stroke-linejoin="round" fill="none"/><path d="M 80 148 L 78 149 L 76 153 L 76 157 L 76 159 L 77 159" stroke="#ffffff" stroke-width="2" stroke-linecap="round" stroke-linejoin="round" fill="none"/><path d="M 85 153 L 82 154 L 81 157 L 80 162 L 79 166 L 78 170" stroke="#ffffff" stroke-width="2" stroke-linecap="round" stroke-linejoin="round" fill="none"/><path d="M 66 184 L 64 184 L 62 184 L 63 181 L 67 177 L 70 174 L 73 172 L 76 172 L 77 172 L 76 176 L 74 182 L 72 189 L 69 194 L 67 198 L 66 198" stroke="#ffffff" stroke-width="2" stroke-linecap="round" stroke-linejoin="round" fill="none"/><path d="M 63 185 L 62 184 L 63 184 L 68 186 L 75 188 L 84 190 L 92 190" stroke="#ffffff" stroke-width="2" stroke-linecap="round" stroke-linejoin="round" fill="none"/><path d="M 104 172 L 103 172 L 103 170 L 107 167 L 111 164 L 114 163 L 114 162" stroke="#ffffff" stroke-width="2" stroke-linecap="round" stroke-linejoin="round" fill="none"/><path d="M 104 179 L 102 182 L 104 181 L 108 178 L 112 175 L 116 173" stroke="#ffffff" stroke-width="2" stroke-linecap="round" stroke-linejoin="round" fill="none"/><path d="M 110 159 L 109 157 L 108 156 L 108 158 L 108 164 L 109 173 L 110 184 L 111 192 L 114 194 L 118 191 L 124 184" stroke="#ffffff" stroke-width="2" stroke-linecap="round" stroke-linejoin="round" fill="none"/><path d="M 145 157 L 144 157 L 142 159 L 141 165 L 141 172 L 143 177 L 144 178" stroke="#ffffff" stroke-width="2" stroke-linecap="round" stroke-linejoin="round" fill="none"/><path d="M 144 167 L 144 165 L 146 163 L 150 162 L 154 160 L 156 160" stroke="#ffffff" stroke-width="2" stroke-linecap="round" stroke-linejoin="round" fill="none"/><path d="M 132 187 L 130 187 L 133 187 L 139 184 L 147 179 L 158 174 L 167 170" stroke="#ffffff" stroke-width="2" stroke-linecap="round" stroke-linejoin="round" fill="none"/><path d="M 179 165 L 177 165 L 176 165 L 175 168 L 175 174 L 177 178 L 180 180" stroke="#ffffff" stroke-width="2" stroke-linecap="round" stroke-linejoin="round" fill="none"/><path d="M 182 169 L 183 168 L 183 166 L 185 163 L 191 158 L 197 153 L 201 150" stroke="#ffffff" stroke-width="2" stroke-linecap="round" stroke-linejoin="round" fill="none"/><path d="M 193 145 L 191 145 L 191 146 L 192 153 L 195 167 L 197 178 L 197 185 L 197 189" stroke="#ffffff" stroke-width="2" stroke-linecap="round" stroke-linejoin="round" fill="none"/><path d="M 200 135 L 198 134 L 197 137 L 197 142" stroke="#ffffff" stroke-width="2" stroke-linecap="round" stroke-linejoin="round" fill="none"/><path d="M 206 132 L 204 132 L 203 133 L 203 137 L 203 139" stroke="#ffffff" stroke-width="2" stroke-linecap="round" stroke-linejoin="round" fill="none"/><path d="M 214 156 L 211 156 L 210 156 L 211 155 L 214 153 L 218 152 L 222 152 L 223 153 L 224 155 L 222 158 L 219 161 L 216 162 L 214 163 L 214 164 L 216 165 L 220 168 L 222 172 L 222 177 L 219 181 L 216 182 L 213 183 L 211 182 L 211 180 L 212 178 L 215 177 L 218 176 L 221 175" stroke="#ffffff" stroke-width="2" stroke-linecap="round" stroke-linejoin="round" fill="none"/><path d="M 242 175 L 241 174 L 240 172 L 242 169 L 247 165 L 251 162 L 253 162 L 254 166 L 252 172 L 251 177 L 250 178 L 249 177 L 248 175 L 248 171 L 247 165 L 247 159 L 247 155 L 246 155 L 246 158 L 246 165 L 245 173 L 245 179 L 245 181" stroke="#ffffff" stroke-width="2" stroke-linecap="round" stroke-linejoin="round" fill="none"/><path d="M 260 151 L 260 150 L 259 150 L 260 154 L 262 159 L 263 160" stroke="#ffffff" stroke-width="2" stroke-linecap="round" stroke-linejoin="round" fill="none"/><path d="M 282 155 L 281 155 L 280 155 L 279 157 L 278 163 L 277 172 L 276 178 L 276 181 L 276 178 L 278 175 L 280 171 L 282 168 L 283 167 L 285 168 L 285 171 L 285 175 L 286 177 L 289 177 L 293 173 L 296 171" stroke="#ffffff" stroke-width="2" stroke-linecap="round" stroke-linejoin="round" fill="none"/><path d="M 313 151 L 311 151 L 308 151 L 307 156 L 307 165 L 308 171 L 312 173 L 317 173 L 321 169 L 323 165 L 323 164" stroke="#ffffff" stroke-width="2" stroke-linecap="round" stroke-linejoin="round" fill="none"/><path d="M 322 142 L 319 142 L 317 145 L 316 152 L 316 154" stroke="#ffffff" stroke-width="2" stroke-linecap="round" stroke-linejoin="round" fill="none"/><path d="M 326 145 L 326 144 L 325 142 L 325 143 L 325 150 L 325 151" stroke="#ffffff" stroke-width="2" stroke-linecap="round" stroke-linejoin="round" fill="none"/><path d="M 373 155 L 373 156 L 371 156 L 372 155 L 377 152 L 382 149 L 385 148 L 386 148" stroke="#ffffff" stroke-width="2" stroke-linecap="round" stroke-linejoin="round" fill="none"/><path d="M 373 164 L 370 165 L 369 166 L 370 166 L 375 162 L 381 158 L 384 156" stroke="#ffffff" stroke-width="2" stroke-linecap="round" stroke-linejoin="round" fill="none"/><path d="M 377 145 L 376 144 L 375 143 L 376 144 L 378 150 L 381 158 L 383 166 L 383 170" stroke="#ffffff" stroke-width="2" stroke-linecap="round" stroke-linejoin="round" fill="none"/><path d="M 374 174 L 373 175 L 373 178 L 374 183 L 376 188 L 379 189" stroke="#ffffff" stroke-width="2" stroke-linecap="round" stroke-linejoin="round" fill="none"/><path d="M 406 161 L 404 160 L 403 159 L 406 158 L 410 156 L 414 155 L 417 155" stroke="#ffffff" stroke-width="2" stroke-linecap="round" stroke-linejoin="round" fill="none"/><path d="M 404 168 L 402 168 L 401 168 L 404 167 L 408 165 L 413 163 L 415 162" stroke="#ffffff" stroke-width="2" stroke-linecap="round" stroke-linejoin="round" fill="none"/><path d="M 413 146 L 411 145 L 410 144 L 410 148 L 409 156 L 409 168 L 410 177 L 413 180 L 416 180 L 419 177 L 423 172 L 425 169" stroke="#ffffff" stroke-width="2" stroke-linecap="round" stroke-linejoin="round" fill="none"/><path d="M 432 155 L 429 155 L 428 153 L 433 151 L 439 147 L 445 145 L 446 144" stroke="#ffffff" stroke-width="2" stroke-linecap="round" stroke-linejoin="round" fill="none"/><path d="M 439 143 L 438 143 L 437 143 L 436 146 L 434 153 L 432 162 L 432 167 L 432 168 L 435 165 L 439 162 L 442 160 L 445 161 L 445 167 L 443 173 L 439 179 L 434 183 L 430 184 L 429 184" stroke="#ffffff" stroke-width="2" stroke-linecap="round" stroke-linejoin="round" fill="none"/><path d="M 471 158 L 470 158 L 469 158 L 470 156 L 477 152 L 484 148 L 490 145 L 493 144" stroke="#ffffff" stroke-width="2" stroke-linecap="round" stroke-linejoin="round" fill="none"/><path d="M 490 142 L 489 143 L 488 143 L 487 143 L 486 145 L 484 152 L 478 163 L 472 172 L 468 176 L 468 177" stroke="#ffffff" stroke-width="2" stroke-linecap="round" stroke-linejoin="round" fill="none"/><path d="M 480 165 L 480 163 L 480 167 L 481 171 L 481 174" stroke="#ffffff" stroke-width="2" stroke-linecap="round" stroke-linejoin="round" fill="none"/><path d="M 481 170 L 481 169 L 480 167 L 481 164 L 484 162 L 488 160 L 491 159 L 492 160 L 492 163 L 491 166 L 490 170 L 489 172 L 488 173" stroke="#ffffff" stroke-width="2" stroke-linecap="round" stroke-linejoin="round" fill="none"/><path d="M 484 176 L 482 176 L 481 177 L 483 176 L 487 173 L 492 170" stroke="#ffffff" stroke-width="2" stroke-linecap="round" stroke-linejoin="round" fill="none"/><path d="M 508 164 L 506 163 L 505 161 L 508 159 L 513 156 L 516 154 L 519 154 L 519 157 L 519 161 L 519 164 L 518 165 L 517 166 L 515 166 L 514 163 L 514 158 L 514 152 L 515 146 L 515 144 L 514 147 L 512 153 L 510 162 L 507 170 L 506 174 L 505 175 L 506 174" stroke="#ffffff" stroke-width="2" stroke-linecap="round" stroke-linejoin="round" fill="none"/><path d="M 528 140 L 527 138 L 527 140 L 528 145 L 531 149 L 532 149" stroke="#ffffff" stroke-width="2" stroke-linecap="round" stroke-linejoin="round" fill="none"/><path d="M 550 137 L 548 135 L 547 137 L 546 141 L 545 143 L 545 144" stroke="#ffffff" stroke-width="2" stroke-linecap="round" stroke-linejoin="round" fill="none"/><path d="M 545 142 L 544 143 L 542 144 L 538 148 L 535 155 L 534 160 L 536 161 L 540 160 L 544 158 L 547 157 L 550 157 L 551 160 L 549 165 L 543 170 L 536 175 L 531 177 L 530 177" stroke="#ffffff" stroke-width="2" stroke-linecap="round" stroke-linejoin="round" fill="none"/><path d="M 564 156 L 564 155 L 564 152 L 571 146 L 582 140 L 588 137 L 589 135 L 588 135 L 587 135 L 585 135 L 583 135 L 582 138 L 578 144 L 573 156 L 568 168 L 563 175 L 561 177 L 562 177 L 563 176" stroke="#ffffff" stroke-width="2" stroke-linecap="round" stroke-linejoin="round" fill="none"/><path d="M 584 162 L 584 160 L 586 156 L 588 153 L 590 152 L 590 150 L 591 150 L 591 151 L 590 154 L 588 160 L 586 166 L 584 171 L 583 174 L 582 175 L 581 175 L 579 173 L 577 173 L 575 173 L 576 173 L 580 172 L 588 170 L 596 167 L 604 165 L 607 165" stroke="#ffffff" stroke-width="2" stroke-linecap="round" stroke-linejoin="round" fill="none"/><path d="M 619 147 L 618 147 L 615 146 L 614 149 L 613 155 L 612 161 L 612 166 L 612 167" stroke="#ffffff" stroke-width="2" stroke-linecap="round" stroke-linejoin="round" fill="none"/><path d="M 621 155 L 621 152 L 622 149 L 625 148 L 629 148 L 631 148" stroke="#ffffff" stroke-width="2" stroke-linecap="round" stroke-linejoin="round" fill="none"/><path d="M 625 160 L 622 162 L 627 161 L 636 157 L 639 156" stroke="#ffffff" stroke-width="2" stroke-linecap="round" stroke-linejoin="round" fill="none"/><path d="M 34 227 L 34 228 L 33 230 L 33 237 L 33 249 L 33 257 L 33 261 L 34 261" stroke="#ffffff" stroke-width="2" stroke-linecap="round" stroke-linejoin="round" fill="none"/><path d="M 33 243 L 33 241 L 33 239 L 37 237 L 42 235 L 45 234 L 47 234" stroke="#ffffff" stroke-width="2" stroke-linecap="round" stroke-linejoin="round" fill="none"/><path d="M 24 265 L 22 266 L 21 267 L 22 267 L 27 265 L 33 260 L 41 256 L 51 252 L 54 251" stroke="#ffffff" stroke-width="2" stroke-linecap="round" stroke-linejoin="round" fill="none"/><path d="M 68 241 L 66 241 L 64 242 L 64 246 L 65 251 L 67 254 L 70 255 L 71 255" stroke="#ffffff" stroke-width="2" stroke-linecap="round" stroke-linejoin="round" fill="none"/><path d="M 73 246 L 73 245 L 73 243 L 73 240 L 77 237 L 84 233 L 89 231 L 91 229" stroke="#ffffff" stroke-width="2" stroke-linecap="round" stroke-linejoin="round" fill="none"/><path d="M 83 220 L 82 219 L 82 221 L 83 231 L 83 247 L 83 260 L 84 268 L 85 271" stroke="#ffffff" stroke-width="2" stroke-linecap="round" stroke-linejoin="round" fill="none"/><path d="M 91 207 L 90 206 L 88 206 L 87 213 L 87 220 L 87 221" stroke="#ffffff" stroke-width="2" stroke-linecap="round" stroke-linejoin="round" fill="none"/><path d="M 95 210 L 95 209 L 94 210 L 94 218" stroke="#ffffff" stroke-width="2" stroke-linecap="round" stroke-linejoin="round" fill="none"/><path d="M 106 239 L 103 239 L 105 237 L 110 234 L 114 230 L 116 228" stroke="#ffffff" stroke-width="2" stroke-linecap="round" stroke-linejoin="round" fill="none"/><path d="M 113 222 L 111 222 L 109 224 L 109 229 L 108 239 L 108 248 L 108 255 L 109 260 L 110 260" stroke="#ffffff" stroke-width="2" stroke-linecap="round" stroke-linejoin="round" fill="none"/><path d="M 116 245 L 116 244 L 115 242 L 117 240 L 119 239 L 122 238" stroke="#ffffff" stroke-width="2" stroke-linecap="round" stroke-linejoin="round" fill="none"/><path d="M 121 249 L 120 250 L 118 252 L 120 251 L 125 247 L 126 246" stroke="#ffffff" stroke-width="2" stroke-linecap="round" stroke-linejoin="round" fill="none"/><path d="M 143 216 L 142 215 L 141 215 L 142 218 L 142 221 L 142 222" stroke="#ffffff" stroke-width="2" stroke-linecap="round" stroke-linejoin="round" fill="none"/><path d="M 139 225 L 136 227 L 135 232 L 134 236 L 135 239 L 137 239 L 140 237 L 144 234 L 148 233 L 150 235 L 149 240 L 146 246 L 142 250 L 138 252 L 134 253" stroke="#ffffff" stroke-width="2" stroke-linecap="round" stroke-linejoin="round" fill="none"/><path d="M 170 229 L 168 229 L 167 230 L 167 236 L 167 242 L 169 245 L 172 244" stroke="#ffffff" stroke-width="2" stroke-linecap="round" stroke-linejoin="round" fill="none"/><path d="M 178 229 L 179 228 L 179 226 L 179 229 L 180 233 L 180 234" stroke="#ffffff" stroke-width="2" stroke-linecap="round" stroke-linejoin="round" fill="none"/><path d="M 194 226 L 193 226 L 192 226 L 192 229 L 192 233 L 194 235 L 196 235" stroke="#ffffff" stroke-width="2" stroke-linecap="round" stroke-linejoin="round" fill="none"/><path d="M 199 228 L 200 225 L 200 224 L 200 225 L 200 230 L 201 234 L 201 236" stroke="#ffffff" stroke-width="2" stroke-linecap="round" stroke-linejoin="round" fill="none"/><path d="M 222 218 L 221 218 L 222 216 L 228 212 L 234 209 L 240 206 L 243 204 L 243 203" stroke="#ffffff" stroke-width="2" stroke-linecap="round" stroke-linejoin="round" fill="none"/><path d="M 227 215 L 225 215 L 223 217 L 222 224 L 221 231 L 220 235 L 220 237 L 221 237" stroke="#ffffff" stroke-width="2" stroke-linecap="round" stroke-linejoin="round" fill="none"/><path d="M 230 223 L 228 225 L 227 228 L 226 231 L 227 232 L 230 230 L 233 227 L 235 224 L 235 222 L 233 222 L 231 223 L 228 227 L 227 231 L 227 233" stroke="#ffffff" stroke-width="2" stroke-linecap="round" stroke-linejoin="round" fill="none"/><path d="M 241 194 L 239 193 L 238 195 L 238 206 L 239 222 L 242 233 L 245 239" stroke="#ffffff" stroke-width="2" stroke-linecap="round" stroke-linejoin="round" fill="none"/><path d="M 248 221 L 247 219 L 246 221 L 242 229 L 238 237 L 235 240" stroke="#ffffff" stroke-width="2" stroke-linecap="round" stroke-linejoin="round" fill="none"/><path d="M 245 190 L 246 185 L 248 187 L 251 195 L 252 206 L 252 209" stroke="#ffffff" stroke-width="2" stroke-linecap="round" stroke-linejoin="round" fill="none"/><path d="M 223 240 L 222 243 L 220 248 L 220 254 L 220 258 L 222 258" stroke="#ffffff" stroke-width="2" stroke-linecap="round" stroke-linejoin="round" fill="none"/><path d="M 237 237 L 236 239 L 236 243 L 240 247 L 245 248 L 249 244 L 251 239 L 251 237" stroke="#ffffff" stroke-width="2" stroke-linecap="round" stroke-linejoin="round" fill="none"/><path d="M 249 226 L 249 224 L 247 221 L 246 224 L 246 231 L 246 235 L 246 236" stroke="#ffffff" stroke-width="2" stroke-linecap="round" stroke-linejoin="round" fill="none"/><path d="M 253 223 L 253 221 L 252 222 L 252 226 L 253 228" stroke="#ffffff" stroke-width="2" stroke-linecap="round" stroke-linejoin="round" fill="none"/><path d="M 279 213 L 277 212 L 275 213 L 273 222 L 272 235 L 275 241 L 279 241 L 284 236" stroke="#ffffff" stroke-width="2" stroke-linecap="round" stroke-linejoin="round" fill="none"/><path d="M 287 208 L 285 208 L 283 210 L 283 216 L 283 219" stroke="#ffffff" stroke-width="2" stroke-linecap="round" stroke-linejoin="round" fill="none"/><path d="M 291 208 L 290 207 L 288 206 L 288 212 L 288 213" stroke="#ffffff" stroke-width="2" stroke-linecap="round" stroke-linejoin="round" fill="none"/><path d="M 307 238 L 306 237 L 305 233 L 309 227 L 317 216 L 325 207 L 331 205 L 333 208 L 333 213 L 331 218 L 327 222 L 323 224" stroke="#ffffff" stroke-width="2" stroke-linecap="round" stroke-linejoin="round" fill="none"/><path d="M 315 202 L 314 200 L 313 199 L 312 202 L 312 214 L 312 231 L 315 240 L 318 243 L 320 243" stroke="#ffffff" stroke-width="2" stroke-linecap="round" stroke-linejoin="round" fill="none"/><path d="M 328 201 L 326 199 L 326 200 L 326 208 L 327 216" stroke="#ffffff" stroke-width="2" stroke-linecap="round" stroke-linejoin="round" fill="none"/><path d="M 339 236 L 338 236 L 336 233 L 338 230 L 343 227 L 347 227 L 348 230 L 347 235 L 343 240 L 340 242" stroke="#ffffff" stroke-width="2" stroke-linecap="round" stroke-linejoin="round" fill="none"/><path d="M 363 218 L 362 216 L 365 213 L 370 210 L 375 207 L 378 205 L 380 204" stroke="#ffffff" stroke-width="2" stroke-linecap="round" stroke-linejoin="round" fill="none"/><path d="M 375 196 L 373 196 L 372 197 L 371 205 L 369 219 L 369 232 L 369 240 L 369 243 L 371 244" stroke="#ffffff" stroke-width="2" stroke-linecap="round" stroke-linejoin="round" fill="none"/><path d="M 380 224 L 380 221 L 380 218 L 382 217 L 385 216 L 388 216" stroke="#ffffff" stroke-width="2" stroke-linecap="round" stroke-linejoin="round" fill="none"/><path d="M 382 232 L 380 233 L 381 233 L 386 230 L 392 225 L 396 222" stroke="#ffffff" stroke-width="2" stroke-linecap="round" stroke-linejoin="round" fill="none"/><path d="M 36 299 L 36 297 L 35 294 L 35 295 L 35 301 L 35 308 L 36 310" stroke="#ffffff" stroke-width="2" stroke-linecap="round" stroke-linejoin="round" fill="none"/><path d="M 32 318 L 32 317 L 34 313 L 39 306 L 44 301 L 46 299 L 45 303 L 42 311 L 39 319 L 36 327 L 34 331 L 33 332" stroke="#ffffff" stroke-width="2" stroke-linecap="round" stroke-linejoin="round" fill="none"/><path d="M 40 315 L 39 315 L 38 315 L 38 316 L 38 320 L 39 326 L 41 331 L 41 332" stroke="#ffffff" stroke-width="2" stroke-linecap="round" stroke-linejoin="round" fill="none"/><path d="M 47 315 L 46 314 L 46 317 L 48 321" stroke="#ffffff" stroke-width="2" stroke-linecap="round" stroke-linejoin="round" fill="none"/><path d="M 49 318 L 48 316 L 48 314 L 51 311 L 55 307 L 59 304 L 62 303 L 64 302 L 64 303 L 65 306 L 64 312 L 63 317 L 62 320 L 61 321 L 59 320 L 57 317 L 55 312 L 54 309 L 55 312 L 56 319 L 56 327 L 55 333 L 53 336 L 51 337 L 48 337 L 43 336 L 38 335 L 32 332 L 28 328 L 25 323 L 23 316 L 24 307 L 29 299 L 37 291 L 49 284 L 62 282 L 71 286 L 76 292 L 78 302 L 78 313 L 76 322 L 72 330 L 66 336 L 56 340 L 48 341 L 46 341" stroke="#ffffff" stroke-width="2" stroke-linecap="round" stroke-linejoin="round" fill="none"/><path d="M 101 298 L 101 297 L 99 294 L 100 299 L 101 309 L 102 322 L 102 331 L 103 334" stroke="#ffffff" stroke-width="2" stroke-linecap="round" stroke-linejoin="round" fill="none"/><path d="M 100 301 L 100 300 L 99 297 L 100 293 L 105 289 L 113 284 L 119 281 L 122 282 L 125 285 L 128 291 L 131 300 L 132 310 L 133 318 L 134 321" stroke="#ffffff" stroke-width="2" stroke-linecap="round" stroke-linejoin="round" fill="none"/><path d="M 114 303 L 113 302 L 113 300 L 115 299 L 117 299 L 119 299 L 122 299" stroke="#ffffff" stroke-width="2" stroke-linecap="round" stroke-linejoin="round" fill="none"/><path d="M 123 297 L 123 296 L 123 295 L 121 299 L 120 304 L 119 310 L 119 314 L 119 315" stroke="#ffffff" stroke-width="2" stroke-linecap="round" stroke-linejoin="round" fill="none"/><path d="M 116 310 L 115 308 L 115 306 L 118 305 L 121 303 L 124 303 L 125 303" stroke="#ffffff" stroke-width="2" stroke-linecap="round" stroke-linejoin="round" fill="none"/><path d="M 115 320 L 113 321 L 117 319 L 122 314 L 124 313" stroke="#ffffff" stroke-width="2" stroke-linecap="round" stroke-linejoin="round" fill="none"/><path d="M 132 301 L 130 302 L 129 303 L 130 308 L 132 314 L 133 319" stroke="#ffffff" stroke-width="2" stroke-linecap="round" stroke-linejoin="round" fill="none"/><path d="M 108 332 L 104 333 L 108 333 L 115 329 L 126 323 L 130 320" stroke="#ffffff" stroke-width="2" stroke-linecap="round" stroke-linejoin="round" fill="none"/><path d="M 151 294 L 150 294 L 148 295 L 148 299 L 150 305 L 153 311 L 155 315 L 155 316" stroke="#ffffff" stroke-width="2" stroke-linecap="round" stroke-linejoin="round" fill="none"/><path d="M 149 302 L 148 297 L 148 293 L 150 288 L 156 282 L 163 277 L 169 275 L 174 276 L 177 281 L 179 290 L 180 300 L 180 306 L 180 310 L 180 312 L 179 312" stroke="#ffffff" stroke-width="2" stroke-linecap="round" stroke-linejoin="round" fill="none"/><path d="M 165 272 L 163 269 L 162 275 L 161 287 L 161 298 L 162 304" stroke="#ffffff" stroke-width="2" stroke-linecap="round" stroke-linejoin="round" fill="none"/><path d="M 160 289 L 160 287 L 161 285 L 164 286 L 169 290 L 175 294" stroke="#ffffff" stroke-width="2" stroke-linecap="round" stroke-linejoin="round" fill="none"/><path d="M 207 269 L 207 265 L 206 262 L 206 264 L 205 271 L 204 280" stroke="#ffffff" stroke-width="2" stroke-linecap="round" stroke-linejoin="round" fill="none"/><path d="M 203 284 L 202 284 L 201 282 L 203 280 L 207 279 L 211 279 L 214 280" stroke="#ffffff" stroke-width="2" stroke-linecap="round" stroke-linejoin="round" fill="none"/><path d="M 216 284 L 215 285 L 213 287 L 210 288 L 210 289 L 213 291 L 216 293 L 219 296 L 219 299 L 219 301 L 217 302 L 214 300 L 212 297 L 209 291 L 208 283 L 207 277 L 207 278 L 207 281 L 207 285 L 206 294 L 204 306 L 201 315 L 200 319 L 200 320" stroke="#ffffff" stroke-width="2" stroke-linecap="round" stroke-linejoin="round" fill="none"/><path d="M 239 262 L 237 262 L 235 262 L 232 267 L 229 278 L 227 285 L 227 289" stroke="#ffffff" stroke-width="2" stroke-linecap="round" stroke-linejoin="round" fill="none"/><path d="M 226 283 L 226 281 L 228 277 L 232 274 L 238 270 L 243 268 L 245 268 L 242 270 L 238 275 L 234 283 L 229 292 L 226 300 L 226 303" stroke="#ffffff" stroke-width="2" stroke-linecap="round" stroke-linejoin="round" fill="none"/><path d="M 230 285 L 230 283 L 230 282 L 232 283 L 234 293 L 235 306 L 235 316 L 237 320" stroke="#ffffff" stroke-width="2" stroke-linecap="round" stroke-linejoin="round" fill="none"/><path d="M 252 276 L 250 275 L 248 275 L 246 280 L 244 286 L 242 290 L 241 291" stroke="#ffffff" stroke-width="2" stroke-linecap="round" stroke-linejoin="round" fill="none"/><path d="M 236 285 L 237 286 L 242 291 L 250 297 L 255 299" stroke="#ffffff" stroke-width="2" stroke-linecap="round" stroke-linejoin="round" fill="none"/><path d="M 281 271 L 281 268 L 280 265 L 279 267 L 276 274 L 273 282 L 271 287 L 270 289" stroke="#ffffff" stroke-width="2" stroke-linecap="round" stroke-linejoin="round" fill="none"/><path d="M 287 278 L 286 277 L 284 277 L 281 282 L 277 292 L 272 301 L 271 305" stroke="#ffffff" stroke-width="2" stroke-linecap="round" stroke-linejoin="round" fill="none"/><path d="M 277 294 L 277 292 L 278 292 L 279 297 L 281 303 L 282 308" stroke="#ffffff" stroke-width="2" stroke-linecap="round" stroke-linejoin="round" fill="none"/><path d="M 300 270 L 299 267 L 300 264 L 305 262 L 309 261 L 313 261 L 315 261" stroke="#ffffff" stroke-width="2" stroke-linecap="round" stroke-linejoin="round" fill="none"/><path d="M 295 287 L 295 286 L 295 283 L 300 279 L 306 276 L 310 273 L 312 272 L 312 271 L 310 272 L 308 275 L 307 278 L 307 285 L 308 295 L 308 305 L 308 311 L 308 313" stroke="#ffffff" stroke-width="2" stroke-linecap="round" stroke-linejoin="round" fill="none"/><path d="M 387 263 L 386 263 L 386 262 L 386 263 L 384 270 L 381 279 L 380 286 L 380 288 L 380 289" stroke="#ffffff" stroke-width="2" stroke-linecap="round" stroke-linejoin="round" fill="none"/><path d="M 383 277 L 382 275 L 386 272 L 392 269 L 398 266 L 401 265 L 402 264 L 401 264 L 399 264 L 398 265 L 396 268 L 395 273 L 395 281 L 394 294 L 394 304 L 393 310" stroke="#ffffff" stroke-width="2" stroke-linecap="round" stroke-linejoin="round" fill="none"/><path d="M 413 277 L 409 274 L 410 271 L 415 266 L 422 261 L 428 260 L 432 262 L 432 266 L 429 271 L 424 274 L 419 276 L 416 276 L 415 278 L 415 283 L 416 291 L 415 299 L 415 303 L 415 304" stroke="#ffffff" stroke-width="2" stroke-linecap="round" stroke-linejoin="round" fill="none"/><path d="M 438 281 L 435 280 L 436 279 L 440 277 L 444 275 L 447 275 L 449 276" stroke="#ffffff" stroke-width="2" stroke-linecap="round" stroke-linejoin="round" fill="none"/><path d="M 442 292 L 439 294 L 439 295 L 441 293 L 446 287 L 452 280 L 459 271" stroke="#ffffff" stroke-width="2" stroke-linecap="round" stroke-linejoin="round" fill="none"/><path d="M 471 272 L 470 272 L 469 272 L 470 270 L 474 268 L 477 267 L 479 267 L 481 268 L 481 272 L 480 277 L 476 285 L 472 292 L 470 296 L 469 296 L 469 295" stroke="#ffffff" stroke-width="2" stroke-linecap="round" stroke-linejoin="round" fill="none"/><path d="M 477 279 L 478 278 L 480 278 L 484 282 L 489 287 L 493 289 L 496 289 L 497 287" stroke="#ffffff" stroke-width="2" stroke-linecap="round" stroke-linejoin="round" fill="none"/><path d="M 501 250 L 497 252 L 496 258 L 496 264" stroke="#ffffff" stroke-width="2" stroke-linecap="round" stroke-linejoin="round" fill="none"/><path d="M 507 251 L 506 252 L 505 256 L 505 258" stroke="#ffffff" stroke-width="2" stroke-linecap="round" stroke-linejoin="round" fill="none"/></svg>
