<svg xmlns="http://www.w3.org/2000/svg" width="659" height="246" viewBox="0 0 659 246"><path d="M 13 32 L 11 34 L 11 41 L 10 53 L 10 63 L 10 69" stroke="#ffffff" stroke-width="2" stroke-linecap="round" stroke-linejoin="round" fill="none"/><path d="M 26 29 L 25 32 L 24 37 L 23 43 L 23 48 L 23 49" stroke="#ffffff" stroke-width="2" stroke-linecap="round" stroke-linejoin="round" fill="none"/><path d="M 25 36 L 25 35 L 25 31 L 26 28 L 28 27 L 30 27 L 32 30 L 34 38 L 35 49 L 35 59 L 35 66 L 35 70 L 35 71" stroke="#ffffff" stroke-width="2" stroke-linecap="round" stroke-linejoin="round" fill="none"/><path d="M 68 23 L 66 25 L 65 32 L 62 47 L 58 63 L 52 76 L 47 87 L 44 95 L 43 97" stroke="#ffffff" stroke-width="2" stroke-linecap="round" stroke-linejoin="round" fill="none"/><path d="M 80 61 L 79 60 L 78 63 L 78 71 L 78 80 L 79 87" stroke="#ffffff" stroke-width="2" stroke-linecap="round" stroke-linejoin="round" fill="none"/><path d="M 167 31 L 167 31 L 165 29 L 164 28 L 163 28 L 160 31 L 158 39 L 156 47 L 157 52 L 163 52 L 170 47 L 172 46" stroke="#ffffff" stroke-width="2" stroke-linecap="round" stroke-linejoin="round" fill="none"/><path d="M 197 21 L 194 21 L 191 28 L 189 39 L 188 49 L 189 54 L 192 55 L 196 53 L 199 50 L 200 45 L 201 42 L 200 40 L 196 41 L 190 46 L 186 53 L 185 56" stroke="#ffffff" stroke-width="2" stroke-linecap="round" stroke-linejoin="round" fill="none"/><path d="M 222 32 L 222 32 L 218 32 L 217 35 L 217 40 L 218 45 L 221 47 L 225 46 L 228 42 L 230 37 L 229 33 L 225 30 L 220 31 L 215 37 L 214 40" stroke="#ffffff" stroke-width="2" stroke-linecap="round" stroke-linejoin="round" fill="none"/><path d="M 263 17 L 263 17 L 262 19 L 257 30 L 250 47 L 245 60 L 242 68 L 242 72" stroke="#ffffff" stroke-width="2" stroke-linecap="round" stroke-linejoin="round" fill="none"/><path d="M 284 24 L 284 23 L 282 26 L 279 37 L 278 48 L 277 57 L 278 59" stroke="#ffffff" stroke-width="2" stroke-linecap="round" stroke-linejoin="round" fill="none"/><path d="M 280 46 L 280 45 L 280 43 L 281 42 L 286 40 L 291 38 L 296 36" stroke="#ffffff" stroke-width="2" stroke-linecap="round" stroke-linejoin="round" fill="none"/><path d="M 296 23 L 296 19 L 296 20 L 295 28 L 293 40 L 291 53 L 292 58" stroke="#ffffff" stroke-width="2" stroke-linecap="round" stroke-linejoin="round" fill="none"/><path d="M 316 30 L 316 30 L 311 28 L 309 28 L 308 29 L 308 30 L 308 33 L 310 36 L 313 39 L 314 42 L 314 45 L 313 47 L 309 48 L 304 48 L 302 46 L 302 41" stroke="#ffffff" stroke-width="2" stroke-linecap="round" stroke-linejoin="round" fill="none"/><path d="M 333 31 L 332 31 L 330 35 L 329 44 L 328 55 L 327 62 L 327 66 L 327 68" stroke="#ffffff" stroke-width="2" stroke-linecap="round" stroke-linejoin="round" fill="none"/><path d="M 328 36 L 334 25 L 337 25 L 340 27 L 340 31 L 339 36 L 334 41 L 330 45 L 328 45" stroke="#ffffff" stroke-width="2" stroke-linecap="round" stroke-linejoin="round" fill="none"/><path d="M 380 19 L 379 19 L 374 18 L 369 21 L 363 25 L 361 28 L 361 31 L 363 34 L 368 35 L 374 35 L 380 34 L 383 33 L 384 32" stroke="#ffffff" stroke-width="2" stroke-linecap="round" stroke-linejoin="round" fill="none"/><path d="M 377 12 L 376 10 L 375 10 L 372 20 L 369 35 L 366 47 L 365 55" stroke="#ffffff" stroke-width="2" stroke-linecap="round" stroke-linejoin="round" fill="none"/><path d="M 396 18 L 393 19 L 392 22 L 394 26 L 397 31 L 401 34 L 404 36 L 406 38 L 406 39 L 403 39 L 399 40 L 395 40 L 391 40" stroke="#ffffff" stroke-width="2" stroke-linecap="round" stroke-linejoin="round" fill="none"/><path d="M 388 21 L 390 20 L 402 16 L 409 16 L 416 16 L 418 16" stroke="#ffffff" stroke-width="2" stroke-linecap="round" stroke-linejoin="round" fill="none"/><path d="M 224 84 L 220 85 L 213 101 L 212 112 L 214 118 L 220 120" stroke="#ffffff" stroke-width="2" stroke-linecap="round" stroke-linejoin="round" fill="none"/><path d="M 251 93 L 249 92 L 247 90 L 246 89 L 243 88 L 241 89 L 239 95 L 237 101 L 237 105 L 240 107 L 245 105" stroke="#ffffff" stroke-width="2" stroke-linecap="round" stroke-linejoin="round" fill="none"/><path d="M 264 97 L 264 97 L 261 95 L 261 94 L 260 93 L 260 93 L 259 93 L 258 96 L 256 100 L 255 104 L 255 105 L 257 104 L 261 100 L 264 97 L 265 94 L 265 94 L 265 94 L 264 97 L 263 101 L 263 105 L 263 107" stroke="#ffffff" stroke-width="2" stroke-linecap="round" stroke-linejoin="round" fill="none"/><path d="M 283 95 L 283 94 L 281 90 L 280 89 L 278 89 L 277 89 L 277 90 L 277 92 L 277 96 L 278 100 L 279 103 L 279 105 L 279 106 L 277 107 L 275 107 L 272 105 L 272 104" stroke="#ffffff" stroke-width="2" stroke-linecap="round" stroke-linejoin="round" fill="none"/><path d="M 292 79 L 292 80 L 291 84 L 290 92 L 289 100 L 289 103 L 289 104 L 289 103 L 290 101 L 291 99 L 293 97 L 295 97 L 297 98 L 299 100 L 303 101 L 308 99 L 312 95" stroke="#ffffff" stroke-width="2" stroke-linecap="round" stroke-linejoin="round" fill="none"/><path d="M 321 71 L 322 71 L 324 75 L 326 82 L 326 91 L 323 100 L 318 107 L 312 112" stroke="#ffffff" stroke-width="2" stroke-linecap="round" stroke-linejoin="round" fill="none"/><path d="M 84 141 L 84 140 L 80 139 L 76 143 L 72 147 L 68 151 L 66 155 L 67 156 L 70 157 L 76 155 L 82 152 L 86 149" stroke="#ffffff" stroke-width="2" stroke-linecap="round" stroke-linejoin="round" fill="none"/><path d="M 82 140 L 81 139 L 81 141 L 81 147 L 82 156 L 82 166 L 81 172" stroke="#ffffff" stroke-width="2" stroke-linecap="round" stroke-linejoin="round" fill="none"/><path d="M 97 161 L 95 163 L 95 168 L 95 170" stroke="#ffffff" stroke-width="2" stroke-linecap="round" stroke-linejoin="round" fill="none"/><path d="M 108 141 L 107 141 L 105 144 L 105 149 L 107 155 L 111 158 L 117 158 L 121 158 L 123 159 L 122 161 L 118 164 L 113 166 L 108 168 L 107 168" stroke="#ffffff" stroke-width="2" stroke-linecap="round" stroke-linejoin="round" fill="none"/><path d="M 106 143 L 109 140 L 112 139 L 118 139 L 125 139" stroke="#ffffff" stroke-width="2" stroke-linecap="round" stroke-linejoin="round" fill="none"/><path d="M 87 150 L 87 151 L 88 151 L 88 150 L 89 149 L 90 149 L 91 149 L 91 149 L 92 148 L 93 147 L 94 147 L 95 146 L 95 146" stroke="#ffffff" stroke-width="2" stroke-linecap="round" stroke-linejoin="round" fill="none"/><path d="M 193 135 L 193 135 L 189 142 L 188 149 L 187 155 L 187 156" stroke="#ffffff" stroke-width="2" stroke-linecap="round" stroke-linejoin="round" fill="none"/><path d="M 190 147 L 191 146 L 196 139 L 202 136 L 207 133 L 211 132" stroke="#ffffff" stroke-width="2" stroke-linecap="round" stroke-linejoin="round" fill="none"/><path d="M 200 145 L 199 145 L 197 149 L 197 153 L 198 156 L 198 156" stroke="#ffffff" stroke-width="2" stroke-linecap="round" stroke-linejoin="round" fill="none"/><path d="M 201 149 L 202 149 L 205 144 L 207 142 L 209 141 L 209 141" stroke="#ffffff" stroke-width="2" stroke-linecap="round" stroke-linejoin="round" fill="none"/><path d="M 193 162 L 193 162 L 192 162 L 194 160 L 200 156 L 207 151 L 212 147" stroke="#ffffff" stroke-width="2" stroke-linecap="round" stroke-linejoin="round" fill="none"/><path d="M 204 136 L 204 135 L 203 133 L 204 138 L 205 148 L 206 160 L 206 171 L 206 177 L 207 178" stroke="#ffffff" stroke-width="2" stroke-linecap="round" stroke-linejoin="round" fill="none"/><path d="M 233 144 L 233 143 L 233 141 L 235 139 L 238 138 L 241 136" stroke="#ffffff" stroke-width="2" stroke-linecap="round" stroke-linejoin="round" fill="none"/><path d="M 234 147 L 234 146 L 237 144 L 240 142 L 241 142" stroke="#ffffff" stroke-width="2" stroke-linecap="round" stroke-linejoin="round" fill="none"/><path d="M 236 133 L 236 132 L 235 131 L 236 134 L 237 141 L 238 151 L 239 162 L 240 166 L 241 167" stroke="#ffffff" stroke-width="2" stroke-linecap="round" stroke-linejoin="round" fill="none"/><path d="M 238 153 L 238 153 L 235 157 L 230 163 L 227 167 L 226 169" stroke="#ffffff" stroke-width="2" stroke-linecap="round" stroke-linejoin="round" fill="none"/><path d="M 235 147 L 237 147 L 244 149 L 252 152 L 257 153" stroke="#ffffff" stroke-width="2" stroke-linecap="round" stroke-linejoin="round" fill="none"/><path d="M 257 158 L 257 158 L 258 153 L 261 150 L 264 148 L 267 148 L 268 150 L 268 153 L 268 155 L 267 156 L 265 156 L 263 155 L 262 152 L 260 147 L 259 143 L 259 141 L 260 146 L 261 152 L 261 159 L 261 166 L 260 168" stroke="#ffffff" stroke-width="2" stroke-linecap="round" stroke-linejoin="round" fill="none"/><path d="M 274 131 L 274 131 L 274 135 L 276 141 L 277 142" stroke="#ffffff" stroke-width="2" stroke-linecap="round" stroke-linejoin="round" fill="none"/><path d="M 293 126 L 292 126 L 292 126 L 291 130 L 291 133" stroke="#ffffff" stroke-width="2" stroke-linecap="round" stroke-linejoin="round" fill="none"/><path d="M 290 135 L 289 136 L 287 136 L 286 138 L 285 142 L 285 146 L 285 148 L 285 148 L 286 148 L 288 145 L 291 144 L 294 143 L 296 144 L 296 147 L 294 153 L 289 158 L 285 161 L 283 161 L 282 161" stroke="#ffffff" stroke-width="2" stroke-linecap="round" stroke-linejoin="round" fill="none"/><path d="M 320 140 L 320 138 L 319 141 L 319 145 L 318 148 L 317 149 L 316 150 L 315 149 L 315 146 L 315 142 L 318 138 L 322 135 L 326 135 L 330 137 L 331 142 L 329 148 L 326 152 L 322 155" stroke="#ffffff" stroke-width="2" stroke-linecap="round" stroke-linejoin="round" fill="none"/><path d="M 355 128 L 353 128 L 351 132 L 350 141 L 349 148 L 349 151" stroke="#ffffff" stroke-width="2" stroke-linecap="round" stroke-linejoin="round" fill="none"/><path d="M 350 136 L 351 130 L 352 127 L 355 125 L 358 123 L 360 123 L 361 124 L 362 128 L 361 133 L 360 139 L 360 142" stroke="#ffffff" stroke-width="2" stroke-linecap="round" stroke-linejoin="round" fill="none"/><path d="M 351 143 L 351 139 L 353 138 L 355 138" stroke="#ffffff" stroke-width="2" stroke-linecap="round" stroke-linejoin="round" fill="none"/><path d="M 352 151 L 350 151 L 348 153 L 349 152 L 353 149 L 357 146" stroke="#ffffff" stroke-width="2" stroke-linecap="round" stroke-linejoin="round" fill="none"/><path d="M 375 130 L 375 130 L 373 129 L 377 127 L 383 123 L 389 119 L 392 116 L 392 115" stroke="#ffffff" stroke-width="2" stroke-linecap="round" stroke-linejoin="round" fill="none"/><path d="M 386 114 L 384 114 L 384 115 L 385 121 L 386 131 L 387 142 L 387 149 L 386 152 L 386 153 L 385 153" stroke="#ffffff" stroke-width="2" stroke-linecap="round" stroke-linejoin="round" fill="none"/><path d="M 387 128 L 386 127 L 385 127 L 383 130 L 378 136 L 373 143 L 369 148 L 368 149" stroke="#ffffff" stroke-width="2" stroke-linecap="round" stroke-linejoin="round" fill="none"/><path d="M 382 129 L 383 129 L 393 125 L 397 125 L 399 126" stroke="#ffffff" stroke-width="2" stroke-linecap="round" stroke-linejoin="round" fill="none"/><path d="M 383 146 L 382 146 L 381 146 L 386 144 L 394 139 L 397 138" stroke="#ffffff" stroke-width="2" stroke-linecap="round" stroke-linejoin="round" fill="none"/><path d="M 424 111 L 423 110 L 423 107 L 423 107 L 423 109 L 422 114 L 422 118" stroke="#ffffff" stroke-width="2" stroke-linecap="round" stroke-linejoin="round" fill="none"/><path d="M 414 127 L 414 125 L 415 123 L 418 121 L 422 119 L 425 119 L 426 119 L 427 121 L 426 123" stroke="#ffffff" stroke-width="2" stroke-linecap="round" stroke-linejoin="round" fill="none"/><path d="M 416 130 L 416 127 L 418 126 L 420 125 L 420 125" stroke="#ffffff" stroke-width="2" stroke-linecap="round" stroke-linejoin="round" fill="none"/><path d="M 418 132 L 418 133 L 417 135 L 417 135 L 417 135 L 419 133 L 422 130 L 422 129" stroke="#ffffff" stroke-width="2" stroke-linecap="round" stroke-linejoin="round" fill="none"/><path d="M 417 120 L 416 120 L 412 127 L 411 139 L 411 147 L 412 151 L 415 152 L 420 149" stroke="#ffffff" stroke-width="2" stroke-linecap="round" stroke-linejoin="round" fill="none"/><path d="M 431 131 L 433 128 L 433 127 L 430 132 L 427 137 L 423 141 L 423 142" stroke="#ffffff" stroke-width="2" stroke-linecap="round" stroke-linejoin="round" fill="none"/><path d="M 418 133 L 418 132 L 420 132 L 425 136 L 431 141 L 439 145 L 445 145" stroke="#ffffff" stroke-width="2" stroke-linecap="round" stroke-linejoin="round" fill="none"/><path d="M 448 142 L 448 141 L 449 137 L 452 134 L 456 130 L 460 129 L 462 130 L 462 133 L 461 136 L 460 139 L 458 140 L 457 139 L 456 136 L 456 131 L 457 125 L 458 120 L 458 118 L 458 119 L 458 124 L 456 133 L 453 143 L 451 150 L 450 152" stroke="#ffffff" stroke-width="2" stroke-linecap="round" stroke-linejoin="round" fill="none"/><path d="M 471 120 L 471 118 L 471 121 L 473 125 L 473 127" stroke="#ffffff" stroke-width="2" stroke-linecap="round" stroke-linejoin="round" fill="none"/><path d="M 474 147 L 475 144 L 478 143 L 480 144 L 481 146 L 479 150 L 475 153 L 474 154" stroke="#ffffff" stroke-width="2" stroke-linecap="round" stroke-linejoin="round" fill="none"/><path d="M 495 133 L 493 131 L 495 129 L 499 126 L 505 123 L 508 121 L 509 119" stroke="#ffffff" stroke-width="2" stroke-linecap="round" stroke-linejoin="round" fill="none"/><path d="M 504 116 L 502 115 L 502 118 L 500 127 L 499 139 L 497 147 L 496 152 L 496 152" stroke="#ffffff" stroke-width="2" stroke-linecap="round" stroke-linejoin="round" fill="none"/><path d="M 506 140 L 506 139 L 507 134 L 510 133 L 512 133 L 513 133" stroke="#ffffff" stroke-width="2" stroke-linecap="round" stroke-linejoin="round" fill="none"/><path d="M 508 145 L 505 147 L 504 147 L 505 147 L 509 145 L 516 140 L 521 137" stroke="#ffffff" stroke-width="2" stroke-linecap="round" stroke-linejoin="round" fill="none"/><path d="M 535 127 L 535 127 L 532 126 L 531 129 L 531 134 L 532 138 L 533 139" stroke="#ffffff" stroke-width="2" stroke-linecap="round" stroke-linejoin="round" fill="none"/><path d="M 537 129 L 537 128 L 537 125 L 539 123 L 546 118 L 554 115 L 559 114 L 560 113" stroke="#ffffff" stroke-width="2" stroke-linecap="round" stroke-linejoin="round" fill="none"/><path d="M 553 105 L 552 104 L 552 107 L 551 116 L 549 129 L 546 140 L 544 146 L 542 149 L 542 149" stroke="#ffffff" stroke-width="2" stroke-linecap="round" stroke-linejoin="round" fill="none"/><path d="M 567 121 L 565 121 L 565 124 L 567 128 L 568 129" stroke="#ffffff" stroke-width="2" stroke-linecap="round" stroke-linejoin="round" fill="none"/><path d="M 577 127 L 576 127 L 575 127 L 575 126 L 573 125 L 571 125 L 569 126 L 566 130 L 564 136 L 564 140 L 567 142 L 572 141 L 576 139" stroke="#ffffff" stroke-width="2" stroke-linecap="round" stroke-linejoin="round" fill="none"/><path d="M 581 110 L 579 110 L 576 116" stroke="#ffffff" stroke-width="2" stroke-linecap="round" stroke-linejoin="round" fill="none"/><path d="M 584 109 L 584 109 L 585 108 L 585 109 L 584 111" stroke="#ffffff" stroke-width="2" stroke-linecap="round" stroke-linejoin="round" fill="none"/><path d="M 607 124 L 606 123 L 605 122 L 601 126 L 599 132 L 598 139 L 600 144 L 604 145 L 609 144 L 614 140 L 615 139" stroke="#ffffff" stroke-width="2" stroke-linecap="round" stroke-linejoin="round" fill="none"/><path d="M 615 121 L 613 122 L 603 142 L 601 149 L 598 152 L 597 154" stroke="#ffffff" stroke-width="2" stroke-linecap="round" stroke-linejoin="round" fill="none"/><path d="M 592 139 L 592 138 L 595 133 L 602 130 L 610 126 L 618 122 L 620 121" stroke="#ffffff" stroke-width="2" stroke-linecap="round" stroke-linejoin="round" fill="none"/><path d="M 630 107 L 630 106 L 630 105 L 629 108 L 628 113 L 627 115" stroke="#ffffff" stroke-width="2" stroke-linecap="round" stroke-linejoin="round" fill="none"/><path d="M 623 120 L 624 120 L 624 118 L 625 116 L 628 114 L 630 114 L 631 115 L 631 118 L 630 121 L 629 123 L 628 125 L 627 126" stroke="#ffffff" stroke-width="2" stroke-linecap="round" stroke-linejoin="round" fill="none"/><path d="M 624 127 L 624 127 L 623 128 L 626 127 L 629 125" stroke="#ffffff" stroke-width="2" stroke-linecap="round" stroke-linejoin="round" fill="none"/><path d="M 622 123 L 621 124 L 619 128 L 617 132 L 615 143 L 615 148 L 617 149 L 621 146 L 622 145" stroke="#ffffff" stroke-width="2" stroke-linecap="round" stroke-linejoin="round" fill="none"/><path d="M 639 122 L 640 120 L 638 121 L 633 129 L 627 137 L 621 143 L 618 146" stroke="#ffffff" stroke-width="2" stroke-linecap="round" stroke-linejoin="round" fill="none"/><path d="M 620 128 L 621 127 L 625 132 L 632 139 L 642 146 L 649 148" stroke="#ffffff" stroke-width="2" stroke-linecap="round" stroke-linejoin="round" fill="none"/><path d="M 26 224 L 26 224 L 26 223 L 27 220 L 30 215 L 36 210 L 43 207 L 47 209 L 48 213 L 48 217 L 47 220 L 44 221 L 42 222 L 39 222 L 37 219 L 35 214 L 34 208 L 34 205 L 34 204 L 34 204 L 36 208 L 37 215 L 37 223 L 36 231 L 36 236" stroke="#ffffff" stroke-width="2" stroke-linecap="round" stroke-linejoin="round" fill="none"/><path d="M 45 200 L 45 199 L 51 202 L 58 210 L 63 216" stroke="#ffffff" stroke-width="2" stroke-linecap="round" stroke-linejoin="round" fill="none"/><path d="M 59 192 L 58 193 L 57 198" stroke="#ffffff" stroke-width="2" stroke-linecap="round" stroke-linejoin="round" fill="none"/><path d="M 62 189 L 62 190 L 62 193 L 63 197" stroke="#ffffff" stroke-width="2" stroke-linecap="round" stroke-linejoin="round" fill="none"/><path d="M 96 196 L 94 195 L 93 197 L 93 202 L 93 206" stroke="#ffffff" stroke-width="2" stroke-linecap="round" stroke-linejoin="round" fill="none"/><path d="M 90 210 L 87 211 L 86 215 L 86 219 L 87 221 L 88 222 L 88 221 L 89 220 L 89 218 L 89 216 L 89 212 L 91 207 L 95 201 L 100 198 L 104 197 L 107 200 L 108 206 L 108 214 L 105 223 L 101 230 L 99 234 L 98 234" stroke="#ffffff" stroke-width="2" stroke-linecap="round" stroke-linejoin="round" fill="none"/><path d="M 127 201 L 127 201 L 124 201 L 123 205 L 120 212 L 115 220 L 111 226 L 109 229" stroke="#ffffff" stroke-width="2" stroke-linecap="round" stroke-linejoin="round" fill="none"/><path d="M 117 216 L 117 215 L 120 216 L 120 222 L 121 229 L 121 234" stroke="#ffffff" stroke-width="2" stroke-linecap="round" stroke-linejoin="round" fill="none"/><path d="M 132 213 L 132 216 L 132 219 L 133 222 L 133 223" stroke="#ffffff" stroke-width="2" stroke-linecap="round" stroke-linejoin="round" fill="none"/><path d="M 139 210 L 139 209 L 140 209 L 140 210 L 140 217 L 141 222 L 141 224 L 142 223 L 145 219 L 147 213" stroke="#ffffff" stroke-width="2" stroke-linecap="round" stroke-linejoin="round" fill="none"/><path d="M 156 207 L 156 205 L 158 204 L 160 203 L 162 203 L 163 207 L 163 212 L 161 218 L 158 223 L 156 226 L 156 226" stroke="#ffffff" stroke-width="2" stroke-linecap="round" stroke-linejoin="round" fill="none"/><path d="M 157 212 L 160 211 L 164 212 L 171 214 L 175 215" stroke="#ffffff" stroke-width="2" stroke-linecap="round" stroke-linejoin="round" fill="none"/><path d="M 200 216 L 200 216 L 198 214 L 199 212 L 204 208 L 209 204 L 213 203 L 214 207 L 214 211 L 213 215 L 212 217 L 211 217 L 209 216 L 209 213 L 208 208 L 208 203 L 208 198 L 208 196 L 208 197 L 208 204 L 207 214 L 206 224 L 205 229 L 205 230" stroke="#ffffff" stroke-width="2" stroke-linecap="round" stroke-linejoin="round" fill="none"/><path d="M 220 188 L 220 187 L 222 189 L 226 196 L 229 203" stroke="#ffffff" stroke-width="2" stroke-linecap="round" stroke-linejoin="round" fill="none"/><path d="M 231 220 L 230 218 L 233 212 L 237 207 L 241 206 L 244 206 L 245 208 L 246 211 L 245 214 L 244 216 L 242 217 L 241 217 L 239 214 L 239 209 L 238 202 L 238 196 L 239 194 L 240 194 L 241 200 L 241 208 L 240 215 L 238 221 L 238 224" stroke="#ffffff" stroke-width="2" stroke-linecap="round" stroke-linejoin="round" fill="none"/><path d="M 257 195 L 256 194 L 257 195 L 259 197 L 262 199" stroke="#ffffff" stroke-width="2" stroke-linecap="round" stroke-linejoin="round" fill="none"/><path d="M 270 223 L 268 222 L 268 220 L 270 218 L 272 216 L 274 215 L 276 215 L 275 218 L 272 222 L 270 224" stroke="#ffffff" stroke-width="2" stroke-linecap="round" stroke-linejoin="round" fill="none"/><path d="M 280 207 L 280 206 L 281 204 L 285 202 L 290 200 L 293 198 L 295 198 L 293 200 L 291 205 L 290 211 L 290 216 L 292 220 L 297 221 L 301 221" stroke="#ffffff" stroke-width="2" stroke-linecap="round" stroke-linejoin="round" fill="none"/><path d="M 327 199 L 327 199 L 328 193 L 331 189 L 335 187 L 339 187 L 340 193 L 339 199 L 336 206 L 333 211 L 330 213 L 328 214 L 328 213 L 329 212 L 332 211 L 336 210 L 343 208 L 350 206 L 354 205" stroke="#ffffff" stroke-width="2" stroke-linecap="round" stroke-linejoin="round" fill="none"/><path d="M 365 187 L 363 188 L 363 188 L 362 197 L 362 205 L 363 210 L 364 211" stroke="#ffffff" stroke-width="2" stroke-linecap="round" stroke-linejoin="round" fill="none"/><path d="M 366 188 L 366 186 L 367 180 L 369 179 L 371 179 L 373 180 L 375 184 L 377 189 L 377 194 L 377 199 L 376 203 L 376 203" stroke="#ffffff" stroke-width="2" stroke-linecap="round" stroke-linejoin="round" fill="none"/><path d="M 369 198 L 370 195 L 371 195 L 373 195" stroke="#ffffff" stroke-width="2" stroke-linecap="round" stroke-linejoin="round" fill="none"/><path d="M 366 214 L 364 214 L 364 215 L 365 213 L 370 209 L 376 205" stroke="#ffffff" stroke-width="2" stroke-linecap="round" stroke-linejoin="round" fill="none"/><path d="M 394 179 L 394 178 L 394 180 L 394 186 L 394 192 L 395 195" stroke="#ffffff" stroke-width="2" stroke-linecap="round" stroke-linejoin="round" fill="none"/><path d="M 395 183 L 395 181 L 395 177 L 395 175 L 398 172 L 402 171 L 405 170 L 407 170 L 408 171 L 408 174 L 407 177 L 405 180" stroke="#ffffff" stroke-width="2" stroke-linecap="round" stroke-linejoin="round" fill="none"/><path d="M 399 185 L 399 185 L 398 180 L 400 179 L 402 178 L 404 178 L 405 178" stroke="#ffffff" stroke-width="2" stroke-linecap="round" stroke-linejoin="round" fill="none"/><path d="M 394 193 L 393 193 L 395 191 L 400 188 L 406 186 L 408 185" stroke="#ffffff" stroke-width="2" stroke-linecap="round" stroke-linejoin="round" fill="none"/><path d="M 390 210 L 393 206 L 400 201 L 407 196 L 410 192 L 410 190 L 409 189 L 406 189 L 404 189 L 403 189 L 403 189 L 404 194 L 404 203 L 404 214 L 404 222 L 405 224" stroke="#ffffff" stroke-width="2" stroke-linecap="round" stroke-linejoin="round" fill="none"/><path d="M 430 187 L 428 186 L 427 186 L 424 187 L 421 191 L 417 195 L 416 201 L 416 205 L 420 206 L 428 205" stroke="#ffffff" stroke-width="2" stroke-linecap="round" stroke-linejoin="round" fill="none"/><path d="M 452 180 L 451 180 L 451 180 L 449 184 L 448 190 L 449 194" stroke="#ffffff" stroke-width="2" stroke-linecap="round" stroke-linejoin="round" fill="none"/><path d="M 459 177 L 459 176 L 457 182 L 455 194 L 452 206 L 449 214 L 448 218" stroke="#ffffff" stroke-width="2" stroke-linecap="round" stroke-linejoin="round" fill="none"/><path d="M 467 175 L 467 173 L 467 170 L 468 170 L 470 171 L 471 174 L 472 178" stroke="#ffffff" stroke-width="2" stroke-linecap="round" stroke-linejoin="round" fill="none"/><path d="M 467 181 L 467 176 L 470 174 L 472 174" stroke="#ffffff" stroke-width="2" stroke-linecap="round" stroke-linejoin="round" fill="none"/><path d="M 473 181 L 472 182 L 472 182 L 472 181 L 474 179 L 476 177 L 477 175" stroke="#ffffff" stroke-width="2" stroke-linecap="round" stroke-linejoin="round" fill="none"/><path d="M 474 179 L 473 180 L 470 182 L 469 184 L 466 192 L 466 197 L 466 198" stroke="#ffffff" stroke-width="2" stroke-linecap="round" stroke-linejoin="round" fill="none"/><path d="M 466 193 L 466 188 L 468 185 L 472 181 L 477 180 L 481 180 L 482 182 L 482 184 L 481 188 L 478 191" stroke="#ffffff" stroke-width="2" stroke-linecap="round" stroke-linejoin="round" fill="none"/><path d="M 471 194 L 471 194 L 469 197 L 469 200 L 468 203 L 468 205 L 468 206 L 468 205 L 469 202 L 470 198 L 472 194 L 474 190 L 476 187 L 478 187 L 479 189 L 479 191 L 478 193 L 477 194 L 476 194 L 475 194 L 474 191 L 474 188 L 474 185 L 474 183 L 475 183 L 476 188 L 476 197 L 474 208 L 473 216 L 473 219" stroke="#ffffff" stroke-width="2" stroke-linecap="round" stroke-linejoin="round" fill="none"/><path d="M 494 202 L 494 198 L 496 197 L 499 197 L 500 199 L 500 202 L 499 205 L 498 206" stroke="#ffffff" stroke-width="2" stroke-linecap="round" stroke-linejoin="round" fill="none"/><path d="M 503 189 L 503 188 L 508 181 L 513 180 L 518 180 L 520 180 L 521 180 L 519 183 L 516 188 L 512 195 L 511 202 L 512 206 L 516 209 L 520 209" stroke="#ffffff" stroke-width="2" stroke-linecap="round" stroke-linejoin="round" fill="none"/><path d="M 550 184 L 550 184 L 551 177 L 555 175 L 560 174 L 561 174" stroke="#ffffff" stroke-width="2" stroke-linecap="round" stroke-linejoin="round" fill="none"/><path d="M 549 192 L 547 191 L 551 189 L 557 185 L 563 181" stroke="#ffffff" stroke-width="2" stroke-linecap="round" stroke-linejoin="round" fill="none"/><path d="M 555 171 L 553 169 L 553 169 L 553 175 L 554 182 L 554 191" stroke="#ffffff" stroke-width="2" stroke-linecap="round" stroke-linejoin="round" fill="none"/><path d="M 544 202 L 542 205 L 545 208 L 548 212 L 550 214" stroke="#ffffff" stroke-width="2" stroke-linecap="round" stroke-linejoin="round" fill="none"/><path d="M 571 191 L 571 189 L 575 183 L 581 180 L 587 178 L 588 177" stroke="#ffffff" stroke-width="2" stroke-linecap="round" stroke-linejoin="round" fill="none"/><path d="M 582 173 L 582 173 L 579 174 L 576 184 L 572 197 L 570 206 L 570 210 L 570 210" stroke="#ffffff" stroke-width="2" stroke-linecap="round" stroke-linejoin="round" fill="none"/><path d="M 587 193 L 587 192 L 591 188 L 594 187 L 595 187" stroke="#ffffff" stroke-width="2" stroke-linecap="round" stroke-linejoin="round" fill="none"/><path d="M 586 201 L 585 201 L 584 202 L 587 200 L 595 196 L 607 191" stroke="#ffffff" stroke-width="2" stroke-linecap="round" stroke-linejoin="round" fill="none"/></svg>
