<svg xmlns="http://www.w3.org/2000/svg" width="680" height="620" viewBox="0 0 680 620"><path d="M 39 78 L 35 80 L 34 90 L 32 104 L 32 125 L 32 150 L 31 182 L 30 217 L 28 257 L 26 301 L 24 347 L 21 390 L 18 432 L 15 473 L 12 510 L 10 543 L 10 569 L 10 587 L 11 598 L 16 603 L 24 606 L 35 608 L 47 609 L 61 609 L 81 609 L 103 609 L 126 609 L 149 609 L 173 609 L 201 608 L 232 605 L 264 601 L 297 596 L 333 591 L 367 588 L 403 584 L 440 579 L 474 573 L 508 565 L 541 555 L 569 545 L 595 535 L 616 525 L 634 511 L 650 497 L 661 482 L 668 465 L 674 441 L 677 414 L 677 383 L 675 350 L 669 315 L 661 279 L 653 243 L 643 207 L 634 173 L 624 139 L 613 108 L 599 84 L 583 61 L 563 43 L 541 28 L 514 16 L 483 10 L 450 10 L 412 11 L 372 17 L 332 24 L 291 35 L 249 49 L 210 64 L 172 81 L 137 100 L 107 121 L 75 147 L 49 181 L 36 218 L 33 259 L 40 305 L 60 353 L 86 401 L 118 446 L 156 485 L 196 518 L 237 542 L 276 558 L 316 570 L 356 576 L 394 577 L 430 573 L 464 563 L 494 550 L 523 535 L 548 518 L 566 497 L 581 468 L 590 431 L 593 392 L 593 348 L 583 302 L 568 261 L 546 221 L 518 184 L 488 153 L 453 126 L 413 107 L 371 97 L 329 95 L 287 99 L 250 118 L 212 145 L 180 182 L 157 225 L 143 273 L 138 327 L 141 382 L 158 434 L 185 482 L 220 526 L 258 562 L 299 589 L 338 605 L 376 610 L 409 608 L 435 594 L 456 575 L 474 548 L 488 514 L 497 476 L 498 436 L 495 394 L 484 351 L 467 308 L 445 273 L 418 242 L 387 215 L 354 194 L 321 182 L 287 177 L 255 180 L 227 195 L 203 221 L 189 254 L 185 291 L 187 332 L 200 379 L 217 422 L 241 464 L 271 504 L 305 537 L 339 562 L 373 579 L 404 588 L 433 588 L 455 577 L 476 557 L 494 531 L 509 500 L 520 463 L 523 423 L 524 379 L 519 333 L 506 287 L 488 243 L 464 201 L 435 164 L 401 133 L 363 108 L 325 95 L 294 94 L 266 100 L 242 118 L 221 141 L 201 173 L 185 211 L 174 251 L 168 293 L 166 339 L 168 378 L 179 410 L 197 443 L 221 475 L 249 501 L 276 521 L 301 530 L 324 531 L 345 518 L 361 499 L 376 474 L 389 442 L 397 410 L 401 375 L 401 341 L 396 308 L 387 274 L 375 242 L 362 220 L 348 207 L 334 204 L 323 205 L 314 216 L 308 238 L 305 268 L 305 302 L 305 337 L 308 368 L 312 397 L 316 418 L 318 429 L 319 433 L 319 427 L 312 405 L 304 375 L 295 344 L 287 314 L 279 294 L 272 283 L 268 279 L 268 284 L 269 293 L 279 323 L 287 346 L 292 364 L 292 383 L 290 408 L 283 434 L 275 455" stroke="#ff0000" stroke-width="20" stroke-linecap="round" stroke-linejoin="round" fill="none"/></svg>
