<svg xmlns="http://www.w3.org/2000/svg" width="651" height="344" viewBox="0 0 651 344"><path d="M 16 25 L 15 24 L 15 22 L 14 22 L 14 25 L 13 33 L 11 44 L 10 54 L 11 58 L 13 59" stroke="#ffffff" stroke-width="2" stroke-linecap="round" stroke-linejoin="round" fill="none"/><path d="M 32 23 L 31 21 L 30 21 L 29 24 L 29 29 L 29 33 L 29 35" stroke="#ffffff" stroke-width="2" stroke-linecap="round" stroke-linejoin="round" fill="none"/><path d="M 29 27 L 29 25 L 29 22 L 30 21 L 33 19 L 36 18 L 39 18 L 41 20 L 42 24 L 42 30 L 40 38 L 38 48 L 36 55 L 36 58 L 37 59" stroke="#ffffff" stroke-width="2" stroke-linecap="round" stroke-linejoin="round" fill="none"/><path d="M 80 10 L 78 11 L 77 12 L 74 15 L 70 24 L 64 39 L 57 54 L 51 66 L 48 74 L 47 78" stroke="#ffffff" stroke-width="2" stroke-linecap="round" stroke-linejoin="round" fill="none"/><path d="M 87 40 L 88 40 L 87 40 L 86 41 L 84 49 L 83 58 L 83 65 L 84 69" stroke="#ffffff" stroke-width="2" stroke-linecap="round" stroke-linejoin="round" fill="none"/><path d="M 102 44 L 102 43 L 101 41 L 101 40 L 103 40 L 105 40 L 107 42 L 108 45 L 108 47 L 107 50 L 104 53 L 101 55 L 98 56 L 97 57 L 98 57 L 100 57 L 104 57 L 109 57 L 115 56 L 121 55" stroke="#ffffff" stroke-width="2" stroke-linecap="round" stroke-linejoin="round" fill="none"/><path d="M 220 30 L 217 29 L 214 29 L 209 30 L 205 37 L 202 47 L 202 54 L 207 55 L 214 52 L 221 47" stroke="#ffffff" stroke-width="2" stroke-linecap="round" stroke-linejoin="round" fill="none"/><path d="M 254 13 L 252 13 L 249 13 L 247 13 L 244 19 L 241 30 L 238 43 L 238 51 L 240 53 L 243 52 L 248 47 L 253 41 L 256 35 L 257 31 L 254 31 L 248 33 L 241 38 L 237 45 L 237 48" stroke="#ffffff" stroke-width="2" stroke-linecap="round" stroke-linejoin="round" fill="none"/><path d="M 282 25 L 278 25 L 275 25 L 272 28 L 270 34 L 271 40 L 274 43 L 279 42 L 283 37 L 287 32 L 289 26 L 288 22 L 283 22 L 276 28 L 274 30" stroke="#ffffff" stroke-width="2" stroke-linecap="round" stroke-linejoin="round" fill="none"/><path d="M 118 96 L 118 95 L 118 94 L 116 94 L 113 97 L 109 103 L 106 108 L 104 112 L 104 114 L 107 114 L 113 113 L 121 111 L 126 108 L 129 106" stroke="#ffffff" stroke-width="2" stroke-linecap="round" stroke-linejoin="round" fill="none"/><path d="M 118 98 L 117 97 L 116 97 L 116 100 L 116 110 L 115 124 L 115 135" stroke="#ffffff" stroke-width="2" stroke-linecap="round" stroke-linejoin="round" fill="none"/><path d="M 129 121 L 128 121 L 127 121 L 126 124 L 126 129 L 127 131" stroke="#ffffff" stroke-width="2" stroke-linecap="round" stroke-linejoin="round" fill="none"/><path d="M 145 104 L 144 104 L 141 104 L 140 105 L 140 108 L 142 112 L 145 117 L 150 119 L 152 121 L 153 122 L 152 122 L 148 124 L 143 126 L 141 126" stroke="#ffffff" stroke-width="2" stroke-linecap="round" stroke-linejoin="round" fill="none"/><path d="M 142 106 L 142 105 L 142 102 L 142 101 L 144 100 L 149 101 L 153 102" stroke="#ffffff" stroke-width="2" stroke-linecap="round" stroke-linejoin="round" fill="none"/><path d="M 169 120 L 168 120 L 166 119 L 166 116 L 169 112 L 174 110 L 178 109 L 182 111 L 186 112 L 194 109" stroke="#ffffff" stroke-width="2" stroke-linecap="round" stroke-linejoin="round" fill="none"/><path d="M 229 93 L 226 93 L 224 94 L 222 99 L 220 110 L 217 121 L 216 127 L 216 130" stroke="#ffffff" stroke-width="2" stroke-linecap="round" stroke-linejoin="round" fill="none"/><path d="M 235 117 L 234 117 L 232 118 L 229 120 L 228 123 L 229 125" stroke="#ffffff" stroke-width="2" stroke-linecap="round" stroke-linejoin="round" fill="none"/><path d="M 258 93 L 255 93 L 251 94 L 249 96 L 248 100 L 249 103 L 252 106 L 255 107 L 258 109 L 259 111 L 260 113 L 260 114 L 258 114 L 255 114 L 250 114" stroke="#ffffff" stroke-width="2" stroke-linecap="round" stroke-linejoin="round" fill="none"/><path d="M 250 97 L 250 95 L 252 94 L 258 93 L 269 92 L 274 92" stroke="#ffffff" stroke-width="2" stroke-linecap="round" stroke-linejoin="round" fill="none"/><path d="M 356 77 L 354 76 L 352 76 L 350 81 L 349 95 L 349 110 L 350 119 L 352 122 L 353 123" stroke="#ffffff" stroke-width="2" stroke-linecap="round" stroke-linejoin="round" fill="none"/><path d="M 350 100 L 350 99 L 349 96 L 350 95 L 355 95 L 362 97 L 370 99" stroke="#ffffff" stroke-width="2" stroke-linecap="round" stroke-linejoin="round" fill="none"/><path d="M 379 97 L 376 97 L 374 97 L 374 99 L 375 102" stroke="#ffffff" stroke-width="2" stroke-linecap="round" stroke-linejoin="round" fill="none"/><path d="M 382 98 L 380 98 L 379 98 L 378 100 L 378 102 L 379 102" stroke="#ffffff" stroke-width="2" stroke-linecap="round" stroke-linejoin="round" fill="none"/><path d="M 386 98 L 386 97 L 386 96 L 386 97 L 384 103 L 380 111 L 376 119 L 376 121" stroke="#ffffff" stroke-width="2" stroke-linecap="round" stroke-linejoin="round" fill="none"/><path d="M 396 108 L 395 108 L 394 108 L 395 105 L 398 102 L 402 100 L 404 101 L 404 107 L 401 113 L 400 116 L 400 117" stroke="#ffffff" stroke-width="2" stroke-linecap="round" stroke-linejoin="round" fill="none"/><path d="M 407 93 L 407 89 L 406 84 L 408 81 L 410 79 L 412 80 L 412 82 L 410 86 L 407 89 L 406 90" stroke="#ffffff" stroke-width="2" stroke-linecap="round" stroke-linejoin="round" fill="none"/><path d="M 448 73 L 447 71 L 445 70 L 444 74 L 443 84 L 441 98 L 440 109 L 440 114 L 440 116" stroke="#ffffff" stroke-width="2" stroke-linecap="round" stroke-linejoin="round" fill="none"/><path d="M 440 96 L 439 94 L 440 92 L 445 90 L 453 90 L 461 90" stroke="#ffffff" stroke-width="2" stroke-linecap="round" stroke-linejoin="round" fill="none"/><path d="M 473 77 L 469 77 L 467 78 L 466 81 L 467 85 L 469 87" stroke="#ffffff" stroke-width="2" stroke-linecap="round" stroke-linejoin="round" fill="none"/><path d="M 479 74 L 480 72 L 480 75 L 477 84 L 473 95 L 467 107 L 463 114" stroke="#ffffff" stroke-width="2" stroke-linecap="round" stroke-linejoin="round" fill="none"/><path d="M 495 79 L 494 78 L 493 78 L 492 84 L 491 93 L 490 99 L 491 101 L 493 99 L 496 95 L 499 93 L 501 92 L 505 93 L 511 94 L 519 93" stroke="#ffffff" stroke-width="2" stroke-linecap="round" stroke-linejoin="round" fill="none"/><path d="M 288 164 L 288 163 L 289 161 L 292 158 L 300 153 L 313 146 L 322 143 L 324 142" stroke="#ffffff" stroke-width="2" stroke-linecap="round" stroke-linejoin="round" fill="none"/><path d="M 315 138 L 314 137 L 313 137 L 313 141 L 313 152 L 311 167 L 309 178 L 308 181 L 307 181 L 306 178 L 306 171 L 307 163 L 310 157 L 314 155 L 317 159 L 318 169 L 315 180 L 311 189 L 308 193" stroke="#ffffff" stroke-width="2" stroke-linecap="round" stroke-linejoin="round" fill="none"/><path d="M 349 157 L 347 156 L 345 155 L 343 157 L 342 160 L 340 163 L 338 166 L 336 170 L 336 172 L 337 174 L 341 175 L 345 176" stroke="#ffffff" stroke-width="2" stroke-linecap="round" stroke-linejoin="round" fill="none"/><path d="M 394 142 L 392 143 L 389 146 L 386 152 L 382 162 L 378 172 L 375 178 L 374 181 L 373 182" stroke="#ffffff" stroke-width="2" stroke-linecap="round" stroke-linejoin="round" fill="none"/><path d="M 369 154 L 369 153 L 369 150 L 371 150 L 377 154 L 384 160 L 393 165 L 400 167" stroke="#ffffff" stroke-width="2" stroke-linecap="round" stroke-linejoin="round" fill="none"/><path d="M 427 137 L 425 136 L 422 135 L 420 136 L 417 141 L 414 148 L 409 156 L 405 163 L 402 166 L 401 166" stroke="#ffffff" stroke-width="2" stroke-linecap="round" stroke-linejoin="round" fill="none"/><path d="M 410 151 L 410 150 L 411 150 L 411 154 L 409 163 L 409 170 L 409 174" stroke="#ffffff" stroke-width="2" stroke-linecap="round" stroke-linejoin="round" fill="none"/><path d="M 432 148 L 432 146 L 432 144 L 432 143 L 435 144 L 437 148 L 437 149" stroke="#ffffff" stroke-width="2" stroke-linecap="round" stroke-linejoin="round" fill="none"/><path d="M 437 161 L 438 162 L 439 160 L 445 153 L 456 142 L 466 131 L 468 128" stroke="#ffffff" stroke-width="2" stroke-linecap="round" stroke-linejoin="round" fill="none"/><path d="M 369 206 L 369 207 L 368 207 L 368 205 L 372 202 L 379 198 L 384 196" stroke="#ffffff" stroke-width="2" stroke-linecap="round" stroke-linejoin="round" fill="none"/><path d="M 369 217 L 368 217 L 368 216 L 371 212 L 376 207 L 379 205" stroke="#ffffff" stroke-width="2" stroke-linecap="round" stroke-linejoin="round" fill="none"/><path d="M 379 192 L 378 192 L 376 192 L 376 193 L 376 200 L 376 212 L 378 222 L 378 228 L 375 229 L 372 229 L 371 227 L 370 226 L 373 224 L 378 221 L 385 216" stroke="#ffffff" stroke-width="2" stroke-linecap="round" stroke-linejoin="round" fill="none"/><path d="M 401 204 L 400 204 L 400 201 L 401 198 L 403 196 L 405 195 L 406 195 L 406 196 L 405 198 L 403 203 L 400 210 L 399 218 L 401 222 L 406 221 L 411 215 L 415 208 L 417 202 L 416 199 L 416 198 L 416 200 L 417 204 L 420 208 L 422 211 L 423 211" stroke="#ffffff" stroke-width="2" stroke-linecap="round" stroke-linejoin="round" fill="none"/><path d="M 428 184 L 424 184 L 423 185 L 423 188 L 423 190" stroke="#ffffff" stroke-width="2" stroke-linecap="round" stroke-linejoin="round" fill="none"/><path d="M 431 183 L 431 181 L 431 179 L 431 180 L 430 185" stroke="#ffffff" stroke-width="2" stroke-linecap="round" stroke-linejoin="round" fill="none"/><path d="M 456 193 L 454 192 L 453 191 L 452 191 L 451 191 L 448 193 L 445 197 L 442 202 L 441 206 L 442 209 L 446 211 L 454 212 L 462 212" stroke="#ffffff" stroke-width="2" stroke-linecap="round" stroke-linejoin="round" fill="none"/><path d="M 307 332 L 305 334" stroke="#ffffff" stroke-width="2" stroke-linecap="round" stroke-linejoin="round" fill="none"/><path d="M 43 272 L 42 271 L 40 269 L 40 270 L 40 278 L 40 291 L 40 302 L 41 307" stroke="#ffffff" stroke-width="2" stroke-linecap="round" stroke-linejoin="round" fill="none"/><path d="M 58 272 L 57 271 L 58 275 L 62 284 L 67 292 L 70 296" stroke="#ffffff" stroke-width="2" stroke-linecap="round" stroke-linejoin="round" fill="none"/><path d="M 70 265 L 67 261 L 65 256 L 65 253 L 67 250 L 68 251 L 69 255 L 69 261 L 68 266" stroke="#ffffff" stroke-width="2" stroke-linecap="round" stroke-linejoin="round" fill="none"/><path d="M 86 273 L 87 274 L 87 275 L 88 274 L 93 271 L 101 266" stroke="#ffffff" stroke-width="2" stroke-linecap="round" stroke-linejoin="round" fill="none"/><path d="M 119 264 L 117 264 L 115 264 L 116 263 L 119 262 L 124 261 L 127 262 L 127 266 L 125 272 L 121 279 L 118 283 L 117 284" stroke="#ffffff" stroke-width="2" stroke-linecap="round" stroke-linejoin="round" fill="none"/><path d="M 121 272 L 121 269 L 125 271 L 131 276 L 137 280" stroke="#ffffff" stroke-width="2" stroke-linecap="round" stroke-linejoin="round" fill="none"/><path d="M 164 265 L 163 264 L 163 262 L 165 259 L 171 255 L 176 252 L 179 250 L 179 249" stroke="#ffffff" stroke-width="2" stroke-linecap="round" stroke-linejoin="round" fill="none"/><path d="M 175 248 L 174 248 L 173 248 L 173 249 L 173 252 L 173 258 L 173 261" stroke="#ffffff" stroke-width="2" stroke-linecap="round" stroke-linejoin="round" fill="none"/><path d="M 167 249 L 166 249 L 165 250 L 165 252 L 168 255 L 169 256" stroke="#ffffff" stroke-width="2" stroke-linecap="round" stroke-linejoin="round" fill="none"/><path d="M 181 238 L 180 239 L 177 242 L 174 248 L 172 255 L 171 260" stroke="#ffffff" stroke-width="2" stroke-linecap="round" stroke-linejoin="round" fill="none"/><path d="M 173 257 L 174 257 L 173 258 L 170 265 L 166 273 L 163 280 L 163 281" stroke="#ffffff" stroke-width="2" stroke-linecap="round" stroke-linejoin="round" fill="none"/><path d="M 168 265 L 170 261 L 173 259 L 178 258 L 182 257 L 185 257 L 186 258 L 184 259 L 180 261 L 176 265 L 172 269 L 171 274 L 172 279 L 176 281 L 180 282 L 183 281 L 184 281" stroke="#ffffff" stroke-width="2" stroke-linecap="round" stroke-linejoin="round" fill="none"/><path d="M 185 263 L 183 262 L 182 262 L 180 265 L 178 273 L 175 281 L 172 288 L 172 289" stroke="#ffffff" stroke-width="2" stroke-linecap="round" stroke-linejoin="round" fill="none"/><path d="M 165 281 L 166 279 L 168 276 L 175 271 L 185 265" stroke="#ffffff" stroke-width="2" stroke-linecap="round" stroke-linejoin="round" fill="none"/><path d="M 195 241 L 193 242 L 192 245 L 191 252 L 189 260 L 188 267" stroke="#ffffff" stroke-width="2" stroke-linecap="round" stroke-linejoin="round" fill="none"/><path d="M 188 262 L 188 260 L 189 258 L 191 256 L 194 253 L 197 251 L 199 250 L 198 253 L 196 261 L 193 271 L 191 280 L 189 286 L 188 287" stroke="#ffffff" stroke-width="2" stroke-linecap="round" stroke-linejoin="round" fill="none"/><path d="M 185 267 L 186 267 L 187 267 L 191 270 L 200 274 L 208 274" stroke="#ffffff" stroke-width="2" stroke-linecap="round" stroke-linejoin="round" fill="none"/><path d="M 217 258 L 217 257 L 215 257 L 213 263 L 213 270 L 213 275 L 215 277 L 216 277" stroke="#ffffff" stroke-width="2" stroke-linecap="round" stroke-linejoin="round" fill="none"/><path d="M 215 261 L 215 260 L 215 257 L 215 255 L 215 253 L 217 252 L 222 251 L 227 250 L 231 249 L 232 251 L 232 254 L 232 259 L 232 262 L 232 265 L 232 266" stroke="#ffffff" stroke-width="2" stroke-linecap="round" stroke-linejoin="round" fill="none"/><path d="M 222 266 L 221 266 L 219 266 L 219 265 L 219 264 L 222 263" stroke="#ffffff" stroke-width="2" stroke-linecap="round" stroke-linejoin="round" fill="none"/><path d="M 220 274 L 220 275 L 217 278 L 217 279 L 218 278 L 223 275 L 231 270" stroke="#ffffff" stroke-width="2" stroke-linecap="round" stroke-linejoin="round" fill="none"/><path d="M 256 255 L 253 255 L 252 255 L 251 257 L 252 260 L 255 264" stroke="#ffffff" stroke-width="2" stroke-linecap="round" stroke-linejoin="round" fill="none"/><path d="M 268 260 L 267 259 L 266 259 L 263 259 L 260 261 L 256 265 L 254 271 L 254 275 L 259 277 L 267 276 L 273 274" stroke="#ffffff" stroke-width="2" stroke-linecap="round" stroke-linejoin="round" fill="none"/><path d="M 330 249 L 330 248 L 330 247 L 329 249 L 325 257 L 319 269 L 314 280 L 311 286 L 311 289" stroke="#ffffff" stroke-width="2" stroke-linecap="round" stroke-linejoin="round" fill="none"/><path d="M 317 268 L 317 266 L 318 263 L 319 264 L 320 271 L 320 281 L 321 290 L 321 294" stroke="#ffffff" stroke-width="2" stroke-linecap="round" stroke-linejoin="round" fill="none"/><path d="M 334 273 L 334 272 L 333 269 L 333 267 L 335 266 L 338 265 L 341 268 L 342 270" stroke="#ffffff" stroke-width="2" stroke-linecap="round" stroke-linejoin="round" fill="none"/><path d="M 340 283 L 340 284 L 338 287 L 337 288 L 337 286 L 338 283 L 340 278 L 344 272 L 349 265" stroke="#ffffff" stroke-width="2" stroke-linecap="round" stroke-linejoin="round" fill="none"/><path d="M 367 253 L 365 253 L 363 253 L 362 259 L 361 270 L 361 281 L 361 287 L 363 291" stroke="#ffffff" stroke-width="2" stroke-linecap="round" stroke-linejoin="round" fill="none"/><path d="M 363 274 L 361 274 L 364 275 L 370 275 L 373 274" stroke="#ffffff" stroke-width="2" stroke-linecap="round" stroke-linejoin="round" fill="none"/><path d="M 378 252 L 373 254 L 371 257 L 371 261 L 373 262" stroke="#ffffff" stroke-width="2" stroke-linecap="round" stroke-linejoin="round" fill="none"/><path d="M 382 249 L 382 247 L 381 246 L 380 248 L 380 253 L 381 256" stroke="#ffffff" stroke-width="2" stroke-linecap="round" stroke-linejoin="round" fill="none"/><path d="M 406 243 L 404 242 L 402 242 L 401 245 L 399 250 L 397 256 L 396 257" stroke="#ffffff" stroke-width="2" stroke-linecap="round" stroke-linejoin="round" fill="none"/><path d="M 393 264 L 393 262 L 393 259 L 398 255 L 405 251 L 410 249 L 413 249 L 414 249 L 413 251 L 408 257 L 402 265 L 394 273 L 389 279 L 388 281 L 389 280" stroke="#ffffff" stroke-width="2" stroke-linecap="round" stroke-linejoin="round" fill="none"/><path d="M 401 264 L 401 263 L 401 261 L 402 264 L 402 272 L 402 280 L 402 287 L 402 288" stroke="#ffffff" stroke-width="2" stroke-linecap="round" stroke-linejoin="round" fill="none"/><path d="M 408 263 L 408 261 L 407 261 L 407 265 L 409 271 L 413 274" stroke="#ffffff" stroke-width="2" stroke-linecap="round" stroke-linejoin="round" fill="none"/><path d="M 423 258 L 422 258 L 421 256 L 422 255 L 425 253 L 428 252 L 430 251" stroke="#ffffff" stroke-width="2" stroke-linecap="round" stroke-linejoin="round" fill="none"/><path d="M 428 265 L 427 265 L 425 265 L 425 264 L 426 263 L 429 261 L 430 261" stroke="#ffffff" stroke-width="2" stroke-linecap="round" stroke-linejoin="round" fill="none"/><path d="M 427 280 L 426 280 L 422 281 L 422 282 L 425 279 L 430 274 L 436 268" stroke="#ffffff" stroke-width="2" stroke-linecap="round" stroke-linejoin="round" fill="none"/><path d="M 451 253 L 449 252 L 448 248 L 451 243 L 456 239 L 462 237 L 468 237 L 470 240 L 468 245 L 463 250 L 458 253 L 455 255 L 455 254 L 457 255 L 457 261 L 454 272 L 450 282 L 447 288 L 445 291" stroke="#ffffff" stroke-width="2" stroke-linecap="round" stroke-linejoin="round" fill="none"/><path d="M 489 263 L 489 262 L 488 259 L 492 255 L 500 249 L 507 245 L 509 243 L 508 243 L 506 241 L 504 240 L 502 238 L 501 237 L 501 240 L 500 248 L 500 255 L 500 260" stroke="#ffffff" stroke-width="2" stroke-linecap="round" stroke-linejoin="round" fill="none"/><path d="M 498 241 L 497 240 L 496 240 L 496 244 L 496 249 L 496 251" stroke="#ffffff" stroke-width="2" stroke-linecap="round" stroke-linejoin="round" fill="none"/><path d="M 506 236 L 503 236 L 500 238 L 499 243 L 500 247 L 500 248" stroke="#ffffff" stroke-width="2" stroke-linecap="round" stroke-linejoin="round" fill="none"/><path d="M 502 248 L 501 251 L 496 257 L 490 265 L 486 272 L 485 275 L 485 276" stroke="#ffffff" stroke-width="2" stroke-linecap="round" stroke-linejoin="round" fill="none"/><path d="M 496 258 L 500 252 L 506 249 L 511 248 L 513 248 L 514 250 L 514 251" stroke="#ffffff" stroke-width="2" stroke-linecap="round" stroke-linejoin="round" fill="none"/><path d="M 505 255 L 499 258 L 495 265 L 494 273 L 495 278 L 498 281 L 503 280 L 508 277 L 511 274" stroke="#ffffff" stroke-width="2" stroke-linecap="round" stroke-linejoin="round" fill="none"/><path d="M 512 259 L 508 260 L 504 263 L 501 269 L 498 276 L 496 282 L 495 286" stroke="#ffffff" stroke-width="2" stroke-linecap="round" stroke-linejoin="round" fill="none"/><path d="M 489 280 L 489 278 L 493 272 L 503 265 L 508 261" stroke="#ffffff" stroke-width="2" stroke-linecap="round" stroke-linejoin="round" fill="none"/><path d="M 519 238 L 517 238 L 514 239 L 512 243 L 511 250 L 510 257 L 510 258" stroke="#ffffff" stroke-width="2" stroke-linecap="round" stroke-linejoin="round" fill="none"/><path d="M 512 254 L 512 253 L 512 249 L 516 246 L 520 243 L 523 242 L 525 242 L 524 242 L 522 245 L 519 252 L 515 261 L 511 271 L 507 281 L 505 285 L 505 286" stroke="#ffffff" stroke-width="2" stroke-linecap="round" stroke-linejoin="round" fill="none"/><path d="M 504 259 L 503 259 L 507 262 L 513 268 L 520 273 L 526 275" stroke="#ffffff" stroke-width="2" stroke-linecap="round" stroke-linejoin="round" fill="none"/><path d="M 537 254 L 535 253 L 532 253 L 531 256 L 531 262 L 531 268 L 532 273 L 534 275" stroke="#ffffff" stroke-width="2" stroke-linecap="round" stroke-linejoin="round" fill="none"/><path d="M 534 257 L 533 255 L 532 253 L 531 251 L 533 249 L 537 247 L 541 245 L 545 245 L 546 247 L 547 252 L 546 258 L 546 263 L 546 267" stroke="#ffffff" stroke-width="2" stroke-linecap="round" stroke-linejoin="round" fill="none"/><path d="M 538 266 L 537 264 L 535 262 L 537 261" stroke="#ffffff" stroke-width="2" stroke-linecap="round" stroke-linejoin="round" fill="none"/><path d="M 536 274 L 533 275 L 530 276 L 536 273 L 546 268 L 551 265" stroke="#ffffff" stroke-width="2" stroke-linecap="round" stroke-linejoin="round" fill="none"/><path d="M 581 236 L 580 237 L 577 239 L 572 243 L 565 248 L 562 252 L 562 253" stroke="#ffffff" stroke-width="2" stroke-linecap="round" stroke-linejoin="round" fill="none"/><path d="M 585 242 L 585 241 L 583 240 L 580 243 L 573 250 L 567 257 L 565 261" stroke="#ffffff" stroke-width="2" stroke-linecap="round" stroke-linejoin="round" fill="none"/><path d="M 575 252 L 576 252 L 576 256 L 575 265 L 573 273 L 572 279 L 573 280" stroke="#ffffff" stroke-width="2" stroke-linecap="round" stroke-linejoin="round" fill="none"/><path d="M 535 266 L 534 266 L 534 265 L 534 263 L 536 260 L 541 256 L 546 253" stroke="#ffffff" stroke-width="2" stroke-linecap="round" stroke-linejoin="round" fill="none"/><path d="M 591 245 L 590 243 L 591 241 L 594 238 L 599 236 L 603 235 L 605 235" stroke="#ffffff" stroke-width="2" stroke-linecap="round" stroke-linejoin="round" fill="none"/><path d="M 587 256 L 586 256 L 586 254 L 590 251 L 597 247 L 604 244 L 607 243 L 605 243 L 603 244 L 601 246 L 599 249 L 597 253 L 595 262 L 593 271 L 593 278 L 593 281 L 595 281 L 596 281" stroke="#ffffff" stroke-width="2" stroke-linecap="round" stroke-linejoin="round" fill="none"/><path d="M 635 253 L 630 252 L 628 253 L 628 254 L 627 255 L 623 257 L 618 260 L 614 263 L 614 265 L 619 269 L 627 272 L 635 276 L 641 278" stroke="#ffffff" stroke-width="2" stroke-linecap="round" stroke-linejoin="round" fill="none"/></svg>
