<svg xmlns="http://www.w3.org/2000/svg" width="696" height="700" viewBox="0 0 696 700"><path d="M 309 770 L 309 770 L 310 768" stroke="#ffffff" stroke-width="2" stroke-linecap="round" stroke-linejoin="round" fill="none"/><path d="M 25 23 L 25 22 L 24 21 L 23 21 L 21 21 L 20 23 L 17 25 L 14 27 L 11 30 L 10 32 L 10 34 L 12 34 L 16 34 L 20 32 L 25 30 L 30 28 L 33 27" stroke="#ffffff" stroke-width="2" stroke-linecap="round" stroke-linejoin="round" fill="none"/><path d="M 22 17 L 21 19 L 21 26 L 21 35 L 21 42 L 21 45" stroke="#ffffff" stroke-width="2" stroke-linecap="round" stroke-linejoin="round" fill="none"/><path d="M 52 16 L 50 17 L 48 22 L 44 33 L 40 44 L 37 53 L 35 59 L 33 62" stroke="#ffffff" stroke-width="2" stroke-linecap="round" stroke-linejoin="round" fill="none"/><path d="M 59 40 L 58 40 L 57 41 L 56 43 L 56 47 L 56 51 L 57 54" stroke="#ffffff" stroke-width="2" stroke-linecap="round" stroke-linejoin="round" fill="none"/><path d="M 71 39 L 70 39 L 68 41 L 68 43 L 68 48 L 69 50 L 72 50 L 75 47 L 77 43 L 79 40 L 79 37 L 77 36 L 74 36 L 70 38 L 68 40" stroke="#ffffff" stroke-width="2" stroke-linecap="round" stroke-linejoin="round" fill="none"/><path d="M 142 29 L 142 28 L 142 26 L 142 25 L 140 25 L 138 25 L 135 27 L 131 31 L 128 38 L 128 43 L 130 46 L 134 45 L 142 39 L 144 37" stroke="#ffffff" stroke-width="2" stroke-linecap="round" stroke-linejoin="round" fill="none"/><path d="M 171 26 L 169 25 L 168 23 L 165 21 L 163 20 L 161 19 L 159 20 L 159 23 L 158 28 L 158 34 L 159 40 L 159 43 L 159 45 L 156 45 L 154 43 L 152 40 L 152 38 L 154 35 L 158 33 L 164 30 L 171 26 L 177 23 L 180 22 L 182 22 L 183 23 L 182 24 L 182 26 L 180 30 L 180 33 L 180 36 L 182 38 L 185 37 L 187 32 L 189 27 L 188 22 L 186 21 L 184 21 L 181 24 L 179 26" stroke="#ffffff" stroke-width="2" stroke-linecap="round" stroke-linejoin="round" fill="none"/><path d="M 222 13 L 221 13 L 221 12 L 220 12 L 219 14 L 218 18 L 216 26 L 214 35 L 211 42 L 209 46 L 208 49" stroke="#ffffff" stroke-width="2" stroke-linecap="round" stroke-linejoin="round" fill="none"/><path d="M 241 29 L 241 30 L 242 30 L 245 29 L 251 27 L 257 24 L 261 22 L 262 21" stroke="#ffffff" stroke-width="2" stroke-linecap="round" stroke-linejoin="round" fill="none"/><path d="M 258 24 L 257 24 L 256 25 L 255 25 L 254 27 L 253 33 L 252 40 L 251 46 L 252 49 L 253 49" stroke="#ffffff" stroke-width="2" stroke-linecap="round" stroke-linejoin="round" fill="none"/><path d="M 274 25 L 273 25 L 271 27 L 270 29 L 269 35 L 270 41 L 271 46 L 271 49 L 271 50 L 270 49" stroke="#ffffff" stroke-width="2" stroke-linecap="round" stroke-linejoin="round" fill="none"/><path d="M 271 32 L 270 30 L 270 28 L 271 27 L 275 25 L 279 25 L 282 27 L 282 29 L 282 31 L 280 32 L 278 33 L 276 33 L 275 34 L 274 34 L 274 35 L 274 37 L 276 39 L 280 40 L 284 40 L 287 40" stroke="#ffffff" stroke-width="2" stroke-linecap="round" stroke-linejoin="round" fill="none"/><path d="M 304 11 L 303 10 L 302 11 L 302 14 L 302 18 L 301 23 L 301 25" stroke="#ffffff" stroke-width="2" stroke-linecap="round" stroke-linejoin="round" fill="none"/><path d="M 310 8 L 310 9 L 309 10 L 309 13 L 308 19 L 307 26 L 305 34 L 305 36" stroke="#ffffff" stroke-width="2" stroke-linecap="round" stroke-linejoin="round" fill="none"/><path d="M 318 20 L 317 19 L 317 18 L 317 17 L 318 17 L 319 17" stroke="#ffffff" stroke-width="2" stroke-linecap="round" stroke-linejoin="round" fill="none"/><path d="M 320 27 L 318 29 L 317 29 L 318 29 L 320 26 L 323 23 L 325 21 L 327 19" stroke="#ffffff" stroke-width="2" stroke-linecap="round" stroke-linejoin="round" fill="none"/><path d="M 342 10 L 341 10 L 340 11 L 338 15 L 336 20 L 333 25 L 332 28" stroke="#ffffff" stroke-width="2" stroke-linecap="round" stroke-linejoin="round" fill="none"/><path d="M 336 20 L 337 18 L 337 17 L 338 16 L 342 15 L 347 14 L 349 13 L 347 13 L 346 14 L 345 15 L 343 16 L 342 19 L 341 21 L 339 24 L 336 32 L 336 35 L 337 36" stroke="#ffffff" stroke-width="2" stroke-linecap="round" stroke-linejoin="round" fill="none"/><path d="M 366 19 L 366 17 L 367 16 L 370 15 L 372 14" stroke="#ffffff" stroke-width="2" stroke-linecap="round" stroke-linejoin="round" fill="none"/><path d="M 369 23 L 368 22 L 369 21 L 372 20" stroke="#ffffff" stroke-width="2" stroke-linecap="round" stroke-linejoin="round" fill="none"/><path d="M 348 30 L 348 29 L 349 28 L 351 28 L 353 28 L 355 28" stroke="#ffffff" stroke-width="2" stroke-linecap="round" stroke-linejoin="round" fill="none"/><path d="M 367 36 L 367 37 L 368 35 L 372 32 L 376 28 L 380 26 L 381 23" stroke="#ffffff" stroke-width="2" stroke-linecap="round" stroke-linejoin="round" fill="none"/><path d="M 386 12 L 384 13 L 383 15 L 383 18" stroke="#ffffff" stroke-width="2" stroke-linecap="round" stroke-linejoin="round" fill="none"/><path d="M 390 11 L 389 13 L 389 16" stroke="#ffffff" stroke-width="2" stroke-linecap="round" stroke-linejoin="round" fill="none"/><path d="M 331 50 L 330 50 L 328 50 L 327 50 L 326 51 L 325 54 L 325 57 L 327 60 L 329 63 L 331 65 L 332 65 L 330 65 L 327 65 L 323 65 L 320 63 L 317 60" stroke="#ffffff" stroke-width="2" stroke-linecap="round" stroke-linejoin="round" fill="none"/><path d="M 322 53 L 322 52 L 323 52 L 326 50 L 332 50 L 339 50 L 341 50" stroke="#ffffff" stroke-width="2" stroke-linecap="round" stroke-linejoin="round" fill="none"/><path d="M 354 51 L 353 51 L 352 51 L 350 52 L 349 55 L 348 60 L 349 64 L 352 65 L 355 62 L 357 59 L 358 55 L 358 52 L 356 51 L 353 51 L 348 55" stroke="#ffffff" stroke-width="2" stroke-linecap="round" stroke-linejoin="round" fill="none"/><path d="M 49 83 L 48 83 L 47 84 L 46 86 L 45 92 L 44 102 L 44 111 L 45 118 L 46 120" stroke="#ffffff" stroke-width="2" stroke-linecap="round" stroke-linejoin="round" fill="none"/><path d="M 44 104 L 43 103 L 46 104 L 49 105 L 53 106 L 55 106" stroke="#ffffff" stroke-width="2" stroke-linecap="round" stroke-linejoin="round" fill="none"/><path d="M 66 88 L 65 88 L 64 88 L 64 91 L 64 94 L 65 98 L 66 100" stroke="#ffffff" stroke-width="2" stroke-linecap="round" stroke-linejoin="round" fill="none"/><path d="M 72 87 L 70 87 L 69 87 L 70 89 L 71 93 L 72 100 L 71 108 L 67 116 L 65 120" stroke="#ffffff" stroke-width="2" stroke-linecap="round" stroke-linejoin="round" fill="none"/><path d="M 89 91 L 89 90 L 88 93 L 87 97 L 86 104 L 86 110 L 86 113 L 87 113 L 88 112 L 90 108 L 92 105 L 93 102 L 94 101 L 96 101 L 98 103 L 100 105 L 101 106" stroke="#ffffff" stroke-width="2" stroke-linecap="round" stroke-linejoin="round" fill="none"/><path d="M 153 88 L 154 85 L 155 82 L 157 80 L 157 79 L 156 83 L 153 88 L 150 95" stroke="#ffffff" stroke-width="2" stroke-linecap="round" stroke-linejoin="round" fill="none"/><path d="M 148 100 L 147 100 L 147 99 L 148 97 L 153 95 L 159 92 L 163 90" stroke="#ffffff" stroke-width="2" stroke-linecap="round" stroke-linejoin="round" fill="none"/><path d="M 147 109 L 146 109 L 145 109 L 147 106 L 154 102 L 160 97 L 165 94 L 167 93" stroke="#ffffff" stroke-width="2" stroke-linecap="round" stroke-linejoin="round" fill="none"/><path d="M 156 87 L 156 86 L 155 85 L 155 88 L 155 94 L 156 102 L 156 110 L 158 115 L 160 115 L 164 112 L 165 110" stroke="#ffffff" stroke-width="2" stroke-linecap="round" stroke-linejoin="round" fill="none"/><path d="M 177 85 L 176 84 L 175 85 L 174 89 L 174 95 L 174 96" stroke="#ffffff" stroke-width="2" stroke-linecap="round" stroke-linejoin="round" fill="none"/><path d="M 176 91 L 176 90 L 178 88 L 182 85 L 188 82 L 190 80" stroke="#ffffff" stroke-width="2" stroke-linecap="round" stroke-linejoin="round" fill="none"/><path d="M 186 76 L 185 77 L 183 79 L 182 81 L 182 86 L 182 91 L 183 95 L 183 98" stroke="#ffffff" stroke-width="2" stroke-linecap="round" stroke-linejoin="round" fill="none"/><path d="M 174 104 L 173 103 L 177 100 L 185 96 L 192 91 L 193 90" stroke="#ffffff" stroke-width="2" stroke-linecap="round" stroke-linejoin="round" fill="none"/><path d="M 186 97 L 185 98 L 184 99 L 183 102 L 182 108 L 181 113 L 181 116 L 181 117" stroke="#ffffff" stroke-width="2" stroke-linecap="round" stroke-linejoin="round" fill="none"/><path d="M 188 99 L 187 97 L 187 96 L 187 97 L 188 100 L 188 103 L 188 105 L 189 106 L 191 106 L 195 103 L 200 98" stroke="#ffffff" stroke-width="2" stroke-linecap="round" stroke-linejoin="round" fill="none"/><path d="M 224 74 L 223 73 L 223 72 L 222 72 L 221 72 L 218 75 L 216 79 L 214 82" stroke="#ffffff" stroke-width="2" stroke-linecap="round" stroke-linejoin="round" fill="none"/><path d="M 210 89 L 209 89 L 212 87 L 217 84 L 223 81 L 226 79 L 227 77" stroke="#ffffff" stroke-width="2" stroke-linecap="round" stroke-linejoin="round" fill="none"/><path d="M 218 86 L 217 86 L 216 87 L 215 88 L 214 92 L 214 96 L 214 99" stroke="#ffffff" stroke-width="2" stroke-linecap="round" stroke-linejoin="round" fill="none"/><path d="M 215 94 L 215 93 L 215 91 L 216 89 L 219 87 L 222 86 L 224 86 L 225 87 L 225 89 L 223 92 L 223 94" stroke="#ffffff" stroke-width="2" stroke-linecap="round" stroke-linejoin="round" fill="none"/><path d="M 218 94 L 218 93 L 218 92 L 219 91 L 220 90" stroke="#ffffff" stroke-width="2" stroke-linecap="round" stroke-linejoin="round" fill="none"/><path d="M 217 98 L 217 99 L 216 99 L 217 98 L 220 96 L 222 93 L 222 92" stroke="#ffffff" stroke-width="2" stroke-linecap="round" stroke-linejoin="round" fill="none"/><path d="M 220 82 L 219 82 L 219 83 L 219 89 L 219 95 L 220 102 L 220 106 L 221 109" stroke="#ffffff" stroke-width="2" stroke-linecap="round" stroke-linejoin="round" fill="none"/><path d="M 216 106 L 215 106 L 214 106 L 217 105 L 221 104 L 224 102 L 227 100" stroke="#ffffff" stroke-width="2" stroke-linecap="round" stroke-linejoin="round" fill="none"/><path d="M 216 114 L 214 115 L 213 115 L 216 115 L 221 113 L 225 111 L 230 109 L 233 108" stroke="#ffffff" stroke-width="2" stroke-linecap="round" stroke-linejoin="round" fill="none"/><path d="M 240 98 L 240 99 L 240 100 L 240 102 L 240 104 L 241 106" stroke="#ffffff" stroke-width="2" stroke-linecap="round" stroke-linejoin="round" fill="none"/><path d="M 252 95 L 251 95 L 250 96 L 250 99 L 250 103" stroke="#ffffff" stroke-width="2" stroke-linecap="round" stroke-linejoin="round" fill="none"/><path d="M 270 93 L 269 93 L 268 92 L 268 95 L 269 99 L 270 102 L 271 104 L 272 104 L 274 101 L 276 96 L 280 91 L 284 88 L 287 88 L 287 91 L 287 94 L 285 97 L 282 98 L 280 98 L 278 98 L 277 95 L 277 90 L 277 86 L 277 82 L 277 81 L 277 83 L 277 88 L 277 96 L 277 105 L 277 111" stroke="#ffffff" stroke-width="2" stroke-linecap="round" stroke-linejoin="round" fill="none"/><path d="M 296 102 L 295 102 L 294 101 L 295 100 L 298 100 L 300 99" stroke="#ffffff" stroke-width="2" stroke-linecap="round" stroke-linejoin="round" fill="none"/><path d="M 320 95 L 319 95 L 318 95 L 320 93 L 322 92 L 325 91 L 326 90 L 326 91 L 324 93 L 322 97 L 320 102 L 320 108 L 322 111 L 326 111 L 329 110" stroke="#ffffff" stroke-width="2" stroke-linecap="round" stroke-linejoin="round" fill="none"/><path d="M 343 100 L 341 100 L 343 98 L 348 95 L 354 91 L 358 89 L 358 88" stroke="#ffffff" stroke-width="2" stroke-linecap="round" stroke-linejoin="round" fill="none"/><path d="M 350 86 L 350 85 L 349 86 L 348 93 L 348 103 L 348 112 L 348 117 L 348 119" stroke="#ffffff" stroke-width="2" stroke-linecap="round" stroke-linejoin="round" fill="none"/><path d="M 355 105 L 355 103 L 354 102 L 356 100 L 359 99 L 360 98" stroke="#ffffff" stroke-width="2" stroke-linecap="round" stroke-linejoin="round" fill="none"/><path d="M 356 109 L 354 110 L 353 111 L 355 111 L 359 108 L 362 105" stroke="#ffffff" stroke-width="2" stroke-linecap="round" stroke-linejoin="round" fill="none"/><path d="M 377 101 L 375 101 L 375 100 L 376 99 L 378 97 L 380 96 L 382 95 L 384 96 L 384 99 L 384 101 L 384 103 L 384 104 L 383 104 L 382 102 L 381 99 L 381 95 L 381 90 L 381 87 L 381 86 L 381 87 L 381 90 L 380 96 L 379 102 L 378 108 L 378 110 L 378 111" stroke="#ffffff" stroke-width="2" stroke-linecap="round" stroke-linejoin="round" fill="none"/><path d="M 389 85 L 387 85 L 386 85 L 387 86 L 391 90 L 395 93" stroke="#ffffff" stroke-width="2" stroke-linecap="round" stroke-linejoin="round" fill="none"/><path d="M 414 79 L 412 78 L 412 79 L 412 81" stroke="#ffffff" stroke-width="2" stroke-linecap="round" stroke-linejoin="round" fill="none"/><path d="M 411 85 L 409 85 L 407 86 L 405 90 L 404 94 L 403 98 L 403 100 L 404 100 L 405 100 L 408 99 L 411 97 L 414 97 L 416 98 L 416 100 L 413 104 L 408 108 L 404 112 L 400 113" stroke="#ffffff" stroke-width="2" stroke-linecap="round" stroke-linejoin="round" fill="none"/><path d="M 410 80 L 409 80 L 411 81 L 413 82 L 415 83 L 416 85 L 417 86" stroke="#ffffff" stroke-width="2" stroke-linecap="round" stroke-linejoin="round" fill="none"/><path d="M 446 89 L 444 89 L 444 88 L 448 86 L 454 84 L 458 83 L 462 82" stroke="#ffffff" stroke-width="2" stroke-linecap="round" stroke-linejoin="round" fill="none"/><path d="M 454 78 L 453 78 L 452 80 L 451 85 L 449 93 L 448 100 L 448 102 L 449 100 L 451 98 L 454 97 L 456 98 L 456 101 L 455 105 L 452 108 L 448 111 L 445 112 L 444 112" stroke="#ffffff" stroke-width="2" stroke-linecap="round" stroke-linejoin="round" fill="none"/><path d="M 472 95 L 472 94 L 475 93 L 479 91 L 480 90 L 480 89 L 478 89 L 476 89 L 475 89 L 474 89 L 473 91 L 473 95 L 472 99 L 471 104 L 469 107 L 468 109 L 467 108 L 467 106 L 469 103 L 472 101 L 475 99 L 479 99 L 480 98" stroke="#ffffff" stroke-width="2" stroke-linecap="round" stroke-linejoin="round" fill="none"/><path d="M 489 93 L 488 94 L 487 95 L 486 98 L 486 101 L 487 102" stroke="#ffffff" stroke-width="2" stroke-linecap="round" stroke-linejoin="round" fill="none"/><path d="M 493 94 L 493 93 L 494 93 L 494 97 L 493 101" stroke="#ffffff" stroke-width="2" stroke-linecap="round" stroke-linejoin="round" fill="none"/><path d="M 515 104 L 513 104 L 513 103 L 514 100 L 517 97 L 519 93 L 520 91 L 520 90 L 521 89 L 523 90 L 526 95 L 530 102 L 533 108 L 535 111 L 537 111" stroke="#ffffff" stroke-width="2" stroke-linecap="round" stroke-linejoin="round" fill="none"/><path d="M 534 87 L 532 85 L 531 82 L 531 80 L 534 78 L 537 77 L 539 79 L 539 83 L 537 86 L 535 88 L 534 89" stroke="#ffffff" stroke-width="2" stroke-linecap="round" stroke-linejoin="round" fill="none"/><path d="M 552 90 L 551 90 L 550 90 L 550 89 L 552 87 L 556 85 L 559 84" stroke="#ffffff" stroke-width="2" stroke-linecap="round" stroke-linejoin="round" fill="none"/><path d="M 549 98 L 550 99 L 551 98 L 554 97 L 557 96 L 559 95 L 560 95 L 560 97 L 560 99 L 558 102 L 555 106 L 552 109 L 550 110 L 549 111" stroke="#ffffff" stroke-width="2" stroke-linecap="round" stroke-linejoin="round" fill="none"/><path d="M 580 85 L 579 84 L 578 84 L 577 88 L 576 95 L 576 103 L 576 108 L 578 109 L 580 108 L 583 105 L 587 101 L 588 100" stroke="#ffffff" stroke-width="2" stroke-linecap="round" stroke-linejoin="round" fill="none"/><path d="M 608 82 L 608 81 L 607 84 L 604 89 L 600 95 L 596 101 L 593 104" stroke="#ffffff" stroke-width="2" stroke-linecap="round" stroke-linejoin="round" fill="none"/><path d="M 603 91 L 602 92 L 601 96 L 601 102 L 601 109 L 602 112" stroke="#ffffff" stroke-width="2" stroke-linecap="round" stroke-linejoin="round" fill="none"/><path d="M 611 104 L 611 103 L 610 102 L 612 99 L 617 95 L 623 91 L 628 88 L 630 87 L 631 87 L 631 88 L 631 89 L 630 92 L 627 95 L 626 97" stroke="#ffffff" stroke-width="2" stroke-linecap="round" stroke-linejoin="round" fill="none"/><path d="M 619 84 L 618 84 L 617 83 L 617 84 L 617 87 L 617 94 L 617 102 L 617 109 L 618 112" stroke="#ffffff" stroke-width="2" stroke-linecap="round" stroke-linejoin="round" fill="none"/><path d="M 637 102 L 637 100 L 638 99 L 641 98 L 645 97 L 649 97" stroke="#ffffff" stroke-width="2" stroke-linecap="round" stroke-linejoin="round" fill="none"/><path d="M 643 116 L 643 115 L 642 115 L 640 117 L 638 122 L 638 128 L 638 132 L 641 133" stroke="#ffffff" stroke-width="2" stroke-linecap="round" stroke-linejoin="round" fill="none"/><path d="M 652 119 L 652 118 L 654 116 L 658 115 L 659 115" stroke="#ffffff" stroke-width="2" stroke-linecap="round" stroke-linejoin="round" fill="none"/><path d="M 653 126 L 652 126 L 651 126 L 652 126 L 656 124 L 662 121" stroke="#ffffff" stroke-width="2" stroke-linecap="round" stroke-linejoin="round" fill="none"/><path d="M 681 121 L 680 121 L 678 122 L 676 124 L 676 125 L 679 126 L 682 125 L 685 123 L 686 121 L 686 120 L 685 119 L 682 119 L 678 121" stroke="#ffffff" stroke-width="2" stroke-linecap="round" stroke-linejoin="round" fill="none"/><path d="M 29 144 L 27 144 L 26 146 L 26 152 L 29 158" stroke="#ffffff" stroke-width="2" stroke-linecap="round" stroke-linejoin="round" fill="none"/><path d="M 43 135 L 42 135 L 40 135 L 38 139 L 38 140" stroke="#ffffff" stroke-width="2" stroke-linecap="round" stroke-linejoin="round" fill="none"/><path d="M 19 162 L 18 163 L 18 164 L 22 160 L 29 153 L 37 147 L 43 144 L 47 144" stroke="#ffffff" stroke-width="2" stroke-linecap="round" stroke-linejoin="round" fill="none"/><path d="M 34 162 L 33 162 L 31 162 L 31 165 L 31 171 L 33 178 L 34 179" stroke="#ffffff" stroke-width="2" stroke-linecap="round" stroke-linejoin="round" fill="none"/><path d="M 33 162 L 33 161 L 33 160 L 34 161 L 36 165 L 38 170 L 39 177 L 39 182 L 38 184" stroke="#ffffff" stroke-width="2" stroke-linecap="round" stroke-linejoin="round" fill="none"/><path d="M 35 169 L 35 168 L 34 167 L 35 165 L 36 164" stroke="#ffffff" stroke-width="2" stroke-linecap="round" stroke-linejoin="round" fill="none"/><path d="M 36 167 L 36 168 L 36 169 L 37 169 L 39 170 L 40 169 L 40 167" stroke="#ffffff" stroke-width="2" stroke-linecap="round" stroke-linejoin="round" fill="none"/><path d="M 44 156 L 43 156 L 42 157 L 42 159" stroke="#ffffff" stroke-width="2" stroke-linecap="round" stroke-linejoin="round" fill="none"/><path d="M 48 149 L 48 146 L 48 145 L 49 149 L 49 156 L 49 164 L 49 171 L 47 175 L 47 176" stroke="#ffffff" stroke-width="2" stroke-linecap="round" stroke-linejoin="round" fill="none"/><path d="M 65 144 L 65 143 L 64 142 L 65 141 L 67 140 L 69 139 L 70 139 L 69 141 L 68 144 L 67 150 L 68 154 L 68 155" stroke="#ffffff" stroke-width="2" stroke-linecap="round" stroke-linejoin="round" fill="none"/><path d="M 68 145 L 68 144 L 68 143" stroke="#ffffff" stroke-width="2" stroke-linecap="round" stroke-linejoin="round" fill="none"/><path d="M 66 154 L 65 154 L 65 153 L 66 152 L 68 147" stroke="#ffffff" stroke-width="2" stroke-linecap="round" stroke-linejoin="round" fill="none"/><path d="M 80 132 L 80 133 L 78 134 L 76 137 L 74 141 L 73 146 L 73 148" stroke="#ffffff" stroke-width="2" stroke-linecap="round" stroke-linejoin="round" fill="none"/><path d="M 83 134 L 81 133 L 80 134 L 80 138 L 78 142 L 77 145" stroke="#ffffff" stroke-width="2" stroke-linecap="round" stroke-linejoin="round" fill="none"/><path d="M 71 158 L 71 157 L 71 155 L 73 153 L 75 151 L 78 149 L 80 148 L 80 147 L 81 147 L 80 148 L 78 151 L 76 156 L 75 162 L 73 167 L 73 172 L 73 173" stroke="#ffffff" stroke-width="2" stroke-linecap="round" stroke-linejoin="round" fill="none"/><path d="M 75 160 L 75 159 L 76 159 L 78 158 L 81 158 L 83 159 L 83 162 L 82 168 L 79 173 L 78 174" stroke="#ffffff" stroke-width="2" stroke-linecap="round" stroke-linejoin="round" fill="none"/><path d="M 73 164 L 75 164 L 77 164 L 80 165 L 84 166 L 88 168 L 92 167" stroke="#ffffff" stroke-width="2" stroke-linecap="round" stroke-linejoin="round" fill="none"/><path d="M 102 152 L 100 152 L 100 151 L 103 149 L 106 148 L 109 147 L 110 146" stroke="#ffffff" stroke-width="2" stroke-linecap="round" stroke-linejoin="round" fill="none"/><path d="M 103 158 L 102 158 L 103 157 L 106 154 L 109 152 L 110 150" stroke="#ffffff" stroke-width="2" stroke-linecap="round" stroke-linejoin="round" fill="none"/><path d="M 107 141 L 106 141 L 105 142 L 105 145 L 106 150 L 107 156 L 108 161 L 110 164 L 112 165 L 116 162 L 118 158" stroke="#ffffff" stroke-width="2" stroke-linecap="round" stroke-linejoin="round" fill="none"/><path d="M 139 146 L 139 147 L 138 147 L 138 148 L 138 151 L 138 154 L 138 157 L 137 159 L 136 160 L 135 158 L 135 154 L 135 150 L 136 147 L 137 145 L 140 144 L 142 145 L 144 148 L 145 152 L 145 157 L 144 161 L 143 163" stroke="#ffffff" stroke-width="2" stroke-linecap="round" stroke-linejoin="round" fill="none"/><path d="M 162 145 L 160 145 L 159 145 L 158 149 L 158 154 L 159 159 L 160 161 L 162 162" stroke="#ffffff" stroke-width="2" stroke-linecap="round" stroke-linejoin="round" fill="none"/><path d="M 166 148 L 165 147 L 165 145 L 168 144 L 171 143 L 174 143 L 176 141 L 177 140" stroke="#ffffff" stroke-width="2" stroke-linecap="round" stroke-linejoin="round" fill="none"/><path d="M 172 138 L 170 138 L 170 139 L 170 142 L 171 148 L 171 154 L 171 158 L 170 159 L 169 159 L 168 158 L 167 156 L 167 154 L 169 153 L 172 152 L 176 151 L 180 150 L 183 148" stroke="#ffffff" stroke-width="2" stroke-linecap="round" stroke-linejoin="round" fill="none"/><path d="M 181 130 L 180 130 L 179 130 L 179 131 L 179 134 L 179 135" stroke="#ffffff" stroke-width="2" stroke-linecap="round" stroke-linejoin="round" fill="none"/><path d="M 183 129 L 184 127 L 185 126 L 185 127 L 185 132 L 185 136" stroke="#ffffff" stroke-width="2" stroke-linecap="round" stroke-linejoin="round" fill="none"/><path d="M 197 144 L 195 143 L 195 142 L 195 144 L 195 149 L 196 155 L 198 158 L 200 159 L 202 158 L 205 154 L 209 148" stroke="#ffffff" stroke-width="2" stroke-linecap="round" stroke-linejoin="round" fill="none"/><path d="M 220 145 L 219 145 L 219 144 L 220 142 L 225 141 L 229 140 L 231 140 L 230 140 L 228 143 L 227 148 L 226 153 L 227 157 L 230 160 L 234 161" stroke="#ffffff" stroke-width="2" stroke-linecap="round" stroke-linejoin="round" fill="none"/><path d="M 246 140 L 245 140 L 245 139 L 247 139 L 249 139 L 249 140 L 249 141 L 249 143 L 248 144 L 247 145 L 247 146 L 248 147 L 249 149 L 250 152 L 250 155 L 250 156 L 248 157 L 246 156 L 245 155 L 244 154 L 245 153 L 246 152 L 249 152 L 251 152 L 252 152" stroke="#ffffff" stroke-width="2" stroke-linecap="round" stroke-linejoin="round" fill="none"/><path d="M 265 152 L 265 151 L 265 150 L 266 148 L 268 147 L 270 146 L 272 146 L 274 145 L 275 146 L 275 148 L 275 150 L 275 151 L 275 152 L 274 152 L 272 151 L 271 149 L 271 145 L 271 141 L 272 139 L 272 138 L 272 139 L 271 142 L 271 146 L 270 151 L 269 156 L 268 159 L 268 160" stroke="#ffffff" stroke-width="2" stroke-linecap="round" stroke-linejoin="round" fill="none"/><path d="M 278 136 L 278 135 L 278 134 L 280 135 L 282 139 L 286 144 L 289 147" stroke="#ffffff" stroke-width="2" stroke-linecap="round" stroke-linejoin="round" fill="none"/><path d="M 300 132 L 299 131 L 299 133 L 299 135" stroke="#ffffff" stroke-width="2" stroke-linecap="round" stroke-linejoin="round" fill="none"/><path d="M 297 139 L 296 139 L 294 141 L 293 144 L 292 147 L 292 150 L 292 151 L 294 150 L 296 149 L 299 148 L 302 148 L 304 148 L 304 150 L 301 153 L 296 156 L 291 157 L 287 158" stroke="#ffffff" stroke-width="2" stroke-linecap="round" stroke-linejoin="round" fill="none"/><path d="M 331 137 L 331 135 L 331 134 L 330 134 L 330 138 L 331 145 L 331 153 L 331 161 L 332 165" stroke="#ffffff" stroke-width="2" stroke-linecap="round" stroke-linejoin="round" fill="none"/><path d="M 331 149 L 330 148 L 330 147 L 333 147 L 338 147 L 344 148 L 347 148" stroke="#ffffff" stroke-width="2" stroke-linecap="round" stroke-linejoin="round" fill="none"/><path d="M 355 139 L 353 139 L 352 140 L 352 142 L 352 146 L 354 149 L 356 151 L 357 151" stroke="#ffffff" stroke-width="2" stroke-linecap="round" stroke-linejoin="round" fill="none"/><path d="M 361 135 L 361 136 L 361 138 L 361 142 L 360 150 L 358 158 L 356 164 L 354 166" stroke="#ffffff" stroke-width="2" stroke-linecap="round" stroke-linejoin="round" fill="none"/><path d="M 383 142 L 382 141 L 380 140 L 380 142 L 378 147 L 377 153 L 376 157 L 377 158 L 381 156 L 383 153 L 385 152 L 387 151 L 389 152 L 392 152 L 393 152" stroke="#ffffff" stroke-width="2" stroke-linecap="round" stroke-linejoin="round" fill="none"/><path d="M 409 145 L 408 145 L 407 145 L 408 144 L 411 144 L 415 144 L 418 144 L 420 144 L 420 143 L 419 143 L 417 144 L 415 147 L 412 150 L 411 154 L 411 158 L 412 160 L 416 160 L 419 158 L 420 157" stroke="#ffffff" stroke-width="2" stroke-linecap="round" stroke-linejoin="round" fill="none"/><path d="M 423 128 L 422 128 L 421 128 L 420 128 L 420 132 L 421 135 L 423 135 L 425 134 L 426 131 L 427 129 L 428 128 L 428 130 L 426 135 L 426 137" stroke="#ffffff" stroke-width="2" stroke-linecap="round" stroke-linejoin="round" fill="none"/><path d="M 440 154 L 439 155 L 436 156 L 435 158 L 437 158 L 440 158 L 443 157 L 444 155 L 445 153 L 445 150 L 443 150 L 439 151 L 437 153" stroke="#ffffff" stroke-width="2" stroke-linecap="round" stroke-linejoin="round" fill="none"/><path d="M 68 214 L 66 213 L 65 212 L 63 212 L 62 214 L 61 218 L 61 222 L 61 226 L 62 229 L 65 230 L 69 226 L 70 225" stroke="#ffffff" stroke-width="2" stroke-linecap="round" stroke-linejoin="round" fill="none"/><path d="M 78 195 L 77 194 L 77 195 L 77 200 L 78 210 L 78 222 L 78 229 L 78 230 L 78 227 L 79 222 L 80 217 L 81 212 L 83 209 L 84 208 L 86 212 L 87 217 L 87 223 L 87 227" stroke="#ffffff" stroke-width="2" stroke-linecap="round" stroke-linejoin="round" fill="none"/><path d="M 96 216 L 94 217 L 94 219 L 94 222 L 94 223" stroke="#ffffff" stroke-width="2" stroke-linecap="round" stroke-linejoin="round" fill="none"/><path d="M 97 198 L 96 198 L 95 200 L 96 205" stroke="#ffffff" stroke-width="2" stroke-linecap="round" stroke-linejoin="round" fill="none"/><path d="M 106 211 L 104 210 L 104 209 L 104 210 L 106 214 L 106 220 L 106 224 L 106 227 L 106 228 L 105 227 L 106 223 L 107 218 L 110 214 L 113 211 L 114 213 L 115 218 L 114 224 L 113 227 L 113 228" stroke="#ffffff" stroke-width="2" stroke-linecap="round" stroke-linejoin="round" fill="none"/><path d="M 119 218 L 118 218 L 117 218 L 118 219 L 122 218 L 126 216 L 128 214 L 129 212 L 128 210 L 125 209 L 122 210 L 120 214 L 119 219 L 119 223 L 122 225 L 127 224 L 130 222" stroke="#ffffff" stroke-width="2" stroke-linecap="round" stroke-linejoin="round" fill="none"/><path d="M 144 207 L 142 207 L 139 207 L 137 208 L 135 209 L 134 211 L 133 213 L 134 215 L 137 216 L 140 217 L 142 218 L 143 219 L 141 221 L 136 223 L 131 225 L 129 225" stroke="#ffffff" stroke-width="2" stroke-linecap="round" stroke-linejoin="round" fill="none"/><path d="M 150 213 L 148 214 L 147 215 L 149 216 L 153 216 L 156 214 L 158 212 L 159 210 L 158 209 L 155 208 L 152 209 L 149 214 L 147 220 L 146 225 L 149 227 L 153 225 L 159 220" stroke="#ffffff" stroke-width="2" stroke-linecap="round" stroke-linejoin="round" fill="none"/><path d="M 184 200 L 184 198 L 183 196 L 182 197 L 182 206 L 182 217 L 181 227 L 182 230 L 183 230" stroke="#ffffff" stroke-width="2" stroke-linecap="round" stroke-linejoin="round" fill="none"/><path d="M 183 201 L 183 200 L 184 198 L 185 199 L 188 205 L 193 214 L 197 221 L 200 225 L 201 225 L 201 222 L 201 219 L 200 213 L 199 207 L 199 200 L 201 196" stroke="#ffffff" stroke-width="2" stroke-linecap="round" stroke-linejoin="round" fill="none"/><path d="M 216 189 L 215 189 L 214 189 L 214 191 L 215 197 L 218 204 L 219 206" stroke="#ffffff" stroke-width="2" stroke-linecap="round" stroke-linejoin="round" fill="none"/><path d="M 226 191 L 224 191 L 223 192 L 223 193 L 223 195 L 221 200 L 219 209 L 218 218 L 218 224 L 220 227 L 221 227" stroke="#ffffff" stroke-width="2" stroke-linecap="round" stroke-linejoin="round" fill="none"/><path d="M 250 192 L 249 192 L 248 192 L 246 195 L 243 201 L 239 207 L 237 211" stroke="#ffffff" stroke-width="2" stroke-linecap="round" stroke-linejoin="round" fill="none"/><path d="M 250 202 L 250 201 L 249 200 L 248 203 L 246 209 L 243 215 L 241 218 L 240 219" stroke="#ffffff" stroke-width="2" stroke-linecap="round" stroke-linejoin="round" fill="none"/><path d="M 248 204 L 247 204 L 246 207 L 247 212 L 248 218 L 250 222" stroke="#ffffff" stroke-width="2" stroke-linecap="round" stroke-linejoin="round" fill="none"/><path d="M 264 185 L 263 185 L 262 184 L 261 186 L 260 191 L 259 195 L 259 198 L 258 198 L 259 197 L 261 195 L 263 194 L 265 193 L 266 193 L 267 193 L 268 193 L 270 193 L 272 193 L 274 193 L 274 194" stroke="#ffffff" stroke-width="2" stroke-linecap="round" stroke-linejoin="round" fill="none"/><path d="M 262 198 L 261 198 L 260 200 L 258 205 L 257 209 L 257 212" stroke="#ffffff" stroke-width="2" stroke-linecap="round" stroke-linejoin="round" fill="none"/><path d="M 261 206 L 261 204 L 262 202 L 264 201 L 265 200 L 265 203 L 265 207 L 263 212 L 261 216 L 259 219 L 257 221" stroke="#ffffff" stroke-width="2" stroke-linecap="round" stroke-linejoin="round" fill="none"/><path d="M 258 206 L 257 206 L 260 208 L 265 211 L 272 213 L 275 213" stroke="#ffffff" stroke-width="2" stroke-linecap="round" stroke-linejoin="round" fill="none"/><path d="M 295 199 L 293 199 L 292 199 L 292 201 L 292 206 L 293 211 L 295 217 L 296 219" stroke="#ffffff" stroke-width="2" stroke-linecap="round" stroke-linejoin="round" fill="none"/><path d="M 303 204 L 303 201 L 303 198 L 305 197 L 308 196 L 311 196 L 312 196" stroke="#ffffff" stroke-width="2" stroke-linecap="round" stroke-linejoin="round" fill="none"/><path d="M 308 207 L 307 208 L 306 209 L 307 209 L 310 208 L 315 205 L 319 201" stroke="#ffffff" stroke-width="2" stroke-linecap="round" stroke-linejoin="round" fill="none"/><path d="M 345 205 L 344 203 L 343 202 L 341 201 L 340 201 L 339 205 L 337 211 L 336 218 L 337 222 L 340 222 L 345 218 L 346 216" stroke="#ffffff" stroke-width="2" stroke-linecap="round" stroke-linejoin="round" fill="none"/><path d="M 353 192 L 353 191 L 353 189 L 353 187 L 354 187 L 354 189 L 353 197 L 352 207 L 350 215 L 350 219 L 352 217 L 354 213 L 357 208 L 359 205 L 361 203 L 362 205 L 362 209 L 362 213 L 364 216 L 365 216" stroke="#ffffff" stroke-width="2" stroke-linecap="round" stroke-linejoin="round" fill="none"/><path d="M 371 205 L 372 205 L 372 206 L 372 207 L 373 209 L 373 213 L 373 215" stroke="#ffffff" stroke-width="2" stroke-linecap="round" stroke-linejoin="round" fill="none"/><path d="M 374 190 L 373 190 L 372 190 L 373 195 L 374 197" stroke="#ffffff" stroke-width="2" stroke-linecap="round" stroke-linejoin="round" fill="none"/><path d="M 386 200 L 385 199 L 385 198 L 384 197 L 384 201 L 383 206 L 383 210 L 382 212 L 382 213 L 384 210 L 386 206 L 389 202 L 392 199 L 393 198 L 394 201 L 392 205 L 391 209 L 392 211 L 393 211" stroke="#ffffff" stroke-width="2" stroke-linecap="round" stroke-linejoin="round" fill="none"/><path d="M 414 201 L 412 200 L 411 199 L 411 198 L 411 197 L 410 197 L 408 199 L 405 203 L 404 207 L 404 210 L 406 211 L 409 209 L 412 206 L 413 204 L 414 201 L 414 199 L 414 198 L 413 198 L 413 200 L 413 203 L 413 208 L 415 213 L 415 214" stroke="#ffffff" stroke-width="2" stroke-linecap="round" stroke-linejoin="round" fill="none"/><path d="M 434 200 L 433 200 L 433 199 L 434 197 L 438 194 L 444 190 L 448 188 L 450 186" stroke="#ffffff" stroke-width="2" stroke-linecap="round" stroke-linejoin="round" fill="none"/><path d="M 444 183 L 443 183 L 442 183 L 441 188 L 441 197 L 440 206 L 440 212 L 440 215" stroke="#ffffff" stroke-width="2" stroke-linecap="round" stroke-linejoin="round" fill="none"/><path d="M 451 200 L 450 198 L 450 196 L 451 195 L 454 194 L 456 193" stroke="#ffffff" stroke-width="2" stroke-linecap="round" stroke-linejoin="round" fill="none"/><path d="M 452 204 L 451 205 L 450 206 L 452 204 L 455 202 L 458 199" stroke="#ffffff" stroke-width="2" stroke-linecap="round" stroke-linejoin="round" fill="none"/><path d="M 476 187 L 476 186 L 476 185 L 477 185 L 479 185 L 480 185 L 479 187 L 479 188 L 478 191 L 478 195 L 478 200 L 479 204 L 479 207 L 479 209 L 478 209 L 476 209 L 474 207 L 472 203 L 471 200 L 471 198 L 471 196 L 471 197 L 472 199 L 471 203 L 470 207 L 469 211 L 469 212" stroke="#ffffff" stroke-width="2" stroke-linecap="round" stroke-linejoin="round" fill="none"/><path d="M 490 190 L 491 190 L 493 192 L 496 196 L 496 197" stroke="#ffffff" stroke-width="2" stroke-linecap="round" stroke-linejoin="round" fill="none"/><path d="M 495 178 L 494 178 L 493 178 L 492 180 L 492 183" stroke="#ffffff" stroke-width="2" stroke-linecap="round" stroke-linejoin="round" fill="none"/><path d="M 499 177 L 499 176 L 500 175 L 500 176 L 500 180 L 500 185" stroke="#ffffff" stroke-width="2" stroke-linecap="round" stroke-linejoin="round" fill="none"/><path d="M 506 188 L 506 189 L 504 192 L 503 197 L 502 201 L 502 203 L 502 204 L 503 202 L 505 199 L 508 196 L 510 195 L 512 196 L 513 198 L 515 199 L 518 199 L 522 196" stroke="#ffffff" stroke-width="2" stroke-linecap="round" stroke-linejoin="round" fill="none"/><path d="M 533 183 L 531 184 L 530 185 L 530 188 L 532 190 L 534 192 L 535 192" stroke="#ffffff" stroke-width="2" stroke-linecap="round" stroke-linejoin="round" fill="none"/><path d="M 540 181 L 540 180 L 540 181 L 540 187 L 538 197 L 534 208 L 531 215 L 529 216 L 529 217" stroke="#ffffff" stroke-width="2" stroke-linecap="round" stroke-linejoin="round" fill="none"/><path d="M 550 178 L 549 177 L 549 175 L 551 175 L 554 175 L 556 176 L 557 178 L 556 180 L 555 181" stroke="#ffffff" stroke-width="2" stroke-linecap="round" stroke-linejoin="round" fill="none"/><path d="M 548 183 L 548 181 L 549 180 L 552 178 L 555 177" stroke="#ffffff" stroke-width="2" stroke-linecap="round" stroke-linejoin="round" fill="none"/><path d="M 551 183 L 550 183 L 551 182 L 554 180 L 556 179" stroke="#ffffff" stroke-width="2" stroke-linecap="round" stroke-linejoin="round" fill="none"/><path d="M 549 186 L 549 187 L 546 189 L 545 193 L 545 197 L 545 199" stroke="#ffffff" stroke-width="2" stroke-linecap="round" stroke-linejoin="round" fill="none"/><path d="M 547 193 L 548 190 L 550 187 L 555 184 L 559 184 L 561 185 L 562 187 L 562 190" stroke="#ffffff" stroke-width="2" stroke-linecap="round" stroke-linejoin="round" fill="none"/><path d="M 548 197 L 548 198 L 547 199 L 546 201 L 546 204 L 546 205 L 547 206 L 548 205 L 549 203 L 550 200 L 551 197 L 553 194 L 554 192 L 556 192 L 557 193 L 558 195 L 558 197 L 557 198 L 556 198 L 554 198 L 552 196 L 552 193 L 552 190 L 552 188 L 553 188 L 553 191 L 553 196 L 553 203 L 552 210 L 552 215 L 552 218" stroke="#ffffff" stroke-width="2" stroke-linecap="round" stroke-linejoin="round" fill="none"/><path d="M 576 189 L 576 187 L 577 186 L 579 186 L 582 186 L 584 188 L 584 190 L 582 192 L 579 194 L 578 194 L 577 194 L 578 194 L 580 196 L 582 199 L 583 202 L 583 205 L 581 207 L 579 208 L 576 209 L 574 208 L 574 206 L 575 204 L 578 203 L 582 202 L 584 202" stroke="#ffffff" stroke-width="2" stroke-linecap="round" stroke-linejoin="round" fill="none"/><path d="M 603 208 L 602 208 L 600 209 L 601 209" stroke="#ffffff" stroke-width="2" stroke-linecap="round" stroke-linejoin="round" fill="none"/></svg>
