<svg xmlns="http://www.w3.org/2000/svg" width="629" height="383" viewBox="0 0 629 383"><path d="M 20 21 L 20 20 L 20 14 L 20 12 L 18 17 L 15 29 L 13 40 L 14 48 L 17 51 L 20 49 L 24 44 L 26 39 L 26 35 L 26 34 L 22 35 L 17 39 L 12 44 L 10 47" stroke="#ffffff" stroke-width="2" stroke-linecap="round" stroke-linejoin="round" fill="none"/><path d="M 65 13 L 64 12 L 60 15 L 55 27 L 47 47 L 39 66 L 34 79 L 32 87" stroke="#ffffff" stroke-width="2" stroke-linecap="round" stroke-linejoin="round" fill="none"/><path d="M 72 54 L 71 53 L 71 50 L 75 50 L 79 50 L 82 54 L 81 58 L 78 62 L 72 66 L 67 68 L 64 68 L 66 68 L 70 68 L 77 67 L 85 67 L 92 67 L 98 67" stroke="#ffffff" stroke-width="2" stroke-linecap="round" stroke-linejoin="round" fill="none"/><path d="M 172 36 L 170 35 L 169 34 L 171 28 L 176 25 L 181 25 L 183 31 L 181 39 L 177 47 L 172 53 L 168 55 L 167 56 L 167 55 L 167 55 L 170 54 L 177 52 L 186 49 L 198 45 L 202 44" stroke="#ffffff" stroke-width="2" stroke-linecap="round" stroke-linejoin="round" fill="none"/><path d="M 209 25 L 206 25 L 203 30 L 203 40 L 205 46 L 209 47 L 213 43 L 216 38 L 217 32 L 216 27 L 212 25 L 207 26 L 202 32 L 202 38" stroke="#ffffff" stroke-width="2" stroke-linecap="round" stroke-linejoin="round" fill="none"/><path d="M 234 30 L 234 29 L 234 24 L 238 23 L 241 25 L 242 31 L 240 37 L 235 41 L 229 44 L 225 44 L 224 43 L 225 42 L 229 42 L 235 42 L 242 41 L 248 40 L 254 38" stroke="#ffffff" stroke-width="2" stroke-linecap="round" stroke-linejoin="round" fill="none"/><path d="M 274 13 L 270 11 L 269 10 L 267 14 L 264 22 L 262 32 L 263 38 L 266 40 L 270 40 L 274 38 L 275 35 L 273 33 L 268 32 L 260 36" stroke="#ffffff" stroke-width="2" stroke-linecap="round" stroke-linejoin="round" fill="none"/><path d="M 251 72 L 249 70 L 240 71 L 236 78 L 233 88 L 234 97 L 239 99 L 247 97 L 257 90" stroke="#ffffff" stroke-width="2" stroke-linecap="round" stroke-linejoin="round" fill="none"/><path d="M 285 58 L 282 58 L 280 58 L 278 65 L 276 76 L 276 86 L 276 90 L 279 90 L 282 87 L 286 83 L 288 80 L 288 77 L 285 77 L 279 80 L 273 86 L 271 91 L 274 92" stroke="#ffffff" stroke-width="2" stroke-linecap="round" stroke-linejoin="round" fill="none"/><path d="M 318 67 L 312 67 L 311 66 L 310 67 L 309 73 L 309 79 L 311 84 L 314 85 L 318 83 L 321 79 L 322 74 L 322 69 L 320 66 L 315 67 L 309 72 L 307 77" stroke="#ffffff" stroke-width="2" stroke-linecap="round" stroke-linejoin="round" fill="none"/><path d="M 76 125 L 75 122 L 70 121 L 66 126 L 60 132 L 56 140 L 53 147 L 54 151 L 58 151 L 66 148 L 76 142 L 83 137" stroke="#ffffff" stroke-width="2" stroke-linecap="round" stroke-linejoin="round" fill="none"/><path d="M 75 124 L 73 124 L 71 127 L 71 136 L 69 151 L 68 164 L 67 173" stroke="#ffffff" stroke-width="2" stroke-linecap="round" stroke-linejoin="round" fill="none"/><path d="M 87 156 L 84 156 L 84 156 L 83 159 L 84 163" stroke="#ffffff" stroke-width="2" stroke-linecap="round" stroke-linejoin="round" fill="none"/><path d="M 105 129 L 102 127 L 101 127 L 100 132 L 101 139 L 103 145 L 106 148 L 109 150 L 111 151 L 112 153 L 110 156 L 107 158 L 102 159 L 100 159" stroke="#ffffff" stroke-width="2" stroke-linecap="round" stroke-linejoin="round" fill="none"/><path d="M 99 137 L 99 132 L 100 130 L 105 127 L 112 128 L 117 129" stroke="#ffffff" stroke-width="2" stroke-linecap="round" stroke-linejoin="round" fill="none"/><path d="M 142 148 L 140 146 L 142 143 L 146 143 L 151 145 L 156 146 L 163 144" stroke="#ffffff" stroke-width="2" stroke-linecap="round" stroke-linejoin="round" fill="none"/><path d="M 206 128 L 205 128 L 201 134 L 197 147 L 195 159 L 194 167" stroke="#ffffff" stroke-width="2" stroke-linecap="round" stroke-linejoin="round" fill="none"/><path d="M 207 152 L 207 153 L 205 158 L 205 162" stroke="#ffffff" stroke-width="2" stroke-linecap="round" stroke-linejoin="round" fill="none"/><path d="M 229 127 L 227 128 L 221 133 L 222 140 L 227 145 L 234 146 L 238 148 L 239 149 L 238 152 L 235 154 L 231 156 L 228 157 L 223 156" stroke="#ffffff" stroke-width="2" stroke-linecap="round" stroke-linejoin="round" fill="none"/><path d="M 220 133 L 220 131 L 230 125 L 242 125 L 248 127" stroke="#ffffff" stroke-width="2" stroke-linecap="round" stroke-linejoin="round" fill="none"/><path d="M 323 121 L 322 121 L 319 121 L 318 129 L 318 139 L 321 147 L 323 149" stroke="#ffffff" stroke-width="2" stroke-linecap="round" stroke-linejoin="round" fill="none"/><path d="M 336 122 L 336 120 L 335 122 L 335 129 L 335 137 L 335 139" stroke="#ffffff" stroke-width="2" stroke-linecap="round" stroke-linejoin="round" fill="none"/><path d="M 355 132 L 354 131 L 353 127 L 355 125 L 362 125 L 364 130 L 364 136 L 362 142 L 359 146 L 356 147" stroke="#ffffff" stroke-width="2" stroke-linecap="round" stroke-linejoin="round" fill="none"/><path d="M 383 130 L 382 129 L 382 129 L 385 124 L 390 122 L 394 122 L 395 122" stroke="#ffffff" stroke-width="2" stroke-linecap="round" stroke-linejoin="round" fill="none"/><path d="M 380 138 L 380 135 L 385 133 L 392 131 L 394 130" stroke="#ffffff" stroke-width="2" stroke-linecap="round" stroke-linejoin="round" fill="none"/><path d="M 391 111 L 390 111 L 389 113 L 389 123 L 389 138 L 389 147 L 392 150 L 396 149 L 401 145" stroke="#ffffff" stroke-width="2" stroke-linecap="round" stroke-linejoin="round" fill="none"/><path d="M 416 118 L 415 117 L 413 121 L 413 128 L 415 130" stroke="#ffffff" stroke-width="2" stroke-linecap="round" stroke-linejoin="round" fill="none"/><path d="M 423 126 L 421 125 L 420 125 L 420 126 L 418 130 L 415 136 L 412 141 L 413 145 L 419 145 L 424 142" stroke="#ffffff" stroke-width="2" stroke-linecap="round" stroke-linejoin="round" fill="none"/><path d="M 446 131 L 443 129 L 443 128 L 449 125 L 455 124 L 457 124" stroke="#ffffff" stroke-width="2" stroke-linecap="round" stroke-linejoin="round" fill="none"/><path d="M 481 108 L 481 108 L 476 109 L 471 114 L 468 118 L 468 120 L 473 118 L 478 116 L 481 114 L 483 113 L 481 115 L 481 116 L 481 118 L 481 120 L 482 121" stroke="#ffffff" stroke-width="2" stroke-linecap="round" stroke-linejoin="round" fill="none"/><path d="M 480 119 L 478 119 L 475 124 L 475 133 L 475 140 L 474 146 L 474 148" stroke="#ffffff" stroke-width="2" stroke-linecap="round" stroke-linejoin="round" fill="none"/><path d="M 474 134 L 474 133 L 473 130 L 471 130 L 466 134 L 464 138 L 463 140" stroke="#ffffff" stroke-width="2" stroke-linecap="round" stroke-linejoin="round" fill="none"/><path d="M 475 128 L 477 127 L 481 127 L 482 127" stroke="#ffffff" stroke-width="2" stroke-linecap="round" stroke-linejoin="round" fill="none"/><path d="M 485 115 L 486 110 L 491 108 L 496 106 L 500 105" stroke="#ffffff" stroke-width="2" stroke-linecap="round" stroke-linejoin="round" fill="none"/><path d="M 500 101 L 500 100 L 498 100 L 496 100 L 494 104 L 491 112 L 488 120 L 487 121" stroke="#ffffff" stroke-width="2" stroke-linecap="round" stroke-linejoin="round" fill="none"/><path d="M 480 127 L 480 125 L 481 123 L 492 116 L 500 112 L 503 110 L 504 109 L 503 109 L 499 111 L 494 117 L 487 125 L 480 132 L 478 135 L 478 136" stroke="#ffffff" stroke-width="2" stroke-linecap="round" stroke-linejoin="round" fill="none"/><path d="M 490 123 L 489 128 L 489 134 L 489 140 L 489 141" stroke="#ffffff" stroke-width="2" stroke-linecap="round" stroke-linejoin="round" fill="none"/><path d="M 492 129 L 491 125 L 491 124 L 494 121 L 497 120 L 499 121 L 500 124 L 500 128 L 498 132 L 497 135 L 495 139 L 494 139" stroke="#ffffff" stroke-width="2" stroke-linecap="round" stroke-linejoin="round" fill="none"/><path d="M 494 134 L 494 134 L 494 129 L 496 129" stroke="#ffffff" stroke-width="2" stroke-linecap="round" stroke-linejoin="round" fill="none"/><path d="M 492 139 L 488 139 L 488 139 L 490 139 L 497 137" stroke="#ffffff" stroke-width="2" stroke-linecap="round" stroke-linejoin="round" fill="none"/><path d="M 66 199 L 65 199 L 62 204 L 61 215 L 61 226 L 62 234 L 62 235" stroke="#ffffff" stroke-width="2" stroke-linecap="round" stroke-linejoin="round" fill="none"/><path d="M 49 207 L 48 205 L 47 203 L 48 208 L 51 214 L 56 217 L 64 215 L 71 207 L 75 202 L 75 201 L 75 201 L 75 203 L 74 208 L 73 210" stroke="#ffffff" stroke-width="2" stroke-linecap="round" stroke-linejoin="round" fill="none"/><path d="M 46 232 L 45 233 L 45 237 L 50 239 L 58 239 L 67 234 L 74 227 L 77 223 L 77 221 L 77 222 L 77 225 L 77 229 L 80 233 L 81 234" stroke="#ffffff" stroke-width="2" stroke-linecap="round" stroke-linejoin="round" fill="none"/><path d="M 95 203 L 95 200 L 101 192 L 105 191 L 107 193 L 108 195 L 108 198 L 107 200" stroke="#ffffff" stroke-width="2" stroke-linecap="round" stroke-linejoin="round" fill="none"/><path d="M 97 211 L 97 210 L 100 204 L 104 201 L 105 200 L 105 201 L 104 203 L 102 205 L 100 206 L 99 209 L 97 213 L 97 217 L 100 220 L 103 222 L 106 226 L 107 232 L 105 238 L 101 242 L 97 245 L 94 245" stroke="#ffffff" stroke-width="2" stroke-linecap="round" stroke-linejoin="round" fill="none"/><path d="M 125 187 L 121 187 L 120 189 L 117 198 L 116 202 L 118 203 L 121 201 L 122 198 L 123 196 L 125 193 L 128 190 L 130 189" stroke="#ffffff" stroke-width="2" stroke-linecap="round" stroke-linejoin="round" fill="none"/><path d="M 120 198 L 118 198 L 118 198 L 117 203 L 118 211 L 119 218 L 120 221 L 121 221" stroke="#ffffff" stroke-width="2" stroke-linecap="round" stroke-linejoin="round" fill="none"/><path d="M 123 210 L 122 208 L 122 208 L 122 211 L 122 216 L 123 220 L 125 222 L 126 221 L 126 219 L 126 218" stroke="#ffffff" stroke-width="2" stroke-linecap="round" stroke-linejoin="round" fill="none"/><path d="M 124 211 L 123 209 L 125 207 L 129 206 L 132 205 L 133 205" stroke="#ffffff" stroke-width="2" stroke-linecap="round" stroke-linejoin="round" fill="none"/><path d="M 106 242 L 104 242 L 104 240 L 117 227 L 126 219 L 130 215 L 132 213 L 131 214 L 129 215 L 126 217 L 124 222 L 122 228 L 121 233 L 123 236 L 128 236 L 132 232 L 135 226 L 135 223 L 135 222 L 134 224 L 130 228 L 126 232 L 124 234 L 119 238" stroke="#ffffff" stroke-width="2" stroke-linecap="round" stroke-linejoin="round" fill="none"/><path d="M 118 222 L 119 222 L 120 222 L 124 225 L 132 228 L 141 231 L 143 231" stroke="#ffffff" stroke-width="2" stroke-linecap="round" stroke-linejoin="round" fill="none"/><path d="M 152 215 L 151 213 L 151 210 L 152 210 L 160 209 L 164 209 L 166 209 L 166 209 L 164 210 L 161 213 L 159 218 L 157 224 L 159 229 L 164 231 L 170 228" stroke="#ffffff" stroke-width="2" stroke-linecap="round" stroke-linejoin="round" fill="none"/><path d="M 170 186 L 164 189 L 165 193 L 166 194" stroke="#ffffff" stroke-width="2" stroke-linecap="round" stroke-linejoin="round" fill="none"/><path d="M 179 185 L 179 183 L 178 184 L 178 191" stroke="#ffffff" stroke-width="2" stroke-linecap="round" stroke-linejoin="round" fill="none"/><path d="M 203 195 L 203 195 L 202 195 L 201 204 L 199 221 L 199 230 L 200 231" stroke="#ffffff" stroke-width="2" stroke-linecap="round" stroke-linejoin="round" fill="none"/><path d="M 199 198 L 199 197 L 201 198 L 209 208 L 217 220 L 222 226 L 225 226 L 226 223 L 225 218 L 224 210 L 223 201 L 223 192 L 225 187 L 226 187" stroke="#ffffff" stroke-width="2" stroke-linecap="round" stroke-linejoin="round" fill="none"/><path d="M 241 177 L 239 175 L 239 175 L 241 182 L 244 192 L 246 197" stroke="#ffffff" stroke-width="2" stroke-linecap="round" stroke-linejoin="round" fill="none"/><path d="M 258 187 L 258 187 L 255 184 L 254 183 L 254 187 L 253 193 L 250 201 L 248 209 L 246 218 L 246 225 L 249 229" stroke="#ffffff" stroke-width="2" stroke-linecap="round" stroke-linejoin="round" fill="none"/><path d="M 288 192 L 286 190 L 285 190 L 285 193 L 285 200 L 287 205 L 287 206" stroke="#ffffff" stroke-width="2" stroke-linecap="round" stroke-linejoin="round" fill="none"/><path d="M 297 199 L 295 199 L 291 199 L 289 200 L 289 205 L 288 211 L 291 215 L 296 216 L 302 214" stroke="#ffffff" stroke-width="2" stroke-linecap="round" stroke-linejoin="round" fill="none"/><path d="M 310 207 L 308 204 L 311 202 L 317 201 L 323 200 L 325 202 L 325 205 L 322 209 L 319 211 L 317 212 L 316 210 L 316 206 L 318 199 L 319 193 L 321 190 L 322 191 L 321 197 L 319 204 L 318 210 L 318 214 L 318 214" stroke="#ffffff" stroke-width="2" stroke-linecap="round" stroke-linejoin="round" fill="none"/><path d="M 329 187 L 331 186 L 333 186 L 343 192 L 349 198" stroke="#ffffff" stroke-width="2" stroke-linecap="round" stroke-linejoin="round" fill="none"/><path d="M 389 178 L 389 176 L 382 182 L 377 192 L 374 199 L 373 203" stroke="#ffffff" stroke-width="2" stroke-linecap="round" stroke-linejoin="round" fill="none"/><path d="M 392 187 L 392 187 L 390 186 L 386 192 L 382 201 L 377 210 L 374 215" stroke="#ffffff" stroke-width="2" stroke-linecap="round" stroke-linejoin="round" fill="none"/><path d="M 387 198 L 383 206 L 380 218 L 380 227 L 382 231" stroke="#ffffff" stroke-width="2" stroke-linecap="round" stroke-linejoin="round" fill="none"/><path d="M 405 180 L 405 179 L 408 173 L 413 172 L 418 172 L 420 174" stroke="#ffffff" stroke-width="2" stroke-linecap="round" stroke-linejoin="round" fill="none"/><path d="M 399 197 L 399 198 L 399 198 L 399 195 L 404 191 L 412 188 L 418 186 L 420 186 L 418 186 L 416 187 L 415 191 L 413 198 L 411 208 L 410 217 L 411 221 L 411 221" stroke="#ffffff" stroke-width="2" stroke-linecap="round" stroke-linejoin="round" fill="none"/><path d="M 426 209 L 426 208 L 426 205 L 429 204 L 432 205 L 432 209 L 429 213 L 426 216 L 425 216" stroke="#ffffff" stroke-width="2" stroke-linecap="round" stroke-linejoin="round" fill="none"/><path d="M 447 186 L 447 186 L 447 182 L 453 181 L 459 180 L 462 180 L 463 180 L 462 181 L 460 182 L 456 189 L 452 198 L 451 207 L 455 212 L 463 212 L 466 211" stroke="#ffffff" stroke-width="2" stroke-linecap="round" stroke-linejoin="round" fill="none"/><path d="M 479 192 L 478 190 L 484 183 L 493 181 L 498 181 L 501 182" stroke="#ffffff" stroke-width="2" stroke-linecap="round" stroke-linejoin="round" fill="none"/><path d="M 496 171 L 495 170 L 493 169 L 492 177 L 489 190 L 485 203 L 484 211 L 484 214 L 485 214" stroke="#ffffff" stroke-width="2" stroke-linecap="round" stroke-linejoin="round" fill="none"/><path d="M 499 201 L 499 198 L 501 193 L 503 193 L 505 194" stroke="#ffffff" stroke-width="2" stroke-linecap="round" stroke-linejoin="round" fill="none"/><path d="M 497 209 L 495 209 L 493 210 L 499 209 L 507 207 L 513 204" stroke="#ffffff" stroke-width="2" stroke-linecap="round" stroke-linejoin="round" fill="none"/><path d="M 563 178 L 563 178 L 561 177 L 561 181 L 561 186" stroke="#ffffff" stroke-width="2" stroke-linecap="round" stroke-linejoin="round" fill="none"/><path d="M 556 210 L 556 207 L 557 201 L 562 193 L 569 185 L 571 183" stroke="#ffffff" stroke-width="2" stroke-linecap="round" stroke-linejoin="round" fill="none"/><path d="M 586 165 L 585 165 L 583 163 L 582 163 L 578 170 L 576 178 L 575 181" stroke="#ffffff" stroke-width="2" stroke-linecap="round" stroke-linejoin="round" fill="none"/><path d="M 574 189 L 575 183 L 580 175 L 588 168 L 596 166 L 602 165 L 604 168 L 605 171 L 603 175 L 599 179 L 595 182" stroke="#ffffff" stroke-width="2" stroke-linecap="round" stroke-linejoin="round" fill="none"/><path d="M 590 178 L 590 177 L 590 178 L 588 185 L 583 197 L 577 209 L 574 216 L 574 217" stroke="#ffffff" stroke-width="2" stroke-linecap="round" stroke-linejoin="round" fill="none"/><path d="M 583 196 L 586 198 L 593 203 L 604 210" stroke="#ffffff" stroke-width="2" stroke-linecap="round" stroke-linejoin="round" fill="none"/><path d="M 66 277 L 66 277 L 64 274 L 63 274 L 61 280 L 57 292 L 54 304 L 53 312 L 52 317" stroke="#ffffff" stroke-width="2" stroke-linecap="round" stroke-linejoin="round" fill="none"/><path d="M 44 293 L 42 288 L 42 285 L 42 285 L 47 288 L 54 294 L 60 302 L 66 309" stroke="#ffffff" stroke-width="2" stroke-linecap="round" stroke-linejoin="round" fill="none"/><path d="M 86 284 L 85 284 L 85 284 L 86 282 L 89 281 L 92 281" stroke="#ffffff" stroke-width="2" stroke-linecap="round" stroke-linejoin="round" fill="none"/><path d="M 84 296 L 82 294 L 84 293 L 88 292 L 93 290 L 96 289" stroke="#ffffff" stroke-width="2" stroke-linecap="round" stroke-linejoin="round" fill="none"/><path d="M 88 273 L 87 271 L 86 269 L 86 270 L 88 274 L 91 282 L 92 291 L 92 303 L 92 312 L 93 314" stroke="#ffffff" stroke-width="2" stroke-linecap="round" stroke-linejoin="round" fill="none"/><path d="M 112 284 L 110 282 L 110 282 L 112 280 L 115 280 L 118 281" stroke="#ffffff" stroke-width="2" stroke-linecap="round" stroke-linejoin="round" fill="none"/><path d="M 114 290 L 114 289 L 113 288 L 114 287 L 117 286 L 118 286" stroke="#ffffff" stroke-width="2" stroke-linecap="round" stroke-linejoin="round" fill="none"/><path d="M 116 311 L 114 313 L 114 313 L 117 309 L 124 301 L 132 291 L 137 280 L 137 278" stroke="#ffffff" stroke-width="2" stroke-linecap="round" stroke-linejoin="round" fill="none"/><path d="M 92 285 L 92 284 L 92 283 L 92 282 L 94 280 L 96 279 L 100 278" stroke="#ffffff" stroke-width="2" stroke-linecap="round" stroke-linejoin="round" fill="none"/><path d="M 160 283 L 159 279 L 159 278 L 161 277 L 164 277 L 166 277 L 169 278 L 171 279 L 173 281 L 174 285 L 174 290 L 172 295 L 170 298 L 168 299 L 165 300 L 161 300 L 156 301 L 153 301 L 150 302" stroke="#ffffff" stroke-width="2" stroke-linecap="round" stroke-linejoin="round" fill="none"/><path d="M 344 282 L 342 280 L 342 278 L 346 272 L 354 269 L 360 270 L 362 275 L 359 281 L 354 288 L 350 294 L 346 298 L 344 301 L 344 302 L 344 302 L 346 302 L 350 301 L 355 298 L 364 295 L 374 291 L 383 289" stroke="#ffffff" stroke-width="2" stroke-linecap="round" stroke-linejoin="round" fill="none"/><path d="M 397 245 L 395 244 L 390 245 L 387 254 L 383 270 L 381 284 L 383 289 L 388 289 L 392 286 L 396 280 L 397 275 L 397 270 L 394 269 L 388 271 L 382 277 L 381 282" stroke="#ffffff" stroke-width="2" stroke-linecap="round" stroke-linejoin="round" fill="none"/><path d="M 409 270 L 409 269 L 413 265 L 421 262 L 429 260 L 433 260 L 435 260" stroke="#ffffff" stroke-width="2" stroke-linecap="round" stroke-linejoin="round" fill="none"/><path d="M 417 255 L 415 255 L 415 256 L 414 263 L 416 271 L 418 276 L 419 276" stroke="#ffffff" stroke-width="2" stroke-linecap="round" stroke-linejoin="round" fill="none"/><path d="M 426 252 L 426 252 L 426 255 L 423 273 L 417 287 L 412 297 L 408 302 L 407 302" stroke="#ffffff" stroke-width="2" stroke-linecap="round" stroke-linejoin="round" fill="none"/><path d="M 457 256 L 453 256 L 449 259 L 445 266 L 440 273 L 435 279 L 433 281 L 433 281" stroke="#ffffff" stroke-width="2" stroke-linecap="round" stroke-linejoin="round" fill="none"/><path d="M 441 269 L 442 268 L 442 271 L 442 279 L 443 287 L 444 294" stroke="#ffffff" stroke-width="2" stroke-linecap="round" stroke-linejoin="round" fill="none"/><path d="M 471 280 L 469 281 L 468 281 L 467 281 L 470 277 L 477 269 L 487 260 L 494 255 L 495 257 L 492 262 L 489 266 L 487 269 L 486 270" stroke="#ffffff" stroke-width="2" stroke-linecap="round" stroke-linejoin="round" fill="none"/><path d="M 478 254 L 477 253 L 475 253 L 475 263 L 475 277 L 476 288 L 478 292" stroke="#ffffff" stroke-width="2" stroke-linecap="round" stroke-linejoin="round" fill="none"/><path d="M 488 245 L 486 244 L 486 244 L 486 250 L 487 262 L 487 265" stroke="#ffffff" stroke-width="2" stroke-linecap="round" stroke-linejoin="round" fill="none"/><path d="M 495 283 L 493 280 L 494 277 L 498 275 L 502 276 L 503 280 L 500 283 L 496 287 L 492 288" stroke="#ffffff" stroke-width="2" stroke-linecap="round" stroke-linejoin="round" fill="none"/><path d="M 519 266 L 518 266 L 520 258 L 526 254 L 535 251 L 542 248 L 545 245" stroke="#ffffff" stroke-width="2" stroke-linecap="round" stroke-linejoin="round" fill="none"/><path d="M 534 240 L 533 240 L 529 246 L 526 261 L 523 275 L 523 284 L 523 289" stroke="#ffffff" stroke-width="2" stroke-linecap="round" stroke-linejoin="round" fill="none"/><path d="M 539 272 L 538 266 L 541 264 L 546 263 L 547 263" stroke="#ffffff" stroke-width="2" stroke-linecap="round" stroke-linejoin="round" fill="none"/><path d="M 541 278 L 538 280 L 541 279 L 550 274 L 554 273" stroke="#ffffff" stroke-width="2" stroke-linecap="round" stroke-linejoin="round" fill="none"/><path d="M 343 334 L 343 334 L 340 339 L 341 354 L 344 370 L 348 373 L 352 370 L 356 361 L 358 350 L 360 340 L 363 334 L 363 334" stroke="#ffffff" stroke-width="2" stroke-linecap="round" stroke-linejoin="round" fill="none"/><path d="M 374 353 L 374 354 L 371 356 L 370 358 L 371 365 L 372 366" stroke="#ffffff" stroke-width="2" stroke-linecap="round" stroke-linejoin="round" fill="none"/><path d="M 375 328 L 374 328 L 371 325 L 370 325 L 371 329 L 372 332" stroke="#ffffff" stroke-width="2" stroke-linecap="round" stroke-linejoin="round" fill="none"/><path d="M 398 342 L 396 340 L 390 337 L 387 342 L 385 352 L 384 363 L 385 369 L 390 369 L 395 365 L 397 363" stroke="#ffffff" stroke-width="2" stroke-linecap="round" stroke-linejoin="round" fill="none"/><path d="M 405 352 L 404 352 L 407 344 L 415 338 L 423 333 L 427 331 L 427 330" stroke="#ffffff" stroke-width="2" stroke-linecap="round" stroke-linejoin="round" fill="none"/><path d="M 422 326 L 420 327 L 417 328 L 417 328 L 416 334 L 415 345 L 414 357 L 413 365 L 413 370" stroke="#ffffff" stroke-width="2" stroke-linecap="round" stroke-linejoin="round" fill="none"/><path d="M 437 341 L 434 341 L 432 342 L 430 349 L 432 355 L 436 356 L 440 354 L 442 349 L 442 345 L 441 341 L 438 340 L 435 343 L 434 346" stroke="#ffffff" stroke-width="2" stroke-linecap="round" stroke-linejoin="round" fill="none"/><path d="M 456 331 L 454 331 L 451 338 L 450 349 L 450 356 L 451 357 L 451 356 L 451 352 L 454 345 L 459 339 L 462 337" stroke="#ffffff" stroke-width="2" stroke-linecap="round" stroke-linejoin="round" fill="none"/><path d="M 473 347 L 472 348 L 466 355 L 467 358 L 469 360" stroke="#ffffff" stroke-width="2" stroke-linecap="round" stroke-linejoin="round" fill="none"/><path d="M 474 320 L 474 319 L 470 318 L 470 327 L 472 336" stroke="#ffffff" stroke-width="2" stroke-linecap="round" stroke-linejoin="round" fill="none"/><path d="M 501 340 L 500 337 L 497 334 L 495 334 L 492 337 L 489 342 L 486 348 L 487 351 L 491 352 L 496 350 L 500 346 L 502 342 L 502 339 L 502 337 L 502 340 L 502 344 L 504 349 L 505 350" stroke="#ffffff" stroke-width="2" stroke-linecap="round" stroke-linejoin="round" fill="none"/><path d="M 550 324 L 549 326 L 549 324 L 552 320 L 557 317 L 562 316 L 565 319 L 563 326 L 559 334 L 553 341 L 549 344 L 546 346 L 545 346 L 544 346 L 545 346 L 550 347 L 557 346 L 566 345 L 576 344" stroke="#ffffff" stroke-width="2" stroke-linecap="round" stroke-linejoin="round" fill="none"/><path d="M 593 312 L 592 311 L 588 313 L 585 319 L 584 325 L 585 329 L 589 330 L 595 332 L 600 334 L 602 336 L 601 338 L 596 341 L 591 343 L 586 343 L 583 341" stroke="#ffffff" stroke-width="2" stroke-linecap="round" stroke-linejoin="round" fill="none"/><path d="M 590 313 L 590 311 L 594 307 L 599 307 L 608 310 L 619 313" stroke="#ffffff" stroke-width="2" stroke-linecap="round" stroke-linejoin="round" fill="none"/></svg>
