<svg xmlns="http://www.w3.org/2000/svg" width="627" height="254" viewBox="0 0 627 254"><path d="M 12 28 L 12 28 L 10 27 L 10 30 L 10 37 L 10 48 L 11 57 L 12 62" stroke="#ffffff" stroke-width="2" stroke-linecap="round" stroke-linejoin="round" fill="none"/><path d="M 31 24 L 31 23 L 29 24 L 29 29 L 28 34 L 28 38" stroke="#ffffff" stroke-width="2" stroke-linecap="round" stroke-linejoin="round" fill="none"/><path d="M 29 29 L 29 27 L 30 22 L 31 20 L 34 20 L 37 20 L 40 24 L 42 31 L 43 40 L 42 50 L 42 57 L 42 61" stroke="#ffffff" stroke-width="2" stroke-linecap="round" stroke-linejoin="round" fill="none"/><path d="M 77 13 L 77 13 L 74 18 L 72 27 L 68 44 L 62 60 L 58 73 L 55 81 L 54 85" stroke="#ffffff" stroke-width="2" stroke-linecap="round" stroke-linejoin="round" fill="none"/><path d="M 91 50 L 90 50 L 89 49 L 89 53 L 89 61 L 89 71 L 89 75" stroke="#ffffff" stroke-width="2" stroke-linecap="round" stroke-linejoin="round" fill="none"/><path d="M 170 32 L 170 32 L 168 29 L 166 29 L 162 31 L 158 38 L 155 47 L 154 54 L 157 56 L 163 54 L 171 49" stroke="#ffffff" stroke-width="2" stroke-linecap="round" stroke-linejoin="round" fill="none"/><path d="M 197 27 L 196 27 L 193 28 L 191 32 L 190 37 L 191 41 L 195 43 L 200 43 L 204 44 L 205 45 L 203 47 L 199 50 L 194 53 L 189 55 L 186 55" stroke="#ffffff" stroke-width="2" stroke-linecap="round" stroke-linejoin="round" fill="none"/><path d="M 185 33 L 186 32 L 196 27 L 203 28 L 207 29" stroke="#ffffff" stroke-width="2" stroke-linecap="round" stroke-linejoin="round" fill="none"/><path d="M 221 24 L 220 24 L 215 25 L 213 28 L 213 32 L 215 36 L 218 39 L 222 42 L 225 45 L 226 47 L 226 48 L 223 49 L 220 50 L 215 50 L 212 50" stroke="#ffffff" stroke-width="2" stroke-linecap="round" stroke-linejoin="round" fill="none"/><path d="M 212 29 L 215 24 L 221 24 L 230 26 L 236 26" stroke="#ffffff" stroke-width="2" stroke-linecap="round" stroke-linejoin="round" fill="none"/><path d="M 289 12 L 285 10 L 280 19 L 274 37 L 272 52 L 273 58 L 277 61" stroke="#ffffff" stroke-width="2" stroke-linecap="round" stroke-linejoin="round" fill="none"/><path d="M 305 35 L 305 35 L 302 30 L 301 30 L 298 30 L 295 34 L 292 40 L 290 45 L 292 49 L 297 49 L 299 48" stroke="#ffffff" stroke-width="2" stroke-linecap="round" stroke-linejoin="round" fill="none"/><path d="M 333 37 L 331 34 L 329 33 L 326 32 L 323 33 L 323 35 L 322 39 L 323 42 L 324 45 L 325 47 L 325 47 L 323 47 L 322 47 L 321 46 L 319 46 L 318 45 L 317 44 L 317 42" stroke="#ffffff" stroke-width="2" stroke-linecap="round" stroke-linejoin="round" fill="none"/><path d="M 313 38 L 313 38 L 312 37 L 312 37 L 310 37 L 309 39 L 307 42 L 307 46 L 308 48 L 310 48 L 312 46 L 314 43 L 315 41 L 316 39 L 316 38 L 316 37 L 316 37 L 315 36 L 315 36 L 315 35" stroke="#ffffff" stroke-width="2" stroke-linecap="round" stroke-linejoin="round" fill="none"/><path d="M 314 37 L 313 37 L 312 36 L 312 35 L 313 37 L 314 40 L 315 45 L 316 47" stroke="#ffffff" stroke-width="2" stroke-linecap="round" stroke-linejoin="round" fill="none"/><path d="M 341 17 L 340 17 L 339 17 L 338 21 L 338 25 L 337 30 L 337 35 L 336 39 L 335 46 L 335 49 L 334 49 L 334 48 L 335 45 L 337 41 L 340 37 L 343 35 L 345 35 L 346 39 L 346 43 L 347 46 L 351 46 L 356 43 L 357 42" stroke="#ffffff" stroke-width="2" stroke-linecap="round" stroke-linejoin="round" fill="none"/><path d="M 370 11 L 373 15 L 376 24 L 375 35 L 369 45 L 362 52 L 356 55 L 355 55" stroke="#ffffff" stroke-width="2" stroke-linecap="round" stroke-linejoin="round" fill="none"/><path d="M 129 88 L 128 88 L 124 89 L 120 93 L 117 97 L 115 101 L 115 103 L 116 105 L 118 106 L 122 106 L 126 105 L 131 103 L 132 102" stroke="#ffffff" stroke-width="2" stroke-linecap="round" stroke-linejoin="round" fill="none"/><path d="M 126 90 L 124 90 L 121 94 L 121 102 L 120 112 L 120 120 L 121 123" stroke="#ffffff" stroke-width="2" stroke-linecap="round" stroke-linejoin="round" fill="none"/><path d="M 131 117 L 130 117 L 130 117 L 130 118 L 130 119" stroke="#ffffff" stroke-width="2" stroke-linecap="round" stroke-linejoin="round" fill="none"/><path d="M 151 92 L 149 92 L 145 96 L 145 100 L 149 105 L 154 107 L 159 108 L 163 108 L 164 109 L 163 110 L 160 113 L 155 115 L 151 116 L 149 116" stroke="#ffffff" stroke-width="2" stroke-linecap="round" stroke-linejoin="round" fill="none"/><path d="M 149 89 L 149 87 L 153 88 L 160 88 L 165 88" stroke="#ffffff" stroke-width="2" stroke-linecap="round" stroke-linejoin="round" fill="none"/><path d="M 207 88 L 207 85 L 210 83 L 215 82 L 219 84 L 219 89 L 217 94 L 214 97 L 212 98 L 211 97 L 211 96 L 214 95 L 217 95 L 220 99 L 220 102 L 219 105 L 215 107 L 210 108 L 207 108" stroke="#ffffff" stroke-width="2" stroke-linecap="round" stroke-linejoin="round" fill="none"/><path d="M 287 84 L 285 82 L 285 83 L 285 87 L 285 91" stroke="#ffffff" stroke-width="2" stroke-linecap="round" stroke-linejoin="round" fill="none"/><path d="M 281 108 L 280 108 L 284 99 L 287 96" stroke="#ffffff" stroke-width="2" stroke-linecap="round" stroke-linejoin="round" fill="none"/><path d="M 302 72 L 301 72 L 298 73 L 297 79 L 296 85 L 296 88" stroke="#ffffff" stroke-width="2" stroke-linecap="round" stroke-linejoin="round" fill="none"/><path d="M 293 89 L 293 88 L 297 81 L 303 77 L 310 72 L 315 69 L 318 68 L 318 69 L 318 70 L 317 73 L 315 77 L 313 80 L 311 83 L 310 84" stroke="#ffffff" stroke-width="2" stroke-linecap="round" stroke-linejoin="round" fill="none"/><path d="M 308 81 L 307 81 L 306 82 L 305 86 L 304 92 L 303 98 L 301 103 L 300 106 L 300 106" stroke="#ffffff" stroke-width="2" stroke-linecap="round" stroke-linejoin="round" fill="none"/><path d="M 299 97 L 299 96 L 302 96 L 307 98 L 316 101 L 327 101 L 329 101" stroke="#ffffff" stroke-width="2" stroke-linecap="round" stroke-linejoin="round" fill="none"/><path d="M 349 92 L 350 90 L 355 85 L 362 80 L 367 78 L 369 78" stroke="#ffffff" stroke-width="2" stroke-linecap="round" stroke-linejoin="round" fill="none"/><path d="M 353 99 L 352 99 L 353 97 L 357 94 L 360 91 L 361 91 L 359 93 L 358 95 L 356 97 L 355 100 L 355 101" stroke="#ffffff" stroke-width="2" stroke-linecap="round" stroke-linejoin="round" fill="none"/><path d="M 351 112 L 350 112 L 348 111 L 350 107 L 355 102 L 358 98" stroke="#ffffff" stroke-width="2" stroke-linecap="round" stroke-linejoin="round" fill="none"/><path d="M 359 72 L 359 73 L 359 81 L 361 94 L 366 105 L 371 108 L 374 109 L 375 108 L 375 107 L 374 103 L 374 102" stroke="#ffffff" stroke-width="2" stroke-linecap="round" stroke-linejoin="round" fill="none"/><path d="M 368 60 L 367 61 L 365 66 L 365 74 L 366 76" stroke="#ffffff" stroke-width="2" stroke-linecap="round" stroke-linejoin="round" fill="none"/><path d="M 394 60 L 393 60 L 392 63 L 392 67 L 392 69" stroke="#ffffff" stroke-width="2" stroke-linecap="round" stroke-linejoin="round" fill="none"/><path d="M 407 61 L 407 61 L 404 63 L 401 66 L 397 70 L 392 74 L 389 76" stroke="#ffffff" stroke-width="2" stroke-linecap="round" stroke-linejoin="round" fill="none"/><path d="M 381 80 L 381 79 L 387 77 L 399 73 L 412 69 L 418 69 L 420 69 L 420 70" stroke="#ffffff" stroke-width="2" stroke-linecap="round" stroke-linejoin="round" fill="none"/><path d="M 394 85 L 391 89 L 389 94 L 389 99 L 390 102 L 391 103 L 391 103" stroke="#ffffff" stroke-width="2" stroke-linecap="round" stroke-linejoin="round" fill="none"/><path d="M 390 91 L 390 89 L 391 86 L 393 85 L 396 86 L 398 88 L 399 93 L 399 98 L 398 103 L 396 106 L 395 106" stroke="#ffffff" stroke-width="2" stroke-linecap="round" stroke-linejoin="round" fill="none"/><path d="M 392 93 L 391 92 L 392 89 L 393 89" stroke="#ffffff" stroke-width="2" stroke-linecap="round" stroke-linejoin="round" fill="none"/><path d="M 394 95 L 394 95 L 393 96 L 393 96 L 396 94 L 397 92" stroke="#ffffff" stroke-width="2" stroke-linecap="round" stroke-linejoin="round" fill="none"/><path d="M 411 81 L 410 81 L 409 82 L 408 83 L 407 89 L 408 92 L 409 93" stroke="#ffffff" stroke-width="2" stroke-linecap="round" stroke-linejoin="round" fill="none"/><path d="M 417 80 L 417 78 L 418 79 L 418 85 L 418 94 L 415 105 L 410 113 L 406 117 L 403 117 L 399 117 L 398 117" stroke="#ffffff" stroke-width="2" stroke-linecap="round" stroke-linejoin="round" fill="none"/><path d="M 40 152 L 39 151 L 38 150 L 37 152 L 36 158 L 34 167 L 32 176 L 31 182 L 31 183" stroke="#ffffff" stroke-width="2" stroke-linecap="round" stroke-linejoin="round" fill="none"/><path d="M 31 153 L 32 149 L 38 148 L 45 148 L 51 148 L 56 147" stroke="#ffffff" stroke-width="2" stroke-linecap="round" stroke-linejoin="round" fill="none"/><path d="M 41 170 L 40 170 L 41 166 L 46 162 L 49 159" stroke="#ffffff" stroke-width="2" stroke-linecap="round" stroke-linejoin="round" fill="none"/><path d="M 46 176 L 45 175 L 46 172 L 49 169 L 52 168 L 54 169 L 54 173 L 53 179 L 51 185 L 49 189 L 49 190" stroke="#ffffff" stroke-width="2" stroke-linecap="round" stroke-linejoin="round" fill="none"/><path d="M 71 156 L 71 157 L 70 157 L 69 163 L 69 170 L 69 176 L 69 178" stroke="#ffffff" stroke-width="2" stroke-linecap="round" stroke-linejoin="round" fill="none"/><path d="M 71 159 L 71 156 L 71 155 L 72 152 L 75 151 L 77 150 L 80 150 L 82 153 L 83 159 L 83 165 L 83 170 L 83 174" stroke="#ffffff" stroke-width="2" stroke-linecap="round" stroke-linejoin="round" fill="none"/><path d="M 75 167 L 75 165 L 76 165" stroke="#ffffff" stroke-width="2" stroke-linecap="round" stroke-linejoin="round" fill="none"/><path d="M 74 181 L 71 182 L 72 182 L 76 178 L 79 176" stroke="#ffffff" stroke-width="2" stroke-linecap="round" stroke-linejoin="round" fill="none"/><path d="M 110 162 L 109 162 L 108 160 L 112 157 L 118 152 L 124 149" stroke="#ffffff" stroke-width="2" stroke-linecap="round" stroke-linejoin="round" fill="none"/><path d="M 119 146 L 119 146 L 117 145 L 116 150 L 115 160 L 114 171 L 112 180 L 111 183" stroke="#ffffff" stroke-width="2" stroke-linecap="round" stroke-linejoin="round" fill="none"/><path d="M 117 166 L 117 164 L 118 160 L 121 160 L 123 162 L 125 167 L 124 173 L 122 180 L 119 185 L 118 186" stroke="#ffffff" stroke-width="2" stroke-linecap="round" stroke-linejoin="round" fill="none"/><path d="M 115 171 L 115 168 L 119 169 L 124 172 L 130 175 L 131 175" stroke="#ffffff" stroke-width="2" stroke-linecap="round" stroke-linejoin="round" fill="none"/><path d="M 148 150 L 148 148 L 152 146 L 157 141 L 159 138 L 159 138 L 157 139 L 155 141 L 153 144 L 152 148 L 152 151 L 152 152" stroke="#ffffff" stroke-width="2" stroke-linecap="round" stroke-linejoin="round" fill="none"/><path d="M 148 158 L 147 157 L 150 152 L 155 148 L 157 147" stroke="#ffffff" stroke-width="2" stroke-linecap="round" stroke-linejoin="round" fill="none"/><path d="M 156 150 L 154 153 L 152 155 L 152 157 L 152 158 L 152 158" stroke="#ffffff" stroke-width="2" stroke-linecap="round" stroke-linejoin="round" fill="none"/><path d="M 159 149 L 159 150 L 158 150 L 158 151 L 155 154 L 153 158 L 152 159" stroke="#ffffff" stroke-width="2" stroke-linecap="round" stroke-linejoin="round" fill="none"/><path d="M 148 163 L 148 163 L 148 161 L 149 160 L 154 156 L 158 154 L 158 154" stroke="#ffffff" stroke-width="2" stroke-linecap="round" stroke-linejoin="round" fill="none"/><path d="M 151 167 L 150 167 L 149 167 L 148 168 L 150 167 L 154 164 L 158 160 L 161 157 L 162 155 L 161 154 L 160 154 L 158 154 L 157 155 L 156 157 L 156 161 L 155 166 L 155 172 L 154 175 L 153 176 L 152 175 L 151 174" stroke="#ffffff" stroke-width="2" stroke-linecap="round" stroke-linejoin="round" fill="none"/><path d="M 138 155 L 138 153 L 137 151 L 137 154 L 138 160 L 139 169 L 137 178 L 135 184 L 132 186 L 130 186 L 129 184 L 129 182 L 130 181 L 134 181 L 140 181 L 150 181 L 161 181 L 163 181" stroke="#ffffff" stroke-width="2" stroke-linecap="round" stroke-linejoin="round" fill="none"/><path d="M 182 165 L 181 162 L 184 160 L 187 158 L 191 157 L 194 158 L 195 161 L 195 164 L 194 165 L 193 166 L 192 166 L 191 165 L 190 162 L 190 159 L 190 155 L 190 153 L 190 154 L 189 159 L 187 165 L 186 170 L 186 173 L 186 174" stroke="#ffffff" stroke-width="2" stroke-linecap="round" stroke-linejoin="round" fill="none"/><path d="M 198 151 L 198 152 L 201 156 L 205 159 L 209 161 L 210 161" stroke="#ffffff" stroke-width="2" stroke-linecap="round" stroke-linejoin="round" fill="none"/><path d="M 207 138 L 203 140 L 203 146 L 205 148" stroke="#ffffff" stroke-width="2" stroke-linecap="round" stroke-linejoin="round" fill="none"/><path d="M 211 141 L 212 140 L 212 139 L 212 141 L 212 143" stroke="#ffffff" stroke-width="2" stroke-linecap="round" stroke-linejoin="round" fill="none"/><path d="M 254 141 L 255 137 L 253 138 L 249 143 L 245 150 L 243 156 L 243 159 L 246 159 L 252 157 L 257 155 L 260 156 L 259 161 L 254 166 L 249 171 L 245 173 L 244 173" stroke="#ffffff" stroke-width="2" stroke-linecap="round" stroke-linejoin="round" fill="none"/><path d="M 273 158 L 271 154 L 270 154 L 269 154 L 268 156 L 267 160 L 265 164 L 265 166 L 267 166 L 270 162 L 273 159 L 274 156 L 274 154 L 273 155 L 272 158 L 272 162 L 272 163" stroke="#ffffff" stroke-width="2" stroke-linecap="round" stroke-linejoin="round" fill="none"/><path d="M 288 147 L 287 147 L 283 154 L 282 162 L 282 168 L 284 169 L 287 167 L 290 162 L 293 157 L 296 151 L 299 146 L 300 143" stroke="#ffffff" stroke-width="2" stroke-linecap="round" stroke-linejoin="round" fill="none"/><path d="M 304 152 L 303 153 L 304 153 L 307 151 L 310 148 L 313 145 L 314 143 L 313 142 L 310 142 L 307 147 L 303 153 L 302 158 L 302 161 L 307 162 L 312 159 L 319 153 L 323 150" stroke="#ffffff" stroke-width="2" stroke-linecap="round" stroke-linejoin="round" fill="none"/><path d="M 339 144 L 338 143 L 336 147 L 335 154 L 335 162 L 338 165 L 342 164 L 346 160 L 350 155" stroke="#ffffff" stroke-width="2" stroke-linecap="round" stroke-linejoin="round" fill="none"/><path d="M 355 150 L 354 148 L 358 145 L 363 141 L 368 138 L 371 136 L 372 135" stroke="#ffffff" stroke-width="2" stroke-linecap="round" stroke-linejoin="round" fill="none"/><path d="M 365 133 L 363 134 L 362 138 L 360 147 L 358 157 L 358 163 L 358 167" stroke="#ffffff" stroke-width="2" stroke-linecap="round" stroke-linejoin="round" fill="none"/><path d="M 369 154 L 369 149 L 371 148 L 374 147 L 375 147" stroke="#ffffff" stroke-width="2" stroke-linecap="round" stroke-linejoin="round" fill="none"/><path d="M 372 159 L 370 159 L 369 159 L 370 159 L 373 157 L 379 153 L 381 152" stroke="#ffffff" stroke-width="2" stroke-linecap="round" stroke-linejoin="round" fill="none"/><path d="M 410 137 L 410 135 L 410 131 L 411 131 L 412 132 L 413 133 L 413 135 L 414 136 L 414 137 L 414 141 L 413 145 L 411 151 L 411 156 L 411 160 L 410 164 L 409 166 L 408 168 L 406 168 L 406 168" stroke="#ffffff" stroke-width="2" stroke-linecap="round" stroke-linejoin="round" fill="none"/><path d="M 398 156 L 398 156 L 398 153 L 401 152 L 407 150 L 414 148 L 421 145 L 422 144" stroke="#ffffff" stroke-width="2" stroke-linecap="round" stroke-linejoin="round" fill="none"/><path d="M 440 131 L 439 131 L 437 131 L 437 136 L 437 143 L 437 150 L 437 156 L 437 158" stroke="#ffffff" stroke-width="2" stroke-linecap="round" stroke-linejoin="round" fill="none"/><path d="M 434 142 L 433 141 L 432 138 L 435 138 L 438 138 L 440 137" stroke="#ffffff" stroke-width="2" stroke-linecap="round" stroke-linejoin="round" fill="none"/><path d="M 435 155 L 435 155 L 433 155 L 433 154 L 434 151 L 437 147 L 441 143 L 446 140 L 452 138 L 456 138 L 456 140 L 455 144 L 452 148 L 449 150 L 447 151 L 445 150 L 445 149 L 446 147 L 449 146 L 453 146 L 458 145 L 464 145 L 466 144" stroke="#ffffff" stroke-width="2" stroke-linecap="round" stroke-linejoin="round" fill="none"/><path d="M 480 137 L 480 137 L 477 135 L 478 135 L 481 135 L 484 135 L 486 134 L 487 134 L 487 135 L 487 136" stroke="#ffffff" stroke-width="2" stroke-linecap="round" stroke-linejoin="round" fill="none"/><path d="M 474 150 L 472 152 L 472 155 L 475 155 L 481 153 L 489 149 L 495 145" stroke="#ffffff" stroke-width="2" stroke-linecap="round" stroke-linejoin="round" fill="none"/><path d="M 519 139 L 516 139 L 517 139 L 520 137 L 524 136 L 528 134 L 529 134" stroke="#ffffff" stroke-width="2" stroke-linecap="round" stroke-linejoin="round" fill="none"/><path d="M 518 147 L 518 147 L 517 146 L 518 145 L 522 145 L 525 143 L 527 142" stroke="#ffffff" stroke-width="2" stroke-linecap="round" stroke-linejoin="round" fill="none"/><path d="M 527 125 L 526 124 L 524 123 L 524 128 L 523 138 L 522 149 L 523 155 L 525 157 L 528 156 L 532 153 L 534 151" stroke="#ffffff" stroke-width="2" stroke-linecap="round" stroke-linejoin="round" fill="none"/><path d="M 554 121 L 554 119 L 553 119 L 554 121 L 554 125 L 553 126" stroke="#ffffff" stroke-width="2" stroke-linecap="round" stroke-linejoin="round" fill="none"/><path d="M 548 131 L 546 131 L 545 132 L 544 135 L 544 138 L 544 140 L 544 141 L 545 141 L 547 141 L 550 140 L 553 139 L 555 140 L 555 143 L 552 147 L 548 150 L 544 152 L 542 152 L 542 151" stroke="#ffffff" stroke-width="2" stroke-linecap="round" stroke-linejoin="round" fill="none"/><path d="M 570 132 L 570 132 L 568 133 L 567 138 L 567 142 L 567 144 L 569 144" stroke="#ffffff" stroke-width="2" stroke-linecap="round" stroke-linejoin="round" fill="none"/><path d="M 578 133 L 578 133 L 579 132 L 579 132 L 579 135 L 578 140 L 577 141" stroke="#ffffff" stroke-width="2" stroke-linecap="round" stroke-linejoin="round" fill="none"/><path d="M 596 128 L 592 132 L 590 139 L 589 145 L 589 149 L 589 151 L 590 151" stroke="#ffffff" stroke-width="2" stroke-linecap="round" stroke-linejoin="round" fill="none"/><path d="M 602 135 L 602 134 L 603 132 L 603 131 L 606 130 L 610 130 L 611 130" stroke="#ffffff" stroke-width="2" stroke-linecap="round" stroke-linejoin="round" fill="none"/><path d="M 604 142 L 604 143 L 602 144 L 602 145 L 604 145 L 611 142 L 617 139" stroke="#ffffff" stroke-width="2" stroke-linecap="round" stroke-linejoin="round" fill="none"/><path d="M 54 204 L 54 204 L 54 200 L 53 201 L 51 207 L 47 215 L 43 223 L 42 227 L 42 228" stroke="#ffffff" stroke-width="2" stroke-linecap="round" stroke-linejoin="round" fill="none"/><path d="M 61 210 L 61 210 L 58 214 L 55 220 L 51 227 L 48 234 L 46 237" stroke="#ffffff" stroke-width="2" stroke-linecap="round" stroke-linejoin="round" fill="none"/><path d="M 54 225 L 54 229 L 54 235 L 54 241 L 55 244" stroke="#ffffff" stroke-width="2" stroke-linecap="round" stroke-linejoin="round" fill="none"/><path d="M 69 210 L 68 207 L 71 205 L 75 202 L 81 200 L 82 199" stroke="#ffffff" stroke-width="2" stroke-linecap="round" stroke-linejoin="round" fill="none"/><path d="M 68 221 L 67 221 L 68 219 L 71 216 L 75 213 L 78 210 L 79 209 L 78 209 L 77 211 L 76 213 L 76 219 L 76 228 L 76 237 L 76 242" stroke="#ffffff" stroke-width="2" stroke-linecap="round" stroke-linejoin="round" fill="none"/><path d="M 103 214 L 102 214 L 99 214 L 97 215 L 96 216 L 94 219 L 92 222 L 91 226 L 91 228 L 92 230 L 95 232 L 100 232 L 101 232" stroke="#ffffff" stroke-width="2" stroke-linecap="round" stroke-linejoin="round" fill="none"/><path d="M 183 201 L 182 200 L 181 203 L 179 210 L 176 218 L 174 225 L 173 228" stroke="#ffffff" stroke-width="2" stroke-linecap="round" stroke-linejoin="round" fill="none"/><path d="M 185 202 L 185 201 L 188 197 L 192 196 L 195 196 L 198 197" stroke="#ffffff" stroke-width="2" stroke-linecap="round" stroke-linejoin="round" fill="none"/><path d="M 189 213 L 188 212 L 189 210 L 192 208 L 193 208" stroke="#ffffff" stroke-width="2" stroke-linecap="round" stroke-linejoin="round" fill="none"/><path d="M 187 224 L 186 222 L 187 220 L 191 217 L 194 215 L 196 216 L 196 220 L 194 227 L 191 232 L 188 236 L 186 237" stroke="#ffffff" stroke-width="2" stroke-linecap="round" stroke-linejoin="round" fill="none"/><path d="M 210 212 L 210 212 L 207 217 L 207 222 L 208 224 L 209 225" stroke="#ffffff" stroke-width="2" stroke-linecap="round" stroke-linejoin="round" fill="none"/><path d="M 218 211 L 219 210 L 218 212 L 218 216 L 218 218" stroke="#ffffff" stroke-width="2" stroke-linecap="round" stroke-linejoin="round" fill="none"/><path d="M 228 203 L 228 202 L 233 197 L 237 196 L 240 198 L 240 201 L 238 205 L 236 208 L 234 210 L 232 210 L 232 209 L 233 207 L 236 207 L 239 207 L 241 209 L 241 214 L 239 219 L 236 223 L 233 224 L 231 224 L 230 223 L 230 221 L 231 219 L 234 218 L 238 216 L 242 216" stroke="#ffffff" stroke-width="2" stroke-linecap="round" stroke-linejoin="round" fill="none"/><path d="M 258 208 L 257 209 L 257 212 L 255 216 L 254 218 L 252 219 L 251 218 L 251 215 L 253 211 L 257 207 L 261 205 L 265 206 L 266 210 L 264 214 L 262 218 L 259 222" stroke="#ffffff" stroke-width="2" stroke-linecap="round" stroke-linejoin="round" fill="none"/><path d="M 283 212 L 281 212 L 282 211 L 284 209 L 288 207 L 291 206 L 293 207 L 293 211 L 292 214 L 290 216 L 289 217 L 288 216 L 288 214 L 288 209 L 288 205 L 289 200 L 289 198 L 289 198 L 289 199 L 289 202 L 288 208 L 285 214 L 283 219 L 282 221" stroke="#ffffff" stroke-width="2" stroke-linecap="round" stroke-linejoin="round" fill="none"/><path d="M 294 199 L 295 198 L 299 201 L 305 207 L 310 212 L 313 216 L 315 216 L 315 215" stroke="#ffffff" stroke-width="2" stroke-linecap="round" stroke-linejoin="round" fill="none"/><path d="M 310 189 L 310 189 L 307 194 L 306 198" stroke="#ffffff" stroke-width="2" stroke-linecap="round" stroke-linejoin="round" fill="none"/><path d="M 314 188 L 314 187 L 314 185 L 314 187 L 314 191" stroke="#ffffff" stroke-width="2" stroke-linecap="round" stroke-linejoin="round" fill="none"/><path d="M 353 192 L 350 191 L 347 194 L 346 200 L 347 207 L 351 211 L 356 212 L 360 210 L 363 208 L 365 205 L 366 204" stroke="#ffffff" stroke-width="2" stroke-linecap="round" stroke-linejoin="round" fill="none"/><path d="M 361 190 L 358 193 L 355 201 L 351 210 L 349 216 L 347 219" stroke="#ffffff" stroke-width="2" stroke-linecap="round" stroke-linejoin="round" fill="none"/><path d="M 335 206 L 335 206 L 335 205 L 336 204 L 344 199 L 355 195 L 364 192" stroke="#ffffff" stroke-width="2" stroke-linecap="round" stroke-linejoin="round" fill="none"/><path d="M 376 196 L 376 196 L 375 197 L 374 197 L 372 201 L 371 204 L 370 207 L 370 208 L 369 208 L 369 206 L 370 202 L 371 199 L 373 197 L 375 196 L 377 197 L 377 202 L 376 207 L 375 210 L 374 212" stroke="#ffffff" stroke-width="2" stroke-linecap="round" stroke-linejoin="round" fill="none"/><path d="M 391 192 L 391 190 L 393 189 L 395 188 L 396 188 L 397 188 L 396 189 L 394 192 L 393 196 L 393 200 L 393 204 L 394 207 L 395 211 L 395 214 L 393 216 L 390 217 L 387 217 L 386 217" stroke="#ffffff" stroke-width="2" stroke-linecap="round" stroke-linejoin="round" fill="none"/><path d="M 383 207 L 385 205 L 391 205 L 399 202 L 409 198 L 416 194" stroke="#ffffff" stroke-width="2" stroke-linecap="round" stroke-linejoin="round" fill="none"/><path d="M 461 174 L 460 172 L 460 173 L 462 177 L 465 184 L 468 191 L 470 197 L 471 199 L 471 200 L 471 199 L 471 199 L 471 197 L 470 194 L 471 191 L 472 187 L 473 185" stroke="#ffffff" stroke-width="2" stroke-linecap="round" stroke-linejoin="round" fill="none"/><path d="M 456 193 L 456 193 L 457 194 L 462 195 L 469 196 L 473 196" stroke="#ffffff" stroke-width="2" stroke-linecap="round" stroke-linejoin="round" fill="none"/><path d="M 493 196 L 492 195 L 489 197 L 489 202 L 489 206 L 489 209 L 490 209" stroke="#ffffff" stroke-width="2" stroke-linecap="round" stroke-linejoin="round" fill="none"/><path d="M 489 201 L 489 199 L 494 191 L 498 189 L 502 189 L 503 191 L 504 195 L 504 198 L 502 201 L 501 203 L 499 203 L 498 203" stroke="#ffffff" stroke-width="2" stroke-linecap="round" stroke-linejoin="round" fill="none"/><path d="M 499 191 L 500 190 L 499 193 L 496 199 L 494 205 L 492 208" stroke="#ffffff" stroke-width="2" stroke-linecap="round" stroke-linejoin="round" fill="none"/><path d="M 495 201 L 494 200 L 494 198 L 496 198 L 498 199" stroke="#ffffff" stroke-width="2" stroke-linecap="round" stroke-linejoin="round" fill="none"/><path d="M 492 205 L 490 204 L 492 203 L 495 201 L 497 200" stroke="#ffffff" stroke-width="2" stroke-linecap="round" stroke-linejoin="round" fill="none"/><path d="M 486 216 L 486 217 L 484 216 L 487 213 L 494 209 L 499 206 L 502 205 L 503 207 L 503 211 L 501 214 L 500 215 L 498 216 L 497 216 L 495 214 L 495 210 L 495 206 L 495 203 L 496 201 L 496 201 L 496 206 L 493 214 L 489 222 L 487 227 L 487 228" stroke="#ffffff" stroke-width="2" stroke-linecap="round" stroke-linejoin="round" fill="none"/><path d="M 520 207 L 519 207 L 518 207 L 518 209 L 517 211 L 516 213 L 515 214 L 514 214 L 514 212 L 514 209 L 516 206 L 519 205 L 522 206 L 524 209 L 525 213 L 524 216 L 523 218 L 522 218" stroke="#ffffff" stroke-width="2" stroke-linecap="round" stroke-linejoin="round" fill="none"/><path d="M 544 198 L 542 196 L 542 194 L 545 194 L 547 195 L 548 196 L 548 197 L 546 199 L 545 202 L 544 204 L 544 208 L 544 211 L 545 214 L 547 218 L 547 222 L 548 226 L 548 229 L 546 230 L 543 230 L 538 231 L 535 231" stroke="#ffffff" stroke-width="2" stroke-linecap="round" stroke-linejoin="round" fill="none"/><path d="M 534 218 L 533 218 L 535 217 L 543 215 L 554 212 L 567 208" stroke="#ffffff" stroke-width="2" stroke-linecap="round" stroke-linejoin="round" fill="none"/></svg>
