<svg xmlns="http://www.w3.org/2000/svg" width="605" height="243" viewBox="0 0 605 243"><path d="M 14 28 L 13 27 L 13 25 L 14 24 L 17 23 L 21 24 L 23 29 L 23 34 L 20 38 L 17 41 L 13 42 L 11 43 L 10 42 L 11 42 L 15 41 L 19 41 L 24 40 L 29 39 L 34 38 L 37 37" stroke="#ffffff" stroke-width="2" stroke-linecap="round" stroke-linejoin="round" fill="none"/><path d="M 41 21 L 38 20 L 37 20 L 35 23 L 35 28 L 37 33 L 41 36 L 45 36 L 48 36 L 49 37 L 48 38 L 45 40 L 41 41" stroke="#ffffff" stroke-width="2" stroke-linecap="round" stroke-linejoin="round" fill="none"/><path d="M 34 23 L 33 22 L 33 20 L 35 20 L 41 20 L 50 20 L 55 21" stroke="#ffffff" stroke-width="2" stroke-linecap="round" stroke-linejoin="round" fill="none"/><path d="M 77 11 L 77 9 L 76 9 L 74 13 L 70 26 L 64 45 L 57 59 L 54 68 L 53 69" stroke="#ffffff" stroke-width="2" stroke-linecap="round" stroke-linejoin="round" fill="none"/><path d="M 90 36 L 89 36 L 87 35 L 86 35 L 85 40 L 84 48 L 85 55 L 86 56" stroke="#ffffff" stroke-width="2" stroke-linecap="round" stroke-linejoin="round" fill="none"/><path d="M 101 35 L 99 36 L 97 38 L 97 43 L 98 48 L 102 49 L 105 48 L 108 44 L 109 40 L 109 35 L 107 32 L 104 30 L 100 31 L 97 35" stroke="#ffffff" stroke-width="2" stroke-linecap="round" stroke-linejoin="round" fill="none"/><path d="M 172 27 L 171 26 L 171 24 L 170 23 L 168 23 L 165 27 L 162 35 L 160 44 L 162 48 L 166 48 L 174 44 L 176 42" stroke="#ffffff" stroke-width="2" stroke-linecap="round" stroke-linejoin="round" fill="none"/><path d="M 206 16 L 204 17 L 201 20 L 198 28 L 196 39 L 196 46 L 199 48 L 202 48 L 204 45 L 206 41 L 207 37 L 207 34 L 205 32 L 201 33 L 197 37 L 194 42 L 193 45" stroke="#ffffff" stroke-width="2" stroke-linecap="round" stroke-linejoin="round" fill="none"/><path d="M 228 27 L 227 27 L 224 26 L 222 27 L 221 30 L 221 35 L 223 40 L 226 41 L 229 40 L 232 36 L 234 31 L 234 25 L 232 22 L 229 22 L 224 27 L 221 35" stroke="#ffffff" stroke-width="2" stroke-linecap="round" stroke-linejoin="round" fill="none"/><path d="M 49 91 L 48 90 L 47 89 L 46 90 L 45 95 L 45 104 L 45 112 L 47 116" stroke="#ffffff" stroke-width="2" stroke-linecap="round" stroke-linejoin="round" fill="none"/><path d="M 55 94 L 55 93 L 55 95 L 58 100 L 61 106" stroke="#ffffff" stroke-width="2" stroke-linecap="round" stroke-linejoin="round" fill="none"/><path d="M 62 85 L 61 85 L 61 86 L 60 88 L 61 90" stroke="#ffffff" stroke-width="2" stroke-linecap="round" stroke-linejoin="round" fill="none"/><path d="M 68 82 L 67 82 L 65 83 L 65 85 L 66 88" stroke="#ffffff" stroke-width="2" stroke-linecap="round" stroke-linejoin="round" fill="none"/><path d="M 78 96 L 76 96 L 75 95 L 75 97 L 75 100" stroke="#ffffff" stroke-width="2" stroke-linecap="round" stroke-linejoin="round" fill="none"/><path d="M 82 95 L 82 96 L 81 96 L 80 97 L 80 99" stroke="#ffffff" stroke-width="2" stroke-linecap="round" stroke-linejoin="round" fill="none"/><path d="M 87 96 L 86 96 L 85 99 L 84 103 L 84 104" stroke="#ffffff" stroke-width="2" stroke-linecap="round" stroke-linejoin="round" fill="none"/><path d="M 96 80 L 96 83 L 95 87 L 94 90" stroke="#ffffff" stroke-width="2" stroke-linecap="round" stroke-linejoin="round" fill="none"/><path d="M 93 88 L 93 86 L 93 83 L 93 81 L 95 81 L 98 83 L 100 88 L 100 96 L 100 104 L 97 111 L 95 115 L 95 116" stroke="#ffffff" stroke-width="2" stroke-linecap="round" stroke-linejoin="round" fill="none"/><path d="M 497 233 L 497 233" stroke="#ffffff" stroke-width="2" stroke-linecap="round" stroke-linejoin="round" fill="none"/><path d="M 130 81 L 130 80 L 131 79 L 129 79 L 127 80 L 125 84 L 122 92 L 121 101 L 122 106 L 126 108 L 130 105 L 133 100 L 135 95 L 134 92 L 132 91 L 127 94 L 122 99 L 119 105 L 119 106" stroke="#ffffff" stroke-width="2" stroke-linecap="round" stroke-linejoin="round" fill="none"/><path d="M 166 87 L 165 87 L 166 86 L 169 85 L 176 83 L 183 81 L 189 79 L 191 79" stroke="#ffffff" stroke-width="2" stroke-linecap="round" stroke-linejoin="round" fill="none"/><path d="M 172 78 L 171 77 L 171 76 L 171 79 L 172 84 L 174 90 L 177 94" stroke="#ffffff" stroke-width="2" stroke-linecap="round" stroke-linejoin="round" fill="none"/><path d="M 182 74 L 181 74 L 181 75 L 181 81 L 180 92 L 179 103 L 177 111 L 176 114" stroke="#ffffff" stroke-width="2" stroke-linecap="round" stroke-linejoin="round" fill="none"/><path d="M 210 75 L 209 75 L 208 77 L 205 81 L 200 88 L 196 95 L 193 100 L 193 101" stroke="#ffffff" stroke-width="2" stroke-linecap="round" stroke-linejoin="round" fill="none"/><path d="M 202 86 L 202 85 L 202 87 L 202 92 L 202 99 L 201 105" stroke="#ffffff" stroke-width="2" stroke-linecap="round" stroke-linejoin="round" fill="none"/><path d="M 215 78 L 216 78 L 216 79 L 215 81 L 215 87 L 215 95 L 216 102 L 217 103" stroke="#ffffff" stroke-width="2" stroke-linecap="round" stroke-linejoin="round" fill="none"/><path d="M 216 92 L 215 92 L 214 91 L 216 91 L 219 91 L 223 91" stroke="#ffffff" stroke-width="2" stroke-linecap="round" stroke-linejoin="round" fill="none"/><path d="M 225 73 L 224 74 L 222 75 L 222 77 L 222 79" stroke="#ffffff" stroke-width="2" stroke-linecap="round" stroke-linejoin="round" fill="none"/><path d="M 229 72 L 228 74 L 228 76" stroke="#ffffff" stroke-width="2" stroke-linecap="round" stroke-linejoin="round" fill="none"/><path d="M 245 84 L 244 83 L 243 82 L 243 84 L 243 89 L 243 95 L 244 99" stroke="#ffffff" stroke-width="2" stroke-linecap="round" stroke-linejoin="round" fill="none"/><path d="M 253 83 L 254 83 L 255 84 L 256 88 L 259 94 L 260 95" stroke="#ffffff" stroke-width="2" stroke-linecap="round" stroke-linejoin="round" fill="none"/><path d="M 269 80 L 267 79 L 266 78 L 269 77 L 275 76 L 280 74 L 283 72" stroke="#ffffff" stroke-width="2" stroke-linecap="round" stroke-linejoin="round" fill="none"/><path d="M 273 69 L 272 69 L 271 69 L 271 70 L 271 73 L 271 79 L 273 86 L 274 88" stroke="#ffffff" stroke-width="2" stroke-linecap="round" stroke-linejoin="round" fill="none"/><path d="M 276 66 L 276 65 L 277 65 L 277 70 L 278 79 L 278 89 L 277 98 L 275 104" stroke="#ffffff" stroke-width="2" stroke-linecap="round" stroke-linejoin="round" fill="none"/><path d="M 295 76 L 294 75 L 294 74 L 295 73 L 298 72 L 301 72" stroke="#ffffff" stroke-width="2" stroke-linecap="round" stroke-linejoin="round" fill="none"/><path d="M 294 83 L 293 83 L 294 83 L 297 82" stroke="#ffffff" stroke-width="2" stroke-linecap="round" stroke-linejoin="round" fill="none"/><path d="M 293 92 L 292 93 L 291 93 L 295 93 L 300 92 L 303 91" stroke="#ffffff" stroke-width="2" stroke-linecap="round" stroke-linejoin="round" fill="none"/><path d="M 317 81 L 316 80 L 316 79 L 316 78 L 319 77 L 323 76 L 326 76 L 328 76 L 327 77 L 325 78 L 323 81 L 321 85 L 321 88 L 323 90 L 326 90 L 329 89" stroke="#ffffff" stroke-width="2" stroke-linecap="round" stroke-linejoin="round" fill="none"/><path d="M 333 61 L 332 61 L 329 62 L 327 65 L 327 70 L 328 72" stroke="#ffffff" stroke-width="2" stroke-linecap="round" stroke-linejoin="round" fill="none"/><path d="M 336 62 L 336 61 L 334 60 L 334 61 L 334 65 L 335 66" stroke="#ffffff" stroke-width="2" stroke-linecap="round" stroke-linejoin="round" fill="none"/><path d="M 343 78 L 343 76 L 343 75 L 345 72 L 348 71 L 352 72 L 354 75 L 354 81 L 351 85 L 348 88 L 345 89 L 343 89 L 342 89 L 343 89 L 345 89 L 349 89 L 354 89 L 358 89 L 363 88 L 369 86" stroke="#ffffff" stroke-width="2" stroke-linecap="round" stroke-linejoin="round" fill="none"/><path d="M 369 79 L 369 77 L 369 76 L 371 74 L 375 71 L 380 70 L 383 71 L 384 75 L 382 81 L 379 86 L 376 90 L 373 92 L 372 92" stroke="#ffffff" stroke-width="2" stroke-linecap="round" stroke-linejoin="round" fill="none"/><path d="M 381 54 L 380 54 L 378 55 L 378 59 L 378 62" stroke="#ffffff" stroke-width="2" stroke-linecap="round" stroke-linejoin="round" fill="none"/><path d="M 391 51 L 390 49 L 389 49 L 389 53 L 390 60" stroke="#ffffff" stroke-width="2" stroke-linecap="round" stroke-linejoin="round" fill="none"/><path d="M 399 74 L 398 74 L 395 74 L 393 76 L 393 79 L 394 83 L 396 84" stroke="#ffffff" stroke-width="2" stroke-linecap="round" stroke-linejoin="round" fill="none"/><path d="M 398 76 L 398 75 L 397 72 L 397 70 L 400 67 L 404 65 L 408 64 L 410 64 L 410 65 L 411 68 L 411 71 L 410 74 L 409 77 L 409 78" stroke="#ffffff" stroke-width="2" stroke-linecap="round" stroke-linejoin="round" fill="none"/><path d="M 398 86 L 397 86 L 396 86 L 397 85 L 401 83 L 406 80 L 411 78" stroke="#ffffff" stroke-width="2" stroke-linecap="round" stroke-linejoin="round" fill="none"/><path d="M 48 143 L 47 143 L 46 143 L 45 144 L 45 150 L 45 157 L 47 162 L 49 165" stroke="#ffffff" stroke-width="2" stroke-linecap="round" stroke-linejoin="round" fill="none"/><path d="M 58 139 L 57 139 L 57 140 L 58 143 L 59 148 L 60 152" stroke="#ffffff" stroke-width="2" stroke-linecap="round" stroke-linejoin="round" fill="none"/><path d="M 72 153 L 71 152 L 72 149 L 75 145 L 79 142 L 82 142 L 83 147 L 81 152 L 78 157 L 75 161" stroke="#ffffff" stroke-width="2" stroke-linecap="round" stroke-linejoin="round" fill="none"/><path d="M 96 148 L 95 147 L 95 145 L 97 143 L 101 139 L 105 137" stroke="#ffffff" stroke-width="2" stroke-linecap="round" stroke-linejoin="round" fill="none"/><path d="M 98 154 L 97 154 L 95 154 L 97 152 L 102 149 L 107 145 L 108 143" stroke="#ffffff" stroke-width="2" stroke-linecap="round" stroke-linejoin="round" fill="none"/><path d="M 105 130 L 104 130 L 103 133 L 102 142 L 102 153 L 102 159 L 105 161 L 108 160 L 111 157" stroke="#ffffff" stroke-width="2" stroke-linecap="round" stroke-linejoin="round" fill="none"/><path d="M 122 137 L 120 137 L 120 139 L 121 143 L 123 145" stroke="#ffffff" stroke-width="2" stroke-linecap="round" stroke-linejoin="round" fill="none"/><path d="M 133 142 L 132 141 L 131 141 L 130 140 L 129 140 L 127 143 L 125 149 L 123 155 L 123 158 L 125 159 L 130 157 L 135 154" stroke="#ffffff" stroke-width="2" stroke-linecap="round" stroke-linejoin="round" fill="none"/><path d="M 154 150 L 153 150 L 152 150 L 153 149 L 157 146 L 162 144" stroke="#ffffff" stroke-width="2" stroke-linecap="round" stroke-linejoin="round" fill="none"/><path d="M 182 132 L 180 131 L 179 130 L 177 131 L 174 135 L 172 139 L 172 142 L 173 143 L 175 141 L 179 138 L 182 136 L 184 135 L 185 136 L 183 139 L 181 141 L 180 142 L 181 141 L 184 139 L 187 138 L 188 137" stroke="#ffffff" stroke-width="2" stroke-linecap="round" stroke-linejoin="round" fill="none"/><path d="M 183 139 L 181 141 L 180 142 L 180 144 L 179 150 L 179 156 L 180 161 L 181 164" stroke="#ffffff" stroke-width="2" stroke-linecap="round" stroke-linejoin="round" fill="none"/><path d="M 179 151 L 176 152 L 173 155 L 171 159 L 171 161" stroke="#ffffff" stroke-width="2" stroke-linecap="round" stroke-linejoin="round" fill="none"/><path d="M 181 147 L 181 146 L 181 144 L 183 143 L 186 143 L 188 143" stroke="#ffffff" stroke-width="2" stroke-linecap="round" stroke-linejoin="round" fill="none"/><path d="M 190 138 L 189 136 L 190 133 L 193 130 L 197 127 L 201 124 L 201 123 L 199 123 L 197 124 L 196 125 L 195 129 L 194 134 L 193 139 L 192 141" stroke="#ffffff" stroke-width="2" stroke-linecap="round" stroke-linejoin="round" fill="none"/><path d="M 188 149 L 187 147 L 188 144 L 192 139 L 197 135 L 202 133 L 205 132 L 203 133 L 201 136 L 198 141 L 195 146 L 193 151 L 192 153" stroke="#ffffff" stroke-width="2" stroke-linecap="round" stroke-linejoin="round" fill="none"/><path d="M 198 145 L 198 147 L 198 150 L 198 155 L 198 156" stroke="#ffffff" stroke-width="2" stroke-linecap="round" stroke-linejoin="round" fill="none"/><path d="M 198 152 L 198 148 L 199 144 L 201 142 L 203 140 L 204 141 L 205 142 L 205 145 L 205 149 L 205 152 L 206 155" stroke="#ffffff" stroke-width="2" stroke-linecap="round" stroke-linejoin="round" fill="none"/><path d="M 203 152 L 203 149 L 203 147 L 204 145 L 206 144" stroke="#ffffff" stroke-width="2" stroke-linecap="round" stroke-linejoin="round" fill="none"/><path d="M 201 159 L 200 160 L 201 159 L 203 157" stroke="#ffffff" stroke-width="2" stroke-linecap="round" stroke-linejoin="round" fill="none"/><path d="M 308 134 L 305 135 L 302 135 L 300 138 L 299 145 L 298 151 L 301 154 L 305 153 L 310 149" stroke="#ffffff" stroke-width="2" stroke-linecap="round" stroke-linejoin="round" fill="none"/><path d="M 318 125 L 318 124 L 319 122 L 318 122 L 317 126 L 315 132 L 313 140 L 311 150 L 310 155 L 310 156 L 312 153 L 314 148 L 317 142 L 319 139 L 320 138 L 320 142 L 320 146 L 319 150 L 319 153" stroke="#ffffff" stroke-width="2" stroke-linecap="round" stroke-linejoin="round" fill="none"/><path d="M 333 144 L 331 145 L 330 145 L 333 143 L 336 141 L 337 138 L 337 137 L 335 137 L 331 140 L 328 147 L 328 153 L 330 156 L 334 154" stroke="#ffffff" stroke-width="2" stroke-linecap="round" stroke-linejoin="round" fill="none"/><path d="M 343 134 L 343 136 L 342 139 L 341 144 L 339 150 L 339 153 L 339 152 L 340 149 L 341 144 L 344 139 L 346 137 L 347 139 L 347 144 L 346 149 L 345 153" stroke="#ffffff" stroke-width="2" stroke-linecap="round" stroke-linejoin="round" fill="none"/><path d="M 359 133 L 358 134 L 358 135 L 356 140 L 354 147 L 353 152 L 353 153 L 353 151 L 354 145 L 357 139 L 359 135 L 362 133 L 364 134 L 364 139 L 362 145 L 361 149 L 360 151" stroke="#ffffff" stroke-width="2" stroke-linecap="round" stroke-linejoin="round" fill="none"/><path d="M 378 136 L 375 137 L 374 138 L 376 139 L 378 139 L 381 138 L 382 136 L 382 135 L 380 135 L 376 136 L 372 141 L 370 147 L 371 151 L 375 151 L 382 148 L 389 141 L 390 139" stroke="#ffffff" stroke-width="2" stroke-linecap="round" stroke-linejoin="round" fill="none"/><path d="M 404 112 L 404 113 L 404 115 L 402 124 L 400 135 L 400 144 L 400 148" stroke="#ffffff" stroke-width="2" stroke-linecap="round" stroke-linejoin="round" fill="none"/><path d="M 403 134 L 402 133 L 400 131 L 399 131 L 396 132 L 394 135 L 391 141 L 390 146 L 391 148 L 395 147 L 401 143" stroke="#ffffff" stroke-width="2" stroke-linecap="round" stroke-linejoin="round" fill="none"/><path d="M 407 135 L 408 135 L 409 137 L 412 139 L 414 140" stroke="#ffffff" stroke-width="2" stroke-linecap="round" stroke-linejoin="round" fill="none"/><path d="M 419 129 L 418 129 L 417 129 L 415 133 L 412 142 L 407 152 L 402 160 L 397 166 L 395 167" stroke="#ffffff" stroke-width="2" stroke-linecap="round" stroke-linejoin="round" fill="none"/><path d="M 430 145 L 430 146 L 429 147 L 429 149 L 429 151 L 430 153" stroke="#ffffff" stroke-width="2" stroke-linecap="round" stroke-linejoin="round" fill="none"/><path d="M 445 128 L 445 127 L 445 126 L 447 124 L 450 123 L 454 122 L 455 122" stroke="#ffffff" stroke-width="2" stroke-linecap="round" stroke-linejoin="round" fill="none"/><path d="M 446 135 L 445 135 L 443 135 L 446 134 L 451 131 L 456 129 L 460 126 L 460 125" stroke="#ffffff" stroke-width="2" stroke-linecap="round" stroke-linejoin="round" fill="none"/><path d="M 448 116 L 447 115 L 447 118 L 449 129 L 451 142 L 453 149 L 454 151" stroke="#ffffff" stroke-width="2" stroke-linecap="round" stroke-linejoin="round" fill="none"/><path d="M 461 105 L 460 105 L 459 106 L 458 110 L 459 116" stroke="#ffffff" stroke-width="2" stroke-linecap="round" stroke-linejoin="round" fill="none"/><path d="M 468 107 L 468 106 L 467 106 L 467 109 L 467 113" stroke="#ffffff" stroke-width="2" stroke-linecap="round" stroke-linejoin="round" fill="none"/><path d="M 471 140 L 470 140 L 469 139 L 470 137 L 474 135 L 479 132 L 483 131 L 484 131 L 483 132 L 479 134 L 477 134" stroke="#ffffff" stroke-width="2" stroke-linecap="round" stroke-linejoin="round" fill="none"/><path d="M 472 126 L 473 125 L 473 129 L 474 135 L 476 141 L 478 142" stroke="#ffffff" stroke-width="2" stroke-linecap="round" stroke-linejoin="round" fill="none"/><path d="M 492 132 L 491 132 L 491 130 L 496 128 L 502 125 L 507 124 L 508 124" stroke="#ffffff" stroke-width="2" stroke-linecap="round" stroke-linejoin="round" fill="none"/><path d="M 497 117 L 496 117 L 494 117 L 493 120 L 492 127 L 493 136 L 496 142 L 501 143 L 506 141 L 508 137" stroke="#ffffff" stroke-width="2" stroke-linecap="round" stroke-linejoin="round" fill="none"/><path d="M 513 102 L 512 103 L 510 105 L 509 108 L 509 111 L 509 112" stroke="#ffffff" stroke-width="2" stroke-linecap="round" stroke-linejoin="round" fill="none"/><path d="M 517 105 L 517 104 L 517 103 L 516 106 L 516 109" stroke="#ffffff" stroke-width="2" stroke-linecap="round" stroke-linejoin="round" fill="none"/><path d="M 525 123 L 524 122 L 522 121 L 522 120 L 522 121 L 524 124 L 525 127 L 527 128" stroke="#ffffff" stroke-width="2" stroke-linecap="round" stroke-linejoin="round" fill="none"/><path d="M 533 126 L 532 126 L 530 125 L 528 125 L 526 127 L 525 129 L 525 132 L 525 135 L 527 137 L 532 138 L 538 135 L 540 134" stroke="#ffffff" stroke-width="2" stroke-linecap="round" stroke-linejoin="round" fill="none"/><path d="M 548 118 L 548 117 L 549 115 L 552 113 L 557 112 L 561 112" stroke="#ffffff" stroke-width="2" stroke-linecap="round" stroke-linejoin="round" fill="none"/><path d="M 555 117 L 554 117 L 552 118 L 550 120 L 550 123 L 553 124" stroke="#ffffff" stroke-width="2" stroke-linecap="round" stroke-linejoin="round" fill="none"/><path d="M 563 116 L 562 116 L 560 116 L 557 119 L 553 123 L 551 125" stroke="#ffffff" stroke-width="2" stroke-linecap="round" stroke-linejoin="round" fill="none"/><path d="M 542 130 L 541 130 L 541 129 L 545 128 L 552 125 L 558 122 L 562 120" stroke="#ffffff" stroke-width="2" stroke-linecap="round" stroke-linejoin="round" fill="none"/><path d="M 555 106 L 555 105 L 554 103 L 553 103 L 553 108 L 553 117 L 553 128 L 552 138 L 551 145 L 550 149 L 550 150" stroke="#ffffff" stroke-width="2" stroke-linecap="round" stroke-linejoin="round" fill="none"/><path d="M 556 129 L 554 129 L 552 130 L 549 134 L 545 138 L 542 141 L 541 142" stroke="#ffffff" stroke-width="2" stroke-linecap="round" stroke-linejoin="round" fill="none"/><path d="M 549 129 L 550 129 L 552 129 L 556 130 L 562 133 L 570 133" stroke="#ffffff" stroke-width="2" stroke-linecap="round" stroke-linejoin="round" fill="none"/><path d="M 587 103 L 586 104 L 585 107 L 584 112 L 583 114" stroke="#ffffff" stroke-width="2" stroke-linecap="round" stroke-linejoin="round" fill="none"/><path d="M 578 120 L 578 119 L 578 118 L 578 116 L 582 113 L 589 112 L 594 111 L 595 111" stroke="#ffffff" stroke-width="2" stroke-linecap="round" stroke-linejoin="round" fill="none"/><path d="M 583 116 L 580 117 L 577 121 L 573 128 L 570 135 L 569 140 L 569 143 L 570 144" stroke="#ffffff" stroke-width="2" stroke-linecap="round" stroke-linejoin="round" fill="none"/><path d="M 587 123 L 587 122 L 586 122 L 584 123 L 582 126 L 581 130 L 581 134 L 583 136 L 585 136 L 587 136 L 588 135 L 588 134 L 587 134 L 585 136 L 582 139 L 580 142 L 579 144 L 580 144 L 583 143 L 586 141 L 587 138 L 588 136 L 586 135 L 583 136 L 580 139 L 579 142 L 579 143" stroke="#ffffff" stroke-width="2" stroke-linecap="round" stroke-linejoin="round" fill="none"/><path d="M 587 131 L 587 130 L 586 129 L 586 127 L 589 126 L 594 124" stroke="#ffffff" stroke-width="2" stroke-linecap="round" stroke-linejoin="round" fill="none"/></svg>
