<svg xmlns="http://www.w3.org/2000/svg" width="701" height="670" viewBox="0 0 701 670"><path d="M 14 23 L 13 23 L 11 23 L 10 26 L 10 34 L 10 45 L 11 52 L 13 56" stroke="#ffffff" stroke-width="2" stroke-linecap="round" stroke-linejoin="round" fill="none"/><path d="M 73 12 L 70 11 L 69 11 L 68 13 L 66 22 L 61 37 L 54 53 L 48 65 L 45 73 L 45 76" stroke="#ffffff" stroke-width="2" stroke-linecap="round" stroke-linejoin="round" fill="none"/><path d="M 81 41 L 80 40 L 78 39 L 78 40 L 79 44 L 79 51 L 80 57 L 80 63 L 81 65" stroke="#ffffff" stroke-width="2" stroke-linecap="round" stroke-linejoin="round" fill="none"/><path d="M 94 38 L 93 38 L 91 37 L 92 36 L 96 37 L 100 39 L 103 41 L 104 42 L 103 44 L 100 47 L 96 50 L 94 52 L 92 54 L 93 54 L 95 54 L 98 54 L 101 53 L 105 53 L 111 52 L 117 52" stroke="#ffffff" stroke-width="2" stroke-linecap="round" stroke-linejoin="round" fill="none"/><path d="M 191 28 L 190 27 L 188 27 L 185 28 L 180 33 L 178 41 L 178 48 L 182 51 L 190 49 L 198 43 L 201 41" stroke="#ffffff" stroke-width="2" stroke-linecap="round" stroke-linejoin="round" fill="none"/><path d="M 246 33 L 246 30 L 245 27 L 245 24 L 246 22 L 247 19 L 247 17 L 246 16 L 245 16 L 241 18 L 238 23 L 235 30 L 234 36 L 235 39 L 239 39 L 243 36 L 247 30 L 249 26 L 249 24 L 248 24 L 247 26 L 246 30 L 244 37 L 241 48 L 238 60 L 238 66 L 238 68" stroke="#ffffff" stroke-width="2" stroke-linecap="round" stroke-linejoin="round" fill="none"/><path d="M 270 26 L 268 27 L 265 27 L 264 26 L 263 29 L 262 35 L 262 43 L 264 48 L 267 50 L 271 48 L 274 43 L 276 37 L 276 31 L 275 26 L 271 24 L 267 25 L 263 30 L 261 37" stroke="#ffffff" stroke-width="2" stroke-linecap="round" stroke-linejoin="round" fill="none"/><path d="M 515 22 L 516 19 L 513 17 L 509 19 L 503 24 L 498 30 L 494 36 L 493 38" stroke="#ffffff" stroke-width="2" stroke-linecap="round" stroke-linejoin="round" fill="none"/><path d="M 493 46 L 494 45 L 497 42 L 504 34 L 511 29 L 513 26" stroke="#ffffff" stroke-width="2" stroke-linecap="round" stroke-linejoin="round" fill="none"/><path d="M 509 24 L 508 24 L 507 24 L 507 25 L 507 28 L 507 34 L 508 39 L 508 41" stroke="#ffffff" stroke-width="2" stroke-linecap="round" stroke-linejoin="round" fill="none"/><path d="M 498 28 L 497 28 L 498 30 L 501 32 L 502 33" stroke="#ffffff" stroke-width="2" stroke-linecap="round" stroke-linejoin="round" fill="none"/><path d="M 512 25 L 510 26 L 508 29 L 505 36 L 502 43 L 501 47 L 500 48" stroke="#ffffff" stroke-width="2" stroke-linecap="round" stroke-linejoin="round" fill="none"/><path d="M 502 40 L 502 39 L 501 39 L 498 41 L 493 50 L 489 59 L 488 62" stroke="#ffffff" stroke-width="2" stroke-linecap="round" stroke-linejoin="round" fill="none"/><path d="M 512 37 L 516 34 L 518 33 L 519 34 L 519 35" stroke="#ffffff" stroke-width="2" stroke-linecap="round" stroke-linejoin="round" fill="none"/><path d="M 507 47 L 505 48 L 502 51 L 502 56 L 502 61 L 504 63 L 504 60 L 505 55 L 505 50 L 507 45 L 510 41 L 514 41 L 516 44 L 516 48 L 515 53 L 513 55 L 512 56" stroke="#ffffff" stroke-width="2" stroke-linecap="round" stroke-linejoin="round" fill="none"/><path d="M 512 46 L 512 45 L 511 49 L 510 54 L 510 57" stroke="#ffffff" stroke-width="2" stroke-linecap="round" stroke-linejoin="round" fill="none"/><path d="M 505 55 L 505 54 L 505 53 L 505 52 L 507 51 L 508 51" stroke="#ffffff" stroke-width="2" stroke-linecap="round" stroke-linejoin="round" fill="none"/><path d="M 505 62 L 504 63 L 503 64 L 506 61 L 513 56" stroke="#ffffff" stroke-width="2" stroke-linecap="round" stroke-linejoin="round" fill="none"/><path d="M 539 17 L 537 15 L 536 16 L 535 21 L 534 28" stroke="#ffffff" stroke-width="2" stroke-linecap="round" stroke-linejoin="round" fill="none"/><path d="M 534 26 L 535 22 L 537 19 L 540 19 L 543 19 L 546 21 L 548 22 L 547 23 L 546 24" stroke="#ffffff" stroke-width="2" stroke-linecap="round" stroke-linejoin="round" fill="none"/><path d="M 534 33 L 534 32 L 534 30 L 536 28 L 539 27 L 542 26 L 545 27 L 545 28" stroke="#ffffff" stroke-width="2" stroke-linecap="round" stroke-linejoin="round" fill="none"/><path d="M 526 46 L 525 45 L 526 42 L 529 39 L 535 37 L 539 36 L 540 36 L 538 37 L 537 40 L 536 42 L 536 45 L 538 47 L 541 50 L 544 53 L 546 57 L 546 60 L 543 62 L 537 64 L 532 64 L 530 62" stroke="#ffffff" stroke-width="2" stroke-linecap="round" stroke-linejoin="round" fill="none"/><path d="M 580 26 L 580 25 L 580 24 L 578 26 L 574 32 L 570 39 L 566 44" stroke="#ffffff" stroke-width="2" stroke-linecap="round" stroke-linejoin="round" fill="none"/><path d="M 570 37 L 570 36 L 571 35 L 572 36 L 573 40 L 574 46 L 575 52" stroke="#ffffff" stroke-width="2" stroke-linecap="round" stroke-linejoin="round" fill="none"/><path d="M 581 36 L 581 35 L 581 33 L 583 31 L 588 29 L 594 28 L 596 28" stroke="#ffffff" stroke-width="2" stroke-linecap="round" stroke-linejoin="round" fill="none"/><path d="M 583 42 L 583 41 L 582 39 L 584 37 L 588 37 L 591 38 L 591 41 L 590 45 L 588 48 L 586 49 L 584 48 L 584 47 L 586 45 L 590 43 L 597 42 L 605 40 L 607 40" stroke="#ffffff" stroke-width="2" stroke-linecap="round" stroke-linejoin="round" fill="none"/><path d="M 588 62 L 586 62 L 579 63 L 571 64 L 564 63 L 560 59 L 557 52 L 556 42 L 556 34 L 560 26 L 569 18 L 580 12 L 593 10 L 606 14 L 612 21 L 614 31 L 612 40 L 605 48 L 597 55 L 588 61 L 581 63 L 576 63" stroke="#ffffff" stroke-width="2" stroke-linecap="round" stroke-linejoin="round" fill="none"/><path d="M 585 41 L 584 41 L 586 40 L 592 38 L 599 36 L 602 35" stroke="#ffffff" stroke-width="2" stroke-linecap="round" stroke-linejoin="round" fill="none"/><path d="M 34 102 L 33 101 L 33 100 L 35 97 L 40 94 L 44 91 L 47 90 L 47 91" stroke="#ffffff" stroke-width="2" stroke-linecap="round" stroke-linejoin="round" fill="none"/><path d="M 38 99 L 37 99 L 36 99 L 36 103 L 36 111 L 38 119 L 40 124" stroke="#ffffff" stroke-width="2" stroke-linecap="round" stroke-linejoin="round" fill="none"/><path d="M 24 86 L 23 86 L 24 85 L 27 83 L 32 81 L 37 77 L 41 75 L 43 74" stroke="#ffffff" stroke-width="2" stroke-linecap="round" stroke-linejoin="round" fill="none"/><path d="M 31 91 L 31 90 L 31 89 L 31 88 L 33 87 L 34 87 L 37 85 L 41 83 L 44 81 L 46 81 L 47 82 L 47 83 L 47 84 L 47 85 L 47 87 L 47 89" stroke="#ffffff" stroke-width="2" stroke-linecap="round" stroke-linejoin="round" fill="none"/><path d="M 34 92 L 33 92 L 32 91 L 33 93 L 36 98 L 37 101" stroke="#ffffff" stroke-width="2" stroke-linecap="round" stroke-linejoin="round" fill="none"/><path d="M 47 104 L 47 103 L 46 102 L 46 104 L 49 110 L 51 117 L 54 125 L 56 129" stroke="#ffffff" stroke-width="2" stroke-linecap="round" stroke-linejoin="round" fill="none"/><path d="M 47 106 L 46 105 L 45 104 L 45 101 L 48 98 L 52 96 L 55 96 L 57 97 L 59 101 L 62 106 L 65 112 L 67 117 L 67 120 L 67 121" stroke="#ffffff" stroke-width="2" stroke-linecap="round" stroke-linejoin="round" fill="none"/><path d="M 55 108 L 53 108 L 52 107 L 53 106 L 56 105" stroke="#ffffff" stroke-width="2" stroke-linecap="round" stroke-linejoin="round" fill="none"/><path d="M 58 113 L 57 114 L 56 114 L 57 113 L 60 111" stroke="#ffffff" stroke-width="2" stroke-linecap="round" stroke-linejoin="round" fill="none"/><path d="M 70 102 L 70 101 L 69 99 L 72 96 L 79 92 L 86 88 L 90 86 L 89 86 L 87 87 L 85 90 L 83 95 L 82 103 L 82 112 L 85 119 L 89 124 L 90 124" stroke="#ffffff" stroke-width="2" stroke-linecap="round" stroke-linejoin="round" fill="none"/><path d="M 90 99 L 90 98 L 92 99 L 95 102" stroke="#ffffff" stroke-width="2" stroke-linecap="round" stroke-linejoin="round" fill="none"/><path d="M 384 636 L 383 638" stroke="#ffffff" stroke-width="2" stroke-linecap="round" stroke-linejoin="round" fill="none"/><path d="M 113 102 L 113 101 L 113 100 L 117 98 L 122 96 L 126 95 L 128 94 L 126 94 L 124 97 L 122 101 L 121 108 L 122 115 L 126 119 L 130 119" stroke="#ffffff" stroke-width="2" stroke-linecap="round" stroke-linejoin="round" fill="none"/><path d="M 130 76 L 128 77 L 127 81 L 127 86" stroke="#ffffff" stroke-width="2" stroke-linecap="round" stroke-linejoin="round" fill="none"/><path d="M 139 74 L 138 74 L 136 78 L 136 86 L 136 89" stroke="#ffffff" stroke-width="2" stroke-linecap="round" stroke-linejoin="round" fill="none"/><path d="M 157 111 L 156 110 L 156 107 L 157 102 L 158 97 L 159 95 L 160 95 L 162 99 L 167 105 L 173 109 L 177 111 L 180 112" stroke="#ffffff" stroke-width="2" stroke-linecap="round" stroke-linejoin="round" fill="none"/><path d="M 168 81 L 165 82 L 164 84 L 165 89 L 166 91" stroke="#ffffff" stroke-width="2" stroke-linecap="round" stroke-linejoin="round" fill="none"/><path d="M 175 81 L 174 81 L 174 83 L 175 88" stroke="#ffffff" stroke-width="2" stroke-linecap="round" stroke-linejoin="round" fill="none"/><path d="M 190 102 L 188 101 L 187 100 L 189 99 L 193 98 L 197 97" stroke="#ffffff" stroke-width="2" stroke-linecap="round" stroke-linejoin="round" fill="none"/><path d="M 208 97 L 207 97 L 207 95 L 209 94 L 214 92 L 219 92 L 221 93 L 221 96 L 217 101 L 214 107 L 211 110 L 210 112" stroke="#ffffff" stroke-width="2" stroke-linecap="round" stroke-linejoin="round" fill="none"/><path d="M 215 100 L 216 100 L 219 102 L 226 106 L 232 107" stroke="#ffffff" stroke-width="2" stroke-linecap="round" stroke-linejoin="round" fill="none"/><path d="M 245 98 L 245 99 L 245 98 L 247 97 L 251 95 L 255 93 L 258 92 L 259 92 L 259 93 L 259 96 L 257 103 L 254 111 L 251 118 L 250 121" stroke="#ffffff" stroke-width="2" stroke-linecap="round" stroke-linejoin="round" fill="none"/><path d="M 255 101 L 258 103 L 264 107 L 269 110" stroke="#ffffff" stroke-width="2" stroke-linecap="round" stroke-linejoin="round" fill="none"/><path d="M 285 86 L 282 86 L 281 88 L 281 94 L 280 101 L 280 106" stroke="#ffffff" stroke-width="2" stroke-linecap="round" stroke-linejoin="round" fill="none"/><path d="M 280 93 L 280 91 L 281 88 L 282 86 L 285 86 L 289 89 L 291 95 L 290 103 L 286 111 L 281 118 L 278 121" stroke="#ffffff" stroke-width="2" stroke-linecap="round" stroke-linejoin="round" fill="none"/><path d="M 302 95 L 303 95 L 304 94 L 306 92 L 309 89 L 313 88 L 315 86 L 314 85 L 312 86 L 311 90 L 309 95 L 308 100 L 307 106 L 306 111 L 304 114 L 302 115 L 300 115 L 298 114 L 298 113 L 300 113 L 305 112 L 310 111 L 317 109 L 322 107" stroke="#ffffff" stroke-width="2" stroke-linecap="round" stroke-linejoin="round" fill="none"/><path d="M 331 89 L 330 88 L 329 86 L 333 82 L 340 77 L 347 75 L 349 76 L 349 81 L 345 86 L 341 90 L 337 92 L 335 92 L 335 90 L 335 91 L 336 97 L 336 106 L 334 113 L 330 118 L 329 119" stroke="#ffffff" stroke-width="2" stroke-linecap="round" stroke-linejoin="round" fill="none"/><path d="M 369 80 L 369 79 L 368 78 L 367 78 L 364 84 L 362 92 L 360 98 L 360 101" stroke="#ffffff" stroke-width="2" stroke-linecap="round" stroke-linejoin="round" fill="none"/><path d="M 363 86 L 364 83 L 365 80 L 367 78 L 371 79 L 374 85 L 374 95 L 371 105 L 368 112 L 365 115 L 364 116" stroke="#ffffff" stroke-width="2" stroke-linecap="round" stroke-linejoin="round" fill="none"/><path d="M 375 65 L 373 65 L 371 67 L 371 72 L 373 75" stroke="#ffffff" stroke-width="2" stroke-linecap="round" stroke-linejoin="round" fill="none"/><path d="M 385 60 L 385 58 L 385 63 L 385 71 L 385 74" stroke="#ffffff" stroke-width="2" stroke-linecap="round" stroke-linejoin="round" fill="none"/><path d="M 388 88 L 388 87 L 388 85 L 388 84 L 390 83 L 393 82 L 396 82" stroke="#ffffff" stroke-width="2" stroke-linecap="round" stroke-linejoin="round" fill="none"/><path d="M 388 100 L 387 99 L 388 98 L 392 96 L 398 95 L 401 97 L 401 102 L 399 107 L 396 111 L 391 114 L 386 115" stroke="#ffffff" stroke-width="2" stroke-linecap="round" stroke-linejoin="round" fill="none"/><path d="M 434 81 L 433 79 L 432 79 L 431 86 L 431 100 L 430 113 L 430 120 L 430 122" stroke="#ffffff" stroke-width="2" stroke-linecap="round" stroke-linejoin="round" fill="none"/><path d="M 428 101 L 428 100 L 428 98 L 429 96 L 431 97 L 436 99 L 443 100" stroke="#ffffff" stroke-width="2" stroke-linecap="round" stroke-linejoin="round" fill="none"/><path d="M 452 95 L 450 95 L 450 94 L 450 97 L 450 100" stroke="#ffffff" stroke-width="2" stroke-linecap="round" stroke-linejoin="round" fill="none"/><path d="M 454 97 L 454 96 L 453 95 L 452 97 L 453 99 L 454 99" stroke="#ffffff" stroke-width="2" stroke-linecap="round" stroke-linejoin="round" fill="none"/><path d="M 460 94 L 460 95 L 459 98 L 456 104 L 451 112 L 448 116" stroke="#ffffff" stroke-width="2" stroke-linecap="round" stroke-linejoin="round" fill="none"/><path d="M 472 106 L 472 105 L 473 102 L 478 100 L 482 100 L 482 105 L 479 112 L 476 117 L 474 120 L 473 120" stroke="#ffffff" stroke-width="2" stroke-linecap="round" stroke-linejoin="round" fill="none"/><path d="M 487 90 L 486 89 L 485 86 L 486 83 L 488 81 L 490 80 L 490 82 L 487 86 L 484 90 L 483 92" stroke="#ffffff" stroke-width="2" stroke-linecap="round" stroke-linejoin="round" fill="none"/><path d="M 507 91 L 505 89 L 503 89 L 503 94 L 502 103 L 503 111 L 504 115 L 506 115 L 508 114 L 512 109 L 517 102 L 518 100" stroke="#ffffff" stroke-width="2" stroke-linecap="round" stroke-linejoin="round" fill="none"/><path d="M 539 87 L 537 87 L 535 88 L 530 95 L 524 103 L 520 109 L 518 111" stroke="#ffffff" stroke-width="2" stroke-linecap="round" stroke-linejoin="round" fill="none"/><path d="M 525 96 L 525 95 L 524 95 L 524 100 L 526 108 L 528 114 L 531 117" stroke="#ffffff" stroke-width="2" stroke-linecap="round" stroke-linejoin="round" fill="none"/><path d="M 542 108 L 541 108 L 540 106 L 543 102 L 550 97 L 558 91 L 564 88 L 566 87 L 568 88 L 568 89 L 567 92 L 562 96 L 560 97" stroke="#ffffff" stroke-width="2" stroke-linecap="round" stroke-linejoin="round" fill="none"/><path d="M 549 84 L 548 84 L 547 85 L 549 92 L 552 100 L 555 107 L 557 110" stroke="#ffffff" stroke-width="2" stroke-linecap="round" stroke-linejoin="round" fill="none"/><path d="M 582 105 L 583 103 L 591 100 L 599 99 L 603 99" stroke="#ffffff" stroke-width="2" stroke-linecap="round" stroke-linejoin="round" fill="none"/><path d="M 52 141 L 50 140 L 49 139 L 51 142 L 53 146 L 54 147" stroke="#ffffff" stroke-width="2" stroke-linecap="round" stroke-linejoin="round" fill="none"/><path d="M 64 134 L 63 134 L 61 135 L 58 139 L 55 146 L 52 153" stroke="#ffffff" stroke-width="2" stroke-linecap="round" stroke-linejoin="round" fill="none"/><path d="M 43 158 L 41 155 L 45 151 L 56 144 L 68 139 L 75 138 L 78 141" stroke="#ffffff" stroke-width="2" stroke-linecap="round" stroke-linejoin="round" fill="none"/><path d="M 55 155 L 53 155 L 51 155 L 51 157 L 52 164 L 53 173 L 54 180 L 55 182" stroke="#ffffff" stroke-width="2" stroke-linecap="round" stroke-linejoin="round" fill="none"/><path d="M 56 156 L 56 154 L 55 151 L 57 151 L 60 157 L 61 165 L 62 173 L 62 178" stroke="#ffffff" stroke-width="2" stroke-linecap="round" stroke-linejoin="round" fill="none"/><path d="M 55 160 L 53 160 L 52 159 L 53 159 L 55 159" stroke="#ffffff" stroke-width="2" stroke-linecap="round" stroke-linejoin="round" fill="none"/><path d="M 58 162 L 57 162 L 56 163 L 56 162 L 57 162" stroke="#ffffff" stroke-width="2" stroke-linecap="round" stroke-linejoin="round" fill="none"/><path d="M 68 148 L 67 146 L 66 146 L 66 149 L 66 154 L 67 157" stroke="#ffffff" stroke-width="2" stroke-linecap="round" stroke-linejoin="round" fill="none"/><path d="M 72 145 L 72 144 L 72 143 L 73 145 L 74 154 L 74 164 L 73 173 L 71 179 L 69 181" stroke="#ffffff" stroke-width="2" stroke-linecap="round" stroke-linejoin="round" fill="none"/><path d="M 94 141 L 93 141 L 91 139 L 92 137 L 94 135 L 96 135 L 96 137 L 96 141 L 95 147 L 94 154" stroke="#ffffff" stroke-width="2" stroke-linecap="round" stroke-linejoin="round" fill="none"/><path d="M 94 145 L 94 144 L 93 142 L 94 140 L 98 139 L 99 139" stroke="#ffffff" stroke-width="2" stroke-linecap="round" stroke-linejoin="round" fill="none"/><path d="M 90 153 L 89 154 L 89 153 L 90 151 L 93 149" stroke="#ffffff" stroke-width="2" stroke-linecap="round" stroke-linejoin="round" fill="none"/><path d="M 90 162 L 90 161 L 91 157 L 99 147" stroke="#ffffff" stroke-width="2" stroke-linecap="round" stroke-linejoin="round" fill="none"/><path d="M 111 126 L 110 127 L 108 129 L 107 134 L 106 140" stroke="#ffffff" stroke-width="2" stroke-linecap="round" stroke-linejoin="round" fill="none"/><path d="M 112 130 L 111 130 L 110 132 L 108 136 L 108 142 L 108 144" stroke="#ffffff" stroke-width="2" stroke-linecap="round" stroke-linejoin="round" fill="none"/><path d="M 96 158 L 96 159 L 96 160 L 97 159 L 101 156 L 106 150 L 109 145 L 110 143 L 108 147 L 106 153 L 104 159 L 101 166 L 99 171" stroke="#ffffff" stroke-width="2" stroke-linecap="round" stroke-linejoin="round" fill="none"/><path d="M 95 156 L 94 156 L 95 157 L 99 160 L 107 165 L 118 168" stroke="#ffffff" stroke-width="2" stroke-linecap="round" stroke-linejoin="round" fill="none"/><path d="M 131 149 L 128 148 L 128 147 L 131 145 L 135 144 L 139 144" stroke="#ffffff" stroke-width="2" stroke-linecap="round" stroke-linejoin="round" fill="none"/><path d="M 129 158 L 126 158 L 125 158 L 126 157 L 131 154 L 136 151 L 140 150" stroke="#ffffff" stroke-width="2" stroke-linecap="round" stroke-linejoin="round" fill="none"/><path d="M 138 133 L 136 133 L 135 133 L 134 140 L 134 151 L 136 160 L 138 165 L 140 167 L 144 166 L 150 160 L 153 156" stroke="#ffffff" stroke-width="2" stroke-linecap="round" stroke-linejoin="round" fill="none"/><path d="M 168 138 L 167 135 L 166 134 L 166 137 L 166 147 L 166 158 L 167 168 L 168 172" stroke="#ffffff" stroke-width="2" stroke-linecap="round" stroke-linejoin="round" fill="none"/><path d="M 165 154 L 163 153 L 163 152 L 165 152 L 170 152 L 179 152 L 182 151" stroke="#ffffff" stroke-width="2" stroke-linecap="round" stroke-linejoin="round" fill="none"/><path d="M 190 141 L 189 140 L 187 139 L 187 140 L 189 144 L 191 148" stroke="#ffffff" stroke-width="2" stroke-linecap="round" stroke-linejoin="round" fill="none"/><path d="M 197 136 L 197 135 L 197 140 L 197 150 L 195 161 L 191 171 L 188 177 L 187 178" stroke="#ffffff" stroke-width="2" stroke-linecap="round" stroke-linejoin="round" fill="none"/><path d="M 218 146 L 216 146 L 214 145 L 214 148 L 213 154 L 212 161 L 212 164 L 213 163 L 214 161 L 217 159 L 220 158 L 223 157 L 226 157 L 228 157" stroke="#ffffff" stroke-width="2" stroke-linecap="round" stroke-linejoin="round" fill="none"/><path d="M 240 151 L 239 150 L 239 149 L 242 147 L 248 146 L 252 145 L 253 145 L 252 146 L 249 148 L 247 152 L 246 158 L 247 163 L 251 166 L 258 164 L 260 161" stroke="#ffffff" stroke-width="2" stroke-linecap="round" stroke-linejoin="round" fill="none"/><path d="M 256 129 L 250 131 L 250 134 L 250 136" stroke="#ffffff" stroke-width="2" stroke-linecap="round" stroke-linejoin="round" fill="none"/><path d="M 265 129 L 264 129 L 262 129 L 261 134 L 262 135" stroke="#ffffff" stroke-width="2" stroke-linecap="round" stroke-linejoin="round" fill="none"/><path d="M 287 153 L 285 153 L 285 150 L 288 146 L 292 144" stroke="#ffffff" stroke-width="2" stroke-linecap="round" stroke-linejoin="round" fill="none"/><path d="M 288 158 L 286 158 L 284 158 L 286 156 L 292 153 L 293 153" stroke="#ffffff" stroke-width="2" stroke-linecap="round" stroke-linejoin="round" fill="none"/><path d="M 289 176 L 288 176 L 287 174 L 289 168 L 297 158" stroke="#ffffff" stroke-width="2" stroke-linecap="round" stroke-linejoin="round" fill="none"/><path d="M 312 128 L 310 127 L 309 126 L 308 131 L 307 141 L 306 143" stroke="#ffffff" stroke-width="2" stroke-linecap="round" stroke-linejoin="round" fill="none"/><path d="M 300 147 L 299 145 L 302 141 L 310 137 L 318 134 L 320 133 L 319 134 L 317 137 L 313 143 L 310 150 L 306 155 L 304 158 L 304 157 L 305 154 L 308 151 L 312 149 L 317 148 L 322 147 L 327 146 L 329 145" stroke="#ffffff" stroke-width="2" stroke-linecap="round" stroke-linejoin="round" fill="none"/><path d="M 306 156 L 304 156 L 303 159 L 303 165 L 303 171 L 303 172" stroke="#ffffff" stroke-width="2" stroke-linecap="round" stroke-linejoin="round" fill="none"/><path d="M 312 157 L 311 157 L 309 157 L 309 160 L 310 165 L 310 166" stroke="#ffffff" stroke-width="2" stroke-linecap="round" stroke-linejoin="round" fill="none"/><path d="M 317 153 L 316 153 L 315 153 L 314 156 L 314 163 L 315 169 L 318 171 L 322 168 L 325 165" stroke="#ffffff" stroke-width="2" stroke-linecap="round" stroke-linejoin="round" fill="none"/><path d="M 342 149 L 339 149 L 336 154 L 335 160 L 337 166 L 340 169 L 346 167 L 351 163 L 354 159" stroke="#ffffff" stroke-width="2" stroke-linecap="round" stroke-linejoin="round" fill="none"/><path d="M 352 149 L 351 147 L 351 146 L 356 143 L 363 141 L 366 141 L 367 141 L 366 141 L 365 142 L 363 146 L 361 153 L 359 159 L 361 164 L 367 165 L 374 164" stroke="#ffffff" stroke-width="2" stroke-linecap="round" stroke-linejoin="round" fill="none"/><path d="M 400 141 L 399 141 L 396 142 L 394 150 L 393 162 L 395 169 L 398 172" stroke="#ffffff" stroke-width="2" stroke-linecap="round" stroke-linejoin="round" fill="none"/><path d="M 406 145 L 406 144 L 406 141 L 409 138 L 413 136 L 417 137 L 419 139" stroke="#ffffff" stroke-width="2" stroke-linecap="round" stroke-linejoin="round" fill="none"/><path d="M 407 151 L 406 150 L 407 149 L 411 146 L 416 143 L 419 141 L 420 140 L 418 140 L 415 140 L 414 140 L 413 140 L 413 142 L 413 148 L 411 156 L 410 162 L 409 164 L 408 164 L 407 160 L 407 157 L 408 155 L 411 153 L 416 152 L 425 150 L 429 150" stroke="#ffffff" stroke-width="2" stroke-linecap="round" stroke-linejoin="round" fill="none"/><path d="M 436 140 L 435 140 L 433 141 L 432 147 L 431 157 L 432 163 L 434 166 L 435 166" stroke="#ffffff" stroke-width="2" stroke-linecap="round" stroke-linejoin="round" fill="none"/><path d="M 445 140 L 445 139 L 445 136 L 446 135 L 450 135 L 454 137 L 455 137" stroke="#ffffff" stroke-width="2" stroke-linecap="round" stroke-linejoin="round" fill="none"/><path d="M 445 148 L 443 148 L 444 146 L 450 144 L 457 142 L 461 142" stroke="#ffffff" stroke-width="2" stroke-linecap="round" stroke-linejoin="round" fill="none"/><path d="M 454 139 L 452 138 L 451 138 L 451 140 L 451 146 L 450 156 L 449 163 L 448 166 L 447 167 L 445 165 L 443 161 L 443 159 L 443 158 L 445 158 L 449 158 L 455 158 L 461 158" stroke="#ffffff" stroke-width="2" stroke-linecap="round" stroke-linejoin="round" fill="none"/><path d="M 76 215 L 75 215 L 74 214 L 72 213 L 68 212 L 64 214 L 60 221 L 60 232 L 63 240 L 69 242 L 76 240 L 78 239" stroke="#ffffff" stroke-width="2" stroke-linecap="round" stroke-linejoin="round" fill="none"/><path d="M 84 202 L 83 201 L 83 202 L 83 209 L 83 224 L 81 238 L 81 244 L 82 241 L 84 234 L 87 227 L 89 222 L 91 222 L 92 225 L 93 231 L 93 237 L 94 242 L 95 243" stroke="#ffffff" stroke-width="2" stroke-linecap="round" stroke-linejoin="round" fill="none"/><path d="M 103 230 L 101 230 L 101 232 L 101 233" stroke="#ffffff" stroke-width="2" stroke-linecap="round" stroke-linejoin="round" fill="none"/><path d="M 101 211 L 100 212 L 98 213 L 98 217 L 99 221" stroke="#ffffff" stroke-width="2" stroke-linecap="round" stroke-linejoin="round" fill="none"/><path d="M 109 212 L 108 212 L 107 213 L 106 218 L 106 226 L 106 232 L 107 233 L 107 232 L 107 227 L 110 221 L 113 218 L 116 217 L 117 223 L 117 230 L 117 234" stroke="#ffffff" stroke-width="2" stroke-linecap="round" stroke-linejoin="round" fill="none"/><path d="M 125 215 L 123 216 L 123 217 L 124 218 L 127 219 L 130 218 L 130 216 L 130 214 L 128 212 L 125 212 L 123 215 L 121 221 L 122 227 L 125 230 L 130 229" stroke="#ffffff" stroke-width="2" stroke-linecap="round" stroke-linejoin="round" fill="none"/><path d="M 147 211 L 144 210 L 142 209 L 139 209 L 137 210 L 136 213 L 136 217 L 138 220 L 142 223 L 145 225 L 145 227 L 141 229 L 136 229 L 132 228 L 131 226" stroke="#ffffff" stroke-width="2" stroke-linecap="round" stroke-linejoin="round" fill="none"/><path d="M 153 214 L 152 215 L 151 215 L 152 216 L 155 217 L 159 216 L 162 214 L 163 212 L 163 209 L 161 207 L 158 208 L 154 212 L 151 220 L 151 226 L 153 229 L 161 227 L 163 225" stroke="#ffffff" stroke-width="2" stroke-linecap="round" stroke-linejoin="round" fill="none"/><path d="M 190 231 L 190 230 L 190 226 L 191 220 L 196 211 L 204 201 L 211 196 L 215 196 L 215 199 L 215 204 L 212 209 L 209 213" stroke="#ffffff" stroke-width="2" stroke-linecap="round" stroke-linejoin="round" fill="none"/><path d="M 193 199 L 191 198 L 191 197 L 193 204 L 197 218 L 200 230 L 201 232" stroke="#ffffff" stroke-width="2" stroke-linecap="round" stroke-linejoin="round" fill="none"/><path d="M 207 189 L 206 188 L 205 187 L 206 192 L 208 204 L 209 208" stroke="#ffffff" stroke-width="2" stroke-linecap="round" stroke-linejoin="round" fill="none"/><path d="M 229 209 L 227 209 L 225 209 L 225 213 L 226 217 L 228 220 L 229 220" stroke="#ffffff" stroke-width="2" stroke-linecap="round" stroke-linejoin="round" fill="none"/><path d="M 233 209 L 233 208 L 234 205 L 238 202 L 244 199 L 250 197 L 253 196" stroke="#ffffff" stroke-width="2" stroke-linecap="round" stroke-linejoin="round" fill="none"/><path d="M 242 192 L 240 191 L 242 196 L 244 207 L 244 220 L 242 230 L 240 235 L 240 236" stroke="#ffffff" stroke-width="2" stroke-linecap="round" stroke-linejoin="round" fill="none"/><path d="M 263 201 L 262 200 L 261 198 L 262 202 L 263 207 L 265 211" stroke="#ffffff" stroke-width="2" stroke-linecap="round" stroke-linejoin="round" fill="none"/><path d="M 272 207 L 270 207 L 268 207 L 267 206 L 266 206 L 265 209 L 263 213 L 263 218 L 266 221 L 272 221 L 276 219" stroke="#ffffff" stroke-width="2" stroke-linecap="round" stroke-linejoin="round" fill="none"/><path d="M 276 195 L 274 198 L 274 201 L 274 203" stroke="#ffffff" stroke-width="2" stroke-linecap="round" stroke-linejoin="round" fill="none"/><path d="M 280 194 L 281 192 L 281 191 L 281 195 L 281 196" stroke="#ffffff" stroke-width="2" stroke-linecap="round" stroke-linejoin="round" fill="none"/><path d="M 310 210 L 309 210 L 307 209 L 306 209 L 306 214 L 309 220 L 312 222" stroke="#ffffff" stroke-width="2" stroke-linecap="round" stroke-linejoin="round" fill="none"/><path d="M 322 207 L 322 206 L 321 206 L 321 208 L 322 213 L 324 217" stroke="#ffffff" stroke-width="2" stroke-linecap="round" stroke-linejoin="round" fill="none"/><path d="M 342 202 L 340 202 L 339 204 L 339 210 L 341 215 L 343 217" stroke="#ffffff" stroke-width="2" stroke-linecap="round" stroke-linejoin="round" fill="none"/><path d="M 350 204 L 350 203 L 350 205 L 350 210 L 350 211" stroke="#ffffff" stroke-width="2" stroke-linecap="round" stroke-linejoin="round" fill="none"/><path d="M 371 189 L 370 188 L 369 188 L 369 193 L 368 204 L 366 217 L 365 224 L 364 228" stroke="#ffffff" stroke-width="2" stroke-linecap="round" stroke-linejoin="round" fill="none"/><path d="M 366 205 L 366 206 L 366 207 L 368 209 L 375 213 L 385 216 L 393 216" stroke="#ffffff" stroke-width="2" stroke-linecap="round" stroke-linejoin="round" fill="none"/><path d="M 507 174 L 505 173 L 503 172 L 500 174 L 496 181 L 495 187 L 494 191" stroke="#ffffff" stroke-width="2" stroke-linecap="round" stroke-linejoin="round" fill="none"/><path d="M 499 179 L 500 178 L 500 174 L 502 172 L 504 173 L 505 178 L 503 186 L 499 195 L 494 204 L 489 210 L 488 212" stroke="#ffffff" stroke-width="2" stroke-linecap="round" stroke-linejoin="round" fill="none"/><path d="M 492 190 L 493 187 L 494 185 L 496 185 L 501 189 L 504 191" stroke="#ffffff" stroke-width="2" stroke-linecap="round" stroke-linejoin="round" fill="none"/><path d="M 518 183 L 514 183 L 511 185 L 508 192 L 507 198 L 507 202" stroke="#ffffff" stroke-width="2" stroke-linecap="round" stroke-linejoin="round" fill="none"/><path d="M 505 195 L 506 191 L 508 186 L 511 183 L 515 184 L 518 189 L 518 196 L 517 204 L 513 212 L 509 219 L 506 221" stroke="#ffffff" stroke-width="2" stroke-linecap="round" stroke-linejoin="round" fill="none"/><path d="M 508 198 L 507 197 L 511 199 L 516 201" stroke="#ffffff" stroke-width="2" stroke-linecap="round" stroke-linejoin="round" fill="none"/><path d="M 529 192 L 528 191 L 526 190 L 525 190 L 525 193 L 526 197 L 529 200 L 532 200 L 534 199" stroke="#ffffff" stroke-width="2" stroke-linecap="round" stroke-linejoin="round" fill="none"/><path d="M 535 194 L 535 193 L 536 189 L 536 187 L 537 186 L 537 191 L 537 197 L 538 202 L 538 203" stroke="#ffffff" stroke-width="2" stroke-linecap="round" stroke-linejoin="round" fill="none"/><path d="M 554 194 L 553 194 L 552 193 L 552 192 L 556 190 L 560 189 L 564 189 L 565 192 L 564 197 L 562 200 L 560 202 L 559 201 L 558 198 L 557 193 L 557 186 L 558 180 L 558 177 L 558 179 L 556 186 L 553 197 L 551 206 L 551 212" stroke="#ffffff" stroke-width="2" stroke-linecap="round" stroke-linejoin="round" fill="none"/><path d="M 569 176 L 569 175 L 571 181 L 576 189 L 578 191" stroke="#ffffff" stroke-width="2" stroke-linecap="round" stroke-linejoin="round" fill="none"/><path d="M 598 170 L 596 169 L 595 168 L 594 170 L 593 175" stroke="#ffffff" stroke-width="2" stroke-linecap="round" stroke-linejoin="round" fill="none"/><path d="M 589 180 L 588 180 L 586 181 L 583 185 L 581 190 L 581 193 L 583 194 L 587 193 L 591 192 L 595 191 L 598 194 L 598 198 L 594 202 L 590 204 L 585 205 L 581 205 L 580 204" stroke="#ffffff" stroke-width="2" stroke-linecap="round" stroke-linejoin="round" fill="none"/><path d="M 614 173 L 613 170 L 616 167 L 624 166 L 632 166 L 639 168 L 642 170 L 643 170" stroke="#ffffff" stroke-width="2" stroke-linecap="round" stroke-linejoin="round" fill="none"/><path d="M 629 164 L 628 164 L 627 162 L 627 166 L 627 175 L 625 185 L 622 193 L 619 197 L 616 197 L 614 196 L 614 191 L 614 185 L 617 180 L 621 178 L 624 180 L 626 187 L 624 197 L 620 206 L 616 211 L 615 212" stroke="#ffffff" stroke-width="2" stroke-linecap="round" stroke-linejoin="round" fill="none"/><path d="M 667 182 L 664 180 L 663 179 L 662 179 L 660 180 L 658 182 L 654 185 L 649 189 L 646 191 L 645 192 L 646 193 L 650 196 L 654 199 L 660 203 L 664 207" stroke="#ffffff" stroke-width="2" stroke-linecap="round" stroke-linejoin="round" fill="none"/><path d="M 48 265 L 47 265 L 46 265 L 45 271 L 46 278 L 48 282" stroke="#ffffff" stroke-width="2" stroke-linecap="round" stroke-linejoin="round" fill="none"/><path d="M 62 264 L 61 262 L 60 261 L 59 262 L 57 268 L 54 275 L 52 278" stroke="#ffffff" stroke-width="2" stroke-linecap="round" stroke-linejoin="round" fill="none"/><path d="M 47 283 L 46 282 L 46 280 L 49 277 L 55 274 L 60 273 L 61 273" stroke="#ffffff" stroke-width="2" stroke-linecap="round" stroke-linejoin="round" fill="none"/><path d="M 39 300 L 38 301 L 37 300 L 40 298 L 46 293 L 55 287 L 61 282 L 64 279 L 65 278" stroke="#ffffff" stroke-width="2" stroke-linecap="round" stroke-linejoin="round" fill="none"/><path d="M 54 259 L 51 259 L 51 262 L 53 274 L 54 289 L 53 303 L 51 312 L 51 317 L 52 318" stroke="#ffffff" stroke-width="2" stroke-linecap="round" stroke-linejoin="round" fill="none"/><path d="M 86 263 L 84 264 L 81 265 L 81 268 L 81 275 L 81 282 L 80 286" stroke="#ffffff" stroke-width="2" stroke-linecap="round" stroke-linejoin="round" fill="none"/><path d="M 82 276 L 82 275 L 82 272 L 84 268 L 91 264 L 99 262 L 104 262" stroke="#ffffff" stroke-width="2" stroke-linecap="round" stroke-linejoin="round" fill="none"/><path d="M 93 273 L 91 274 L 89 276 L 89 281 L 89 285 L 90 286" stroke="#ffffff" stroke-width="2" stroke-linecap="round" stroke-linejoin="round" fill="none"/><path d="M 93 279 L 92 278 L 91 276 L 92 274 L 96 273 L 100 272" stroke="#ffffff" stroke-width="2" stroke-linecap="round" stroke-linejoin="round" fill="none"/><path d="M 85 296 L 83 296 L 84 295 L 92 289 L 101 283 L 106 279 L 108 277 L 108 276" stroke="#ffffff" stroke-width="2" stroke-linecap="round" stroke-linejoin="round" fill="none"/><path d="M 101 265 L 100 265 L 98 264 L 97 265 L 97 273 L 97 287 L 98 299 L 98 308" stroke="#ffffff" stroke-width="2" stroke-linecap="round" stroke-linejoin="round" fill="none"/><path d="M 38 288 L 37 288 L 38 285 L 41 281 L 45 278 L 48 277" stroke="#ffffff" stroke-width="2" stroke-linecap="round" stroke-linejoin="round" fill="none"/><path d="M 133 285 L 132 285 L 130 284 L 130 283 L 135 279 L 142 274 L 147 271" stroke="#ffffff" stroke-width="2" stroke-linecap="round" stroke-linejoin="round" fill="none"/><path d="M 140 266 L 139 266 L 137 265 L 137 269 L 137 276 L 138 281 L 141 282 L 145 280 L 149 276" stroke="#ffffff" stroke-width="2" stroke-linecap="round" stroke-linejoin="round" fill="none"/><path d="M 157 274 L 156 272 L 157 268 L 162 263 L 168 260 L 172 259 L 173 261 L 172 266 L 170 272 L 167 277 L 166 279 L 165 279 L 165 276 L 164 272 L 164 267 L 165 265 L 166 266 L 165 273 L 163 284 L 159 293 L 158 299" stroke="#ffffff" stroke-width="2" stroke-linecap="round" stroke-linejoin="round" fill="none"/><path d="M 186 286 L 185 284 L 185 283 L 188 283 L 191 286 L 191 291 L 189 295 L 188 296" stroke="#ffffff" stroke-width="2" stroke-linecap="round" stroke-linejoin="round" fill="none"/><path d="M 196 269 L 196 266 L 198 264 L 204 261 L 211 259 L 214 259 L 212 261 L 208 266 L 205 275 L 204 284 L 207 291 L 215 293 L 220 291" stroke="#ffffff" stroke-width="2" stroke-linecap="round" stroke-linejoin="round" fill="none"/><path d="M 234 270 L 232 272 L 231 272 L 232 271 L 236 267 L 243 262 L 249 258" stroke="#ffffff" stroke-width="2" stroke-linecap="round" stroke-linejoin="round" fill="none"/><path d="M 247 255 L 246 255 L 245 255 L 243 258 L 240 268 L 237 281 L 235 289 L 235 291" stroke="#ffffff" stroke-width="2" stroke-linecap="round" stroke-linejoin="round" fill="none"/><path d="M 262 257 L 263 256 L 264 253 L 264 254 L 265 255 L 267 255 L 266 256 L 262 261 L 259 269 L 257 276 L 256 281 L 255 283 L 253 284 L 250 284 L 249 283 L 249 281 L 253 279 L 257 276 L 262 274 L 267 271 L 273 269" stroke="#ffffff" stroke-width="2" stroke-linecap="round" stroke-linejoin="round" fill="none"/><path d="M 279 275 L 277 275 L 277 273 L 279 271 L 284 268 L 289 267 L 291 268 L 292 271 L 289 274 L 287 277 L 285 278 L 284 278 L 283 274 L 283 268 L 284 260 L 285 255 L 286 255 L 286 258 L 284 265 L 282 274 L 281 281 L 281 285 L 281 286" stroke="#ffffff" stroke-width="2" stroke-linecap="round" stroke-linejoin="round" fill="none"/><path d="M 298 252 L 298 249 L 298 246 L 300 245 L 305 249 L 310 255 L 314 259" stroke="#ffffff" stroke-width="2" stroke-linecap="round" stroke-linejoin="round" fill="none"/><path d="M 308 284 L 306 284 L 305 283 L 307 281 L 312 278 L 317 277 L 318 278 L 316 283 L 312 288 L 309 292" stroke="#ffffff" stroke-width="2" stroke-linecap="round" stroke-linejoin="round" fill="none"/><path d="M 331 266 L 330 266 L 328 262 L 331 258 L 338 255 L 347 252 L 353 251 L 354 251" stroke="#ffffff" stroke-width="2" stroke-linecap="round" stroke-linejoin="round" fill="none"/><path d="M 342 246 L 340 246 L 338 245 L 338 251 L 337 264 L 335 279 L 334 289 L 334 294 L 336 295" stroke="#ffffff" stroke-width="2" stroke-linecap="round" stroke-linejoin="round" fill="none"/><path d="M 351 271 L 350 270 L 348 268 L 349 266 L 353 264 L 358 263 L 360 263" stroke="#ffffff" stroke-width="2" stroke-linecap="round" stroke-linejoin="round" fill="none"/><path d="M 355 279 L 354 279 L 351 280 L 352 280 L 360 276 L 368 271" stroke="#ffffff" stroke-width="2" stroke-linecap="round" stroke-linejoin="round" fill="none"/><path d="M 537 230 L 536 231 L 533 237 L 529 248 L 528 257 L 528 260 L 530 260" stroke="#ffffff" stroke-width="2" stroke-linecap="round" stroke-linejoin="round" fill="none"/><path d="M 544 232 L 544 234 L 545 239 L 547 246 L 550 252 L 552 254" stroke="#ffffff" stroke-width="2" stroke-linecap="round" stroke-linejoin="round" fill="none"/><path d="M 552 219 L 549 219 L 548 220 L 547 224 L 549 228" stroke="#ffffff" stroke-width="2" stroke-linecap="round" stroke-linejoin="round" fill="none"/><path d="M 555 220 L 555 218 L 554 217 L 554 219 L 555 225" stroke="#ffffff" stroke-width="2" stroke-linecap="round" stroke-linejoin="round" fill="none"/><path d="M 564 237 L 562 236 L 561 235 L 562 236" stroke="#ffffff" stroke-width="2" stroke-linecap="round" stroke-linejoin="round" fill="none"/><path d="M 568 240 L 566 240 L 565 240 L 565 239 L 565 238 L 566 237" stroke="#ffffff" stroke-width="2" stroke-linecap="round" stroke-linejoin="round" fill="none"/><path d="M 571 234 L 572 233 L 570 235 L 568 239 L 566 242 L 566 244" stroke="#ffffff" stroke-width="2" stroke-linecap="round" stroke-linejoin="round" fill="none"/><path d="M 585 223 L 584 223 L 583 223 L 581 224 L 580 228 L 579 232" stroke="#ffffff" stroke-width="2" stroke-linecap="round" stroke-linejoin="round" fill="none"/><path d="M 581 227 L 582 226 L 583 222 L 585 219 L 587 219 L 589 222 L 590 227 L 589 234 L 585 242 L 580 249 L 575 253 L 574 254" stroke="#ffffff" stroke-width="2" stroke-linecap="round" stroke-linejoin="round" fill="none"/><path d="M 606 230 L 606 229 L 606 227 L 606 226 L 605 227 L 605 230 L 606 234 L 608 237 L 608 238" stroke="#ffffff" stroke-width="2" stroke-linecap="round" stroke-linejoin="round" fill="none"/><path d="M 618 233 L 617 232 L 615 232 L 613 232 L 611 233 L 609 236 L 607 239 L 607 242 L 608 244 L 613 245 L 620 243" stroke="#ffffff" stroke-width="2" stroke-linecap="round" stroke-linejoin="round" fill="none"/><path d="M 637 234 L 637 233 L 636 232 L 635 232 L 633 232 L 630 233 L 627 235 L 626 236 L 625 238 L 626 239 L 631 240 L 637 240 L 640 240" stroke="#ffffff" stroke-width="2" stroke-linecap="round" stroke-linejoin="round" fill="none"/><path d="M 658 229 L 658 228 L 657 228 L 654 232 L 651 238 L 650 243 L 650 246" stroke="#ffffff" stroke-width="2" stroke-linecap="round" stroke-linejoin="round" fill="none"/><path d="M 663 233 L 663 232 L 663 230 L 663 229 L 665 229 L 669 230 L 671 230" stroke="#ffffff" stroke-width="2" stroke-linecap="round" stroke-linejoin="round" fill="none"/><path d="M 664 240 L 664 241 L 662 243 L 661 243 L 662 244 L 666 243 L 674 241 L 682 239" stroke="#ffffff" stroke-width="2" stroke-linecap="round" stroke-linejoin="round" fill="none"/><path d="M 83 321 L 83 320 L 82 320 L 81 320 L 80 324 L 79 330 L 78 336 L 78 337" stroke="#ffffff" stroke-width="2" stroke-linecap="round" stroke-linejoin="round" fill="none"/><path d="M 73 336 L 72 336 L 71 338 L 70 341 L 69 346 L 69 349" stroke="#ffffff" stroke-width="2" stroke-linecap="round" stroke-linejoin="round" fill="none"/><path d="M 70 341 L 69 339 L 70 335 L 76 329 L 86 322 L 95 319 L 100 319 L 101 319 L 101 320 L 101 322 L 98 327 L 94 331 L 93 333" stroke="#ffffff" stroke-width="2" stroke-linecap="round" stroke-linejoin="round" fill="none"/><path d="M 84 335 L 83 335 L 82 337 L 81 341 L 80 346 L 80 349" stroke="#ffffff" stroke-width="2" stroke-linecap="round" stroke-linejoin="round" fill="none"/><path d="M 90 330 L 90 329 L 90 330 L 92 332 L 95 334 L 99 336" stroke="#ffffff" stroke-width="2" stroke-linecap="round" stroke-linejoin="round" fill="none"/><path d="M 83 352 L 83 350 L 85 348 L 89 344 L 93 342 L 94 342 L 93 342 L 92 342 L 90 344 L 89 347 L 89 351 L 88 356 L 87 362 L 85 366 L 82 368 L 80 368 L 79 368 L 81 368 L 85 367 L 91 363 L 99 358 L 107 354 L 114 352" stroke="#ffffff" stroke-width="2" stroke-linecap="round" stroke-linejoin="round" fill="none"/><path d="M 125 337 L 124 337 L 123 336 L 123 335 L 127 334 L 130 333 L 133 333 L 134 333 L 134 334" stroke="#ffffff" stroke-width="2" stroke-linecap="round" stroke-linejoin="round" fill="none"/><path d="M 123 351 L 122 351 L 121 353 L 122 353 L 126 353 L 132 350 L 138 346" stroke="#ffffff" stroke-width="2" stroke-linecap="round" stroke-linejoin="round" fill="none"/><path d="M 151 330 L 149 330 L 149 329 L 150 327 L 155 326 L 159 326 L 160 326" stroke="#ffffff" stroke-width="2" stroke-linecap="round" stroke-linejoin="round" fill="none"/><path d="M 152 344 L 151 344 L 150 344 L 152 342 L 157 338 L 162 337 L 164 338 L 163 344 L 159 350 L 153 356 L 149 358" stroke="#ffffff" stroke-width="2" stroke-linecap="round" stroke-linejoin="round" fill="none"/><path d="M 192 331 L 191 330 L 191 329 L 191 328 L 191 331 L 191 336 L 191 342 L 189 346 L 186 348 L 184 345 L 184 339 L 186 333 L 190 328 L 194 328 L 197 329 L 199 334 L 199 341 L 197 348 L 194 353 L 194 354" stroke="#ffffff" stroke-width="2" stroke-linecap="round" stroke-linejoin="round" fill="none"/><path d="M 231 312 L 230 312 L 228 313 L 227 315 L 225 320 L 225 325 L 225 326" stroke="#ffffff" stroke-width="2" stroke-linecap="round" stroke-linejoin="round" fill="none"/><path d="M 228 324 L 227 324 L 226 326 L 225 329 L 224 334 L 224 335" stroke="#ffffff" stroke-width="2" stroke-linecap="round" stroke-linejoin="round" fill="none"/><path d="M 226 327 L 228 323 L 232 319 L 238 315 L 241 314 L 240 315 L 238 317 L 236 319 L 235 322 L 234 326 L 234 331 L 234 335 L 235 338" stroke="#ffffff" stroke-width="2" stroke-linecap="round" stroke-linejoin="round" fill="none"/><path d="M 216 320 L 215 319 L 214 318 L 214 321 L 216 328 L 217 337 L 218 345 L 217 350 L 213 351 L 210 351 L 207 350 L 207 349 L 210 350 L 214 351 L 220 351 L 229 348 L 241 343 L 254 338 L 257 337" stroke="#ffffff" stroke-width="2" stroke-linecap="round" stroke-linejoin="round" fill="none"/><path d="M 279 325 L 279 324 L 279 323 L 277 323 L 274 327 L 270 331 L 268 335 L 267 337 L 269 338 L 274 339 L 280 339 L 284 339" stroke="#ffffff" stroke-width="2" stroke-linecap="round" stroke-linejoin="round" fill="none"/><path d="M 304 322 L 303 322 L 300 323 L 299 325 L 298 330 L 299 337 L 301 341 L 302 342" stroke="#ffffff" stroke-width="2" stroke-linecap="round" stroke-linejoin="round" fill="none"/><path d="M 313 326 L 313 325 L 312 323 L 313 322 L 315 322 L 318 322 L 319 322" stroke="#ffffff" stroke-width="2" stroke-linecap="round" stroke-linejoin="round" fill="none"/><path d="M 316 333 L 315 334 L 313 334 L 314 334 L 318 332 L 324 328 L 331 324" stroke="#ffffff" stroke-width="2" stroke-linecap="round" stroke-linejoin="round" fill="none"/><path d="M 338 314 L 336 313 L 337 311 L 342 308 L 350 306 L 357 305 L 360 304 L 359 304 L 356 304 L 353 303 L 351 302 L 351 304 L 352 311 L 352 320 L 350 330 L 347 336 L 343 338 L 341 338 L 340 334 L 341 328 L 344 321 L 348 318 L 351 319 L 353 327 L 352 337 L 348 347 L 345 354 L 345 356 L 345 355" stroke="#ffffff" stroke-width="2" stroke-linecap="round" stroke-linejoin="round" fill="none"/><path d="M 369 317 L 368 317 L 367 318 L 367 324 L 366 332 L 365 337 L 365 338 L 365 336 L 367 333 L 369 331 L 371 331 L 374 331 L 377 333 L 382 333 L 386 332" stroke="#ffffff" stroke-width="2" stroke-linecap="round" stroke-linejoin="round" fill="none"/><path d="M 397 317 L 398 315 L 399 314 L 403 312 L 406 312 L 408 312 L 409 312 L 408 312 L 406 315 L 403 320 L 402 327 L 403 334 L 406 336 L 411 335 L 413 331" stroke="#ffffff" stroke-width="2" stroke-linecap="round" stroke-linejoin="round" fill="none"/><path d="M 413 295 L 412 295 L 410 296 L 409 297 L 411 301 L 412 303" stroke="#ffffff" stroke-width="2" stroke-linecap="round" stroke-linejoin="round" fill="none"/><path d="M 420 292 L 419 291 L 417 293 L 417 298 L 419 302" stroke="#ffffff" stroke-width="2" stroke-linecap="round" stroke-linejoin="round" fill="none"/><path d="M 430 309 L 429 306 L 430 304 L 433 304 L 435 305 L 438 307 L 439 309 L 439 311 L 437 313 L 434 316 L 431 318 L 430 319 L 430 318 L 432 317 L 434 319 L 437 322 L 438 327 L 437 331 L 435 334 L 432 334 L 430 333 L 430 330 L 431 327 L 434 325 L 437 324 L 440 325 L 442 326" stroke="#ffffff" stroke-width="2" stroke-linecap="round" stroke-linejoin="round" fill="none"/></svg>
