<svg xmlns="http://www.w3.org/2000/svg" width="320" height="122" viewBox="0 0 320 122"><path d="M 18 31 L 18 30 L 19 29 L 21 29 L 23 31 L 24 34 L 24 38 L 22 42 L 18 44 L 14 45 L 11 45 L 10 45 L 13 45 L 18 45 L 24 44 L 30 44 L 33 44" stroke="#ffffff" stroke-width="2" stroke-linecap="round" stroke-linejoin="round" fill="none"/><path d="M 44 17 L 41 17 L 39 19 L 36 25 L 35 34 L 35 42 L 37 45 L 40 45 L 43 42 L 46 37 L 47 32 L 48 30 L 47 29 L 44 30 L 40 33 L 36 38 L 35 39" stroke="#ffffff" stroke-width="2" stroke-linecap="round" stroke-linejoin="round" fill="none"/><path d="M 74 10 L 73 10 L 71 11 L 69 13 L 66 20 L 62 31 L 56 45 L 51 55 L 47 61 L 45 65 L 45 66" stroke="#ffffff" stroke-width="2" stroke-linecap="round" stroke-linejoin="round" fill="none"/><path d="M 15 37 L 14 37 L 15 37 L 17 35" stroke="#ffffff" stroke-width="2" stroke-linecap="round" stroke-linejoin="round" fill="none"/><path d="M 16 38 L 16 39 L 16 38 L 16 37 L 16 36 L 17 35 L 17 34 L 17 33 L 18 32 L 18 31 L 19 30" stroke="#ffffff" stroke-width="2" stroke-linecap="round" stroke-linejoin="round" fill="none"/><path d="M 85 42 L 86 41 L 87 40 L 88 37 L 89 33 L 90 29 L 90 27 L 89 26 L 86 27 L 83 30 L 80 35 L 78 41 L 78 44 L 81 45 L 86 42 L 89 39 L 90 36 L 91 33 L 90 33 L 90 32 L 89 33 L 88 35 L 88 38 L 87 43 L 86 50 L 85 57 L 85 62 L 86 63" stroke="#ffffff" stroke-width="2" stroke-linecap="round" stroke-linejoin="round" fill="none"/><path d="M 147 31 L 145 30 L 143 29 L 140 29 L 137 29 L 134 32 L 130 41 L 129 48 L 131 51 L 137 50 L 144 45" stroke="#ffffff" stroke-width="2" stroke-linecap="round" stroke-linejoin="round" fill="none"/><path d="M 167 25 L 166 24 L 165 24 L 163 24 L 162 27 L 162 30 L 164 32 L 168 33 L 172 35 L 174 37 L 174 39 L 172 42 L 168 43 L 164 44 L 160 43" stroke="#ffffff" stroke-width="2" stroke-linecap="round" stroke-linejoin="round" fill="none"/><path d="M 160 29 L 160 28 L 160 27 L 165 25 L 173 24 L 177 24" stroke="#ffffff" stroke-width="2" stroke-linecap="round" stroke-linejoin="round" fill="none"/><path d="M 192 24 L 191 24 L 189 23 L 187 22 L 185 22 L 183 22 L 182 24 L 182 26 L 182 28 L 184 31 L 188 33 L 190 35 L 193 37 L 193 38 L 192 40 L 189 41 L 185 41 L 182 41 L 180 37" stroke="#ffffff" stroke-width="2" stroke-linecap="round" stroke-linejoin="round" fill="none"/><path d="M 183 25 L 183 24 L 183 22 L 187 21 L 195 22 L 202 22" stroke="#ffffff" stroke-width="2" stroke-linecap="round" stroke-linejoin="round" fill="none"/><path d="M 220 12 L 220 11 L 219 12 L 218 17 L 214 28 L 209 39 L 204 47 L 202 52 L 202 53" stroke="#ffffff" stroke-width="2" stroke-linecap="round" stroke-linejoin="round" fill="none"/><path d="M 233 18 L 232 18 L 231 18 L 230 18 L 228 23 L 227 33 L 226 42 L 226 47 L 226 49" stroke="#ffffff" stroke-width="2" stroke-linecap="round" stroke-linejoin="round" fill="none"/><path d="M 229 23 L 229 22 L 230 16 L 233 16 L 235 18 L 237 22 L 238 25 L 238 28 L 235 30 L 231 31 L 227 31 L 224 29" stroke="#ffffff" stroke-width="2" stroke-linecap="round" stroke-linejoin="round" fill="none"/><path d="M 258 17 L 257 17 L 256 17 L 255 18 L 253 24 L 250 33 L 248 40 L 247 43 L 247 44" stroke="#ffffff" stroke-width="2" stroke-linecap="round" stroke-linejoin="round" fill="none"/><path d="M 266 21 L 265 21 L 264 22 L 264 25 L 264 28 L 264 31 L 266 33 L 269 34 L 272 34 L 273 36 L 273 37 L 272 39 L 268 41 L 264 42 L 261 40" stroke="#ffffff" stroke-width="2" stroke-linecap="round" stroke-linejoin="round" fill="none"/><path d="M 263 24 L 263 23 L 267 23 L 274 23 L 281 23 L 285 23" stroke="#ffffff" stroke-width="2" stroke-linecap="round" stroke-linejoin="round" fill="none"/><path d="M 295 24 L 294 23 L 292 21 L 289 21 L 288 20 L 288 21 L 288 23 L 288 26 L 289 28 L 293 31 L 297 33 L 300 34 L 303 35 L 304 36 L 304 37 L 302 38 L 299 40 L 295 41 L 290 40 L 289 39" stroke="#ffffff" stroke-width="2" stroke-linecap="round" stroke-linejoin="round" fill="none"/><path d="M 290 23 L 293 23 L 302 23 L 310 23" stroke="#ffffff" stroke-width="2" stroke-linecap="round" stroke-linejoin="round" fill="none"/><path d="M 28 86 L 27 86 L 26 89 L 25 96 L 25 105 L 26 111" stroke="#ffffff" stroke-width="2" stroke-linecap="round" stroke-linejoin="round" fill="none"/><path d="M 43 88 L 42 87 L 40 87 L 39 88 L 39 94 L 40 103 L 42 110 L 46 112 L 49 110 L 51 105 L 52 99 L 52 94 L 52 90 L 50 86 L 49 84 L 47 83 L 44 86 L 42 92 L 41 93" stroke="#ffffff" stroke-width="2" stroke-linecap="round" stroke-linejoin="round" fill="none"/></svg>
