<svg xmlns="http://www.w3.org/2000/svg" width="532" height="295" viewBox="0 0 532 295"><path d="M 15 31 L 15 30 L 14 29 L 14 28 L 17 28 L 19 28 L 22 30 L 24 33 L 24 36 L 23 39 L 19 42 L 14 45 L 11 45 L 10 45 L 11 46 L 14 46 L 18 46 L 23 45 L 29 44 L 34 43 L 38 42" stroke="#ffffff" stroke-width="2" stroke-linecap="round" stroke-linejoin="round" fill="none"/><path d="M 48 27 L 45 27 L 43 26 L 42 27 L 42 30 L 43 35 L 45 40 L 49 42 L 53 41 L 56 37 L 57 32 L 56 28 L 52 26 L 48 26 L 45 29 L 42 34 L 42 37" stroke="#ffffff" stroke-width="2" stroke-linecap="round" stroke-linejoin="round" fill="none"/><path d="M 89 11 L 88 10 L 86 10 L 85 12 L 81 21 L 76 35 L 65 57 L 59 70 L 57 78 L 57 80" stroke="#ffffff" stroke-width="2" stroke-linecap="round" stroke-linejoin="round" fill="none"/><path d="M 96 43 L 96 42 L 95 43 L 95 50 L 94 60 L 93 67 L 94 69" stroke="#ffffff" stroke-width="2" stroke-linecap="round" stroke-linejoin="round" fill="none"/><path d="M 110 45 L 109 43 L 110 43 L 114 43 L 116 46 L 116 49 L 116 52 L 114 55 L 111 58 L 107 59 L 106 60 L 108 60 L 111 60 L 116 59 L 123 59 L 128 59 L 130 60" stroke="#ffffff" stroke-width="2" stroke-linecap="round" stroke-linejoin="round" fill="none"/><path d="M 188 32 L 187 31 L 185 30 L 182 31 L 179 34 L 177 41 L 176 49 L 177 55 L 181 56 L 187 54 L 194 49 L 198 45" stroke="#ffffff" stroke-width="2" stroke-linecap="round" stroke-linejoin="round" fill="none"/><path d="M 217 24 L 213 24 L 211 26 L 210 32 L 209 39 L 209 42 L 210 43 L 210 42 L 210 41" stroke="#ffffff" stroke-width="2" stroke-linecap="round" stroke-linejoin="round" fill="none"/><path d="M 211 35 L 211 32 L 211 29 L 212 26 L 214 25 L 216 25 L 219 27 L 220 34 L 220 43 L 219 52 L 216 60 L 215 63 L 214 64" stroke="#ffffff" stroke-width="2" stroke-linecap="round" stroke-linejoin="round" fill="none"/><path d="M 248 29 L 246 28 L 245 28 L 243 33 L 242 40 L 241 47 L 243 50 L 247 50 L 250 46 L 253 41 L 254 36 L 253 32 L 250 30 L 245 32 L 241 37" stroke="#ffffff" stroke-width="2" stroke-linecap="round" stroke-linejoin="round" fill="none"/><path d="M 57 101 L 57 99 L 56 97 L 56 101 L 57 106 L 58 109" stroke="#ffffff" stroke-width="2" stroke-linecap="round" stroke-linejoin="round" fill="none"/><path d="M 67 98 L 66 98 L 63 100 L 60 105 L 56 110" stroke="#ffffff" stroke-width="2" stroke-linecap="round" stroke-linejoin="round" fill="none"/><path d="M 46 119 L 46 118 L 48 116 L 56 111 L 67 106 L 75 104 L 78 104" stroke="#ffffff" stroke-width="2" stroke-linecap="round" stroke-linejoin="round" fill="none"/><path d="M 59 119 L 58 119 L 57 121 L 56 127 L 56 139 L 57 145 L 58 146" stroke="#ffffff" stroke-width="2" stroke-linecap="round" stroke-linejoin="round" fill="none"/><path d="M 59 126 L 59 124 L 59 120 L 61 118 L 62 119 L 64 122 L 65 130 L 66 137 L 66 144 L 66 147" stroke="#ffffff" stroke-width="2" stroke-linecap="round" stroke-linejoin="round" fill="none"/><path d="M 58 129 L 57 128 L 57 127 L 59 126 L 61 125 L 62 124" stroke="#ffffff" stroke-width="2" stroke-linecap="round" stroke-linejoin="round" fill="none"/><path d="M 65 129 L 64 130 L 65 128 L 66 125" stroke="#ffffff" stroke-width="2" stroke-linecap="round" stroke-linejoin="round" fill="none"/><path d="M 71 116 L 71 115 L 72 114 L 72 115 L 71 119 L 71 124 L 71 128" stroke="#ffffff" stroke-width="2" stroke-linecap="round" stroke-linejoin="round" fill="none"/><path d="M 76 111 L 76 112 L 78 117 L 79 128 L 79 141 L 75 152 L 73 157 L 72 157" stroke="#ffffff" stroke-width="2" stroke-linecap="round" stroke-linejoin="round" fill="none"/><path d="M 99 105 L 98 105 L 96 108 L 96 115 L 96 126 L 97 135 L 97 140 L 97 142" stroke="#ffffff" stroke-width="2" stroke-linecap="round" stroke-linejoin="round" fill="none"/><path d="M 94 117 L 94 112 L 95 107 L 98 104 L 103 102 L 107 102 L 111 102 L 116 104 L 119 111 L 119 120 L 118 127 L 116 132 L 115 133" stroke="#ffffff" stroke-width="2" stroke-linecap="round" stroke-linejoin="round" fill="none"/><path d="M 108 114 L 108 113 L 107 113 L 106 116 L 105 122 L 105 127 L 106 125 L 107 121 L 108 117 L 109 115 L 110 114 L 110 116 L 110 118 L 110 119" stroke="#ffffff" stroke-width="2" stroke-linecap="round" stroke-linejoin="round" fill="none"/><path d="M 106 124 L 106 126 L 108 125 L 110 124" stroke="#ffffff" stroke-width="2" stroke-linecap="round" stroke-linejoin="round" fill="none"/><path d="M 103 137 L 103 138 L 105 137 L 110 133 L 112 130" stroke="#ffffff" stroke-width="2" stroke-linecap="round" stroke-linejoin="round" fill="none"/><path d="M 138 107 L 137 107 L 135 107 L 135 108 L 136 112 L 138 117 L 140 118 L 142 118" stroke="#ffffff" stroke-width="2" stroke-linecap="round" stroke-linejoin="round" fill="none"/><path d="M 146 114 L 147 113 L 145 113 L 143 113 L 140 116 L 137 120 L 135 126 L 137 129 L 142 129 L 150 124 L 152 123" stroke="#ffffff" stroke-width="2" stroke-linecap="round" stroke-linejoin="round" fill="none"/><path d="M 170 117 L 170 116 L 169 115 L 170 114 L 174 113 L 179 111 L 188 107" stroke="#ffffff" stroke-width="2" stroke-linecap="round" stroke-linejoin="round" fill="none"/><path d="M 207 93 L 206 92 L 204 91 L 203 93 L 201 97 L 199 102 L 196 105 L 195 107 L 196 106 L 198 105 L 202 103 L 206 102 L 209 102 L 211 102 L 210 104 L 208 106 L 206 108 L 205 110" stroke="#ffffff" stroke-width="2" stroke-linecap="round" stroke-linejoin="round" fill="none"/><path d="M 206 107 L 206 108 L 206 112 L 205 120 L 205 128 L 206 132" stroke="#ffffff" stroke-width="2" stroke-linecap="round" stroke-linejoin="round" fill="none"/><path d="M 200 116 L 199 115 L 197 115 L 195 119 L 193 125 L 192 129" stroke="#ffffff" stroke-width="2" stroke-linecap="round" stroke-linejoin="round" fill="none"/><path d="M 205 110 L 206 110 L 208 109 L 210 110 L 212 111 L 215 111 L 215 110" stroke="#ffffff" stroke-width="2" stroke-linecap="round" stroke-linejoin="round" fill="none"/><path d="M 215 100 L 215 98 L 216 96 L 219 94 L 222 91 L 225 89 L 226 87 L 226 86 L 225 87 L 223 90 L 221 96 L 219 102 L 218 109 L 218 110" stroke="#ffffff" stroke-width="2" stroke-linecap="round" stroke-linejoin="round" fill="none"/><path d="M 215 113 L 215 111 L 216 108 L 221 104 L 228 100 L 234 97 L 234 96 L 233 96" stroke="#ffffff" stroke-width="2" stroke-linecap="round" stroke-linejoin="round" fill="none"/><path d="M 230 97 L 229 98 L 227 101 L 224 106 L 221 114 L 218 121 L 217 123 L 218 122 L 218 121" stroke="#ffffff" stroke-width="2" stroke-linecap="round" stroke-linejoin="round" fill="none"/><path d="M 224 112 L 224 113 L 223 116 L 223 120 L 223 123 L 224 124" stroke="#ffffff" stroke-width="2" stroke-linecap="round" stroke-linejoin="round" fill="none"/><path d="M 224 114 L 224 113 L 224 110 L 225 108 L 227 108 L 229 109 L 231 110 L 233 113 L 234 115 L 234 119 L 234 122 L 232 123" stroke="#ffffff" stroke-width="2" stroke-linecap="round" stroke-linejoin="round" fill="none"/><path d="M 227 116 L 227 115 L 227 114 L 228 113 L 230 113 L 231 113" stroke="#ffffff" stroke-width="2" stroke-linecap="round" stroke-linejoin="round" fill="none"/><path d="M 227 126 L 226 127 L 226 128 L 228 127 L 232 123 L 233 122" stroke="#ffffff" stroke-width="2" stroke-linecap="round" stroke-linejoin="round" fill="none"/><path d="M 297 83 L 297 82 L 296 81 L 296 83 L 295 89 L 296 93 L 297 94" stroke="#ffffff" stroke-width="2" stroke-linecap="round" stroke-linejoin="round" fill="none"/><path d="M 307 83 L 306 83 L 305 83 L 302 88 L 299 93 L 295 96 L 295 97" stroke="#ffffff" stroke-width="2" stroke-linecap="round" stroke-linejoin="round" fill="none"/><path d="M 285 100 L 284 100 L 286 98 L 292 94 L 305 90 L 315 89 L 318 89" stroke="#ffffff" stroke-width="2" stroke-linecap="round" stroke-linejoin="round" fill="none"/><path d="M 293 103 L 291 105 L 289 111 L 288 121 L 288 128 L 289 131" stroke="#ffffff" stroke-width="2" stroke-linecap="round" stroke-linejoin="round" fill="none"/><path d="M 289 116 L 290 114 L 291 109 L 293 104 L 296 103 L 299 105 L 300 111 L 300 117 L 300 123 L 298 127" stroke="#ffffff" stroke-width="2" stroke-linecap="round" stroke-linejoin="round" fill="none"/><path d="M 290 116 L 290 115 L 289 113 L 290 112 L 292 111" stroke="#ffffff" stroke-width="2" stroke-linecap="round" stroke-linejoin="round" fill="none"/><path d="M 297 110 L 297 113 L 297 114 L 298 115 L 299 114" stroke="#ffffff" stroke-width="2" stroke-linecap="round" stroke-linejoin="round" fill="none"/><path d="M 307 99 L 307 98 L 308 97 L 308 101 L 308 107 L 307 111 L 307 113" stroke="#ffffff" stroke-width="2" stroke-linecap="round" stroke-linejoin="round" fill="none"/><path d="M 312 99 L 314 96 L 315 96 L 315 99 L 315 107 L 313 116 L 310 123 L 309 127 L 308 128" stroke="#ffffff" stroke-width="2" stroke-linecap="round" stroke-linejoin="round" fill="none"/><path d="M 333 93 L 332 92 L 330 91 L 330 90 L 330 89 L 332 89 L 334 88 L 335 87 L 336 88 L 336 92 L 335 97 L 334 103 L 333 107" stroke="#ffffff" stroke-width="2" stroke-linecap="round" stroke-linejoin="round" fill="none"/><path d="M 331 101 L 330 101 L 329 99 L 331 98 L 333 97 L 334 96" stroke="#ffffff" stroke-width="2" stroke-linecap="round" stroke-linejoin="round" fill="none"/><path d="M 329 109 L 326 111 L 325 111 L 326 111 L 330 108 L 332 106" stroke="#ffffff" stroke-width="2" stroke-linecap="round" stroke-linejoin="round" fill="none"/><path d="M 348 80 L 347 78 L 347 77 L 346 79 L 345 83 L 344 89 L 342 93" stroke="#ffffff" stroke-width="2" stroke-linecap="round" stroke-linejoin="round" fill="none"/><path d="M 350 84 L 348 84 L 347 85 L 346 87 L 345 90 L 344 91" stroke="#ffffff" stroke-width="2" stroke-linecap="round" stroke-linejoin="round" fill="none"/><path d="M 347 90 L 346 90 L 345 92 L 344 93 L 343 96 L 343 97 L 342 100 L 340 103 L 339 104" stroke="#ffffff" stroke-width="2" stroke-linecap="round" stroke-linejoin="round" fill="none"/><path d="M 334 114 L 333 112 L 334 109 L 338 105 L 342 101 L 344 100 L 345 102 L 343 108 L 341 114 L 338 120 L 337 123 L 334 125" stroke="#ffffff" stroke-width="2" stroke-linecap="round" stroke-linejoin="round" fill="none"/><path d="M 331 112 L 335 113 L 343 116 L 354 117 L 363 116" stroke="#ffffff" stroke-width="2" stroke-linecap="round" stroke-linejoin="round" fill="none"/><path d="M 379 95 L 378 94 L 378 92 L 381 92 L 384 94 L 386 94" stroke="#ffffff" stroke-width="2" stroke-linecap="round" stroke-linejoin="round" fill="none"/><path d="M 377 105 L 375 106 L 374 107 L 376 107 L 380 105 L 384 103" stroke="#ffffff" stroke-width="2" stroke-linecap="round" stroke-linejoin="round" fill="none"/><path d="M 376 118 L 375 119 L 373 121 L 375 121 L 381 120 L 391 114" stroke="#ffffff" stroke-width="2" stroke-linecap="round" stroke-linejoin="round" fill="none"/><path d="M 415 80 L 413 79 L 412 79 L 411 86 L 410 102 L 410 116 L 411 122 L 411 125" stroke="#ffffff" stroke-width="2" stroke-linecap="round" stroke-linejoin="round" fill="none"/><path d="M 406 106 L 406 105 L 411 104 L 419 103 L 427 103 L 429 103" stroke="#ffffff" stroke-width="2" stroke-linecap="round" stroke-linejoin="round" fill="none"/><path d="M 421 82 L 421 83 L 420 87 L 420 93 L 421 97" stroke="#ffffff" stroke-width="2" stroke-linecap="round" stroke-linejoin="round" fill="none"/><path d="M 428 83 L 428 81 L 428 84 L 427 91 L 427 94" stroke="#ffffff" stroke-width="2" stroke-linecap="round" stroke-linejoin="round" fill="none"/><path d="M 439 97 L 437 98 L 436 103 L 436 110 L 437 113" stroke="#ffffff" stroke-width="2" stroke-linecap="round" stroke-linejoin="round" fill="none"/><path d="M 447 96 L 447 97 L 447 102 L 447 109 L 449 113 L 453 111 L 459 104 L 463 97" stroke="#ffffff" stroke-width="2" stroke-linecap="round" stroke-linejoin="round" fill="none"/><path d="M 50 203 L 48 203 L 47 202 L 48 199 L 54 194 L 60 188 L 66 186 L 68 187 L 69 190 L 69 194 L 68 197 L 66 199 L 63 199 L 61 196 L 59 190 L 58 182 L 58 175 L 57 173 L 57 176 L 58 186 L 58 200 L 58 212 L 58 217 L 58 218" stroke="#ffffff" stroke-width="2" stroke-linecap="round" stroke-linejoin="round" fill="none"/><path d="M 75 167 L 76 167 L 77 168 L 81 176 L 85 188 L 87 191" stroke="#ffffff" stroke-width="2" stroke-linecap="round" stroke-linejoin="round" fill="none"/><path d="M 88 163 L 87 165 L 86 168 L 87 172" stroke="#ffffff" stroke-width="2" stroke-linecap="round" stroke-linejoin="round" fill="none"/><path d="M 96 158 L 95 158 L 94 164" stroke="#ffffff" stroke-width="2" stroke-linecap="round" stroke-linejoin="round" fill="none"/><path d="M 102 196 L 100 196 L 100 194 L 105 193 L 110 192 L 113 193 L 113 196 L 110 200 L 109 201" stroke="#ffffff" stroke-width="2" stroke-linecap="round" stroke-linejoin="round" fill="none"/><path d="M 126 187 L 124 186 L 124 185 L 127 182 L 133 181 L 136 182 L 137 187 L 134 192 L 131 197 L 129 198" stroke="#ffffff" stroke-width="2" stroke-linecap="round" stroke-linejoin="round" fill="none"/><path d="M 155 171 L 153 171 L 151 173 L 151 177 L 151 182 L 153 185 L 155 185" stroke="#ffffff" stroke-width="2" stroke-linecap="round" stroke-linejoin="round" fill="none"/><path d="M 166 167 L 167 168 L 166 175 L 163 190 L 158 202 L 152 209 L 149 212" stroke="#ffffff" stroke-width="2" stroke-linecap="round" stroke-linejoin="round" fill="none"/><path d="M 184 193 L 184 192 L 187 188 L 196 180 L 204 174 L 207 173 L 208 174 L 208 177 L 208 181 L 206 184 L 205 185" stroke="#ffffff" stroke-width="2" stroke-linecap="round" stroke-linejoin="round" fill="none"/><path d="M 195 170 L 195 168 L 195 167 L 195 171 L 195 180 L 195 191 L 196 199 L 199 204 L 205 203 L 212 197" stroke="#ffffff" stroke-width="2" stroke-linecap="round" stroke-linejoin="round" fill="none"/><path d="M 229 180 L 228 180 L 228 179 L 231 178 L 234 177 L 236 177" stroke="#ffffff" stroke-width="2" stroke-linecap="round" stroke-linejoin="round" fill="none"/><path d="M 229 193 L 228 193 L 226 193 L 230 192 L 235 188 L 243 183 L 250 179 L 255 177" stroke="#ffffff" stroke-width="2" stroke-linecap="round" stroke-linejoin="round" fill="none"/><path d="M 266 176 L 265 175 L 268 174 L 270 172 L 272 171 L 273 171" stroke="#ffffff" stroke-width="2" stroke-linecap="round" stroke-linejoin="round" fill="none"/><path d="M 270 188 L 270 190 L 269 191 L 269 190 L 273 185 L 278 179 L 285 170 L 286 168" stroke="#ffffff" stroke-width="2" stroke-linecap="round" stroke-linejoin="round" fill="none"/><path d="M 302 159 L 300 158 L 299 159 L 298 164 L 296 170 L 294 174" stroke="#ffffff" stroke-width="2" stroke-linecap="round" stroke-linejoin="round" fill="none"/><path d="M 296 165 L 296 164 L 297 161 L 299 159 L 302 159 L 306 161 L 309 167 L 309 173 L 307 182 L 302 189 L 298 192 L 296 192" stroke="#ffffff" stroke-width="2" stroke-linecap="round" stroke-linejoin="round" fill="none"/><path d="M 317 142 L 316 143 L 314 146 L 312 153" stroke="#ffffff" stroke-width="2" stroke-linecap="round" stroke-linejoin="round" fill="none"/><path d="M 322 146 L 322 147 L 322 150 L 322 155" stroke="#ffffff" stroke-width="2" stroke-linecap="round" stroke-linejoin="round" fill="none"/><path d="M 342 171 L 341 171 L 343 170 L 349 168 L 355 167 L 357 166 L 356 166 L 354 168 L 352 173 L 350 181 L 350 189 L 354 192 L 359 188 L 360 187" stroke="#ffffff" stroke-width="2" stroke-linecap="round" stroke-linejoin="round" fill="none"/><path d="M 364 147 L 362 147 L 360 149 L 359 156 L 359 161" stroke="#ffffff" stroke-width="2" stroke-linecap="round" stroke-linejoin="round" fill="none"/><path d="M 364 153 L 365 151 L 365 149 L 366 151 L 366 156 L 367 161" stroke="#ffffff" stroke-width="2" stroke-linecap="round" stroke-linejoin="round" fill="none"/><path d="M 381 163 L 380 162 L 382 160 L 390 156 L 399 153 L 402 153 L 401 152 L 400 152" stroke="#ffffff" stroke-width="2" stroke-linecap="round" stroke-linejoin="round" fill="none"/><path d="M 395 151 L 394 151 L 393 151 L 393 152 L 394 156 L 394 166 L 393 177 L 390 183 L 387 185 L 384 185 L 383 183 L 382 179 L 384 173 L 387 167 L 392 165 L 396 168 L 398 178 L 397 188 L 395 195 L 394 198 L 395 197 L 395 196" stroke="#ffffff" stroke-width="2" stroke-linecap="round" stroke-linejoin="round" fill="none"/><path d="M 413 168 L 412 168 L 410 169 L 410 172 L 411 176 L 412 177" stroke="#ffffff" stroke-width="2" stroke-linecap="round" stroke-linejoin="round" fill="none"/><path d="M 420 167 L 420 165 L 421 168 L 421 173 L 421 176" stroke="#ffffff" stroke-width="2" stroke-linecap="round" stroke-linejoin="round" fill="none"/><path d="M 438 164 L 437 163 L 436 161 L 439 159 L 445 156 L 452 153 L 456 151 L 457 150 L 457 149" stroke="#ffffff" stroke-width="2" stroke-linecap="round" stroke-linejoin="round" fill="none"/><path d="M 450 148 L 449 147 L 448 146 L 447 151 L 445 162 L 443 174 L 443 183 L 443 185" stroke="#ffffff" stroke-width="2" stroke-linecap="round" stroke-linejoin="round" fill="none"/><path d="M 456 169 L 456 167 L 457 164 L 460 163 L 461 163" stroke="#ffffff" stroke-width="2" stroke-linecap="round" stroke-linejoin="round" fill="none"/><path d="M 459 175 L 458 175 L 456 175 L 458 174 L 466 170 L 476 166" stroke="#ffffff" stroke-width="2" stroke-linecap="round" stroke-linejoin="round" fill="none"/><path d="M 46 256 L 45 256 L 44 256 L 45 255 L 49 252 L 58 247 L 69 240 L 76 237" stroke="#ffffff" stroke-width="2" stroke-linecap="round" stroke-linejoin="round" fill="none"/><path d="M 59 254 L 58 254 L 56 252 L 57 255 L 60 259" stroke="#ffffff" stroke-width="2" stroke-linecap="round" stroke-linejoin="round" fill="none"/><path d="M 75 248 L 74 246 L 73 246 L 71 250 L 67 255 L 63 260" stroke="#ffffff" stroke-width="2" stroke-linecap="round" stroke-linejoin="round" fill="none"/><path d="M 51 272 L 52 270 L 57 266 L 67 259 L 75 254 L 79 251 L 81 250 L 81 248" stroke="#ffffff" stroke-width="2" stroke-linecap="round" stroke-linejoin="round" fill="none"/><path d="M 67 233 L 65 233 L 64 232 L 64 233 L 65 241 L 68 255 L 71 270 L 72 279 L 73 283 L 74 285" stroke="#ffffff" stroke-width="2" stroke-linecap="round" stroke-linejoin="round" fill="none"/><path d="M 72 262 L 70 262 L 68 265 L 64 273 L 59 280 L 56 283" stroke="#ffffff" stroke-width="2" stroke-linecap="round" stroke-linejoin="round" fill="none"/><path d="M 65 262 L 67 261 L 71 261 L 76 263 L 81 265 L 85 266" stroke="#ffffff" stroke-width="2" stroke-linecap="round" stroke-linejoin="round" fill="none"/><path d="M 108 236 L 105 235 L 104 235 L 103 243 L 102 259 L 102 270 L 102 275 L 104 277 L 105 276" stroke="#ffffff" stroke-width="2" stroke-linecap="round" stroke-linejoin="round" fill="none"/><path d="M 102 248 L 102 241 L 103 234 L 108 229 L 111 228 L 114 231 L 117 234 L 118 239 L 118 247 L 118 255 L 117 260 L 117 261" stroke="#ffffff" stroke-width="2" stroke-linecap="round" stroke-linejoin="round" fill="none"/><path d="M 114 250 L 112 252 L 109 254 L 108 259 L 108 263 L 110 264 L 112 263 L 113 260 L 114 257 L 114 256 L 113 259 L 112 264 L 112 268 L 111 271" stroke="#ffffff" stroke-width="2" stroke-linecap="round" stroke-linejoin="round" fill="none"/><path d="M 92 244 L 92 243 L 91 240 L 92 240 L 94 247 L 95 257 L 95 267 L 93 275 L 90 278 L 87 279 L 85 277 L 84 277 L 85 276 L 89 277 L 98 278 L 112 275 L 124 271 L 131 268" stroke="#ffffff" stroke-width="2" stroke-linecap="round" stroke-linejoin="round" fill="none"/><path d="M 136 252 L 136 253 L 138 252 L 140 250 L 144 248 L 147 247 L 149 251 L 150 258 L 150 263 L 149 264 L 149 263 L 147 260 L 146 255 L 145 249 L 144 243 L 144 239 L 144 240 L 143 245 L 143 254 L 142 262 L 141 269 L 141 271" stroke="#ffffff" stroke-width="2" stroke-linecap="round" stroke-linejoin="round" fill="none"/><path d="M 154 235 L 154 233 L 154 230 L 156 232 L 160 239 L 164 247" stroke="#ffffff" stroke-width="2" stroke-linecap="round" stroke-linejoin="round" fill="none"/><path d="M 178 231 L 177 230 L 177 229 L 177 231 L 176 236 L 176 239 L 175 241 L 174 241 L 173 240 L 173 239 L 172 240 L 170 246 L 169 254 L 169 258 L 171 258 L 173 256 L 176 254 L 180 254 L 183 256 L 183 260 L 182 264 L 177 267 L 171 270 L 166 271" stroke="#ffffff" stroke-width="2" stroke-linecap="round" stroke-linejoin="round" fill="none"/><path d="M 213 239 L 213 238 L 215 236 L 220 233 L 226 230 L 230 229" stroke="#ffffff" stroke-width="2" stroke-linecap="round" stroke-linejoin="round" fill="none"/><path d="M 224 224 L 223 225 L 222 227 L 222 234 L 222 241 L 221 247 L 221 249 L 221 247 L 224 246 L 227 246 L 229 251 L 229 257 L 226 261 L 222 264 L 219 264 L 218 263" stroke="#ffffff" stroke-width="2" stroke-linecap="round" stroke-linejoin="round" fill="none"/><path d="M 248 241 L 248 240 L 248 239 L 249 238 L 250 238 L 250 237 L 249 241 L 248 249 L 246 258 L 245 263 L 244 263 L 244 260 L 244 256 L 245 252 L 248 248 L 252 247" stroke="#ffffff" stroke-width="2" stroke-linecap="round" stroke-linejoin="round" fill="none"/><path d="M 266 252 L 266 251 L 267 252 L 268 254 L 267 257 L 266 259" stroke="#ffffff" stroke-width="2" stroke-linecap="round" stroke-linejoin="round" fill="none"/><path d="M 292 224 L 289 224 L 287 228 L 287 236 L 288 242 L 292 244 L 293 244" stroke="#ffffff" stroke-width="2" stroke-linecap="round" stroke-linejoin="round" fill="none"/><path d="M 300 237 L 300 236 L 298 236 L 296 235 L 293 238 L 289 247 L 288 254 L 292 257 L 299 256 L 309 250" stroke="#ffffff" stroke-width="2" stroke-linecap="round" stroke-linejoin="round" fill="none"/><path d="M 349 232 L 348 231 L 346 230 L 342 231 L 339 238 L 337 250 L 338 257 L 341 259 L 347 255 L 355 247 L 357 244" stroke="#ffffff" stroke-width="2" stroke-linecap="round" stroke-linejoin="round" fill="none"/><path d="M 363 218 L 362 218 L 361 220 L 360 226 L 358 238 L 357 248 L 356 252 L 357 251 L 359 247 L 362 241 L 365 236 L 368 234 L 370 237 L 371 244 L 371 249 L 372 251" stroke="#ffffff" stroke-width="2" stroke-linecap="round" stroke-linejoin="round" fill="none"/><path d="M 382 241 L 380 243 L 380 248 L 380 253 L 381 255" stroke="#ffffff" stroke-width="2" stroke-linecap="round" stroke-linejoin="round" fill="none"/><path d="M 384 220 L 382 220 L 381 222 L 382 229" stroke="#ffffff" stroke-width="2" stroke-linecap="round" stroke-linejoin="round" fill="none"/><path d="M 396 228 L 395 228 L 393 228 L 391 233 L 389 242 L 389 247 L 389 248 L 390 246 L 392 241 L 396 235 L 399 230 L 402 228 L 403 232 L 403 238 L 402 243 L 402 245" stroke="#ffffff" stroke-width="2" stroke-linecap="round" stroke-linejoin="round" fill="none"/><path d="M 422 236 L 422 235 L 421 232 L 420 231 L 419 230 L 417 232 L 414 238 L 411 244 L 410 247 L 412 247 L 417 243 L 420 239 L 421 235 L 421 233 L 420 233 L 419 236 L 419 241 L 420 245 L 422 248" stroke="#ffffff" stroke-width="2" stroke-linecap="round" stroke-linejoin="round" fill="none"/><path d="M 461 213 L 460 214 L 457 213 L 455 214 L 455 220 L 455 228 L 457 230" stroke="#ffffff" stroke-width="2" stroke-linecap="round" stroke-linejoin="round" fill="none"/><path d="M 469 211 L 470 209 L 470 211 L 468 224 L 464 241 L 461 252 L 460 256" stroke="#ffffff" stroke-width="2" stroke-linecap="round" stroke-linejoin="round" fill="none"/><path d="M 478 211 L 478 208 L 479 203 L 482 202 L 483 204 L 484 208 L 484 211 L 484 214 L 483 214" stroke="#ffffff" stroke-width="2" stroke-linecap="round" stroke-linejoin="round" fill="none"/><path d="M 477 215 L 477 214 L 478 213 L 481 211 L 486 210 L 487 210" stroke="#ffffff" stroke-width="2" stroke-linecap="round" stroke-linejoin="round" fill="none"/><path d="M 479 216 L 478 215 L 479 214 L 483 212 L 485 212" stroke="#ffffff" stroke-width="2" stroke-linecap="round" stroke-linejoin="round" fill="none"/><path d="M 481 219 L 480 220 L 477 222 L 476 225 L 476 229 L 476 233 L 476 234" stroke="#ffffff" stroke-width="2" stroke-linecap="round" stroke-linejoin="round" fill="none"/><path d="M 478 226 L 479 219 L 482 215 L 489 212 L 494 211 L 496 215 L 496 219 L 494 223 L 491 225 L 489 226" stroke="#ffffff" stroke-width="2" stroke-linecap="round" stroke-linejoin="round" fill="none"/><path d="M 482 227 L 481 228 L 481 230 L 481 234 L 481 238 L 481 242 L 480 242 L 480 241 L 480 237 L 481 233 L 483 228 L 486 223 L 489 221 L 491 221 L 493 224 L 493 227 L 492 229 L 490 230 L 488 230 L 485 229 L 483 225 L 483 221 L 483 218 L 485 217 L 486 220 L 488 227 L 488 239 L 486 251 L 485 259 L 484 261 L 485 261" stroke="#ffffff" stroke-width="2" stroke-linecap="round" stroke-linejoin="round" fill="none"/><path d="M 511 222 L 511 219 L 512 217 L 515 219 L 517 223 L 517 227 L 515 230 L 512 231 L 510 232 L 509 230 L 510 229 L 514 230 L 517 233 L 519 239 L 518 244 L 515 248 L 512 249 L 508 250 L 506 248 L 505 245 L 507 242 L 511 241 L 514 241 L 518 242 L 521 244 L 522 245" stroke="#ffffff" stroke-width="2" stroke-linecap="round" stroke-linejoin="round" fill="none"/></svg>
