<svg xmlns="http://www.w3.org/2000/svg" width="498" height="204" viewBox="0 0 498 204"><path d="M 14 19 L 11 20 L 10 24 L 10 32 L 10 42 L 11 49 L 12 52" stroke="#ffffff" stroke-width="2" stroke-linecap="round" stroke-linejoin="round" fill="none"/><path d="M 28 17 L 26 21 L 26 25 L 26 29 L 26 30" stroke="#ffffff" stroke-width="2" stroke-linecap="round" stroke-linejoin="round" fill="none"/><path d="M 27 22 L 27 20 L 27 18 L 28 16 L 30 16 L 32 16 L 35 19 L 36 25 L 37 33 L 36 42 L 35 48 L 35 52 L 35 53" stroke="#ffffff" stroke-width="2" stroke-linecap="round" stroke-linejoin="round" fill="none"/><path d="M 80 10 L 79 10 L 76 14 L 73 26 L 68 44 L 64 58 L 60 68 L 57 75 L 57 76" stroke="#ffffff" stroke-width="2" stroke-linecap="round" stroke-linejoin="round" fill="none"/><path d="M 100 37 L 99 37 L 98 43 L 98 53 L 98 62 L 99 66" stroke="#ffffff" stroke-width="2" stroke-linecap="round" stroke-linejoin="round" fill="none"/><path d="M 185 22 L 184 21 L 180 20 L 178 21 L 175 25 L 173 33 L 173 40 L 175 43 L 180 42 L 187 38 L 192 33" stroke="#ffffff" stroke-width="2" stroke-linecap="round" stroke-linejoin="round" fill="none"/><path d="M 225 23 L 225 22 L 225 16 L 225 13 L 224 11 L 223 11 L 220 12 L 217 18 L 214 24 L 213 28 L 214 29 L 217 28 L 220 24 L 223 21 L 224 18 L 225 16 L 225 16 L 224 16 L 223 20 L 221 28 L 218 38 L 216 48 L 216 52 L 217 53" stroke="#ffffff" stroke-width="2" stroke-linecap="round" stroke-linejoin="round" fill="none"/><path d="M 246 20 L 245 20 L 242 20 L 241 25 L 240 33 L 240 38 L 242 40 L 245 39 L 248 35 L 250 30 L 251 24 L 250 20 L 247 18 L 242 20 L 239 27" stroke="#ffffff" stroke-width="2" stroke-linecap="round" stroke-linejoin="round" fill="none"/><path d="M 92 103 L 90 100 L 92 97 L 96 91 L 103 85 L 109 81 L 112 81 L 112 84 L 112 87 L 110 90 L 107 93 L 105 94 L 103 94 L 103 94 L 103 98 L 103 104 L 103 112 L 101 119 L 99 124 L 98 126 L 98 127" stroke="#ffffff" stroke-width="2" stroke-linecap="round" stroke-linejoin="round" fill="none"/><path d="M 124 104 L 123 103 L 125 98 L 128 96 L 131 95 L 134 96 L 135 99 L 135 103 L 134 107 L 132 110 L 129 112 L 126 113 L 124 113 L 121 112 L 121 111" stroke="#ffffff" stroke-width="2" stroke-linecap="round" stroke-linejoin="round" fill="none"/><path d="M 138 75 L 136 79 L 136 82" stroke="#ffffff" stroke-width="2" stroke-linecap="round" stroke-linejoin="round" fill="none"/><path d="M 146 71 L 144 72 L 144 76 L 145 79" stroke="#ffffff" stroke-width="2" stroke-linecap="round" stroke-linejoin="round" fill="none"/><path d="M 152 88 L 151 87 L 151 86 L 154 84 L 157 82 L 159 82" stroke="#ffffff" stroke-width="2" stroke-linecap="round" stroke-linejoin="round" fill="none"/><path d="M 150 104 L 149 102 L 152 99 L 156 95 L 161 93 L 163 93 L 162 98 L 159 104 L 154 110 L 150 116 L 147 118" stroke="#ffffff" stroke-width="2" stroke-linecap="round" stroke-linejoin="round" fill="none"/><path d="M 194 82 L 194 81 L 192 83 L 189 91 L 185 101 L 181 108 L 178 112 L 178 113" stroke="#ffffff" stroke-width="2" stroke-linecap="round" stroke-linejoin="round" fill="none"/><path d="M 186 93 L 186 95 L 186 101 L 186 109 L 187 113" stroke="#ffffff" stroke-width="2" stroke-linecap="round" stroke-linejoin="round" fill="none"/><path d="M 198 104 L 199 104 L 200 101 L 204 99 L 206 98" stroke="#ffffff" stroke-width="2" stroke-linecap="round" stroke-linejoin="round" fill="none"/><path d="M 207 110 L 205 112 L 205 112 L 205 111 L 208 108 L 213 102 L 220 91" stroke="#ffffff" stroke-width="2" stroke-linecap="round" stroke-linejoin="round" fill="none"/><path d="M 239 98 L 239 93 L 242 90 L 246 87 L 248 87 L 249 90 L 248 95 L 246 101 L 243 106 L 241 108" stroke="#ffffff" stroke-width="2" stroke-linecap="round" stroke-linejoin="round" fill="none"/><path d="M 245 100 L 245 100 L 248 99 L 251 101 L 255 104 L 258 104" stroke="#ffffff" stroke-width="2" stroke-linecap="round" stroke-linejoin="round" fill="none"/><path d="M 270 80 L 268 80 L 264 85 L 262 92 L 261 99" stroke="#ffffff" stroke-width="2" stroke-linecap="round" stroke-linejoin="round" fill="none"/><path d="M 265 89 L 265 85 L 266 84 L 269 81 L 271 83 L 272 87 L 273 92 L 271 98 L 268 104 L 263 110 L 262 112" stroke="#ffffff" stroke-width="2" stroke-linecap="round" stroke-linejoin="round" fill="none"/><path d="M 285 92 L 285 88 L 288 86 L 291 84 L 294 83 L 296 82 L 295 84 L 293 88 L 291 94 L 288 100 L 286 106 L 284 109 L 283 109 L 281 109 L 279 109 L 278 109 L 281 109 L 287 107 L 294 104 L 300 100 L 303 98" stroke="#ffffff" stroke-width="2" stroke-linecap="round" stroke-linejoin="round" fill="none"/><path d="M 312 86 L 311 85 L 311 79 L 316 75 L 321 71 L 325 70 L 327 71 L 328 73 L 326 76 L 324 79 L 322 80 L 322 80 L 321 81 L 321 84 L 319 91 L 316 101 L 313 108 L 312 111" stroke="#ffffff" stroke-width="2" stroke-linecap="round" stroke-linejoin="round" fill="none"/><path d="M 349 75 L 347 75 L 344 79 L 342 86 L 340 91 L 340 94" stroke="#ffffff" stroke-width="2" stroke-linecap="round" stroke-linejoin="round" fill="none"/><path d="M 342 86 L 342 86 L 344 80 L 347 78 L 350 79 L 352 83 L 352 90 L 350 98 L 346 105 L 343 110 L 343 111" stroke="#ffffff" stroke-width="2" stroke-linecap="round" stroke-linejoin="round" fill="none"/><path d="M 361 54 L 359 55 L 356 61" stroke="#ffffff" stroke-width="2" stroke-linecap="round" stroke-linejoin="round" fill="none"/><path d="M 367 53 L 366 52 L 366 54 L 366 59 L 366 62" stroke="#ffffff" stroke-width="2" stroke-linecap="round" stroke-linejoin="round" fill="none"/><path d="M 371 79 L 371 78 L 371 75 L 375 73 L 378 72 L 380 72" stroke="#ffffff" stroke-width="2" stroke-linecap="round" stroke-linejoin="round" fill="none"/><path d="M 371 90 L 370 90 L 369 90 L 369 90 L 371 88 L 375 85 L 379 83 L 382 82 L 384 82 L 384 85 L 381 91 L 377 97 L 372 103 L 368 106 L 367 106" stroke="#ffffff" stroke-width="2" stroke-linecap="round" stroke-linejoin="round" fill="none"/><path d="M 439 78 L 441 74 L 448 71 L 456 68 L 461 67 L 463 67 L 464 67" stroke="#ffffff" stroke-width="2" stroke-linecap="round" stroke-linejoin="round" fill="none"/><path d="M 456 63 L 456 61 L 456 63 L 455 70 L 452 82 L 449 92 L 447 96 L 446 96 L 445 95 L 445 93 L 445 89 L 447 84 L 450 80 L 452 79 L 454 83 L 454 91 L 451 98 L 448 104 L 447 106 L 446 107" stroke="#ffffff" stroke-width="2" stroke-linecap="round" stroke-linejoin="round" fill="none"/><path d="M 485 80 L 484 79 L 483 78 L 481 78 L 479 79 L 477 81 L 475 83 L 473 85 L 471 87 L 470 89 L 469 92 L 470 95 L 474 97 L 479 99 L 484 100 L 488 100" stroke="#ffffff" stroke-width="2" stroke-linecap="round" stroke-linejoin="round" fill="none"/><path d="M 86 140 L 86 139 L 85 136 L 85 138 L 85 144 L 87 149 L 88 150" stroke="#ffffff" stroke-width="2" stroke-linecap="round" stroke-linejoin="round" fill="none"/><path d="M 102 132 L 101 132 L 100 131 L 99 133 L 96 139 L 93 145 L 92 147" stroke="#ffffff" stroke-width="2" stroke-linecap="round" stroke-linejoin="round" fill="none"/><path d="M 74 158 L 74 158 L 76 154 L 84 149 L 97 144 L 106 141 L 110 140" stroke="#ffffff" stroke-width="2" stroke-linecap="round" stroke-linejoin="round" fill="none"/><path d="M 86 157 L 86 157 L 84 165 L 83 176 L 83 186 L 83 192 L 83 194" stroke="#ffffff" stroke-width="2" stroke-linecap="round" stroke-linejoin="round" fill="none"/><path d="M 85 166 L 85 163 L 87 156 L 89 157 L 90 163 L 91 172 L 91 180 L 90 186 L 90 188" stroke="#ffffff" stroke-width="2" stroke-linecap="round" stroke-linejoin="round" fill="none"/><path d="M 87 167 L 86 166 L 86 164" stroke="#ffffff" stroke-width="2" stroke-linecap="round" stroke-linejoin="round" fill="none"/><path d="M 87 175 L 87 176 L 86 176 L 89 172" stroke="#ffffff" stroke-width="2" stroke-linecap="round" stroke-linejoin="round" fill="none"/><path d="M 104 150 L 104 151 L 103 153 L 103 155 L 102 162 L 102 165" stroke="#ffffff" stroke-width="2" stroke-linecap="round" stroke-linejoin="round" fill="none"/><path d="M 109 148 L 109 148 L 109 150 L 109 158 L 109 169 L 107 178 L 105 185 L 103 187 L 103 188" stroke="#ffffff" stroke-width="2" stroke-linecap="round" stroke-linejoin="round" fill="none"/><path d="M 125 152 L 125 151 L 125 150 L 126 146 L 128 144 L 130 143 L 131 143 L 132 144 L 131 148 L 129 153 L 127 159 L 126 162" stroke="#ffffff" stroke-width="2" stroke-linecap="round" stroke-linejoin="round" fill="none"/><path d="M 128 154 L 126 151 L 127 150 L 130 149" stroke="#ffffff" stroke-width="2" stroke-linecap="round" stroke-linejoin="round" fill="none"/><path d="M 126 164 L 126 164 L 123 165 L 124 164 L 127 160 L 130 156" stroke="#ffffff" stroke-width="2" stroke-linecap="round" stroke-linejoin="round" fill="none"/><path d="M 148 129 L 147 129 L 146 130 L 145 134 L 144 139 L 142 143" stroke="#ffffff" stroke-width="2" stroke-linecap="round" stroke-linejoin="round" fill="none"/><path d="M 147 134 L 147 136 L 146 141 L 144 146 L 143 149" stroke="#ffffff" stroke-width="2" stroke-linecap="round" stroke-linejoin="round" fill="none"/><path d="M 141 150 L 141 150 L 140 150 L 140 150 L 140 151 L 141 151" stroke="#ffffff" stroke-width="2" stroke-linecap="round" stroke-linejoin="round" fill="none"/><path d="M 136 166 L 135 165 L 136 162 L 139 158 L 143 152 L 146 150 L 146 151 L 145 158 L 142 166 L 139 173 L 136 178 L 135 181" stroke="#ffffff" stroke-width="2" stroke-linecap="round" stroke-linejoin="round" fill="none"/><path d="M 133 161 L 133 161 L 136 160 L 140 164 L 146 171 L 154 174" stroke="#ffffff" stroke-width="2" stroke-linecap="round" stroke-linejoin="round" fill="none"/><path d="M 183 152 L 182 152 L 183 148 L 187 146 L 191 144 L 193 143" stroke="#ffffff" stroke-width="2" stroke-linecap="round" stroke-linejoin="round" fill="none"/><path d="M 180 163 L 179 164 L 177 164 L 179 162 L 184 158 L 189 155 L 193 152" stroke="#ffffff" stroke-width="2" stroke-linecap="round" stroke-linejoin="round" fill="none"/><path d="M 191 137 L 189 136 L 188 138 L 188 146 L 188 159 L 188 171 L 187 176 L 186 178 L 184 178 L 183 177 L 182 176 L 181 175 L 183 173 L 187 171 L 193 168 L 199 165 L 201 164" stroke="#ffffff" stroke-width="2" stroke-linecap="round" stroke-linejoin="round" fill="none"/><path d="M 213 149 L 212 151 L 209 159 L 209 165 L 210 168 L 212 168 L 213 165 L 215 161 L 218 156 L 222 150 L 226 146 L 229 145 L 231 149 L 230 153 L 228 158 L 225 160 L 223 160 L 220 159 L 219 156 L 219 150 L 220 143 L 221 137 L 222 135 L 223 136 L 223 140 L 224 149 L 224 159 L 223 169 L 222 176 L 222 177" stroke="#ffffff" stroke-width="2" stroke-linecap="round" stroke-linejoin="round" fill="none"/><path d="M 255 151 L 254 151 L 255 148 L 259 145 L 265 143 L 267 142" stroke="#ffffff" stroke-width="2" stroke-linecap="round" stroke-linejoin="round" fill="none"/><path d="M 256 156 L 254 157 L 253 157 L 255 155 L 260 152 L 265 149 L 270 146 L 271 144" stroke="#ffffff" stroke-width="2" stroke-linecap="round" stroke-linejoin="round" fill="none"/><path d="M 258 138 L 259 136 L 260 139 L 261 148 L 262 159 L 262 161" stroke="#ffffff" stroke-width="2" stroke-linecap="round" stroke-linejoin="round" fill="none"/><path d="M 254 167 L 252 168 L 252 176 L 255 180 L 258 182" stroke="#ffffff" stroke-width="2" stroke-linecap="round" stroke-linejoin="round" fill="none"/><path d="M 279 153 L 280 149 L 283 149 L 286 150 L 287 150" stroke="#ffffff" stroke-width="2" stroke-linecap="round" stroke-linejoin="round" fill="none"/><path d="M 278 164 L 278 164 L 277 164 L 280 161 L 285 158 L 290 154" stroke="#ffffff" stroke-width="2" stroke-linecap="round" stroke-linejoin="round" fill="none"/><path d="M 287 137 L 286 137 L 285 143 L 283 157 L 281 170 L 282 175 L 285 175 L 289 172 L 294 167 L 298 162" stroke="#ffffff" stroke-width="2" stroke-linecap="round" stroke-linejoin="round" fill="none"/><path d="M 305 149 L 304 147 L 308 144 L 313 142 L 318 141 L 318 140" stroke="#ffffff" stroke-width="2" stroke-linecap="round" stroke-linejoin="round" fill="none"/><path d="M 311 136 L 311 137 L 310 138 L 309 144 L 308 153 L 307 159 L 307 161 L 307 160 L 310 157 L 313 154 L 317 153 L 320 154 L 321 158 L 321 163 L 316 167 L 312 170 L 308 171 L 306 171" stroke="#ffffff" stroke-width="2" stroke-linecap="round" stroke-linejoin="round" fill="none"/><path d="M 351 138 L 350 141 L 348 148 L 347 156 L 347 160 L 347 160" stroke="#ffffff" stroke-width="2" stroke-linecap="round" stroke-linejoin="round" fill="none"/><path d="M 352 146 L 352 144 L 356 144 L 361 143 L 363 143" stroke="#ffffff" stroke-width="2" stroke-linecap="round" stroke-linejoin="round" fill="none"/><path d="M 336 164 L 335 164 L 333 163 L 334 163 L 338 163 L 343 163 L 351 163 L 359 162 L 364 161 L 366 160 L 367 161 L 368 161" stroke="#ffffff" stroke-width="2" stroke-linecap="round" stroke-linejoin="round" fill="none"/></svg>
