<svg xmlns="http://www.w3.org/2000/svg" width="599" height="221" viewBox="0 0 599 221"><path d="M 18 19 L 17 17 L 16 15 L 15 15 L 14 18 L 12 26 L 10 37 L 10 46 L 14 49 L 19 48 L 23 42 L 25 36 L 26 31 L 25 30 L 20 32 L 15 37 L 10 43" stroke="#ffffff" stroke-width="2" stroke-linecap="round" stroke-linejoin="round" fill="none"/><path d="M 64 13 L 61 12 L 57 13 L 52 20 L 45 36 L 34 55 L 25 72 L 23 82" stroke="#ffffff" stroke-width="2" stroke-linecap="round" stroke-linejoin="round" fill="none"/><path d="M 59 47 L 57 46 L 55 49 L 54 57 L 54 65 L 55 70" stroke="#ffffff" stroke-width="2" stroke-linecap="round" stroke-linejoin="round" fill="none"/><path d="M 70 48 L 70 45 L 72 44 L 75 43 L 78 45 L 80 49 L 80 52 L 79 55 L 76 57 L 72 58 L 70 59 L 69 60 L 70 60 L 73 60 L 77 60 L 81 60 L 87 60 L 93 59 L 94 58" stroke="#ffffff" stroke-width="2" stroke-linecap="round" stroke-linejoin="round" fill="none"/><path d="M 143 18 L 141 17 L 139 17 L 138 20 L 137 27 L 136 35 L 138 41 L 142 43 L 146 43 L 149 40" stroke="#ffffff" stroke-width="2" stroke-linecap="round" stroke-linejoin="round" fill="none"/><path d="M 148 21 L 147 21 L 146 21 L 144 27 L 141 36 L 137 45 L 137 47" stroke="#ffffff" stroke-width="2" stroke-linecap="round" stroke-linejoin="round" fill="none"/><path d="M 133 33 L 133 32 L 133 30 L 136 27 L 143 24 L 148 23" stroke="#ffffff" stroke-width="2" stroke-linecap="round" stroke-linejoin="round" fill="none"/><path d="M 166 5 L 164 4 L 163 7 L 161 13 L 161 16" stroke="#ffffff" stroke-width="2" stroke-linecap="round" stroke-linejoin="round" fill="none"/><path d="M 159 18 L 158 16 L 159 13 L 161 12 L 164 12 L 166 15 L 166 19 L 166 22 L 165 24" stroke="#ffffff" stroke-width="2" stroke-linecap="round" stroke-linejoin="round" fill="none"/><path d="M 158 27 L 159 26 L 160 25 L 161 24 L 162 23" stroke="#ffffff" stroke-width="2" stroke-linecap="round" stroke-linejoin="round" fill="none"/><path d="M 160 30 L 161 28 L 163 26 L 164 24" stroke="#ffffff" stroke-width="2" stroke-linecap="round" stroke-linejoin="round" fill="none"/><path d="M 158 18 L 156 19 L 154 23 L 154 35 L 154 46 L 156 52 L 159 53" stroke="#ffffff" stroke-width="2" stroke-linecap="round" stroke-linejoin="round" fill="none"/><path d="M 174 27 L 173 27 L 171 29 L 167 35 L 164 41" stroke="#ffffff" stroke-width="2" stroke-linecap="round" stroke-linejoin="round" fill="none"/><path d="M 157 28 L 158 29 L 163 36 L 170 44 L 174 47" stroke="#ffffff" stroke-width="2" stroke-linecap="round" stroke-linejoin="round" fill="none"/><path d="M 216 8 L 214 8 L 211 7 L 209 7 L 206 13 L 202 28 L 200 46 L 202 54 L 206 57" stroke="#ffffff" stroke-width="2" stroke-linecap="round" stroke-linejoin="round" fill="none"/><path d="M 233 19 L 232 19 L 231 20 L 229 23 L 227 32 L 225 42 L 224 48 L 224 50" stroke="#ffffff" stroke-width="2" stroke-linecap="round" stroke-linejoin="round" fill="none"/><path d="M 254 22 L 251 18 L 249 15 L 248 12 L 247 10 L 245 13 L 244 17 L 242 24 L 242 32 L 242 39 L 242 45 L 243 47 L 242 47 L 239 47 L 237 44 L 236 40 L 236 37 L 238 34 L 242 32 L 249 28 L 256 25" stroke="#ffffff" stroke-width="2" stroke-linecap="round" stroke-linejoin="round" fill="none"/><path d="M 269 26 L 268 26 L 267 26 L 266 28 L 265 32 L 265 36 L 265 37" stroke="#ffffff" stroke-width="2" stroke-linecap="round" stroke-linejoin="round" fill="none"/><path d="M 269 33 L 269 32 L 270 29 L 273 27 L 277 26 L 281 25 L 282 26 L 282 27 L 280 27 L 278 28 L 276 30 L 274 34 L 273 40 L 272 46 L 274 49" stroke="#ffffff" stroke-width="2" stroke-linecap="round" stroke-linejoin="round" fill="none"/><path d="M 301 15 L 298 14 L 295 15 L 293 21 L 292 33 L 291 43 L 292 49 L 292 50" stroke="#ffffff" stroke-width="2" stroke-linecap="round" stroke-linejoin="round" fill="none"/><path d="M 293 22 L 292 17 L 291 14 L 294 12 L 298 11 L 302 11 L 304 15 L 305 22 L 304 30 L 303 39 L 302 45 L 301 49" stroke="#ffffff" stroke-width="2" stroke-linecap="round" stroke-linejoin="round" fill="none"/><path d="M 294 30 L 293 29 L 292 27 L 294 26 L 298 26" stroke="#ffffff" stroke-width="2" stroke-linecap="round" stroke-linejoin="round" fill="none"/><path d="M 298 34 L 295 34 L 294 34 L 296 33 L 303 29" stroke="#ffffff" stroke-width="2" stroke-linecap="round" stroke-linejoin="round" fill="none"/><path d="M 322 6 L 321 7 L 322 10 L 327 18 L 329 28 L 329 37 L 324 43 L 316 49 L 308 54 L 306 54" stroke="#ffffff" stroke-width="2" stroke-linecap="round" stroke-linejoin="round" fill="none"/><path d="M 382 17 L 379 17 L 375 17 L 372 23 L 369 31 L 369 37 L 373 39 L 379 37 L 385 33 L 389 28 L 390 24 L 389 24 L 387 25 L 385 29 L 385 32 L 386 34 L 389 35 L 394 33 L 401 30 L 407 27 L 412 25 L 415 23 L 418 21 L 418 20" stroke="#ffffff" stroke-width="2" stroke-linecap="round" stroke-linejoin="round" fill="none"/><path d="M 407 18 L 406 16 L 406 14 L 406 15 L 406 24 L 404 39 L 402 53 L 401 60" stroke="#ffffff" stroke-width="2" stroke-linecap="round" stroke-linejoin="round" fill="none"/><path d="M 316 66 L 316 64 L 319 63 L 325 64 L 329 67 L 330 71 L 328 74 L 324 76 L 320 76 L 318 75 L 321 76 L 326 81 L 328 86 L 327 90 L 322 92 L 314 93 L 307 92 L 304 90 L 304 88" stroke="#ffffff" stroke-width="2" stroke-linecap="round" stroke-linejoin="round" fill="none"/><path d="M 347 69 L 346 68 L 345 68 L 343 68 L 341 71 L 340 77 L 341 82 L 345 86 L 350 88 L 353 89 L 352 90 L 349 91 L 344 92 L 339 93 L 336 92 L 335 91" stroke="#ffffff" stroke-width="2" stroke-linecap="round" stroke-linejoin="round" fill="none"/><path d="M 343 70 L 343 69 L 343 68 L 347 68 L 358 69 L 369 71" stroke="#ffffff" stroke-width="2" stroke-linecap="round" stroke-linejoin="round" fill="none"/><path d="M 41 129 L 40 129 L 38 128 L 38 127 L 41 125 L 45 123 L 50 122 L 53 122 L 54 125 L 54 128 L 53 133 L 50 139 L 48 145 L 47 148" stroke="#ffffff" stroke-width="2" stroke-linecap="round" stroke-linejoin="round" fill="none"/><path d="M 54 101 L 52 100 L 51 99 L 51 103 L 52 107" stroke="#ffffff" stroke-width="2" stroke-linecap="round" stroke-linejoin="round" fill="none"/><path d="M 62 98 L 62 97 L 61 96 L 61 97 L 61 102 L 62 105" stroke="#ffffff" stroke-width="2" stroke-linecap="round" stroke-linejoin="round" fill="none"/><path d="M 75 116 L 74 115 L 73 114 L 73 113 L 77 112 L 78 112" stroke="#ffffff" stroke-width="2" stroke-linecap="round" stroke-linejoin="round" fill="none"/><path d="M 70 130 L 69 129 L 69 128 L 73 125 L 78 122 L 83 122 L 84 124 L 83 129 L 80 134 L 76 139 L 72 143 L 71 144" stroke="#ffffff" stroke-width="2" stroke-linecap="round" stroke-linejoin="round" fill="none"/><path d="M 99 124 L 96 123 L 95 122 L 97 121 L 101 120 L 102 120" stroke="#ffffff" stroke-width="2" stroke-linecap="round" stroke-linejoin="round" fill="none"/><path d="M 101 139 L 98 139 L 100 136 L 106 129 L 114 119 L 118 115" stroke="#ffffff" stroke-width="2" stroke-linecap="round" stroke-linejoin="round" fill="none"/><path d="M 78 113 L 78 114 L 77 114 L 78 114 L 80 113 L 82 112 L 86 111" stroke="#ffffff" stroke-width="2" stroke-linecap="round" stroke-linejoin="round" fill="none"/><path d="M 139 106 L 138 107 L 136 109 L 136 118 L 136 131 L 137 141 L 138 147 L 138 148" stroke="#ffffff" stroke-width="2" stroke-linecap="round" stroke-linejoin="round" fill="none"/><path d="M 137 128 L 136 127 L 136 125 L 137 125 L 143 125 L 150 126" stroke="#ffffff" stroke-width="2" stroke-linecap="round" stroke-linejoin="round" fill="none"/><path d="M 178 113 L 177 111 L 179 110 L 182 109 L 187 109 L 189 109" stroke="#ffffff" stroke-width="2" stroke-linecap="round" stroke-linejoin="round" fill="none"/><path d="M 178 123 L 177 123 L 176 123 L 177 122 L 181 120 L 186 119" stroke="#ffffff" stroke-width="2" stroke-linecap="round" stroke-linejoin="round" fill="none"/><path d="M 187 102 L 187 101 L 186 99 L 186 105 L 185 116 L 184 128 L 182 137 L 181 141 L 180 142 L 179 142 L 178 140 L 178 139 L 179 137 L 183 135 L 188 133 L 191 132" stroke="#ffffff" stroke-width="2" stroke-linecap="round" stroke-linejoin="round" fill="none"/><path d="M 198 135 L 199 135 L 199 134 L 200 132 L 201 132 L 202 133 L 202 136 L 200 140" stroke="#ffffff" stroke-width="2" stroke-linecap="round" stroke-linejoin="round" fill="none"/><path d="M 214 111 L 213 109 L 215 107 L 222 105 L 229 104 L 235 103" stroke="#ffffff" stroke-width="2" stroke-linecap="round" stroke-linejoin="round" fill="none"/><path d="M 225 99 L 224 98 L 223 98 L 223 100 L 224 107 L 224 116 L 224 124 L 221 130 L 219 132 L 218 132 L 217 129 L 218 124 L 220 120 L 223 118 L 226 118 L 227 124 L 226 133 L 223 142 L 220 147 L 219 149" stroke="#ffffff" stroke-width="2" stroke-linecap="round" stroke-linejoin="round" fill="none"/><path d="M 259 118 L 257 118 L 254 118 L 253 118 L 251 119 L 249 120 L 247 122 L 245 124 L 244 128 L 244 132 L 246 135 L 251 136 L 253 136" stroke="#ffffff" stroke-width="2" stroke-linecap="round" stroke-linejoin="round" fill="none"/><path d="M 257 104 L 256 105 L 253 105 L 252 107 L 253 110" stroke="#ffffff" stroke-width="2" stroke-linecap="round" stroke-linejoin="round" fill="none"/><path d="M 268 99 L 268 98 L 266 97 L 265 100 L 264 107 L 264 108" stroke="#ffffff" stroke-width="2" stroke-linecap="round" stroke-linejoin="round" fill="none"/><path d="M 276 118 L 275 117 L 277 115 L 283 112 L 289 110 L 293 110 L 293 111" stroke="#ffffff" stroke-width="2" stroke-linecap="round" stroke-linejoin="round" fill="none"/><path d="M 277 130 L 276 130 L 274 128 L 274 127 L 277 125 L 282 124 L 287 123 L 291 122 L 292 124 L 290 128 L 286 134 L 281 141 L 277 146 L 274 149" stroke="#ffffff" stroke-width="2" stroke-linecap="round" stroke-linejoin="round" fill="none"/><path d="M 318 111 L 315 111 L 313 111 L 312 114 L 310 120 L 307 127 L 303 132 L 300 134 L 299 135 L 298 135" stroke="#ffffff" stroke-width="2" stroke-linecap="round" stroke-linejoin="round" fill="none"/><path d="M 306 126 L 307 124 L 308 124 L 308 126 L 308 132 L 307 138 L 307 142" stroke="#ffffff" stroke-width="2" stroke-linecap="round" stroke-linejoin="round" fill="none"/><path d="M 325 125 L 325 123 L 325 121 L 328 120 L 329 121" stroke="#ffffff" stroke-width="2" stroke-linecap="round" stroke-linejoin="round" fill="none"/><path d="M 325 140 L 325 141 L 328 137 L 335 131 L 345 120" stroke="#ffffff" stroke-width="2" stroke-linecap="round" stroke-linejoin="round" fill="none"/><path d="M 398 91 L 397 90 L 395 89 L 395 92 L 395 99 L 396 102" stroke="#ffffff" stroke-width="2" stroke-linecap="round" stroke-linejoin="round" fill="none"/><path d="M 412 88 L 408 89 L 403 92 L 399 98 L 398 101" stroke="#ffffff" stroke-width="2" stroke-linecap="round" stroke-linejoin="round" fill="none"/><path d="M 391 107 L 392 104 L 395 100 L 403 96 L 414 93 L 421 92 L 423 92" stroke="#ffffff" stroke-width="2" stroke-linecap="round" stroke-linejoin="round" fill="none"/><path d="M 399 108 L 394 108 L 392 110 L 391 118 L 391 127 L 391 134 L 392 135" stroke="#ffffff" stroke-width="2" stroke-linecap="round" stroke-linejoin="round" fill="none"/><path d="M 395 118 L 395 115 L 396 110 L 397 108 L 400 110 L 402 116 L 402 123 L 402 129 L 401 132" stroke="#ffffff" stroke-width="2" stroke-linecap="round" stroke-linejoin="round" fill="none"/><path d="M 393 121 L 393 118 L 392 117 L 393 117 L 395 119" stroke="#ffffff" stroke-width="2" stroke-linecap="round" stroke-linejoin="round" fill="none"/><path d="M 396 120 L 395 119 L 396 118 L 401 116" stroke="#ffffff" stroke-width="2" stroke-linecap="round" stroke-linejoin="round" fill="none"/><path d="M 413 102 L 412 100 L 411 101 L 409 106 L 408 112 L 408 114" stroke="#ffffff" stroke-width="2" stroke-linecap="round" stroke-linejoin="round" fill="none"/><path d="M 418 100 L 418 99 L 417 104 L 415 116 L 412 130 L 408 138 L 405 142 L 404 143" stroke="#ffffff" stroke-width="2" stroke-linecap="round" stroke-linejoin="round" fill="none"/><path d="M 437 92 L 435 90 L 435 89 L 436 88 L 439 89 L 440 91 L 440 94 L 438 99 L 436 104 L 435 106" stroke="#ffffff" stroke-width="2" stroke-linecap="round" stroke-linejoin="round" fill="none"/><path d="M 437 102 L 436 100 L 435 98 L 436 97 L 439 96 L 441 97" stroke="#ffffff" stroke-width="2" stroke-linecap="round" stroke-linejoin="round" fill="none"/><path d="M 438 102 L 437 102 L 436 101 L 436 100 L 438 99" stroke="#ffffff" stroke-width="2" stroke-linecap="round" stroke-linejoin="round" fill="none"/><path d="M 429 116 L 428 116 L 425 116 L 431 111 L 440 105 L 442 103" stroke="#ffffff" stroke-width="2" stroke-linecap="round" stroke-linejoin="round" fill="none"/><path d="M 457 80 L 455 80 L 453 81 L 449 87 L 446 96 L 445 100 L 445 101" stroke="#ffffff" stroke-width="2" stroke-linecap="round" stroke-linejoin="round" fill="none"/><path d="M 461 80 L 461 79 L 459 80 L 456 85 L 453 92 L 451 97 L 451 98" stroke="#ffffff" stroke-width="2" stroke-linecap="round" stroke-linejoin="round" fill="none"/><path d="M 458 89 L 457 88 L 456 88 L 455 92 L 454 97 L 454 98" stroke="#ffffff" stroke-width="2" stroke-linecap="round" stroke-linejoin="round" fill="none"/><path d="M 437 118 L 437 116 L 437 113 L 440 109 L 445 106 L 449 105 L 450 108 L 447 113 L 442 120 L 438 126 L 435 130 L 434 131" stroke="#ffffff" stroke-width="2" stroke-linecap="round" stroke-linejoin="round" fill="none"/><path d="M 436 112 L 436 111 L 437 111 L 440 117 L 448 123 L 458 126 L 461 126" stroke="#ffffff" stroke-width="2" stroke-linecap="round" stroke-linejoin="round" fill="none"/><path d="M 486 98 L 486 97 L 486 95 L 485 94 L 486 94 L 490 94 L 495 94 L 496 94" stroke="#ffffff" stroke-width="2" stroke-linecap="round" stroke-linejoin="round" fill="none"/><path d="M 481 105 L 480 105 L 478 106 L 482 105 L 488 104 L 494 103" stroke="#ffffff" stroke-width="2" stroke-linecap="round" stroke-linejoin="round" fill="none"/><path d="M 494 89 L 490 87 L 490 86 L 491 87 L 491 94 L 490 106 L 488 118 L 484 125 L 482 128 L 481 128 L 479 126 L 479 123 L 479 120 L 481 119 L 485 118 L 491 117 L 498 115" stroke="#ffffff" stroke-width="2" stroke-linecap="round" stroke-linejoin="round" fill="none"/><path d="M 517 99 L 516 98 L 512 97 L 512 99 L 512 104 L 512 109 L 514 112 L 516 113 L 518 111 L 521 106 L 526 100 L 531 94 L 537 91 L 539 94 L 539 98 L 538 102 L 534 105 L 530 106 L 526 106 L 523 103 L 522 98 L 523 92 L 525 88 L 526 86 L 528 88 L 528 94 L 527 104 L 523 116 L 520 125 L 520 129" stroke="#ffffff" stroke-width="2" stroke-linecap="round" stroke-linejoin="round" fill="none"/><path d="M 567 88 L 566 86 L 564 85 L 564 88 L 563 94 L 563 102 L 564 108 L 565 111" stroke="#ffffff" stroke-width="2" stroke-linecap="round" stroke-linejoin="round" fill="none"/><path d="M 568 100 L 566 97 L 566 95 L 567 94 L 571 94 L 577 94 L 583 95 L 586 96" stroke="#ffffff" stroke-width="2" stroke-linecap="round" stroke-linejoin="round" fill="none"/><path d="M 549 119 L 547 118 L 545 117 L 545 116 L 548 115 L 556 115 L 568 113 L 579 113 L 587 113 L 589 113" stroke="#ffffff" stroke-width="2" stroke-linecap="round" stroke-linejoin="round" fill="none"/><path d="M 420 168 L 419 168 L 418 168 L 418 169 L 417 172 L 416 178 L 414 185 L 413 190 L 412 192 L 413 192 L 414 191 L 415 190 L 416 190 L 417 190 L 418 190 L 421 190 L 424 190 L 428 190 L 433 190 L 438 190 L 443 190 L 448 190 L 451 190 L 455 191 L 458 191 L 462 191 L 467 190 L 471 190 L 474 190 L 477 191 L 480 191 L 484 191 L 487 190 L 490 190 L 491 191 L 492 191 L 492 189 L 492 188 L 492 185 L 492 183 L 492 179 L 492 175 L 492 172 L 492 168 L 492 165 L 492 164" stroke="#ffffff" stroke-width="2" stroke-linecap="round" stroke-linejoin="round" fill="none"/><path d="M 411 191 L 411 190 L 410 192 L 409 193 L 407 196 L 406 198 L 404 199 L 402 201 L 399 204 L 397 206 L 395 207 L 393 207 L 394 206 L 395 205 L 396 204 L 397 203 L 398 202 L 399 201 L 400 201 L 402 200 L 403 199 L 404 198 L 405 197 L 406 196 L 407 196 L 409 195 L 410 194 L 410 193 L 410 192 L 410 191 L 410 190 L 411 190 L 411 191 L 410 192 L 409 193" stroke="#ffffff" stroke-width="2" stroke-linecap="round" stroke-linejoin="round" fill="none"/><path d="M 492 191 L 491 190 L 490 189 L 492 191 L 494 193 L 496 195 L 499 196 L 504 197 L 508 198 L 512 198 L 514 199 L 515 199 L 517 199 L 517 198" stroke="#ffffff" stroke-width="2" stroke-linecap="round" stroke-linejoin="round" fill="none"/><path d="M 487 194 L 487 193 L 488 193 L 491 193 L 497 196 L 503 198 L 510 199 L 513 200" stroke="#ffffff" stroke-width="2" stroke-linecap="round" stroke-linejoin="round" fill="none"/><path d="M 411 170 L 410 170 L 409 170 L 409 171 L 408 171 L 408 174 L 407 181 L 406 193 L 405 200 L 405 203 L 405 202 L 405 200 L 405 197 L 405 192 L 405 187 L 406 182 L 406 177 L 405 175 L 404 174 L 404 175 L 404 177 L 402 182 L 399 191 L 396 203 L 394 210 L 394 211" stroke="#ffffff" stroke-width="2" stroke-linecap="round" stroke-linejoin="round" fill="none"/><path d="M 437 168 L 437 167 L 436 167 L 435 171 L 433 179 L 431 187 L 431 190 L 434 188 L 438 183 L 440 178 L 442 173 L 443 169 L 443 167 L 444 167 L 445 171 L 443 177 L 442 182 L 442 184 L 442 185 L 443 182 L 445 177 L 448 172 L 450 169 L 451 170 L 450 177 L 449 183 L 449 187 L 450 187 L 454 184 L 457 178 L 459 173 L 460 171 L 460 172 L 460 175 L 460 179 L 459 182 L 459 183 L 460 183 L 461 179 L 463 175 L 465 173 L 466 172 L 465 176 L 464 183 L 463 187 L 464 188 L 467 185 L 470 180 L 472 174 L 474 170 L 475 167 L 476 167 L 476 168 L 475 173 L 474 178 L 474 182 L 474 183 L 475 182 L 477 178 L 478 173 L 480 171 L 480 170 L 479 175 L 478 179 L 478 180" stroke="#ffffff" stroke-width="2" stroke-linecap="round" stroke-linejoin="round" fill="none"/><path d="M 501 170 L 501 169 L 501 167 L 500 166 L 500 168 L 500 176 L 499 185 L 499 190 L 501 191 L 504 189 L 507 185 L 508 180 L 509 177 L 509 174 L 509 178 L 509 183 L 509 188 L 510 191 L 510 192 L 511 191 L 512 188 L 513 185 L 514 183 L 516 182 L 517 186 L 517 191 L 517 195 L 518 196 L 520 196 L 521 195" stroke="#ffffff" stroke-width="2" stroke-linecap="round" stroke-linejoin="round" fill="none"/><path d="M 482 173 L 482 172 L 482 169 L 483 168 L 485 167 L 486 170 L 487 177 L 486 185 L 485 190 L 484 193" stroke="#ffffff" stroke-width="2" stroke-linecap="round" stroke-linejoin="round" fill="none"/></svg>
