<svg xmlns="http://www.w3.org/2000/svg" width="630" height="165" viewBox="0 0 630 165"><path d="M 13 22 L 14 20 L 14 19 L 14 18 L 13 18 L 12 20 L 11 27 L 10 34 L 10 40 L 13 43" stroke="#ffffff" stroke-width="2" stroke-linecap="round" stroke-linejoin="round" fill="none"/><path d="M 66 13 L 64 14" stroke="#ffffff" stroke-width="2" stroke-linecap="round" stroke-linejoin="round" fill="none"/><path d="M 25 34 L 24 34 L 25 34 L 27 35 L 31 36 L 35 37 L 39 37 L 41 37 L 42 37 L 43 37" stroke="#ffffff" stroke-width="2" stroke-linecap="round" stroke-linejoin="round" fill="none"/><path d="M 67 13 L 67 12 L 67 11 L 67 10 L 65 11 L 63 18 L 60 27 L 52 45 L 47 55 L 42 63 L 42 64" stroke="#ffffff" stroke-width="2" stroke-linecap="round" stroke-linejoin="round" fill="none"/><path d="M 83 28 L 82 31 L 81 38 L 80 46 L 80 51" stroke="#ffffff" stroke-width="2" stroke-linecap="round" stroke-linejoin="round" fill="none"/><path d="M 93 27 L 93 28 L 92 31 L 92 37 L 92 49 L 92 53" stroke="#ffffff" stroke-width="2" stroke-linecap="round" stroke-linejoin="round" fill="none"/><path d="M 162 27 L 161 27 L 160 26 L 158 25 L 155 25 L 152 29 L 149 36 L 148 44 L 150 47 L 154 48 L 163 44" stroke="#ffffff" stroke-width="2" stroke-linecap="round" stroke-linejoin="round" fill="none"/><path d="M 191 16 L 189 16 L 188 16 L 186 17 L 184 26 L 182 37 L 182 44 L 184 47 L 187 47 L 190 43 L 193 38 L 193 34 L 193 32 L 190 31 L 186 32 L 182 36 L 181 40 L 181 42" stroke="#ffffff" stroke-width="2" stroke-linecap="round" stroke-linejoin="round" fill="none"/><path d="M 214 26 L 212 26 L 210 26 L 209 29 L 208 35 L 210 40 L 214 41 L 217 40 L 220 35 L 221 30 L 221 27 L 218 25 L 215 24 L 211 27 L 210 30" stroke="#ffffff" stroke-width="2" stroke-linecap="round" stroke-linejoin="round" fill="none"/><path d="M 60 79 L 60 78 L 60 76 L 59 75 L 58 75 L 56 76 L 53 79 L 49 82 L 46 85 L 45 87 L 46 89 L 49 91 L 55 92 L 60 91 L 64 90" stroke="#ffffff" stroke-width="2" stroke-linecap="round" stroke-linejoin="round" fill="none"/><path d="M 58 79 L 57 79 L 56 77 L 55 77 L 54 80 L 53 88 L 53 99 L 53 106" stroke="#ffffff" stroke-width="2" stroke-linecap="round" stroke-linejoin="round" fill="none"/><path d="M 67 94 L 66 95 L 65 97 L 64 100 L 65 103" stroke="#ffffff" stroke-width="2" stroke-linecap="round" stroke-linejoin="round" fill="none"/><path d="M 83 80 L 82 80 L 80 81 L 79 83 L 79 88 L 82 91 L 86 93 L 90 94 L 93 95 L 93 97 L 91 99 L 88 100 L 85 101 L 82 101" stroke="#ffffff" stroke-width="2" stroke-linecap="round" stroke-linejoin="round" fill="none"/><path d="M 78 85 L 78 84 L 79 83 L 80 81 L 85 81 L 91 80" stroke="#ffffff" stroke-width="2" stroke-linecap="round" stroke-linejoin="round" fill="none"/><path d="M 120 94 L 117 93 L 117 91 L 119 88 L 124 86 L 128 86 L 130 87 L 132 89 L 133 89 L 137 87 L 140 85" stroke="#ffffff" stroke-width="2" stroke-linecap="round" stroke-linejoin="round" fill="none"/><path d="M 175 77 L 174 77 L 173 79 L 170 85 L 168 93 L 168 98" stroke="#ffffff" stroke-width="2" stroke-linecap="round" stroke-linejoin="round" fill="none"/><path d="M 179 90 L 179 91 L 179 94" stroke="#ffffff" stroke-width="2" stroke-linecap="round" stroke-linejoin="round" fill="none"/><path d="M 198 75 L 197 75 L 195 75 L 194 77 L 194 80 L 197 85 L 201 87 L 203 88 L 206 89 L 206 91 L 204 92 L 201 94 L 197 94 L 196 94" stroke="#ffffff" stroke-width="2" stroke-linecap="round" stroke-linejoin="round" fill="none"/><path d="M 193 78 L 193 77 L 193 76 L 195 75 L 200 74 L 209 74" stroke="#ffffff" stroke-width="2" stroke-linecap="round" stroke-linejoin="round" fill="none"/><path d="M 287 62 L 286 63 L 284 64 L 282 69 L 282 76 L 282 81 L 282 84" stroke="#ffffff" stroke-width="2" stroke-linecap="round" stroke-linejoin="round" fill="none"/><path d="M 268 88 L 266 89 L 265 89 L 266 89 L 270 88 L 281 86 L 291 83 L 299 81" stroke="#ffffff" stroke-width="2" stroke-linecap="round" stroke-linejoin="round" fill="none"/><path d="M 284 72 L 283 72 L 283 71 L 284 71 L 288 70 L 293 69 L 295 69" stroke="#ffffff" stroke-width="2" stroke-linecap="round" stroke-linejoin="round" fill="none"/><path d="M 318 57 L 318 56 L 317 56 L 316 62 L 315 72 L 315 83 L 315 88 L 315 91 L 316 91" stroke="#ffffff" stroke-width="2" stroke-linecap="round" stroke-linejoin="round" fill="none"/><path d="M 315 75 L 314 74 L 313 74 L 313 73 L 314 72 L 319 72 L 324 72" stroke="#ffffff" stroke-width="2" stroke-linecap="round" stroke-linejoin="round" fill="none"/><path d="M 335 63 L 334 62 L 333 62 L 333 63 L 333 68 L 334 72 L 336 73" stroke="#ffffff" stroke-width="2" stroke-linecap="round" stroke-linejoin="round" fill="none"/><path d="M 343 60 L 343 59 L 343 65 L 341 74 L 339 83 L 337 89 L 336 90" stroke="#ffffff" stroke-width="2" stroke-linecap="round" stroke-linejoin="round" fill="none"/><path d="M 356 64 L 354 64 L 354 65 L 354 70 L 354 76 L 354 81 L 355 82 L 356 81 L 357 78 L 358 75 L 360 73 L 361 71 L 363 72 L 365 74 L 369 75 L 372 75" stroke="#ffffff" stroke-width="2" stroke-linecap="round" stroke-linejoin="round" fill="none"/><path d="M 78 141 L 77 140 L 77 139 L 78 136 L 81 134 L 86 133 L 90 133 L 92 135 L 92 138 L 90 142 L 87 146 L 85 148" stroke="#ffffff" stroke-width="2" stroke-linecap="round" stroke-linejoin="round" fill="none"/><path d="M 104 132 L 103 131 L 103 129 L 106 127 L 111 125 L 117 123 L 122 121" stroke="#ffffff" stroke-width="2" stroke-linecap="round" stroke-linejoin="round" fill="none"/><path d="M 114 120 L 113 119 L 113 121 L 113 127 L 113 134 L 112 141 L 112 145 L 110 146 L 109 146 L 108 143 L 108 140 L 109 137 L 110 134 L 112 134 L 113 135 L 114 140 L 114 147 L 115 153 L 118 155 L 124 151 L 127 145 L 128 143" stroke="#ffffff" stroke-width="2" stroke-linecap="round" stroke-linejoin="round" fill="none"/><path d="M 127 128 L 126 129 L 126 131 L 126 132" stroke="#ffffff" stroke-width="2" stroke-linecap="round" stroke-linejoin="round" fill="none"/><path d="M 142 127 L 141 127 L 140 126 L 140 125 L 141 124 L 143 124 L 144 124" stroke="#ffffff" stroke-width="2" stroke-linecap="round" stroke-linejoin="round" fill="none"/><path d="M 146 124 L 146 123 L 145 122 L 144 121 L 143 122 L 143 127 L 142 134 L 142 141 L 144 145 L 147 146 L 151 142 L 154 137 L 155 135" stroke="#ffffff" stroke-width="2" stroke-linecap="round" stroke-linejoin="round" fill="none"/><path d="M 157 123 L 155 124 L 154 125 L 155 127" stroke="#ffffff" stroke-width="2" stroke-linecap="round" stroke-linejoin="round" fill="none"/><path d="M 163 119 L 162 119 L 161 119 L 161 120 L 162 122" stroke="#ffffff" stroke-width="2" stroke-linecap="round" stroke-linejoin="round" fill="none"/><path d="M 180 130 L 180 129 L 181 127 L 187 124 L 195 120 L 201 117 L 204 117" stroke="#ffffff" stroke-width="2" stroke-linecap="round" stroke-linejoin="round" fill="none"/><path d="M 191 119 L 191 118 L 191 119 L 190 124 L 189 130 L 186 137 L 182 142 L 180 144" stroke="#ffffff" stroke-width="2" stroke-linecap="round" stroke-linejoin="round" fill="none"/><path d="M 190 132 L 190 131 L 190 133 L 191 137 L 192 141 L 192 142" stroke="#ffffff" stroke-width="2" stroke-linecap="round" stroke-linejoin="round" fill="none"/><path d="M 193 136 L 193 134 L 192 131 L 193 131 L 194 130 L 196 130 L 198 130 L 200 131 L 200 133 L 200 136 L 200 138" stroke="#ffffff" stroke-width="2" stroke-linecap="round" stroke-linejoin="round" fill="none"/><path d="M 193 142 L 192 141 L 193 141 L 196 140" stroke="#ffffff" stroke-width="2" stroke-linecap="round" stroke-linejoin="round" fill="none"/><path d="M 219 114 L 218 113 L 217 113 L 216 117 L 214 123 L 211 130 L 209 134" stroke="#ffffff" stroke-width="2" stroke-linecap="round" stroke-linejoin="round" fill="none"/><path d="M 214 125 L 214 124 L 214 125 L 214 130 L 214 136 L 214 139" stroke="#ffffff" stroke-width="2" stroke-linecap="round" stroke-linejoin="round" fill="none"/><path d="M 227 114 L 226 114 L 225 114 L 224 116 L 224 123 L 224 130 L 224 131" stroke="#ffffff" stroke-width="2" stroke-linecap="round" stroke-linejoin="round" fill="none"/><path d="M 223 122 L 223 119 L 224 116 L 225 114 L 227 113 L 229 113 L 230 115 L 230 118 L 230 121 L 230 122" stroke="#ffffff" stroke-width="2" stroke-linecap="round" stroke-linejoin="round" fill="none"/><path d="M 225 127 L 224 125 L 223 124 L 223 122 L 226 122" stroke="#ffffff" stroke-width="2" stroke-linecap="round" stroke-linejoin="round" fill="none"/><path d="M 231 125 L 229 125 L 228 125 L 227 127 L 227 130 L 226 133 L 224 137" stroke="#ffffff" stroke-width="2" stroke-linecap="round" stroke-linejoin="round" fill="none"/><path d="M 229 130 L 230 130 L 231 131 L 232 132" stroke="#ffffff" stroke-width="2" stroke-linecap="round" stroke-linejoin="round" fill="none"/><path d="M 239 111 L 238 111 L 237 112 L 237 115 L 237 117" stroke="#ffffff" stroke-width="2" stroke-linecap="round" stroke-linejoin="round" fill="none"/><path d="M 243 107 L 244 106 L 244 105 L 244 108 L 245 116 L 244 128 L 241 138 L 237 145 L 236 147" stroke="#ffffff" stroke-width="2" stroke-linecap="round" stroke-linejoin="round" fill="none"/><path d="M 191 111 L 191 110 L 191 109 L 192 110 L 192 113 L 193 116 L 193 118" stroke="#ffffff" stroke-width="2" stroke-linecap="round" stroke-linejoin="round" fill="none"/><path d="M 261 119 L 260 119 L 259 118 L 259 117 L 263 116 L 268 114 L 272 113 L 274 112" stroke="#ffffff" stroke-width="2" stroke-linecap="round" stroke-linejoin="round" fill="none"/><path d="M 260 125 L 259 125 L 260 124 L 264 122 L 270 119 L 272 118" stroke="#ffffff" stroke-width="2" stroke-linecap="round" stroke-linejoin="round" fill="none"/><path d="M 268 110 L 268 109 L 267 108 L 266 108 L 267 113 L 267 122 L 269 130 L 271 134 L 274 135 L 278 132 L 282 126 L 283 124" stroke="#ffffff" stroke-width="2" stroke-linecap="round" stroke-linejoin="round" fill="none"/><path d="M 287 116 L 286 115 L 286 114 L 287 112 L 291 110 L 297 108 L 300 107" stroke="#ffffff" stroke-width="2" stroke-linecap="round" stroke-linejoin="round" fill="none"/><path d="M 294 105 L 293 105 L 292 105 L 291 106 L 291 112 L 290 119 L 290 124 L 290 125 L 292 124 L 294 121 L 297 119 L 299 120 L 300 123 L 300 128 L 298 132 L 294 136 L 291 137" stroke="#ffffff" stroke-width="2" stroke-linecap="round" stroke-linejoin="round" fill="none"/><path d="M 314 121 L 313 120 L 313 119 L 314 117 L 316 116 L 318 115 L 318 114 L 316 114 L 315 115 L 314 118 L 314 124 L 314 128 L 313 132 L 312 133 L 310 133 L 309 131 L 308 129 L 309 128 L 312 126 L 318 124 L 323 121 L 324 120" stroke="#ffffff" stroke-width="2" stroke-linecap="round" stroke-linejoin="round" fill="none"/><path d="M 331 117 L 330 117 L 329 118 L 328 119 L 329 121 L 331 122 L 332 122" stroke="#ffffff" stroke-width="2" stroke-linecap="round" stroke-linejoin="round" fill="none"/><path d="M 338 114 L 339 114 L 339 117 L 338 121 L 338 123" stroke="#ffffff" stroke-width="2" stroke-linecap="round" stroke-linejoin="round" fill="none"/><path d="M 368 111 L 369 111 L 369 113 L 368 116 L 366 121 L 365 125 L 363 127 L 362 127 L 361 123 L 361 117 L 362 113 L 365 110 L 370 109 L 374 111 L 377 116 L 377 123 L 375 129 L 374 132" stroke="#ffffff" stroke-width="2" stroke-linecap="round" stroke-linejoin="round" fill="none"/><path d="M 392 109 L 390 109 L 388 110 L 387 115 L 388 123 L 389 129 L 389 130" stroke="#ffffff" stroke-width="2" stroke-linecap="round" stroke-linejoin="round" fill="none"/><path d="M 395 110 L 396 109 L 397 107 L 400 105 L 404 103 L 409 103 L 411 102" stroke="#ffffff" stroke-width="2" stroke-linecap="round" stroke-linejoin="round" fill="none"/><path d="M 406 100 L 405 100 L 404 100 L 403 100 L 403 103 L 403 108 L 403 114 L 403 118 L 403 121 L 401 121 L 399 119 L 398 117 L 398 116 L 400 116 L 404 116 L 408 115 L 412 114" stroke="#ffffff" stroke-width="2" stroke-linecap="round" stroke-linejoin="round" fill="none"/><path d="M 411 87 L 410 87 L 409 87 L 409 90 L 409 93" stroke="#ffffff" stroke-width="2" stroke-linecap="round" stroke-linejoin="round" fill="none"/><path d="M 418 84 L 417 82 L 416 87 L 417 92" stroke="#ffffff" stroke-width="2" stroke-linecap="round" stroke-linejoin="round" fill="none"/><path d="M 428 96 L 428 95 L 427 95 L 427 96 L 428 99 L 429 103 L 429 104" stroke="#ffffff" stroke-width="2" stroke-linecap="round" stroke-linejoin="round" fill="none"/><path d="M 436 99 L 436 98 L 435 97 L 434 97 L 433 98 L 432 101 L 429 106 L 427 109 L 424 111 L 423 111 L 426 109 L 430 107 L 434 106 L 437 105 L 439 105 L 440 105 L 439 106 L 436 109 L 433 114 L 432 120 L 432 125 L 436 127 L 439 127" stroke="#ffffff" stroke-width="2" stroke-linecap="round" stroke-linejoin="round" fill="none"/><path d="M 451 102 L 451 101 L 450 99 L 450 96 L 451 95 L 455 96 L 457 97" stroke="#ffffff" stroke-width="2" stroke-linecap="round" stroke-linejoin="round" fill="none"/><path d="M 451 113 L 450 114 L 450 113 L 450 111 L 452 108 L 455 105 L 458 105 L 461 106 L 462 110 L 462 116 L 458 121 L 452 125 L 447 126 L 446 126" stroke="#ffffff" stroke-width="2" stroke-linecap="round" stroke-linejoin="round" fill="none"/><path d="M 519 88 L 518 86 L 517 84 L 517 86 L 517 90 L 516 97" stroke="#ffffff" stroke-width="2" stroke-linecap="round" stroke-linejoin="round" fill="none"/><path d="M 503 107 L 503 106 L 506 103 L 513 99 L 521 96 L 526 94" stroke="#ffffff" stroke-width="2" stroke-linecap="round" stroke-linejoin="round" fill="none"/><path d="M 517 99 L 514 100 L 511 102 L 509 107 L 508 113 L 509 117 L 512 117" stroke="#ffffff" stroke-width="2" stroke-linecap="round" stroke-linejoin="round" fill="none"/><path d="M 522 101 L 521 100 L 519 101 L 518 106 L 515 112 L 511 120 L 510 121" stroke="#ffffff" stroke-width="2" stroke-linecap="round" stroke-linejoin="round" fill="none"/><path d="M 498 126 L 499 125 L 505 124 L 515 121 L 523 119" stroke="#ffffff" stroke-width="2" stroke-linecap="round" stroke-linejoin="round" fill="none"/><path d="M 541 120 L 539 118 L 539 116 L 541 115 L 544 115 L 547 117 L 547 120 L 546 123 L 543 125" stroke="#ffffff" stroke-width="2" stroke-linecap="round" stroke-linejoin="round" fill="none"/><path d="M 556 103 L 555 102 L 555 101 L 559 98 L 564 97 L 567 97 L 569 97 L 569 98 L 567 98 L 565 100 L 563 105 L 561 111 L 560 117 L 564 121 L 574 120 L 576 119" stroke="#ffffff" stroke-width="2" stroke-linecap="round" stroke-linejoin="round" fill="none"/><path d="M 586 106 L 585 106 L 583 105 L 583 103 L 587 101 L 596 98 L 606 95 L 611 93 L 613 93" stroke="#ffffff" stroke-width="2" stroke-linecap="round" stroke-linejoin="round" fill="none"/><path d="M 599 88 L 598 87 L 597 87 L 596 90 L 593 100 L 591 110 L 590 118 L 591 123" stroke="#ffffff" stroke-width="2" stroke-linecap="round" stroke-linejoin="round" fill="none"/><path d="M 604 111 L 604 110 L 604 108 L 605 106 L 608 105 L 613 105" stroke="#ffffff" stroke-width="2" stroke-linecap="round" stroke-linejoin="round" fill="none"/><path d="M 605 119 L 604 119 L 605 118 L 611 116 L 620 112" stroke="#ffffff" stroke-width="2" stroke-linecap="round" stroke-linejoin="round" fill="none"/></svg>
