<svg xmlns="http://www.w3.org/2000/svg" width="714" height="662" viewBox="0 0 714 662"><path d="M 25 23 L 24 20 L 24 18 L 24 19 L 24 24 L 23 32 L 22 43 L 22 52 L 23 57 L 25 58" stroke="#ffffff" stroke-width="2" stroke-linecap="round" stroke-linejoin="round" fill="none"/><path d="M 49 32 L 49 31 L 49 29 L 49 26 L 51 23 L 52 20 L 52 18 L 52 15 L 50 14 L 49 14 L 46 16 L 43 21 L 41 28 L 40 34 L 41 37 L 45 37 L 50 33 L 52 29 L 53 25 L 54 22 L 53 21 L 53 20 L 52 22 L 52 26 L 50 32 L 48 41 L 48 49 L 49 53 L 51 54" stroke="#ffffff" stroke-width="2" stroke-linecap="round" stroke-linejoin="round" fill="none"/><path d="M 82 12 L 81 11 L 80 10 L 79 10 L 78 13 L 76 22 L 71 36 L 64 53 L 59 64 L 56 73 L 54 79 L 54 81" stroke="#ffffff" stroke-width="2" stroke-linecap="round" stroke-linejoin="round" fill="none"/><path d="M 99 48 L 99 46 L 99 45 L 99 43 L 99 41 L 99 40 L 98 38 L 97 37 L 95 37 L 92 41 L 88 48 L 86 55 L 86 59 L 89 60 L 93 56 L 97 51 L 100 47 L 101 45 L 101 44 L 100 43 L 99 44 L 99 47 L 99 52 L 97 60 L 96 70 L 96 76 L 97 79 L 97 80" stroke="#ffffff" stroke-width="2" stroke-linecap="round" stroke-linejoin="round" fill="none"/><path d="M 167 37 L 166 36 L 164 35 L 162 35 L 161 34 L 159 34 L 156 38 L 151 47 L 148 59 L 148 65 L 152 66 L 159 63 L 167 57" stroke="#ffffff" stroke-width="2" stroke-linecap="round" stroke-linejoin="round" fill="none"/><path d="M 189 34 L 187 34 L 186 35 L 185 36 L 184 38 L 184 41 L 186 43 L 190 45 L 193 46 L 195 47 L 196 49 L 195 51 L 192 53 L 189 55 L 186 56 L 183 56 L 182 56" stroke="#ffffff" stroke-width="2" stroke-linecap="round" stroke-linejoin="round" fill="none"/><path d="M 187 38 L 185 37 L 185 36 L 187 36 L 193 36 L 197 37" stroke="#ffffff" stroke-width="2" stroke-linecap="round" stroke-linejoin="round" fill="none"/><path d="M 219 34 L 219 33 L 219 31 L 219 30 L 217 30 L 216 30 L 214 32 L 213 36 L 213 40 L 214 43 L 217 45 L 220 46 L 223 48 L 225 49 L 224 52 L 221 54 L 218 56 L 215 58 L 212 58 L 211 58" stroke="#ffffff" stroke-width="2" stroke-linecap="round" stroke-linejoin="round" fill="none"/><path d="M 214 35 L 214 34 L 213 33 L 215 32 L 220 33 L 228 35 L 234 36" stroke="#ffffff" stroke-width="2" stroke-linecap="round" stroke-linejoin="round" fill="none"/><path d="M 195 39 L 195 40 L 195 39 L 196 39 L 197 39 L 198 39 L 199 39 L 200 39" stroke="#ffffff" stroke-width="2" stroke-linecap="round" stroke-linejoin="round" fill="none"/><path d="M 262 21 L 261 21 L 260 21 L 259 21 L 257 23 L 255 29 L 250 39 L 244 49 L 241 55 L 239 59 L 237 62 L 235 65 L 235 67" stroke="#ffffff" stroke-width="2" stroke-linecap="round" stroke-linejoin="round" fill="none"/><path d="M 285 32 L 285 31 L 285 29 L 285 28 L 284 28 L 284 29 L 283 35 L 281 44 L 279 52 L 279 59 L 280 62 L 281 62" stroke="#ffffff" stroke-width="2" stroke-linecap="round" stroke-linejoin="round" fill="none"/><path d="M 284 37 L 283 34 L 281 31 L 281 29 L 284 27 L 289 27 L 293 28 L 295 31 L 295 34 L 294 38 L 291 41 L 288 43 L 285 44 L 282 44 L 280 44" stroke="#ffffff" stroke-width="2" stroke-linecap="round" stroke-linejoin="round" fill="none"/><path d="M 17 132 L 15 131 L 14 130 L 16 129 L 22 126 L 29 123 L 37 121 L 44 118 L 50 116 L 52 115" stroke="#ffffff" stroke-width="2" stroke-linecap="round" stroke-linejoin="round" fill="none"/><path d="M 28 116 L 27 115 L 26 114 L 26 113 L 27 116 L 28 122 L 29 129 L 30 135 L 32 137" stroke="#ffffff" stroke-width="2" stroke-linecap="round" stroke-linejoin="round" fill="none"/><path d="M 36 113 L 34 111 L 33 110 L 34 110 L 36 116 L 37 125 L 36 136 L 34 146 L 33 152" stroke="#ffffff" stroke-width="2" stroke-linecap="round" stroke-linejoin="round" fill="none"/><path d="M 65 113 L 65 111 L 65 109 L 66 108 L 66 109 L 66 113 L 64 119 L 61 125 L 56 132 L 52 137 L 50 140" stroke="#ffffff" stroke-width="2" stroke-linecap="round" stroke-linejoin="round" fill="none"/><path d="M 60 126 L 59 126 L 58 126 L 58 125 L 58 127 L 59 133 L 59 141 L 60 147 L 60 149" stroke="#ffffff" stroke-width="2" stroke-linecap="round" stroke-linejoin="round" fill="none"/><path d="M 82 115 L 81 114 L 80 114 L 79 114 L 79 117 L 78 123 L 78 132 L 78 140 L 79 144 L 80 145" stroke="#ffffff" stroke-width="2" stroke-linecap="round" stroke-linejoin="round" fill="none"/><path d="M 80 129 L 79 129 L 78 128 L 81 128 L 86 128 L 90 128" stroke="#ffffff" stroke-width="2" stroke-linecap="round" stroke-linejoin="round" fill="none"/><path d="M 92 109 L 89 109 L 88 110 L 88 113" stroke="#ffffff" stroke-width="2" stroke-linecap="round" stroke-linejoin="round" fill="none"/><path d="M 97 106 L 96 106 L 95 108 L 94 111" stroke="#ffffff" stroke-width="2" stroke-linecap="round" stroke-linejoin="round" fill="none"/><path d="M 131 109 L 130 109 L 129 109 L 128 110 L 126 114 L 124 124 L 122 134 L 123 140 L 126 141 L 129 139 L 132 135 L 133 131 L 134 127 L 134 125 L 133 125 L 131 125 L 128 126 L 124 129 L 120 134 L 119 139" stroke="#ffffff" stroke-width="2" stroke-linecap="round" stroke-linejoin="round" fill="none"/><path d="M 149 129 L 148 128 L 149 125 L 152 123 L 155 122 L 157 122 L 159 124 L 160 125 L 162 126 L 166 123 L 170 121" stroke="#ffffff" stroke-width="2" stroke-linecap="round" stroke-linejoin="round" fill="none"/><path d="M 184 109 L 184 110 L 183 110 L 182 109 L 183 107 L 186 106 L 190 106 L 195 106 L 197 108 L 197 110 L 195 114 L 191 117 L 188 118 L 187 118 L 190 118 L 193 119 L 195 121 L 196 124 L 195 127 L 192 129 L 189 130 L 186 130 L 184 129 L 183 128" stroke="#ffffff" stroke-width="2" stroke-linecap="round" stroke-linejoin="round" fill="none"/><path d="M 258 109 L 258 110 L 258 109 L 261 106 L 266 103 L 270 102 L 272 102 L 272 103 L 271 105 L 270 108 L 269 111 L 266 116 L 264 120 L 263 123" stroke="#ffffff" stroke-width="2" stroke-linecap="round" stroke-linejoin="round" fill="none"/><path d="M 266 110 L 267 109 L 268 109 L 271 111 L 275 115 L 278 118 L 279 119" stroke="#ffffff" stroke-width="2" stroke-linecap="round" stroke-linejoin="round" fill="none"/><path d="M 292 114 L 291 115 L 290 115 L 290 113 L 290 111 L 291 109 L 292 106 L 293 103 L 294 101 L 294 100 L 295 100 L 296 99 L 298 101 L 300 107 L 301 112 L 303 118 L 306 121" stroke="#ffffff" stroke-width="2" stroke-linecap="round" stroke-linejoin="round" fill="none"/><path d="M 308 100 L 308 99 L 306 97 L 305 95 L 305 93 L 305 92 L 306 91 L 308 90 L 309 90 L 310 92 L 310 95 L 309 98 L 308 100 L 307 100" stroke="#ffffff" stroke-width="2" stroke-linecap="round" stroke-linejoin="round" fill="none"/><path d="M 332 94 L 332 93 L 332 92 L 331 92 L 329 94 L 326 99 L 322 104 L 318 109 L 315 112 L 315 113" stroke="#ffffff" stroke-width="2" stroke-linecap="round" stroke-linejoin="round" fill="none"/><path d="M 323 102 L 323 101 L 323 100 L 324 105 L 324 111 L 325 118 L 325 119" stroke="#ffffff" stroke-width="2" stroke-linecap="round" stroke-linejoin="round" fill="none"/><path d="M 337 104 L 336 103 L 335 102 L 336 102 L 340 101 L 344 100 L 347 99" stroke="#ffffff" stroke-width="2" stroke-linecap="round" stroke-linejoin="round" fill="none"/><path d="M 343 115 L 342 116 L 341 116 L 341 115 L 345 112 L 350 108 L 354 102 L 358 97 L 361 92" stroke="#ffffff" stroke-width="2" stroke-linecap="round" stroke-linejoin="round" fill="none"/><path d="M 380 87 L 379 86 L 379 85 L 379 86 L 379 89 L 380 91" stroke="#ffffff" stroke-width="2" stroke-linecap="round" stroke-linejoin="round" fill="none"/><path d="M 389 83 L 389 84 L 388 84 L 387 84 L 386 86 L 385 88 L 384 90" stroke="#ffffff" stroke-width="2" stroke-linecap="round" stroke-linejoin="round" fill="none"/><path d="M 378 96 L 377 95 L 378 93 L 381 91 L 385 89 L 390 89 L 391 89" stroke="#ffffff" stroke-width="2" stroke-linecap="round" stroke-linejoin="round" fill="none"/><path d="M 376 100 L 374 100 L 373 100 L 377 99 L 383 98 L 389 96 L 391 95" stroke="#ffffff" stroke-width="2" stroke-linecap="round" stroke-linejoin="round" fill="none"/><path d="M 386 85 L 385 85 L 384 85 L 383 87 L 381 93 L 379 102 L 376 109 L 374 113 L 374 114 L 373 114" stroke="#ffffff" stroke-width="2" stroke-linecap="round" stroke-linejoin="round" fill="none"/><path d="M 381 99 L 381 98 L 381 97 L 382 97 L 386 95 L 393 95 L 397 95" stroke="#ffffff" stroke-width="2" stroke-linecap="round" stroke-linejoin="round" fill="none"/><path d="M 380 106 L 379 104 L 380 103 L 383 102 L 386 101 L 389 101 L 391 101 L 390 103 L 389 105 L 388 106" stroke="#ffffff" stroke-width="2" stroke-linecap="round" stroke-linejoin="round" fill="none"/><path d="M 382 109 L 381 108 L 382 107 L 385 106 L 388 105 L 389 104 L 390 104 L 389 104 L 388 104 L 386 104 L 385 106 L 384 109 L 382 113 L 382 118 L 383 121 L 385 122 L 388 120 L 391 117 L 395 113" stroke="#ffffff" stroke-width="2" stroke-linecap="round" stroke-linejoin="round" fill="none"/><path d="M 414 99 L 413 98 L 414 96 L 419 95 L 424 94 L 428 94" stroke="#ffffff" stroke-width="2" stroke-linecap="round" stroke-linejoin="round" fill="none"/><path d="M 413 105 L 412 105 L 413 105 L 417 104 L 422 102 L 426 101 L 428 100" stroke="#ffffff" stroke-width="2" stroke-linecap="round" stroke-linejoin="round" fill="none"/><path d="M 417 90 L 416 90 L 416 92 L 418 98 L 421 104 L 423 109 L 424 112" stroke="#ffffff" stroke-width="2" stroke-linecap="round" stroke-linejoin="round" fill="none"/><path d="M 414 113 L 413 113 L 412 113 L 415 116 L 418 120 L 421 123" stroke="#ffffff" stroke-width="2" stroke-linecap="round" stroke-linejoin="round" fill="none"/><path d="M 438 103 L 438 102 L 442 100 L 448 99 L 453 99 L 454 99 L 453 100 L 451 100 L 449 102 L 446 104 L 445 107 L 444 110 L 443 113 L 445 115 L 449 115 L 453 114 L 454 113" stroke="#ffffff" stroke-width="2" stroke-linecap="round" stroke-linejoin="round" fill="none"/><path d="M 453 84 L 451 85 L 449 87 L 449 90 L 449 91" stroke="#ffffff" stroke-width="2" stroke-linecap="round" stroke-linejoin="round" fill="none"/><path d="M 457 84 L 457 83 L 456 84 L 456 88 L 456 90" stroke="#ffffff" stroke-width="2" stroke-linecap="round" stroke-linejoin="round" fill="none"/><path d="M 468 110 L 466 110 L 465 109 L 465 110 L 465 112 L 467 115 L 470 116 L 471 116 L 472 115 L 472 113 L 472 111 L 471 109 L 469 109 L 467 110 L 467 112" stroke="#ffffff" stroke-width="2" stroke-linecap="round" stroke-linejoin="round" fill="none"/><path d="M 499 88 L 498 88 L 498 89 L 498 90" stroke="#ffffff" stroke-width="2" stroke-linecap="round" stroke-linejoin="round" fill="none"/><path d="M 508 86 L 507 86 L 506 86 L 505 86 L 504 88 L 503 91 L 502 92" stroke="#ffffff" stroke-width="2" stroke-linecap="round" stroke-linejoin="round" fill="none"/><path d="M 494 99 L 493 99 L 492 99 L 494 97 L 500 94 L 508 90 L 513 88 L 515 88" stroke="#ffffff" stroke-width="2" stroke-linecap="round" stroke-linejoin="round" fill="none"/><path d="M 499 100 L 497 100 L 496 100 L 495 101 L 495 106 L 495 113 L 495 118 L 495 121" stroke="#ffffff" stroke-width="2" stroke-linecap="round" stroke-linejoin="round" fill="none"/><path d="M 496 106 L 496 104 L 495 102 L 495 101 L 497 100 L 500 100 L 502 100 L 503 103 L 503 108 L 502 113 L 502 118 L 502 121" stroke="#ffffff" stroke-width="2" stroke-linecap="round" stroke-linejoin="round" fill="none"/><path d="M 496 109 L 496 108 L 496 106 L 496 105 L 497 104 L 498 104" stroke="#ffffff" stroke-width="2" stroke-linecap="round" stroke-linejoin="round" fill="none"/><path d="M 497 113 L 496 114 L 496 113 L 499 110 L 501 107" stroke="#ffffff" stroke-width="2" stroke-linecap="round" stroke-linejoin="round" fill="none"/><path d="M 507 98 L 506 98 L 505 98 L 505 100 L 505 103" stroke="#ffffff" stroke-width="2" stroke-linecap="round" stroke-linejoin="round" fill="none"/><path d="M 512 95 L 511 93 L 513 98 L 513 104 L 512 112 L 510 118 L 508 120 L 506 121 L 505 121" stroke="#ffffff" stroke-width="2" stroke-linecap="round" stroke-linejoin="round" fill="none"/><path d="M 538 86 L 538 85 L 537 83 L 536 84 L 535 92 L 533 106 L 531 116 L 531 122 L 533 123" stroke="#ffffff" stroke-width="2" stroke-linecap="round" stroke-linejoin="round" fill="none"/><path d="M 545 101 L 545 100 L 544 98 L 543 98 L 542 98 L 541 99 L 538 102 L 534 106 L 532 110 L 531 113 L 534 114 L 539 112 L 544 109 L 549 106" stroke="#ffffff" stroke-width="2" stroke-linecap="round" stroke-linejoin="round" fill="none"/><path d="M 555 102 L 553 102 L 551 102 L 550 102 L 549 105 L 549 110 L 549 115 L 551 117 L 553 116 L 556 113 L 559 109 L 561 104 L 561 100 L 559 98 L 556 98 L 553 100 L 551 103 L 551 105" stroke="#ffffff" stroke-width="2" stroke-linecap="round" stroke-linejoin="round" fill="none"/><path d="M 565 97 L 564 96 L 564 94 L 568 93 L 576 90 L 584 88 L 587 87 L 588 87" stroke="#ffffff" stroke-width="2" stroke-linecap="round" stroke-linejoin="round" fill="none"/><path d="M 577 81 L 576 81 L 575 80 L 574 82 L 573 89 L 572 100 L 570 109 L 570 114 L 570 115" stroke="#ffffff" stroke-width="2" stroke-linecap="round" stroke-linejoin="round" fill="none"/><path d="M 588 102 L 586 101 L 584 100 L 583 100 L 583 99 L 582 100 L 580 104 L 578 108 L 577 111 L 579 112 L 582 111 L 585 108 L 586 105 L 587 102 L 587 100 L 586 99 L 586 102 L 586 107 L 585 111 L 585 113" stroke="#ffffff" stroke-width="2" stroke-linecap="round" stroke-linejoin="round" fill="none"/><path d="M 610 103 L 607 102 L 606 101 L 604 101 L 603 101 L 601 102 L 599 104 L 597 107 L 596 110 L 597 113 L 602 113 L 608 112" stroke="#ffffff" stroke-width="2" stroke-linecap="round" stroke-linejoin="round" fill="none"/><path d="M 620 94 L 617 96 L 615 100 L 614 105 L 614 108 L 615 109 L 616 108 L 617 106 L 618 104 L 619 103 L 620 103 L 621 104 L 622 105 L 624 107 L 627 107 L 628 107" stroke="#ffffff" stroke-width="2" stroke-linecap="round" stroke-linejoin="round" fill="none"/><path d="M 644 96 L 641 96 L 639 98 L 637 102 L 636 108 L 637 112 L 639 114 L 640 114" stroke="#ffffff" stroke-width="2" stroke-linecap="round" stroke-linejoin="round" fill="none"/><path d="M 650 100 L 649 98 L 649 96 L 650 95 L 654 95 L 658 95" stroke="#ffffff" stroke-width="2" stroke-linecap="round" stroke-linejoin="round" fill="none"/><path d="M 650 109 L 649 109 L 651 109 L 655 108 L 660 106" stroke="#ffffff" stroke-width="2" stroke-linecap="round" stroke-linejoin="round" fill="none"/><path d="M 32 178 L 31 178 L 30 176 L 30 175 L 32 178 L 34 181" stroke="#ffffff" stroke-width="2" stroke-linecap="round" stroke-linejoin="round" fill="none"/><path d="M 41 175 L 41 172 L 40 172 L 39 175 L 38 180 L 38 181" stroke="#ffffff" stroke-width="2" stroke-linecap="round" stroke-linejoin="round" fill="none"/><path d="M 30 189 L 29 189 L 29 187 L 32 184 L 38 181 L 42 179 L 43 179" stroke="#ffffff" stroke-width="2" stroke-linecap="round" stroke-linejoin="round" fill="none"/><path d="M 27 196 L 25 197 L 23 198 L 26 197 L 32 194 L 39 189 L 45 183 L 49 179 L 49 178" stroke="#ffffff" stroke-width="2" stroke-linecap="round" stroke-linejoin="round" fill="none"/><path d="M 39 172 L 38 172 L 37 171 L 36 179 L 34 191 L 31 204 L 29 211 L 29 214" stroke="#ffffff" stroke-width="2" stroke-linecap="round" stroke-linejoin="round" fill="none"/><path d="M 37 191 L 37 188 L 40 185 L 46 183 L 51 182 L 55 182" stroke="#ffffff" stroke-width="2" stroke-linecap="round" stroke-linejoin="round" fill="none"/><path d="M 39 198 L 38 198 L 37 197 L 38 195 L 43 191 L 48 188 L 51 186" stroke="#ffffff" stroke-width="2" stroke-linecap="round" stroke-linejoin="round" fill="none"/><path d="M 45 194 L 44 195 L 43 195 L 44 194 L 45 193 L 47 192 L 48 192 L 49 192 L 49 194 L 49 196 L 49 197" stroke="#ffffff" stroke-width="2" stroke-linecap="round" stroke-linejoin="round" fill="none"/><path d="M 42 201 L 41 201 L 40 201 L 39 201 L 39 203 L 40 205 L 41 206 L 43 206 L 46 204 L 49 201 L 51 197 L 53 195 L 53 194" stroke="#ffffff" stroke-width="2" stroke-linecap="round" stroke-linejoin="round" fill="none"/><path d="M 68 183 L 67 183 L 67 186 L 67 192 L 68 197 L 72 198 L 76 194" stroke="#ffffff" stroke-width="2" stroke-linecap="round" stroke-linejoin="round" fill="none"/><path d="M 80 181 L 80 179 L 80 177 L 81 177 L 82 180 L 82 184 L 82 188" stroke="#ffffff" stroke-width="2" stroke-linecap="round" stroke-linejoin="round" fill="none"/><path d="M 97 177 L 95 176 L 95 175 L 98 173 L 103 171 L 106 170 L 108 170 L 107 171 L 104 173 L 102 177 L 100 182 L 99 189 L 101 194 L 105 195 L 110 194" stroke="#ffffff" stroke-width="2" stroke-linecap="round" stroke-linejoin="round" fill="none"/><path d="M 124 177 L 123 176 L 122 174 L 124 172 L 129 170 L 133 168 L 134 168" stroke="#ffffff" stroke-width="2" stroke-linecap="round" stroke-linejoin="round" fill="none"/><path d="M 125 184 L 124 184 L 123 184 L 124 182 L 128 179 L 133 176 L 136 174" stroke="#ffffff" stroke-width="2" stroke-linecap="round" stroke-linejoin="round" fill="none"/><path d="M 132 161 L 132 160 L 130 160 L 130 163 L 130 171 L 130 182 L 130 191 L 132 193 L 135 192 L 139 189 L 141 186" stroke="#ffffff" stroke-width="2" stroke-linecap="round" stroke-linejoin="round" fill="none"/><path d="M 164 158 L 163 157 L 162 156 L 161 155 L 161 156 L 161 160 L 161 161" stroke="#ffffff" stroke-width="2" stroke-linecap="round" stroke-linejoin="round" fill="none"/><path d="M 158 165 L 158 166 L 156 167 L 154 170 L 153 175 L 153 178 L 154 179 L 156 179 L 158 177 L 162 175 L 165 174 L 168 175 L 168 179 L 165 183 L 160 187 L 157 190 L 155 190" stroke="#ffffff" stroke-width="2" stroke-linecap="round" stroke-linejoin="round" fill="none"/><path d="M 182 186 L 182 185 L 182 183 L 183 181 L 186 180 L 187 182 L 187 185 L 185 188 L 184 190" stroke="#ffffff" stroke-width="2" stroke-linecap="round" stroke-linejoin="round" fill="none"/><path d="M 205 173 L 204 173 L 203 171 L 204 168 L 209 164 L 215 160 L 219 158 L 220 158" stroke="#ffffff" stroke-width="2" stroke-linecap="round" stroke-linejoin="round" fill="none"/><path d="M 214 156 L 213 155 L 211 155 L 210 155 L 209 159 L 208 168 L 207 178 L 206 185 L 207 189" stroke="#ffffff" stroke-width="2" stroke-linecap="round" stroke-linejoin="round" fill="none"/><path d="M 215 179 L 215 176 L 215 173 L 218 171 L 220 170" stroke="#ffffff" stroke-width="2" stroke-linecap="round" stroke-linejoin="round" fill="none"/><path d="M 221 183 L 220 183 L 218 184 L 218 183 L 222 180 L 230 175 L 233 173" stroke="#ffffff" stroke-width="2" stroke-linecap="round" stroke-linejoin="round" fill="none"/><path d="M 218 173 L 219 173 L 218 173 L 218 172 L 219 172 L 219 171 L 220 170 L 221 170 L 223 169 L 224 168 L 225 168" stroke="#ffffff" stroke-width="2" stroke-linecap="round" stroke-linejoin="round" fill="none"/><path d="M 299 158 L 299 157 L 298 155 L 298 154 L 299 158 L 300 164 L 301 172 L 302 181 L 303 187 L 305 188 L 306 187 L 306 184 L 307 182 L 307 180 L 308 177 L 309 175 L 310 170 L 312 163 L 315 157 L 315 154 L 316 154" stroke="#ffffff" stroke-width="2" stroke-linecap="round" stroke-linejoin="round" fill="none"/><path d="M 330 171 L 330 172 L 333 170 L 336 167 L 340 165 L 342 165 L 343 167 L 343 171 L 341 175 L 338 178 L 336 180 L 334 181" stroke="#ffffff" stroke-width="2" stroke-linecap="round" stroke-linejoin="round" fill="none"/><path d="M 358 165 L 357 164 L 355 164 L 354 164 L 354 165 L 354 168 L 355 170 L 356 172 L 357 172" stroke="#ffffff" stroke-width="2" stroke-linecap="round" stroke-linejoin="round" fill="none"/><path d="M 362 165 L 361 164 L 360 163 L 361 161 L 364 159 L 370 156 L 376 154 L 379 152 L 380 152" stroke="#ffffff" stroke-width="2" stroke-linecap="round" stroke-linejoin="round" fill="none"/><path d="M 368 147 L 369 147 L 370 150 L 370 159 L 369 170 L 368 179 L 367 184 L 367 185" stroke="#ffffff" stroke-width="2" stroke-linecap="round" stroke-linejoin="round" fill="none"/><path d="M 387 164 L 387 163 L 385 162 L 385 161 L 387 160 L 391 158 L 396 157 L 400 157 L 399 158 L 396 159 L 394 161 L 392 164 L 390 169 L 389 174 L 390 178 L 393 179 L 399 177 L 401 177" stroke="#ffffff" stroke-width="2" stroke-linecap="round" stroke-linejoin="round" fill="none"/><path d="M 424 156 L 423 156 L 422 155 L 421 155 L 420 159 L 420 166 L 420 173 L 420 176 L 422 177" stroke="#ffffff" stroke-width="2" stroke-linecap="round" stroke-linejoin="round" fill="none"/><path d="M 433 158 L 433 157 L 432 159 L 431 164 L 432 169 L 434 172 L 437 172 L 439 168 L 441 164 L 442 159 L 443 155 L 443 153 L 441 151 L 438 152 L 435 155 L 432 159 L 431 163" stroke="#ffffff" stroke-width="2" stroke-linecap="round" stroke-linejoin="round" fill="none"/><path d="M 459 147 L 458 146 L 456 147 L 453 151 L 451 157 L 450 162 L 451 163" stroke="#ffffff" stroke-width="2" stroke-linecap="round" stroke-linejoin="round" fill="none"/><path d="M 461 148 L 462 147 L 463 146 L 466 144 L 471 143 L 475 143 L 478 143" stroke="#ffffff" stroke-width="2" stroke-linecap="round" stroke-linejoin="round" fill="none"/><path d="M 457 163 L 457 162 L 457 161 L 459 160 L 463 158 L 469 156 L 472 156 L 473 156 L 474 157 L 474 159 L 473 163 L 473 166 L 472 169 L 471 169 L 469 169 L 468 168 L 466 166 L 466 164 L 465 161 L 466 159 L 466 157 L 467 157 L 467 159 L 465 163 L 463 169 L 460 174 L 458 178 L 457 179" stroke="#ffffff" stroke-width="2" stroke-linecap="round" stroke-linejoin="round" fill="none"/><path d="M 498 144 L 499 144 L 499 143 L 498 143 L 497 144 L 494 148 L 490 154 L 488 158 L 488 161" stroke="#ffffff" stroke-width="2" stroke-linecap="round" stroke-linejoin="round" fill="none"/><path d="M 504 147 L 504 146 L 503 145 L 501 147 L 498 151 L 496 156 L 494 160 L 493 163" stroke="#ffffff" stroke-width="2" stroke-linecap="round" stroke-linejoin="round" fill="none"/><path d="M 497 156 L 498 156 L 497 160 L 496 167 L 496 173 L 496 176" stroke="#ffffff" stroke-width="2" stroke-linecap="round" stroke-linejoin="round" fill="none"/><path d="M 514 142 L 513 141 L 512 140 L 511 141 L 509 146 L 508 152 L 506 155 L 506 156 L 507 155 L 509 152 L 511 150 L 512 149 L 511 152 L 509 155 L 507 159 L 507 160 L 509 158 L 513 154 L 516 151 L 519 150 L 520 149" stroke="#ffffff" stroke-width="2" stroke-linecap="round" stroke-linejoin="round" fill="none"/><path d="M 517 154 L 515 154 L 513 154 L 512 156 L 510 160 L 509 165 L 509 168 L 508 169" stroke="#ffffff" stroke-width="2" stroke-linecap="round" stroke-linejoin="round" fill="none"/><path d="M 509 162 L 510 159 L 512 157 L 514 156 L 515 159 L 514 164 L 513 170 L 511 175 L 509 178 L 508 179" stroke="#ffffff" stroke-width="2" stroke-linecap="round" stroke-linejoin="round" fill="none"/><path d="M 510 160 L 511 160 L 514 163 L 520 166 L 527 168" stroke="#ffffff" stroke-width="2" stroke-linecap="round" stroke-linejoin="round" fill="none"/><path d="M 541 156 L 542 156 L 542 154 L 544 153 L 548 152 L 554 151 L 556 151" stroke="#ffffff" stroke-width="2" stroke-linecap="round" stroke-linejoin="round" fill="none"/><path d="M 541 163 L 540 164 L 542 164 L 545 162 L 550 160 L 555 158 L 558 157" stroke="#ffffff" stroke-width="2" stroke-linecap="round" stroke-linejoin="round" fill="none"/><path d="M 549 144 L 548 144 L 547 147 L 547 154 L 546 164 L 546 172 L 548 175 L 552 174 L 558 171 L 561 168" stroke="#ffffff" stroke-width="2" stroke-linecap="round" stroke-linejoin="round" fill="none"/><path d="M 569 151 L 568 149 L 568 147 L 570 146 L 573 145 L 575 145" stroke="#ffffff" stroke-width="2" stroke-linecap="round" stroke-linejoin="round" fill="none"/><path d="M 568 161 L 567 160 L 567 159 L 568 157 L 573 156 L 576 156 L 578 160 L 576 164 L 573 168 L 569 171 L 567 172" stroke="#ffffff" stroke-width="2" stroke-linecap="round" stroke-linejoin="round" fill="none"/><path d="M 592 161 L 591 160 L 590 159 L 589 158 L 591 157 L 597 155 L 604 153 L 609 152 L 611 152" stroke="#ffffff" stroke-width="2" stroke-linecap="round" stroke-linejoin="round" fill="none"/><path d="M 619 147 L 618 147 L 617 146 L 616 145 L 615 145 L 615 148 L 614 154 L 613 162 L 614 167 L 614 168" stroke="#ffffff" stroke-width="2" stroke-linecap="round" stroke-linejoin="round" fill="none"/><path d="M 616 152 L 615 151 L 613 149 L 613 147 L 616 145 L 622 143 L 629 142 L 634 142 L 637 144 L 638 148 L 638 154 L 637 159 L 636 164 L 634 168" stroke="#ffffff" stroke-width="2" stroke-linecap="round" stroke-linejoin="round" fill="none"/><path d="M 625 153 L 624 153 L 623 153 L 622 155 L 622 158 L 623 160" stroke="#ffffff" stroke-width="2" stroke-linecap="round" stroke-linejoin="round" fill="none"/><path d="M 624 157 L 624 156 L 624 155 L 625 155 L 626 155 L 627 155 L 628 156 L 628 158 L 626 159 L 624 159 L 623 160 L 622 160 L 622 159 L 624 159 L 626 159 L 628 158" stroke="#ffffff" stroke-width="2" stroke-linecap="round" stroke-linejoin="round" fill="none"/><path d="M 614 170 L 613 170 L 611 170 L 615 170 L 624 169 L 634 168 L 638 168" stroke="#ffffff" stroke-width="2" stroke-linecap="round" stroke-linejoin="round" fill="none"/><path d="M 20 254 L 19 254 L 19 252 L 21 249 L 25 247 L 31 246 L 34 249 L 34 253 L 32 258 L 29 261 L 26 264 L 25 265" stroke="#ffffff" stroke-width="2" stroke-linecap="round" stroke-linejoin="round" fill="none"/><path d="M 47 246 L 46 245 L 45 244 L 45 246 L 45 250 L 47 254 L 49 255" stroke="#ffffff" stroke-width="2" stroke-linecap="round" stroke-linejoin="round" fill="none"/><path d="M 54 242 L 54 241 L 54 239 L 57 237 L 63 233 L 70 230 L 73 229 L 74 229" stroke="#ffffff" stroke-width="2" stroke-linecap="round" stroke-linejoin="round" fill="none"/><path d="M 62 225 L 61 223 L 62 227 L 63 237 L 64 249 L 63 261 L 62 268 L 62 270" stroke="#ffffff" stroke-width="2" stroke-linecap="round" stroke-linejoin="round" fill="none"/><path d="M 80 244 L 77 244 L 78 242 L 82 239 L 88 236 L 94 234 L 97 234 L 95 234 L 93 236 L 90 241 L 87 247 L 85 255 L 85 259 L 88 260 L 93 260 L 97 258" stroke="#ffffff" stroke-width="2" stroke-linecap="round" stroke-linejoin="round" fill="none"/><path d="M 125 229 L 124 228 L 122 227 L 121 229 L 120 236 L 120 246 L 120 253 L 122 256" stroke="#ffffff" stroke-width="2" stroke-linecap="round" stroke-linejoin="round" fill="none"/><path d="M 133 231 L 132 231 L 131 231 L 131 232 L 131 236 L 132 239 L 134 242 L 137 242 L 141 239 L 144 238 L 146 238 L 147 240 L 146 244 L 144 247 L 141 249 L 138 251 L 137 251" stroke="#ffffff" stroke-width="2" stroke-linecap="round" stroke-linejoin="round" fill="none"/><path d="M 133 233 L 131 232 L 132 231 L 136 229 L 144 226 L 149 223" stroke="#ffffff" stroke-width="2" stroke-linecap="round" stroke-linejoin="round" fill="none"/><path d="M 163 220 L 161 219 L 160 218 L 160 219 L 159 223 L 158 230 L 157 235 L 157 237" stroke="#ffffff" stroke-width="2" stroke-linecap="round" stroke-linejoin="round" fill="none"/><path d="M 170 220 L 169 218 L 170 216 L 173 214 L 178 214 L 184 214" stroke="#ffffff" stroke-width="2" stroke-linecap="round" stroke-linejoin="round" fill="none"/><path d="M 168 236 L 166 236 L 165 236 L 166 235 L 170 232 L 175 229 L 179 227 L 182 227 L 183 227 L 184 229 L 184 232 L 184 235 L 183 237 L 181 238 L 180 238 L 178 237 L 176 236 L 175 233 L 175 231 L 174 229 L 174 228 L 175 228 L 175 229 L 175 233 L 173 239 L 171 246 L 169 251" stroke="#ffffff" stroke-width="2" stroke-linecap="round" stroke-linejoin="round" fill="none"/><path d="M 224 217 L 223 217 L 226 215 L 231 212 L 236 210 L 239 208 L 241 207 L 242 207" stroke="#ffffff" stroke-width="2" stroke-linecap="round" stroke-linejoin="round" fill="none"/><path d="M 231 216 L 230 216 L 228 216 L 227 216 L 228 219 L 229 223 L 231 226 L 231 228" stroke="#ffffff" stroke-width="2" stroke-linecap="round" stroke-linejoin="round" fill="none"/><path d="M 232 221 L 231 219 L 232 218 L 234 216 L 237 216" stroke="#ffffff" stroke-width="2" stroke-linecap="round" stroke-linejoin="round" fill="none"/><path d="M 232 224 L 231 224 L 230 224 L 230 223 L 231 221 L 234 220" stroke="#ffffff" stroke-width="2" stroke-linecap="round" stroke-linejoin="round" fill="none"/><path d="M 224 237 L 223 237 L 221 237 L 222 237 L 226 233 L 233 227 L 241 219" stroke="#ffffff" stroke-width="2" stroke-linecap="round" stroke-linejoin="round" fill="none"/><path d="M 249 202 L 249 200 L 249 199 L 249 198 L 249 200 L 247 205 L 245 210 L 243 216 L 243 218" stroke="#ffffff" stroke-width="2" stroke-linecap="round" stroke-linejoin="round" fill="none"/><path d="M 251 204 L 251 202 L 251 205 L 249 208" stroke="#ffffff" stroke-width="2" stroke-linecap="round" stroke-linejoin="round" fill="none"/><path d="M 245 213 L 244 213 L 243 213 L 242 215 L 241 218 L 241 219" stroke="#ffffff" stroke-width="2" stroke-linecap="round" stroke-linejoin="round" fill="none"/><path d="M 234 234 L 233 233 L 233 231 L 235 227 L 237 225 L 240 223 L 242 223 L 243 225 L 242 229 L 240 234 L 238 238 L 236 241 L 234 243" stroke="#ffffff" stroke-width="2" stroke-linecap="round" stroke-linejoin="round" fill="none"/><path d="M 233 232 L 233 231 L 235 231 L 240 234 L 245 237 L 251 239" stroke="#ffffff" stroke-width="2" stroke-linecap="round" stroke-linejoin="round" fill="none"/><path d="M 265 215 L 263 214 L 263 213 L 265 211 L 269 209 L 272 208 L 274 208 L 275 208 L 274 209 L 273 211" stroke="#ffffff" stroke-width="2" stroke-linecap="round" stroke-linejoin="round" fill="none"/><path d="M 268 220 L 267 220 L 266 220 L 266 218 L 268 216 L 271 213 L 273 212 L 274 212 L 275 213 L 273 214 L 270 216 L 268 219 L 266 223 L 265 226 L 266 228 L 268 228 L 271 226 L 273 223 L 274 221 L 275 221 L 275 223 L 273 229 L 270 236 L 267 241 L 267 244" stroke="#ffffff" stroke-width="2" stroke-linecap="round" stroke-linejoin="round" fill="none"/><path d="M 290 205 L 290 204 L 288 203 L 286 204 L 285 208 L 284 212 L 285 214 L 287 214 L 290 212 L 293 210 L 295 207 L 298 206 L 301 205 L 303 205 L 303 207" stroke="#ffffff" stroke-width="2" stroke-linecap="round" stroke-linejoin="round" fill="none"/><path d="M 286 216 L 285 217 L 284 217 L 283 219 L 284 222 L 286 226" stroke="#ffffff" stroke-width="2" stroke-linecap="round" stroke-linejoin="round" fill="none"/><path d="M 287 222 L 287 220 L 287 218 L 289 215 L 293 213 L 296 214 L 297 216 L 296 218 L 295 220 L 295 221" stroke="#ffffff" stroke-width="2" stroke-linecap="round" stroke-linejoin="round" fill="none"/><path d="M 286 227 L 285 227 L 285 226 L 285 225 L 290 222 L 294 219" stroke="#ffffff" stroke-width="2" stroke-linecap="round" stroke-linejoin="round" fill="none"/><path d="M 293 213 L 292 213 L 291 213 L 289 213 L 289 215 L 288 220 L 288 228 L 287 235 L 287 238" stroke="#ffffff" stroke-width="2" stroke-linecap="round" stroke-linejoin="round" fill="none"/><path d="M 283 239 L 283 238 L 283 236 L 287 234 L 292 230 L 296 227 L 299 224 L 299 222 L 298 224 L 298 228 L 298 232 L 299 236 L 300 238" stroke="#ffffff" stroke-width="2" stroke-linecap="round" stroke-linejoin="round" fill="none"/><path d="M 319 220 L 317 220 L 316 220 L 316 224 L 317 229 L 320 231 L 322 231" stroke="#ffffff" stroke-width="2" stroke-linecap="round" stroke-linejoin="round" fill="none"/><path d="M 331 219 L 331 217 L 332 216 L 332 217 L 332 221 L 332 226" stroke="#ffffff" stroke-width="2" stroke-linecap="round" stroke-linejoin="round" fill="none"/><path d="M 375 213 L 373 210 L 372 209 L 372 211 L 372 217 L 372 224 L 374 229 L 376 232" stroke="#ffffff" stroke-width="2" stroke-linecap="round" stroke-linejoin="round" fill="none"/><path d="M 374 217 L 372 215 L 371 214 L 372 213 L 376 212 L 379 211 L 382 211 L 383 211 L 383 213 L 384 215 L 384 218 L 384 221 L 384 223 L 384 224" stroke="#ffffff" stroke-width="2" stroke-linecap="round" stroke-linejoin="round" fill="none"/><path d="M 375 229 L 374 229 L 371 229 L 374 228 L 378 226 L 381 226 L 382 225" stroke="#ffffff" stroke-width="2" stroke-linecap="round" stroke-linejoin="round" fill="none"/><path d="M 396 218 L 395 218 L 393 218 L 394 219 L 395 220" stroke="#ffffff" stroke-width="2" stroke-linecap="round" stroke-linejoin="round" fill="none"/><path d="M 400 217 L 399 217 L 397 216 L 396 216 L 397 218 L 398 220" stroke="#ffffff" stroke-width="2" stroke-linecap="round" stroke-linejoin="round" fill="none"/><path d="M 403 216 L 402 216 L 402 217 L 401 221 L 400 226 L 398 231 L 397 233" stroke="#ffffff" stroke-width="2" stroke-linecap="round" stroke-linejoin="round" fill="none"/><path d="M 419 202 L 418 201 L 416 201 L 415 203 L 415 210 L 415 220 L 416 229 L 417 234 L 417 235" stroke="#ffffff" stroke-width="2" stroke-linecap="round" stroke-linejoin="round" fill="none"/><path d="M 415 221 L 415 220 L 413 219 L 414 219 L 419 219 L 425 219 L 428 219" stroke="#ffffff" stroke-width="2" stroke-linecap="round" stroke-linejoin="round" fill="none"/><path d="M 426 202 L 423 202 L 421 202 L 422 206 L 423 208" stroke="#ffffff" stroke-width="2" stroke-linecap="round" stroke-linejoin="round" fill="none"/><path d="M 432 199 L 431 197 L 430 198 L 430 203 L 430 206" stroke="#ffffff" stroke-width="2" stroke-linecap="round" stroke-linejoin="round" fill="none"/><path d="M 438 214 L 436 213 L 440 212 L 444 212 L 448 212 L 450 212" stroke="#ffffff" stroke-width="2" stroke-linecap="round" stroke-linejoin="round" fill="none"/><path d="M 437 223 L 434 223 L 437 223 L 442 221 L 446 221 L 449 220" stroke="#ffffff" stroke-width="2" stroke-linecap="round" stroke-linejoin="round" fill="none"/><path d="M 447 204 L 446 202 L 445 201 L 445 204 L 445 211 L 445 220 L 444 231 L 445 236 L 449 238 L 454 235 L 459 230" stroke="#ffffff" stroke-width="2" stroke-linecap="round" stroke-linejoin="round" fill="none"/><path d="M 468 214 L 468 212 L 469 211 L 472 209 L 477 208 L 485 205 L 491 203 L 493 202" stroke="#ffffff" stroke-width="2" stroke-linecap="round" stroke-linejoin="round" fill="none"/><path d="M 481 206 L 480 205 L 479 205 L 479 207 L 479 212 L 479 219 L 479 226 L 478 231 L 478 233" stroke="#ffffff" stroke-width="2" stroke-linecap="round" stroke-linejoin="round" fill="none"/><path d="M 485 214 L 484 214 L 486 215 L 489 217 L 491 218" stroke="#ffffff" stroke-width="2" stroke-linecap="round" stroke-linejoin="round" fill="none"/><path d="M 508 210 L 507 210 L 506 210 L 505 210 L 505 212 L 506 215 L 507 218 L 508 220 L 510 220" stroke="#ffffff" stroke-width="2" stroke-linecap="round" stroke-linejoin="round" fill="none"/><path d="M 514 210 L 513 210 L 512 209 L 512 208 L 514 207 L 519 205 L 523 203 L 526 202 L 529 201" stroke="#ffffff" stroke-width="2" stroke-linecap="round" stroke-linejoin="round" fill="none"/><path d="M 521 195 L 521 194 L 521 198 L 523 206 L 523 216 L 522 224 L 521 230 L 520 232" stroke="#ffffff" stroke-width="2" stroke-linecap="round" stroke-linejoin="round" fill="none"/><path d="M 529 186 L 528 187 L 528 189 L 528 193 L 528 195" stroke="#ffffff" stroke-width="2" stroke-linecap="round" stroke-linejoin="round" fill="none"/><path d="M 534 187 L 533 187 L 532 190 L 532 193" stroke="#ffffff" stroke-width="2" stroke-linecap="round" stroke-linejoin="round" fill="none"/><path d="M 538 211 L 538 210 L 538 209 L 538 208 L 541 207 L 545 206 L 550 206 L 553 206 L 551 207 L 548 208 L 546 210 L 544 213 L 543 217 L 542 221 L 544 225 L 547 227 L 553 226 L 555 225" stroke="#ffffff" stroke-width="2" stroke-linecap="round" stroke-linejoin="round" fill="none"/><path d="M 574 212 L 573 212 L 572 211 L 573 210 L 576 208 L 581 207 L 586 205 L 590 204 L 593 204 L 594 204" stroke="#ffffff" stroke-width="2" stroke-linecap="round" stroke-linejoin="round" fill="none"/><path d="M 585 199 L 585 198 L 584 198 L 584 200 L 584 205 L 584 212 L 584 220 L 585 225 L 585 228 L 586 228" stroke="#ffffff" stroke-width="2" stroke-linecap="round" stroke-linejoin="round" fill="none"/><path d="M 586 212 L 585 210 L 585 209 L 584 210 L 583 213 L 581 218 L 579 222 L 576 226 L 575 227" stroke="#ffffff" stroke-width="2" stroke-linecap="round" stroke-linejoin="round" fill="none"/><path d="M 600 205 L 600 204 L 599 203 L 598 204 L 597 209 L 596 216 L 596 222 L 597 225 L 598 225 L 600 224 L 603 221 L 607 217 L 611 213 L 613 211" stroke="#ffffff" stroke-width="2" stroke-linecap="round" stroke-linejoin="round" fill="none"/><path d="M 620 207 L 619 206 L 619 205 L 622 204 L 625 204 L 627 204" stroke="#ffffff" stroke-width="2" stroke-linecap="round" stroke-linejoin="round" fill="none"/><path d="M 622 220 L 621 220 L 619 220 L 620 219 L 623 217 L 628 213 L 634 210 L 640 205 L 644 201" stroke="#ffffff" stroke-width="2" stroke-linecap="round" stroke-linejoin="round" fill="none"/><path d="M 653 202 L 652 200 L 652 199 L 652 198 L 654 198 L 657 198 L 658 198" stroke="#ffffff" stroke-width="2" stroke-linecap="round" stroke-linejoin="round" fill="none"/><path d="M 649 211 L 649 210 L 649 208 L 652 206 L 657 204 L 659 203" stroke="#ffffff" stroke-width="2" stroke-linecap="round" stroke-linejoin="round" fill="none"/><path d="M 649 221 L 648 221 L 651 219 L 658 215 L 666 210 L 669 208" stroke="#ffffff" stroke-width="2" stroke-linecap="round" stroke-linejoin="round" fill="none"/><path d="M 673 184 L 673 185 L 672 187 L 670 191 L 670 194" stroke="#ffffff" stroke-width="2" stroke-linecap="round" stroke-linejoin="round" fill="none"/><path d="M 678 186 L 677 188 L 676 191 L 676 193" stroke="#ffffff" stroke-width="2" stroke-linecap="round" stroke-linejoin="round" fill="none"/><path d="M 12 306 L 11 306 L 10 305 L 14 302 L 19 297 L 24 293 L 27 292 L 28 291" stroke="#ffffff" stroke-width="2" stroke-linecap="round" stroke-linejoin="round" fill="none"/><path d="M 21 290 L 20 290 L 19 289 L 19 290 L 20 297 L 21 307 L 23 316 L 24 322 L 24 323" stroke="#ffffff" stroke-width="2" stroke-linecap="round" stroke-linejoin="round" fill="none"/><path d="M 28 302 L 28 301 L 28 302 L 27 308 L 26 316 L 24 324 L 22 329 L 20 330 L 18 330 L 16 327 L 16 322 L 18 317 L 21 312 L 26 308 L 32 307 L 35 309 L 36 315 L 35 321 L 33 326 L 32 327" stroke="#ffffff" stroke-width="2" stroke-linecap="round" stroke-linejoin="round" fill="none"/><path d="M 49 306 L 49 305 L 48 302 L 50 299 L 56 294 L 62 291 L 65 289" stroke="#ffffff" stroke-width="2" stroke-linecap="round" stroke-linejoin="round" fill="none"/><path d="M 58 284 L 56 284 L 55 287 L 54 295 L 54 304 L 55 311 L 55 315 L 55 318" stroke="#ffffff" stroke-width="2" stroke-linecap="round" stroke-linejoin="round" fill="none"/><path d="M 61 307 L 61 305 L 60 302 L 62 299 L 66 298 L 69 297" stroke="#ffffff" stroke-width="2" stroke-linecap="round" stroke-linejoin="round" fill="none"/><path d="M 65 313 L 64 313 L 65 310 L 67 307" stroke="#ffffff" stroke-width="2" stroke-linecap="round" stroke-linejoin="round" fill="none"/><path d="M 90 286 L 89 285 L 88 284 L 88 286 L 89 290 L 90 295 L 91 296" stroke="#ffffff" stroke-width="2" stroke-linecap="round" stroke-linejoin="round" fill="none"/><path d="M 99 281 L 99 282 L 99 286 L 99 296 L 96 306 L 93 315 L 91 320" stroke="#ffffff" stroke-width="2" stroke-linecap="round" stroke-linejoin="round" fill="none"/><path d="M 114 291 L 113 290 L 113 288 L 117 286 L 122 285 L 126 284 L 128 284 L 126 285 L 124 286 L 122 289 L 120 292 L 119 295 L 119 299 L 122 302 L 125 304 L 130 304 L 133 303" stroke="#ffffff" stroke-width="2" stroke-linecap="round" stroke-linejoin="round" fill="none"/><path d="M 128 269 L 127 270 L 125 272 L 125 276 L 126 277" stroke="#ffffff" stroke-width="2" stroke-linecap="round" stroke-linejoin="round" fill="none"/><path d="M 134 265 L 134 263 L 134 268 L 134 270" stroke="#ffffff" stroke-width="2" stroke-linecap="round" stroke-linejoin="round" fill="none"/><path d="M 151 294 L 150 294 L 148 293 L 147 294 L 148 297 L 150 299 L 153 301 L 156 300 L 157 298 L 158 295 L 158 292 L 155 291 L 153 291 L 150 294 L 150 296" stroke="#ffffff" stroke-width="2" stroke-linecap="round" stroke-linejoin="round" fill="none"/><path d="M 65 313 L 64 313 L 66 311 L 69 309 L 72 308 L 74 306" stroke="#ffffff" stroke-width="2" stroke-linecap="round" stroke-linejoin="round" fill="none"/><path d="M 324 30 L 325 30 L 324 30 L 323 33 L 320 41 L 317 50 L 315 57 L 315 60 L 315 61" stroke="#ffffff" stroke-width="2" stroke-linecap="round" stroke-linejoin="round" fill="none"/><path d="M 342 29 L 343 28 L 342 30 L 341 34 L 339 39 L 337 44 L 337 47" stroke="#ffffff" stroke-width="2" stroke-linecap="round" stroke-linejoin="round" fill="none"/><path d="M 339 36 L 340 35 L 340 33 L 340 31 L 341 29 L 344 28 L 347 28 L 350 29 L 351 33 L 350 40 L 348 47 L 346 53 L 344 57 L 343 59" stroke="#ffffff" stroke-width="2" stroke-linecap="round" stroke-linejoin="round" fill="none"/><path d="M 370 34 L 369 34 L 368 34 L 367 34 L 366 37 L 364 44 L 364 51 L 366 55 L 369 55 L 372 53 L 375 49 L 376 44 L 376 40 L 375 36 L 373 34 L 371 33 L 368 34 L 365 36 L 364 39 L 364 40" stroke="#ffffff" stroke-width="2" stroke-linecap="round" stroke-linejoin="round" fill="none"/><path d="M 399 40 L 398 40 L 397 39 L 396 40 L 394 42 L 392 45 L 390 47 L 388 49 L 387 50 L 387 51 L 389 51 L 393 52 L 398 53 L 402 54 L 408 56 L 410 56 L 408 56 L 407 55 L 405 54 L 403 52 L 401 48 L 399 44 L 398 41 L 397 40 L 398 40" stroke="#ffffff" stroke-width="2" stroke-linecap="round" stroke-linejoin="round" fill="none"/><path d="M 423 40 L 422 39 L 421 38 L 420 38 L 419 40 L 418 45 L 418 50 L 418 53 L 419 54" stroke="#ffffff" stroke-width="2" stroke-linecap="round" stroke-linejoin="round" fill="none"/><path d="M 429 41 L 429 40 L 427 40 L 426 41 L 426 45 L 428 50 L 431 52 L 434 52 L 436 50 L 438 46 L 439 42 L 437 36 L 435 35 L 432 36 L 429 38 L 428 41 L 428 44" stroke="#ffffff" stroke-width="2" stroke-linecap="round" stroke-linejoin="round" fill="none"/><path d="M 444 34 L 443 34 L 441 32 L 441 31 L 441 32 L 441 34 L 442 36" stroke="#ffffff" stroke-width="2" stroke-linecap="round" stroke-linejoin="round" fill="none"/><path d="M 457 25 L 458 25 L 458 24 L 456 25 L 452 33 L 448 45 L 445 52 L 443 61 L 443 64" stroke="#ffffff" stroke-width="2" stroke-linecap="round" stroke-linejoin="round" fill="none"/><path d="M 459 48 L 459 49 L 459 51 L 459 53" stroke="#ffffff" stroke-width="2" stroke-linecap="round" stroke-linejoin="round" fill="none"/><path d="M 516 28 L 515 27 L 515 26 L 519 23 L 526 19 L 531 17 L 534 16" stroke="#ffffff" stroke-width="2" stroke-linecap="round" stroke-linejoin="round" fill="none"/><path d="M 529 14 L 526 14 L 525 14 L 525 18 L 526 26 L 527 33 L 528 38 L 528 41" stroke="#ffffff" stroke-width="2" stroke-linecap="round" stroke-linejoin="round" fill="none"/><path d="M 524 29 L 523 29 L 521 29 L 519 34 L 517 40 L 516 46 L 517 47" stroke="#ffffff" stroke-width="2" stroke-linecap="round" stroke-linejoin="round" fill="none"/><path d="M 535 27 L 535 26 L 536 26 L 537 29 L 539 33 L 540 34" stroke="#ffffff" stroke-width="2" stroke-linecap="round" stroke-linejoin="round" fill="none"/><path d="M 548 14 L 547 14 L 544 14 L 544 17 L 545 20 L 548 22 L 550 22 L 552 19 L 553 15 L 553 12 L 552 10 L 550 9 L 548 9 L 546 12 L 544 16 L 544 19" stroke="#ffffff" stroke-width="2" stroke-linecap="round" stroke-linejoin="round" fill="none"/><path d="M 558 22 L 556 21 L 554 20 L 555 19 L 558 19 L 561 19" stroke="#ffffff" stroke-width="2" stroke-linecap="round" stroke-linejoin="round" fill="none"/><path d="M 557 34 L 556 34 L 555 34 L 555 33 L 558 30 L 564 25 L 571 19 L 573 17" stroke="#ffffff" stroke-width="2" stroke-linecap="round" stroke-linejoin="round" fill="none"/><path d="M 577 25 L 576 25 L 576 24 L 577 21 L 580 19 L 583 17 L 585 17 L 586 18 L 586 22 L 585 27 L 583 32 L 580 36 L 579 37" stroke="#ffffff" stroke-width="2" stroke-linecap="round" stroke-linejoin="round" fill="none"/><path d="M 589 16 L 587 15 L 586 13 L 586 11 L 588 9 L 591 9 L 593 9 L 593 11 L 591 14 L 589 16 L 587 17" stroke="#ffffff" stroke-width="2" stroke-linecap="round" stroke-linejoin="round" fill="none"/><path d="M 599 20 L 599 19 L 599 17 L 599 20 L 599 23 L 598 26 L 597 27 L 596 28 L 595 28 L 595 25 L 595 22 L 597 19 L 599 17 L 602 17 L 605 18 L 607 22 L 606 26 L 605 30 L 604 31" stroke="#ffffff" stroke-width="2" stroke-linecap="round" stroke-linejoin="round" fill="none"/><path d="M 627 15 L 627 14 L 626 13 L 625 13 L 624 16 L 623 22 L 622 29 L 622 36 L 622 40 L 623 41" stroke="#ffffff" stroke-width="2" stroke-linecap="round" stroke-linejoin="round" fill="none"/><path d="M 625 21 L 625 18 L 625 16 L 625 14 L 626 13 L 628 13 L 631 15 L 634 18 L 635 21 L 635 24 L 633 27 L 629 28 L 626 28 L 623 27 L 623 25" stroke="#ffffff" stroke-width="2" stroke-linecap="round" stroke-linejoin="round" fill="none"/><path d="M 645 21 L 646 20 L 647 19 L 650 18 L 655 17 L 659 16 L 663 16 L 665 16" stroke="#ffffff" stroke-width="2" stroke-linecap="round" stroke-linejoin="round" fill="none"/><path d="M 658 17 L 658 16 L 657 15 L 657 16 L 656 21 L 654 28 L 654 34 L 654 37 L 655 38" stroke="#ffffff" stroke-width="2" stroke-linecap="round" stroke-linejoin="round" fill="none"/><path d="M 670 14 L 669 15 L 668 19 L 666 26 L 666 32 L 666 34" stroke="#ffffff" stroke-width="2" stroke-linecap="round" stroke-linejoin="round" fill="none"/><path d="M 668 18 L 667 18 L 666 16 L 666 15 L 669 13 L 672 13 L 675 13 L 678 14 L 678 17 L 678 20 L 677 23 L 675 25 L 672 25 L 670 26 L 669 25 L 668 24 L 667 23 L 668 24 L 670 26 L 674 27 L 678 29 L 683 31 L 687 32" stroke="#ffffff" stroke-width="2" stroke-linecap="round" stroke-linejoin="round" fill="none"/><path d="M 610 54 L 610 53 L 610 51 L 610 50 L 609 49 L 607 49 L 605 49 L 603 49 L 601 49 L 599 51 L 599 53 L 600 55 L 603 58 L 606 61 L 608 63 L 610 65 L 607 65 L 604 65 L 599 63 L 596 62 L 593 61" stroke="#ffffff" stroke-width="2" stroke-linecap="round" stroke-linejoin="round" fill="none"/><path d="M 607 45 L 607 44 L 607 43 L 607 42 L 607 43 L 606 47 L 605 55 L 603 65 L 601 74 L 601 78" stroke="#ffffff" stroke-width="2" stroke-linecap="round" stroke-linejoin="round" fill="none"/><path d="M 626 52 L 626 51 L 626 50 L 628 51 L 631 52 L 633 55 L 633 59 L 632 63 L 628 65 L 624 65 L 622 65 L 620 65 L 620 64 L 621 64 L 623 65 L 627 65 L 631 65 L 636 65 L 640 66" stroke="#ffffff" stroke-width="2" stroke-linecap="round" stroke-linejoin="round" fill="none"/><path d="M 659 59 L 658 57 L 657 56 L 657 54 L 658 52 L 659 50 L 660 49 L 660 48 L 660 47 L 658 47 L 656 47 L 653 48 L 649 52 L 647 56 L 647 60 L 650 61 L 655 61 L 658 58 L 660 56 L 661 53 L 661 52 L 660 51 L 659 51 L 658 51 L 658 52 L 657 55 L 656 60 L 654 68 L 652 75 L 652 79 L 652 80" stroke="#ffffff" stroke-width="2" stroke-linecap="round" stroke-linejoin="round" fill="none"/><path d="M 571 73 L 570 73 L 568 72 L 566 71 L 561 71 L 555 71 L 550 72 L 545 72 L 541 72 L 536 72 L 531 72 L 528 71 L 525 70 L 522 68 L 518 66 L 515 64 L 512 63 L 509 61 L 506 58 L 503 56 L 501 54 L 499 52 L 498 50 L 496 48 L 494 46 L 493 43 L 493 41 L 493 38 L 493 36 L 494 34 L 495 32 L 496 30 L 497 29 L 498 27 L 500 26 L 501 24 L 504 22 L 506 20 L 508 19 L 510 17 L 513 16 L 516 14 L 519 12 L 522 11 L 526 10 L 530 9 L 534 8 L 538 7 L 542 7 L 547 7 L 553 7 L 558 5 L 562 5 L 566 5 L 570 5 L 576 4 L 582 3 L 587 2 L 592 2 L 597 2 L 601 2 L 606 2 L 611 2 L 616 1 L 620 0 L 624 -1 L 628 -1 L 631 -1 L 636 -1 L 640 -1 L 644 -1 L 648 -1 L 652 -1 L 655 -1 L 659 0 L 663 0 L 666 0 L 668 1 L 671 1 L 675 1 L 680 1 L 682 1 L 684 2 L 684 3 L 685 4 L 687 7 L 690 10 L 693 13 L 695 16 L 696 19 L 697 23 L 699 27 L 701 32 L 703 36 L 704 39 L 704 43 L 703 47 L 702 51 L 701 56 L 699 61 L 697 66 L 694 70 L 692 73 L 690 75 L 688 78 L 686 80 L 684 83 L 682 85 L 680 86 L 679 88 L 677 89 L 675 90 L 673 90 L 671 90 L 668 90 L 664 89 L 660 89 L 656 89 L 651 88 L 647 88 L 644 87 L 641 87 L 637 87 L 633 87 L 630 87 L 626 87 L 623 87 L 619 87 L 616 87 L 612 87 L 609 86 L 606 85 L 602 84 L 599 83 L 595 82 L 591 81 L 588 80 L 586 80 L 583 79 L 581 77 L 579 76 L 576 75 L 574 74 L 572 74 L 570 74 L 569 74 L 567 74 L 565 74 L 563 73 L 561 72 L 558 72 L 554 72 L 552 73" stroke="#ffffff" stroke-width="2" stroke-linecap="round" stroke-linejoin="round" fill="none"/><path d="M 210 126 L 209 124 L 208 124 L 208 125 L 210 126 L 213 126 L 216 127 L 219 129 L 222 131 L 225 133 L 229 136 L 231 137 L 233 139 L 235 140 L 237 142 L 238 144 L 240 146 L 242 149 L 244 151 L 246 153 L 248 155 L 249 157 L 250 160 L 252 162 L 253 165 L 254 168 L 254 171 L 255 174 L 255 177 L 255 179 L 255 182 L 255 185 L 256 187 L 257 188" stroke="#ffffff" stroke-width="2" stroke-linecap="round" stroke-linejoin="round" fill="none"/><path d="M 250 265 L 250 264 L 249 263 L 249 262 L 249 264 L 249 267 L 249 272 L 249 278 L 248 285 L 248 293 L 247 299 L 247 305 L 247 311 L 247 314 L 247 318 L 247 320 L 248 322 L 248 323 L 248 322 L 249 321 L 249 318 L 251 315 L 254 310 L 259 304 L 262 301 L 263 300" stroke="#ffffff" stroke-width="2" stroke-linecap="round" stroke-linejoin="round" fill="none"/><path d="M 229 303 L 229 302 L 228 302 L 228 301 L 228 302 L 231 305 L 234 310 L 238 315 L 241 321 L 244 323 L 246 324" stroke="#ffffff" stroke-width="2" stroke-linecap="round" stroke-linejoin="round" fill="none"/><path d="M 123 350 L 123 348 L 122 346 L 123 350 L 123 356 L 124 361 L 124 362" stroke="#ffffff" stroke-width="2" stroke-linecap="round" stroke-linejoin="round" fill="none"/><path d="M 117 370 L 115 369 L 115 367 L 117 364 L 123 360 L 130 356 L 134 355 L 136 355 L 136 356 L 135 359 L 131 364 L 127 371 L 122 378 L 117 384 L 115 387" stroke="#ffffff" stroke-width="2" stroke-linecap="round" stroke-linejoin="round" fill="none"/><path d="M 126 375 L 126 374 L 126 372 L 125 371 L 125 372 L 125 376 L 126 383 L 126 391 L 126 397" stroke="#ffffff" stroke-width="2" stroke-linecap="round" stroke-linejoin="round" fill="none"/><path d="M 129 377 L 129 376 L 129 375 L 129 374 L 131 375 L 134 380 L 136 382" stroke="#ffffff" stroke-width="2" stroke-linecap="round" stroke-linejoin="round" fill="none"/><path d="M 154 379 L 153 379 L 152 379 L 151 378 L 153 376 L 158 374 L 165 372" stroke="#ffffff" stroke-width="2" stroke-linecap="round" stroke-linejoin="round" fill="none"/><path d="M 186 378 L 184 376 L 184 374 L 186 371 L 191 368 L 195 367 L 197 369 L 196 374 L 194 379 L 191 384 L 189 387 L 187 388" stroke="#ffffff" stroke-width="2" stroke-linecap="round" stroke-linejoin="round" fill="none"/><path d="M 203 358 L 202 354 L 201 350 L 201 347 L 203 346 L 206 346 L 207 347 L 208 350 L 206 353 L 204 356 L 201 358" stroke="#ffffff" stroke-width="2" stroke-linecap="round" stroke-linejoin="round" fill="none"/><path d="M 227 361 L 225 360 L 225 362 L 225 367 L 226 373 L 228 377" stroke="#ffffff" stroke-width="2" stroke-linecap="round" stroke-linejoin="round" fill="none"/><path d="M 238 358 L 237 358 L 236 358 L 235 360 L 235 365 L 236 371 L 237 373" stroke="#ffffff" stroke-width="2" stroke-linecap="round" stroke-linejoin="round" fill="none"/><path d="M 251 365 L 250 364 L 249 363 L 251 361 L 255 360 L 258 359 L 260 361 L 260 364 L 258 367 L 255 371 L 252 373 L 250 374" stroke="#ffffff" stroke-width="2" stroke-linecap="round" stroke-linejoin="round" fill="none"/><path d="M 275 355 L 273 354 L 273 353 L 275 352 L 281 350 L 286 349 L 290 349" stroke="#ffffff" stroke-width="2" stroke-linecap="round" stroke-linejoin="round" fill="none"/><path d="M 275 361 L 274 361 L 276 360 L 280 358 L 286 356 L 288 356" stroke="#ffffff" stroke-width="2" stroke-linecap="round" stroke-linejoin="round" fill="none"/><path d="M 284 343 L 282 343 L 281 344 L 281 347 L 280 354 L 280 365 L 281 372 L 285 374 L 291 371 L 296 364" stroke="#ffffff" stroke-width="2" stroke-linecap="round" stroke-linejoin="round" fill="none"/><path d="M 323 341 L 321 340 L 318 341 L 316 346 L 315 353 L 313 359 L 313 363 L 313 364" stroke="#ffffff" stroke-width="2" stroke-linecap="round" stroke-linejoin="round" fill="none"/><path d="M 308 350 L 307 349 L 306 348 L 307 347 L 311 349 L 315 352 L 320 355 L 324 357" stroke="#ffffff" stroke-width="2" stroke-linecap="round" stroke-linejoin="round" fill="none"/><path d="M 336 337 L 335 337 L 331 336 L 332 339 L 335 343 L 336 346" stroke="#ffffff" stroke-width="2" stroke-linecap="round" stroke-linejoin="round" fill="none"/><path d="M 345 328 L 345 327 L 345 330 L 345 338 L 343 349 L 340 360 L 337 366 L 336 368 L 335 368" stroke="#ffffff" stroke-width="2" stroke-linecap="round" stroke-linejoin="round" fill="none"/><path d="M 361 334 L 361 333 L 360 332 L 359 332 L 359 335 L 359 338 L 361 341 L 361 342" stroke="#ffffff" stroke-width="2" stroke-linecap="round" stroke-linejoin="round" fill="none"/><path d="M 369 330 L 369 329 L 368 330 L 367 335 L 367 344 L 365 353 L 363 359 L 361 362" stroke="#ffffff" stroke-width="2" stroke-linecap="round" stroke-linejoin="round" fill="none"/><path d="M 393 331 L 391 330 L 390 330 L 390 332 L 390 337 L 391 341 L 392 344" stroke="#ffffff" stroke-width="2" stroke-linecap="round" stroke-linejoin="round" fill="none"/><path d="M 394 337 L 394 336 L 393 334 L 393 333 L 396 331 L 401 331 L 404 331" stroke="#ffffff" stroke-width="2" stroke-linecap="round" stroke-linejoin="round" fill="none"/><path d="M 380 351 L 378 350 L 378 349 L 382 347 L 391 345 L 402 342 L 411 341 L 416 340 L 418 339" stroke="#ffffff" stroke-width="2" stroke-linecap="round" stroke-linejoin="round" fill="none"/><path d="M 390 326 L 390 325 L 389 324" stroke="#ffffff" stroke-width="2" stroke-linecap="round" stroke-linejoin="round" fill="none"/><path d="M 390 323 L 390 322 L 390 321 L 389 320 L 388 319 L 388 321 L 389 324 L 389 328 L 388 333 L 388 338" stroke="#ffffff" stroke-width="2" stroke-linecap="round" stroke-linejoin="round" fill="none"/><path d="M 436 328 L 435 327 L 433 327 L 431 327 L 430 332 L 430 338 L 431 343 L 434 345 L 435 345" stroke="#ffffff" stroke-width="2" stroke-linecap="round" stroke-linejoin="round" fill="none"/><path d="M 437 333 L 437 331 L 438 329 L 440 326 L 446 324 L 453 321 L 457 320 L 459 320" stroke="#ffffff" stroke-width="2" stroke-linecap="round" stroke-linejoin="round" fill="none"/><path d="M 447 314 L 447 313 L 446 312 L 446 314 L 447 322 L 447 334 L 446 346 L 445 354 L 444 358" stroke="#ffffff" stroke-width="2" stroke-linecap="round" stroke-linejoin="round" fill="none"/><path d="M 458 299 L 455 301 L 453 305 L 453 309" stroke="#ffffff" stroke-width="2" stroke-linecap="round" stroke-linejoin="round" fill="none"/><path d="M 466 296 L 465 297 L 464 297 L 463 300 L 463 304" stroke="#ffffff" stroke-width="2" stroke-linecap="round" stroke-linejoin="round" fill="none"/><path d="M 467 329 L 466 327 L 466 325 L 471 322 L 478 320 L 483 320 L 485 321 L 485 322 L 483 322 L 481 323 L 478 325 L 475 328 L 473 332 L 471 337 L 471 342 L 473 345 L 478 345 L 484 342" stroke="#ffffff" stroke-width="2" stroke-linecap="round" stroke-linejoin="round" fill="none"/><path d="M 496 319 L 496 318 L 496 315 L 500 313 L 505 313 L 508 314 L 507 317 L 504 322 L 501 325 L 498 327 L 499 325 L 502 323 L 504 323 L 506 325 L 507 330 L 506 334 L 504 337 L 502 338 L 500 338 L 499 336 L 498 335 L 499 334 L 501 333 L 504 333 L 507 333 L 508 332" stroke="#ffffff" stroke-width="2" stroke-linecap="round" stroke-linejoin="round" fill="none"/><path d="M 522 329 L 522 327 L 522 325 L 526 322 L 530 320 L 534 320 L 537 321 L 538 323 L 538 326 L 536 329 L 534 332 L 533 333 L 532 333 L 531 330 L 531 325 L 531 319 L 531 313 L 532 310 L 533 308 L 534 308 L 534 309 L 533 313 L 532 319 L 529 328 L 527 336 L 526 340 L 527 340" stroke="#ffffff" stroke-width="2" stroke-linecap="round" stroke-linejoin="round" fill="none"/><path d="M 542 308 L 544 310 L 548 314 L 552 317" stroke="#ffffff" stroke-width="2" stroke-linecap="round" stroke-linejoin="round" fill="none"/><path d="M 568 304 L 567 303 L 567 302 L 568 304 L 569 304" stroke="#ffffff" stroke-width="2" stroke-linecap="round" stroke-linejoin="round" fill="none"/><path d="M 566 312 L 565 313 L 561 314 L 559 316 L 557 320 L 557 325 L 558 327 L 560 328 L 562 327 L 565 324 L 569 322 L 572 321 L 574 321 L 574 324 L 571 328 L 567 333 L 562 337 L 558 338 L 556 338" stroke="#ffffff" stroke-width="2" stroke-linecap="round" stroke-linejoin="round" fill="none"/><path d="M 612 305 L 612 304 L 612 303 L 612 304 L 612 311 L 612 320 L 611 328 L 611 332" stroke="#ffffff" stroke-width="2" stroke-linecap="round" stroke-linejoin="round" fill="none"/><path d="M 605 309 L 605 308 L 604 306 L 603 306 L 603 310 L 604 316 L 606 321 L 610 322 L 616 319 L 620 313 L 623 307 L 624 304 L 624 303 L 624 306 L 624 310 L 623 315 L 623 316" stroke="#ffffff" stroke-width="2" stroke-linecap="round" stroke-linejoin="round" fill="none"/><path d="M 601 329 L 601 328 L 600 328 L 599 329 L 601 333 L 604 335 L 609 335 L 616 331 L 621 326 L 623 323 L 623 322 L 623 323 L 623 327 L 624 330 L 626 332" stroke="#ffffff" stroke-width="2" stroke-linecap="round" stroke-linejoin="round" fill="none"/><path d="M 641 310 L 640 310 L 639 308 L 641 305 L 647 303 L 654 301 L 658 302 L 659 302" stroke="#ffffff" stroke-width="2" stroke-linecap="round" stroke-linejoin="round" fill="none"/><path d="M 647 309 L 645 310 L 643 312 L 643 313 L 643 315 L 644 316" stroke="#ffffff" stroke-width="2" stroke-linecap="round" stroke-linejoin="round" fill="none"/><path d="M 654 311 L 653 310 L 651 311 L 649 314 L 647 317" stroke="#ffffff" stroke-width="2" stroke-linecap="round" stroke-linejoin="round" fill="none"/><path d="M 637 325 L 636 324 L 636 323 L 636 322 L 640 320 L 647 318 L 654 316 L 658 315" stroke="#ffffff" stroke-width="2" stroke-linecap="round" stroke-linejoin="round" fill="none"/><path d="M 646 295 L 646 294 L 645 293 L 645 294 L 645 301 L 645 311 L 645 324 L 644 335 L 644 342 L 644 344 L 644 345" stroke="#ffffff" stroke-width="2" stroke-linecap="round" stroke-linejoin="round" fill="none"/><path d="M 646 323 L 646 322 L 644 322 L 640 326 L 636 331 L 633 336 L 633 337" stroke="#ffffff" stroke-width="2" stroke-linecap="round" stroke-linejoin="round" fill="none"/><path d="M 641 324 L 643 323 L 645 323 L 648 324 L 653 327 L 657 329 L 659 330" stroke="#ffffff" stroke-width="2" stroke-linecap="round" stroke-linejoin="round" fill="none"/><path d="M 666 319 L 666 318 L 666 316 L 670 314 L 676 311 L 681 311 L 683 310" stroke="#ffffff" stroke-width="2" stroke-linecap="round" stroke-linejoin="round" fill="none"/><path d="M 678 305 L 676 304 L 674 303 L 673 306 L 671 313 L 669 323 L 666 333 L 666 337 L 667 338" stroke="#ffffff" stroke-width="2" stroke-linecap="round" stroke-linejoin="round" fill="none"/><path d="M 679 323 L 679 321 L 679 319 L 681 318 L 683 317 L 684 317" stroke="#ffffff" stroke-width="2" stroke-linecap="round" stroke-linejoin="round" fill="none"/><path d="M 680 331 L 679 331 L 682 330 L 687 328 L 689 327" stroke="#ffffff" stroke-width="2" stroke-linecap="round" stroke-linejoin="round" fill="none"/><path d="M 43 410 L 43 409 L 44 411 L 44 416 L 45 421" stroke="#ffffff" stroke-width="2" stroke-linecap="round" stroke-linejoin="round" fill="none"/><path d="M 38 423 L 37 424 L 37 428 L 37 433 L 38 437 L 39 438 L 41 436 L 44 434 L 47 434 L 49 436 L 50 441 L 48 446 L 44 450 L 40 453 L 37 454" stroke="#ffffff" stroke-width="2" stroke-linecap="round" stroke-linejoin="round" fill="none"/><path d="M 65 425 L 64 424 L 64 423 L 68 421 L 74 418 L 81 415 L 87 413 L 89 413" stroke="#ffffff" stroke-width="2" stroke-linecap="round" stroke-linejoin="round" fill="none"/><path d="M 75 420 L 74 420 L 72 420 L 71 421 L 70 426 L 69 432 L 68 437 L 68 438" stroke="#ffffff" stroke-width="2" stroke-linecap="round" stroke-linejoin="round" fill="none"/><path d="M 71 431 L 71 429 L 71 427 L 73 425 L 75 424 L 78 426 L 79 432 L 79 439 L 77 447 L 74 452 L 73 455 L 72 455" stroke="#ffffff" stroke-width="2" stroke-linecap="round" stroke-linejoin="round" fill="none"/><path d="M 68 441 L 68 440 L 67 438 L 67 437 L 70 435 L 74 435 L 77 435" stroke="#ffffff" stroke-width="2" stroke-linecap="round" stroke-linejoin="round" fill="none"/><path d="M 91 424 L 90 424 L 92 422 L 94 421" stroke="#ffffff" stroke-width="2" stroke-linecap="round" stroke-linejoin="round" fill="none"/><path d="M 90 431 L 89 431 L 87 431 L 88 431 L 92 429" stroke="#ffffff" stroke-width="2" stroke-linecap="round" stroke-linejoin="round" fill="none"/><path d="M 86 440 L 84 440 L 85 439 L 89 436 L 95 431 L 99 427" stroke="#ffffff" stroke-width="2" stroke-linecap="round" stroke-linejoin="round" fill="none"/><path d="M 95 416 L 93 415 L 92 415 L 92 417 L 93 423 L 95 434 L 98 443 L 100 449 L 101 450" stroke="#ffffff" stroke-width="2" stroke-linecap="round" stroke-linejoin="round" fill="none"/><path d="M 103 435 L 101 435 L 99 437 L 96 442 L 93 448 L 89 454 L 84 457 L 83 458" stroke="#ffffff" stroke-width="2" stroke-linecap="round" stroke-linejoin="round" fill="none"/><path d="M 95 411 L 95 409 L 98 410 L 104 415 L 105 417" stroke="#ffffff" stroke-width="2" stroke-linecap="round" stroke-linejoin="round" fill="none"/><path d="M 122 423 L 121 423 L 120 425 L 118 432 L 118 440 L 119 446 L 122 448 L 126 447 L 130 442 L 131 440" stroke="#ffffff" stroke-width="2" stroke-linecap="round" stroke-linejoin="round" fill="none"/><path d="M 138 430 L 137 430 L 135 429 L 135 426 L 139 423 L 145 419 L 151 416 L 154 416 L 155 416" stroke="#ffffff" stroke-width="2" stroke-linecap="round" stroke-linejoin="round" fill="none"/><path d="M 146 415 L 146 413 L 144 412 L 144 411 L 144 413 L 144 419 L 144 427 L 144 436 L 143 444 L 143 447" stroke="#ffffff" stroke-width="2" stroke-linecap="round" stroke-linejoin="round" fill="none"/><path d="M 154 430 L 154 429 L 154 427 L 154 426 L 156 426" stroke="#ffffff" stroke-width="2" stroke-linecap="round" stroke-linejoin="round" fill="none"/><path d="M 155 438 L 154 438 L 153 438 L 153 437 L 155 436 L 160 434 L 163 432" stroke="#ffffff" stroke-width="2" stroke-linecap="round" stroke-linejoin="round" fill="none"/><path d="M 154 429 L 153 429 L 152 428 L 154 427 L 157 426 L 161 425" stroke="#ffffff" stroke-width="2" stroke-linecap="round" stroke-linejoin="round" fill="none"/><path d="M 184 419 L 183 418 L 181 417 L 180 417 L 180 421 L 181 427 L 182 431 L 185 434" stroke="#ffffff" stroke-width="2" stroke-linecap="round" stroke-linejoin="round" fill="none"/><path d="M 194 416 L 194 415 L 194 413 L 194 417 L 194 424 L 195 429" stroke="#ffffff" stroke-width="2" stroke-linecap="round" stroke-linejoin="round" fill="none"/><path d="M 216 427 L 215 427 L 215 426 L 215 425 L 218 425 L 220 425 L 221 426 L 220 429 L 217 431 L 215 432" stroke="#ffffff" stroke-width="2" stroke-linecap="round" stroke-linejoin="round" fill="none"/><path d="M 227 412 L 226 410 L 226 409 L 228 408 L 232 407 L 238 406 L 243 405 L 245 405 L 244 405 L 242 406 L 240 408 L 237 413 L 236 419 L 235 425 L 238 429 L 242 430" stroke="#ffffff" stroke-width="2" stroke-linecap="round" stroke-linejoin="round" fill="none"/><path d="M 262 388 L 261 387 L 261 386 L 261 389 L 261 395 L 261 396" stroke="#ffffff" stroke-width="2" stroke-linecap="round" stroke-linejoin="round" fill="none"/><path d="M 258 404 L 258 403 L 258 400 L 261 398 L 266 395 L 272 394 L 273 394" stroke="#ffffff" stroke-width="2" stroke-linecap="round" stroke-linejoin="round" fill="none"/><path d="M 262 405 L 262 406 L 262 405 L 264 403 L 268 401" stroke="#ffffff" stroke-width="2" stroke-linecap="round" stroke-linejoin="round" fill="none"/><path d="M 265 411 L 263 410 L 263 409 L 266 407 L 267 406" stroke="#ffffff" stroke-width="2" stroke-linecap="round" stroke-linejoin="round" fill="none"/><path d="M 265 416 L 263 417 L 261 419 L 260 423 L 260 428 L 261 431" stroke="#ffffff" stroke-width="2" stroke-linecap="round" stroke-linejoin="round" fill="none"/><path d="M 264 424 L 264 422 L 264 418 L 267 415 L 271 413 L 275 413 L 276 417 L 274 421 L 272 425 L 271 427" stroke="#ffffff" stroke-width="2" stroke-linecap="round" stroke-linejoin="round" fill="none"/><path d="M 265 427 L 265 429 L 264 429 L 268 426 L 273 423 L 275 422" stroke="#ffffff" stroke-width="2" stroke-linecap="round" stroke-linejoin="round" fill="none"/><path d="M 293 419 L 292 418 L 291 416 L 292 414 L 296 413 L 300 413 L 301 415 L 301 419 L 298 423 L 297 423" stroke="#ffffff" stroke-width="2" stroke-linecap="round" stroke-linejoin="round" fill="none"/><path d="M 314 405 L 313 404 L 312 401 L 315 399 L 320 396 L 327 395 L 331 394 L 333 394 L 332 394 L 331 395 L 328 398 L 326 402 L 324 408 L 324 415 L 327 419 L 334 419 L 336 419" stroke="#ffffff" stroke-width="2" stroke-linecap="round" stroke-linejoin="round" fill="none"/><path d="M 355 403 L 353 403 L 355 402 L 360 397 L 368 391 L 373 386 L 375 385" stroke="#ffffff" stroke-width="2" stroke-linecap="round" stroke-linejoin="round" fill="none"/><path d="M 366 384 L 366 383 L 365 382 L 365 381 L 364 386 L 363 396 L 363 408 L 363 416 L 365 419" stroke="#ffffff" stroke-width="2" stroke-linecap="round" stroke-linejoin="round" fill="none"/><path d="M 374 403 L 374 402 L 373 400 L 375 398 L 379 396 L 380 396" stroke="#ffffff" stroke-width="2" stroke-linecap="round" stroke-linejoin="round" fill="none"/><path d="M 375 411 L 374 411 L 372 413 L 374 411 L 379 407 L 382 404" stroke="#ffffff" stroke-width="2" stroke-linecap="round" stroke-linejoin="round" fill="none"/><path d="M 405 389 L 404 389 L 403 388 L 402 388 L 401 389 L 402 394 L 403 400 L 406 403" stroke="#ffffff" stroke-width="2" stroke-linecap="round" stroke-linejoin="round" fill="none"/><path d="M 411 389 L 411 387 L 411 385 L 415 381 L 421 378 L 427 376 L 431 375 L 431 374" stroke="#ffffff" stroke-width="2" stroke-linecap="round" stroke-linejoin="round" fill="none"/><path d="M 422 370 L 421 370 L 419 369 L 420 373 L 421 382 L 422 394 L 420 404 L 418 411 L 417 413" stroke="#ffffff" stroke-width="2" stroke-linecap="round" stroke-linejoin="round" fill="none"/><path d="M 440 381 L 438 380 L 437 380 L 436 380 L 436 382 L 438 386 L 440 390" stroke="#ffffff" stroke-width="2" stroke-linecap="round" stroke-linejoin="round" fill="none"/><path d="M 449 386 L 449 387 L 448 387 L 447 387 L 446 387 L 444 387 L 442 389 L 439 394 L 439 399 L 440 402 L 445 402 L 450 400 L 451 399" stroke="#ffffff" stroke-width="2" stroke-linecap="round" stroke-linejoin="round" fill="none"/><path d="M 452 372 L 451 372 L 450 373 L 449 377 L 449 378" stroke="#ffffff" stroke-width="2" stroke-linecap="round" stroke-linejoin="round" fill="none"/><path d="M 457 371 L 457 369 L 456 369 L 456 372 L 456 376" stroke="#ffffff" stroke-width="2" stroke-linecap="round" stroke-linejoin="round" fill="none"/><path d="M 487 367 L 487 366 L 487 365 L 484 368 L 480 376 L 474 388 L 470 397 L 469 402" stroke="#ffffff" stroke-width="2" stroke-linecap="round" stroke-linejoin="round" fill="none"/><path d="M 476 384 L 476 383 L 476 384 L 476 388 L 477 394 L 478 400 L 478 402" stroke="#ffffff" stroke-width="2" stroke-linecap="round" stroke-linejoin="round" fill="none"/><path d="M 489 384 L 489 382 L 489 379 L 493 376 L 499 373 L 503 372 L 504 371 L 504 369 L 502 368 L 500 367 L 499 366 L 499 368 L 499 373 L 498 381 L 497 391 L 496 396 L 496 398 L 496 397 L 494 396 L 492 395 L 492 394 L 494 393 L 497 393 L 499 393 L 503 392 L 509 390" stroke="#ffffff" stroke-width="2" stroke-linecap="round" stroke-linejoin="round" fill="none"/><path d="M 529 369 L 527 369 L 526 370 L 526 372 L 526 375 L 527 379 L 529 382" stroke="#ffffff" stroke-width="2" stroke-linecap="round" stroke-linejoin="round" fill="none"/><path d="M 531 376 L 530 374 L 530 372 L 532 371 L 536 370 L 540 370" stroke="#ffffff" stroke-width="2" stroke-linecap="round" stroke-linejoin="round" fill="none"/><path d="M 518 388 L 517 389 L 518 388 L 522 387 L 528 385 L 533 383 L 539 381 L 545 379" stroke="#ffffff" stroke-width="2" stroke-linecap="round" stroke-linejoin="round" fill="none"/><path d="M 558 371 L 559 370 L 558 370 L 557 370 L 556 373 L 556 377 L 557 381 L 559 382" stroke="#ffffff" stroke-width="2" stroke-linecap="round" stroke-linejoin="round" fill="none"/><path d="M 564 369 L 564 368 L 564 365 L 567 363 L 573 361 L 580 359 L 584 359 L 585 359" stroke="#ffffff" stroke-width="2" stroke-linecap="round" stroke-linejoin="round" fill="none"/><path d="M 575 356 L 574 355 L 573 355 L 573 359 L 574 368 L 574 380 L 572 390 L 569 395 L 567 396 L 566 397" stroke="#ffffff" stroke-width="2" stroke-linecap="round" stroke-linejoin="round" fill="none"/><path d="M 582 346 L 582 345 L 580 345 L 579 350 L 579 356" stroke="#ffffff" stroke-width="2" stroke-linecap="round" stroke-linejoin="round" fill="none"/><path d="M 587 347 L 586 347 L 585 350 L 583 354" stroke="#ffffff" stroke-width="2" stroke-linecap="round" stroke-linejoin="round" fill="none"/><path d="M 527 376 L 526 377 L 525 377 L 526 377 L 529 375 L 531 374" stroke="#ffffff" stroke-width="2" stroke-linecap="round" stroke-linejoin="round" fill="none"/><path d="M 525 364 L 524 363 L 524 362 L 524 361 L 524 362 L 525 365 L 525 370 L 525 376" stroke="#ffffff" stroke-width="2" stroke-linecap="round" stroke-linejoin="round" fill="none"/><path d="M 603 373 L 603 372 L 602 374 L 601 377 L 599 381 L 598 383 L 596 384 L 595 383 L 595 380 L 597 375 L 601 372 L 606 369 L 610 369 L 612 374 L 611 380 L 608 386 L 606 388 L 606 389" stroke="#ffffff" stroke-width="2" stroke-linecap="round" stroke-linejoin="round" fill="none"/><path d="M 633 369 L 633 368 L 633 367 L 633 366 L 632 368 L 631 374 L 629 381 L 628 387 L 630 391" stroke="#ffffff" stroke-width="2" stroke-linecap="round" stroke-linejoin="round" fill="none"/><path d="M 641 371 L 641 370 L 642 371 L 644 374 L 646 379 L 649 384 L 650 386" stroke="#ffffff" stroke-width="2" stroke-linecap="round" stroke-linejoin="round" fill="none"/><path d="M 649 353 L 648 352 L 648 353 L 648 356 L 648 358" stroke="#ffffff" stroke-width="2" stroke-linecap="round" stroke-linejoin="round" fill="none"/><path d="M 654 354 L 654 352 L 654 351 L 654 353 L 654 357 L 654 359" stroke="#ffffff" stroke-width="2" stroke-linecap="round" stroke-linejoin="round" fill="none"/><path d="M 663 367 L 663 366 L 663 363 L 664 361 L 666 359 L 670 359 L 672 359" stroke="#ffffff" stroke-width="2" stroke-linecap="round" stroke-linejoin="round" fill="none"/><path d="M 662 377 L 661 376 L 660 374 L 662 372 L 667 370 L 672 369 L 676 369 L 677 370 L 676 372 L 673 377 L 670 382 L 666 388 L 663 391" stroke="#ffffff" stroke-width="2" stroke-linecap="round" stroke-linejoin="round" fill="none"/><path d="M 383 577 L 367 602 L 362 615 L 352 652 L 378 591" stroke="#ffffff" stroke-width="2" stroke-linecap="round" stroke-linejoin="round" fill="none"/><path d="M 47 494 L 46 494 L 46 493 L 47 492 L 50 491 L 53 491 L 54 491" stroke="#ffffff" stroke-width="2" stroke-linecap="round" stroke-linejoin="round" fill="none"/><path d="M 49 507 L 49 508 L 48 508 L 47 508 L 47 507 L 49 505 L 53 501 L 58 496 L 59 495" stroke="#ffffff" stroke-width="2" stroke-linecap="round" stroke-linejoin="round" fill="none"/><path d="M 79 485 L 79 486 L 79 485 L 79 484 L 81 481 L 85 480 L 88 479 L 89 479 L 90 482 L 89 486 L 86 492 L 84 497 L 82 500 L 81 502" stroke="#ffffff" stroke-width="2" stroke-linecap="round" stroke-linejoin="round" fill="none"/><path d="M 86 489 L 86 488 L 88 488 L 92 489 L 97 492 L 102 494" stroke="#ffffff" stroke-width="2" stroke-linecap="round" stroke-linejoin="round" fill="none"/><path d="M 116 471 L 114 470 L 113 470 L 112 473 L 112 479 L 112 485 L 112 488" stroke="#ffffff" stroke-width="2" stroke-linecap="round" stroke-linejoin="round" fill="none"/><path d="M 111 476 L 110 473 L 110 470 L 111 468 L 113 466 L 116 466 L 120 466 L 122 469 L 122 474 L 122 480 L 122 484 L 121 487" stroke="#ffffff" stroke-width="2" stroke-linecap="round" stroke-linejoin="round" fill="none"/><path d="M 113 482 L 112 481 L 112 479 L 114 477 L 118 476 L 119 476" stroke="#ffffff" stroke-width="2" stroke-linecap="round" stroke-linejoin="round" fill="none"/><path d="M 114 488 L 113 488 L 112 488 L 112 486 L 115 485 L 117 485 L 118 485 L 119 488 L 117 493 L 115 499 L 112 504 L 111 506 L 111 503 L 113 499 L 114 495 L 116 491 L 118 489 L 120 490 L 123 495 L 125 500 L 126 503 L 129 504 L 133 500 L 137 496" stroke="#ffffff" stroke-width="2" stroke-linecap="round" stroke-linejoin="round" fill="none"/><path d="M 138 478 L 137 478 L 136 477 L 138 475 L 142 474 L 148 473 L 154 472 L 157 472 L 158 472 L 157 472 L 155 473 L 152 476 L 149 479 L 148 485 L 147 492 L 149 497 L 154 499 L 159 499" stroke="#ffffff" stroke-width="2" stroke-linecap="round" stroke-linejoin="round" fill="none"/><path d="M 212 458 L 212 457 L 212 455 L 212 454 L 211 453 L 210 457 L 208 466 L 206 477 L 206 486 L 209 489 L 212 488 L 217 482 L 220 477 L 222 472 L 223 469 L 220 469 L 216 471 L 211 474 L 207 479 L 205 484 L 205 485" stroke="#ffffff" stroke-width="2" stroke-linecap="round" stroke-linejoin="round" fill="none"/><path d="M 238 477 L 235 476 L 235 472 L 239 467 L 244 465 L 247 466 L 249 469 L 250 470 L 253 471 L 257 468 L 261 466" stroke="#ffffff" stroke-width="2" stroke-linecap="round" stroke-linejoin="round" fill="none"/><path d="M 272 457 L 271 456 L 270 454 L 273 451 L 279 449 L 283 450 L 285 454 L 285 458 L 281 462 L 278 464 L 276 464 L 278 463 L 282 462 L 286 464 L 288 468 L 288 472 L 285 476 L 281 478 L 277 480 L 274 482 L 273 482" stroke="#ffffff" stroke-width="2" stroke-linecap="round" stroke-linejoin="round" fill="none"/><path d="M 303 460 L 302 460 L 305 458 L 310 457 L 316 455 L 318 455 L 319 455 L 318 455 L 316 455 L 315 456 L 313 458 L 310 462 L 309 468 L 309 474 L 311 477 L 315 477 L 317 477" stroke="#ffffff" stroke-width="2" stroke-linecap="round" stroke-linejoin="round" fill="none"/><path d="M 320 440 L 320 441 L 317 444 L 316 448 L 317 452" stroke="#ffffff" stroke-width="2" stroke-linecap="round" stroke-linejoin="round" fill="none"/><path d="M 323 441 L 323 440 L 322 440 L 322 442" stroke="#ffffff" stroke-width="2" stroke-linecap="round" stroke-linejoin="round" fill="none"/><path d="M 349 444 L 347 443 L 345 443 L 343 447 L 341 452 L 340 458 L 339 462" stroke="#ffffff" stroke-width="2" stroke-linecap="round" stroke-linejoin="round" fill="none"/><path d="M 336 451 L 335 450 L 334 449 L 335 449 L 338 451 L 343 453 L 347 455" stroke="#ffffff" stroke-width="2" stroke-linecap="round" stroke-linejoin="round" fill="none"/><path d="M 362 440 L 362 439 L 361 438 L 360 439 L 360 442 L 360 445 L 360 448" stroke="#ffffff" stroke-width="2" stroke-linecap="round" stroke-linejoin="round" fill="none"/><path d="M 368 434 L 368 432 L 368 431 L 367 431 L 367 435 L 367 444 L 367 455 L 365 466 L 364 471 L 363 473 L 362 473 L 360 472 L 358 470 L 357 468" stroke="#ffffff" stroke-width="2" stroke-linecap="round" stroke-linejoin="round" fill="none"/><path d="M 315 442 L 315 441 L 314 440 L 314 437 L 314 436 L 314 435 L 315 438 L 315 443 L 316 450 L 317 451" stroke="#ffffff" stroke-width="2" stroke-linecap="round" stroke-linejoin="round" fill="none"/><path d="M 385 440 L 383 438 L 383 439 L 383 442 L 384 446 L 385 448" stroke="#ffffff" stroke-width="2" stroke-linecap="round" stroke-linejoin="round" fill="none"/><path d="M 394 433 L 394 432 L 394 431 L 394 434 L 395 442 L 394 453 L 390 463 L 387 470 L 385 471" stroke="#ffffff" stroke-width="2" stroke-linecap="round" stroke-linejoin="round" fill="none"/><path d="M 424 430 L 423 429 L 422 428 L 421 428 L 421 432 L 421 438 L 422 444 L 422 446" stroke="#ffffff" stroke-width="2" stroke-linecap="round" stroke-linejoin="round" fill="none"/><path d="M 427 436 L 427 435 L 426 433 L 428 432 L 431 432 L 433 432 L 434 433" stroke="#ffffff" stroke-width="2" stroke-linecap="round" stroke-linejoin="round" fill="none"/><path d="M 408 454 L 407 455 L 406 455 L 408 454 L 413 452 L 419 450 L 426 447 L 431 446 L 438 444 L 442 443" stroke="#ffffff" stroke-width="2" stroke-linecap="round" stroke-linejoin="round" fill="none"/><path d="M 455 435 L 454 434 L 453 434 L 452 435 L 452 437 L 453 440 L 455 442 L 456 442" stroke="#ffffff" stroke-width="2" stroke-linecap="round" stroke-linejoin="round" fill="none"/><path d="M 462 432 L 462 431 L 462 430 L 463 428 L 468 426 L 475 424 L 480 423 L 482 423" stroke="#ffffff" stroke-width="2" stroke-linecap="round" stroke-linejoin="round" fill="none"/><path d="M 470 419 L 469 418 L 469 417 L 470 422 L 471 431 L 470 443 L 468 453 L 466 458 L 466 460" stroke="#ffffff" stroke-width="2" stroke-linecap="round" stroke-linejoin="round" fill="none"/><path d="M 477 411 L 476 411 L 474 414 L 473 419 L 473 422" stroke="#ffffff" stroke-width="2" stroke-linecap="round" stroke-linejoin="round" fill="none"/><path d="M 485 410 L 484 409 L 483 410 L 482 416 L 482 417" stroke="#ffffff" stroke-width="2" stroke-linecap="round" stroke-linejoin="round" fill="none"/><path d="M 489 435 L 488 433 L 489 431 L 494 427 L 502 424 L 510 421 L 514 420" stroke="#ffffff" stroke-width="2" stroke-linecap="round" stroke-linejoin="round" fill="none"/><path d="M 504 417 L 503 416 L 501 415 L 500 416 L 498 422 L 496 433 L 495 444 L 494 450 L 494 453" stroke="#ffffff" stroke-width="2" stroke-linecap="round" stroke-linejoin="round" fill="none"/><path d="M 507 437 L 506 435 L 506 433 L 507 431 L 511 431 L 514 431" stroke="#ffffff" stroke-width="2" stroke-linecap="round" stroke-linejoin="round" fill="none"/><path d="M 508 446 L 507 446 L 505 447 L 506 446 L 510 444 L 516 440 L 523 438 L 527 437" stroke="#ffffff" stroke-width="2" stroke-linecap="round" stroke-linejoin="round" fill="none"/><path d="M 543 437 L 541 436 L 540 436 L 538 437 L 537 440 L 537 443 L 539 445 L 543 445 L 545 443 L 547 441 L 547 438 L 546 436 L 543 435 L 540 436 L 538 439 L 537 440" stroke="#ffffff" stroke-width="2" stroke-linecap="round" stroke-linejoin="round" fill="none"/><path d="M 569 429 L 567 428 L 567 426 L 568 424 L 573 421 L 580 418 L 586 416 L 590 415" stroke="#ffffff" stroke-width="2" stroke-linecap="round" stroke-linejoin="round" fill="none"/><path d="M 578 413 L 578 411 L 578 410 L 578 411 L 578 417 L 579 427 L 580 436 L 582 442 L 583 444" stroke="#ffffff" stroke-width="2" stroke-linecap="round" stroke-linejoin="round" fill="none"/><path d="M 591 423 L 590 423 L 588 422 L 587 424 L 584 429 L 582 436 L 580 443 L 577 447 L 574 449 L 571 449 L 570 448 L 570 445 L 572 440 L 575 436 L 579 432 L 585 431 L 590 432 L 594 436 L 594 441 L 593 445" stroke="#ffffff" stroke-width="2" stroke-linecap="round" stroke-linejoin="round" fill="none"/><path d="M 610 426 L 609 426 L 608 424 L 611 422 L 615 420 L 619 419 L 622 419 L 624 419" stroke="#ffffff" stroke-width="2" stroke-linecap="round" stroke-linejoin="round" fill="none"/><path d="M 617 416 L 617 415 L 616 414 L 615 413 L 615 416 L 616 422 L 617 429 L 618 435" stroke="#ffffff" stroke-width="2" stroke-linecap="round" stroke-linejoin="round" fill="none"/><path d="M 608 437 L 607 436 L 607 437 L 607 441 L 610 446 L 615 450" stroke="#ffffff" stroke-width="2" stroke-linecap="round" stroke-linejoin="round" fill="none"/><path d="M 642 417 L 642 416 L 640 415 L 639 414 L 639 421 L 640 430 L 641 438 L 642 442 L 643 442" stroke="#ffffff" stroke-width="2" stroke-linecap="round" stroke-linejoin="round" fill="none"/><path d="M 649 419 L 648 418 L 646 417 L 646 418 L 645 422 L 644 429 L 641 436 L 637 441 L 634 443 L 633 443 L 632 440 L 631 437 L 632 433 L 633 430 L 637 427 L 642 425 L 649 424 L 657 425 L 661 429 L 660 436 L 656 441 L 653 444 L 652 445" stroke="#ffffff" stroke-width="2" stroke-linecap="round" stroke-linejoin="round" fill="none"/><path d="M 686 435 L 684 435 L 681 434 L 680 435 L 679 438 L 680 441 L 682 442 L 685 442 L 688 440 L 689 438 L 689 435 L 687 433 L 684 433 L 680 436 L 679 440" stroke="#ffffff" stroke-width="2" stroke-linecap="round" stroke-linejoin="round" fill="none"/></svg>
