<svg xmlns="http://www.w3.org/2000/svg" width="568" height="317" viewBox="0 0 568 317"><path d="M 34 29 L 34 26 L 34 23 L 37 22 L 41 22 L 45 22 L 48 23 L 48 26 L 47 28 L 45 32 L 42 36 L 39 39 L 36 41 L 35 43 L 34 43 L 35 44 L 36 44 L 38 44 L 42 44 L 46 43 L 50 43 L 53 42 L 56 41" stroke="#ffffff" stroke-width="2" stroke-linecap="round" stroke-linejoin="round" fill="none"/><path d="M 68 26 L 67 25 L 66 23 L 67 22 L 70 22 L 73 22 L 75 24 L 75 25 L 75 27 L 73 29 L 70 32 L 67 34 L 65 36 L 64 37 L 65 37 L 66 37 L 68 38 L 70 38 L 74 37 L 78 36 L 82 36 L 84 36 L 85 37" stroke="#ffffff" stroke-width="2" stroke-linecap="round" stroke-linejoin="round" fill="none"/><path d="M 114 15 L 114 14 L 112 13 L 111 15 L 108 21 L 102 31 L 94 44 L 86 56 L 81 63 L 79 69 L 78 73" stroke="#ffffff" stroke-width="2" stroke-linecap="round" stroke-linejoin="round" fill="none"/><path d="M 114 44 L 113 42 L 113 41 L 114 44 L 114 51 L 113 58 L 113 63" stroke="#ffffff" stroke-width="2" stroke-linecap="round" stroke-linejoin="round" fill="none"/><path d="M 127 42 L 126 42 L 125 42 L 124 47 L 124 56 L 124 64" stroke="#ffffff" stroke-width="2" stroke-linecap="round" stroke-linejoin="round" fill="none"/><path d="M 200 20 L 199 20 L 198 18 L 196 16 L 194 16 L 192 16 L 190 20 L 188 26 L 187 34 L 187 41 L 190 43 L 196 41 L 197 39" stroke="#ffffff" stroke-width="2" stroke-linecap="round" stroke-linejoin="round" fill="none"/><path d="M 217 18 L 216 18 L 215 18 L 212 20 L 211 23 L 210 28 L 211 32 L 214 32 L 218 29 L 221 24 L 223 20 L 222 17 L 220 15 L 216 16 L 211 21 L 209 26" stroke="#ffffff" stroke-width="2" stroke-linecap="round" stroke-linejoin="round" fill="none"/><path d="M 244 13 L 241 11 L 238 10 L 236 10 L 235 10 L 234 11 L 233 13 L 233 16 L 233 19 L 234 24 L 234 29 L 235 32 L 234 34 L 232 34 L 229 33 L 226 31 L 226 30" stroke="#ffffff" stroke-width="2" stroke-linecap="round" stroke-linejoin="round" fill="none"/><path d="M 249 19 L 249 18 L 249 17 L 249 20 L 248 26 L 247 31 L 246 34 L 247 31 L 249 27 L 251 23 L 253 21 L 253 23 L 253 28 L 252 33 L 251 36 L 251 37 L 252 34 L 254 30 L 256 25 L 258 23 L 259 24 L 259 27 L 258 31 L 257 35 L 257 37" stroke="#ffffff" stroke-width="2" stroke-linecap="round" stroke-linejoin="round" fill="none"/><path d="M 271 20 L 269 22 L 268 25 L 269 26 L 273 27 L 276 26 L 278 23 L 278 21 L 277 19 L 275 18 L 272 19 L 269 24 L 266 32 L 265 38 L 267 40 L 273 40 L 276 38" stroke="#ffffff" stroke-width="2" stroke-linecap="round" stroke-linejoin="round" fill="none"/><path d="M 319 13 L 319 12 L 318 11 L 316 11 L 313 18 L 311 28 L 311 37 L 311 46 L 312 48" stroke="#ffffff" stroke-width="2" stroke-linecap="round" stroke-linejoin="round" fill="none"/><path d="M 318 17 L 318 16 L 317 13 L 318 12 L 320 12 L 324 15 L 326 18 L 325 22 L 322 26 L 319 27 L 316 28 L 314 28 L 314 29 L 317 31 L 320 33 L 325 34 L 332 34 L 334 34" stroke="#ffffff" stroke-width="2" stroke-linecap="round" stroke-linejoin="round" fill="none"/><path d="M 346 24 L 345 24 L 344 24 L 344 25 L 345 26 L 348 27 L 350 27 L 352 26 L 353 25 L 352 23 L 351 22 L 348 22 L 345 23 L 343 27 L 341 31 L 341 35 L 343 39 L 348 40 L 355 39 L 358 38" stroke="#ffffff" stroke-width="2" stroke-linecap="round" stroke-linejoin="round" fill="none"/><path d="M 276 57 L 275 56 L 274 55 L 273 55 L 270 58 L 267 67 L 265 81 L 265 92 L 267 95" stroke="#ffffff" stroke-width="2" stroke-linecap="round" stroke-linejoin="round" fill="none"/><path d="M 296 71 L 296 69 L 296 67 L 296 64 L 296 62 L 295 61 L 293 61 L 290 64 L 286 69 L 284 75 L 285 80 L 287 81 L 291 79 L 294 75 L 296 70 L 297 67 L 296 65 L 295 65 L 295 66 L 294 68 L 294 72 L 292 79 L 290 87 L 289 93 L 289 96" stroke="#ffffff" stroke-width="2" stroke-linecap="round" stroke-linejoin="round" fill="none"/><path d="M 311 70 L 309 70 L 307 71 L 306 74 L 305 79 L 304 83 L 304 85" stroke="#ffffff" stroke-width="2" stroke-linecap="round" stroke-linejoin="round" fill="none"/><path d="M 308 78 L 308 77 L 309 74 L 311 71 L 314 70 L 318 69 L 319 69 L 319 70 L 318 70 L 316 71 L 314 73 L 313 76 L 311 80 L 310 87 L 309 93 L 309 95" stroke="#ffffff" stroke-width="2" stroke-linecap="round" stroke-linejoin="round" fill="none"/><path d="M 335 60 L 333 60 L 332 62 L 331 69 L 329 79 L 328 87 L 328 90" stroke="#ffffff" stroke-width="2" stroke-linecap="round" stroke-linejoin="round" fill="none"/><path d="M 330 65 L 329 62 L 330 60 L 333 58 L 337 57 L 341 57 L 342 61 L 342 68 L 341 76 L 339 84 L 339 88 L 338 90" stroke="#ffffff" stroke-width="2" stroke-linecap="round" stroke-linejoin="round" fill="none"/><path d="M 334 72 L 332 71 L 332 69 L 332 67 L 335 66 L 337 66" stroke="#ffffff" stroke-width="2" stroke-linecap="round" stroke-linejoin="round" fill="none"/><path d="M 333 77 L 331 78 L 334 76 L 340 73 L 341 72" stroke="#ffffff" stroke-width="2" stroke-linecap="round" stroke-linejoin="round" fill="none"/><path d="M 357 53 L 358 53 L 358 55 L 360 57 L 362 63 L 363 71 L 360 81 L 354 89 L 347 94 L 344 95" stroke="#ffffff" stroke-width="2" stroke-linecap="round" stroke-linejoin="round" fill="none"/><path d="M 396 40 L 396 38 L 399 36 L 402 35 L 405 37 L 406 43 L 404 48 L 401 52 L 396 56 L 393 57 L 390 58 L 393 58 L 396 58 L 399 57 L 403 57 L 406 57 L 409 57 L 412 57 L 413 57" stroke="#ffffff" stroke-width="2" stroke-linecap="round" stroke-linejoin="round" fill="none"/><path d="M 434 43 L 433 41 L 432 39 L 432 36 L 431 33 L 430 30 L 428 28 L 426 28 L 424 27 L 422 30 L 421 35 L 421 43 L 421 51 L 421 58 L 421 62 L 420 63 L 418 63 L 415 62 L 413 61 L 413 58 L 415 55 L 419 52 L 424 47 L 430 43 L 435 40 L 438 40" stroke="#ffffff" stroke-width="2" stroke-linecap="round" stroke-linejoin="round" fill="none"/><path d="M 449 41 L 447 41 L 445 41 L 444 42 L 443 47 L 443 52 L 445 56 L 448 56 L 451 54 L 454 49 L 455 44 L 455 40 L 451 38 L 446 40 L 444 43 L 443 46" stroke="#ffffff" stroke-width="2" stroke-linecap="round" stroke-linejoin="round" fill="none"/><path d="M 392 47 L 392 48 L 391 48 L 391 47 L 391 46 L 392 46 L 392 45 L 393 44 L 394 43 L 395 42 L 396 42" stroke="#ffffff" stroke-width="2" stroke-linecap="round" stroke-linejoin="round" fill="none"/><path d="M 14 144 L 14 143 L 12 142 L 13 140 L 16 138 L 20 137 L 23 139 L 24 143 L 24 148 L 21 153 L 16 157 L 12 159 L 10 160 L 11 160 L 14 161 L 19 160 L 24 159 L 29 157 L 37 155" stroke="#ffffff" stroke-width="2" stroke-linecap="round" stroke-linejoin="round" fill="none"/><path d="M 55 141 L 55 140 L 53 137 L 52 133 L 50 131 L 49 129 L 48 128 L 46 128 L 45 128 L 43 131 L 42 137 L 42 145 L 42 152 L 43 159 L 42 163 L 40 165 L 38 166 L 36 163 L 36 159 L 37 154 L 39 150 L 43 146 L 49 143 L 57 140 L 59 140" stroke="#ffffff" stroke-width="2" stroke-linecap="round" stroke-linejoin="round" fill="none"/><path d="M 69 141 L 68 141 L 65 141 L 64 142 L 62 146 L 62 153 L 62 158 L 65 160 L 69 160 L 72 156 L 73 151 L 73 146 L 70 142 L 65 141 L 61 145 L 61 147" stroke="#ffffff" stroke-width="2" stroke-linecap="round" stroke-linejoin="round" fill="none"/><path d="M 92 147 L 91 147 L 90 146 L 91 144 L 95 141 L 100 139 L 102 138" stroke="#ffffff" stroke-width="2" stroke-linecap="round" stroke-linejoin="round" fill="none"/><path d="M 101 135 L 100 136 L 99 137 L 96 142 L 93 151 L 92 158 L 92 159" stroke="#ffffff" stroke-width="2" stroke-linecap="round" stroke-linejoin="round" fill="none"/><path d="M 109 141 L 110 139 L 111 138 L 113 137 L 115 137 L 116 137 L 117 137 L 115 137 L 113 140 L 110 144 L 108 149 L 106 155 L 104 160 L 102 162 L 100 162 L 99 161 L 100 159 L 104 156 L 110 154 L 112 153" stroke="#ffffff" stroke-width="2" stroke-linecap="round" stroke-linejoin="round" fill="none"/><path d="M 146 142 L 143 140 L 141 140 L 139 140 L 137 142 L 134 145 L 132 149 L 131 153 L 131 156 L 133 158 L 137 158 L 143 157 L 145 156" stroke="#ffffff" stroke-width="2" stroke-linecap="round" stroke-linejoin="round" fill="none"/><path d="M 162 144 L 160 143 L 161 141 L 165 138 L 169 137 L 172 137 L 173 137 L 172 139 L 170 141 L 167 145 L 165 149 L 163 155 L 164 160 L 170 162 L 175 162" stroke="#ffffff" stroke-width="2" stroke-linecap="round" stroke-linejoin="round" fill="none"/><path d="M 223 147 L 221 146 L 220 145 L 221 143 L 224 142 L 229 142 L 230 143 L 231 145 L 232 149 L 230 154 L 226 158 L 222 162 L 218 164 L 217 165 L 218 165 L 220 164 L 224 163 L 228 163 L 232 162 L 235 162 L 239 161 L 240 161" stroke="#ffffff" stroke-width="2" stroke-linecap="round" stroke-linejoin="round" fill="none"/><path d="M 253 138 L 254 138 L 253 138 L 252 139 L 251 142 L 251 147 L 251 150 L 253 152 L 258 152 L 262 152 L 263 153 L 261 156 L 257 160 L 253 162 L 249 164 L 247 164" stroke="#ffffff" stroke-width="2" stroke-linecap="round" stroke-linejoin="round" fill="none"/><path d="M 250 142 L 249 139 L 249 137 L 252 135 L 258 135 L 265 137 L 269 138" stroke="#ffffff" stroke-width="2" stroke-linecap="round" stroke-linejoin="round" fill="none"/><path d="M 282 138 L 279 138 L 278 139 L 276 142 L 276 149 L 276 154 L 279 157 L 282 155 L 286 151 L 289 146 L 290 141 L 288 136 L 284 134 L 280 133 L 276 137 L 275 142 L 275 144" stroke="#ffffff" stroke-width="2" stroke-linecap="round" stroke-linejoin="round" fill="none"/><path d="M 215 155 L 215 154 L 216 153 L 217 152 L 218 151 L 219 150 L 220 149 L 221 148 L 222 147 L 223 146 L 224 146" stroke="#ffffff" stroke-width="2" stroke-linecap="round" stroke-linejoin="round" fill="none"/><path d="M 326 144 L 325 142 L 325 141 L 327 139 L 330 139 L 332 139" stroke="#ffffff" stroke-width="2" stroke-linecap="round" stroke-linejoin="round" fill="none"/><path d="M 327 151 L 325 151 L 324 151 L 327 151 L 329 151" stroke="#ffffff" stroke-width="2" stroke-linecap="round" stroke-linejoin="round" fill="none"/><path d="M 379 126 L 378 126 L 376 125 L 375 125 L 374 130 L 373 138 L 373 147 L 372 154 L 372 156" stroke="#ffffff" stroke-width="2" stroke-linecap="round" stroke-linejoin="round" fill="none"/><path d="M 374 147 L 373 146 L 372 143 L 374 141 L 379 139 L 385 138 L 390 137 L 394 136" stroke="#ffffff" stroke-width="2" stroke-linecap="round" stroke-linejoin="round" fill="none"/><path d="M 395 122 L 395 121 L 393 119 L 392 120 L 390 127 L 388 139 L 387 150 L 387 158 L 387 160" stroke="#ffffff" stroke-width="2" stroke-linecap="round" stroke-linejoin="round" fill="none"/><path d="M 254 192 L 254 193 L 253 193 L 252 190 L 255 187 L 259 184 L 263 184 L 264 186 L 264 191 L 261 195 L 258 199 L 255 203 L 253 205 L 253 206 L 253 207 L 255 207 L 258 206 L 261 205 L 266 204 L 270 203 L 272 203" stroke="#ffffff" stroke-width="2" stroke-linecap="round" stroke-linejoin="round" fill="none"/><path d="M 316 189 L 315 187 L 316 186 L 320 184 L 323 184 L 324 184" stroke="#ffffff" stroke-width="2" stroke-linecap="round" stroke-linejoin="round" fill="none"/><path d="M 317 196 L 316 196 L 314 197 L 317 195 L 324 192" stroke="#ffffff" stroke-width="2" stroke-linecap="round" stroke-linejoin="round" fill="none"/><path d="M 377 181 L 376 181 L 375 181 L 374 185 L 372 195 L 371 205 L 371 212 L 371 215" stroke="#ffffff" stroke-width="2" stroke-linecap="round" stroke-linejoin="round" fill="none"/><path d="M 471 128 L 471 127 L 471 125 L 473 123 L 477 123 L 480 128 L 480 133 L 478 138 L 474 141 L 470 142 L 466 142 L 463 142 L 466 143 L 471 144 L 478 144 L 488 142 L 496 142 L 499 142" stroke="#ffffff" stroke-width="2" stroke-linecap="round" stroke-linejoin="round" fill="none"/><path d="M 509 126 L 508 125 L 504 124 L 502 127 L 500 134 L 499 141 L 502 144 L 507 144 L 511 141 L 514 136 L 515 131 L 515 126 L 512 124 L 508 125 L 504 129 L 501 134" stroke="#ffffff" stroke-width="2" stroke-linecap="round" stroke-linejoin="round" fill="none"/><path d="M 538 115 L 538 116 L 535 121 L 529 129 L 525 134 L 524 136" stroke="#ffffff" stroke-width="2" stroke-linecap="round" stroke-linejoin="round" fill="none"/><path d="M 546 121 L 546 120 L 546 118 L 546 116 L 549 115 L 554 116 L 556 116" stroke="#ffffff" stroke-width="2" stroke-linecap="round" stroke-linejoin="round" fill="none"/><path d="M 538 142 L 536 141 L 536 139 L 539 135 L 545 131 L 551 130 L 555 130 L 558 132 L 558 134 L 557 136 L 555 138 L 554 140 L 552 140 L 551 140 L 550 139 L 549 137 L 548 134 L 548 133 L 547 132 L 546 135 L 543 142 L 538 149 L 534 156" stroke="#ffffff" stroke-width="2" stroke-linecap="round" stroke-linejoin="round" fill="none"/><path d="M 27 268 L 25 268 L 24 268 L 27 265 L 35 260 L 43 255 L 46 253" stroke="#ffffff" stroke-width="2" stroke-linecap="round" stroke-linejoin="round" fill="none"/><path d="M 26 268 L 25 268 L 23 268 L 22 270 L 22 277 L 23 286 L 25 295 L 29 298 L 34 297 L 38 292 L 39 289" stroke="#ffffff" stroke-width="2" stroke-linecap="round" stroke-linejoin="round" fill="none"/><path d="M 27 283 L 24 283 L 23 282 L 25 281 L 32 279 L 38 277" stroke="#ffffff" stroke-width="2" stroke-linecap="round" stroke-linejoin="round" fill="none"/><path d="M 54 271 L 52 271 L 49 274 L 48 278 L 48 283 L 50 284 L 52 284 L 53 281 L 55 276 L 56 273 L 56 271 L 56 274 L 56 278 L 56 282 L 56 283 L 56 282 L 59 277 L 61 273 L 62 272 L 63 274 L 63 278 L 63 281 L 63 282" stroke="#ffffff" stroke-width="2" stroke-linecap="round" stroke-linejoin="round" fill="none"/><path d="M 73 276 L 72 276 L 71 276 L 70 278 L 70 283 L 70 284" stroke="#ffffff" stroke-width="2" stroke-linecap="round" stroke-linejoin="round" fill="none"/><path d="M 76 255 L 76 254 L 74 253 L 73 256 L 73 263 L 73 265" stroke="#ffffff" stroke-width="2" stroke-linecap="round" stroke-linejoin="round" fill="none"/><path d="M 94 249 L 92 247 L 91 246 L 91 247 L 91 254 L 92 264 L 91 274 L 90 280" stroke="#ffffff" stroke-width="2" stroke-linecap="round" stroke-linejoin="round" fill="none"/><path d="M 99 264 L 99 265 L 102 267 L 103 268" stroke="#ffffff" stroke-width="2" stroke-linecap="round" stroke-linejoin="round" fill="none"/><path d="M 114 258 L 113 258 L 111 259 L 108 263 L 105 273 L 100 285 L 95 296 L 89 302 L 87 304" stroke="#ffffff" stroke-width="2" stroke-linecap="round" stroke-linejoin="round" fill="none"/><path d="M 132 267 L 131 267 L 133 266 L 137 264 L 142 262 L 143 261" stroke="#ffffff" stroke-width="2" stroke-linecap="round" stroke-linejoin="round" fill="none"/><path d="M 133 279 L 131 279 L 132 278 L 136 275 L 140 273 L 143 271" stroke="#ffffff" stroke-width="2" stroke-linecap="round" stroke-linejoin="round" fill="none"/><path d="M 142 255 L 141 253 L 140 252 L 140 254 L 139 261 L 138 272 L 138 283 L 139 289 L 142 290 L 147 285 L 152 279" stroke="#ffffff" stroke-width="2" stroke-linecap="round" stroke-linejoin="round" fill="none"/><path d="M 166 267 L 164 266 L 164 264 L 169 261 L 177 257 L 184 253 L 187 252 L 185 252 L 183 252 L 180 255 L 177 260 L 175 268 L 174 279 L 175 286 L 177 290 L 179 290" stroke="#ffffff" stroke-width="2" stroke-linecap="round" stroke-linejoin="round" fill="none"/><path d="M 198 274 L 196 274 L 195 274 L 194 277 L 193 282 L 193 286 L 194 288" stroke="#ffffff" stroke-width="2" stroke-linecap="round" stroke-linejoin="round" fill="none"/><path d="M 199 253 L 198 252 L 197 250 L 197 255 L 198 259" stroke="#ffffff" stroke-width="2" stroke-linecap="round" stroke-linejoin="round" fill="none"/><path d="M 208 271 L 206 271 L 206 270 L 210 269 L 218 267 L 224 264" stroke="#ffffff" stroke-width="2" stroke-linecap="round" stroke-linejoin="round" fill="none"/><path d="M 229 250 L 228 249 L 225 247 L 222 246 L 220 246 L 219 249 L 218 256 L 217 268 L 214 282 L 214 290 L 215 292" stroke="#ffffff" stroke-width="2" stroke-linecap="round" stroke-linejoin="round" fill="none"/><path d="M 229 268 L 227 268 L 229 267 L 234 265 L 241 263 L 242 262" stroke="#ffffff" stroke-width="2" stroke-linecap="round" stroke-linejoin="round" fill="none"/><path d="M 247 253 L 246 253 L 242 250 L 238 250 L 235 251 L 234 255 L 234 261 L 233 271 L 231 280 L 231 285 L 233 287 L 234 287" stroke="#ffffff" stroke-width="2" stroke-linecap="round" stroke-linejoin="round" fill="none"/><path d="M 264 272 L 263 272 L 259 269 L 257 267 L 255 267 L 253 268 L 253 272 L 253 275 L 254 277 L 256 276 L 259 274 L 261 271 L 261 269 L 261 268 L 260 269 L 259 273 L 258 276 L 258 279" stroke="#ffffff" stroke-width="2" stroke-linecap="round" stroke-linejoin="round" fill="none"/><path d="M 271 265 L 269 265 L 266 268 L 265 272 L 264 276 L 264 278 L 265 278 L 267 275 L 269 271 L 271 267 L 273 265 L 275 265 L 275 269 L 275 275 L 275 279 L 275 280" stroke="#ffffff" stroke-width="2" stroke-linecap="round" stroke-linejoin="round" fill="none"/><path d="M 289 261 L 288 261 L 287 262 L 288 266 L 291 269 L 295 272 L 296 273" stroke="#ffffff" stroke-width="2" stroke-linecap="round" stroke-linejoin="round" fill="none"/><path d="M 302 259 L 300 260 L 299 262 L 299 267 L 296 277 L 290 288 L 282 298 L 273 304 L 268 307" stroke="#ffffff" stroke-width="2" stroke-linecap="round" stroke-linejoin="round" fill="none"/><path d="M 335 279 L 335 278 L 334 275 L 335 270 L 339 262 L 346 254 L 355 247 L 360 246 L 360 251 L 358 257 L 355 262 L 353 265 L 352 266" stroke="#ffffff" stroke-width="2" stroke-linecap="round" stroke-linejoin="round" fill="none"/><path d="M 345 243 L 344 243 L 343 242 L 342 242 L 342 250 L 344 265 L 347 277 L 350 281" stroke="#ffffff" stroke-width="2" stroke-linecap="round" stroke-linejoin="round" fill="none"/><path d="M 354 235 L 353 234 L 352 234 L 352 235 L 354 243 L 356 254" stroke="#ffffff" stroke-width="2" stroke-linecap="round" stroke-linejoin="round" fill="none"/><path d="M 369 270 L 368 270 L 367 267 L 368 265 L 372 263 L 377 263 L 378 266 L 376 271 L 372 275 L 371 277" stroke="#ffffff" stroke-width="2" stroke-linecap="round" stroke-linejoin="round" fill="none"/><path d="M 393 260 L 392 260 L 389 259 L 391 255 L 399 250 L 405 246 L 409 245 L 410 245" stroke="#ffffff" stroke-width="2" stroke-linecap="round" stroke-linejoin="round" fill="none"/><path d="M 404 237 L 403 235 L 402 235 L 401 241 L 400 251 L 399 263 L 399 270 L 399 273 L 399 274" stroke="#ffffff" stroke-width="2" stroke-linecap="round" stroke-linejoin="round" fill="none"/><path d="M 410 260 L 410 259 L 409 256 L 410 253 L 414 252 L 418 251" stroke="#ffffff" stroke-width="2" stroke-linecap="round" stroke-linejoin="round" fill="none"/><path d="M 411 268 L 409 268 L 408 266 L 411 263 L 419 260" stroke="#ffffff" stroke-width="2" stroke-linecap="round" stroke-linejoin="round" fill="none"/></svg>
