<svg xmlns="http://www.w3.org/2000/svg" width="615" height="154" viewBox="0 0 615 154"><path d="M 14 28 L 14 27 L 13 25 L 14 23 L 17 22 L 21 23 L 23 26 L 24 30 L 23 35 L 20 38 L 16 41 L 13 44 L 11 45 L 10 45 L 12 45 L 16 44 L 21 42 L 28 41 L 36 39 L 41 39" stroke="#ffffff" stroke-width="2" stroke-linecap="round" stroke-linejoin="round" fill="none"/><path d="M 58 24 L 56 22 L 55 20 L 55 18 L 55 16 L 55 15 L 54 15 L 52 15 L 48 17 L 46 21 L 45 24 L 46 26 L 50 26 L 55 23 L 57 21 L 58 19 L 57 19 L 56 21 L 55 24 L 53 30 L 52 37 L 51 42 L 52 45" stroke="#ffffff" stroke-width="2" stroke-linecap="round" stroke-linejoin="round" fill="none"/><path d="M 88 12 L 87 11 L 86 10 L 85 11 L 82 19 L 77 32 L 70 48 L 64 60 L 61 67 L 60 72" stroke="#ffffff" stroke-width="2" stroke-linecap="round" stroke-linejoin="round" fill="none"/><path d="M 94 36 L 93 35 L 92 34 L 91 34 L 91 36 L 91 43 L 90 52 L 90 57 L 90 61" stroke="#ffffff" stroke-width="2" stroke-linecap="round" stroke-linejoin="round" fill="none"/><path d="M 107 33 L 107 32 L 107 31 L 106 32 L 106 38 L 106 47 L 106 55 L 105 59" stroke="#ffffff" stroke-width="2" stroke-linecap="round" stroke-linejoin="round" fill="none"/><path d="M 177 28 L 177 27 L 177 25 L 176 24 L 173 23 L 169 25 L 165 32 L 163 41 L 164 47 L 169 48 L 177 45 L 180 43" stroke="#ffffff" stroke-width="2" stroke-linecap="round" stroke-linejoin="round" fill="none"/><path d="M 209 17 L 207 17 L 205 17 L 202 20 L 198 30 L 196 42 L 197 48 L 201 49 L 206 46 L 210 41 L 211 36 L 211 33 L 208 32 L 204 35 L 199 40 L 197 45" stroke="#ffffff" stroke-width="2" stroke-linecap="round" stroke-linejoin="round" fill="none"/><path d="M 232 28 L 229 28 L 227 28 L 226 31 L 226 35 L 227 39 L 230 40 L 233 39 L 236 35 L 236 32 L 235 30 L 232 29 L 228 31 L 227 34" stroke="#ffffff" stroke-width="2" stroke-linecap="round" stroke-linejoin="round" fill="none"/><path d="M 272 12 L 271 12 L 268 12 L 263 19 L 255 35 L 247 49 L 243 59 L 241 65" stroke="#ffffff" stroke-width="2" stroke-linecap="round" stroke-linejoin="round" fill="none"/><path d="M 295 18 L 294 18 L 292 18 L 290 18 L 287 25 L 284 39 L 283 50 L 283 56 L 283 57" stroke="#ffffff" stroke-width="2" stroke-linecap="round" stroke-linejoin="round" fill="none"/><path d="M 287 46 L 287 45 L 287 42 L 290 37 L 294 34 L 299 33 L 304 31 L 307 29" stroke="#ffffff" stroke-width="2" stroke-linecap="round" stroke-linejoin="round" fill="none"/><path d="M 306 18 L 305 18 L 305 17 L 305 19 L 303 27 L 300 40 L 297 51 L 297 54" stroke="#ffffff" stroke-width="2" stroke-linecap="round" stroke-linejoin="round" fill="none"/><path d="M 329 24 L 327 21 L 326 19 L 324 18 L 323 18 L 320 21 L 319 24 L 318 28 L 319 33 L 321 37 L 321 41 L 320 43 L 318 43 L 313 42 L 311 38 L 311 36" stroke="#ffffff" stroke-width="2" stroke-linecap="round" stroke-linejoin="round" fill="none"/><path d="M 343 22 L 340 23 L 337 26 L 336 35 L 335 46 L 334 54 L 334 58 L 333 59" stroke="#ffffff" stroke-width="2" stroke-linecap="round" stroke-linejoin="round" fill="none"/><path d="M 334 35 L 334 34 L 335 27 L 339 22 L 345 20 L 348 22 L 348 26 L 347 31 L 343 37 L 339 42 L 335 44 L 333 45" stroke="#ffffff" stroke-width="2" stroke-linecap="round" stroke-linejoin="round" fill="none"/><path d="M 369 21 L 368 20 L 366 20 L 365 22 L 365 27 L 365 31 L 367 33 L 371 34 L 376 35 L 378 36 L 378 37 L 374 40 L 369 43 L 365 45 L 361 45 L 359 44" stroke="#ffffff" stroke-width="2" stroke-linecap="round" stroke-linejoin="round" fill="none"/><path d="M 364 24 L 364 23 L 366 21 L 372 20 L 382 19 L 387 20" stroke="#ffffff" stroke-width="2" stroke-linecap="round" stroke-linejoin="round" fill="none"/><path d="M 401 18 L 397 18 L 394 18 L 392 18 L 392 20 L 393 23 L 395 26 L 398 29 L 401 32 L 402 34 L 403 36 L 402 38 L 398 39 L 395 40 L 391 41 L 388 39" stroke="#ffffff" stroke-width="2" stroke-linecap="round" stroke-linejoin="round" fill="none"/><path d="M 394 19 L 393 18 L 393 17 L 399 16 L 409 16 L 420 16" stroke="#ffffff" stroke-width="2" stroke-linecap="round" stroke-linejoin="round" fill="none"/><path d="M 27 111 L 25 112 L 25 111 L 29 108 L 35 103 L 42 98 L 46 97" stroke="#ffffff" stroke-width="2" stroke-linecap="round" stroke-linejoin="round" fill="none"/><path d="M 39 103 L 37 104 L 35 104 L 34 106 L 34 111 L 35 117 L 36 118" stroke="#ffffff" stroke-width="2" stroke-linecap="round" stroke-linejoin="round" fill="none"/><path d="M 47 105 L 46 104 L 45 104 L 43 106 L 40 111 L 38 117 L 37 119" stroke="#ffffff" stroke-width="2" stroke-linecap="round" stroke-linejoin="round" fill="none"/><path d="M 25 132 L 25 133 L 24 133 L 26 130 L 33 123 L 44 113 L 51 107 L 53 105" stroke="#ffffff" stroke-width="2" stroke-linecap="round" stroke-linejoin="round" fill="none"/><path d="M 40 90 L 38 90 L 38 92 L 39 101 L 41 115 L 42 127 L 42 136 L 42 143 L 42 144" stroke="#ffffff" stroke-width="2" stroke-linecap="round" stroke-linejoin="round" fill="none"/><path d="M 44 121 L 41 121 L 39 121 L 36 127 L 33 134 L 31 141" stroke="#ffffff" stroke-width="2" stroke-linecap="round" stroke-linejoin="round" fill="none"/><path d="M 35 126 L 37 125 L 41 123 L 47 123 L 57 123 L 59 122" stroke="#ffffff" stroke-width="2" stroke-linecap="round" stroke-linejoin="round" fill="none"/><path d="M 77 92 L 76 92 L 73 90 L 72 90 L 71 95 L 70 104 L 69 112 L 69 118" stroke="#ffffff" stroke-width="2" stroke-linecap="round" stroke-linejoin="round" fill="none"/><path d="M 70 113 L 71 109 L 73 104 L 79 99 L 84 98 L 86 99" stroke="#ffffff" stroke-width="2" stroke-linecap="round" stroke-linejoin="round" fill="none"/><path d="M 79 109 L 77 109 L 76 109 L 75 111 L 76 115 L 77 119" stroke="#ffffff" stroke-width="2" stroke-linecap="round" stroke-linejoin="round" fill="none"/><path d="M 79 115 L 78 113 L 78 111 L 81 107 L 87 104 L 91 103" stroke="#ffffff" stroke-width="2" stroke-linecap="round" stroke-linejoin="round" fill="none"/><path d="M 73 132 L 71 132 L 71 131 L 75 127 L 81 123 L 88 119 L 89 117" stroke="#ffffff" stroke-width="2" stroke-linecap="round" stroke-linejoin="round" fill="none"/><path d="M 83 101 L 82 99 L 82 98 L 82 102 L 82 113 L 82 127 L 81 138" stroke="#ffffff" stroke-width="2" stroke-linecap="round" stroke-linejoin="round" fill="none"/><path d="M 107 106 L 107 105 L 107 103 L 109 102 L 112 101 L 116 102 L 116 106 L 114 110 L 111 114 L 109 115 L 108 114 L 110 112 L 113 112 L 116 114 L 117 119 L 115 124 L 110 128 L 106 129 L 104 129" stroke="#ffffff" stroke-width="2" stroke-linecap="round" stroke-linejoin="round" fill="none"/><path d="M 140 97 L 139 96 L 137 95 L 136 94 L 136 98 L 134 109 L 133 120 L 132 128 L 132 130" stroke="#ffffff" stroke-width="2" stroke-linecap="round" stroke-linejoin="round" fill="none"/><path d="M 138 97 L 137 95 L 137 91 L 137 88 L 140 86 L 144 86 L 147 86 L 150 89 L 151 95 L 151 104 L 150 113 L 149 120 L 149 124 L 149 125" stroke="#ffffff" stroke-width="2" stroke-linecap="round" stroke-linejoin="round" fill="none"/><path d="M 143 103 L 140 102 L 139 100 L 139 98 L 143 96 L 145 96" stroke="#ffffff" stroke-width="2" stroke-linecap="round" stroke-linejoin="round" fill="none"/><path d="M 142 109 L 139 110 L 138 110 L 139 109 L 144 106" stroke="#ffffff" stroke-width="2" stroke-linecap="round" stroke-linejoin="round" fill="none"/><path d="M 183 97 L 182 96 L 181 94 L 183 91 L 187 88 L 191 87 L 193 87" stroke="#ffffff" stroke-width="2" stroke-linecap="round" stroke-linejoin="round" fill="none"/><path d="M 186 97 L 184 97 L 183 97 L 183 99 L 183 103 L 184 107" stroke="#ffffff" stroke-width="2" stroke-linecap="round" stroke-linejoin="round" fill="none"/><path d="M 187 102 L 187 101 L 188 97 L 190 94 L 191 93 L 192 96 L 192 100 L 192 103" stroke="#ffffff" stroke-width="2" stroke-linecap="round" stroke-linejoin="round" fill="none"/><path d="M 184 110 L 183 110 L 182 109 L 183 109 L 185 109" stroke="#ffffff" stroke-width="2" stroke-linecap="round" stroke-linejoin="round" fill="none"/><path d="M 192 104 L 190 104 L 189 105 L 189 108 L 190 112" stroke="#ffffff" stroke-width="2" stroke-linecap="round" stroke-linejoin="round" fill="none"/><path d="M 193 107 L 192 108 L 190 110 L 187 116 L 185 122" stroke="#ffffff" stroke-width="2" stroke-linecap="round" stroke-linejoin="round" fill="none"/><path d="M 178 126 L 178 125 L 177 124 L 178 121 L 184 116 L 194 110 L 201 105" stroke="#ffffff" stroke-width="2" stroke-linecap="round" stroke-linejoin="round" fill="none"/><path d="M 210 86 L 210 84 L 209 83 L 208 85 L 205 89 L 203 93 L 203 95" stroke="#ffffff" stroke-width="2" stroke-linecap="round" stroke-linejoin="round" fill="none"/><path d="M 203 93 L 203 91 L 203 90 L 203 91 L 203 96 L 202 103 L 201 110 L 201 114 L 201 116" stroke="#ffffff" stroke-width="2" stroke-linecap="round" stroke-linejoin="round" fill="none"/><path d="M 203 104 L 203 101 L 202 97 L 203 94 L 206 92 L 209 92 L 211 92 L 212 94 L 212 97 L 213 100 L 213 105 L 212 107" stroke="#ffffff" stroke-width="2" stroke-linecap="round" stroke-linejoin="round" fill="none"/><path d="M 203 109 L 202 107 L 202 106 L 204 104 L 208 102 L 212 102 L 213 102 L 212 104 L 210 106 L 209 108 L 207 112 L 205 114 L 203 117 L 201 121 L 199 123 L 198 124" stroke="#ffffff" stroke-width="2" stroke-linecap="round" stroke-linejoin="round" fill="none"/><path d="M 207 114 L 208 114 L 209 114 L 212 114 L 216 114 L 221 114 L 223 114" stroke="#ffffff" stroke-width="2" stroke-linecap="round" stroke-linejoin="round" fill="none"/><path d="M 195 92 L 194 91 L 194 89 L 198 87 L 205 83 L 211 80 L 213 80" stroke="#ffffff" stroke-width="2" stroke-linecap="round" stroke-linejoin="round" fill="none"/><path d="M 232 106 L 231 106 L 231 105 L 232 100 L 237 96 L 243 93 L 247 94 L 247 98 L 246 104 L 245 108 L 243 109 L 241 110 L 240 108 L 239 104 L 239 97 L 241 89 L 241 84 L 242 83 L 241 84 L 240 91 L 237 101 L 234 110 L 234 117 L 234 118" stroke="#ffffff" stroke-width="2" stroke-linecap="round" stroke-linejoin="round" fill="none"/><path d="M 255 84 L 254 82 L 255 83 L 259 87 L 266 92" stroke="#ffffff" stroke-width="2" stroke-linecap="round" stroke-linejoin="round" fill="none"/><path d="M 278 80 L 276 79 L 276 80 L 277 85 L 277 87" stroke="#ffffff" stroke-width="2" stroke-linecap="round" stroke-linejoin="round" fill="none"/><path d="M 273 91 L 272 91 L 270 90 L 269 91 L 267 96 L 266 102 L 266 107 L 267 108 L 271 107 L 276 103 L 280 102 L 282 102 L 282 106 L 279 113 L 273 119 L 267 123 L 265 124" stroke="#ffffff" stroke-width="2" stroke-linecap="round" stroke-linejoin="round" fill="none"/><path d="M 310 100 L 309 101 L 309 99 L 312 96 L 315 93 L 317 92 L 319 93 L 319 98 L 318 103 L 317 108 L 314 111 L 312 113 L 310 115 L 309 115 L 310 115 L 311 114 L 313 113 L 316 113 L 321 112 L 326 112 L 332 111 L 336 111" stroke="#ffffff" stroke-width="2" stroke-linecap="round" stroke-linejoin="round" fill="none"/><path d="M 342 94 L 341 93 L 340 92 L 340 91 L 341 94 L 342 100 L 343 105 L 344 108 L 346 107 L 348 102 L 351 96 L 353 93 L 354 94 L 355 100 L 356 105 L 358 107 L 360 106 L 362 102 L 364 97 L 365 91 L 365 90" stroke="#ffffff" stroke-width="2" stroke-linecap="round" stroke-linejoin="round" fill="none"/><path d="M 378 97 L 376 98 L 375 98 L 377 96 L 381 93 L 385 90 L 386 87 L 386 86 L 383 86 L 379 87 L 375 92 L 373 98 L 373 104 L 377 107 L 382 105 L 387 102" stroke="#ffffff" stroke-width="2" stroke-linecap="round" stroke-linejoin="round" fill="none"/><path d="M 391 95 L 389 97 L 388 97 L 390 96 L 395 94 L 401 91 L 403 88 L 402 86 L 398 86 L 393 90 L 388 96 L 387 102 L 390 106 L 395 105 L 402 101 L 409 94 L 410 92" stroke="#ffffff" stroke-width="2" stroke-linecap="round" stroke-linejoin="round" fill="none"/><path d="M 418 66 L 415 66 L 412 71 L 409 85 L 406 99 L 406 107 L 409 111" stroke="#ffffff" stroke-width="2" stroke-linecap="round" stroke-linejoin="round" fill="none"/><path d="M 423 87 L 420 86 L 417 85 L 414 85 L 411 86 L 409 89 L 406 93 L 405 97 L 405 99 L 409 99 L 417 97 L 427 94" stroke="#ffffff" stroke-width="2" stroke-linecap="round" stroke-linejoin="round" fill="none"/><path d="M 439 88 L 436 86 L 434 85 L 433 84 L 431 85 L 430 88 L 429 92 L 429 94 L 429 96 L 431 97 L 432 98 L 433 100 L 434 101 L 433 101 L 429 101 L 425 101" stroke="#ffffff" stroke-width="2" stroke-linecap="round" stroke-linejoin="round" fill="none"/><path d="M 484 72 L 481 70 L 479 70 L 478 71 L 476 78 L 475 89 L 475 98 L 476 103" stroke="#ffffff" stroke-width="2" stroke-linecap="round" stroke-linejoin="round" fill="none"/><path d="M 476 78 L 476 74 L 476 72 L 476 70 L 477 69 L 480 69 L 484 69 L 489 70 L 493 72 L 493 78 L 492 84 L 489 90 L 488 94" stroke="#ffffff" stroke-width="2" stroke-linecap="round" stroke-linejoin="round" fill="none"/><path d="M 478 92 L 476 90 L 475 89 L 475 88 L 475 87 L 476 87 L 477 86 L 482 85 L 488 85 L 489 85" stroke="#ffffff" stroke-width="2" stroke-linecap="round" stroke-linejoin="round" fill="none"/><path d="M 479 102 L 475 103 L 476 103 L 482 101 L 484 101" stroke="#ffffff" stroke-width="2" stroke-linecap="round" stroke-linejoin="round" fill="none"/><path d="M 507 79 L 506 78 L 506 75 L 512 71 L 520 67 L 528 65 L 533 63" stroke="#ffffff" stroke-width="2" stroke-linecap="round" stroke-linejoin="round" fill="none"/><path d="M 522 61 L 519 59 L 519 62 L 519 72 L 519 85 L 518 97 L 517 104 L 517 107" stroke="#ffffff" stroke-width="2" stroke-linecap="round" stroke-linejoin="round" fill="none"/><path d="M 525 76 L 524 74 L 521 72 L 517 75 L 511 82 L 505 89 L 499 95 L 498 98" stroke="#ffffff" stroke-width="2" stroke-linecap="round" stroke-linejoin="round" fill="none"/><path d="M 515 79 L 515 78 L 516 76 L 520 74 L 527 73 L 534 75 L 535 76" stroke="#ffffff" stroke-width="2" stroke-linecap="round" stroke-linejoin="round" fill="none"/><path d="M 510 99 L 505 100 L 503 100 L 507 99 L 515 97 L 525 93 L 531 90" stroke="#ffffff" stroke-width="2" stroke-linecap="round" stroke-linejoin="round" fill="none"/><path d="M 551 76 L 550 76 L 545 75 L 543 75 L 542 79 L 543 83 L 545 85" stroke="#ffffff" stroke-width="2" stroke-linecap="round" stroke-linejoin="round" fill="none"/><path d="M 558 69 L 556 67 L 554 69 L 552 76 L 547 89 L 541 101 L 537 107 L 535 110" stroke="#ffffff" stroke-width="2" stroke-linecap="round" stroke-linejoin="round" fill="none"/><path d="M 564 69 L 565 66 L 565 61 L 567 59 L 570 59 L 575 60 L 578 63 L 578 67 L 576 70" stroke="#ffffff" stroke-width="2" stroke-linecap="round" stroke-linejoin="round" fill="none"/><path d="M 567 71 L 568 69 L 569 67 L 573 66 L 575 66" stroke="#ffffff" stroke-width="2" stroke-linecap="round" stroke-linejoin="round" fill="none"/><path d="M 571 72 L 570 71 L 570 70 L 571 69 L 573 69 L 574 69" stroke="#ffffff" stroke-width="2" stroke-linecap="round" stroke-linejoin="round" fill="none"/><path d="M 569 76 L 565 78 L 560 82 L 558 87 L 557 91 L 557 93" stroke="#ffffff" stroke-width="2" stroke-linecap="round" stroke-linejoin="round" fill="none"/><path d="M 560 88 L 560 83 L 563 77 L 571 72 L 578 70 L 581 71 L 582 73 L 582 76 L 580 80 L 576 84" stroke="#ffffff" stroke-width="2" stroke-linecap="round" stroke-linejoin="round" fill="none"/><path d="M 566 85 L 565 85 L 564 85 L 563 86 L 562 92 L 561 97 L 561 102 L 561 103 L 560 102 L 560 98 L 560 94 L 562 89 L 566 84 L 570 80 L 573 79 L 575 79 L 576 81 L 575 85 L 572 90 L 569 95 L 567 97 L 566 98 L 565 95 L 565 90 L 566 85 L 568 80 L 570 77 L 571 77 L 571 82 L 569 89 L 566 100 L 560 113 L 557 122 L 555 128 L 555 130" stroke="#ffffff" stroke-width="2" stroke-linecap="round" stroke-linejoin="round" fill="none"/><path d="M 600 79 L 600 78 L 600 75 L 601 74 L 603 75 L 604 79 L 605 83 L 604 87 L 602 89 L 600 90 L 598 89 L 597 88 L 598 88 L 601 91 L 602 96 L 603 102 L 600 107 L 595 110 L 591 110 L 588 109 L 588 105 L 590 102 L 594 100 L 598 100 L 601 101 L 604 103" stroke="#ffffff" stroke-width="2" stroke-linecap="round" stroke-linejoin="round" fill="none"/></svg>
