<svg xmlns="http://www.w3.org/2000/svg" width="654" height="275" viewBox="0 0 654 275"><path d="M 13 32 L 12 29 L 10 27 L 10 28 L 10 34 L 11 43 L 11 52 L 11 59 L 12 63" stroke="#ffffff" stroke-width="2" stroke-linecap="round" stroke-linejoin="round" fill="none"/><path d="M 43 40 L 41 38 L 39 35 L 39 31 L 38 27 L 38 24 L 37 22 L 35 20 L 34 20 L 32 22 L 31 28 L 30 35 L 31 41 L 32 46 L 34 49 L 34 51 L 33 52 L 30 51 L 28 49 L 27 47 L 27 45 L 29 42 L 34 38 L 41 32" stroke="#ffffff" stroke-width="2" stroke-linecap="round" stroke-linejoin="round" fill="none"/><path d="M 72 16 L 72 15 L 71 16 L 67 22 L 62 35 L 55 50 L 47 65 L 40 77 L 38 87" stroke="#ffffff" stroke-width="2" stroke-linecap="round" stroke-linejoin="round" fill="none"/><path d="M 72 54 L 71 53 L 69 53 L 68 54 L 67 59 L 67 66 L 68 71" stroke="#ffffff" stroke-width="2" stroke-linecap="round" stroke-linejoin="round" fill="none"/><path d="M 88 48 L 85 49 L 83 50 L 83 52 L 84 57 L 87 60 L 90 61 L 93 61 L 94 57 L 94 52 L 94 48 L 92 46 L 89 46 L 86 50 L 85 51" stroke="#ffffff" stroke-width="2" stroke-linecap="round" stroke-linejoin="round" fill="none"/><path d="M 154 32 L 152 30 L 149 29 L 146 29 L 142 32 L 138 38 L 137 45 L 138 53 L 144 55 L 154 52" stroke="#ffffff" stroke-width="2" stroke-linecap="round" stroke-linejoin="round" fill="none"/><path d="M 181 29 L 180 30 L 179 30 L 177 32 L 176 36 L 177 40 L 180 43 L 185 43 L 189 44 L 190 44 L 189 46 L 186 48 L 181 49 L 177 51 L 175 51" stroke="#ffffff" stroke-width="2" stroke-linecap="round" stroke-linejoin="round" fill="none"/><path d="M 179 37 L 179 34 L 179 31 L 181 29 L 186 28 L 193 29" stroke="#ffffff" stroke-width="2" stroke-linecap="round" stroke-linejoin="round" fill="none"/><path d="M 216 29 L 215 29 L 212 28 L 210 28 L 209 31 L 210 37 L 212 43 L 215 46 L 219 45 L 221 41 L 223 36 L 223 30 L 223 25 L 221 22 L 217 23 L 211 28 L 209 30" stroke="#ffffff" stroke-width="2" stroke-linecap="round" stroke-linejoin="round" fill="none"/><path d="M 269 11 L 268 10 L 266 10 L 264 15 L 260 25 L 252 39 L 243 51 L 238 60 L 237 63" stroke="#ffffff" stroke-width="2" stroke-linecap="round" stroke-linejoin="round" fill="none"/><path d="M 282 25 L 280 24 L 279 24 L 278 27 L 277 34 L 277 42 L 277 49 L 277 52 L 277 53" stroke="#ffffff" stroke-width="2" stroke-linecap="round" stroke-linejoin="round" fill="none"/><path d="M 278 43 L 277 43 L 276 41 L 276 39 L 280 37 L 286 34 L 292 32 L 293 31" stroke="#ffffff" stroke-width="2" stroke-linecap="round" stroke-linejoin="round" fill="none"/><path d="M 294 22 L 293 22 L 292 22 L 291 26 L 290 34 L 289 42 L 289 47 L 290 48" stroke="#ffffff" stroke-width="2" stroke-linecap="round" stroke-linejoin="round" fill="none"/><path d="M 318 28 L 315 26 L 314 24 L 312 22 L 312 21 L 311 21 L 310 22 L 309 23 L 308 26 L 308 30 L 309 34 L 310 38 L 310 41 L 310 42 L 306 42 L 302 41 L 300 38 L 300 35" stroke="#ffffff" stroke-width="2" stroke-linecap="round" stroke-linejoin="round" fill="none"/><path d="M 333 25 L 332 26 L 330 26 L 329 27 L 328 33 L 328 42 L 328 50 L 328 56 L 328 57" stroke="#ffffff" stroke-width="2" stroke-linecap="round" stroke-linejoin="round" fill="none"/><path d="M 327 34 L 325 30 L 325 28 L 328 25 L 333 23 L 338 24 L 339 28 L 338 33 L 335 37 L 331 40 L 328 40" stroke="#ffffff" stroke-width="2" stroke-linecap="round" stroke-linejoin="round" fill="none"/><path d="M 369 21 L 369 20 L 368 19 L 367 19 L 366 19 L 364 20 L 361 23 L 357 26 L 354 29 L 353 32 L 353 34 L 356 35 L 361 36 L 367 36 L 372 36" stroke="#ffffff" stroke-width="2" stroke-linecap="round" stroke-linejoin="round" fill="none"/><path d="M 367 21 L 364 20 L 363 19 L 362 21 L 361 29 L 359 40 L 357 49 L 356 55 L 357 57" stroke="#ffffff" stroke-width="2" stroke-linecap="round" stroke-linejoin="round" fill="none"/><path d="M 383 23 L 381 22 L 379 21 L 378 20 L 378 23 L 378 27 L 378 31 L 378 34 L 380 35 L 383 35 L 385 36 L 387 38 L 388 40 L 389 41 L 388 42 L 385 44 L 380 45 L 377 45" stroke="#ffffff" stroke-width="2" stroke-linecap="round" stroke-linejoin="round" fill="none"/><path d="M 378 24 L 378 23 L 385 23 L 395 24" stroke="#ffffff" stroke-width="2" stroke-linecap="round" stroke-linejoin="round" fill="none"/><path d="M 136 93 L 136 92 L 133 92 L 128 95 L 123 99 L 120 102 L 119 104 L 119 105 L 120 107 L 123 109 L 128 110 L 133 109 L 138 108" stroke="#ffffff" stroke-width="2" stroke-linecap="round" stroke-linejoin="round" fill="none"/><path d="M 136 94 L 136 92 L 135 89 L 134 93 L 132 104 L 129 116 L 128 126" stroke="#ffffff" stroke-width="2" stroke-linecap="round" stroke-linejoin="round" fill="none"/><path d="M 139 116 L 139 117" stroke="#ffffff" stroke-width="2" stroke-linecap="round" stroke-linejoin="round" fill="none"/><path d="M 161 95 L 160 94 L 158 93 L 158 96 L 158 99 L 159 102 L 161 105 L 164 107 L 167 109 L 170 111 L 170 113 L 169 114 L 165 116 L 160 116 L 157 115" stroke="#ffffff" stroke-width="2" stroke-linecap="round" stroke-linejoin="round" fill="none"/><path d="M 159 100 L 158 98 L 158 96 L 160 94 L 166 94 L 175 94 L 177 94" stroke="#ffffff" stroke-width="2" stroke-linecap="round" stroke-linejoin="round" fill="none"/><path d="M 284 80 L 284 79 L 284 74 L 284 72 L 282 80 L 277 94 L 274 106 L 274 112" stroke="#ffffff" stroke-width="2" stroke-linecap="round" stroke-linejoin="round" fill="none"/><path d="M 280 96 L 279 92 L 282 89 L 289 84 L 299 81 L 306 80" stroke="#ffffff" stroke-width="2" stroke-linecap="round" stroke-linejoin="round" fill="none"/><path d="M 290 93 L 291 93 L 291 92 L 291 97 L 290 104 L 290 106" stroke="#ffffff" stroke-width="2" stroke-linecap="round" stroke-linejoin="round" fill="none"/><path d="M 293 97 L 293 96 L 294 93 L 295 91 L 298 90 L 302 90 L 303 90" stroke="#ffffff" stroke-width="2" stroke-linecap="round" stroke-linejoin="round" fill="none"/><path d="M 287 114 L 285 115 L 282 117 L 284 116 L 289 112 L 298 106 L 306 100 L 309 98" stroke="#ffffff" stroke-width="2" stroke-linecap="round" stroke-linejoin="round" fill="none"/><path d="M 300 85 L 298 85 L 297 87 L 297 92 L 298 102 L 297 114 L 295 124 L 295 125" stroke="#ffffff" stroke-width="2" stroke-linecap="round" stroke-linejoin="round" fill="none"/><path d="M 323 92 L 321 91 L 320 90 L 323 89 L 329 86 L 335 84 L 339 82 L 340 81" stroke="#ffffff" stroke-width="2" stroke-linecap="round" stroke-linejoin="round" fill="none"/><path d="M 324 102 L 323 102 L 322 101 L 324 98 L 329 95 L 334 92 L 337 90" stroke="#ffffff" stroke-width="2" stroke-linecap="round" stroke-linejoin="round" fill="none"/><path d="M 330 80 L 329 77 L 329 75 L 329 76 L 331 81 L 332 89 L 333 100 L 332 111 L 332 118 L 332 120" stroke="#ffffff" stroke-width="2" stroke-linecap="round" stroke-linejoin="round" fill="none"/><path d="M 336 100 L 336 99 L 333 98 L 331 98 L 328 102 L 325 108 L 322 111 L 321 112" stroke="#ffffff" stroke-width="2" stroke-linecap="round" stroke-linejoin="round" fill="none"/><path d="M 327 102 L 328 102 L 331 101 L 334 101 L 338 102 L 342 104" stroke="#ffffff" stroke-width="2" stroke-linecap="round" stroke-linejoin="round" fill="none"/><path d="M 366 92 L 364 90 L 363 89 L 362 92 L 361 100 L 360 109 L 362 114 L 363 115" stroke="#ffffff" stroke-width="2" stroke-linecap="round" stroke-linejoin="round" fill="none"/><path d="M 375 92 L 376 91 L 376 88 L 378 86 L 381 85 L 384 84 L 386 84" stroke="#ffffff" stroke-width="2" stroke-linecap="round" stroke-linejoin="round" fill="none"/><path d="M 384 82 L 382 82 L 381 81 L 381 84 L 381 91 L 380 100 L 378 106 L 377 108 L 376 107 L 375 104 L 374 100 L 376 99 L 378 98 L 383 98 L 389 98 L 393 97" stroke="#ffffff" stroke-width="2" stroke-linecap="round" stroke-linejoin="round" fill="none"/><path d="M 420 92 L 421 92 L 421 90 L 421 86 L 424 82 L 429 80 L 432 82 L 433 87 L 431 95 L 426 102 L 421 108 L 417 110 L 415 110 L 415 109 L 417 109 L 421 107 L 427 106 L 433 103 L 439 101 L 447 99" stroke="#ffffff" stroke-width="2" stroke-linecap="round" stroke-linejoin="round" fill="none"/><path d="M 454 88 L 450 88 L 449 90 L 448 94 L 450 99 L 453 101 L 455 100 L 458 96 L 459 92 L 461 88 L 462 87 L 462 90 L 461 95 L 461 99 L 462 99 L 466 96 L 469 90 L 472 85 L 473 83" stroke="#ffffff" stroke-width="2" stroke-linecap="round" stroke-linejoin="round" fill="none"/><path d="M 483 90 L 481 91 L 480 92 L 482 91 L 486 88 L 489 85 L 491 82 L 490 81 L 486 81 L 482 86 L 479 93 L 479 98 L 484 98 L 491 95 L 497 90" stroke="#ffffff" stroke-width="2" stroke-linecap="round" stroke-linejoin="round" fill="none"/><path d="M 499 86 L 498 86 L 496 88 L 497 88 L 500 87 L 504 85 L 506 83 L 508 81 L 508 79 L 506 79 L 504 79 L 501 84 L 498 89 L 497 95 L 497 97 L 500 97 L 506 94 L 512 88" stroke="#ffffff" stroke-width="2" stroke-linecap="round" stroke-linejoin="round" fill="none"/><path d="M 532 61 L 532 60 L 530 60 L 529 66 L 526 81 L 524 96 L 524 104 L 524 107" stroke="#ffffff" stroke-width="2" stroke-linecap="round" stroke-linejoin="round" fill="none"/><path d="M 543 80 L 540 80 L 536 78 L 533 77 L 531 77 L 528 80 L 525 83 L 523 87 L 522 90 L 523 92 L 528 93 L 536 91 L 540 89" stroke="#ffffff" stroke-width="2" stroke-linecap="round" stroke-linejoin="round" fill="none"/><path d="M 560 82 L 559 80 L 557 78 L 554 77 L 552 77 L 551 77 L 550 80 L 549 82 L 551 84 L 553 86 L 555 89 L 556 92 L 556 95 L 554 96 L 551 97 L 548 95 L 547 94" stroke="#ffffff" stroke-width="2" stroke-linecap="round" stroke-linejoin="round" fill="none"/><path d="M 580 70 L 579 69 L 582 67 L 589 66 L 597 65" stroke="#ffffff" stroke-width="2" stroke-linecap="round" stroke-linejoin="round" fill="none"/><path d="M 585 74 L 584 75 L 582 76 L 580 81 L 578 88 L 578 95 L 578 97" stroke="#ffffff" stroke-width="2" stroke-linecap="round" stroke-linejoin="round" fill="none"/><path d="M 583 81 L 581 79 L 580 77 L 581 76 L 585 76 L 589 76 L 592 78 L 594 80 L 594 83 L 594 85" stroke="#ffffff" stroke-width="2" stroke-linecap="round" stroke-linejoin="round" fill="none"/><path d="M 587 86 L 586 85 L 586 83 L 587 82 L 589 81" stroke="#ffffff" stroke-width="2" stroke-linecap="round" stroke-linejoin="round" fill="none"/><path d="M 580 97 L 578 98 L 576 98 L 577 97 L 582 95 L 587 92" stroke="#ffffff" stroke-width="2" stroke-linecap="round" stroke-linejoin="round" fill="none"/><path d="M 589 56 L 588 54 L 587 53 L 587 54 L 587 61 L 587 74 L 587 88 L 586 101 L 584 111 L 583 118 L 582 122" stroke="#ffffff" stroke-width="2" stroke-linecap="round" stroke-linejoin="round" fill="none"/><path d="M 588 102 L 585 101 L 582 101 L 578 103 L 575 107 L 572 110 L 571 111" stroke="#ffffff" stroke-width="2" stroke-linecap="round" stroke-linejoin="round" fill="none"/><path d="M 579 98 L 580 98 L 584 98 L 589 101 L 596 105 L 600 107" stroke="#ffffff" stroke-width="2" stroke-linecap="round" stroke-linejoin="round" fill="none"/><path d="M 628 59 L 627 59 L 624 57 L 623 56 L 624 60 L 623 65 L 622 72" stroke="#ffffff" stroke-width="2" stroke-linecap="round" stroke-linejoin="round" fill="none"/><path d="M 609 80 L 608 78 L 609 76 L 614 73 L 621 72 L 628 72 L 629 72" stroke="#ffffff" stroke-width="2" stroke-linecap="round" stroke-linejoin="round" fill="none"/><path d="M 616 83 L 615 83 L 614 83 L 613 86 L 612 90 L 612 91" stroke="#ffffff" stroke-width="2" stroke-linecap="round" stroke-linejoin="round" fill="none"/><path d="M 616 87 L 616 86 L 617 84 L 618 82 L 621 81 L 624 81 L 626 82 L 627 84 L 625 86" stroke="#ffffff" stroke-width="2" stroke-linecap="round" stroke-linejoin="round" fill="none"/><path d="M 613 93 L 613 92 L 614 91 L 616 89 L 619 87 L 622 86 L 622 87 L 621 90 L 620 97 L 617 104 L 615 111 L 614 113 L 614 114 L 614 113" stroke="#ffffff" stroke-width="2" stroke-linecap="round" stroke-linejoin="round" fill="none"/><path d="M 611 101 L 609 101 L 608 100 L 607 101 L 605 105 L 601 109 L 598 112" stroke="#ffffff" stroke-width="2" stroke-linecap="round" stroke-linejoin="round" fill="none"/><path d="M 625 99 L 625 98 L 626 98 L 630 101 L 636 104 L 644 106" stroke="#ffffff" stroke-width="2" stroke-linecap="round" stroke-linejoin="round" fill="none"/><path d="M 626 75 L 626 74 L 625 74 L 626 74 L 628 74 L 630 75 L 633 75 L 636 75" stroke="#ffffff" stroke-width="2" stroke-linecap="round" stroke-linejoin="round" fill="none"/><path d="M 28 181 L 28 180 L 31 177 L 39 170 L 50 162 L 56 159 L 60 156 L 61 156" stroke="#ffffff" stroke-width="2" stroke-linecap="round" stroke-linejoin="round" fill="none"/><path d="M 51 154 L 50 154 L 49 154 L 48 154 L 48 159 L 48 170 L 48 183 L 48 191 L 47 196 L 47 197" stroke="#ffffff" stroke-width="2" stroke-linecap="round" stroke-linejoin="round" fill="none"/><path d="M 46 167 L 46 166 L 45 165 L 46 166 L 50 171 L 54 177 L 59 184 L 64 188" stroke="#ffffff" stroke-width="2" stroke-linecap="round" stroke-linejoin="round" fill="none"/><path d="M 81 157 L 80 156 L 79 154 L 79 153 L 80 153 L 81 156 L 82 159 L 82 162 L 82 163 L 82 164 L 82 165 L 83 168 L 84 172 L 85 174 L 85 175 L 84 175 L 80 172 L 77 168 L 74 162 L 72 156 L 72 153 L 73 154 L 75 156 L 76 162 L 77 172 L 76 186 L 75 199 L 74 204 L 75 205" stroke="#ffffff" stroke-width="2" stroke-linecap="round" stroke-linejoin="round" fill="none"/><path d="M 100 157 L 98 156 L 99 154 L 103 150 L 108 148 L 111 147" stroke="#ffffff" stroke-width="2" stroke-linecap="round" stroke-linejoin="round" fill="none"/><path d="M 103 153 L 103 154 L 100 156 L 98 161 L 96 171 L 95 182 L 93 190 L 93 195 L 93 196" stroke="#ffffff" stroke-width="2" stroke-linecap="round" stroke-linejoin="round" fill="none"/><path d="M 97 178 L 97 176 L 97 173 L 97 171 L 99 169 L 102 168 L 105 168 L 106 173 L 106 180 L 104 187 L 102 192 L 100 195" stroke="#ffffff" stroke-width="2" stroke-linecap="round" stroke-linejoin="round" fill="none"/><path d="M 97 179 L 101 181 L 108 185 L 113 187" stroke="#ffffff" stroke-width="2" stroke-linecap="round" stroke-linejoin="round" fill="none"/><path d="M 139 172 L 139 171 L 139 175 L 138 180 L 137 183 L 136 183 L 135 181 L 134 176 L 135 172 L 138 169 L 144 168 L 149 170 L 151 175 L 149 181 L 145 186" stroke="#ffffff" stroke-width="2" stroke-linecap="round" stroke-linejoin="round" fill="none"/><path d="M 74 159 L 74 158 L 74 156 L 74 155 L 74 154 L 76 154 L 79 155" stroke="#ffffff" stroke-width="2" stroke-linecap="round" stroke-linejoin="round" fill="none"/><path d="M 177 174 L 176 174 L 175 174 L 176 171 L 180 168 L 185 163 L 190 160 L 192 159" stroke="#ffffff" stroke-width="2" stroke-linecap="round" stroke-linejoin="round" fill="none"/><path d="M 185 157 L 185 158 L 185 160 L 185 166 L 185 176 L 185 186 L 186 194 L 185 197 L 184 197 L 181 197 L 179 195 L 179 192 L 179 187 L 182 182 L 186 177 L 192 175 L 197 177 L 198 182 L 197 188 L 195 194 L 194 195" stroke="#ffffff" stroke-width="2" stroke-linecap="round" stroke-linejoin="round" fill="none"/><path d="M 202 160 L 203 158 L 203 157 L 203 164" stroke="#ffffff" stroke-width="2" stroke-linecap="round" stroke-linejoin="round" fill="none"/><path d="M 212 181 L 211 181 L 210 180 L 210 179 L 210 181 L 211 184 L 213 187" stroke="#ffffff" stroke-width="2" stroke-linecap="round" stroke-linejoin="round" fill="none"/><path d="M 222 174 L 223 173 L 224 172 L 224 174 L 223 179 L 223 181" stroke="#ffffff" stroke-width="2" stroke-linecap="round" stroke-linejoin="round" fill="none"/><path d="M 241 170 L 238 170 L 237 169 L 236 174 L 236 182 L 238 188 L 241 191 L 244 190 L 246 185 L 249 180" stroke="#ffffff" stroke-width="2" stroke-linecap="round" stroke-linejoin="round" fill="none"/><path d="M 267 176 L 266 175 L 265 173 L 265 176 L 266 181 L 268 184 L 270 185" stroke="#ffffff" stroke-width="2" stroke-linecap="round" stroke-linejoin="round" fill="none"/><path d="M 279 172 L 280 170 L 281 170 L 281 172 L 281 177 L 281 178" stroke="#ffffff" stroke-width="2" stroke-linecap="round" stroke-linejoin="round" fill="none"/><path d="M 306 172 L 304 172 L 303 173 L 303 178 L 305 184 L 307 188" stroke="#ffffff" stroke-width="2" stroke-linecap="round" stroke-linejoin="round" fill="none"/><path d="M 309 173 L 309 172 L 308 169 L 310 165 L 314 162 L 321 159 L 328 157 L 331 157 L 332 158 L 331 161 L 329 165 L 326 169 L 325 170" stroke="#ffffff" stroke-width="2" stroke-linecap="round" stroke-linejoin="round" fill="none"/><path d="M 310 188 L 308 186 L 308 183 L 310 180 L 315 178 L 319 175 L 320 175" stroke="#ffffff" stroke-width="2" stroke-linecap="round" stroke-linejoin="round" fill="none"/><path d="M 317 146 L 316 144 L 316 145 L 316 153 L 316 168 L 316 183 L 315 196 L 315 200" stroke="#ffffff" stroke-width="2" stroke-linecap="round" stroke-linejoin="round" fill="none"/><path d="M 338 169 L 338 167 L 338 163 L 345 157 L 357 150 L 367 146 L 370 146" stroke="#ffffff" stroke-width="2" stroke-linecap="round" stroke-linejoin="round" fill="none"/><path d="M 352 146 L 351 146 L 349 146 L 349 148 L 349 154 L 349 157" stroke="#ffffff" stroke-width="2" stroke-linecap="round" stroke-linejoin="round" fill="none"/><path d="M 365 145 L 361 146 L 356 150 L 352 156 L 349 163 L 348 166" stroke="#ffffff" stroke-width="2" stroke-linecap="round" stroke-linejoin="round" fill="none"/><path d="M 341 174 L 341 173 L 341 170 L 349 162 L 361 155 L 369 151 L 370 151" stroke="#ffffff" stroke-width="2" stroke-linecap="round" stroke-linejoin="round" fill="none"/><path d="M 355 163 L 354 164 L 351 166 L 350 168 L 350 173 L 352 177 L 354 178" stroke="#ffffff" stroke-width="2" stroke-linecap="round" stroke-linejoin="round" fill="none"/><path d="M 368 158 L 366 158 L 364 158 L 362 161 L 359 167 L 357 173 L 355 176" stroke="#ffffff" stroke-width="2" stroke-linecap="round" stroke-linejoin="round" fill="none"/><path d="M 347 178 L 347 175 L 350 170 L 357 166 L 362 164 L 364 164" stroke="#ffffff" stroke-width="2" stroke-linecap="round" stroke-linejoin="round" fill="none"/><path d="M 348 183 L 345 183 L 344 183 L 348 179 L 354 175 L 359 172 L 360 171" stroke="#ffffff" stroke-width="2" stroke-linecap="round" stroke-linejoin="round" fill="none"/><path d="M 349 184 L 349 181 L 351 177 L 357 171 L 362 167" stroke="#ffffff" stroke-width="2" stroke-linecap="round" stroke-linejoin="round" fill="none"/><path d="M 359 157 L 357 156 L 356 156 L 356 160 L 355 168 L 355 179 L 355 187 L 355 193 L 356 196 L 356 197" stroke="#ffffff" stroke-width="2" stroke-linecap="round" stroke-linejoin="round" fill="none"/><path d="M 346 192 L 345 193 L 344 193 L 346 192 L 353 187 L 362 181 L 369 176 L 371 174" stroke="#ffffff" stroke-width="2" stroke-linecap="round" stroke-linejoin="round" fill="none"/><path d="M 385 171 L 385 169 L 386 164 L 392 156 L 397 151 L 400 151" stroke="#ffffff" stroke-width="2" stroke-linecap="round" stroke-linejoin="round" fill="none"/><path d="M 394 151 L 393 151 L 392 152 L 392 157 L 392 169 L 393 181 L 395 187" stroke="#ffffff" stroke-width="2" stroke-linecap="round" stroke-linejoin="round" fill="none"/><path d="M 403 163 L 403 162 L 402 162 L 399 168 L 395 179 L 391 190 L 389 195 L 387 195 L 385 193 L 383 190 L 384 186 L 388 180 L 394 174 L 402 170 L 410 169 L 411 173 L 409 179 L 406 185 L 405 187" stroke="#ffffff" stroke-width="2" stroke-linecap="round" stroke-linejoin="round" fill="none"/><path d="M 420 182 L 419 181 L 420 179 L 423 178 L 426 178 L 427 181 L 424 185 L 421 188" stroke="#ffffff" stroke-width="2" stroke-linecap="round" stroke-linejoin="round" fill="none"/><path d="M 440 173 L 440 172 L 439 170 L 442 166 L 446 163 L 450 160 L 452 159 L 455 158 L 456 157" stroke="#ffffff" stroke-width="2" stroke-linecap="round" stroke-linejoin="round" fill="none"/><path d="M 452 152 L 451 152 L 449 151 L 448 152 L 447 158 L 446 169 L 445 180 L 444 186 L 444 189" stroke="#ffffff" stroke-width="2" stroke-linecap="round" stroke-linejoin="round" fill="none"/><path d="M 455 175 L 454 172 L 454 170 L 456 170 L 459 169" stroke="#ffffff" stroke-width="2" stroke-linecap="round" stroke-linejoin="round" fill="none"/><path d="M 456 181 L 454 181 L 457 177 L 463 173 L 464 172" stroke="#ffffff" stroke-width="2" stroke-linecap="round" stroke-linejoin="round" fill="none"/><path d="M 483 165 L 482 163 L 480 162 L 478 165 L 478 173 L 480 179 L 482 180 L 484 179 L 486 175 L 488 169 L 491 162 L 495 157 L 499 156 L 501 161 L 500 167 L 498 171 L 495 174 L 493 174 L 491 171 L 491 165 L 492 159 L 492 154 L 491 152 L 491 153 L 491 155 L 491 161 L 490 172 L 489 185 L 488 193 L 489 196" stroke="#ffffff" stroke-width="2" stroke-linecap="round" stroke-linejoin="round" fill="none"/><path d="M 510 178 L 509 177 L 508 176 L 509 174 L 515 172 L 517 172" stroke="#ffffff" stroke-width="2" stroke-linecap="round" stroke-linejoin="round" fill="none"/><path d="M 532 166 L 531 166 L 528 165 L 528 164 L 533 161 L 541 159 L 547 159 L 548 159 L 546 160 L 542 163 L 538 168 L 536 173 L 537 178 L 542 179 L 549 178 L 551 177" stroke="#ffffff" stroke-width="2" stroke-linecap="round" stroke-linejoin="round" fill="none"/><path d="M 566 167 L 565 165 L 565 162 L 571 158 L 578 155 L 584 153 L 585 153" stroke="#ffffff" stroke-width="2" stroke-linecap="round" stroke-linejoin="round" fill="none"/><path d="M 578 150 L 577 150 L 575 151 L 573 158 L 571 167 L 570 175 L 569 180 L 570 181" stroke="#ffffff" stroke-width="2" stroke-linecap="round" stroke-linejoin="round" fill="none"/><path d="M 581 171 L 581 170 L 580 168 L 580 166 L 581 165 L 584 165" stroke="#ffffff" stroke-width="2" stroke-linecap="round" stroke-linejoin="round" fill="none"/><path d="M 581 177 L 578 178 L 577 178 L 579 176 L 585 173 L 590 170" stroke="#ffffff" stroke-width="2" stroke-linecap="round" stroke-linejoin="round" fill="none"/><path d="M 615 145 L 615 144 L 615 142 L 615 141 L 614 145" stroke="#ffffff" stroke-width="2" stroke-linecap="round" stroke-linejoin="round" fill="none"/><path d="M 608 154 L 607 154 L 605 155 L 602 157 L 599 161 L 598 165 L 599 168 L 601 168 L 604 167 L 607 165 L 611 164 L 614 164 L 616 165 L 616 169 L 614 172 L 610 176 L 605 179 L 598 181 L 594 181" stroke="#ffffff" stroke-width="2" stroke-linecap="round" stroke-linejoin="round" fill="none"/><path d="M 392 236 L 390 236 L 391 235 L 399 228 L 410 220 L 416 217 L 417 217 L 415 217 L 412 217 L 411 217 L 411 218 L 410 219 L 409 223 L 408 231 L 408 241 L 408 249 L 408 252 L 409 252 L 409 250" stroke="#ffffff" stroke-width="2" stroke-linecap="round" stroke-linejoin="round" fill="none"/><path d="M 399 246 L 398 246 L 396 245 L 396 244 L 402 242 L 412 236 L 420 233 L 423 232" stroke="#ffffff" stroke-width="2" stroke-linecap="round" stroke-linejoin="round" fill="none"/><path d="M 399 264 L 399 265 L 397 265 L 402 261 L 410 255 L 421 247 L 423 245" stroke="#ffffff" stroke-width="2" stroke-linecap="round" stroke-linejoin="round" fill="none"/><path d="M 444 228 L 443 227 L 441 225 L 441 226 L 443 230 L 444 233" stroke="#ffffff" stroke-width="2" stroke-linecap="round" stroke-linejoin="round" fill="none"/><path d="M 443 247 L 442 248 L 440 248 L 440 246 L 444 242 L 450 236 L 451 234" stroke="#ffffff" stroke-width="2" stroke-linecap="round" stroke-linejoin="round" fill="none"/><path d="M 455 215 L 454 215 L 453 215 L 452 216 L 452 222 L 451 234 L 450 246 L 451 250" stroke="#ffffff" stroke-width="2" stroke-linecap="round" stroke-linejoin="round" fill="none"/><path d="M 480 207 L 478 207 L 473 207 L 469 210 L 466 216 L 463 223 L 462 224" stroke="#ffffff" stroke-width="2" stroke-linecap="round" stroke-linejoin="round" fill="none"/><path d="M 465 220 L 464 220 L 464 221 L 464 222" stroke="#ffffff" stroke-width="2" stroke-linecap="round" stroke-linejoin="round" fill="none"/><path d="M 477 212 L 475 211 L 473 211 L 471 214 L 471 217 L 472 218" stroke="#ffffff" stroke-width="2" stroke-linecap="round" stroke-linejoin="round" fill="none"/><path d="M 479 213 L 479 212 L 477 212 L 475 216 L 474 221 L 473 222" stroke="#ffffff" stroke-width="2" stroke-linecap="round" stroke-linejoin="round" fill="none"/><path d="M 462 235 L 461 235 L 460 232 L 462 229 L 469 224 L 475 221 L 479 219 L 480 216 L 480 214 L 479 213 L 477 215 L 475 219 L 473 225 L 471 233 L 470 242 L 470 249 L 469 253 L 468 254 L 467 255" stroke="#ffffff" stroke-width="2" stroke-linecap="round" stroke-linejoin="round" fill="none"/><path d="M 460 245 L 459 243 L 458 241 L 461 239 L 468 237 L 473 236" stroke="#ffffff" stroke-width="2" stroke-linecap="round" stroke-linejoin="round" fill="none"/><path d="M 498 247 L 495 243 L 497 237 L 504 229 L 515 221 L 525 218 L 529 219 L 529 222 L 526 226 L 521 230 L 520 231" stroke="#ffffff" stroke-width="2" stroke-linecap="round" stroke-linejoin="round" fill="none"/><path d="M 507 214 L 506 214 L 505 214 L 504 219 L 506 231 L 510 242 L 512 248" stroke="#ffffff" stroke-width="2" stroke-linecap="round" stroke-linejoin="round" fill="none"/><path d="M 522 211 L 518 210 L 516 213 L 516 221 L 518 230" stroke="#ffffff" stroke-width="2" stroke-linecap="round" stroke-linejoin="round" fill="none"/><path d="M 527 240 L 528 239 L 527 238 L 528 236 L 531 236 L 533 236 L 534 238 L 533 240" stroke="#ffffff" stroke-width="2" stroke-linecap="round" stroke-linejoin="round" fill="none"/><path d="M 548 222 L 547 222 L 548 221 L 556 218 L 566 214 L 569 213" stroke="#ffffff" stroke-width="2" stroke-linecap="round" stroke-linejoin="round" fill="none"/><path d="M 558 209 L 557 209 L 555 215 L 553 226 L 551 237 L 551 242 L 552 244" stroke="#ffffff" stroke-width="2" stroke-linecap="round" stroke-linejoin="round" fill="none"/><path d="M 564 230 L 564 228 L 563 225 L 563 223 L 566 222 L 570 221 L 571 221" stroke="#ffffff" stroke-width="2" stroke-linecap="round" stroke-linejoin="round" fill="none"/><path d="M 564 238 L 563 239 L 561 240 L 566 237 L 573 233 L 576 231" stroke="#ffffff" stroke-width="2" stroke-linecap="round" stroke-linejoin="round" fill="none"/><path d="M 600 225 L 600 224 L 599 223 L 599 228 L 600 234 L 601 238 L 603 240 L 605 239 L 608 234 L 611 229 L 614 225 L 615 224 L 615 229 L 615 234 L 617 236 L 620 235 L 624 231 L 628 225 L 632 218 L 634 214" stroke="#ffffff" stroke-width="2" stroke-linecap="round" stroke-linejoin="round" fill="none"/></svg>
