<svg xmlns="http://www.w3.org/2000/svg" width="651" height="147" viewBox="0 0 651 147"><path d="M 13 31 L 12 32 L 10 33 L 10 31 L 12 29 L 17 25 L 22 24 L 26 24 L 27 28 L 25 32 L 22 37 L 18 40 L 16 41 L 16 40 L 17 37 L 20 35 L 23 34 L 26 36 L 27 41 L 26 46 L 22 50 L 19 53 L 16 55 L 15 55 L 15 54" stroke="#ffffff" stroke-width="2" stroke-linecap="round" stroke-linejoin="round" fill="none"/><path d="M 46 29 L 45 29 L 44 31 L 43 37 L 43 42 L 45 44 L 48 43 L 50 39 L 50 34 L 50 31 L 49 28 L 46 28 L 43 30 L 42 35" stroke="#ffffff" stroke-width="2" stroke-linecap="round" stroke-linejoin="round" fill="none"/><path d="M 78 14 L 77 14 L 74 15 L 71 22 L 66 34 L 61 49 L 55 61 L 51 69 L 50 76" stroke="#ffffff" stroke-width="2" stroke-linecap="round" stroke-linejoin="round" fill="none"/><path d="M 93 41 L 92 40 L 90 46 L 88 57 L 87 68 L 87 74" stroke="#ffffff" stroke-width="2" stroke-linecap="round" stroke-linejoin="round" fill="none"/><path d="M 171 29 L 171 28 L 170 27 L 169 27 L 166 30 L 163 36 L 162 42 L 164 45 L 169 45 L 176 40 L 180 37" stroke="#ffffff" stroke-width="2" stroke-linecap="round" stroke-linejoin="round" fill="none"/><path d="M 209 15 L 209 14 L 206 12 L 205 13 L 202 19 L 199 31 L 197 43 L 198 48 L 201 49 L 204 47 L 207 42 L 209 37 L 210 33 L 210 30 L 206 29 L 201 32 L 197 36 L 194 43" stroke="#ffffff" stroke-width="2" stroke-linecap="round" stroke-linejoin="round" fill="none"/><path d="M 230 25 L 229 26 L 224 29 L 223 33 L 223 38 L 226 40 L 229 39 L 232 36 L 234 31 L 235 28 L 235 25 L 232 25 L 227 27 L 224 32 L 224 33" stroke="#ffffff" stroke-width="2" stroke-linecap="round" stroke-linejoin="round" fill="none"/><path d="M 275 10 L 270 14 L 264 23 L 257 36 L 252 48 L 247 56 L 244 62 L 243 65" stroke="#ffffff" stroke-width="2" stroke-linecap="round" stroke-linejoin="round" fill="none"/><path d="M 299 15 L 300 15 L 298 16 L 295 25 L 292 38 L 290 49 L 290 54" stroke="#ffffff" stroke-width="2" stroke-linecap="round" stroke-linejoin="round" fill="none"/><path d="M 293 41 L 293 41 L 292 36 L 295 34 L 302 31 L 308 28 L 312 25 L 313 25" stroke="#ffffff" stroke-width="2" stroke-linecap="round" stroke-linejoin="round" fill="none"/><path d="M 311 14 L 310 14 L 307 26 L 305 39 L 303 49 L 303 53" stroke="#ffffff" stroke-width="2" stroke-linecap="round" stroke-linejoin="round" fill="none"/><path d="M 331 23 L 331 22 L 330 19 L 329 18 L 328 16 L 326 17 L 323 20 L 322 23 L 321 26 L 322 28 L 324 31 L 328 33 L 329 36 L 330 38 L 328 39 L 323 41 L 317 41 L 314 39 L 314 37" stroke="#ffffff" stroke-width="2" stroke-linecap="round" stroke-linejoin="round" fill="none"/><path d="M 342 23 L 339 22 L 338 29 L 338 40 L 338 51 L 338 58 L 338 61" stroke="#ffffff" stroke-width="2" stroke-linecap="round" stroke-linejoin="round" fill="none"/><path d="M 337 40 L 337 32 L 337 29 L 341 21 L 345 19 L 348 20 L 349 25 L 348 30 L 345 35 L 341 40 L 337 43 L 336 43" stroke="#ffffff" stroke-width="2" stroke-linecap="round" stroke-linejoin="round" fill="none"/><path d="M 373 19 L 371 19 L 367 19 L 366 21 L 365 25 L 367 29 L 371 31 L 374 33 L 376 35 L 376 36 L 375 37 L 371 38 L 367 39 L 363 40 L 363 40" stroke="#ffffff" stroke-width="2" stroke-linecap="round" stroke-linejoin="round" fill="none"/><path d="M 364 25 L 365 22 L 368 21 L 375 20 L 383 20 L 386 19" stroke="#ffffff" stroke-width="2" stroke-linecap="round" stroke-linejoin="round" fill="none"/><path d="M 397 16 L 394 15 L 390 14 L 388 15 L 387 19 L 387 23 L 387 27 L 389 30 L 392 33 L 395 34 L 396 35 L 396 37 L 395 38 L 394 39 L 390 40 L 385 40 L 384 39" stroke="#ffffff" stroke-width="2" stroke-linecap="round" stroke-linejoin="round" fill="none"/><path d="M 387 20 L 388 19 L 397 16 L 404 17 L 408 18" stroke="#ffffff" stroke-width="2" stroke-linecap="round" stroke-linejoin="round" fill="none"/><path d="M 57 111 L 57 111 L 54 113 L 54 120 L 55 128 L 58 134 L 59 137" stroke="#ffffff" stroke-width="2" stroke-linecap="round" stroke-linejoin="round" fill="none"/><path d="M 66 109 L 66 108 L 66 108 L 66 116 L 67 126 L 69 133" stroke="#ffffff" stroke-width="2" stroke-linecap="round" stroke-linejoin="round" fill="none"/><path d="M 84 120 L 82 120 L 82 117 L 85 115 L 90 114 L 93 116 L 93 121 L 91 126 L 88 131 L 85 133" stroke="#ffffff" stroke-width="2" stroke-linecap="round" stroke-linejoin="round" fill="none"/><path d="M 110 112 L 108 112 L 109 111 L 113 109 L 117 107 L 120 107 L 121 107" stroke="#ffffff" stroke-width="2" stroke-linecap="round" stroke-linejoin="round" fill="none"/><path d="M 109 120 L 108 120 L 107 120 L 109 120 L 114 118 L 117 116 L 119 115" stroke="#ffffff" stroke-width="2" stroke-linecap="round" stroke-linejoin="round" fill="none"/><path d="M 115 103 L 114 102 L 113 100 L 113 103 L 113 113 L 113 122 L 113 129 L 115 132 L 118 132 L 120 131" stroke="#ffffff" stroke-width="2" stroke-linecap="round" stroke-linejoin="round" fill="none"/><path d="M 136 103 L 134 103 L 133 103 L 134 106 L 136 111 L 136 112" stroke="#ffffff" stroke-width="2" stroke-linecap="round" stroke-linejoin="round" fill="none"/><path d="M 145 110 L 144 110 L 141 109 L 139 109 L 138 111 L 136 114 L 134 120 L 134 125 L 134 128 L 139 128 L 146 125" stroke="#ffffff" stroke-width="2" stroke-linecap="round" stroke-linejoin="round" fill="none"/><path d="M 158 115 L 156 116 L 156 115 L 160 115 L 166 114 L 170 112" stroke="#ffffff" stroke-width="2" stroke-linecap="round" stroke-linejoin="round" fill="none"/><path d="M 197 95 L 193 93 L 191 95 L 190 98 L 189 101 L 189 103 L 189 103 L 191 103 L 193 103 L 194 103 L 194 105 L 194 106 L 193 107 L 193 107 L 192 107 L 192 107 L 193 107 L 195 106" stroke="#ffffff" stroke-width="2" stroke-linecap="round" stroke-linejoin="round" fill="none"/><path d="M 196 107 L 193 108 L 192 108 L 190 114 L 190 121 L 191 127 L 192 131 L 192 132" stroke="#ffffff" stroke-width="2" stroke-linecap="round" stroke-linejoin="round" fill="none"/><path d="M 191 115 L 191 115 L 187 114 L 185 119 L 183 123 L 183 125" stroke="#ffffff" stroke-width="2" stroke-linecap="round" stroke-linejoin="round" fill="none"/><path d="M 191 111 L 191 111 L 194 111" stroke="#ffffff" stroke-width="2" stroke-linecap="round" stroke-linejoin="round" fill="none"/><path d="M 202 103 L 201 102 L 200 100 L 204 98 L 208 95 L 211 93 L 211 92 L 209 92 L 207 93 L 205 97 L 204 102 L 203 106" stroke="#ffffff" stroke-width="2" stroke-linecap="round" stroke-linejoin="round" fill="none"/><path d="M 198 114 L 199 109 L 205 103 L 213 99 L 217 97 L 217 97 L 216 97 L 213 100 L 208 105 L 204 111 L 201 116 L 199 120" stroke="#ffffff" stroke-width="2" stroke-linecap="round" stroke-linejoin="round" fill="none"/><path d="M 204 111 L 204 111 L 205 112 L 205 115 L 206 119 L 206 120" stroke="#ffffff" stroke-width="2" stroke-linecap="round" stroke-linejoin="round" fill="none"/><path d="M 205 114 L 205 113 L 205 111 L 205 110 L 207 108 L 212 106 L 215 107 L 216 110 L 215 115 L 213 120" stroke="#ffffff" stroke-width="2" stroke-linecap="round" stroke-linejoin="round" fill="none"/><path d="M 209 116 L 208 114 L 208 113 L 210 112" stroke="#ffffff" stroke-width="2" stroke-linecap="round" stroke-linejoin="round" fill="none"/><path d="M 208 125 L 208 125 L 206 126 L 205 127 L 206 125 L 209 123" stroke="#ffffff" stroke-width="2" stroke-linecap="round" stroke-linejoin="round" fill="none"/><path d="M 253 98 L 253 97 L 251 93 L 251 94 L 252 99 L 252 101" stroke="#ffffff" stroke-width="2" stroke-linecap="round" stroke-linejoin="round" fill="none"/><path d="M 249 118 L 247 119 L 245 119 L 244 119 L 246 117 L 251 112 L 255 108" stroke="#ffffff" stroke-width="2" stroke-linecap="round" stroke-linejoin="round" fill="none"/><path d="M 265 84 L 264 85 L 263 85 L 262 87 L 260 92 L 260 100 L 260 102" stroke="#ffffff" stroke-width="2" stroke-linecap="round" stroke-linejoin="round" fill="none"/><path d="M 262 100 L 261 96 L 262 92 L 265 89 L 269 87 L 274 87 L 276 87 L 277 90 L 277 94 L 275 99 L 272 103" stroke="#ffffff" stroke-width="2" stroke-linecap="round" stroke-linejoin="round" fill="none"/><path d="M 268 98 L 268 97 L 268 96 L 268 98 L 267 104 L 266 112 L 264 118 L 263 119" stroke="#ffffff" stroke-width="2" stroke-linecap="round" stroke-linejoin="round" fill="none"/><path d="M 263 108 L 263 109 L 267 112 L 276 116 L 281 116" stroke="#ffffff" stroke-width="2" stroke-linecap="round" stroke-linejoin="round" fill="none"/><path d="M 290 96 L 289 96 L 287 99 L 287 104 L 287 110 L 288 114 L 288 114" stroke="#ffffff" stroke-width="2" stroke-linecap="round" stroke-linejoin="round" fill="none"/><path d="M 289 100 L 289 98 L 288 95 L 288 93 L 293 90 L 298 90 L 303 92 L 305 96 L 305 101 L 305 105 L 303 109 L 301 111" stroke="#ffffff" stroke-width="2" stroke-linecap="round" stroke-linejoin="round" fill="none"/><path d="M 295 101 L 295 101 L 292 104 L 292 107" stroke="#ffffff" stroke-width="2" stroke-linecap="round" stroke-linejoin="round" fill="none"/><path d="M 296 101 L 297 100 L 297 100 L 296 101 L 295 102 L 295 103 L 295 104 L 295 105" stroke="#ffffff" stroke-width="2" stroke-linecap="round" stroke-linejoin="round" fill="none"/><path d="M 293 106 L 292 106 L 292 106 L 293 106" stroke="#ffffff" stroke-width="2" stroke-linecap="round" stroke-linejoin="round" fill="none"/><path d="M 288 117 L 287 117 L 285 118 L 290 117 L 297 114 L 300 113" stroke="#ffffff" stroke-width="2" stroke-linecap="round" stroke-linejoin="round" fill="none"/><path d="M 332 85 L 329 84 L 328 89 L 328 97 L 328 107 L 328 109" stroke="#ffffff" stroke-width="2" stroke-linecap="round" stroke-linejoin="round" fill="none"/><path d="M 328 91 L 328 89 L 328 82 L 330 80 L 333 79 L 336 81 L 338 85 L 339 91 L 339 97 L 337 102 L 336 106" stroke="#ffffff" stroke-width="2" stroke-linecap="round" stroke-linejoin="round" fill="none"/><path d="M 329 102 L 329 102 L 327 99 L 328 97 L 331 97" stroke="#ffffff" stroke-width="2" stroke-linecap="round" stroke-linejoin="round" fill="none"/><path d="M 328 112 L 327 113 L 326 113 L 327 113 L 330 110 L 331 109" stroke="#ffffff" stroke-width="2" stroke-linecap="round" stroke-linejoin="round" fill="none"/><path d="M 351 92 L 349 91 L 348 89 L 352 87 L 357 84 L 363 81 L 367 78 L 368 75" stroke="#ffffff" stroke-width="2" stroke-linecap="round" stroke-linejoin="round" fill="none"/><path d="M 361 72 L 360 72 L 359 72 L 358 72 L 357 76 L 358 85 L 360 98 L 361 107 L 361 113 L 362 114" stroke="#ffffff" stroke-width="2" stroke-linecap="round" stroke-linejoin="round" fill="none"/><path d="M 362 89 L 362 88 L 359 88 L 356 92 L 352 99 L 349 106 L 347 109" stroke="#ffffff" stroke-width="2" stroke-linecap="round" stroke-linejoin="round" fill="none"/><path d="M 361 88 L 362 87 L 365 84 L 368 87 L 369 88" stroke="#ffffff" stroke-width="2" stroke-linecap="round" stroke-linejoin="round" fill="none"/><path d="M 355 112 L 353 112 L 358 108 L 366 103 L 368 102" stroke="#ffffff" stroke-width="2" stroke-linecap="round" stroke-linejoin="round" fill="none"/><path d="M 329 100 L 328 100 L 328 99 L 329 98 L 332 96 L 333 96" stroke="#ffffff" stroke-width="2" stroke-linecap="round" stroke-linejoin="round" fill="none"/><path d="M 388 81 L 386 80 L 384 82 L 382 86 L 381 92 L 380 94" stroke="#ffffff" stroke-width="2" stroke-linecap="round" stroke-linejoin="round" fill="none"/><path d="M 391 84 L 390 84 L 386 87 L 383 93 L 380 99 L 378 102" stroke="#ffffff" stroke-width="2" stroke-linecap="round" stroke-linejoin="round" fill="none"/><path d="M 383 97 L 383 98 L 382 106 L 382 112 L 382 114" stroke="#ffffff" stroke-width="2" stroke-linecap="round" stroke-linejoin="round" fill="none"/><path d="M 397 81 L 397 80 L 398 76 L 402 75 L 407 74 L 411 74" stroke="#ffffff" stroke-width="2" stroke-linecap="round" stroke-linejoin="round" fill="none"/><path d="M 397 93 L 397 93 L 397 89 L 400 87 L 404 85 L 408 84 L 409 83 L 408 83 L 406 84 L 405 86 L 404 91 L 403 97 L 402 104 L 402 110 L 402 112 L 403 112" stroke="#ffffff" stroke-width="2" stroke-linecap="round" stroke-linejoin="round" fill="none"/><path d="M 433 88 L 433 87 L 430 85 L 428 86 L 427 88 L 424 90 L 423 92 L 421 95 L 421 98 L 422 101 L 427 102 L 433 101" stroke="#ffffff" stroke-width="2" stroke-linecap="round" stroke-linejoin="round" fill="none"/><path d="M 454 65 L 453 63 L 451 66 L 451 72 L 451 76" stroke="#ffffff" stroke-width="2" stroke-linecap="round" stroke-linejoin="round" fill="none"/><path d="M 467 67 L 467 67 L 460 67 L 457 70 L 454 75 L 453 76" stroke="#ffffff" stroke-width="2" stroke-linecap="round" stroke-linejoin="round" fill="none"/><path d="M 444 84 L 443 84 L 443 82 L 447 80 L 456 76 L 466 72 L 472 71 L 473 71" stroke="#ffffff" stroke-width="2" stroke-linecap="round" stroke-linejoin="round" fill="none"/><path d="M 451 84 L 450 85 L 447 90 L 446 96 L 446 102 L 446 106 L 446 107" stroke="#ffffff" stroke-width="2" stroke-linecap="round" stroke-linejoin="round" fill="none"/><path d="M 448 95 L 448 91 L 449 87 L 449 85 L 451 84 L 452 85 L 453 90 L 454 96 L 454 102 L 452 105 L 451 107" stroke="#ffffff" stroke-width="2" stroke-linecap="round" stroke-linejoin="round" fill="none"/><path d="M 448 94 L 447 94 L 448 91" stroke="#ffffff" stroke-width="2" stroke-linecap="round" stroke-linejoin="round" fill="none"/><path d="M 451 98 L 450 98 L 450 97 L 451 94 L 455 90" stroke="#ffffff" stroke-width="2" stroke-linecap="round" stroke-linejoin="round" fill="none"/><path d="M 463 81 L 462 80 L 460 81 L 459 84 L 458 89 L 459 92" stroke="#ffffff" stroke-width="2" stroke-linecap="round" stroke-linejoin="round" fill="none"/><path d="M 466 80 L 466 79 L 466 81 L 466 89 L 463 101 L 461 111 L 459 117 L 457 118 L 455 118" stroke="#ffffff" stroke-width="2" stroke-linecap="round" stroke-linejoin="round" fill="none"/><path d="M 487 81 L 486 80 L 483 82 L 482 86 L 482 92 L 483 96 L 484 97" stroke="#ffffff" stroke-width="2" stroke-linecap="round" stroke-linejoin="round" fill="none"/><path d="M 491 85 L 491 84 L 491 82 L 491 82 L 496 80 L 501 80 L 502 79" stroke="#ffffff" stroke-width="2" stroke-linecap="round" stroke-linejoin="round" fill="none"/><path d="M 501 75 L 500 75 L 499 74 L 498 74 L 497 79 L 497 84 L 496 90 L 494 95 L 493 96 L 491 96 L 490 95 L 489 94 L 490 93 L 492 93 L 495 92 L 500 91 L 502 91" stroke="#ffffff" stroke-width="2" stroke-linecap="round" stroke-linejoin="round" fill="none"/><path d="M 526 72 L 526 72 L 524 71 L 524 76 L 524 81 L 525 84" stroke="#ffffff" stroke-width="2" stroke-linecap="round" stroke-linejoin="round" fill="none"/><path d="M 533 69 L 533 68 L 532 67 L 532 75 L 531 87 L 528 98 L 524 106 L 521 110 L 518 111" stroke="#ffffff" stroke-width="2" stroke-linecap="round" stroke-linejoin="round" fill="none"/><path d="M 549 83 L 548 83 L 548 80 L 551 79 L 557 78 L 566 77 L 572 76 L 575 76" stroke="#ffffff" stroke-width="2" stroke-linecap="round" stroke-linejoin="round" fill="none"/><path d="M 557 71 L 557 70 L 556 69 L 556 74 L 556 82 L 556 88 L 557 90" stroke="#ffffff" stroke-width="2" stroke-linecap="round" stroke-linejoin="round" fill="none"/><path d="M 564 69 L 564 66 L 564 68 L 563 78 L 561 90 L 559 100 L 557 106 L 555 109 L 554 109" stroke="#ffffff" stroke-width="2" stroke-linecap="round" stroke-linejoin="round" fill="none"/><path d="M 580 82 L 580 81 L 580 77 L 584 76 L 590 74 L 595 74 L 597 74" stroke="#ffffff" stroke-width="2" stroke-linecap="round" stroke-linejoin="round" fill="none"/><path d="M 589 71 L 589 70 L 588 73 L 585 80 L 583 87 L 582 90 L 582 91 L 583 90 L 586 88 L 588 87 L 590 88 L 590 92 L 588 96 L 585 100 L 583 101" stroke="#ffffff" stroke-width="2" stroke-linecap="round" stroke-linejoin="round" fill="none"/><path d="M 602 95 L 601 95 L 599 94 L 600 92 L 604 91 L 607 91 L 609 91 L 610 92 L 609 93 L 606 95" stroke="#ffffff" stroke-width="2" stroke-linecap="round" stroke-linejoin="round" fill="none"/><path d="M 602 89 L 602 88 L 601 88 L 601 90 L 601 93 L 601 94" stroke="#ffffff" stroke-width="2" stroke-linecap="round" stroke-linejoin="round" fill="none"/><path d="M 605 89 L 605 88 L 605 87 L 605 88 L 605 89" stroke="#ffffff" stroke-width="2" stroke-linecap="round" stroke-linejoin="round" fill="none"/><path d="M 619 78 L 614 84 L 612 91 L 611 94 L 612 95 L 614 93 L 618 90 L 621 86 L 623 85 L 623 85 L 623 90 L 623 94 L 625 96 L 628 96 L 633 93 L 635 92" stroke="#ffffff" stroke-width="2" stroke-linecap="round" stroke-linejoin="round" fill="none"/><path d="M 597 118 L 597 116 L 596 115 L 594 119 L 592 125 L 592 130 L 593 134 L 594 134" stroke="#ffffff" stroke-width="2" stroke-linecap="round" stroke-linejoin="round" fill="none"/><path d="M 607 123 L 607 120 L 609 117 L 611 116 L 614 116 L 616 116" stroke="#ffffff" stroke-width="2" stroke-linecap="round" stroke-linejoin="round" fill="none"/><path d="M 607 129 L 606 129 L 605 130 L 607 129 L 612 127 L 619 125 L 621 124" stroke="#ffffff" stroke-width="2" stroke-linecap="round" stroke-linejoin="round" fill="none"/><path d="M 640 129 L 639 128 L 636 127 L 635 128 L 635 129 L 635 130 L 637 130 L 640 130 L 641 129 L 641 127 L 639 127 L 637 128 L 636 129" stroke="#ffffff" stroke-width="2" stroke-linecap="round" stroke-linejoin="round" fill="none"/></svg>
