<svg xmlns="http://www.w3.org/2000/svg" width="623" height="113" viewBox="0 0 623 113"><path d="M 10 30 L 10 28 L 10 26 L 11 25 L 14 24 L 17 25 L 20 26 L 21 28 L 21 30 L 19 33 L 15 36 L 12 39 L 10 41 L 13 41 L 18 41 L 24 39 L 29 38 L 35 37" stroke="#ffffff" stroke-width="2" stroke-linecap="round" stroke-linejoin="round" fill="none"/><path d="M 39 19 L 38 18 L 37 18 L 37 20 L 37 25 L 37 30" stroke="#ffffff" stroke-width="2" stroke-linecap="round" stroke-linejoin="round" fill="none"/><path d="M 38 21 L 37 20 L 36 19 L 36 18 L 38 17 L 41 17 L 44 17 L 46 17 L 48 19 L 48 24 L 48 31 L 48 39 L 48 46 L 49 49" stroke="#ffffff" stroke-width="2" stroke-linecap="round" stroke-linejoin="round" fill="none"/><path d="M 79 11 L 77 10 L 76 10 L 75 14 L 72 25 L 67 40 L 62 53 L 59 60 L 58 63" stroke="#ffffff" stroke-width="2" stroke-linecap="round" stroke-linejoin="round" fill="none"/><path d="M 93 38 L 93 37 L 93 36 L 93 34 L 94 32 L 94 30 L 95 29 L 95 28 L 94 27 L 91 28 L 88 31 L 85 36 L 84 41 L 84 44 L 87 44 L 91 41 L 94 38 L 95 35 L 95 33 L 94 36 L 94 42 L 93 49 L 93 56 L 92 60" stroke="#ffffff" stroke-width="2" stroke-linecap="round" stroke-linejoin="round" fill="none"/><path d="M 167 29 L 165 28 L 163 27 L 160 27 L 157 29 L 155 34 L 153 40 L 153 45 L 157 48 L 163 47 L 168 43" stroke="#ffffff" stroke-width="2" stroke-linecap="round" stroke-linejoin="round" fill="none"/><path d="M 201 24 L 200 24 L 200 23 L 199 23 L 198 23 L 197 26 L 197 29 L 198 32 L 201 33 L 205 33 L 208 34 L 209 35 L 209 36 L 207 38 L 204 40 L 200 41 L 196 41 L 195 41" stroke="#ffffff" stroke-width="2" stroke-linecap="round" stroke-linejoin="round" fill="none"/><path d="M 201 26 L 200 24 L 201 23 L 205 23 L 211 24 L 213 24" stroke="#ffffff" stroke-width="2" stroke-linecap="round" stroke-linejoin="round" fill="none"/><path d="M 235 23 L 234 21 L 233 20 L 231 19 L 230 19 L 229 21 L 229 23 L 229 27 L 229 30 L 231 33 L 235 35 L 238 36 L 239 37 L 239 38 L 237 39 L 234 39 L 230 40 L 228 40" stroke="#ffffff" stroke-width="2" stroke-linecap="round" stroke-linejoin="round" fill="none"/><path d="M 229 24 L 230 23 L 230 21 L 231 21 L 235 21 L 243 21 L 246 22" stroke="#ffffff" stroke-width="2" stroke-linecap="round" stroke-linejoin="round" fill="none"/><path d="M 62 81 L 60 81 L 59 81 L 60 80 L 64 78 L 70 76 L 75 74 L 78 74 L 79 74" stroke="#ffffff" stroke-width="2" stroke-linecap="round" stroke-linejoin="round" fill="none"/><path d="M 67 89 L 65 89 L 64 89 L 64 87 L 68 85 L 73 83 L 78 82 L 81 82 L 81 83 L 80 85 L 78 89 L 74 94 L 71 99 L 68 102 L 66 103" stroke="#ffffff" stroke-width="2" stroke-linecap="round" stroke-linejoin="round" fill="none"/><path d="M 101 76 L 101 75 L 100 74 L 99 74 L 99 75 L 98 78 L 97 83 L 94 90 L 91 95 L 90 96" stroke="#ffffff" stroke-width="2" stroke-linecap="round" stroke-linejoin="round" fill="none"/><path d="M 95 85 L 95 86 L 94 87 L 94 89 L 94 93 L 95 98 L 96 100" stroke="#ffffff" stroke-width="2" stroke-linecap="round" stroke-linejoin="round" fill="none"/><path d="M 112 88 L 110 88 L 111 87 L 114 85 L 117 84" stroke="#ffffff" stroke-width="2" stroke-linecap="round" stroke-linejoin="round" fill="none"/><path d="M 117 99 L 116 100 L 116 101 L 115 100 L 117 97 L 120 92 L 125 86 L 129 82" stroke="#ffffff" stroke-width="2" stroke-linecap="round" stroke-linejoin="round" fill="none"/><path d="M 144 80 L 143 79 L 143 78 L 144 77 L 148 75 L 153 74 L 155 74" stroke="#ffffff" stroke-width="2" stroke-linecap="round" stroke-linejoin="round" fill="none"/><path d="M 144 86 L 143 86 L 143 85 L 144 84 L 147 83 L 152 81 L 154 81" stroke="#ffffff" stroke-width="2" stroke-linecap="round" stroke-linejoin="round" fill="none"/><path d="M 154 71 L 153 71 L 152 70 L 151 70 L 150 70 L 150 74 L 151 80 L 151 87 L 152 92 L 154 94 L 155 94 L 158 92 L 162 87 L 164 83" stroke="#ffffff" stroke-width="2" stroke-linecap="round" stroke-linejoin="round" fill="none"/><path d="M 195 76 L 195 74 L 196 73 L 201 71 L 208 70 L 214 69 L 219 69 L 220 68" stroke="#ffffff" stroke-width="2" stroke-linecap="round" stroke-linejoin="round" fill="none"/><path d="M 211 65 L 211 63 L 211 62 L 211 61 L 210 63 L 210 70 L 209 79 L 207 87 L 206 92 L 205 93 L 204 91 L 203 89 L 202 85 L 202 82 L 203 80 L 205 79 L 207 80 L 209 83 L 209 89 L 208 96 L 206 101 L 205 103" stroke="#ffffff" stroke-width="2" stroke-linecap="round" stroke-linejoin="round" fill="none"/><path d="M 222 54 L 221 54 L 220 54 L 218 56 L 217 61 L 217 62" stroke="#ffffff" stroke-width="2" stroke-linecap="round" stroke-linejoin="round" fill="none"/><path d="M 227 55 L 226 54 L 225 54 L 225 55 L 225 57" stroke="#ffffff" stroke-width="2" stroke-linecap="round" stroke-linejoin="round" fill="none"/><path d="M 223 87 L 221 86 L 220 84 L 221 83 L 225 82 L 228 81 L 230 82 L 230 83 L 228 86 L 225 87" stroke="#ffffff" stroke-width="2" stroke-linecap="round" stroke-linejoin="round" fill="none"/><path d="M 241 70 L 240 70 L 238 69 L 237 69 L 238 72 L 240 75" stroke="#ffffff" stroke-width="2" stroke-linecap="round" stroke-linejoin="round" fill="none"/><path d="M 250 74 L 249 74 L 248 73 L 247 73 L 246 73 L 244 73 L 243 76 L 241 80 L 240 85 L 240 87 L 243 88 L 248 84" stroke="#ffffff" stroke-width="2" stroke-linecap="round" stroke-linejoin="round" fill="none"/><path d="M 268 73 L 267 72 L 266 71 L 265 72 L 263 74 L 262 77 L 262 79" stroke="#ffffff" stroke-width="2" stroke-linecap="round" stroke-linejoin="round" fill="none"/><path d="M 270 71 L 271 70 L 272 70 L 274 70 L 276 70 L 279 71" stroke="#ffffff" stroke-width="2" stroke-linecap="round" stroke-linejoin="round" fill="none"/><path d="M 272 58 L 273 58 L 273 60 L 271 68 L 269 80 L 268 89 L 268 94" stroke="#ffffff" stroke-width="2" stroke-linecap="round" stroke-linejoin="round" fill="none"/><path d="M 290 55 L 289 55 L 287 55 L 286 57 L 286 61 L 285 67" stroke="#ffffff" stroke-width="2" stroke-linecap="round" stroke-linejoin="round" fill="none"/><path d="M 278 76 L 278 75 L 277 73 L 278 71 L 283 69 L 290 66 L 296 64" stroke="#ffffff" stroke-width="2" stroke-linecap="round" stroke-linejoin="round" fill="none"/><path d="M 291 68 L 290 68 L 288 68 L 287 68 L 287 69 L 286 73 L 286 79 L 286 83 L 287 86 L 289 86 L 292 84 L 294 82" stroke="#ffffff" stroke-width="2" stroke-linecap="round" stroke-linejoin="round" fill="none"/><path d="M 315 65 L 315 64 L 313 64 L 311 70 L 310 79 L 311 85 L 314 87 L 319 85 L 325 79 L 327 77" stroke="#ffffff" stroke-width="2" stroke-linecap="round" stroke-linejoin="round" fill="none"/><path d="M 340 72 L 340 71 L 340 74 L 339 77 L 339 79 L 341 80 L 343 78 L 345 74 L 347 71 L 349 69 L 349 73 L 349 78 L 349 79" stroke="#ffffff" stroke-width="2" stroke-linecap="round" stroke-linejoin="round" fill="none"/><path d="M 400 70 L 398 69 L 397 69 L 396 71 L 395 77 L 395 83 L 396 86" stroke="#ffffff" stroke-width="2" stroke-linecap="round" stroke-linejoin="round" fill="none"/><path d="M 416 65 L 413 64 L 411 64 L 409 67 L 409 74 L 410 81 L 413 84 L 417 84 L 421 80 L 423 74 L 424 70 L 423 67 L 421 64 L 418 63 L 415 63 L 412 66 L 409 71 L 408 73" stroke="#ffffff" stroke-width="2" stroke-linecap="round" stroke-linejoin="round" fill="none"/><path d="M 439 57 L 438 57 L 437 57 L 436 61 L 435 70 L 434 79 L 434 84 L 434 85" stroke="#ffffff" stroke-width="2" stroke-linecap="round" stroke-linejoin="round" fill="none"/><path d="M 435 62 L 434 61 L 433 59 L 433 57 L 436 56 L 439 55 L 442 54 L 445 54 L 446 54 L 446 55 L 446 59 L 446 66 L 447 74 L 447 80 L 447 84 L 448 84" stroke="#ffffff" stroke-width="2" stroke-linecap="round" stroke-linejoin="round" fill="none"/><path d="M 437 68 L 435 67 L 434 66 L 436 66 L 440 65 L 444 64 L 445 64" stroke="#ffffff" stroke-width="2" stroke-linecap="round" stroke-linejoin="round" fill="none"/><path d="M 437 72 L 436 73 L 434 73 L 433 73 L 435 73 L 438 73 L 443 72 L 447 71" stroke="#ffffff" stroke-width="2" stroke-linecap="round" stroke-linejoin="round" fill="none"/><path d="M 471 59 L 470 59 L 469 64 L 469 71 L 468 78 L 468 81" stroke="#ffffff" stroke-width="2" stroke-linecap="round" stroke-linejoin="round" fill="none"/><path d="M 469 62 L 469 61 L 468 60 L 468 59 L 469 58 L 472 57 L 474 57 L 477 57 L 478 59 L 479 63 L 479 69 L 479 75 L 479 79 L 479 80" stroke="#ffffff" stroke-width="2" stroke-linecap="round" stroke-linejoin="round" fill="none"/><path d="M 471 72 L 471 71 L 470 70 L 471 69 L 473 69 L 478 68" stroke="#ffffff" stroke-width="2" stroke-linecap="round" stroke-linejoin="round" fill="none"/><path d="M 470 81 L 470 82 L 468 82 L 467 82 L 468 82 L 472 82 L 478 80 L 482 79" stroke="#ffffff" stroke-width="2" stroke-linecap="round" stroke-linejoin="round" fill="none"/><path d="M 496 68 L 495 68 L 494 67 L 493 65 L 496 64 L 501 62 L 506 60 L 510 60 L 511 60" stroke="#ffffff" stroke-width="2" stroke-linecap="round" stroke-linejoin="round" fill="none"/><path d="M 504 55 L 503 55 L 501 54 L 502 56 L 504 62 L 506 70 L 506 78 L 506 84 L 506 87 L 506 88" stroke="#ffffff" stroke-width="2" stroke-linecap="round" stroke-linejoin="round" fill="none"/><path d="M 507 67 L 506 67 L 504 66 L 502 67 L 499 70 L 496 73 L 493 77 L 489 80 L 488 81 L 488 80" stroke="#ffffff" stroke-width="2" stroke-linecap="round" stroke-linejoin="round" fill="none"/><path d="M 503 68 L 504 66 L 506 65 L 508 65 L 511 67 L 514 69 L 517 71" stroke="#ffffff" stroke-width="2" stroke-linecap="round" stroke-linejoin="round" fill="none"/><path d="M 495 84 L 494 84 L 493 84 L 497 83 L 504 81 L 512 80 L 517 78" stroke="#ffffff" stroke-width="2" stroke-linecap="round" stroke-linejoin="round" fill="none"/><path d="M 508 60 L 509 61 L 511 61 L 514 61 L 516 61 L 518 61" stroke="#ffffff" stroke-width="2" stroke-linecap="round" stroke-linejoin="round" fill="none"/><path d="M 541 54 L 540 56 L 540 60 L 540 66 L 541 72 L 541 75" stroke="#ffffff" stroke-width="2" stroke-linecap="round" stroke-linejoin="round" fill="none"/><path d="M 532 55 L 531 55 L 530 55 L 530 58 L 532 61 L 534 62 L 537 63 L 541 60 L 544 58 L 546 55 L 547 53 L 548 53 L 548 54 L 548 56 L 548 59 L 548 62 L 549 63" stroke="#ffffff" stroke-width="2" stroke-linecap="round" stroke-linejoin="round" fill="none"/><path d="M 532 69 L 530 70 L 528 70 L 528 72 L 529 74 L 534 74 L 540 73 L 544 71 L 546 69 L 546 67 L 547 67 L 548 68 L 549 71 L 550 74 L 551 74" stroke="#ffffff" stroke-width="2" stroke-linecap="round" stroke-linejoin="round" fill="none"/><path d="M 560 53 L 559 52 L 561 50 L 565 49 L 569 49 L 572 49 L 574 49" stroke="#ffffff" stroke-width="2" stroke-linecap="round" stroke-linejoin="round" fill="none"/><path d="M 564 58 L 563 57 L 562 56 L 563 55 L 565 54 L 568 53 L 570 53 L 570 54 L 567 56 L 564 59 L 561 63 L 561 65 L 562 66 L 565 66 L 568 65 L 571 65 L 572 66 L 573 67 L 573 70 L 572 74 L 570 78 L 568 81 L 567 82" stroke="#ffffff" stroke-width="2" stroke-linecap="round" stroke-linejoin="round" fill="none"/><path d="M 584 46 L 583 46 L 582 45 L 581 44 L 580 44 L 579 44 L 581 44 L 585 44 L 589 44 L 591 44" stroke="#ffffff" stroke-width="2" stroke-linecap="round" stroke-linejoin="round" fill="none"/><path d="M 584 47 L 582 47 L 581 47 L 580 48 L 579 53 L 579 58 L 580 63" stroke="#ffffff" stroke-width="2" stroke-linecap="round" stroke-linejoin="round" fill="none"/><path d="M 582 55 L 582 53 L 581 52 L 582 51 L 584 50 L 586 50" stroke="#ffffff" stroke-width="2" stroke-linecap="round" stroke-linejoin="round" fill="none"/><path d="M 582 57 L 582 58 L 582 57 L 585 55 L 586 55" stroke="#ffffff" stroke-width="2" stroke-linecap="round" stroke-linejoin="round" fill="none"/><path d="M 570 71 L 568 72 L 567 73 L 570 71 L 576 67 L 585 63 L 592 60 L 594 59 L 595 59 L 595 58 L 594 58 L 591 58 L 588 60 L 585 63 L 582 68 L 580 75 L 580 80 L 581 81 L 583 81" stroke="#ffffff" stroke-width="2" stroke-linecap="round" stroke-linejoin="round" fill="none"/><path d="M 604 65 L 601 65 L 597 66 L 591 69 L 586 72 L 583 74 L 582 75" stroke="#ffffff" stroke-width="2" stroke-linecap="round" stroke-linejoin="round" fill="none"/><path d="M 581 65 L 583 65 L 584 65 L 586 67 L 590 71 L 598 77 L 608 80 L 613 81" stroke="#ffffff" stroke-width="2" stroke-linecap="round" stroke-linejoin="round" fill="none"/><path d="M 570 55 L 569 55 L 569 54 L 569 53 L 571 52 L 571 51" stroke="#ffffff" stroke-width="2" stroke-linecap="round" stroke-linejoin="round" fill="none"/></svg>
