<svg xmlns="http://www.w3.org/2000/svg" width="94" height="48" viewBox="0 0 94 48"><path d="M 21 12 L 21 11 L 20 11 L 17 14 L 14 22 L 11 31 L 10 36 L 10 38" stroke="#ffffff" stroke-width="2" stroke-linecap="round" stroke-linejoin="round" fill="none"/><path d="M 34 18 L 33 17 L 33 16 L 36 17 L 38 19 L 39 21 L 39 23 L 37 25 L 34 27 L 30 29 L 28 29 L 28 30 L 31 31 L 34 32 L 38 32 L 42 32 L 47 32 L 50 31" stroke="#ffffff" stroke-width="2" stroke-linecap="round" stroke-linejoin="round" fill="none"/><path d="M 63 12 L 62 11 L 62 10 L 61 10 L 60 12 L 59 16 L 59 19 L 59 22 L 62 23 L 66 25 L 68 26 L 69 27 L 67 29 L 63 31 L 60 32 L 57 33 L 55 33" stroke="#ffffff" stroke-width="2" stroke-linecap="round" stroke-linejoin="round" fill="none"/><path d="M 59 17 L 59 15 L 59 13 L 62 12 L 69 12 L 79 14 L 84 14" stroke="#ffffff" stroke-width="2" stroke-linecap="round" stroke-linejoin="round" fill="none"/></svg>
