<svg xmlns="http://www.w3.org/2000/svg" width="564" height="135" viewBox="0 0 564 135"><path d="M 12 19 L 11 18 L 10 19 L 10 24 L 10 29 L 10 33 L 11 35" stroke="#ffffff" stroke-width="2" stroke-linecap="round" stroke-linejoin="round" fill="none"/><path d="M 10 23 L 10 22 L 10 20 L 10 18 L 12 16 L 15 16 L 18 16 L 20 17 L 22 20 L 22 25 L 22 32 L 22 42 L 22 50 L 22 55" stroke="#ffffff" stroke-width="2" stroke-linecap="round" stroke-linejoin="round" fill="none"/><path d="M 65 12 L 64 10 L 63 10 L 60 15 L 55 27 L 48 45 L 41 61 L 36 71 L 34 77" stroke="#ffffff" stroke-width="2" stroke-linecap="round" stroke-linejoin="round" fill="none"/><path d="M 71 43 L 70 42 L 70 43 L 69 50 L 69 58 L 71 63" stroke="#ffffff" stroke-width="2" stroke-linecap="round" stroke-linejoin="round" fill="none"/><path d="M 81 42 L 80 42 L 80 44 L 80 51 L 80 61 L 80 63" stroke="#ffffff" stroke-width="2" stroke-linecap="round" stroke-linejoin="round" fill="none"/><path d="M 162 29 L 160 27 L 156 26 L 154 28 L 151 35 L 149 44 L 150 51 L 153 52 L 158 51 L 163 48" stroke="#ffffff" stroke-width="2" stroke-linecap="round" stroke-linejoin="round" fill="none"/><path d="M 195 15 L 194 14 L 192 13 L 190 15 L 187 22 L 184 34 L 182 44 L 183 48 L 185 48 L 189 46 L 193 40 L 195 35 L 195 32 L 191 32 L 186 36 L 181 41 L 180 46" stroke="#ffffff" stroke-width="2" stroke-linecap="round" stroke-linejoin="round" fill="none"/><path d="M 215 27 L 211 27 L 209 27 L 208 31 L 208 36 L 210 40 L 212 41 L 216 40 L 218 37 L 219 33 L 219 29 L 216 27 L 212 28 L 209 32" stroke="#ffffff" stroke-width="2" stroke-linecap="round" stroke-linejoin="round" fill="none"/><path d="M 258 13 L 256 12 L 255 11 L 253 15 L 247 27 L 240 42 L 233 54 L 231 62" stroke="#ffffff" stroke-width="2" stroke-linecap="round" stroke-linejoin="round" fill="none"/><path d="M 287 19 L 285 19 L 284 19 L 282 26 L 279 36 L 278 45 L 277 51 L 277 52" stroke="#ffffff" stroke-width="2" stroke-linecap="round" stroke-linejoin="round" fill="none"/><path d="M 277 43 L 276 42 L 276 39 L 280 36 L 287 32 L 293 30 L 296 28" stroke="#ffffff" stroke-width="2" stroke-linecap="round" stroke-linejoin="round" fill="none"/><path d="M 297 17 L 296 18 L 294 22 L 292 31 L 291 41 L 291 46" stroke="#ffffff" stroke-width="2" stroke-linecap="round" stroke-linejoin="round" fill="none"/><path d="M 320 19 L 319 19 L 317 17 L 315 15 L 314 15 L 312 17 L 312 19 L 311 22 L 312 25 L 314 28 L 317 31 L 317 34 L 316 36 L 312 38 L 307 38 L 303 36 L 303 33" stroke="#ffffff" stroke-width="2" stroke-linecap="round" stroke-linejoin="round" fill="none"/><path d="M 335 23 L 333 23 L 330 26 L 328 32 L 327 41 L 327 49 L 327 54 L 327 57" stroke="#ffffff" stroke-width="2" stroke-linecap="round" stroke-linejoin="round" fill="none"/><path d="M 326 33 L 325 32 L 324 27 L 326 24 L 330 22 L 335 21 L 340 24 L 340 29 L 336 34 L 331 39 L 326 42" stroke="#ffffff" stroke-width="2" stroke-linecap="round" stroke-linejoin="round" fill="none"/><path d="M 367 21 L 365 20 L 364 19 L 362 20 L 361 23 L 360 27 L 361 31 L 365 33 L 370 34 L 373 36 L 373 39 L 369 42 L 364 45 L 360 45 L 359 45" stroke="#ffffff" stroke-width="2" stroke-linecap="round" stroke-linejoin="round" fill="none"/><path d="M 360 25 L 360 23 L 361 22 L 364 21 L 371 20 L 379 22 L 387 22 L 388 22" stroke="#ffffff" stroke-width="2" stroke-linecap="round" stroke-linejoin="round" fill="none"/><path d="M 395 20 L 394 20 L 393 21 L 392 21 L 391 22 L 390 27 L 390 33 L 392 37 L 395 38 L 398 36 L 401 31 L 402 25 L 402 21 L 399 18 L 394 18 L 389 22 L 388 23" stroke="#ffffff" stroke-width="2" stroke-linecap="round" stroke-linejoin="round" fill="none"/><path d="M 76 108 L 75 106 L 76 101 L 80 97 L 86 95 L 90 96 L 91 100 L 91 104 L 89 108 L 86 111 L 83 112 L 81 112 L 81 113 L 81 115 L 84 119 L 87 122 L 90 124 L 92 125" stroke="#ffffff" stroke-width="2" stroke-linecap="round" stroke-linejoin="round" fill="none"/><path d="M 105 109 L 102 109 L 101 109 L 101 111 L 103 112" stroke="#ffffff" stroke-width="2" stroke-linecap="round" stroke-linejoin="round" fill="none"/><path d="M 110 107 L 110 108 L 108 108 L 108 109 L 107 111 L 107 112" stroke="#ffffff" stroke-width="2" stroke-linecap="round" stroke-linejoin="round" fill="none"/><path d="M 116 104 L 117 103 L 117 105 L 115 110 L 112 118 L 110 121" stroke="#ffffff" stroke-width="2" stroke-linecap="round" stroke-linejoin="round" fill="none"/><path d="M 124 105 L 123 103 L 127 100 L 133 97 L 140 94 L 145 92 L 147 91" stroke="#ffffff" stroke-width="2" stroke-linecap="round" stroke-linejoin="round" fill="none"/><path d="M 135 86 L 134 86 L 132 85 L 132 88 L 133 96 L 133 105 L 134 111" stroke="#ffffff" stroke-width="2" stroke-linecap="round" stroke-linejoin="round" fill="none"/><path d="M 140 88 L 140 90 L 140 99 L 139 112 L 137 122" stroke="#ffffff" stroke-width="2" stroke-linecap="round" stroke-linejoin="round" fill="none"/><path d="M 159 107 L 157 107 L 156 107 L 157 106 L 161 105 L 162 105" stroke="#ffffff" stroke-width="2" stroke-linecap="round" stroke-linejoin="round" fill="none"/><path d="M 183 98 L 183 96 L 183 95 L 184 93 L 186 92 L 187 92" stroke="#ffffff" stroke-width="2" stroke-linecap="round" stroke-linejoin="round" fill="none"/><path d="M 183 105 L 182 105 L 183 103 L 186 100 L 188 99" stroke="#ffffff" stroke-width="2" stroke-linecap="round" stroke-linejoin="round" fill="none"/><path d="M 187 116 L 187 117 L 185 117 L 186 114 L 191 108 L 197 102" stroke="#ffffff" stroke-width="2" stroke-linecap="round" stroke-linejoin="round" fill="none"/><path d="M 204 76 L 203 76 L 201 77 L 201 80 L 201 85" stroke="#ffffff" stroke-width="2" stroke-linecap="round" stroke-linejoin="round" fill="none"/><path d="M 211 76 L 211 75 L 209 75 L 208 78" stroke="#ffffff" stroke-width="2" stroke-linecap="round" stroke-linejoin="round" fill="none"/><path d="M 226 91 L 226 89 L 225 87 L 224 89 L 224 95 L 224 102 L 224 105" stroke="#ffffff" stroke-width="2" stroke-linecap="round" stroke-linejoin="round" fill="none"/><path d="M 227 94 L 227 93 L 228 89 L 228 85 L 229 84 L 230 84 L 231 87 L 231 92 L 231 97 L 231 100" stroke="#ffffff" stroke-width="2" stroke-linecap="round" stroke-linejoin="round" fill="none"/><path d="M 227 99 L 225 97 L 225 95 L 226 95 L 227 95" stroke="#ffffff" stroke-width="2" stroke-linecap="round" stroke-linejoin="round" fill="none"/><path d="M 227 104 L 225 104 L 224 103 L 228 101" stroke="#ffffff" stroke-width="2" stroke-linecap="round" stroke-linejoin="round" fill="none"/><path d="M 241 82 L 240 82 L 240 79 L 241 76 L 244 74 L 247 72 L 249 71 L 249 70 L 248 71 L 247 74 L 246 79 L 245 80" stroke="#ffffff" stroke-width="2" stroke-linecap="round" stroke-linejoin="round" fill="none"/><path d="M 239 97 L 238 96 L 237 94 L 238 91 L 242 88 L 247 86 L 248 86" stroke="#ffffff" stroke-width="2" stroke-linecap="round" stroke-linejoin="round" fill="none"/><path d="M 244 95 L 243 95 L 242 95 L 241 94 L 242 93 L 244 92 L 245 92 L 246 95 L 246 100 L 244 108 L 241 116 L 240 122 L 239 125" stroke="#ffffff" stroke-width="2" stroke-linecap="round" stroke-linejoin="round" fill="none"/><path d="M 232 112 L 232 110 L 232 108 L 235 106 L 241 103" stroke="#ffffff" stroke-width="2" stroke-linecap="round" stroke-linejoin="round" fill="none"/><path d="M 265 81 L 263 79 L 261 81 L 259 91 L 257 104 L 258 112 L 261 115" stroke="#ffffff" stroke-width="2" stroke-linecap="round" stroke-linejoin="round" fill="none"/><path d="M 262 87 L 262 83 L 262 79 L 264 78 L 265 78 L 268 81 L 269 86 L 270 89" stroke="#ffffff" stroke-width="2" stroke-linecap="round" stroke-linejoin="round" fill="none"/><path d="M 263 90 L 262 88 L 261 87 L 261 86 L 263 86" stroke="#ffffff" stroke-width="2" stroke-linecap="round" stroke-linejoin="round" fill="none"/><path d="M 264 94 L 262 95 L 262 94 L 263 92 L 266 89" stroke="#ffffff" stroke-width="2" stroke-linecap="round" stroke-linejoin="round" fill="none"/><path d="M 276 78 L 275 78 L 273 80 L 273 85 L 273 89" stroke="#ffffff" stroke-width="2" stroke-linecap="round" stroke-linejoin="round" fill="none"/><path d="M 277 76 L 277 74 L 276 72 L 279 72 L 282 76 L 284 83 L 285 95 L 283 109 L 282 118 L 282 122 L 282 123" stroke="#ffffff" stroke-width="2" stroke-linecap="round" stroke-linejoin="round" fill="none"/><path d="M 276 85 L 275 83 L 275 82 L 275 81 L 276 81" stroke="#ffffff" stroke-width="2" stroke-linecap="round" stroke-linejoin="round" fill="none"/><path d="M 276 89 L 275 90 L 275 89 L 275 88" stroke="#ffffff" stroke-width="2" stroke-linecap="round" stroke-linejoin="round" fill="none"/><path d="M 269 100 L 267 101 L 265 104 L 265 106 L 265 109" stroke="#ffffff" stroke-width="2" stroke-linecap="round" stroke-linejoin="round" fill="none"/><path d="M 267 105 L 267 104 L 268 101 L 270 97 L 272 95 L 273 97 L 273 101 L 272 106 L 271 109" stroke="#ffffff" stroke-width="2" stroke-linecap="round" stroke-linejoin="round" fill="none"/><path d="M 269 105 L 269 104 L 269 103 L 269 102 L 270 101" stroke="#ffffff" stroke-width="2" stroke-linecap="round" stroke-linejoin="round" fill="none"/><path d="M 268 112 L 266 113 L 265 114 L 266 113 L 271 109" stroke="#ffffff" stroke-width="2" stroke-linecap="round" stroke-linejoin="round" fill="none"/><path d="M 312 88 L 311 86 L 314 84 L 318 81 L 323 80 L 324 80" stroke="#ffffff" stroke-width="2" stroke-linecap="round" stroke-linejoin="round" fill="none"/><path d="M 311 98 L 310 98 L 309 99 L 312 97 L 317 95 L 320 93" stroke="#ffffff" stroke-width="2" stroke-linecap="round" stroke-linejoin="round" fill="none"/><path d="M 319 79 L 317 77 L 317 76 L 317 80 L 317 90 L 316 102 L 315 111 L 314 116 L 313 116 L 311 114 L 309 110 L 309 108 L 309 107 L 312 106 L 316 106 L 320 105" stroke="#ffffff" stroke-width="2" stroke-linecap="round" stroke-linejoin="round" fill="none"/><path d="M 334 93 L 333 90 L 335 87 L 339 85 L 344 83 L 347 83" stroke="#ffffff" stroke-width="2" stroke-linecap="round" stroke-linejoin="round" fill="none"/><path d="M 342 79 L 341 79 L 340 80 L 339 83 L 338 91 L 336 100 L 335 106 L 335 107 L 335 104 L 337 100 L 340 97 L 344 97 L 346 101 L 345 107 L 341 112 L 336 116 L 334 117" stroke="#ffffff" stroke-width="2" stroke-linecap="round" stroke-linejoin="round" fill="none"/><path d="M 357 104 L 355 102 L 355 100 L 357 98 L 362 96 L 367 96 L 369 98 L 370 101 L 369 104 L 367 105 L 366 105 L 365 103 L 364 99 L 364 93 L 365 87 L 365 85 L 365 86 L 362 95 L 360 104 L 358 111 L 358 115" stroke="#ffffff" stroke-width="2" stroke-linecap="round" stroke-linejoin="round" fill="none"/><path d="M 370 85 L 370 86 L 372 89 L 378 96 L 383 102" stroke="#ffffff" stroke-width="2" stroke-linecap="round" stroke-linejoin="round" fill="none"/><path d="M 384 75 L 381 75 L 379 76 L 378 81" stroke="#ffffff" stroke-width="2" stroke-linecap="round" stroke-linejoin="round" fill="none"/><path d="M 389 74 L 387 74 L 385 78 L 385 79" stroke="#ffffff" stroke-width="2" stroke-linecap="round" stroke-linejoin="round" fill="none"/><path d="M 397 94 L 395 93 L 394 92 L 394 95 L 394 100 L 395 102" stroke="#ffffff" stroke-width="2" stroke-linecap="round" stroke-linejoin="round" fill="none"/><path d="M 404 92 L 405 91 L 405 89 L 405 88 L 405 91 L 404 96 L 404 99" stroke="#ffffff" stroke-width="2" stroke-linecap="round" stroke-linejoin="round" fill="none"/><path d="M 413 86 L 412 86 L 411 85 L 412 84 L 415 83 L 420 84 L 424 84 L 427 85 L 425 86 L 422 89 L 420 95 L 419 102 L 419 106 L 422 108 L 426 106 L 427 106" stroke="#ffffff" stroke-width="2" stroke-linecap="round" stroke-linejoin="round" fill="none"/><path d="M 435 69 L 433 69 L 429 69 L 427 71 L 427 76 L 428 78" stroke="#ffffff" stroke-width="2" stroke-linecap="round" stroke-linejoin="round" fill="none"/><path d="M 440 66 L 440 65 L 438 68 L 437 74" stroke="#ffffff" stroke-width="2" stroke-linecap="round" stroke-linejoin="round" fill="none"/><path d="M 460 91 L 460 90 L 460 87 L 462 83 L 467 78 L 473 76 L 476 75 L 477 77 L 477 79 L 477 80 L 475 81 L 473 82 L 471 85 L 469 89 L 467 97 L 465 106 L 462 114 L 459 118 L 458 120" stroke="#ffffff" stroke-width="2" stroke-linecap="round" stroke-linejoin="round" fill="none"/><path d="M 481 100 L 480 100 L 479 98 L 482 94 L 488 92 L 494 91 L 498 90 L 499 90 L 500 90 L 498 93 L 494 96 L 490 99" stroke="#ffffff" stroke-width="2" stroke-linecap="round" stroke-linejoin="round" fill="none"/><path d="M 491 82 L 491 81 L 490 79 L 490 80 L 489 86 L 488 95 L 487 103 L 487 108 L 491 109 L 496 107 L 498 106" stroke="#ffffff" stroke-width="2" stroke-linecap="round" stroke-linejoin="round" fill="none"/><path d="M 512 88 L 512 87 L 512 84 L 515 81 L 520 79 L 525 79 L 527 80 L 527 81 L 527 82 L 525 84 L 523 85 L 522 87 L 520 90 L 519 95 L 518 99 L 515 105 L 512 110 L 510 114 L 510 116" stroke="#ffffff" stroke-width="2" stroke-linecap="round" stroke-linejoin="round" fill="none"/><path d="M 532 99 L 532 98 L 531 96 L 534 93 L 540 92 L 547 90 L 553 89 L 554 90 L 553 92 L 551 94 L 549 96 L 549 98 L 548 99" stroke="#ffffff" stroke-width="2" stroke-linecap="round" stroke-linejoin="round" fill="none"/><path d="M 544 83 L 542 81 L 541 80 L 540 82 L 538 89 L 536 97 L 535 106 L 536 112 L 539 116 L 544 117 L 545 117" stroke="#ffffff" stroke-width="2" stroke-linecap="round" stroke-linejoin="round" fill="none"/></svg>
