<svg xmlns="http://www.w3.org/2000/svg" width="657" height="276" viewBox="0 0 657 276"><path d="M 17 16 L 17 15 L 16 13 L 17 12 L 20 12 L 24 12 L 27 14 L 28 18 L 27 22 L 24 26 L 21 27 L 19 27 L 19 25 L 20 25 L 22 26 L 24 30 L 25 36 L 24 41 L 21 43 L 17 44 L 12 43 L 10 42 L 10 41" stroke="#ffffff" stroke-width="2" stroke-linecap="round" stroke-linejoin="round" fill="none"/><path d="M 58 13 L 57 11 L 57 10 L 56 11 L 53 19 L 47 33 L 39 49 L 32 60 L 30 67 L 29 68" stroke="#ffffff" stroke-width="2" stroke-linecap="round" stroke-linejoin="round" fill="none"/><path d="M 66 40 L 65 38 L 64 38 L 63 40 L 62 45 L 60 51 L 60 56" stroke="#ffffff" stroke-width="2" stroke-linecap="round" stroke-linejoin="round" fill="none"/><path d="M 82 41 L 81 41 L 80 41 L 78 41 L 78 44 L 78 48 L 79 52 L 82 53 L 85 52 L 87 48 L 89 44 L 88 40 L 86 39 L 83 39 L 77 44" stroke="#ffffff" stroke-width="2" stroke-linecap="round" stroke-linejoin="round" fill="none"/><path d="M 155 29 L 155 27 L 153 25 L 151 24 L 148 23 L 144 27 L 140 34 L 137 41 L 137 46 L 141 47 L 147 46 L 156 41 L 158 39" stroke="#ffffff" stroke-width="2" stroke-linecap="round" stroke-linejoin="round" fill="none"/><path d="M 176 24 L 176 22 L 175 22 L 174 22 L 172 25 L 171 28 L 171 31 L 174 34 L 178 36 L 180 38 L 181 40 L 179 41 L 176 42 L 171 43 L 167 42 L 164 41" stroke="#ffffff" stroke-width="2" stroke-linecap="round" stroke-linejoin="round" fill="none"/><path d="M 174 26 L 176 23 L 178 22 L 182 23 L 188 25 L 195 27" stroke="#ffffff" stroke-width="2" stroke-linecap="round" stroke-linejoin="round" fill="none"/><path d="M 216 21 L 215 20 L 213 20 L 211 20 L 209 23 L 209 27 L 210 31 L 213 34 L 216 36 L 219 38 L 219 39 L 216 41 L 212 43 L 207 43 L 203 42 L 201 40" stroke="#ffffff" stroke-width="2" stroke-linecap="round" stroke-linejoin="round" fill="none"/><path d="M 208 24 L 208 23 L 208 21 L 211 21 L 220 23 L 231 25 L 233 25" stroke="#ffffff" stroke-width="2" stroke-linecap="round" stroke-linejoin="round" fill="none"/><path d="M 76 78 L 74 78 L 73 78 L 71 79 L 68 84 L 64 94 L 62 103 L 61 107 L 63 108 L 66 106 L 69 103 L 71 99 L 72 96 L 71 94 L 68 94 L 64 97 L 60 101" stroke="#ffffff" stroke-width="2" stroke-linecap="round" stroke-linejoin="round" fill="none"/><path d="M 127 84 L 127 83 L 125 82 L 122 82 L 118 82 L 115 85 L 112 87 L 109 89 L 108 90 L 111 91 L 116 92 L 121 92 L 126 93" stroke="#ffffff" stroke-width="2" stroke-linecap="round" stroke-linejoin="round" fill="none"/><path d="M 125 85 L 124 84 L 123 83 L 121 83 L 119 87 L 117 95 L 115 103" stroke="#ffffff" stroke-width="2" stroke-linecap="round" stroke-linejoin="round" fill="none"/><path d="M 131 100 L 130 101 L 128 102 L 127 105 L 128 107 L 128 108" stroke="#ffffff" stroke-width="2" stroke-linecap="round" stroke-linejoin="round" fill="none"/><path d="M 152 83 L 152 84 L 151 84 L 149 85 L 147 86 L 147 88 L 147 91 L 150 93 L 152 95 L 154 97 L 155 99 L 152 100 L 149 101 L 146 100 L 145 99" stroke="#ffffff" stroke-width="2" stroke-linecap="round" stroke-linejoin="round" fill="none"/><path d="M 149 86 L 149 85 L 151 85 L 154 86 L 157 86" stroke="#ffffff" stroke-width="2" stroke-linecap="round" stroke-linejoin="round" fill="none"/><path d="M 228 77 L 226 76 L 225 77 L 222 83 L 220 92 L 218 101 L 218 106 L 218 107" stroke="#ffffff" stroke-width="2" stroke-linecap="round" stroke-linejoin="round" fill="none"/><path d="M 220 93 L 220 92 L 219 91 L 219 90 L 219 91 L 223 94 L 228 97 L 233 99" stroke="#ffffff" stroke-width="2" stroke-linecap="round" stroke-linejoin="round" fill="none"/><path d="M 244 91 L 243 91 L 241 90 L 241 91 L 240 93" stroke="#ffffff" stroke-width="2" stroke-linecap="round" stroke-linejoin="round" fill="none"/><path d="M 250 89 L 249 89 L 248 89 L 246 91 L 246 92 L 246 93" stroke="#ffffff" stroke-width="2" stroke-linecap="round" stroke-linejoin="round" fill="none"/><path d="M 253 89 L 254 88 L 255 89 L 253 93 L 249 99 L 244 105 L 242 106" stroke="#ffffff" stroke-width="2" stroke-linecap="round" stroke-linejoin="round" fill="none"/><path d="M 267 91 L 267 89 L 268 87 L 268 85 L 270 83 L 273 82 L 276 82 L 277 84 L 277 87 L 275 91 L 273 94 L 271 97" stroke="#ffffff" stroke-width="2" stroke-linecap="round" stroke-linejoin="round" fill="none"/><path d="M 284 77 L 284 75 L 283 72 L 283 70 L 283 68 L 285 66 L 286 66 L 286 69 L 285 72 L 283 75 L 281 78 L 279 79" stroke="#ffffff" stroke-width="2" stroke-linecap="round" stroke-linejoin="round" fill="none"/><path d="M 307 74 L 306 75 L 304 79 L 301 87 L 299 94 L 299 97 L 300 98" stroke="#ffffff" stroke-width="2" stroke-linecap="round" stroke-linejoin="round" fill="none"/><path d="M 307 77 L 306 75 L 306 72 L 307 70 L 310 68 L 314 67 L 319 66 L 323 66 L 325 66 L 325 67 L 325 71 L 325 76 L 325 82 L 324 89 L 323 94 L 323 96" stroke="#ffffff" stroke-width="2" stroke-linecap="round" stroke-linejoin="round" fill="none"/><path d="M 318 83 L 316 83 L 314 82 L 313 81 L 312 82 L 311 86 L 311 91 L 313 93 L 315 93 L 317 90 L 318 88 L 318 85 L 317 85 L 315 85 L 312 89 L 309 93" stroke="#ffffff" stroke-width="2" stroke-linecap="round" stroke-linejoin="round" fill="none"/><path d="M 350 74 L 348 73 L 345 73 L 342 76 L 341 82 L 342 86 L 345 88 L 349 87 L 354 84 L 354 83" stroke="#ffffff" stroke-width="2" stroke-linecap="round" stroke-linejoin="round" fill="none"/><path d="M 357 65 L 356 65 L 355 65 L 353 67 L 352 71 L 351 72" stroke="#ffffff" stroke-width="2" stroke-linecap="round" stroke-linejoin="round" fill="none"/><path d="M 364 67 L 364 66 L 362 69 L 361 73" stroke="#ffffff" stroke-width="2" stroke-linecap="round" stroke-linejoin="round" fill="none"/><path d="M 310 80 L 311 80 L 313 79 L 317 77 L 322 76 L 323 75" stroke="#ffffff" stroke-width="2" stroke-linecap="round" stroke-linejoin="round" fill="none"/><path d="M 373 76 L 373 75 L 373 73 L 373 72 L 374 71 L 377 71 L 379 73 L 379 76 L 378 79 L 375 82 L 372 85 L 369 86" stroke="#ffffff" stroke-width="2" stroke-linecap="round" stroke-linejoin="round" fill="none"/><path d="M 376 78 L 376 77 L 376 78 L 377 81 L 380 85 L 384 87" stroke="#ffffff" stroke-width="2" stroke-linecap="round" stroke-linejoin="round" fill="none"/><path d="M 402 69 L 401 68 L 399 66 L 396 67 L 393 71 L 391 75 L 390 79 L 389 80" stroke="#ffffff" stroke-width="2" stroke-linecap="round" stroke-linejoin="round" fill="none"/><path d="M 394 72 L 395 71 L 396 68 L 398 66 L 400 64 L 401 65 L 402 69 L 402 76 L 399 83 L 395 89 L 391 94 L 389 95 L 388 95" stroke="#ffffff" stroke-width="2" stroke-linecap="round" stroke-linejoin="round" fill="none"/><path d="M 391 79 L 391 76 L 390 74 L 391 75 L 394 77 L 399 80 L 402 81" stroke="#ffffff" stroke-width="2" stroke-linecap="round" stroke-linejoin="round" fill="none"/><path d="M 429 69 L 427 66 L 426 65 L 423 66 L 420 70 L 416 75 L 412 79 L 409 83 L 408 84" stroke="#ffffff" stroke-width="2" stroke-linecap="round" stroke-linejoin="round" fill="none"/><path d="M 416 75 L 416 74 L 415 75 L 415 79 L 414 85 L 413 91 L 413 93" stroke="#ffffff" stroke-width="2" stroke-linecap="round" stroke-linejoin="round" fill="none"/><path d="M 430 77 L 430 75 L 430 78 L 430 82 L 429 84 L 429 85" stroke="#ffffff" stroke-width="2" stroke-linecap="round" stroke-linejoin="round" fill="none"/><path d="M 439 73 L 440 73 L 439 75 L 437 79 L 436 83 L 436 85 L 439 86 L 443 83 L 448 78 L 452 74" stroke="#ffffff" stroke-width="2" stroke-linecap="round" stroke-linejoin="round" fill="none"/><path d="M 464 73 L 464 72 L 463 71 L 463 70 L 466 69 L 469 69 L 472 70 L 474 71 L 475 71 L 474 71 L 472 72 L 470 74 L 467 77 L 466 80 L 466 83 L 469 85 L 474 83 L 477 81" stroke="#ffffff" stroke-width="2" stroke-linecap="round" stroke-linejoin="round" fill="none"/><path d="M 476 59 L 474 60 L 473 63 L 473 65" stroke="#ffffff" stroke-width="2" stroke-linecap="round" stroke-linejoin="round" fill="none"/><path d="M 481 58 L 482 57 L 483 55 L 481 58 L 480 62" stroke="#ffffff" stroke-width="2" stroke-linecap="round" stroke-linejoin="round" fill="none"/><path d="M 495 72 L 494 70 L 495 69 L 500 68 L 508 68 L 514 68 L 516 69" stroke="#ffffff" stroke-width="2" stroke-linecap="round" stroke-linejoin="round" fill="none"/><path d="M 506 64 L 506 63 L 505 62 L 504 62 L 502 67 L 499 75 L 497 80 L 497 82 L 498 80 L 501 78 L 504 78 L 505 79 L 504 84 L 501 89 L 497 92 L 495 94 L 494 94" stroke="#ffffff" stroke-width="2" stroke-linecap="round" stroke-linejoin="round" fill="none"/><path d="M 527 81 L 526 80 L 526 79 L 527 78 L 530 77 L 532 77 L 533 77 L 532 77 L 530 77 L 527 77 L 525 78 L 522 81 L 520 85 L 519 89 L 518 91 L 517 92 L 516 90 L 516 89 L 516 88 L 518 88 L 522 87 L 528 86" stroke="#ffffff" stroke-width="2" stroke-linecap="round" stroke-linejoin="round" fill="none"/><path d="M 534 93 L 533 91 L 533 90 L 533 89 L 535 89 L 536 90 L 536 92 L 536 94 L 535 95" stroke="#ffffff" stroke-width="2" stroke-linecap="round" stroke-linejoin="round" fill="none"/><path d="M 560 74 L 558 73 L 556 72 L 555 73 L 554 76 L 555 80 L 556 82" stroke="#ffffff" stroke-width="2" stroke-linecap="round" stroke-linejoin="round" fill="none"/><path d="M 565 80 L 564 79 L 562 79 L 559 79 L 557 80 L 555 83 L 552 87 L 549 92 L 549 94 L 553 95 L 559 94 L 564 92" stroke="#ffffff" stroke-width="2" stroke-linecap="round" stroke-linejoin="round" fill="none"/><path d="M 589 72 L 589 70 L 587 69 L 585 70 L 583 75 L 582 81 L 580 85 L 580 86" stroke="#ffffff" stroke-width="2" stroke-linecap="round" stroke-linejoin="round" fill="none"/><path d="M 590 80 L 591 80 L 592 77 L 592 75 L 593 74 L 594 74 L 595 74" stroke="#ffffff" stroke-width="2" stroke-linecap="round" stroke-linejoin="round" fill="none"/><path d="M 583 89 L 582 89 L 581 88 L 582 87 L 586 84 L 593 82 L 597 80" stroke="#ffffff" stroke-width="2" stroke-linecap="round" stroke-linejoin="round" fill="none"/><path d="M 593 78 L 592 77 L 591 76 L 589 78 L 587 85 L 584 93 L 582 99 L 580 102 L 580 103" stroke="#ffffff" stroke-width="2" stroke-linecap="round" stroke-linejoin="round" fill="none"/><path d="M 584 89 L 584 88 L 586 87 L 587 87 L 590 90 L 593 93 L 595 96 L 596 96" stroke="#ffffff" stroke-width="2" stroke-linecap="round" stroke-linejoin="round" fill="none"/><path d="M 583 79 L 582 78 L 584 77 L 589 76" stroke="#ffffff" stroke-width="2" stroke-linecap="round" stroke-linejoin="round" fill="none"/><path d="M 601 73 L 602 72 L 603 71 L 605 69 L 608 67 L 613 66 L 616 66" stroke="#ffffff" stroke-width="2" stroke-linecap="round" stroke-linejoin="round" fill="none"/><path d="M 604 78 L 603 78 L 602 79 L 601 81 L 600 83 L 600 84" stroke="#ffffff" stroke-width="2" stroke-linecap="round" stroke-linejoin="round" fill="none"/><path d="M 605 81 L 607 79 L 608 77 L 609 76 L 609 77 L 609 78 L 608 80 L 608 81" stroke="#ffffff" stroke-width="2" stroke-linecap="round" stroke-linejoin="round" fill="none"/><path d="M 600 88 L 600 87 L 601 87 L 601 86" stroke="#ffffff" stroke-width="2" stroke-linecap="round" stroke-linejoin="round" fill="none"/><path d="M 609 84 L 608 84 L 607 85 L 605 88 L 603 91 L 600 94 L 599 95 L 597 95 L 596 95 L 594 95 L 592 96 L 591 97 L 590 97 L 592 97 L 595 96 L 600 95 L 606 93 L 613 92 L 618 91" stroke="#ffffff" stroke-width="2" stroke-linecap="round" stroke-linejoin="round" fill="none"/><path d="M 635 74 L 635 73 L 635 72 L 634 72 L 633 75 L 632 82 L 630 90 L 630 96 L 631 97" stroke="#ffffff" stroke-width="2" stroke-linecap="round" stroke-linejoin="round" fill="none"/><path d="M 641 80 L 641 79 L 640 79 L 637 81 L 633 86 L 627 90 L 624 94 L 622 94 L 622 93 L 622 90 L 623 87 L 625 85 L 628 83 L 634 82 L 640 82 L 645 84 L 647 88 L 646 94 L 642 99 L 638 102 L 635 104" stroke="#ffffff" stroke-width="2" stroke-linecap="round" stroke-linejoin="round" fill="none"/><path d="M 412 266 L 412 266 L 412 266 L 412 266" stroke="#ffffff" stroke-width="2" stroke-linecap="round" stroke-linejoin="round" fill="none"/><path d="M 44 143 L 44 142 L 44 140 L 45 138 L 48 136 L 52 136 L 55 136 L 58 137 L 58 140 L 56 143 L 53 145 L 51 147 L 49 147 L 52 146 L 55 147 L 57 149 L 57 154 L 54 160 L 50 164 L 47 165 L 47 164" stroke="#ffffff" stroke-width="2" stroke-linecap="round" stroke-linejoin="round" fill="none"/><path d="M 78 141 L 75 141 L 72 141 L 70 144 L 69 149 L 70 153 L 73 154 L 76 153 L 77 149 L 78 146 L 78 143 L 76 141 L 72 141 L 69 146 L 68 151" stroke="#ffffff" stroke-width="2" stroke-linecap="round" stroke-linejoin="round" fill="none"/><path d="M 95 138 L 93 138 L 90 138 L 88 141 L 87 147 L 88 151 L 90 151 L 93 150 L 96 146 L 97 142 L 97 139 L 95 137 L 91 137 L 87 141 L 86 144" stroke="#ffffff" stroke-width="2" stroke-linecap="round" stroke-linejoin="round" fill="none"/><path d="M 112 139 L 112 138 L 111 138 L 109 138 L 108 140 L 107 144 L 107 149 L 109 152 L 111 152 L 112 150 L 114 146 L 114 143 L 113 140 L 111 138 L 108 138 L 105 140 L 105 142" stroke="#ffffff" stroke-width="2" stroke-linecap="round" stroke-linejoin="round" fill="none"/><path d="M 133 138 L 132 137 L 131 136 L 132 135 L 137 132 L 142 130 L 147 128 L 149 128" stroke="#ffffff" stroke-width="2" stroke-linecap="round" stroke-linejoin="round" fill="none"/><path d="M 143 145 L 142 146 L 143 145 L 145 143 L 148 142 L 150 141 L 152 141 L 153 142 L 153 143 L 152 146 L 150 148 L 148 149 L 147 150 L 145 149 L 144 147 L 142 143 L 141 140 L 141 137 L 140 135 L 141 134 L 141 135 L 142 139 L 140 146 L 137 153 L 135 159" stroke="#ffffff" stroke-width="2" stroke-linecap="round" stroke-linejoin="round" fill="none"/><path d="M 182 136 L 181 136 L 180 135 L 179 135 L 179 138 L 178 140 L 177 143 L 176 145 L 174 146 L 173 146 L 173 143 L 174 140 L 177 138 L 180 136 L 183 136 L 185 137 L 185 141 L 184 146 L 182 150" stroke="#ffffff" stroke-width="2" stroke-linecap="round" stroke-linejoin="round" fill="none"/><path d="M 201 141 L 200 141 L 203 139 L 208 136 L 213 134 L 216 132" stroke="#ffffff" stroke-width="2" stroke-linecap="round" stroke-linejoin="round" fill="none"/><path d="M 209 130 L 208 131 L 207 131 L 206 133 L 206 138 L 206 145 L 206 151 L 206 155 L 206 157" stroke="#ffffff" stroke-width="2" stroke-linecap="round" stroke-linejoin="round" fill="none"/><path d="M 204 148 L 202 148 L 201 148 L 199 149 L 198 152 L 198 155 L 198 156" stroke="#ffffff" stroke-width="2" stroke-linecap="round" stroke-linejoin="round" fill="none"/><path d="M 215 143 L 216 142 L 217 142 L 219 143 L 221 146 L 222 147" stroke="#ffffff" stroke-width="2" stroke-linecap="round" stroke-linejoin="round" fill="none"/><path d="M 234 130 L 232 130 L 231 130 L 230 133 L 231 136 L 233 138 L 235 137 L 236 133 L 237 129 L 237 127 L 237 125 L 235 126 L 232 129" stroke="#ffffff" stroke-width="2" stroke-linecap="round" stroke-linejoin="round" fill="none"/><path d="M 139 134 L 139 133 L 138 132 L 139 132 L 140 133 L 140 134 L 140 135 L 141 137" stroke="#ffffff" stroke-width="2" stroke-linecap="round" stroke-linejoin="round" fill="none"/><path d="M 246 140 L 244 139 L 243 138 L 243 142 L 243 147 L 243 150 L 244 152 L 245 152" stroke="#ffffff" stroke-width="2" stroke-linecap="round" stroke-linejoin="round" fill="none"/><path d="M 254 137 L 254 136 L 253 138 L 253 141 L 254 144 L 255 145 L 256 146 L 258 145 L 259 143 L 260 140 L 261 138" stroke="#ffffff" stroke-width="2" stroke-linecap="round" stroke-linejoin="round" fill="none"/><path d="M 275 130 L 274 130 L 273 130 L 273 128 L 275 127 L 278 125 L 280 125" stroke="#ffffff" stroke-width="2" stroke-linecap="round" stroke-linejoin="round" fill="none"/><path d="M 276 137 L 275 135 L 275 134 L 275 133 L 277 132 L 278 132" stroke="#ffffff" stroke-width="2" stroke-linecap="round" stroke-linejoin="round" fill="none"/><path d="M 276 149 L 275 150 L 273 151 L 273 150 L 276 145 L 281 139 L 289 130 L 296 122 L 297 121" stroke="#ffffff" stroke-width="2" stroke-linecap="round" stroke-linejoin="round" fill="none"/><path d="M 298 143 L 297 142 L 296 140 L 297 137 L 300 134 L 303 132 L 304 132 L 304 134 L 302 137 L 300 142 L 298 146 L 296 149 L 295 150 L 294 149 L 293 148 L 293 147 L 294 146 L 297 145 L 301 144 L 309 142 L 321 137 L 327 135" stroke="#ffffff" stroke-width="2" stroke-linecap="round" stroke-linejoin="round" fill="none"/><path d="M 339 122 L 337 119 L 337 117 L 336 117 L 336 119 L 335 125 L 334 131 L 333 135 L 335 136 L 338 134 L 340 132 L 341 132 L 340 133 L 338 136 L 336 140 L 334 144 L 333 148 L 333 149 L 335 148 L 338 144 L 340 140 L 340 138 L 339 137 L 337 139 L 336 141 L 337 141" stroke="#ffffff" stroke-width="2" stroke-linecap="round" stroke-linejoin="round" fill="none"/><path d="M 362 116 L 362 115 L 361 114 L 359 114 L 355 117 L 351 122 L 349 125 L 349 126 L 353 125 L 355 123 L 356 122 L 355 122 L 354 123 L 352 127 L 351 131 L 350 134 L 351 137 L 354 137 L 358 135 L 360 133 L 360 131 L 360 130 L 359 130 L 357 130 L 355 132 L 351 136 L 349 140 L 347 143 L 348 145 L 351 145" stroke="#ffffff" stroke-width="2" stroke-linecap="round" stroke-linejoin="round" fill="none"/></svg>
