<svg xmlns="http://www.w3.org/2000/svg" width="587" height="200" viewBox="0 0 587 200"><path d="M 15 40 L 14 37 L 18 32 L 22 32 L 25 35 L 26 40 L 24 46 L 20 51 L 14 56 L 10 59 L 10 59 L 10 58 L 13 58 L 18 57 L 26 55 L 34 52 L 41 50 L 42 50" stroke="#ffffff" stroke-width="2" stroke-linecap="round" stroke-linejoin="round" fill="none"/><path d="M 61 30 L 61 29 L 61 24 L 61 23 L 60 21 L 59 20 L 57 19 L 55 20 L 53 23 L 52 26 L 53 32 L 56 37 L 58 42 L 59 46 L 57 48 L 54 49 L 49 49 L 47 46 L 46 43 L 48 40 L 53 36 L 60 32 L 65 29" stroke="#ffffff" stroke-width="2" stroke-linecap="round" stroke-linejoin="round" fill="none"/><path d="M 98 5 L 96 6 L 87 17 L 80 32 L 72 49 L 66 64 L 63 76 L 62 78" stroke="#ffffff" stroke-width="2" stroke-linecap="round" stroke-linejoin="round" fill="none"/><path d="M 101 46 L 100 43 L 104 42 L 109 41 L 113 44 L 114 47 L 112 51 L 108 54 L 105 54 L 103 54 L 104 53 L 108 53 L 113 54 L 116 57 L 116 61 L 112 64 L 106 66 L 99 67 L 95 67" stroke="#ffffff" stroke-width="2" stroke-linecap="round" stroke-linejoin="round" fill="none"/><path d="M 189 38 L 188 38 L 182 38 L 179 38 L 175 40 L 173 47 L 172 55 L 174 61 L 180 61 L 189 55 L 199 47" stroke="#ffffff" stroke-width="2" stroke-linecap="round" stroke-linejoin="round" fill="none"/><path d="M 220 23 L 216 23 L 214 29 L 212 36 L 213 41 L 218 43 L 225 43 L 229 43 L 231 45 L 229 48 L 224 51 L 218 53 L 211 54 L 205 53" stroke="#ffffff" stroke-width="2" stroke-linecap="round" stroke-linejoin="round" fill="none"/><path d="M 213 32 L 215 27 L 229 22 L 239 21 L 242 21" stroke="#ffffff" stroke-width="2" stroke-linecap="round" stroke-linejoin="round" fill="none"/><path d="M 254 21 L 250 21 L 248 21 L 244 24 L 243 29 L 246 34 L 250 38 L 254 41 L 257 43 L 258 46 L 256 50 L 253 53 L 248 55 L 244 54 L 239 50" stroke="#ffffff" stroke-width="2" stroke-linecap="round" stroke-linejoin="round" fill="none"/><path d="M 244 26 L 245 24 L 252 21 L 260 22 L 270 23" stroke="#ffffff" stroke-width="2" stroke-linecap="round" stroke-linejoin="round" fill="none"/><path d="M 317 18 L 316 18 L 311 15 L 309 16 L 305 26 L 300 45 L 296 60 L 297 68 L 298 69" stroke="#ffffff" stroke-width="2" stroke-linecap="round" stroke-linejoin="round" fill="none"/><path d="M 330 39 L 329 38 L 326 34 L 325 33 L 324 35 L 321 41 L 319 48 L 317 53 L 318 56 L 322 56 L 329 52 L 331 50" stroke="#ffffff" stroke-width="2" stroke-linecap="round" stroke-linejoin="round" fill="none"/><path d="M 346 43 L 344 42 L 343 40 L 343 40 L 342 40 L 340 42 L 339 46 L 338 50 L 341 50 L 346 48 L 350 45 L 351 43 L 350 42 L 347 45 L 346 48 L 345 51 L 346 52" stroke="#ffffff" stroke-width="2" stroke-linecap="round" stroke-linejoin="round" fill="none"/><path d="M 363 39 L 362 39 L 358 38 L 358 38 L 358 40 L 358 43 L 359 46 L 361 48 L 362 50 L 363 51 L 362 51 L 359 50 L 355 48 L 353 46" stroke="#ffffff" stroke-width="2" stroke-linecap="round" stroke-linejoin="round" fill="none"/><path d="M 377 22 L 376 22 L 373 24 L 372 33 L 370 44 L 369 51 L 369 52 L 370 50 L 372 46 L 374 43 L 375 42 L 376 43 L 376 47 L 377 51 L 379 53 L 384 50" stroke="#ffffff" stroke-width="2" stroke-linecap="round" stroke-linejoin="round" fill="none"/><path d="M 405 16 L 405 15 L 407 19 L 408 29 L 408 38 L 401 51 L 393 59 L 384 62 L 382 63" stroke="#ffffff" stroke-width="2" stroke-linecap="round" stroke-linejoin="round" fill="none"/><path d="M 73 103 L 72 99 L 72 97 L 72 97 L 71 97 L 70 102 L 67 112 L 63 127 L 62 140 L 65 143 L 70 141 L 76 134 L 79 127 L 80 122 L 78 120 L 74 121 L 68 125 L 61 134 L 60 137" stroke="#ffffff" stroke-width="2" stroke-linecap="round" stroke-linejoin="round" fill="none"/><path d="M 134 112 L 133 112 L 131 113 L 131 118 L 131 125 L 132 130 L 133 131" stroke="#ffffff" stroke-width="2" stroke-linecap="round" stroke-linejoin="round" fill="none"/><path d="M 145 109 L 145 109 L 145 108 L 144 113 L 144 121 L 144 124" stroke="#ffffff" stroke-width="2" stroke-linecap="round" stroke-linejoin="round" fill="none"/><path d="M 163 122 L 163 122 L 160 118 L 164 115 L 170 114 L 173 117 L 174 122 L 171 127 L 168 131 L 165 133" stroke="#ffffff" stroke-width="2" stroke-linecap="round" stroke-linejoin="round" fill="none"/><path d="M 193 112 L 192 112 L 192 111 L 195 109 L 200 107 L 206 106 L 209 106" stroke="#ffffff" stroke-width="2" stroke-linecap="round" stroke-linejoin="round" fill="none"/><path d="M 191 123 L 191 123 L 190 123 L 189 122 L 195 119 L 202 116 L 210 113 L 212 112" stroke="#ffffff" stroke-width="2" stroke-linecap="round" stroke-linejoin="round" fill="none"/><path d="M 206 98 L 206 97 L 204 94 L 204 96 L 203 104 L 202 114 L 201 125 L 202 131 L 207 132 L 213 128 L 218 124" stroke="#ffffff" stroke-width="2" stroke-linecap="round" stroke-linejoin="round" fill="none"/><path d="M 229 104 L 228 103 L 227 106 L 229 111 L 230 113" stroke="#ffffff" stroke-width="2" stroke-linecap="round" stroke-linejoin="round" fill="none"/><path d="M 242 109 L 242 108 L 241 108 L 240 107 L 238 108 L 236 110 L 233 115 L 230 122 L 229 127 L 232 129 L 239 127 L 249 120" stroke="#ffffff" stroke-width="2" stroke-linecap="round" stroke-linejoin="round" fill="none"/><path d="M 269 113 L 269 113 L 267 111 L 268 110 L 272 108 L 280 107 L 284 106" stroke="#ffffff" stroke-width="2" stroke-linecap="round" stroke-linejoin="round" fill="none"/><path d="M 310 87 L 309 86 L 304 84 L 299 90 L 294 98 L 292 104 L 294 105 L 298 102 L 303 97 L 308 94 L 310 92 L 311 92 L 310 95 L 307 99 L 304 103 L 302 106 L 302 106 L 304 106 L 307 105 L 311 103 L 312 102" stroke="#ffffff" stroke-width="2" stroke-linecap="round" stroke-linejoin="round" fill="none"/><path d="M 308 101 L 308 101 L 306 103 L 305 108 L 305 116 L 305 123 L 306 127" stroke="#ffffff" stroke-width="2" stroke-linecap="round" stroke-linejoin="round" fill="none"/><path d="M 303 113 L 302 114 L 294 121 L 292 124 L 293 125" stroke="#ffffff" stroke-width="2" stroke-linecap="round" stroke-linejoin="round" fill="none"/><path d="M 304 108 L 305 109 L 306 109 L 309 109 L 310 109" stroke="#ffffff" stroke-width="2" stroke-linecap="round" stroke-linejoin="round" fill="none"/><path d="M 318 99 L 318 99 L 319 95 L 321 92 L 326 89 L 332 85 L 334 82 L 333 82 L 331 82 L 328 84 L 326 88 L 324 93 L 323 98 L 321 103 L 321 104" stroke="#ffffff" stroke-width="2" stroke-linecap="round" stroke-linejoin="round" fill="none"/><path d="M 315 114 L 314 113 L 314 111 L 315 109 L 328 99 L 337 95" stroke="#ffffff" stroke-width="2" stroke-linecap="round" stroke-linejoin="round" fill="none"/><path d="M 339 89 L 337 89 L 334 90 L 331 95 L 327 104 L 324 111 L 322 115 L 321 117 L 320 117" stroke="#ffffff" stroke-width="2" stroke-linecap="round" stroke-linejoin="round" fill="none"/><path d="M 329 106 L 329 106 L 329 107 L 328 110 L 327 115 L 327 120 L 327 122 L 326 123" stroke="#ffffff" stroke-width="2" stroke-linecap="round" stroke-linejoin="round" fill="none"/><path d="M 326 114 L 326 111 L 327 109 L 329 106 L 332 105 L 334 105 L 335 108 L 336 110 L 336 112 L 335 113" stroke="#ffffff" stroke-width="2" stroke-linecap="round" stroke-linejoin="round" fill="none"/><path d="M 333 113 L 332 113 L 332 111 L 333 111 L 333 111" stroke="#ffffff" stroke-width="2" stroke-linecap="round" stroke-linejoin="round" fill="none"/><path d="M 331 122 L 331 123 L 328 123 L 328 123 L 331 121 L 337 116" stroke="#ffffff" stroke-width="2" stroke-linecap="round" stroke-linejoin="round" fill="none"/><path d="M 411 108 L 411 108 L 414 102 L 417 100 L 420 99 L 422 102 L 422 107 L 421 112 L 418 116 L 415 120 L 413 121 L 412 121" stroke="#ffffff" stroke-width="2" stroke-linecap="round" stroke-linejoin="round" fill="none"/><path d="M 424 78 L 424 79 L 424 82" stroke="#ffffff" stroke-width="2" stroke-linecap="round" stroke-linejoin="round" fill="none"/><path d="M 431 74 L 430 74 L 429 77 L 429 85 L 429 90" stroke="#ffffff" stroke-width="2" stroke-linecap="round" stroke-linejoin="round" fill="none"/><path d="M 443 102 L 442 102 L 438 103 L 438 105 L 438 109 L 439 110" stroke="#ffffff" stroke-width="2" stroke-linecap="round" stroke-linejoin="round" fill="none"/><path d="M 452 95 L 452 94 L 451 96 L 451 102 L 451 107 L 451 110 L 453 110 L 456 107 L 461 101 L 462 100" stroke="#ffffff" stroke-width="2" stroke-linecap="round" stroke-linejoin="round" fill="none"/><path d="M 473 103 L 473 102 L 476 100 L 482 97 L 489 95 L 490 95" stroke="#ffffff" stroke-width="2" stroke-linecap="round" stroke-linejoin="round" fill="none"/><path d="M 439 109 L 440 109 L 440 109 L 440 110 L 440 113 L 440 116 L 440 118" stroke="#ffffff" stroke-width="2" stroke-linecap="round" stroke-linejoin="round" fill="none"/><path d="M 519 81 L 520 81 L 518 83 L 514 95 L 508 111 L 507 118 L 508 120" stroke="#ffffff" stroke-width="2" stroke-linecap="round" stroke-linejoin="round" fill="none"/><path d="M 548 82 L 546 82 L 544 81 L 543 81 L 542 86 L 541 91 L 541 95 L 542 96 L 543 96 L 543 96 L 542 96 L 540 101 L 539 107 L 538 111 L 538 113 L 540 113 L 543 112 L 545 110 L 546 110 L 546 109 L 544 109 L 541 109 L 537 110 L 536 113 L 536 113" stroke="#ffffff" stroke-width="2" stroke-linecap="round" stroke-linejoin="round" fill="none"/><path d="M 577 71 L 575 71 L 567 72 L 564 77 L 563 83" stroke="#ffffff" stroke-width="2" stroke-linecap="round" stroke-linejoin="round" fill="none"/><path d="M 571 78 L 570 77 L 570 76 L 569 76 L 569 78 L 569 80 L 569 82 L 569 84 L 568 86 L 567 88 L 564 93 L 562 101 L 562 106 L 563 108 L 566 108 L 569 106 L 571 103 L 571 101 L 571 100 L 570 100 L 567 102 L 563 105 L 561 109 L 559 112 L 560 112" stroke="#ffffff" stroke-width="2" stroke-linecap="round" stroke-linejoin="round" fill="none"/><path d="M 539 106 L 539 105 L 540 104 L 542 103 L 545 103 L 547 102" stroke="#ffffff" stroke-width="2" stroke-linecap="round" stroke-linejoin="round" fill="none"/><path d="M 539 109 L 541 108 L 544 107 L 545 107" stroke="#ffffff" stroke-width="2" stroke-linecap="round" stroke-linejoin="round" fill="none"/><path d="M 267 167 L 266 166 L 270 159 L 276 156 L 281 155 L 282 154" stroke="#ffffff" stroke-width="2" stroke-linecap="round" stroke-linejoin="round" fill="none"/><path d="M 273 160 L 271 160 L 268 161 L 266 166 L 266 175 L 266 184 L 269 190 L 274 190 L 278 188 L 281 185 L 283 182 L 283 182" stroke="#ffffff" stroke-width="2" stroke-linecap="round" stroke-linejoin="round" fill="none"/><path d="M 267 181 L 265 181 L 265 179 L 270 177 L 277 174 L 279 174" stroke="#ffffff" stroke-width="2" stroke-linecap="round" stroke-linejoin="round" fill="none"/><path d="M 301 142 L 300 141 L 298 145 L 299 157 L 301 171 L 302 181 L 303 185" stroke="#ffffff" stroke-width="2" stroke-linecap="round" stroke-linejoin="round" fill="none"/><path d="M 303 169 L 302 167 L 295 163 L 293 167 L 290 175 L 290 183 L 292 186 L 297 186 L 303 182" stroke="#ffffff" stroke-width="2" stroke-linecap="round" stroke-linejoin="round" fill="none"/><path d="M 316 161 L 314 162 L 311 170 L 311 176 L 313 178 L 315 177 L 318 173 L 320 168 L 321 166 L 322 166 L 322 170 L 322 173 L 324 174 L 327 171 L 332 165 L 335 158 L 336 157" stroke="#ffffff" stroke-width="2" stroke-linecap="round" stroke-linejoin="round" fill="none"/><path d="M 340 171 L 339 172 L 336 177 L 336 179" stroke="#ffffff" stroke-width="2" stroke-linecap="round" stroke-linejoin="round" fill="none"/><path d="M 343 146 L 343 146 L 338 148 L 338 155 L 339 159" stroke="#ffffff" stroke-width="2" stroke-linecap="round" stroke-linejoin="round" fill="none"/><path d="M 356 156 L 354 157 L 350 163 L 350 169 L 349 173 L 350 175 L 351 173 L 353 168 L 355 163 L 358 159 L 360 158 L 362 164 L 362 169 L 363 173 L 364 174" stroke="#ffffff" stroke-width="2" stroke-linecap="round" stroke-linejoin="round" fill="none"/><path d="M 405 165 L 405 164 L 412 152 L 422 143 L 428 140 L 429 140" stroke="#ffffff" stroke-width="2" stroke-linecap="round" stroke-linejoin="round" fill="none"/><path d="M 423 139 L 423 139 L 421 139 L 420 143 L 418 157 L 418 171 L 420 177 L 422 179" stroke="#ffffff" stroke-width="2" stroke-linecap="round" stroke-linejoin="round" fill="none"/><path d="M 432 151 L 432 151 L 430 153 L 425 162 L 419 173 L 416 178 L 415 179 L 413 176 L 413 172 L 416 167 L 421 163 L 429 161 L 436 163 L 438 169 L 435 175 L 432 180" stroke="#ffffff" stroke-width="2" stroke-linecap="round" stroke-linejoin="round" fill="none"/><path d="M 454 151 L 455 149 L 457 149 L 461 149" stroke="#ffffff" stroke-width="2" stroke-linecap="round" stroke-linejoin="round" fill="none"/><path d="M 453 157 L 452 157 L 452 156 L 453 156 L 459 156 L 465 155 L 467 154" stroke="#ffffff" stroke-width="2" stroke-linecap="round" stroke-linejoin="round" fill="none"/><path d="M 462 138 L 461 138 L 459 144 L 459 154 L 459 162 L 459 167 L 457 169 L 455 169 L 453 167 L 452 166 L 452 165 L 455 165 L 460 166 L 465 166 L 468 165" stroke="#ffffff" stroke-width="2" stroke-linecap="round" stroke-linejoin="round" fill="none"/><path d="M 479 151 L 478 149 L 482 148 L 489 147 L 494 145" stroke="#ffffff" stroke-width="2" stroke-linecap="round" stroke-linejoin="round" fill="none"/><path d="M 490 139 L 488 140 L 485 146 L 485 155 L 487 163 L 489 168 L 489 168" stroke="#ffffff" stroke-width="2" stroke-linecap="round" stroke-linejoin="round" fill="none"/><path d="M 492 152 L 491 152 L 491 152 L 488 158 L 485 166 L 481 173 L 477 175 L 474 174 L 474 170 L 476 165 L 481 161 L 487 159 L 494 161 L 497 166 L 498 171 L 498 172" stroke="#ffffff" stroke-width="2" stroke-linecap="round" stroke-linejoin="round" fill="none"/><path d="M 514 149 L 516 146 L 521 145 L 527 145 L 528 146" stroke="#ffffff" stroke-width="2" stroke-linecap="round" stroke-linejoin="round" fill="none"/><path d="M 513 156 L 510 156 L 512 155 L 519 154 L 524 154" stroke="#ffffff" stroke-width="2" stroke-linecap="round" stroke-linejoin="round" fill="none"/><path d="M 522 142 L 520 140 L 519 140 L 519 140 L 519 147 L 519 156 L 517 165 L 515 172 L 513 174 L 511 173 L 510 171 L 511 168 L 514 166 L 517 165 L 522 165 L 526 166" stroke="#ffffff" stroke-width="2" stroke-linecap="round" stroke-linejoin="round" fill="none"/></svg>
