<svg xmlns="http://www.w3.org/2000/svg" width="692" height="506" viewBox="0 0 692 506"><path d="M 31 23 L 31 20 L 30 19 L 30 21 L 29 27 L 29 37 L 28 46 L 28 52 L 29 53" stroke="#ffffff" stroke-width="2" stroke-linecap="round" stroke-linejoin="round" fill="none"/><path d="M 56 25 L 56 24 L 55 23 L 54 21 L 54 19 L 54 18 L 53 17 L 51 17 L 48 21 L 45 27 L 45 32 L 48 33 L 51 31 L 55 27 L 56 24 L 57 21 L 56 21 L 56 22 L 55 26 L 53 33 L 51 42 L 50 49 L 51 53" stroke="#ffffff" stroke-width="2" stroke-linecap="round" stroke-linejoin="round" fill="none"/><path d="M 93 9 L 92 9 L 88 9 L 85 16 L 80 29 L 74 43 L 68 54 L 61 63 L 58 70 L 58 73" stroke="#ffffff" stroke-width="2" stroke-linecap="round" stroke-linejoin="round" fill="none"/><path d="M 95 41 L 95 40 L 94 40 L 93 39 L 92 43 L 91 49 L 90 56 L 90 62 L 92 64" stroke="#ffffff" stroke-width="2" stroke-linecap="round" stroke-linejoin="round" fill="none"/><path d="M 107 42 L 107 40 L 107 38 L 109 38 L 113 38 L 116 40 L 117 42 L 117 44 L 114 46 L 111 48 L 108 50 L 106 51 L 105 52 L 106 52 L 107 51 L 110 50 L 113 50 L 117 50 L 121 51 L 127 51 L 132 52" stroke="#ffffff" stroke-width="2" stroke-linecap="round" stroke-linejoin="round" fill="none"/><path d="M 215 9 L 213 8 L 211 8 L 207 9 L 204 13 L 202 17 L 203 20 L 207 22 L 212 22 L 216 23 L 217 25 L 216 27 L 212 30 L 208 32 L 205 33" stroke="#ffffff" stroke-width="2" stroke-linecap="round" stroke-linejoin="round" fill="none"/><path d="M 224 18 L 224 19 L 226 20 L 229 24 L 233 27" stroke="#ffffff" stroke-width="2" stroke-linecap="round" stroke-linejoin="round" fill="none"/><path d="M 240 11 L 239 11 L 238 12 L 235 20 L 230 31 L 225 41 L 222 46" stroke="#ffffff" stroke-width="2" stroke-linecap="round" stroke-linejoin="round" fill="none"/><path d="M 256 1 L 255 0 L 254 0 L 252 2 L 250 12 L 247 26 L 246 35 L 246 39" stroke="#ffffff" stroke-width="2" stroke-linecap="round" stroke-linejoin="round" fill="none"/><path d="M 256 19 L 256 18 L 256 17 L 255 17 L 255 20 L 256 26 L 257 31 L 258 34 L 259 34 L 261 30 L 263 24 L 265 19 L 268 15 L 269 14" stroke="#ffffff" stroke-width="2" stroke-linecap="round" stroke-linejoin="round" fill="none"/><path d="M 275 23 L 273 24 L 271 25 L 271 28 L 271 32 L 272 35" stroke="#ffffff" stroke-width="2" stroke-linecap="round" stroke-linejoin="round" fill="none"/><path d="M 277 4 L 275 4 L 274 5 L 275 11 L 275 13" stroke="#ffffff" stroke-width="2" stroke-linecap="round" stroke-linejoin="round" fill="none"/><path d="M 295 24 L 294 21 L 294 18 L 294 16 L 293 15 L 291 15 L 288 18 L 285 23 L 284 27 L 284 29 L 287 30 L 290 28 L 292 25 L 293 23 L 293 21 L 293 20 L 292 23 L 292 27 L 292 31 L 293 33" stroke="#ffffff" stroke-width="2" stroke-linecap="round" stroke-linejoin="round" fill="none"/><path d="M 278 58 L 277 57 L 276 54 L 273 53 L 270 54 L 266 61 L 264 69 L 263 76 L 267 79 L 274 77 L 282 72 L 288 67" stroke="#ffffff" stroke-width="2" stroke-linecap="round" stroke-linejoin="round" fill="none"/><path d="M 315 58 L 313 57 L 311 54 L 310 52 L 310 49 L 310 48 L 309 48 L 306 49 L 301 54 L 298 61 L 297 65 L 301 65 L 307 62 L 311 59 L 314 55 L 314 53 L 313 52 L 312 52 L 312 54 L 311 55 L 311 57 L 311 58 L 311 59 L 311 58 L 311 57 L 310 57 L 310 59 L 308 66 L 306 78 L 305 87 L 305 91 L 306 92" stroke="#ffffff" stroke-width="2" stroke-linecap="round" stroke-linejoin="round" fill="none"/><path d="M 334 58 L 333 58 L 329 59 L 327 61 L 326 65 L 328 71 L 332 73 L 336 73 L 339 71 L 340 68 L 340 64 L 339 60 L 336 57 L 332 57 L 326 63 L 324 68" stroke="#ffffff" stroke-width="2" stroke-linecap="round" stroke-linejoin="round" fill="none"/><path d="M 334 94 L 333 91 L 332 89 L 331 87 L 329 85 L 328 84 L 325 85 L 323 90 L 322 97 L 323 102 L 325 106 L 326 107 L 326 108 L 323 108 L 320 106 L 318 104 L 318 101 L 320 97 L 326 94 L 334 90 L 342 88 L 344 87" stroke="#ffffff" stroke-width="2" stroke-linecap="round" stroke-linejoin="round" fill="none"/><path d="M 356 83 L 353 83 L 350 82 L 348 83 L 348 86 L 349 90 L 351 94 L 354 97 L 358 99 L 361 100 L 362 101 L 360 102 L 355 103 L 350 103 L 346 103 L 344 102" stroke="#ffffff" stroke-width="2" stroke-linecap="round" stroke-linejoin="round" fill="none"/><path d="M 349 87 L 350 86 L 354 84 L 359 83 L 366 84 L 367 84" stroke="#ffffff" stroke-width="2" stroke-linecap="round" stroke-linejoin="round" fill="none"/><path d="M 255 97 L 254 96 L 251 95 L 249 94 L 247 94 L 245 95 L 243 99 L 242 107 L 241 114 L 244 118 L 250 117 L 254 114" stroke="#ffffff" stroke-width="2" stroke-linecap="round" stroke-linejoin="round" fill="none"/><path d="M 270 104 L 270 103 L 268 102 L 267 102 L 266 101 L 265 101 L 263 101 L 261 103 L 260 106 L 260 108 L 262 108 L 264 106 L 266 104 L 267 103 L 268 102 L 268 105 L 268 108 L 269 110 L 269 111" stroke="#ffffff" stroke-width="2" stroke-linecap="round" stroke-linejoin="round" fill="none"/><path d="M 284 103 L 284 101 L 283 100 L 281 98 L 279 98 L 277 97 L 275 98 L 273 99 L 273 102 L 274 105 L 276 108 L 277 110 L 277 111 L 276 112 L 273 113 L 271 113 L 271 111" stroke="#ffffff" stroke-width="2" stroke-linecap="round" stroke-linejoin="round" fill="none"/><path d="M 286 96 L 285 96 L 284 97 L 284 101 L 284 106 L 284 110 L 283 111 L 283 109 L 284 108 L 287 108 L 290 108 L 295 108 L 296 107" stroke="#ffffff" stroke-width="2" stroke-linecap="round" stroke-linejoin="round" fill="none"/><path d="M 279 124 L 278 125 L 270 127 L 262 127 L 254 127 L 244 128 L 234 127 L 226 124 L 222 119 L 220 113 L 219 107 L 220 103 L 224 99 L 231 94 L 240 88 L 250 84 L 262 83 L 275 84 L 288 87 L 298 92 L 304 97 L 306 103 L 306 109 L 304 114 L 301 118 L 296 122 L 290 124 L 283 127 L 274 129 L 265 129 L 258 129 L 253 125 L 252 121" stroke="#ffffff" stroke-width="2" stroke-linecap="round" stroke-linejoin="round" fill="none"/><path d="M 427 14 L 428 13 L 427 11 L 424 13 L 419 26 L 410 52 L 404 71 L 402 81 L 401 90" stroke="#ffffff" stroke-width="2" stroke-linecap="round" stroke-linejoin="round" fill="none"/><path d="M 469 11 L 466 9 L 464 8 L 461 8 L 459 10 L 458 16 L 457 22 L 460 26 L 464 28 L 467 29 L 468 31 L 466 33 L 461 36 L 456 38 L 452 38 L 450 36" stroke="#ffffff" stroke-width="2" stroke-linecap="round" stroke-linejoin="round" fill="none"/><path d="M 490 20 L 489 19 L 488 17 L 487 16 L 486 15 L 484 18 L 481 24 L 481 29 L 484 30 L 488 28 L 491 25 L 493 21 L 493 17 L 493 16 L 491 20 L 490 24 L 489 29 L 489 31" stroke="#ffffff" stroke-width="2" stroke-linecap="round" stroke-linejoin="round" fill="none"/><path d="M 506 11 L 505 11 L 503 14 L 501 21 L 499 28 L 499 30 L 499 29 L 501 25 L 503 21 L 506 16 L 508 14 L 509 17 L 508 23 L 506 27 L 506 29 L 507 28 L 511 24 L 514 18 L 518 13 L 520 13 L 521 15 L 522 20 L 522 25 L 523 29" stroke="#ffffff" stroke-width="2" stroke-linecap="round" stroke-linejoin="round" fill="none"/><path d="M 503 38 L 502 38 L 500 36 L 498 37 L 495 42 L 493 51 L 492 60 L 494 65 L 497 65 L 500 63 L 504 60 L 505 56 L 506 54 L 504 53 L 498 54 L 492 57 L 489 61 L 489 62" stroke="#ffffff" stroke-width="2" stroke-linecap="round" stroke-linejoin="round" fill="none"/><path d="M 532 47 L 530 46 L 527 46 L 525 49 L 524 54 L 525 59 L 528 60 L 531 59 L 535 56 L 538 52 L 538 49 L 537 47 L 531 47 L 524 52" stroke="#ffffff" stroke-width="2" stroke-linecap="round" stroke-linejoin="round" fill="none"/><path d="M 516 81 L 515 79 L 514 78 L 513 80 L 511 85 L 511 89 L 513 92 L 518 94 L 523 96 L 525 98 L 525 99 L 521 101 L 516 102 L 512 102 L 509 101" stroke="#ffffff" stroke-width="2" stroke-linecap="round" stroke-linejoin="round" fill="none"/><path d="M 510 87 L 511 85 L 513 81 L 520 80 L 530 80 L 534 82" stroke="#ffffff" stroke-width="2" stroke-linecap="round" stroke-linejoin="round" fill="none"/><path d="M 545 78 L 544 78 L 541 77 L 539 76 L 538 77 L 537 80 L 537 85 L 538 89 L 542 93 L 548 94 L 552 95 L 553 97 L 551 98 L 547 99 L 542 100 L 538 100 L 534 99" stroke="#ffffff" stroke-width="2" stroke-linecap="round" stroke-linejoin="round" fill="none"/><path d="M 539 81 L 538 80 L 538 78 L 543 78 L 555 78 L 564 79" stroke="#ffffff" stroke-width="2" stroke-linecap="round" stroke-linejoin="round" fill="none"/><path d="M 444 82 L 442 82 L 440 82 L 436 83 L 432 87 L 428 95 L 427 102 L 430 105 L 436 105 L 439 104" stroke="#ffffff" stroke-width="2" stroke-linecap="round" stroke-linejoin="round" fill="none"/><path d="M 454 95 L 451 94 L 449 93 L 449 92 L 448 92 L 447 93 L 445 94 L 445 96 L 447 96 L 449 94 L 450 93 L 451 92 L 452 92 L 451 94 L 451 97 L 451 99 L 452 100" stroke="#ffffff" stroke-width="2" stroke-linecap="round" stroke-linejoin="round" fill="none"/><path d="M 464 96 L 463 95 L 461 93 L 459 91 L 457 89 L 456 89 L 455 91 L 454 94 L 454 97 L 454 100 L 454 101 L 454 102 L 454 101" stroke="#ffffff" stroke-width="2" stroke-linecap="round" stroke-linejoin="round" fill="none"/><path d="M 464 80 L 464 78 L 464 79 L 464 85 L 462 94 L 460 102 L 458 105 L 459 102 L 462 98 L 465 95 L 466 94 L 467 96 L 467 99 L 468 101 L 470 102 L 474 100 L 475 100" stroke="#ffffff" stroke-width="2" stroke-linecap="round" stroke-linejoin="round" fill="none"/><path d="M 467 111 L 465 111 L 460 112 L 455 113 L 450 113 L 445 113 L 440 113 L 432 111 L 424 109 L 416 106 L 411 103 L 410 99 L 410 94 L 412 88 L 418 82 L 427 77 L 437 72 L 447 68 L 459 66 L 469 66 L 479 72 L 487 81 L 492 90 L 493 97 L 489 102 L 483 107 L 475 111 L 467 114 L 457 116 L 448 118 L 444 118 L 444 116" stroke="#ffffff" stroke-width="2" stroke-linecap="round" stroke-linejoin="round" fill="none"/><path d="M 523 125 L 520 125 L 520 127 L 520 133 L 522 143 L 523 154 L 524 162 L 524 167 L 524 169 L 524 168 L 525 165 L 525 161 L 526 156 L 528 149 L 530 143 L 533 138 L 536 136 L 537 137" stroke="#ffffff" stroke-width="2" stroke-linecap="round" stroke-linejoin="round" fill="none"/><path d="M 506 156 L 507 157 L 512 161 L 521 168 L 528 173" stroke="#ffffff" stroke-width="2" stroke-linecap="round" stroke-linejoin="round" fill="none"/><path d="M 469 185 L 469 184 L 467 180 L 466 179 L 463 185 L 459 198 L 456 214 L 455 224 L 458 226 L 462 224 L 466 219 L 468 214 L 469 210 L 467 208 L 462 209 L 456 217 L 454 222" stroke="#ffffff" stroke-width="2" stroke-linecap="round" stroke-linejoin="round" fill="none"/><path d="M 536 192 L 536 190 L 536 187 L 535 186 L 533 188 L 530 193 L 526 199 L 523 205 L 521 208 L 522 208 L 527 207 L 534 204 L 539 202 L 540 201" stroke="#ffffff" stroke-width="2" stroke-linecap="round" stroke-linejoin="round" fill="none"/><path d="M 533 192 L 532 192 L 532 194 L 531 200 L 531 211 L 530 220 L 530 225" stroke="#ffffff" stroke-width="2" stroke-linecap="round" stroke-linejoin="round" fill="none"/><path d="M 543 214 L 541 215 L 540 216 L 541 217" stroke="#ffffff" stroke-width="2" stroke-linecap="round" stroke-linejoin="round" fill="none"/><path d="M 557 192 L 555 192 L 552 192 L 552 195 L 552 200 L 555 205 L 558 209 L 561 211 L 563 212 L 563 213 L 563 215 L 561 216 L 557 217 L 552 217" stroke="#ffffff" stroke-width="2" stroke-linecap="round" stroke-linejoin="round" fill="none"/><path d="M 550 194 L 551 192 L 553 189 L 559 189 L 567 190 L 571 191" stroke="#ffffff" stroke-width="2" stroke-linecap="round" stroke-linejoin="round" fill="none"/><path d="M 598 182 L 596 181 L 595 183 L 593 190 L 592 197 L 591 202" stroke="#ffffff" stroke-width="2" stroke-linecap="round" stroke-linejoin="round" fill="none"/><path d="M 598 193 L 598 192 L 598 190 L 600 188 L 603 187 L 607 187" stroke="#ffffff" stroke-width="2" stroke-linecap="round" stroke-linejoin="round" fill="none"/><path d="M 595 204 L 595 203 L 596 201 L 602 198 L 610 196 L 614 194" stroke="#ffffff" stroke-width="2" stroke-linecap="round" stroke-linejoin="round" fill="none"/><path d="M 604 191 L 603 191 L 602 193 L 601 197 L 600 205 L 598 213 L 597 218 L 597 219" stroke="#ffffff" stroke-width="2" stroke-linecap="round" stroke-linejoin="round" fill="none"/><path d="M 599 203 L 600 201 L 604 200 L 609 200 L 615 201 L 618 201" stroke="#ffffff" stroke-width="2" stroke-linecap="round" stroke-linejoin="round" fill="none"/><path d="M 625 185 L 625 183 L 625 181 L 627 181 L 628 182" stroke="#ffffff" stroke-width="2" stroke-linecap="round" stroke-linejoin="round" fill="none"/><path d="M 623 189 L 619 191 L 616 196 L 613 201 L 613 204 L 614 204 L 616 203 L 617 200 L 619 196 L 621 193 L 623 191 L 625 191 L 625 195 L 623 199 L 621 202" stroke="#ffffff" stroke-width="2" stroke-linecap="round" stroke-linejoin="round" fill="none"/><path d="M 615 206 L 613 206 L 611 206 L 610 206 L 613 206 L 618 205 L 622 204 L 624 202 L 625 201 L 625 200 L 623 202 L 621 206 L 618 210 L 616 213 L 613 215" stroke="#ffffff" stroke-width="2" stroke-linecap="round" stroke-linejoin="round" fill="none"/><path d="M 605 215 L 603 215 L 602 215 L 603 216 L 608 216 L 615 215 L 623 213 L 632 211" stroke="#ffffff" stroke-width="2" stroke-linecap="round" stroke-linejoin="round" fill="none"/><path d="M 616 188 L 615 187 L 614 187 L 614 186 L 617 185 L 622 183" stroke="#ffffff" stroke-width="2" stroke-linecap="round" stroke-linejoin="round" fill="none"/><path d="M 660 195 L 658 195 L 655 193 L 651 195 L 647 198 L 643 201 L 642 203 L 644 205 L 649 208 L 654 209 L 660 210" stroke="#ffffff" stroke-width="2" stroke-linecap="round" stroke-linejoin="round" fill="none"/><path d="M 455 253 L 455 252 L 455 250 L 461 244 L 473 238 L 480 234 L 483 233 L 482 232 L 480 232 L 476 232 L 473 233 L 470 237 L 468 243 L 466 252 L 462 261 L 457 269 L 454 271 L 452 272 L 453 270" stroke="#ffffff" stroke-width="2" stroke-linecap="round" stroke-linejoin="round" fill="none"/><path d="M 475 257 L 475 256 L 474 255 L 473 254 L 473 255 L 474 258 L 474 263 L 475 266 L 476 269" stroke="#ffffff" stroke-width="2" stroke-linecap="round" stroke-linejoin="round" fill="none"/><path d="M 475 260 L 472 257 L 472 255 L 475 252 L 481 250 L 486 249 L 488 250 L 488 252 L 487 255 L 486 258 L 485 261" stroke="#ffffff" stroke-width="2" stroke-linecap="round" stroke-linejoin="round" fill="none"/><path d="M 479 266 L 477 267 L 475 267 L 479 266 L 484 263 L 488 260" stroke="#ffffff" stroke-width="2" stroke-linecap="round" stroke-linejoin="round" fill="none"/><path d="M 503 248 L 502 248 L 500 245 L 506 241 L 514 238 L 518 238" stroke="#ffffff" stroke-width="2" stroke-linecap="round" stroke-linejoin="round" fill="none"/><path d="M 517 236 L 514 237 L 511 240 L 507 249 L 503 260 L 502 264 L 503 265" stroke="#ffffff" stroke-width="2" stroke-linecap="round" stroke-linejoin="round" fill="none"/><path d="M 523 242 L 523 240 L 524 238 L 526 238 L 528 238 L 530 239 L 530 240 L 528 242 L 525 245 L 523 250 L 520 256 L 518 261 L 517 263 L 516 263 L 515 261 L 514 259 L 514 258 L 517 256 L 522 254 L 528 252" stroke="#ffffff" stroke-width="2" stroke-linecap="round" stroke-linejoin="round" fill="none"/><path d="M 537 252 L 536 251 L 538 249 L 543 248 L 547 247 L 548 250 L 548 254 L 546 258 L 545 260 L 543 260 L 542 259 L 541 255 L 541 249 L 543 243 L 545 238 L 546 236 L 546 237 L 545 240 L 543 245 L 539 253 L 536 259 L 536 262 L 536 263" stroke="#ffffff" stroke-width="2" stroke-linecap="round" stroke-linejoin="round" fill="none"/><path d="M 553 244 L 554 244 L 557 246 L 558 249 L 559 253 L 561 255" stroke="#ffffff" stroke-width="2" stroke-linecap="round" stroke-linejoin="round" fill="none"/><path d="M 565 232 L 561 234 L 560 237 L 560 239" stroke="#ffffff" stroke-width="2" stroke-linecap="round" stroke-linejoin="round" fill="none"/><path d="M 569 233 L 569 232 L 568 232 L 567 235 L 567 238" stroke="#ffffff" stroke-width="2" stroke-linecap="round" stroke-linejoin="round" fill="none"/><path d="M 578 242 L 577 243 L 575 248 L 574 254 L 576 257 L 579 258 L 584 257 L 591 253 L 598 247" stroke="#ffffff" stroke-width="2" stroke-linecap="round" stroke-linejoin="round" fill="none"/><path d="M 465 289 L 463 289 L 462 289 L 461 293 L 461 303 L 461 312 L 463 316 L 468 315 L 473 311" stroke="#ffffff" stroke-width="2" stroke-linecap="round" stroke-linejoin="round" fill="none"/><path d="M 482 309 L 480 310 L 479 308 L 481 305 L 487 303 L 491 303 L 492 306 L 490 311 L 487 314 L 486 315" stroke="#ffffff" stroke-width="2" stroke-linecap="round" stroke-linejoin="round" fill="none"/><path d="M 504 303 L 502 303 L 500 301 L 503 299 L 508 296 L 513 296 L 516 297 L 517 301 L 517 304 L 515 305 L 513 305 L 511 303 L 510 299 L 510 292 L 511 285 L 512 282 L 512 284 L 510 291 L 507 300 L 505 310 L 503 316 L 504 317 L 505 317" stroke="#ffffff" stroke-width="2" stroke-linecap="round" stroke-linejoin="round" fill="none"/><path d="M 519 284 L 520 284 L 521 283 L 524 286 L 530 292 L 536 298" stroke="#ffffff" stroke-width="2" stroke-linecap="round" stroke-linejoin="round" fill="none"/><path d="M 546 284 L 544 284 L 539 285 L 539 290 L 540 295 L 543 297" stroke="#ffffff" stroke-width="2" stroke-linecap="round" stroke-linejoin="round" fill="none"/><path d="M 553 282 L 554 285 L 553 293 L 549 305 L 544 314 L 539 319 L 537 321" stroke="#ffffff" stroke-width="2" stroke-linecap="round" stroke-linejoin="round" fill="none"/><path d="M 571 280 L 570 279 L 573 276 L 581 274 L 590 273 L 596 273 L 599 273" stroke="#ffffff" stroke-width="2" stroke-linecap="round" stroke-linejoin="round" fill="none"/><path d="M 590 269 L 588 270 L 587 271 L 586 275 L 585 285 L 584 294 L 581 300 L 578 302 L 575 302 L 574 300 L 573 295 L 575 290 L 579 286 L 583 284 L 587 285 L 589 290 L 587 299 L 582 309 L 577 316 L 576 319" stroke="#ffffff" stroke-width="2" stroke-linecap="round" stroke-linejoin="round" fill="none"/><path d="M 623 289 L 622 289 L 620 288 L 619 287 L 618 287 L 616 288 L 612 290 L 608 293 L 604 295 L 603 298 L 603 301 L 606 304 L 611 306 L 617 307 L 622 308" stroke="#ffffff" stroke-width="2" stroke-linecap="round" stroke-linejoin="round" fill="none"/><path d="M 36 144 L 35 142 L 38 138 L 43 135 L 47 133 L 48 134" stroke="#ffffff" stroke-width="2" stroke-linecap="round" stroke-linejoin="round" fill="none"/><path d="M 40 153 L 39 153 L 38 151 L 39 149 L 43 146 L 48 143 L 53 143 L 55 144 L 55 147 L 53 150 L 52 153 L 52 154" stroke="#ffffff" stroke-width="2" stroke-linecap="round" stroke-linejoin="round" fill="none"/><path d="M 43 159 L 43 157 L 43 154 L 46 152 L 49 150 L 51 149" stroke="#ffffff" stroke-width="2" stroke-linecap="round" stroke-linejoin="round" fill="none"/><path d="M 41 148 L 41 147 L 40 145 L 40 147 L 40 157 L 38 171 L 36 182 L 34 188 L 34 189" stroke="#ffffff" stroke-width="2" stroke-linecap="round" stroke-linejoin="round" fill="none"/><path d="M 48 161 L 46 161 L 45 161 L 45 166 L 47 176 L 47 185 L 48 190 L 48 191" stroke="#ffffff" stroke-width="2" stroke-linecap="round" stroke-linejoin="round" fill="none"/><path d="M 47 167 L 47 166 L 46 161 L 47 159 L 50 158 L 54 160 L 57 164 L 58 170 L 59 175 L 59 180 L 58 185" stroke="#ffffff" stroke-width="2" stroke-linecap="round" stroke-linejoin="round" fill="none"/><path d="M 53 170 L 51 169 L 51 167 L 52 167 L 53 167" stroke="#ffffff" stroke-width="2" stroke-linecap="round" stroke-linejoin="round" fill="none"/><path d="M 53 174 L 51 174 L 50 175 L 52 174 L 54 173" stroke="#ffffff" stroke-width="2" stroke-linecap="round" stroke-linejoin="round" fill="none"/><path d="M 73 158 L 72 157 L 74 154 L 80 151 L 87 147 L 91 145 L 92 145 L 91 145 L 90 145 L 88 146 L 86 148 L 84 153 L 83 161 L 81 172 L 81 179 L 83 182 L 85 183" stroke="#ffffff" stroke-width="2" stroke-linecap="round" stroke-linejoin="round" fill="none"/><path d="M 89 159 L 87 158 L 89 158 L 92 161" stroke="#ffffff" stroke-width="2" stroke-linecap="round" stroke-linejoin="round" fill="none"/><path d="M 106 154 L 106 153 L 106 151 L 109 149 L 114 147 L 118 147 L 120 149 L 119 155 L 117 161 L 113 166 L 111 171 L 109 173" stroke="#ffffff" stroke-width="2" stroke-linecap="round" stroke-linejoin="round" fill="none"/><path d="M 114 159 L 114 158 L 115 157 L 118 157 L 122 162 L 126 166 L 130 169 L 132 170" stroke="#ffffff" stroke-width="2" stroke-linecap="round" stroke-linejoin="round" fill="none"/><path d="M 140 144 L 139 143 L 138 141 L 138 142 L 138 147 L 137 153 L 137 155" stroke="#ffffff" stroke-width="2" stroke-linecap="round" stroke-linejoin="round" fill="none"/><path d="M 138 150 L 138 146 L 138 143 L 140 142 L 143 143 L 147 146 L 148 152 L 146 159 L 142 166 L 138 171 L 137 173" stroke="#ffffff" stroke-width="2" stroke-linecap="round" stroke-linejoin="round" fill="none"/><path d="M 163 153 L 163 152 L 163 150 L 166 149 L 169 147 L 171 146 L 172 145 L 172 143 L 171 146 L 169 152 L 167 159 L 164 165 L 162 170 L 160 172 L 158 172 L 157 171 L 158 169 L 160 168 L 163 167 L 168 166 L 174 165 L 181 163" stroke="#ffffff" stroke-width="2" stroke-linecap="round" stroke-linejoin="round" fill="none"/><path d="M 190 146 L 190 145 L 189 143 L 190 140 L 195 138 L 200 137 L 203 137 L 203 140 L 199 144 L 196 146 L 193 147 L 192 148 L 191 149 L 190 155 L 188 163 L 186 170 L 183 174 L 182 174" stroke="#ffffff" stroke-width="2" stroke-linecap="round" stroke-linejoin="round" fill="none"/><path d="M 218 149 L 217 149 L 215 148 L 214 149 L 212 154 L 210 160 L 209 162" stroke="#ffffff" stroke-width="2" stroke-linecap="round" stroke-linejoin="round" fill="none"/><path d="M 210 154 L 212 150 L 214 146 L 217 144 L 220 145 L 222 150 L 222 156 L 218 166 L 213 174 L 210 179 L 209 180 L 209 178" stroke="#ffffff" stroke-width="2" stroke-linecap="round" stroke-linejoin="round" fill="none"/><path d="M 228 132 L 227 132 L 225 135 L 225 140" stroke="#ffffff" stroke-width="2" stroke-linecap="round" stroke-linejoin="round" fill="none"/><path d="M 235 134 L 234 134 L 233 137 L 233 144 L 233 145" stroke="#ffffff" stroke-width="2" stroke-linecap="round" stroke-linejoin="round" fill="none"/><path d="M 235 153 L 234 153 L 233 151 L 237 149 L 242 147 L 244 147" stroke="#ffffff" stroke-width="2" stroke-linecap="round" stroke-linejoin="round" fill="none"/><path d="M 237 163 L 234 163 L 235 162 L 240 159 L 245 158 L 248 158 L 249 160 L 247 167 L 243 174 L 237 179 L 232 182 L 230 183" stroke="#ffffff" stroke-width="2" stroke-linecap="round" stroke-linejoin="round" fill="none"/><path d="M 180 148 L 179 148 L 178 148 L 178 147 L 179 146 L 183 144 L 188 142 L 194 139" stroke="#ffffff" stroke-width="2" stroke-linecap="round" stroke-linejoin="round" fill="none"/><path d="M 53 199 L 53 198 L 52 197 L 51 198 L 52 203 L 53 206" stroke="#ffffff" stroke-width="2" stroke-linecap="round" stroke-linejoin="round" fill="none"/><path d="M 61 196 L 60 196 L 59 196 L 57 199 L 56 204 L 56 207" stroke="#ffffff" stroke-width="2" stroke-linecap="round" stroke-linejoin="round" fill="none"/><path d="M 42 220 L 41 220 L 40 219 L 41 216 L 49 212 L 62 206 L 74 201 L 80 200 L 81 200" stroke="#ffffff" stroke-width="2" stroke-linecap="round" stroke-linejoin="round" fill="none"/><path d="M 54 216 L 52 216 L 51 217 L 50 222 L 50 231 L 51 239 L 52 243 L 53 243" stroke="#ffffff" stroke-width="2" stroke-linecap="round" stroke-linejoin="round" fill="none"/><path d="M 52 226 L 52 223 L 51 220 L 52 218 L 55 218 L 58 222 L 60 228 L 61 234 L 61 240 L 61 244" stroke="#ffffff" stroke-width="2" stroke-linecap="round" stroke-linejoin="round" fill="none"/><path d="M 53 226 L 52 225 L 52 224 L 53 223 L 56 223 L 57 222" stroke="#ffffff" stroke-width="2" stroke-linecap="round" stroke-linejoin="round" fill="none"/><path d="M 58 224 L 58 225 L 57 226 L 57 227 L 58 227 L 59 227" stroke="#ffffff" stroke-width="2" stroke-linecap="round" stroke-linejoin="round" fill="none"/><path d="M 69 207 L 68 207 L 67 207 L 66 211 L 68 217 L 68 219" stroke="#ffffff" stroke-width="2" stroke-linecap="round" stroke-linejoin="round" fill="none"/><path d="M 75 209 L 76 207 L 76 206 L 76 210 L 75 218 L 74 228 L 72 236 L 71 239" stroke="#ffffff" stroke-width="2" stroke-linecap="round" stroke-linejoin="round" fill="none"/><path d="M 96 203 L 95 202 L 95 200 L 97 198 L 99 196 L 100 196 L 101 196 L 99 196 L 97 199 L 95 205 L 94 213 L 94 214" stroke="#ffffff" stroke-width="2" stroke-linecap="round" stroke-linejoin="round" fill="none"/><path d="M 97 210 L 97 209 L 96 207 L 96 206 L 98 205" stroke="#ffffff" stroke-width="2" stroke-linecap="round" stroke-linejoin="round" fill="none"/><path d="M 94 216 L 92 215 L 91 214 L 92 213 L 94 212" stroke="#ffffff" stroke-width="2" stroke-linecap="round" stroke-linejoin="round" fill="none"/><path d="M 94 222 L 93 222 L 92 221 L 96 215" stroke="#ffffff" stroke-width="2" stroke-linecap="round" stroke-linejoin="round" fill="none"/><path d="M 118 182 L 116 185 L 114 187 L 113 190 L 111 196 L 110 199" stroke="#ffffff" stroke-width="2" stroke-linecap="round" stroke-linejoin="round" fill="none"/><path d="M 115 192 L 114 192 L 113 195 L 112 202" stroke="#ffffff" stroke-width="2" stroke-linecap="round" stroke-linejoin="round" fill="none"/><path d="M 100 218 L 100 219 L 99 219 L 99 218 L 101 216 L 104 214 L 107 212 L 109 211 L 110 210 L 111 210 L 111 212 L 109 218 L 106 224 L 103 229 L 101 234 L 99 235" stroke="#ffffff" stroke-width="2" stroke-linecap="round" stroke-linejoin="round" fill="none"/><path d="M 98 222 L 98 221 L 98 219 L 100 219 L 103 221 L 109 227 L 115 231 L 123 233" stroke="#ffffff" stroke-width="2" stroke-linecap="round" stroke-linejoin="round" fill="none"/><path d="M 131 212 L 131 210 L 130 207 L 133 203 L 139 199 L 143 196 L 146 195 L 147 196 L 147 199 L 146 203 L 144 207 L 142 209 L 140 210 L 139 210 L 139 215 L 139 223 L 138 229 L 136 234 L 134 235 L 132 236 L 131 235 L 131 234" stroke="#ffffff" stroke-width="2" stroke-linecap="round" stroke-linejoin="round" fill="none"/><path d="M 160 219 L 158 219 L 158 216 L 161 214 L 165 213 L 167 213 L 169 215 L 169 217 L 169 220 L 168 222 L 166 225 L 163 227 L 161 228 L 159 228" stroke="#ffffff" stroke-width="2" stroke-linecap="round" stroke-linejoin="round" fill="none"/><path d="M 171 192 L 169 193 L 167 196 L 167 201 L 167 202" stroke="#ffffff" stroke-width="2" stroke-linecap="round" stroke-linejoin="round" fill="none"/><path d="M 180 184 L 179 184 L 178 185 L 178 190 L 178 194" stroke="#ffffff" stroke-width="2" stroke-linecap="round" stroke-linejoin="round" fill="none"/><path d="M 187 206 L 184 206 L 184 204 L 189 201 L 195 199 L 200 198" stroke="#ffffff" stroke-width="2" stroke-linecap="round" stroke-linejoin="round" fill="none"/><path d="M 187 215 L 186 215 L 185 215 L 186 213 L 190 212 L 195 212 L 198 213 L 198 217 L 195 221 L 190 226 L 185 229 L 183 229 L 182 229" stroke="#ffffff" stroke-width="2" stroke-linecap="round" stroke-linejoin="round" fill="none"/><path d="M 230 198 L 227 197 L 226 199 L 222 206 L 217 213 L 210 219 L 207 222 L 206 223" stroke="#ffffff" stroke-width="2" stroke-linecap="round" stroke-linejoin="round" fill="none"/><path d="M 218 210 L 218 209 L 219 209 L 219 213 L 219 218 L 218 224 L 218 228" stroke="#ffffff" stroke-width="2" stroke-linecap="round" stroke-linejoin="round" fill="none"/><path d="M 230 214 L 230 213 L 230 211 L 232 208 L 236 207 L 239 207" stroke="#ffffff" stroke-width="2" stroke-linecap="round" stroke-linejoin="round" fill="none"/><path d="M 237 224 L 234 225 L 237 223 L 243 218 L 250 210 L 256 200 L 258 196" stroke="#ffffff" stroke-width="2" stroke-linecap="round" stroke-linejoin="round" fill="none"/><path d="M 43 264 L 42 264 L 40 264 L 39 268 L 39 281 L 39 295 L 40 304 L 42 309" stroke="#ffffff" stroke-width="2" stroke-linecap="round" stroke-linejoin="round" fill="none"/><path d="M 38 275 L 38 274 L 38 268 L 40 262 L 45 257 L 51 255 L 54 259 L 54 267 L 51 274 L 46 282 L 42 286 L 41 287" stroke="#ffffff" stroke-width="2" stroke-linecap="round" stroke-linejoin="round" fill="none"/><path d="M 12 267 L 11 266 L 10 267 L 10 273 L 12 284 L 14 297 L 16 305 L 18 307" stroke="#ffffff" stroke-width="2" stroke-linecap="round" stroke-linejoin="round" fill="none"/><path d="M 11 278 L 11 275 L 11 269 L 13 265 L 16 264 L 20 266 L 24 272 L 25 279 L 25 286 L 23 293 L 20 298 L 16 303 L 14 308 L 13 309" stroke="#ffffff" stroke-width="2" stroke-linecap="round" stroke-linejoin="round" fill="none"/><path d="M 75 272 L 75 270 L 75 269 L 76 267 L 79 265 L 82 265 L 84 268 L 84 273 L 83 278 L 81 283 L 79 286 L 78 287 L 77 286 L 76 283 L 77 279 L 79 275 L 84 272 L 92 269 L 99 267 L 105 265 L 109 263" stroke="#ffffff" stroke-width="2" stroke-linecap="round" stroke-linejoin="round" fill="none"/><path d="M 99 255 L 98 254 L 97 253 L 98 257 L 99 265 L 99 276 L 96 286 L 93 292 L 92 295" stroke="#ffffff" stroke-width="2" stroke-linecap="round" stroke-linejoin="round" fill="none"/><path d="M 118 264 L 117 265 L 119 262 L 123 259 L 127 255 L 128 254" stroke="#ffffff" stroke-width="2" stroke-linecap="round" stroke-linejoin="round" fill="none"/><path d="M 124 249 L 123 249 L 122 255 L 121 268 L 121 278 L 120 285 L 120 288" stroke="#ffffff" stroke-width="2" stroke-linecap="round" stroke-linejoin="round" fill="none"/><path d="M 129 271 L 129 270 L 129 267 L 130 264 L 134 261 L 137 260" stroke="#ffffff" stroke-width="2" stroke-linecap="round" stroke-linejoin="round" fill="none"/><path d="M 133 278 L 131 278 L 131 279 L 132 278 L 137 274 L 138 273" stroke="#ffffff" stroke-width="2" stroke-linecap="round" stroke-linejoin="round" fill="none"/><path d="M 151 256 L 148 257 L 147 259 L 148 262 L 150 264" stroke="#ffffff" stroke-width="2" stroke-linecap="round" stroke-linejoin="round" fill="none"/><path d="M 156 258 L 156 256 L 156 255 L 156 256 L 156 260 L 156 264" stroke="#ffffff" stroke-width="2" stroke-linecap="round" stroke-linejoin="round" fill="none"/><path d="M 170 257 L 170 255 L 171 252 L 176 249 L 181 246 L 182 246" stroke="#ffffff" stroke-width="2" stroke-linecap="round" stroke-linejoin="round" fill="none"/><path d="M 181 242 L 180 243 L 178 245 L 176 251 L 173 262 L 169 273 L 169 278" stroke="#ffffff" stroke-width="2" stroke-linecap="round" stroke-linejoin="round" fill="none"/><path d="M 190 252 L 191 248 L 193 246 L 195 245 L 196 245 L 195 246 L 193 248 L 190 254 L 188 260 L 187 266 L 187 271 L 187 274 L 186 275 L 184 276 L 183 276" stroke="#ffffff" stroke-width="2" stroke-linecap="round" stroke-linejoin="round" fill="none"/><path d="M 182 274 L 182 272 L 181 270 L 181 269 L 184 268 L 191 265 L 196 263" stroke="#ffffff" stroke-width="2" stroke-linecap="round" stroke-linejoin="round" fill="none"/><path d="M 207 248 L 206 249 L 205 249 L 204 253 L 204 260 L 204 267 L 204 268" stroke="#ffffff" stroke-width="2" stroke-linecap="round" stroke-linejoin="round" fill="none"/><path d="M 207 252 L 207 250 L 207 246 L 208 242 L 212 239 L 217 237 L 223 235 L 227 234 L 227 235 L 226 240 L 224 245" stroke="#ffffff" stroke-width="2" stroke-linecap="round" stroke-linejoin="round" fill="none"/><path d="M 216 253 L 216 250 L 218 246 L 222 243 L 224 243 L 223 244 L 222 245 L 221 245 L 220 246 L 219 248 L 218 251 L 218 256 L 219 264 L 221 271 L 222 277 L 221 280 L 219 281 L 218 281" stroke="#ffffff" stroke-width="2" stroke-linecap="round" stroke-linejoin="round" fill="none"/><path d="M 208 274 L 208 273 L 208 271 L 209 268 L 215 264 L 224 260 L 229 258" stroke="#ffffff" stroke-width="2" stroke-linecap="round" stroke-linejoin="round" fill="none"/><path d="M 242 243 L 241 243 L 240 240 L 243 236 L 251 232 L 260 227 L 263 225 L 262 225 L 258 226 L 254 226 L 251 227 L 249 229 L 249 232 L 249 237 L 249 243 L 249 244" stroke="#ffffff" stroke-width="2" stroke-linecap="round" stroke-linejoin="round" fill="none"/><path d="M 249 244 L 249 245 L 247 247 L 247 251 L 247 256 L 247 261 L 247 263" stroke="#ffffff" stroke-width="2" stroke-linecap="round" stroke-linejoin="round" fill="none"/><path d="M 246 255 L 247 253 L 247 249 L 249 245 L 252 243 L 254 242 L 255 243 L 257 245 L 257 248 L 258 252 L 258 254" stroke="#ffffff" stroke-width="2" stroke-linecap="round" stroke-linejoin="round" fill="none"/><path d="M 252 254 L 252 253 L 251 251 L 251 250 L 253 249 L 254 249" stroke="#ffffff" stroke-width="2" stroke-linecap="round" stroke-linejoin="round" fill="none"/><path d="M 255 253 L 254 253 L 253 254 L 255 253" stroke="#ffffff" stroke-width="2" stroke-linecap="round" stroke-linejoin="round" fill="none"/><path d="M 238 272 L 237 272 L 234 272 L 237 269 L 244 264 L 253 260 L 259 257 L 261 256 L 260 256 L 257 259 L 253 265 L 249 271 L 247 277 L 246 279" stroke="#ffffff" stroke-width="2" stroke-linecap="round" stroke-linejoin="round" fill="none"/><path d="M 258 263 L 260 263 L 263 265 L 269 266 L 273 266" stroke="#ffffff" stroke-width="2" stroke-linecap="round" stroke-linejoin="round" fill="none"/><path d="M 277 245 L 276 243 L 278 239 L 285 233 L 292 229 L 295 227 L 294 226 L 290 226 L 287 226 L 284 226 L 283 229 L 283 237 L 283 250 L 283 261 L 283 267 L 283 270 L 282 271 L 281 271" stroke="#ffffff" stroke-width="2" stroke-linecap="round" stroke-linejoin="round" fill="none"/><path d="M 279 258 L 279 256 L 279 254 L 281 252 L 286 248 L 291 246" stroke="#ffffff" stroke-width="2" stroke-linecap="round" stroke-linejoin="round" fill="none"/><path d="M 300 232 L 298 232 L 297 231 L 299 229 L 303 226 L 307 224 L 309 222 L 309 220 L 307 220 L 306 220 L 306 222 L 305 227 L 303 232 L 302 237 L 301 239" stroke="#ffffff" stroke-width="2" stroke-linecap="round" stroke-linejoin="round" fill="none"/><path d="M 296 247 L 296 246 L 295 244 L 298 241 L 303 237 L 307 235 L 309 234 L 309 235 L 308 239 L 307 246 L 305 254 L 304 260 L 303 264 L 301 265 L 299 266 L 297 265" stroke="#ffffff" stroke-width="2" stroke-linecap="round" stroke-linejoin="round" fill="none"/><path d="M 296 261 L 296 260 L 296 259 L 300 256 L 307 253 L 313 250" stroke="#ffffff" stroke-width="2" stroke-linecap="round" stroke-linejoin="round" fill="none"/><path d="M 333 222 L 330 224 L 323 230 L 319 236 L 319 238 L 320 239 L 323 237 L 326 234 L 330 231 L 334 228 L 339 226 L 344 224 L 348 224" stroke="#ffffff" stroke-width="2" stroke-linecap="round" stroke-linejoin="round" fill="none"/><path d="M 324 247 L 322 245 L 324 242 L 331 238 L 338 234 L 342 231 L 344 231 L 342 231 L 340 231 L 339 231 L 338 231 L 337 233 L 333 238 L 328 245 L 323 252 L 319 256 L 318 256 L 318 255" stroke="#ffffff" stroke-width="2" stroke-linecap="round" stroke-linejoin="round" fill="none"/><path d="M 339 239 L 340 238 L 344 236 L 348 235 L 352 234 L 353 234" stroke="#ffffff" stroke-width="2" stroke-linecap="round" stroke-linejoin="round" fill="none"/><path d="M 348 240 L 343 242 L 339 246 L 335 250 L 334 253" stroke="#ffffff" stroke-width="2" stroke-linecap="round" stroke-linejoin="round" fill="none"/><path d="M 343 249 L 341 250 L 338 251 L 337 252 L 337 253 L 339 253" stroke="#ffffff" stroke-width="2" stroke-linecap="round" stroke-linejoin="round" fill="none"/><path d="M 349 247 L 346 249 L 344 253 L 341 260 L 338 267 L 334 272 L 332 274" stroke="#ffffff" stroke-width="2" stroke-linecap="round" stroke-linejoin="round" fill="none"/><path d="M 32 336 L 31 336 L 32 333 L 38 328 L 45 322 L 51 317 L 51 314 L 49 313 L 47 312 L 45 312 L 44 316 L 43 323 L 43 331 L 42 339 L 42 343" stroke="#ffffff" stroke-width="2" stroke-linecap="round" stroke-linejoin="round" fill="none"/><path d="M 35 348 L 36 349 L 36 348 L 40 342 L 48 334 L 55 327 L 58 323 L 60 321 L 60 320 L 60 319 L 59 319 L 58 323 L 54 332 L 49 343 L 43 354 L 39 359 L 39 360" stroke="#ffffff" stroke-width="2" stroke-linecap="round" stroke-linejoin="round" fill="none"/><path d="M 71 324 L 69 323 L 67 324 L 64 329 L 61 337 L 60 338" stroke="#ffffff" stroke-width="2" stroke-linecap="round" stroke-linejoin="round" fill="none"/><path d="M 57 338 L 56 338 L 55 339 L 55 342 L 55 346 L 58 348 L 62 347 L 66 343 L 70 341 L 69 346 L 65 352 L 62 357 L 62 358" stroke="#ffffff" stroke-width="2" stroke-linecap="round" stroke-linejoin="round" fill="none"/><path d="M 90 318 L 88 318 L 86 317 L 87 316 L 92 314 L 97 312 L 98 311" stroke="#ffffff" stroke-width="2" stroke-linecap="round" stroke-linejoin="round" fill="none"/><path d="M 92 328 L 89 329 L 87 329 L 90 328 L 93 327 L 95 327 L 95 329 L 94 333 L 92 337 L 91 339 L 90 338 L 91 336 L 93 333 L 97 332 L 102 331 L 109 328 L 114 327" stroke="#ffffff" stroke-width="2" stroke-linecap="round" stroke-linejoin="round" fill="none"/><path d="M 126 307 L 125 306 L 125 305 L 127 305 L 129 305 L 131 307 L 131 310 L 130 313 L 128 315 L 126 315 L 129 315 L 132 316 L 134 319 L 135 322 L 134 326 L 131 329 L 128 330 L 126 330 L 125 328 L 125 326 L 127 324 L 130 323 L 133 322" stroke="#ffffff" stroke-width="2" stroke-linecap="round" stroke-linejoin="round" fill="none"/><path d="M 158 299 L 155 299 L 153 299 L 153 302 L 155 307 L 159 311 L 163 313" stroke="#ffffff" stroke-width="2" stroke-linecap="round" stroke-linejoin="round" fill="none"/><path d="M 172 309 L 171 308 L 169 308 L 168 307 L 166 307 L 164 308 L 161 313 L 159 318 L 158 322 L 161 323 L 167 322 L 177 318" stroke="#ffffff" stroke-width="2" stroke-linecap="round" stroke-linejoin="round" fill="none"/><path d="M 200 310 L 197 311 L 194 312 L 194 313 L 195 316 L 198 318 L 201 318 L 202 317 L 203 315 L 203 312 L 202 310 L 200 309 L 197 309 L 196 311" stroke="#ffffff" stroke-width="2" stroke-linecap="round" stroke-linejoin="round" fill="none"/><path d="M 101 357 L 102 357 L 103 357 L 105 356 L 108 354 L 110 353" stroke="#ffffff" stroke-width="2" stroke-linecap="round" stroke-linejoin="round" fill="none"/><path d="M 102 368 L 99 369 L 98 369 L 98 368 L 102 365 L 107 362 L 112 358 L 114 356" stroke="#ffffff" stroke-width="2" stroke-linecap="round" stroke-linejoin="round" fill="none"/><path d="M 109 347 L 108 347 L 107 348 L 105 349 L 105 355 L 107 365 L 109 375 L 110 381 L 110 383 L 107 384 L 103 384 L 101 384 L 101 383 L 102 381 L 107 378 L 112 376 L 118 373" stroke="#ffffff" stroke-width="2" stroke-linecap="round" stroke-linejoin="round" fill="none"/><path d="M 133 360 L 132 360 L 130 360 L 130 361 L 132 365 L 135 369 L 138 371 L 141 371 L 142 368 L 142 364 L 143 360 L 144 358 L 145 359 L 147 364 L 148 369 L 148 370" stroke="#ffffff" stroke-width="2" stroke-linecap="round" stroke-linejoin="round" fill="none"/><path d="M 158 351 L 157 351 L 156 351 L 156 350 L 160 349 L 164 347 L 169 346 L 172 345 L 173 345 L 172 346 L 169 349 L 167 355 L 165 362 L 165 369 L 168 371 L 175 370 L 177 369" stroke="#ffffff" stroke-width="2" stroke-linecap="round" stroke-linejoin="round" fill="none"/><path d="M 208 332 L 209 332 L 207 333 L 203 342 L 199 352 L 196 359 L 195 363" stroke="#ffffff" stroke-width="2" stroke-linecap="round" stroke-linejoin="round" fill="none"/><path d="M 203 344 L 202 343 L 202 344 L 201 351 L 201 358 L 202 362 L 202 363" stroke="#ffffff" stroke-width="2" stroke-linecap="round" stroke-linejoin="round" fill="none"/><path d="M 210 346 L 211 345 L 212 341 L 216 336 L 222 332 L 226 330 L 226 329 L 225 329 L 223 328 L 222 328 L 221 330 L 220 334 L 220 339 L 220 346 L 220 352 L 218 356 L 216 358 L 215 357 L 215 355 L 217 353 L 220 352 L 224 352 L 228 351 L 232 350" stroke="#ffffff" stroke-width="2" stroke-linecap="round" stroke-linejoin="round" fill="none"/><path d="M 253 324 L 251 323 L 250 325 L 250 330 L 250 337 L 250 341 L 251 343" stroke="#ffffff" stroke-width="2" stroke-linecap="round" stroke-linejoin="round" fill="none"/><path d="M 254 333 L 254 331 L 254 329 L 255 327 L 258 327 L 263 327 L 265 327" stroke="#ffffff" stroke-width="2" stroke-linecap="round" stroke-linejoin="round" fill="none"/><path d="M 241 347 L 238 347 L 237 347 L 240 345 L 246 342 L 254 339 L 262 335 L 269 333 L 270 332" stroke="#ffffff" stroke-width="2" stroke-linecap="round" stroke-linejoin="round" fill="none"/><path d="M 282 329 L 281 329 L 279 329 L 279 330 L 279 333 L 280 336 L 283 338" stroke="#ffffff" stroke-width="2" stroke-linecap="round" stroke-linejoin="round" fill="none"/><path d="M 288 327 L 287 325 L 288 322 L 293 320 L 300 318 L 308 317 L 311 316" stroke="#ffffff" stroke-width="2" stroke-linecap="round" stroke-linejoin="round" fill="none"/><path d="M 298 308 L 298 305 L 299 312 L 299 328 L 297 345 L 296 355 L 294 359 L 293 360" stroke="#ffffff" stroke-width="2" stroke-linecap="round" stroke-linejoin="round" fill="none"/><path d="M 310 293 L 308 291 L 305 293 L 304 300 L 305 303" stroke="#ffffff" stroke-width="2" stroke-linecap="round" stroke-linejoin="round" fill="none"/><path d="M 314 296 L 312 296 L 310 300 L 309 308 L 310 312" stroke="#ffffff" stroke-width="2" stroke-linecap="round" stroke-linejoin="round" fill="none"/><path d="M 320 332 L 320 331 L 321 328 L 326 325 L 334 322 L 340 319 L 342 318 L 340 318" stroke="#ffffff" stroke-width="2" stroke-linecap="round" stroke-linejoin="round" fill="none"/><path d="M 333 316 L 331 314 L 330 313 L 330 314 L 328 321 L 325 333 L 322 343 L 322 349 L 325 350" stroke="#ffffff" stroke-width="2" stroke-linecap="round" stroke-linejoin="round" fill="none"/><path d="M 335 339 L 335 336 L 336 333 L 338 330 L 341 328 L 344 328" stroke="#ffffff" stroke-width="2" stroke-linecap="round" stroke-linejoin="round" fill="none"/><path d="M 339 338 L 337 339 L 335 340 L 337 340 L 343 337 L 350 334 L 354 332" stroke="#ffffff" stroke-width="2" stroke-linecap="round" stroke-linejoin="round" fill="none"/><path d="M 91 418 L 89 417 L 89 415 L 91 412 L 97 408 L 103 407 L 106 409 L 105 414 L 102 420 L 98 424 L 95 425 L 95 424 L 97 421 L 101 420 L 105 422 L 106 426 L 106 432 L 102 436 L 97 440 L 93 442 L 91 442" stroke="#ffffff" stroke-width="2" stroke-linecap="round" stroke-linejoin="round" fill="none"/><path d="M 126 413 L 125 413 L 122 414 L 120 418 L 120 425 L 122 430 L 126 432 L 130 429 L 133 425 L 135 419 L 135 415 L 131 412 L 125 412 L 120 418 L 120 419" stroke="#ffffff" stroke-width="2" stroke-linecap="round" stroke-linejoin="round" fill="none"/><path d="M 157 398 L 155 398 L 153 399 L 152 405 L 151 416 L 151 424 L 152 428" stroke="#ffffff" stroke-width="2" stroke-linecap="round" stroke-linejoin="round" fill="none"/><path d="M 154 403 L 154 402 L 153 399 L 153 397 L 155 396 L 158 396 L 161 400 L 163 407 L 163 414 L 162 421 L 161 426" stroke="#ffffff" stroke-width="2" stroke-linecap="round" stroke-linejoin="round" fill="none"/><path d="M 155 413 L 154 413 L 151 412 L 150 411 L 153 411 L 156 411" stroke="#ffffff" stroke-width="2" stroke-linecap="round" stroke-linejoin="round" fill="none"/><path d="M 156 422 L 154 425 L 152 427 L 153 427 L 156 424 L 161 420" stroke="#ffffff" stroke-width="2" stroke-linecap="round" stroke-linejoin="round" fill="none"/><path d="M 180 411 L 177 408 L 179 405 L 184 403 L 189 402 L 194 403 L 197 405 L 197 407 L 196 409 L 194 411 L 192 412 L 190 412 L 188 409 L 187 404 L 187 398 L 186 393 L 186 392 L 186 393 L 185 399 L 184 407 L 182 414 L 182 419 L 182 420" stroke="#ffffff" stroke-width="2" stroke-linecap="round" stroke-linejoin="round" fill="none"/><path d="M 197 390 L 197 389 L 196 388 L 196 391 L 197 397 L 201 403 L 204 405" stroke="#ffffff" stroke-width="2" stroke-linecap="round" stroke-linejoin="round" fill="none"/><path d="M 223 385 L 222 385 L 220 385 L 220 386 L 221 390 L 222 393" stroke="#ffffff" stroke-width="2" stroke-linecap="round" stroke-linejoin="round" fill="none"/><path d="M 221 393 L 220 394 L 218 394 L 216 396 L 214 400 L 213 405 L 213 408 L 214 409 L 216 408 L 219 408 L 224 408 L 228 410 L 229 412 L 227 416 L 222 419 L 216 421 L 210 422" stroke="#ffffff" stroke-width="2" stroke-linecap="round" stroke-linejoin="round" fill="none"/><path d="M 267 376 L 265 374 L 263 374 L 262 384 L 259 403 L 257 418 L 257 424 L 258 425" stroke="#ffffff" stroke-width="2" stroke-linecap="round" stroke-linejoin="round" fill="none"/><path d="M 287 385 L 286 385 L 282 386 L 280 391 L 278 399 L 278 405 L 278 407" stroke="#ffffff" stroke-width="2" stroke-linecap="round" stroke-linejoin="round" fill="none"/><path d="M 311 374 L 310 374 L 306 375 L 305 382 L 304 394 L 304 403 L 304 408 L 304 410" stroke="#ffffff" stroke-width="2" stroke-linecap="round" stroke-linejoin="round" fill="none"/><path d="M 304 382 L 304 381 L 302 377 L 303 374 L 308 370 L 314 369 L 319 370 L 321 376 L 322 383 L 321 392 L 321 400 L 320 406 L 320 410 L 320 412" stroke="#ffffff" stroke-width="2" stroke-linecap="round" stroke-linejoin="round" fill="none"/><path d="M 310 390 L 309 388 L 308 386 L 310 385 L 313 386" stroke="#ffffff" stroke-width="2" stroke-linecap="round" stroke-linejoin="round" fill="none"/><path d="M 313 393 L 310 394 L 309 394 L 311 395 L 316 394 L 319 393" stroke="#ffffff" stroke-width="2" stroke-linecap="round" stroke-linejoin="round" fill="none"/><path d="M 290 395 L 290 393 L 290 392 L 289 392 L 288 398 L 286 407 L 284 415 L 283 420" stroke="#ffffff" stroke-width="2" stroke-linecap="round" stroke-linejoin="round" fill="none"/><path d="M 350 386 L 349 385 L 350 383 L 353 381 L 357 381 L 359 381" stroke="#ffffff" stroke-width="2" stroke-linecap="round" stroke-linejoin="round" fill="none"/><path d="M 348 391 L 346 391 L 346 390 L 349 390 L 354 388 L 360 386 L 361 385" stroke="#ffffff" stroke-width="2" stroke-linecap="round" stroke-linejoin="round" fill="none"/><path d="M 356 374 L 354 373 L 353 374 L 354 381 L 355 392 L 356 402 L 355 407 L 353 408 L 350 408 L 348 406 L 347 403 L 349 401 L 352 400 L 355 398 L 360 397 L 363 396" stroke="#ffffff" stroke-width="2" stroke-linecap="round" stroke-linejoin="round" fill="none"/><path d="M 373 386 L 371 385 L 372 383 L 377 381 L 383 378 L 389 376 L 390 375" stroke="#ffffff" stroke-width="2" stroke-linecap="round" stroke-linejoin="round" fill="none"/><path d="M 383 368 L 382 368 L 379 370 L 378 376 L 376 389 L 375 401 L 375 407 L 375 410" stroke="#ffffff" stroke-width="2" stroke-linecap="round" stroke-linejoin="round" fill="none"/><path d="M 386 395 L 386 394 L 384 392 L 385 389 L 389 387 L 394 386 L 395 386" stroke="#ffffff" stroke-width="2" stroke-linecap="round" stroke-linejoin="round" fill="none"/><path d="M 388 403 L 386 403 L 385 403 L 386 401 L 393 397 L 399 394" stroke="#ffffff" stroke-width="2" stroke-linecap="round" stroke-linejoin="round" fill="none"/><path d="M 420 377 L 418 375 L 417 376 L 416 384 L 415 396 L 414 406 L 416 410" stroke="#ffffff" stroke-width="2" stroke-linecap="round" stroke-linejoin="round" fill="none"/><path d="M 429 382 L 430 380 L 432 377 L 435 377 L 439 377 L 441 377" stroke="#ffffff" stroke-width="2" stroke-linecap="round" stroke-linejoin="round" fill="none"/><path d="M 429 388 L 428 390 L 427 390 L 428 389 L 433 387 L 439 385 L 440 385" stroke="#ffffff" stroke-width="2" stroke-linecap="round" stroke-linejoin="round" fill="none"/><path d="M 439 378 L 437 378 L 435 380 L 434 387 L 433 395 L 432 402 L 432 405 L 431 405 L 430 403 L 429 400 L 429 398 L 429 396 L 432 395 L 437 395 L 439 394" stroke="#ffffff" stroke-width="2" stroke-linecap="round" stroke-linejoin="round" fill="none"/><path d="M 455 381 L 452 383 L 450 387 L 448 395 L 447 399 L 448 400 L 449 398 L 451 394 L 453 391 L 455 389 L 457 389 L 459 392 L 462 395 L 465 396 L 468 395" stroke="#ffffff" stroke-width="2" stroke-linecap="round" stroke-linejoin="round" fill="none"/><path d="M 479 387 L 478 387 L 477 385 L 479 384 L 482 383 L 484 384 L 486 385 L 486 387" stroke="#ffffff" stroke-width="2" stroke-linecap="round" stroke-linejoin="round" fill="none"/><path d="M 472 401 L 469 403 L 468 404 L 470 405 L 475 404 L 481 402 L 487 399 L 491 398" stroke="#ffffff" stroke-width="2" stroke-linecap="round" stroke-linejoin="round" fill="none"/><path d="M 499 379 L 497 380 L 494 383 L 491 391 L 489 399 L 489 402 L 490 402 L 493 399 L 495 395 L 498 392 L 500 390 L 502 390 L 502 393 L 503 395 L 504 396 L 508 395 L 510 394" stroke="#ffffff" stroke-width="2" stroke-linecap="round" stroke-linejoin="round" fill="none"/><path d="M 532 376 L 530 376 L 527 374 L 527 376 L 528 380 L 530 383" stroke="#ffffff" stroke-width="2" stroke-linecap="round" stroke-linejoin="round" fill="none"/><path d="M 537 372 L 537 370 L 536 375 L 534 386 L 529 399 L 524 410 L 520 416 L 520 417 L 522 416" stroke="#ffffff" stroke-width="2" stroke-linecap="round" stroke-linejoin="round" fill="none"/><path d="M 544 371 L 543 369 L 542 366 L 546 365 L 551 364 L 556 366 L 558 368 L 558 370" stroke="#ffffff" stroke-width="2" stroke-linecap="round" stroke-linejoin="round" fill="none"/><path d="M 547 376 L 545 376 L 543 375 L 545 374 L 550 372 L 555 371" stroke="#ffffff" stroke-width="2" stroke-linecap="round" stroke-linejoin="round" fill="none"/><path d="M 550 375 L 548 375 L 550 374 L 553 374" stroke="#ffffff" stroke-width="2" stroke-linecap="round" stroke-linejoin="round" fill="none"/><path d="M 544 389 L 542 390 L 539 394 L 538 397 L 537 398" stroke="#ffffff" stroke-width="2" stroke-linecap="round" stroke-linejoin="round" fill="none"/><path d="M 540 393 L 541 391 L 542 387 L 547 381 L 553 378 L 557 378 L 560 380 L 561 381 L 562 382 L 562 383" stroke="#ffffff" stroke-width="2" stroke-linecap="round" stroke-linejoin="round" fill="none"/><path d="M 550 391 L 549 391 L 545 392 L 544 395 L 544 398 L 544 402 L 545 404 L 545 405 L 545 404 L 545 402 L 545 399 L 546 395 L 548 391 L 551 387 L 554 384 L 556 385 L 557 388 L 557 392 L 556 395 L 555 397 L 553 397 L 552 396 L 551 393 L 550 388 L 551 383 L 553 378 L 555 378 L 555 385 L 552 396 L 548 407 L 547 415 L 549 419" stroke="#ffffff" stroke-width="2" stroke-linecap="round" stroke-linejoin="round" fill="none"/><path d="M 585 381 L 584 380 L 584 378 L 588 378 L 592 381 L 593 385 L 592 389 L 588 391 L 584 391 L 581 391 L 581 389 L 584 389 L 587 391 L 590 395 L 592 400 L 590 405 L 586 409 L 582 411 L 579 411 L 576 410 L 576 408 L 578 406 L 581 404 L 584 404 L 587 404" stroke="#ffffff" stroke-width="2" stroke-linecap="round" stroke-linejoin="round" fill="none"/><path d="M 91 472 L 90 471 L 91 469 L 95 464 L 100 459 L 106 454 L 109 453 L 110 453" stroke="#ffffff" stroke-width="2" stroke-linecap="round" stroke-linejoin="round" fill="none"/><path d="M 96 455 L 96 453 L 96 449 L 96 448 L 97 450 L 97 457 L 97 467 L 98 476 L 99 484 L 99 490 L 99 494 L 97 495 L 96 496 L 94 495 L 92 493 L 92 488 L 92 482 L 95 475 L 101 469 L 107 467 L 109 473 L 109 481 L 109 488 L 109 492" stroke="#ffffff" stroke-width="2" stroke-linecap="round" stroke-linejoin="round" fill="none"/><path d="M 119 457 L 118 457 L 117 462 L 117 469" stroke="#ffffff" stroke-width="2" stroke-linecap="round" stroke-linejoin="round" fill="none"/><path d="M 132 454 L 131 454 L 129 454 L 127 459 L 125 468 L 123 475" stroke="#ffffff" stroke-width="2" stroke-linecap="round" stroke-linejoin="round" fill="none"/><path d="M 137 456 L 139 452 L 141 450 L 145 449 L 149 449 L 151 450 L 151 451 L 149 453 L 145 455 L 142 459 L 139 466 L 137 475 L 135 485 L 133 490 L 132 492 L 131 493 L 131 492" stroke="#ffffff" stroke-width="2" stroke-linecap="round" stroke-linejoin="round" fill="none"/><path d="M 131 467 L 131 465 L 133 465 L 137 468 L 142 472 L 148 477 L 152 479" stroke="#ffffff" stroke-width="2" stroke-linecap="round" stroke-linejoin="round" fill="none"/><path d="M 167 464 L 166 464 L 165 463 L 168 461 L 175 458 L 181 456 L 184 454" stroke="#ffffff" stroke-width="2" stroke-linecap="round" stroke-linejoin="round" fill="none"/><path d="M 178 452 L 177 451 L 175 450 L 176 453 L 177 458 L 178 464" stroke="#ffffff" stroke-width="2" stroke-linecap="round" stroke-linejoin="round" fill="none"/><path d="M 169 473 L 167 473 L 168 476 L 171 480 L 174 482" stroke="#ffffff" stroke-width="2" stroke-linecap="round" stroke-linejoin="round" fill="none"/><path d="M 196 458 L 195 458 L 194 461 L 192 470 L 190 479 L 190 481 L 192 480 L 195 476 L 196 473 L 198 470 L 199 470 L 199 472 L 200 475 L 203 476 L 206 476" stroke="#ffffff" stroke-width="2" stroke-linecap="round" stroke-linejoin="round" fill="none"/><path d="M 248 433 L 248 432 L 248 431 L 248 430 L 247 433 L 246 439 L 246 440" stroke="#ffffff" stroke-width="2" stroke-linecap="round" stroke-linejoin="round" fill="none"/><path d="M 240 449 L 240 447 L 242 443 L 250 439 L 256 437 L 257 437" stroke="#ffffff" stroke-width="2" stroke-linecap="round" stroke-linejoin="round" fill="none"/><path d="M 241 446 L 240 446 L 237 448 L 234 455 L 232 467 L 230 478 L 229 485 L 229 487" stroke="#ffffff" stroke-width="2" stroke-linecap="round" stroke-linejoin="round" fill="none"/><path d="M 226 464 L 226 462 L 225 461 L 225 462 L 226 466" stroke="#ffffff" stroke-width="2" stroke-linecap="round" stroke-linejoin="round" fill="none"/><path d="M 224 485 L 222 485 L 221 483 L 222 478 L 227 471 L 231 468" stroke="#ffffff" stroke-width="2" stroke-linecap="round" stroke-linejoin="round" fill="none"/><path d="M 248 453 L 247 452 L 250 449 L 257 445 L 263 442 L 264 442" stroke="#ffffff" stroke-width="2" stroke-linecap="round" stroke-linejoin="round" fill="none"/><path d="M 252 454 L 251 454 L 249 455 L 248 463 L 247 475 L 247 483 L 248 485" stroke="#ffffff" stroke-width="2" stroke-linecap="round" stroke-linejoin="round" fill="none"/><path d="M 246 466 L 245 463 L 246 460 L 251 457 L 257 454 L 262 453 L 264 455 L 265 459 L 265 464 L 266 469 L 265 475 L 264 479 L 264 480" stroke="#ffffff" stroke-width="2" stroke-linecap="round" stroke-linejoin="round" fill="none"/><path d="M 258 452 L 258 451 L 258 449 L 258 450 L 257 458 L 256 466 L 256 468" stroke="#ffffff" stroke-width="2" stroke-linecap="round" stroke-linejoin="round" fill="none"/><path d="M 257 461 L 258 458 L 258 457 L 259 460 L 261 465 L 264 467" stroke="#ffffff" stroke-width="2" stroke-linecap="round" stroke-linejoin="round" fill="none"/><path d="M 288 433 L 285 432 L 284 434 L 282 442 L 281 452 L 280 459 L 280 461" stroke="#ffffff" stroke-width="2" stroke-linecap="round" stroke-linejoin="round" fill="none"/><path d="M 282 448 L 282 445 L 285 443 L 291 442 L 296 441 L 298 441" stroke="#ffffff" stroke-width="2" stroke-linecap="round" stroke-linejoin="round" fill="none"/><path d="M 290 450 L 290 449 L 289 448 L 290 447 L 294 447" stroke="#ffffff" stroke-width="2" stroke-linecap="round" stroke-linejoin="round" fill="none"/><path d="M 285 463 L 283 463 L 282 464 L 284 462 L 290 459 L 296 455 L 301 452 L 303 450 L 303 449 L 302 450 L 301 455 L 300 463 L 301 472 L 304 478 L 307 482 L 310 482" stroke="#ffffff" stroke-width="2" stroke-linecap="round" stroke-linejoin="round" fill="none"/><path d="M 296 471 L 294 470 L 293 469 L 292 473 L 290 478 L 288 484 L 287 486" stroke="#ffffff" stroke-width="2" stroke-linecap="round" stroke-linejoin="round" fill="none"/><path d="M 285 473 L 283 473 L 284 473 L 288 475 L 294 477 L 296 477" stroke="#ffffff" stroke-width="2" stroke-linecap="round" stroke-linejoin="round" fill="none"/><path d="M 328 460 L 324 459 L 324 458 L 328 456 L 332 456 L 336 455 L 339 455 L 338 455 L 336 456 L 334 460 L 331 465 L 330 471 L 331 475 L 335 476 L 340 474 L 342 472" stroke="#ffffff" stroke-width="2" stroke-linecap="round" stroke-linejoin="round" fill="none"/><path d="M 348 437 L 344 437 L 342 442 L 342 448 L 343 448" stroke="#ffffff" stroke-width="2" stroke-linecap="round" stroke-linejoin="round" fill="none"/><path d="M 353 437 L 353 435 L 352 434 L 352 438 L 352 440" stroke="#ffffff" stroke-width="2" stroke-linecap="round" stroke-linejoin="round" fill="none"/><path d="M 381 437 L 380 436 L 378 435 L 375 440 L 370 452 L 364 466 L 363 473" stroke="#ffffff" stroke-width="2" stroke-linecap="round" stroke-linejoin="round" fill="none"/><path d="M 378 440 L 379 439 L 380 433 L 384 432 L 388 432 L 393 435 L 398 436" stroke="#ffffff" stroke-width="2" stroke-linecap="round" stroke-linejoin="round" fill="none"/><path d="M 384 450 L 382 448 L 382 445 L 385 444 L 389 444 L 390 444" stroke="#ffffff" stroke-width="2" stroke-linecap="round" stroke-linejoin="round" fill="none"/><path d="M 382 460 L 379 460 L 378 459 L 380 458 L 385 457 L 391 457 L 394 460 L 392 466 L 386 473 L 381 477 L 379 479" stroke="#ffffff" stroke-width="2" stroke-linecap="round" stroke-linejoin="round" fill="none"/><path d="M 420 430 L 418 429 L 416 431 L 415 436 L 413 444 L 410 451 L 409 454" stroke="#ffffff" stroke-width="2" stroke-linecap="round" stroke-linejoin="round" fill="none"/><path d="M 410 447 L 411 442 L 416 439 L 425 436 L 430 436 L 432 438" stroke="#ffffff" stroke-width="2" stroke-linecap="round" stroke-linejoin="round" fill="none"/><path d="M 423 445 L 421 445 L 419 447 L 419 449 L 419 452 L 419 455" stroke="#ffffff" stroke-width="2" stroke-linecap="round" stroke-linejoin="round" fill="none"/><path d="M 421 451 L 421 449 L 421 445 L 422 444 L 425 443 L 429 444 L 431 445 L 432 446" stroke="#ffffff" stroke-width="2" stroke-linecap="round" stroke-linejoin="round" fill="none"/><path d="M 412 464 L 411 464 L 410 464 L 412 462 L 417 460 L 424 458 L 431 454 L 437 452 L 440 451" stroke="#ffffff" stroke-width="2" stroke-linecap="round" stroke-linejoin="round" fill="none"/><path d="M 429 440 L 428 438 L 427 438 L 427 445 L 427 457 L 425 469 L 424 476 L 424 479" stroke="#ffffff" stroke-width="2" stroke-linecap="round" stroke-linejoin="round" fill="none"/><path d="M 454 443 L 454 441 L 454 446 L 455 454 L 456 462" stroke="#ffffff" stroke-width="2" stroke-linecap="round" stroke-linejoin="round" fill="none"/><path d="M 463 443 L 463 442 L 461 439 L 460 441 L 459 447 L 457 455 L 454 463 L 451 467 L 447 468 L 445 466 L 445 462 L 447 457 L 451 452 L 458 448 L 467 447 L 474 452 L 475 458 L 473 464 L 471 467 L 470 468" stroke="#ffffff" stroke-width="2" stroke-linecap="round" stroke-linejoin="round" fill="none"/><path d="M 480 464 L 479 464 L 478 462 L 478 461 L 480 462 L 480 464 L 480 467 L 479 469" stroke="#ffffff" stroke-width="2" stroke-linecap="round" stroke-linejoin="round" fill="none"/><path d="M 489 449 L 490 448 L 493 443 L 499 440 L 504 439 L 507 439 L 510 439" stroke="#ffffff" stroke-width="2" stroke-linecap="round" stroke-linejoin="round" fill="none"/><path d="M 504 434 L 504 433 L 503 432 L 503 434 L 501 441 L 498 452 L 496 459 L 496 461 L 499 458 L 503 454 L 506 451 L 509 452 L 510 456 L 508 462 L 503 468 L 499 471 L 498 472" stroke="#ffffff" stroke-width="2" stroke-linecap="round" stroke-linejoin="round" fill="none"/><path d="M 522 472 L 521 472 L 520 471 L 523 469 L 528 466 L 533 463 L 539 463 L 540 464 L 538 467 L 535 469 L 532 470" stroke="#ffffff" stroke-width="2" stroke-linecap="round" stroke-linejoin="round" fill="none"/><path d="M 528 458 L 529 457 L 529 456 L 528 459 L 527 464 L 527 470" stroke="#ffffff" stroke-width="2" stroke-linecap="round" stroke-linejoin="round" fill="none"/><path d="M 536 455 L 536 454 L 534 456 L 534 463 L 535 467" stroke="#ffffff" stroke-width="2" stroke-linecap="round" stroke-linejoin="round" fill="none"/><path d="M 567 440 L 566 439 L 565 437 L 565 442 L 565 449 L 566 454" stroke="#ffffff" stroke-width="2" stroke-linecap="round" stroke-linejoin="round" fill="none"/><path d="M 573 436 L 573 435 L 574 431 L 575 430 L 577 435 L 577 446 L 575 461 L 569 473 L 563 480 L 560 484 L 560 485" stroke="#ffffff" stroke-width="2" stroke-linecap="round" stroke-linejoin="round" fill="none"/><path d="M 583 434 L 583 432 L 586 426 L 590 425 L 594 426 L 597 428 L 597 431" stroke="#ffffff" stroke-width="2" stroke-linecap="round" stroke-linejoin="round" fill="none"/><path d="M 591 433 L 591 432 L 592 431 L 593 431" stroke="#ffffff" stroke-width="2" stroke-linecap="round" stroke-linejoin="round" fill="none"/><path d="M 594 434 L 592 434 L 590 433 L 591 433 L 594 433 L 594 434" stroke="#ffffff" stroke-width="2" stroke-linecap="round" stroke-linejoin="round" fill="none"/><path d="M 585 446 L 582 448 L 578 453 L 577 457 L 577 460 L 578 461" stroke="#ffffff" stroke-width="2" stroke-linecap="round" stroke-linejoin="round" fill="none"/><path d="M 583 452 L 585 448 L 588 443 L 593 440 L 599 438 L 603 439 L 603 441 L 602 445 L 599 449 L 595 453 L 592 456 L 589 457 L 587 456 L 586 454 L 586 453 L 586 456 L 585 460 L 585 464 L 585 467 L 584 466 L 584 463 L 585 459 L 587 455 L 591 451 L 595 449 L 598 448 L 598 451 L 598 454 L 596 456 L 595 457 L 594 457 L 593 455 L 593 452 L 594 448 L 595 444 L 597 442 L 597 443 L 597 450 L 593 459 L 588 469 L 586 477 L 588 480" stroke="#ffffff" stroke-width="2" stroke-linecap="round" stroke-linejoin="round" fill="none"/><path d="M 614 467 L 613 467 L 615 466 L 618 466 L 621 467 L 622 469 L 619 472 L 615 474 L 613 475" stroke="#ffffff" stroke-width="2" stroke-linecap="round" stroke-linejoin="round" fill="none"/><path d="M 627 451 L 628 448 L 631 445 L 637 444 L 642 444 L 646 445 L 650 445 L 651 445 L 650 447 L 646 451 L 640 458 L 637 467 L 636 475 L 642 479 L 649 480 L 652 480" stroke="#ffffff" stroke-width="2" stroke-linecap="round" stroke-linejoin="round" fill="none"/><path d="M 672 451 L 673 449 L 676 447 L 679 448 L 681 450 L 682 452 L 682 455 L 681 456 L 676 457 L 672 457 L 669 457 L 673 459 L 677 461 L 679 464 L 680 467 L 680 470 L 680 473 L 678 475 L 674 477 L 669 477 L 664 477 L 662 476 L 664 474 L 668 474 L 672 474 L 676 475 L 680 477" stroke="#ffffff" stroke-width="2" stroke-linecap="round" stroke-linejoin="round" fill="none"/></svg>
