<svg xmlns="http://www.w3.org/2000/svg" width="607" height="700" viewBox="0 0 607 700"><path d="M 152 338 L 175 347 L 202 359 L 230 368 L 265 377 L 307 387 L 349 392 L 393 390 L 439 375 L 476 359 L 507 341 L 532 319 L 551 294 L 562 267 L 565 240 L 561 212 L 544 180 L 518 147 L 483 123 L 444 101 L 398 83 L 345 69 L 286 63 L 222 63 L 159 75 L 102 101 L 57 134 L 30 172 L 13 225 L 10 286 L 20 352 L 44 421 L 78 491 L 121 564 L 170 629 L 220 677 L 266 704 L 306 712 L 342 712 L 376 699 L 409 677 L 442 651 L 473 625 L 502 599 L 529 566 L 553 525 L 574 478 L 589 421 L 596 364 L 597 314 L 590 261 L 574 211 L 547 160 L 507 123 L 466 97 L 420 80 L 368 71 L 314 72 L 260 87 L 206 112 L 160 143 L 121 184 L 86 239 L 63 299 L 54 363 L 57 427 L 77 487 L 109 545 L 150 595 L 191 624 L 230 634 L 262 628 L 285 601 L 299 556 L 304 498 L 303 431 L 290 367 L 271 314 L 251 275 L 233 250 L 219 244 L 214 250 L 219 282 L 246 344 L 279 404 L 316 457 L 349 500 L 377 525 L 395 531 L 403 527 L 403 503 L 389 440 L 360 359 L 324 286 L 285 225 L 251 186 L 230 167 L 225 166 L 225 174 L 242 194 L 289 267 L 338 334 L 387 395 L 430 439 L 465 465 L 487 469 L 496 461 L 498 421 L 488 345 L 476 309" stroke="#ffffff" stroke-width="2" stroke-linecap="round" stroke-linejoin="round" fill="none"/><path d="M 490 273 L 499 274 L 514 274 L 524 272 L 528 263 L 528 243 L 517 206 L 497 161 L 468 115 L 436 74 L 404 42 L 371 18 L 336 2 L 302 -5 L 267 -6 L 233 1 L 202 16 L 170 37 L 140 67 L 112 101 L 87 138 L 65 182 L 44 235 L 25 290 L 16 348 L 17 403 L 30 453 L 53 498 L 85 535 L 122 567 L 164 590 L 204 606 L 244 617 L 288 624 L 330 626 L 371 626 L 411 623 L 447 613 L 481 600 L 512 582 L 538 559 L 558 532 L 571 498 L 575 455 L 572 406 L 555 356 L 530 313 L 495 271 L 455 238 L 410 209 L 361 190 L 315 181 L 274 181 L 241 193 L 219 215 L 206 245 L 203 287 L 213 336 L 235 387 L 265 435 L 296 476 L 329 510 L 360 535 L 381 544 L 395 544 L 401 536 L 401 513 L 396 476 L 378 438 L 349 399 L 315 357 L 279 312 L 240 265 L 202 219" stroke="#ffffff" stroke-width="20" stroke-linecap="round" stroke-linejoin="round" fill="none"/></svg>
