<svg xmlns="http://www.w3.org/2000/svg" width="622" height="686" viewBox="0 0 622 686"><path d="M 378 737 L 378 737 L 379 740" stroke="#ffffff" stroke-width="2" stroke-linecap="round" stroke-linejoin="round" fill="none"/><path d="M 11 22 L 11 20 L 11 17 L 11 19 L 11 26 L 11 34 L 11 42 L 10 49 L 11 51 L 12 52" stroke="#ffffff" stroke-width="2" stroke-linecap="round" stroke-linejoin="round" fill="none"/><path d="M 26 15 L 26 14 L 25 13 L 25 15 L 25 24 L 24 35 L 24 45 L 25 51 L 27 51" stroke="#ffffff" stroke-width="2" stroke-linecap="round" stroke-linejoin="round" fill="none"/><path d="M 62 12 L 62 11 L 62 10 L 60 13 L 55 24 L 46 45 L 37 62 L 32 72 L 31 80 L 31 81" stroke="#ffffff" stroke-width="2" stroke-linecap="round" stroke-linejoin="round" fill="none"/><path d="M 76 54 L 75 54 L 75 49 L 80 47 L 83 47 L 86 50 L 86 54 L 84 58 L 80 62 L 76 64 L 72 66 L 70 67 L 70 67 L 73 68 L 79 67 L 89 65 L 100 63 L 104 63" stroke="#ffffff" stroke-width="2" stroke-linecap="round" stroke-linejoin="round" fill="none"/><path d="M 185 28 L 184 27 L 183 26 L 181 26 L 177 30 L 172 40 L 169 49 L 170 54 L 176 54 L 185 51 L 194 43" stroke="#ffffff" stroke-width="2" stroke-linecap="round" stroke-linejoin="round" fill="none"/><path d="M 226 16 L 225 13 L 224 11 L 224 10 L 224 10 L 223 13 L 220 21 L 218 34 L 217 44 L 218 49 L 221 50 L 224 49 L 227 47 L 229 42 L 230 38 L 230 35 L 230 33 L 228 32 L 225 33 L 222 35 L 219 39 L 217 44 L 216 45" stroke="#ffffff" stroke-width="2" stroke-linecap="round" stroke-linejoin="round" fill="none"/><path d="M 261 22 L 260 22 L 256 21 L 255 21 L 254 21 L 253 25 L 252 33 L 252 39 L 254 40 L 257 38 L 260 32 L 262 27 L 262 23 L 260 21 L 257 20 L 254 21 L 252 25 L 252 27" stroke="#ffffff" stroke-width="2" stroke-linecap="round" stroke-linejoin="round" fill="none"/><path d="M 34 112 L 33 112 L 29 110 L 29 116 L 27 132 L 27 148 L 30 156 L 33 157" stroke="#ffffff" stroke-width="2" stroke-linecap="round" stroke-linejoin="round" fill="none"/><path d="M 53 121 L 52 120 L 51 116 L 55 114 L 60 112 L 65 112 L 67 114 L 66 119 L 62 124 L 58 128 L 55 130 L 54 130 L 54 130 L 57 130 L 61 130 L 63 133 L 64 137 L 62 140 L 59 143 L 55 145 L 51 146 L 50 147" stroke="#ffffff" stroke-width="2" stroke-linecap="round" stroke-linejoin="round" fill="none"/><path d="M 129 118 L 129 118 L 132 112 L 137 109 L 141 108 L 144 108" stroke="#ffffff" stroke-width="2" stroke-linecap="round" stroke-linejoin="round" fill="none"/><path d="M 131 128 L 130 129 L 131 127 L 135 124 L 141 120 L 145 116 L 146 115" stroke="#ffffff" stroke-width="2" stroke-linecap="round" stroke-linejoin="round" fill="none"/><path d="M 134 109 L 134 108 L 133 103 L 134 104 L 136 110 L 138 118 L 140 127 L 142 132" stroke="#ffffff" stroke-width="2" stroke-linecap="round" stroke-linejoin="round" fill="none"/><path d="M 130 142 L 128 141 L 128 140 L 130 142 L 133 147 L 138 151" stroke="#ffffff" stroke-width="2" stroke-linecap="round" stroke-linejoin="round" fill="none"/><path d="M 162 118 L 161 118 L 160 114 L 163 112 L 166 111 L 167 111" stroke="#ffffff" stroke-width="2" stroke-linecap="round" stroke-linejoin="round" fill="none"/><path d="M 160 124 L 159 125 L 157 125 L 157 126 L 159 125 L 162 123 L 166 121 L 168 120" stroke="#ffffff" stroke-width="2" stroke-linecap="round" stroke-linejoin="round" fill="none"/><path d="M 165 106 L 164 103 L 164 104 L 164 108 L 164 115 L 164 125 L 164 134 L 166 137 L 169 136 L 174 131 L 176 128" stroke="#ffffff" stroke-width="2" stroke-linecap="round" stroke-linejoin="round" fill="none"/><path d="M 184 111 L 183 111 L 185 105 L 190 102 L 195 100 L 197 100" stroke="#ffffff" stroke-width="2" stroke-linecap="round" stroke-linejoin="round" fill="none"/><path d="M 189 100 L 188 100 L 188 104 L 188 110 L 188 115 L 188 119 L 188 119 L 190 116 L 192 112 L 195 111 L 197 113 L 198 120 L 196 127 L 192 133 L 189 136 L 189 136" stroke="#ffffff" stroke-width="2" stroke-linecap="round" stroke-linejoin="round" fill="none"/><path d="M 231 108 L 230 107 L 228 103 L 229 104 L 230 110 L 230 117 L 231 122 L 232 123" stroke="#ffffff" stroke-width="2" stroke-linecap="round" stroke-linejoin="round" fill="none"/><path d="M 233 113 L 233 113 L 233 107 L 236 106 L 239 105 L 240 105" stroke="#ffffff" stroke-width="2" stroke-linecap="round" stroke-linejoin="round" fill="none"/><path d="M 223 129 L 222 129 L 220 129 L 223 128 L 229 125 L 238 120 L 248 116 L 255 114 L 256 114" stroke="#ffffff" stroke-width="2" stroke-linecap="round" stroke-linejoin="round" fill="none"/><path d="M 275 102 L 274 101 L 276 95 L 280 93 L 284 93" stroke="#ffffff" stroke-width="2" stroke-linecap="round" stroke-linejoin="round" fill="none"/><path d="M 273 113 L 273 113 L 273 108 L 278 105 L 282 103 L 287 102 L 287 101" stroke="#ffffff" stroke-width="2" stroke-linecap="round" stroke-linejoin="round" fill="none"/><path d="M 281 86 L 280 85 L 279 88 L 279 98 L 280 113 L 281 121 L 282 124 L 281 125 L 278 125 L 275 125 L 272 124 L 271 124 L 272 123 L 275 122 L 280 119 L 285 116 L 290 114" stroke="#ffffff" stroke-width="2" stroke-linecap="round" stroke-linejoin="round" fill="none"/><path d="M 302 106 L 301 104 L 304 99 L 307 98 L 310 98 L 311 98 L 309 99 L 307 101 L 306 105 L 305 109 L 307 113 L 311 115 L 312 115" stroke="#ffffff" stroke-width="2" stroke-linecap="round" stroke-linejoin="round" fill="none"/><path d="M 315 77 L 314 77 L 309 81 L 310 88 L 311 89" stroke="#ffffff" stroke-width="2" stroke-linecap="round" stroke-linejoin="round" fill="none"/><path d="M 318 82 L 319 78 L 319 76 L 319 77 L 320 80" stroke="#ffffff" stroke-width="2" stroke-linecap="round" stroke-linejoin="round" fill="none"/><path d="M 335 104 L 334 102 L 332 98 L 332 100 L 333 105 L 334 111 L 335 114" stroke="#ffffff" stroke-width="2" stroke-linecap="round" stroke-linejoin="round" fill="none"/><path d="M 349 91 L 349 90 L 349 89 L 349 94 L 349 100" stroke="#ffffff" stroke-width="2" stroke-linecap="round" stroke-linejoin="round" fill="none"/><path d="M 353 118 L 353 117 L 356 109 L 361 108 L 363 110 L 363 115 L 361 120 L 359 123" stroke="#ffffff" stroke-width="2" stroke-linecap="round" stroke-linejoin="round" fill="none"/><path d="M 378 96 L 376 96 L 375 93 L 378 91 L 382 89 L 387 87 L 390 87 L 390 87 L 389 89 L 385 93 L 382 99 L 381 105 L 381 111 L 385 115 L 389 117 L 391 117" stroke="#ffffff" stroke-width="2" stroke-linecap="round" stroke-linejoin="round" fill="none"/><path d="M 432 102 L 432 101 L 432 101 L 438 95 L 449 88 L 457 83 L 460 81" stroke="#ffffff" stroke-width="2" stroke-linecap="round" stroke-linejoin="round" fill="none"/><path d="M 448 75 L 448 75 L 446 82 L 444 93 L 440 104 L 436 112 L 433 117 L 433 118" stroke="#ffffff" stroke-width="2" stroke-linecap="round" stroke-linejoin="round" fill="none"/><path d="M 444 107 L 444 106 L 454 95 L 456 95 L 456 95 L 457 95 L 456 95 L 455 95 L 454 98 L 452 103 L 451 109 L 449 115 L 448 119 L 446 121 L 444 122 L 443 122 L 443 122 L 443 121 L 446 119 L 451 116 L 458 111 L 463 109" stroke="#ffffff" stroke-width="2" stroke-linecap="round" stroke-linejoin="round" fill="none"/><path d="M 472 101 L 472 100 L 482 92 L 492 88 L 499 86 L 500 85" stroke="#ffffff" stroke-width="2" stroke-linecap="round" stroke-linejoin="round" fill="none"/><path d="M 482 86 L 481 86 L 480 89 L 481 94 L 483 99" stroke="#ffffff" stroke-width="2" stroke-linecap="round" stroke-linejoin="round" fill="none"/><path d="M 489 81 L 489 82 L 489 90 L 488 104 L 486 116 L 483 124 L 481 127" stroke="#ffffff" stroke-width="2" stroke-linecap="round" stroke-linejoin="round" fill="none"/><path d="M 517 83 L 516 84 L 511 85 L 511 87 L 509 92 L 506 99 L 500 107 L 496 112 L 496 112" stroke="#ffffff" stroke-width="2" stroke-linecap="round" stroke-linejoin="round" fill="none"/><path d="M 507 100 L 507 98 L 507 97 L 506 99 L 506 105 L 505 113 L 506 119 L 507 121" stroke="#ffffff" stroke-width="2" stroke-linecap="round" stroke-linejoin="round" fill="none"/><path d="M 521 93 L 519 93 L 519 94 L 518 101 L 518 110 L 519 118 L 521 123 L 521 124" stroke="#ffffff" stroke-width="2" stroke-linecap="round" stroke-linejoin="round" fill="none"/><path d="M 516 106 L 518 105 L 521 106 L 526 107 L 529 107" stroke="#ffffff" stroke-width="2" stroke-linecap="round" stroke-linejoin="round" fill="none"/><path d="M 532 85 L 531 85 L 527 88 L 527 91" stroke="#ffffff" stroke-width="2" stroke-linecap="round" stroke-linejoin="round" fill="none"/><path d="M 537 86 L 537 85 L 536 85 L 535 90 L 535 92" stroke="#ffffff" stroke-width="2" stroke-linecap="round" stroke-linejoin="round" fill="none"/><path d="M 549 100 L 549 100 L 548 96 L 547 100 L 545 108 L 544 114 L 543 118" stroke="#ffffff" stroke-width="2" stroke-linecap="round" stroke-linejoin="round" fill="none"/><path d="M 556 103 L 557 103 L 562 106 L 565 112 L 566 117 L 567 119" stroke="#ffffff" stroke-width="2" stroke-linecap="round" stroke-linejoin="round" fill="none"/><path d="M 563 83 L 563 82 L 562 83 L 562 85" stroke="#ffffff" stroke-width="2" stroke-linecap="round" stroke-linejoin="round" fill="none"/><path d="M 569 85 L 569 86 L 569 95" stroke="#ffffff" stroke-width="2" stroke-linecap="round" stroke-linejoin="round" fill="none"/><path d="M 578 103 L 578 103 L 577 101 L 576 103 L 576 105 L 577 106" stroke="#ffffff" stroke-width="2" stroke-linecap="round" stroke-linejoin="round" fill="none"/><path d="M 582 101 L 582 101 L 581 101 L 580 102 L 580 104 L 580 105" stroke="#ffffff" stroke-width="2" stroke-linecap="round" stroke-linejoin="round" fill="none"/><path d="M 591 97 L 593 95 L 594 94 L 594 94 L 594 97 L 594 99 L 594 100 L 594 101" stroke="#ffffff" stroke-width="2" stroke-linecap="round" stroke-linejoin="round" fill="none"/><path d="M 601 91 L 601 92 L 600 93 L 599 95 L 597 97 L 596 101 L 594 104 L 594 105" stroke="#ffffff" stroke-width="2" stroke-linecap="round" stroke-linejoin="round" fill="none"/><path d="M 596 101 L 596 99 L 599 93 L 602 91 L 606 90 L 609 91 L 612 94 L 612 100 L 611 106 L 606 114 L 601 121 L 597 126 L 594 128" stroke="#ffffff" stroke-width="2" stroke-linecap="round" stroke-linejoin="round" fill="none"/><path d="M 153 186 L 153 186 L 154 183 L 159 178 L 164 172 L 168 170 L 169 170" stroke="#ffffff" stroke-width="2" stroke-linecap="round" stroke-linejoin="round" fill="none"/><path d="M 157 192 L 156 193 L 156 190 L 160 186 L 166 181 L 170 178" stroke="#ffffff" stroke-width="2" stroke-linecap="round" stroke-linejoin="round" fill="none"/><path d="M 159 172 L 158 171 L 158 172 L 162 177 L 166 185 L 168 189" stroke="#ffffff" stroke-width="2" stroke-linecap="round" stroke-linejoin="round" fill="none"/><path d="M 158 200 L 157 201 L 157 202 L 157 203 L 162 208 L 166 210" stroke="#ffffff" stroke-width="2" stroke-linecap="round" stroke-linejoin="round" fill="none"/><path d="M 186 181 L 185 181 L 186 176 L 190 173 L 195 171 L 199 170 L 199 169" stroke="#ffffff" stroke-width="2" stroke-linecap="round" stroke-linejoin="round" fill="none"/><path d="M 193 167 L 192 166 L 192 166 L 192 167 L 195 175 L 199 184 L 204 192" stroke="#ffffff" stroke-width="2" stroke-linecap="round" stroke-linejoin="round" fill="none"/><path d="M 206 184 L 204 183 L 203 182 L 202 182 L 200 182 L 198 184 L 195 188 L 192 194 L 190 201 L 191 206 L 195 208 L 202 205 L 203 204" stroke="#ffffff" stroke-width="2" stroke-linecap="round" stroke-linejoin="round" fill="none"/><path d="M 217 192 L 217 189 L 220 187 L 224 186 L 226 190 L 226 197 L 224 200 L 223 203 L 221 206 L 220 207" stroke="#ffffff" stroke-width="2" stroke-linecap="round" stroke-linejoin="round" fill="none"/><path d="M 243 182 L 242 183 L 237 185 L 238 188 L 240 191 L 243 193 L 245 193" stroke="#ffffff" stroke-width="2" stroke-linecap="round" stroke-linejoin="round" fill="none"/><path d="M 249 180 L 249 178 L 252 172 L 259 167 L 265 164 L 268 162" stroke="#ffffff" stroke-width="2" stroke-linecap="round" stroke-linejoin="round" fill="none"/><path d="M 256 161 L 256 160 L 258 163 L 260 175 L 258 190 L 254 203 L 250 211 L 249 212" stroke="#ffffff" stroke-width="2" stroke-linecap="round" stroke-linejoin="round" fill="none"/><path d="M 278 182 L 279 179 L 282 176 L 288 172 L 292 170 L 293 170" stroke="#ffffff" stroke-width="2" stroke-linecap="round" stroke-linejoin="round" fill="none"/><path d="M 287 167 L 285 167 L 282 169 L 281 177 L 281 189 L 281 198 L 282 201" stroke="#ffffff" stroke-width="2" stroke-linecap="round" stroke-linejoin="round" fill="none"/><path d="M 291 186 L 291 184 L 291 181 L 294 179 L 294 179" stroke="#ffffff" stroke-width="2" stroke-linecap="round" stroke-linejoin="round" fill="none"/><path d="M 295 193 L 293 195 L 292 195 L 293 193 L 298 188 L 300 187" stroke="#ffffff" stroke-width="2" stroke-linecap="round" stroke-linejoin="round" fill="none"/><path d="M 327 161 L 326 162 L 324 163 L 323 164 L 323 169 L 323 170" stroke="#ffffff" stroke-width="2" stroke-linecap="round" stroke-linejoin="round" fill="none"/><path d="M 319 175 L 316 176 L 315 177 L 314 183 L 314 186 L 314 188 L 316 188 L 318 186 L 321 183 L 324 181 L 327 181 L 328 185 L 327 192 L 323 198 L 318 202 L 313 204 L 312 204" stroke="#ffffff" stroke-width="2" stroke-linecap="round" stroke-linejoin="round" fill="none"/><path d="M 377 171 L 374 171 L 367 177 L 366 186 L 368 193 L 373 195 L 379 191 L 384 184 L 387 177 L 388 169 L 386 163 L 381 161 L 375 164 L 369 174 L 366 185 L 366 187" stroke="#ffffff" stroke-width="2" stroke-linecap="round" stroke-linejoin="round" fill="none"/><path d="M 405 149 L 404 146 L 404 146 L 401 154 L 398 171 L 396 188 L 397 197 L 400 201" stroke="#ffffff" stroke-width="2" stroke-linecap="round" stroke-linejoin="round" fill="none"/><path d="M 415 170 L 415 169 L 411 166 L 409 166 L 406 169 L 402 173 L 399 178 L 397 184 L 398 187 L 403 187 L 410 184 L 419 179 L 421 178" stroke="#ffffff" stroke-width="2" stroke-linecap="round" stroke-linejoin="round" fill="none"/><path d="M 430 184 L 429 181 L 435 174 L 443 168 L 451 164 L 453 166 L 452 169 L 449 173 L 446 177 L 443 178" stroke="#ffffff" stroke-width="2" stroke-linecap="round" stroke-linejoin="round" fill="none"/><path d="M 433 160 L 433 159 L 432 159 L 432 167 L 434 177 L 435 187 L 436 190" stroke="#ffffff" stroke-width="2" stroke-linecap="round" stroke-linejoin="round" fill="none"/><path d="M 444 155 L 444 154 L 443 151 L 443 158 L 444 167 L 445 171" stroke="#ffffff" stroke-width="2" stroke-linecap="round" stroke-linejoin="round" fill="none"/><path d="M 457 183 L 457 181 L 457 181 L 458 181 L 459 184 L 459 186 L 456 189 L 454 189" stroke="#ffffff" stroke-width="2" stroke-linecap="round" stroke-linejoin="round" fill="none"/><path d="M 477 171 L 477 170 L 480 164 L 487 160 L 495 157 L 500 156 L 501 156" stroke="#ffffff" stroke-width="2" stroke-linecap="round" stroke-linejoin="round" fill="none"/><path d="M 493 152 L 490 151 L 489 156 L 488 167 L 487 180 L 486 188 L 486 191 L 488 192" stroke="#ffffff" stroke-width="2" stroke-linecap="round" stroke-linejoin="round" fill="none"/><path d="M 500 175 L 500 172 L 500 171 L 502 169 L 505 168 L 507 168" stroke="#ffffff" stroke-width="2" stroke-linecap="round" stroke-linejoin="round" fill="none"/><path d="M 504 181 L 503 182 L 500 183 L 507 178 L 515 175" stroke="#ffffff" stroke-width="2" stroke-linecap="round" stroke-linejoin="round" fill="none"/><path d="M 452 184 L 452 184 L 452 183 L 454 182 L 456 180 L 460 178" stroke="#ffffff" stroke-width="2" stroke-linecap="round" stroke-linejoin="round" fill="none"/></svg>
