<svg xmlns="http://www.w3.org/2000/svg" width="674" height="244" viewBox="0 0 674 244"><path d="M 44 14 L 42 14 L 40 13 L 39 14 L 38 18 L 37 26 L 36 34 L 36 39 L 37 41 L 40 40 L 43 39 L 46 36 L 47 34 L 48 31 L 48 29 L 46 28 L 43 28 L 39 30 L 36 34 L 35 36" stroke="#ffffff" stroke-width="2" stroke-linecap="round" stroke-linejoin="round" fill="none"/><path d="M 13 41 L 12 41 L 11 41 L 10 41 L 10 40 L 11 40 L 12 40 L 15 41 L 18 41 L 22 42 L 26 41 L 30 41 L 32 40 L 31 40 L 32 40" stroke="#ffffff" stroke-width="2" stroke-linecap="round" stroke-linejoin="round" fill="none"/><path d="M 79 14 L 78 13 L 77 11 L 77 10 L 76 10 L 73 15 L 69 26 L 61 40 L 53 57 L 47 67 L 44 75 L 43 79" stroke="#ffffff" stroke-width="2" stroke-linecap="round" stroke-linejoin="round" fill="none"/><path d="M 81 41 L 80 41 L 80 40 L 79 40 L 79 43 L 78 50 L 78 57 L 79 62" stroke="#ffffff" stroke-width="2" stroke-linecap="round" stroke-linejoin="round" fill="none"/><path d="M 91 42 L 91 40 L 91 39 L 90 42 L 89 50 L 89 57 L 89 59" stroke="#ffffff" stroke-width="2" stroke-linecap="round" stroke-linejoin="round" fill="none"/><path d="M 164 31 L 164 30 L 163 27 L 161 26 L 159 26 L 155 30 L 151 37 L 149 44 L 150 48 L 153 49 L 160 46" stroke="#ffffff" stroke-width="2" stroke-linecap="round" stroke-linejoin="round" fill="none"/><path d="M 197 18 L 196 17 L 194 18 L 191 23 L 187 34 L 185 44 L 185 49 L 189 50 L 193 47 L 197 42 L 199 38 L 199 35 L 197 34 L 192 36 L 187 40 L 183 46" stroke="#ffffff" stroke-width="2" stroke-linecap="round" stroke-linejoin="round" fill="none"/><path d="M 225 29 L 222 29 L 218 29 L 216 31 L 215 36 L 216 41 L 218 44 L 221 44 L 225 41 L 227 38 L 228 34 L 229 30 L 227 27 L 223 27 L 219 30 L 217 33" stroke="#ffffff" stroke-width="2" stroke-linecap="round" stroke-linejoin="round" fill="none"/><path d="M 73 93 L 72 92 L 71 90 L 71 91 L 71 97 L 73 104 L 75 109 L 77 111" stroke="#ffffff" stroke-width="2" stroke-linecap="round" stroke-linejoin="round" fill="none"/><path d="M 83 89 L 84 88 L 84 90 L 84 96 L 85 103 L 85 104" stroke="#ffffff" stroke-width="2" stroke-linecap="round" stroke-linejoin="round" fill="none"/><path d="M 99 100 L 97 101 L 95 100 L 95 98 L 98 97 L 103 97 L 106 98 L 107 102 L 106 107 L 102 111 L 101 112" stroke="#ffffff" stroke-width="2" stroke-linecap="round" stroke-linejoin="round" fill="none"/><path d="M 121 95 L 120 95 L 119 95 L 118 95 L 121 93 L 125 92 L 130 90 L 133 90" stroke="#ffffff" stroke-width="2" stroke-linecap="round" stroke-linejoin="round" fill="none"/><path d="M 118 105 L 117 106 L 117 105 L 120 103 L 125 101 L 128 99" stroke="#ffffff" stroke-width="2" stroke-linecap="round" stroke-linejoin="round" fill="none"/><path d="M 127 83 L 126 82 L 125 84 L 125 90 L 125 100 L 125 108 L 128 112 L 132 113 L 137 110" stroke="#ffffff" stroke-width="2" stroke-linecap="round" stroke-linejoin="round" fill="none"/><path d="M 149 84 L 148 84 L 146 84 L 146 85 L 147 90 L 149 94" stroke="#ffffff" stroke-width="2" stroke-linecap="round" stroke-linejoin="round" fill="none"/><path d="M 160 91 L 159 91 L 157 90 L 155 90 L 154 90 L 154 91 L 153 94 L 152 99 L 151 103 L 152 106 L 157 106 L 159 105" stroke="#ffffff" stroke-width="2" stroke-linecap="round" stroke-linejoin="round" fill="none"/><path d="M 178 93 L 176 93 L 176 92 L 179 92 L 186 91" stroke="#ffffff" stroke-width="2" stroke-linecap="round" stroke-linejoin="round" fill="none"/><path d="M 212 81 L 210 80 L 208 79 L 207 79 L 205 80 L 203 83 L 200 86 L 200 88 L 200 89 L 204 87 L 207 85 L 210 85 L 211 85 L 211 87 L 210 89 L 210 90 L 210 91" stroke="#ffffff" stroke-width="2" stroke-linecap="round" stroke-linejoin="round" fill="none"/><path d="M 206 90 L 205 90 L 204 91 L 204 94 L 204 99 L 205 104 L 205 107" stroke="#ffffff" stroke-width="2" stroke-linecap="round" stroke-linejoin="round" fill="none"/><path d="M 204 100 L 203 100 L 200 100 L 197 102 L 194 106 L 192 109" stroke="#ffffff" stroke-width="2" stroke-linecap="round" stroke-linejoin="round" fill="none"/><path d="M 206 94 L 206 93" stroke="#ffffff" stroke-width="2" stroke-linecap="round" stroke-linejoin="round" fill="none"/><path d="M 213 87 L 212 88 L 212 87 L 213 85 L 218 83 L 224 79 L 229 76 L 230 73 L 229 72 L 226 72 L 224 73 L 223 75 L 223 78 L 223 82 L 223 85 L 223 86" stroke="#ffffff" stroke-width="2" stroke-linecap="round" stroke-linejoin="round" fill="none"/><path d="M 217 94 L 218 92 L 218 89 L 221 86 L 227 82 L 234 78 L 237 76 L 239 75 L 238 75 L 236 77 L 233 80 L 229 85 L 225 91 L 220 97 L 217 102 L 217 103" stroke="#ffffff" stroke-width="2" stroke-linecap="round" stroke-linejoin="round" fill="none"/><path d="M 227 92 L 226 92 L 225 93 L 224 98 L 224 102 L 224 105" stroke="#ffffff" stroke-width="2" stroke-linecap="round" stroke-linejoin="round" fill="none"/><path d="M 226 96 L 226 95 L 226 93 L 226 90 L 227 89 L 228 89 L 231 90 L 233 92 L 233 95 L 233 98 L 233 101 L 233 102" stroke="#ffffff" stroke-width="2" stroke-linecap="round" stroke-linejoin="round" fill="none"/><path d="M 230 98 L 230 97 L 228 96 L 228 94 L 230 93 L 232 93" stroke="#ffffff" stroke-width="2" stroke-linecap="round" stroke-linejoin="round" fill="none"/><path d="M 228 105 L 226 107 L 224 108 L 225 107 L 230 103 L 234 100" stroke="#ffffff" stroke-width="2" stroke-linecap="round" stroke-linejoin="round" fill="none"/><path d="M 263 81 L 262 81 L 262 79 L 267 74 L 273 69 L 278 66 L 282 66" stroke="#ffffff" stroke-width="2" stroke-linecap="round" stroke-linejoin="round" fill="none"/><path d="M 274 64 L 274 65 L 273 65 L 273 66 L 273 71 L 272 79 L 271 86 L 270 89 L 270 88 L 272 85 L 275 83 L 278 84 L 280 88 L 279 94 L 276 98 L 271 102 L 269 103" stroke="#ffffff" stroke-width="2" stroke-linecap="round" stroke-linejoin="round" fill="none"/><path d="M 294 83 L 293 83 L 293 81 L 296 80 L 300 78 L 302 78 L 302 77 L 299 77 L 296 77 L 295 78 L 294 81 L 294 86 L 294 91 L 294 95 L 293 98 L 291 98 L 290 98 L 290 96 L 292 94 L 296 90 L 298 89" stroke="#ffffff" stroke-width="2" stroke-linecap="round" stroke-linejoin="round" fill="none"/><path d="M 315 87 L 312 87 L 311 87 L 313 86 L 316 86 L 319 86 L 320 88 L 319 90 L 316 92 L 315 92" stroke="#ffffff" stroke-width="2" stroke-linecap="round" stroke-linejoin="round" fill="none"/><path d="M 331 71 L 329 71 L 328 72 L 328 74 L 330 78 L 333 80" stroke="#ffffff" stroke-width="2" stroke-linecap="round" stroke-linejoin="round" fill="none"/><path d="M 340 77 L 340 76 L 338 75 L 337 75 L 336 74 L 335 75 L 334 77 L 332 81 L 330 86 L 329 90 L 331 92 L 336 91 L 344 87" stroke="#ffffff" stroke-width="2" stroke-linecap="round" stroke-linejoin="round" fill="none"/><path d="M 366 65 L 368 64 L 368 63 L 367 63 L 366 66 L 364 71 L 363 76 L 363 80" stroke="#ffffff" stroke-width="2" stroke-linecap="round" stroke-linejoin="round" fill="none"/><path d="M 368 74 L 368 72 L 368 69 L 369 66 L 374 64 L 379 64" stroke="#ffffff" stroke-width="2" stroke-linecap="round" stroke-linejoin="round" fill="none"/><path d="M 365 88 L 364 88 L 363 89 L 363 87 L 368 83 L 374 79 L 379 75 L 382 71" stroke="#ffffff" stroke-width="2" stroke-linecap="round" stroke-linejoin="round" fill="none"/><path d="M 376 71 L 374 70 L 374 71 L 373 77 L 372 86 L 369 95 L 366 100 L 365 101" stroke="#ffffff" stroke-width="2" stroke-linecap="round" stroke-linejoin="round" fill="none"/><path d="M 370 85 L 371 86 L 375 89 L 381 91 L 385 92" stroke="#ffffff" stroke-width="2" stroke-linecap="round" stroke-linejoin="round" fill="none"/><path d="M 393 67 L 391 66 L 391 64 L 395 62 L 399 61 L 401 61" stroke="#ffffff" stroke-width="2" stroke-linecap="round" stroke-linejoin="round" fill="none"/><path d="M 394 69 L 391 70 L 389 72 L 388 75 L 387 79 L 389 83" stroke="#ffffff" stroke-width="2" stroke-linecap="round" stroke-linejoin="round" fill="none"/><path d="M 392 78 L 392 76 L 392 73 L 392 72 L 394 71 L 396 72 L 398 74 L 398 76 L 397 77" stroke="#ffffff" stroke-width="2" stroke-linecap="round" stroke-linejoin="round" fill="none"/><path d="M 389 84 L 388 84 L 387 84 L 387 83 L 390 81 L 395 78 L 396 77" stroke="#ffffff" stroke-width="2" stroke-linecap="round" stroke-linejoin="round" fill="none"/><path d="M 402 75 L 401 75 L 399 76 L 397 79 L 396 82 L 395 84" stroke="#ffffff" stroke-width="2" stroke-linecap="round" stroke-linejoin="round" fill="none"/><path d="M 399 81 L 398 81 L 397 81 L 396 83 L 394 87 L 391 92 L 389 94" stroke="#ffffff" stroke-width="2" stroke-linecap="round" stroke-linejoin="round" fill="none"/><path d="M 384 96 L 383 96 L 384 96 L 388 94 L 396 92 L 404 90 L 405 90" stroke="#ffffff" stroke-width="2" stroke-linecap="round" stroke-linejoin="round" fill="none"/><path d="M 416 82 L 415 81 L 415 79 L 418 77 L 423 75 L 428 74 L 431 76 L 431 79 L 431 82 L 429 84 L 428 85 L 427 85 L 426 84 L 426 79 L 426 74 L 426 70 L 426 68 L 426 69 L 426 73 L 424 80 L 422 86 L 421 89 L 421 90" stroke="#ffffff" stroke-width="2" stroke-linecap="round" stroke-linejoin="round" fill="none"/><path d="M 437 65 L 439 65 L 442 68 L 447 74 L 451 79" stroke="#ffffff" stroke-width="2" stroke-linecap="round" stroke-linejoin="round" fill="none"/><path d="M 462 85 L 461 83 L 464 80 L 470 78 L 476 77 L 478 78 L 478 82 L 477 86 L 475 88 L 474 89 L 473 87 L 472 84 L 472 79 L 473 74 L 473 70 L 474 68 L 473 71 L 471 78 L 468 86 L 466 93 L 466 96" stroke="#ffffff" stroke-width="2" stroke-linecap="round" stroke-linejoin="round" fill="none"/><path d="M 483 63 L 484 64 L 486 68 L 489 73" stroke="#ffffff" stroke-width="2" stroke-linecap="round" stroke-linejoin="round" fill="none"/><path d="M 493 91 L 493 90 L 492 89 L 492 88 L 495 88 L 498 89 L 499 91 L 499 94 L 496 98 L 492 100" stroke="#ffffff" stroke-width="2" stroke-linecap="round" stroke-linejoin="round" fill="none"/><path d="M 512 82 L 509 83 L 506 81 L 509 78 L 515 74 L 520 73 L 524 73 L 525 73" stroke="#ffffff" stroke-width="2" stroke-linecap="round" stroke-linejoin="round" fill="none"/><path d="M 521 66 L 520 66 L 518 65 L 517 70 L 516 80 L 516 90 L 516 96 L 516 99" stroke="#ffffff" stroke-width="2" stroke-linecap="round" stroke-linejoin="round" fill="none"/><path d="M 522 88 L 522 87 L 522 86 L 523 84 L 525 83 L 527 83" stroke="#ffffff" stroke-width="2" stroke-linecap="round" stroke-linejoin="round" fill="none"/><path d="M 526 92 L 525 92 L 523 94 L 522 95 L 526 94 L 531 92" stroke="#ffffff" stroke-width="2" stroke-linecap="round" stroke-linejoin="round" fill="none"/><path d="M 546 85 L 544 85 L 545 84 L 548 82 L 554 79 L 558 77 L 561 77 L 562 78 L 562 81 L 561 84 L 559 86 L 558 87 L 557 86 L 556 83 L 555 79 L 554 73 L 554 68 L 554 66 L 555 67 L 555 71 L 554 79 L 552 88 L 549 95 L 548 100" stroke="#ffffff" stroke-width="2" stroke-linecap="round" stroke-linejoin="round" fill="none"/><path d="M 575 82 L 574 82 L 572 81 L 571 80 L 576 77 L 583 74 L 590 72 L 595 72" stroke="#ffffff" stroke-width="2" stroke-linecap="round" stroke-linejoin="round" fill="none"/><path d="M 585 67 L 585 66 L 583 67 L 581 74 L 580 86 L 578 96 L 577 104 L 576 105" stroke="#ffffff" stroke-width="2" stroke-linecap="round" stroke-linejoin="round" fill="none"/><path d="M 88 129 L 86 127 L 85 126 L 85 127 L 87 131 L 89 135 L 91 139" stroke="#ffffff" stroke-width="2" stroke-linecap="round" stroke-linejoin="round" fill="none"/><path d="M 84 145 L 83 145 L 81 143 L 83 140 L 88 138 L 95 137 L 101 136 L 103 136 L 103 137 L 101 138 L 97 141 L 93 146 L 88 152 L 83 159 L 81 163 L 80 165" stroke="#ffffff" stroke-width="2" stroke-linecap="round" stroke-linejoin="round" fill="none"/><path d="M 98 145 L 95 144 L 93 144 L 93 146 L 93 152 L 93 161 L 93 167 L 93 171" stroke="#ffffff" stroke-width="2" stroke-linecap="round" stroke-linejoin="round" fill="none"/><path d="M 95 151 L 95 150 L 94 149 L 96 150 L 99 155 L 100 156" stroke="#ffffff" stroke-width="2" stroke-linecap="round" stroke-linejoin="round" fill="none"/><path d="M 117 159 L 116 159 L 114 158 L 113 157 L 116 156 L 121 155 L 124 155" stroke="#ffffff" stroke-width="2" stroke-linecap="round" stroke-linejoin="round" fill="none"/><path d="M 143 154 L 142 154 L 141 153 L 141 152 L 144 149 L 148 146 L 152 145 L 154 145 L 155 145 L 156 146 L 156 147 L 155 151 L 153 156 L 151 160 L 149 162 L 148 163" stroke="#ffffff" stroke-width="2" stroke-linecap="round" stroke-linejoin="round" fill="none"/><path d="M 162 141 L 160 140 L 158 137 L 158 133 L 162 128 L 166 126 L 168 127 L 168 129 L 165 133 L 162 136 L 161 136" stroke="#ffffff" stroke-width="2" stroke-linecap="round" stroke-linejoin="round" fill="none"/><path d="M 179 147 L 178 146 L 177 145 L 180 142 L 186 140 L 191 140 L 193 140" stroke="#ffffff" stroke-width="2" stroke-linecap="round" stroke-linejoin="round" fill="none"/><path d="M 175 157 L 174 157 L 173 156 L 175 153 L 181 151 L 187 148" stroke="#ffffff" stroke-width="2" stroke-linecap="round" stroke-linejoin="round" fill="none"/><path d="M 187 131 L 186 131 L 184 131 L 182 136 L 181 144 L 181 153 L 181 161 L 183 165 L 188 166 L 193 163 L 197 156" stroke="#ffffff" stroke-width="2" stroke-linecap="round" stroke-linejoin="round" fill="none"/><path d="M 227 143 L 226 143 L 225 141 L 227 136 L 233 131 L 237 129 L 239 129" stroke="#ffffff" stroke-width="2" stroke-linecap="round" stroke-linejoin="round" fill="none"/><path d="M 234 125 L 233 125 L 232 125 L 231 126 L 231 131 L 232 142 L 234 150" stroke="#ffffff" stroke-width="2" stroke-linecap="round" stroke-linejoin="round" fill="none"/><path d="M 242 134 L 240 135 L 239 137 L 237 142 L 236 149 L 233 155 L 231 159 L 228 160 L 226 158 L 226 155 L 228 150 L 231 146 L 237 142 L 242 142 L 245 144 L 247 149 L 247 154 L 246 156" stroke="#ffffff" stroke-width="2" stroke-linecap="round" stroke-linejoin="round" fill="none"/><path d="M 261 132 L 261 133 L 260 133 L 259 136 L 259 142 L 259 149 L 259 152 L 260 149 L 261 146 L 263 143 L 265 142 L 267 143 L 268 145 L 271 146 L 274 146" stroke="#ffffff" stroke-width="2" stroke-linecap="round" stroke-linejoin="round" fill="none"/><path d="M 289 130 L 288 130 L 285 130 L 285 129 L 289 128 L 294 126 L 297 125 L 298 125" stroke="#ffffff" stroke-width="2" stroke-linecap="round" stroke-linejoin="round" fill="none"/><path d="M 284 138 L 283 138 L 285 136 L 290 134 L 296 132 L 300 130 L 301 129" stroke="#ffffff" stroke-width="2" stroke-linecap="round" stroke-linejoin="round" fill="none"/><path d="M 295 121 L 292 121 L 291 121 L 290 124 L 291 130 L 291 138 L 291 145 L 290 149 L 288 150 L 286 149 L 285 148 L 285 146 L 285 145 L 289 144 L 294 143 L 302 140 L 303 140" stroke="#ffffff" stroke-width="2" stroke-linecap="round" stroke-linejoin="round" fill="none"/><path d="M 326 124 L 324 124 L 322 124 L 321 129 L 320 136 L 320 141 L 320 143" stroke="#ffffff" stroke-width="2" stroke-linecap="round" stroke-linejoin="round" fill="none"/><path d="M 322 130 L 322 129 L 321 126 L 321 123 L 322 120 L 327 118 L 331 117 L 333 117 L 333 119 L 333 123 L 332 128 L 331 133 L 331 136" stroke="#ffffff" stroke-width="2" stroke-linecap="round" stroke-linejoin="round" fill="none"/><path d="M 325 132 L 322 130 L 322 129 L 325 128 L 328 128 L 329 128" stroke="#ffffff" stroke-width="2" stroke-linecap="round" stroke-linejoin="round" fill="none"/><path d="M 322 139 L 319 140 L 319 139 L 322 137 L 327 133 L 330 131 L 331 131 L 329 134 L 325 140 L 321 147 L 318 154 L 317 156 L 319 153 L 319 152" stroke="#ffffff" stroke-width="2" stroke-linecap="round" stroke-linejoin="round" fill="none"/><path d="M 326 135 L 328 133 L 329 133 L 329 137 L 331 144 L 333 150 L 337 152 L 345 147 L 351 140" stroke="#ffffff" stroke-width="2" stroke-linecap="round" stroke-linejoin="round" fill="none"/><path d="M 364 126 L 364 124 L 367 120 L 372 116 L 376 114 L 379 115" stroke="#ffffff" stroke-width="2" stroke-linecap="round" stroke-linejoin="round" fill="none"/><path d="M 368 133 L 367 132 L 367 131 L 369 129 L 373 128 L 375 129 L 375 135 L 372 141 L 369 146 L 368 148 L 367 147 L 369 144 L 371 140 L 373 138 L 375 138 L 377 139 L 379 141 L 382 141 L 387 138 L 389 136" stroke="#ffffff" stroke-width="2" stroke-linecap="round" stroke-linejoin="round" fill="none"/><path d="M 399 118 L 395 119 L 393 122 L 391 130 L 391 138 L 391 141 L 391 138 L 393 135 L 395 133 L 397 133 L 399 134 L 401 135 L 404 134 L 407 132" stroke="#ffffff" stroke-width="2" stroke-linecap="round" stroke-linejoin="round" fill="none"/><path d="M 418 136 L 417 136 L 415 135 L 416 132 L 422 129 L 428 126 L 432 125 L 432 127 L 431 131 L 429 134 L 428 136 L 427 137 L 426 136 L 426 132 L 425 127 L 425 122 L 426 118 L 425 123 L 423 130 L 420 138 L 419 143 L 419 144" stroke="#ffffff" stroke-width="2" stroke-linecap="round" stroke-linejoin="round" fill="none"/><path d="M 437 114 L 438 111 L 438 110 L 440 111 L 444 116 L 446 119" stroke="#ffffff" stroke-width="2" stroke-linecap="round" stroke-linejoin="round" fill="none"/><path d="M 444 138 L 444 137 L 442 135 L 443 133 L 447 133 L 449 135 L 449 139 L 447 143 L 444 145 L 443 146" stroke="#ffffff" stroke-width="2" stroke-linecap="round" stroke-linejoin="round" fill="none"/><path d="M 464 136 L 462 135 L 460 133 L 462 130 L 468 126 L 476 124 L 482 122 L 485 121" stroke="#ffffff" stroke-width="2" stroke-linecap="round" stroke-linejoin="round" fill="none"/><path d="M 476 117 L 474 117 L 473 118 L 472 123 L 472 133 L 471 142 L 471 147 L 471 149" stroke="#ffffff" stroke-width="2" stroke-linecap="round" stroke-linejoin="round" fill="none"/><path d="M 482 136 L 481 135 L 479 132 L 481 130 L 485 129 L 488 129" stroke="#ffffff" stroke-width="2" stroke-linecap="round" stroke-linejoin="round" fill="none"/><path d="M 483 143 L 479 144 L 481 144 L 487 142 L 492 140" stroke="#ffffff" stroke-width="2" stroke-linecap="round" stroke-linejoin="round" fill="none"/><path d="M 509 132 L 508 132 L 506 131 L 504 132 L 504 135 L 506 138 L 508 140 L 509 141" stroke="#ffffff" stroke-width="2" stroke-linecap="round" stroke-linejoin="round" fill="none"/><path d="M 517 131 L 517 129 L 517 126 L 521 124 L 528 122 L 535 120 L 536 120" stroke="#ffffff" stroke-width="2" stroke-linecap="round" stroke-linejoin="round" fill="none"/><path d="M 529 115 L 529 114 L 528 113 L 527 114 L 527 120 L 526 131 L 523 144 L 519 152 L 517 156 L 516 157" stroke="#ffffff" stroke-width="2" stroke-linecap="round" stroke-linejoin="round" fill="none"/><path d="M 552 124 L 551 123 L 550 121 L 550 122 L 551 126 L 552 130" stroke="#ffffff" stroke-width="2" stroke-linecap="round" stroke-linejoin="round" fill="none"/><path d="M 561 129 L 559 129 L 556 129 L 554 128 L 552 131 L 550 136 L 550 141 L 552 144 L 557 144 L 563 141" stroke="#ffffff" stroke-width="2" stroke-linecap="round" stroke-linejoin="round" fill="none"/><path d="M 570 119 L 568 120 L 563 122 L 562 124 L 563 125" stroke="#ffffff" stroke-width="2" stroke-linecap="round" stroke-linejoin="round" fill="none"/><path d="M 577 115 L 575 115 L 572 117 L 570 121 L 570 124" stroke="#ffffff" stroke-width="2" stroke-linecap="round" stroke-linejoin="round" fill="none"/><path d="M 595 130 L 594 130 L 591 130 L 589 131 L 586 135 L 586 139 L 588 141 L 592 142 L 597 140 L 600 137 L 601 134 L 601 130 L 599 127 L 595 126 L 591 127 L 588 131 L 588 133" stroke="#ffffff" stroke-width="2" stroke-linecap="round" stroke-linejoin="round" fill="none"/><path d="M 626 111 L 624 109 L 622 107 L 622 108 L 620 114 L 617 126 L 615 138 L 613 145 L 614 148" stroke="#ffffff" stroke-width="2" stroke-linecap="round" stroke-linejoin="round" fill="none"/><path d="M 631 127 L 631 126 L 630 125 L 629 124 L 627 124 L 625 124 L 622 125 L 619 127 L 617 129 L 615 130 L 615 132 L 616 134 L 619 135 L 622 136 L 628 136 L 629 136" stroke="#ffffff" stroke-width="2" stroke-linecap="round" stroke-linejoin="round" fill="none"/><path d="M 657 127 L 655 126 L 652 125 L 653 126 L 653 129 L 653 133 L 653 135" stroke="#ffffff" stroke-width="2" stroke-linecap="round" stroke-linejoin="round" fill="none"/><path d="M 664 135 L 662 134 L 660 133 L 659 132 L 658 132 L 657 133 L 654 135 L 652 139 L 650 142 L 649 146 L 650 149 L 654 150 L 660 149 L 664 148" stroke="#ffffff" stroke-width="2" stroke-linecap="round" stroke-linejoin="round" fill="none"/><path d="M 62 197 L 62 198 L 59 199 L 56 204 L 52 211 L 51 216 L 51 218" stroke="#ffffff" stroke-width="2" stroke-linecap="round" stroke-linejoin="round" fill="none"/><path d="M 60 200 L 60 199 L 59 197 L 59 196 L 61 196 L 64 198 L 68 203 L 69 211 L 69 219 L 65 227 L 60 232 L 57 234" stroke="#ffffff" stroke-width="2" stroke-linecap="round" stroke-linejoin="round" fill="none"/><path d="M 54 220 L 53 219 L 52 217 L 52 216 L 54 216 L 59 216 L 64 217" stroke="#ffffff" stroke-width="2" stroke-linecap="round" stroke-linejoin="round" fill="none"/><path d="M 107 199 L 107 198 L 107 197 L 107 196 L 105 196 L 102 200 L 97 206 L 92 213 L 88 218 L 88 219" stroke="#ffffff" stroke-width="2" stroke-linecap="round" stroke-linejoin="round" fill="none"/><path d="M 97 209 L 97 207 L 97 205 L 97 204 L 98 207 L 98 214 L 99 222 L 99 224" stroke="#ffffff" stroke-width="2" stroke-linecap="round" stroke-linejoin="round" fill="none"/><path d="M 133 195 L 133 194 L 132 193 L 131 194 L 130 199 L 130 204 L 131 207" stroke="#ffffff" stroke-width="2" stroke-linecap="round" stroke-linejoin="round" fill="none"/><path d="M 137 194 L 138 193 L 138 191 L 138 197 L 136 207 L 133 217 L 131 224 L 129 228" stroke="#ffffff" stroke-width="2" stroke-linecap="round" stroke-linejoin="round" fill="none"/><path d="M 146 190 L 146 189 L 146 186 L 146 185 L 147 184 L 149 185 L 150 186 L 151 187" stroke="#ffffff" stroke-width="2" stroke-linecap="round" stroke-linejoin="round" fill="none"/><path d="M 148 191 L 149 191 L 149 190 L 149 189 L 149 187 L 151 187" stroke="#ffffff" stroke-width="2" stroke-linecap="round" stroke-linejoin="round" fill="none"/><path d="M 149 192 L 149 193 L 148 193 L 148 192 L 150 191 L 150 190" stroke="#ffffff" stroke-width="2" stroke-linecap="round" stroke-linejoin="round" fill="none"/><path d="M 147 194 L 147 195 L 144 196 L 142 198 L 141 202 L 141 208 L 141 210" stroke="#ffffff" stroke-width="2" stroke-linecap="round" stroke-linejoin="round" fill="none"/><path d="M 147 198 L 147 195 L 148 192 L 150 190 L 153 190 L 156 190 L 157 193 L 157 194" stroke="#ffffff" stroke-width="2" stroke-linecap="round" stroke-linejoin="round" fill="none"/><path d="M 149 203 L 148 203 L 147 204 L 146 209 L 145 215 L 145 218 L 145 219 L 145 217 L 145 213 L 147 209 L 149 204 L 151 200 L 153 198 L 154 199 L 155 201 L 155 204 L 155 206 L 153 208 L 152 208 L 150 206 L 150 202 L 150 198 L 150 196 L 151 200 L 152 208 L 151 217 L 149 227 L 148 231" stroke="#ffffff" stroke-width="2" stroke-linecap="round" stroke-linejoin="round" fill="none"/><path d="M 187 187 L 185 187 L 184 187 L 184 188 L 184 191 L 184 192" stroke="#ffffff" stroke-width="2" stroke-linecap="round" stroke-linejoin="round" fill="none"/><path d="M 181 197 L 179 198 L 176 199 L 175 202 L 174 206 L 174 210 L 176 211 L 178 211 L 181 208 L 184 207 L 187 207 L 188 210 L 188 213 L 184 217 L 178 220 L 172 222 L 170 223" stroke="#ffffff" stroke-width="2" stroke-linecap="round" stroke-linejoin="round" fill="none"/><path d="M 209 192 L 208 192 L 207 193 L 206 195 L 204 201 L 203 208 L 202 213 L 202 214 L 203 213 L 204 209 L 206 206 L 208 204 L 210 203 L 211 205 L 212 208 L 212 210 L 214 211 L 216 210" stroke="#ffffff" stroke-width="2" stroke-linecap="round" stroke-linejoin="round" fill="none"/><path d="M 230 207 L 228 207 L 227 206 L 229 204 L 234 202 L 238 202 L 241 203 L 242 206 L 241 209 L 240 211 L 238 211 L 237 210 L 236 206 L 236 200 L 237 194 L 237 191 L 237 194 L 236 200 L 233 209 L 231 216 L 231 219 L 231 220" stroke="#ffffff" stroke-width="2" stroke-linecap="round" stroke-linejoin="round" fill="none"/><path d="M 250 183 L 249 182 L 251 187 L 254 196" stroke="#ffffff" stroke-width="2" stroke-linecap="round" stroke-linejoin="round" fill="none"/><path d="M 255 211 L 256 210 L 256 209 L 257 209 L 259 210 L 260 212 L 260 215 L 259 217 L 255 219" stroke="#ffffff" stroke-width="2" stroke-linecap="round" stroke-linejoin="round" fill="none"/><path d="M 278 201 L 277 201 L 275 200 L 275 198 L 278 195 L 284 192 L 290 189 L 294 188 L 295 188" stroke="#ffffff" stroke-width="2" stroke-linecap="round" stroke-linejoin="round" fill="none"/><path d="M 288 185 L 286 184 L 286 183 L 285 183 L 285 185 L 285 193 L 283 204 L 282 214 L 282 218 L 282 219" stroke="#ffffff" stroke-width="2" stroke-linecap="round" stroke-linejoin="round" fill="none"/><path d="M 293 206 L 293 205 L 292 203 L 292 201 L 294 199 L 298 197 L 302 196" stroke="#ffffff" stroke-width="2" stroke-linecap="round" stroke-linejoin="round" fill="none"/><path d="M 296 210 L 293 211 L 292 212 L 298 209 L 304 206 L 306 205" stroke="#ffffff" stroke-width="2" stroke-linecap="round" stroke-linejoin="round" fill="none"/><path d="M 403 188 L 402 188 L 400 188 L 401 187 L 405 185 L 414 181 L 424 176 L 431 174 L 432 174" stroke="#ffffff" stroke-width="2" stroke-linecap="round" stroke-linejoin="round" fill="none"/><path d="M 415 173 L 415 174 L 415 176 L 415 181 L 415 187 L 416 191" stroke="#ffffff" stroke-width="2" stroke-linecap="round" stroke-linejoin="round" fill="none"/><path d="M 425 169 L 424 169 L 423 169 L 422 171 L 421 180 L 419 193 L 415 205 L 412 213 L 410 216" stroke="#ffffff" stroke-width="2" stroke-linecap="round" stroke-linejoin="round" fill="none"/><path d="M 447 176 L 446 176 L 444 176 L 442 178 L 439 182 L 434 189 L 429 196 L 427 199" stroke="#ffffff" stroke-width="2" stroke-linecap="round" stroke-linejoin="round" fill="none"/><path d="M 436 188 L 436 187 L 436 185 L 435 186 L 434 192 L 432 202 L 431 212 L 431 218 L 433 219" stroke="#ffffff" stroke-width="2" stroke-linecap="round" stroke-linejoin="round" fill="none"/><path d="M 454 181 L 452 182 L 450 186 L 447 195 L 447 203 L 447 209 L 448 212" stroke="#ffffff" stroke-width="2" stroke-linecap="round" stroke-linejoin="round" fill="none"/><path d="M 447 200 L 451 199 L 458 198 L 463 196" stroke="#ffffff" stroke-width="2" stroke-linecap="round" stroke-linejoin="round" fill="none"/><path d="M 458 184 L 456 185 L 455 186 L 455 187 L 456 188" stroke="#ffffff" stroke-width="2" stroke-linecap="round" stroke-linejoin="round" fill="none"/><path d="M 465 178 L 465 177 L 464 176 L 463 181 L 462 188" stroke="#ffffff" stroke-width="2" stroke-linecap="round" stroke-linejoin="round" fill="none"/><path d="M 473 194 L 474 192 L 478 188 L 486 184 L 493 180 L 497 179 L 496 180" stroke="#ffffff" stroke-width="2" stroke-linecap="round" stroke-linejoin="round" fill="none"/><path d="M 487 184 L 486 184 L 484 184 L 483 185 L 482 186 L 482 190 L 481 194 L 481 198 L 482 200" stroke="#ffffff" stroke-width="2" stroke-linecap="round" stroke-linejoin="round" fill="none"/><path d="M 485 194 L 484 193 L 483 192 L 485 191 L 486 191" stroke="#ffffff" stroke-width="2" stroke-linecap="round" stroke-linejoin="round" fill="none"/><path d="M 485 197 L 483 196 L 482 195 L 482 194 L 486 192 L 489 192" stroke="#ffffff" stroke-width="2" stroke-linecap="round" stroke-linejoin="round" fill="none"/><path d="M 474 214 L 472 215 L 470 215 L 472 213 L 478 208 L 485 202 L 487 200" stroke="#ffffff" stroke-width="2" stroke-linecap="round" stroke-linejoin="round" fill="none"/><path d="M 490 186 L 489 186 L 488 185 L 488 186 L 488 191 L 489 200 L 488 210 L 487 217 L 487 220" stroke="#ffffff" stroke-width="2" stroke-linecap="round" stroke-linejoin="round" fill="none"/><path d="M 515 186 L 515 185 L 513 184 L 512 187 L 512 194 L 513 200 L 514 204" stroke="#ffffff" stroke-width="2" stroke-linecap="round" stroke-linejoin="round" fill="none"/><path d="M 515 193 L 515 192 L 515 191 L 518 190 L 523 189 L 526 189" stroke="#ffffff" stroke-width="2" stroke-linecap="round" stroke-linejoin="round" fill="none"/><path d="M 499 209 L 497 210 L 494 210 L 495 210 L 501 209 L 513 205 L 525 202 L 533 201 L 536 201" stroke="#ffffff" stroke-width="2" stroke-linecap="round" stroke-linejoin="round" fill="none"/></svg>
