<svg xmlns="http://www.w3.org/2000/svg" width="548" height="163" viewBox="0 0 548 163"><path d="M 11 34 L 11 34 L 10 29 L 10 28 L 10 30 L 10 37 L 10 47 L 11 60 L 13 68 L 17 70 L 20 71" stroke="#ffffff" stroke-width="2" stroke-linecap="round" stroke-linejoin="round" fill="none"/><path d="M 36 32 L 35 31 L 32 29 L 31 31 L 30 33 L 29 35 L 28 37 L 26 41 L 25 44 L 24 47 L 24 48 L 28 46 L 33 42 L 37 38 L 41 36 L 44 34 L 46 34" stroke="#ffffff" stroke-width="2" stroke-linecap="round" stroke-linejoin="round" fill="none"/><path d="M 37 20 L 36 20 L 34 18 L 34 24 L 35 34 L 35 46 L 37 57 L 39 62" stroke="#ffffff" stroke-width="2" stroke-linecap="round" stroke-linejoin="round" fill="none"/><path d="M 78 10 L 77 10 L 75 11 L 72 20 L 67 39 L 59 60 L 52 77 L 47 91 L 43 102" stroke="#ffffff" stroke-width="2" stroke-linecap="round" stroke-linejoin="round" fill="none"/><path d="M 86 70 L 85 68 L 87 64 L 92 62 L 95 62 L 97 65 L 96 69 L 93 74 L 89 79 L 85 82 L 82 82 L 82 82 L 84 82 L 88 83 L 95 82 L 102 80" stroke="#ffffff" stroke-width="2" stroke-linecap="round" stroke-linejoin="round" fill="none"/><path d="M 201 29 L 200 28 L 193 27 L 189 33 L 186 41 L 184 50 L 184 57 L 187 58 L 194 56 L 205 50 L 212 43" stroke="#ffffff" stroke-width="2" stroke-linecap="round" stroke-linejoin="round" fill="none"/><path d="M 232 16 L 230 16 L 226 21 L 224 33 L 222 48 L 223 55 L 227 56 L 232 54 L 237 48 L 239 42 L 240 37 L 239 35 L 235 36 L 229 41 L 223 49 L 222 55" stroke="#ffffff" stroke-width="2" stroke-linecap="round" stroke-linejoin="round" fill="none"/><path d="M 269 25 L 267 25 L 261 30 L 261 36 L 262 40 L 265 41 L 268 40 L 272 37 L 274 33 L 275 29 L 272 26 L 267 26 L 261 30 L 259 33" stroke="#ffffff" stroke-width="2" stroke-linecap="round" stroke-linejoin="round" fill="none"/><path d="M 123 111 L 122 111 L 118 110 L 115 113 L 112 120 L 107 129 L 105 134 L 105 136 L 109 135 L 116 131 L 124 126 L 130 122" stroke="#ffffff" stroke-width="2" stroke-linecap="round" stroke-linejoin="round" fill="none"/><path d="M 123 110 L 120 109 L 120 114 L 120 126 L 120 139 L 120 150 L 121 153" stroke="#ffffff" stroke-width="2" stroke-linecap="round" stroke-linejoin="round" fill="none"/><path d="M 134 140 L 132 140 L 134 142 L 134 143" stroke="#ffffff" stroke-width="2" stroke-linecap="round" stroke-linejoin="round" fill="none"/><path d="M 152 111 L 149 111 L 147 119 L 147 124 L 147 127 L 150 129 L 155 129 L 159 129 L 161 130 L 160 133 L 156 138 L 151 142 L 147 144 L 147 144" stroke="#ffffff" stroke-width="2" stroke-linecap="round" stroke-linejoin="round" fill="none"/><path d="M 145 117 L 145 116 L 154 111 L 161 110" stroke="#ffffff" stroke-width="2" stroke-linecap="round" stroke-linejoin="round" fill="none"/><path d="M 193 129 L 192 124 L 195 121 L 200 120 L 205 120 L 210 121 L 212 120" stroke="#ffffff" stroke-width="2" stroke-linecap="round" stroke-linejoin="round" fill="none"/><path d="M 240 107 L 239 106 L 239 107 L 237 119 L 234 134 L 233 143 L 233 147" stroke="#ffffff" stroke-width="2" stroke-linecap="round" stroke-linejoin="round" fill="none"/><path d="M 249 129 L 248 130 L 248 133 L 248 134" stroke="#ffffff" stroke-width="2" stroke-linecap="round" stroke-linejoin="round" fill="none"/><path d="M 269 102 L 266 102 L 262 107 L 261 113 L 262 117 L 265 120 L 269 121 L 273 122 L 275 123 L 274 125 L 272 128 L 269 130 L 265 131 L 260 131" stroke="#ffffff" stroke-width="2" stroke-linecap="round" stroke-linejoin="round" fill="none"/><path d="M 263 110 L 265 108 L 280 110 L 281 110" stroke="#ffffff" stroke-width="2" stroke-linecap="round" stroke-linejoin="round" fill="none"/><path d="M 344 105 L 345 99 L 351 97 L 357 96 L 360 96 L 361 98" stroke="#ffffff" stroke-width="2" stroke-linecap="round" stroke-linejoin="round" fill="none"/><path d="M 344 113 L 342 113 L 344 112 L 350 108 L 356 105 L 360 103" stroke="#ffffff" stroke-width="2" stroke-linecap="round" stroke-linejoin="round" fill="none"/><path d="M 349 92 L 348 92 L 346 91 L 346 90 L 349 96 L 353 105 L 355 114 L 355 122" stroke="#ffffff" stroke-width="2" stroke-linecap="round" stroke-linejoin="round" fill="none"/><path d="M 342 127 L 340 127 L 340 129 L 344 133 L 347 137 L 350 139 L 351 139" stroke="#ffffff" stroke-width="2" stroke-linecap="round" stroke-linejoin="round" fill="none"/><path d="M 377 108 L 376 108 L 376 105 L 380 105 L 383 105 L 385 105" stroke="#ffffff" stroke-width="2" stroke-linecap="round" stroke-linejoin="round" fill="none"/><path d="M 375 116 L 371 119 L 370 120 L 372 121 L 377 120 L 382 117 L 387 113 L 388 112" stroke="#ffffff" stroke-width="2" stroke-linecap="round" stroke-linejoin="round" fill="none"/><path d="M 383 94 L 381 91 L 381 95 L 381 102 L 381 113 L 380 124 L 380 131 L 382 134 L 387 133 L 389 131" stroke="#ffffff" stroke-width="2" stroke-linecap="round" stroke-linejoin="round" fill="none"/><path d="M 403 108 L 403 103 L 408 101 L 413 99" stroke="#ffffff" stroke-width="2" stroke-linecap="round" stroke-linejoin="round" fill="none"/><path d="M 412 95 L 411 95 L 408 98 L 408 105 L 407 113 L 407 117 L 407 118 L 407 117 L 410 114 L 413 111 L 418 110 L 420 112 L 418 119 L 412 126 L 406 132 L 403 134" stroke="#ffffff" stroke-width="2" stroke-linecap="round" stroke-linejoin="round" fill="none"/><path d="M 455 94 L 455 92 L 452 98 L 450 108 L 449 116 L 448 121 L 448 122" stroke="#ffffff" stroke-width="2" stroke-linecap="round" stroke-linejoin="round" fill="none"/><path d="M 454 109 L 454 107 L 461 99 L 467 99 L 471 99" stroke="#ffffff" stroke-width="2" stroke-linecap="round" stroke-linejoin="round" fill="none"/><path d="M 453 126 L 451 127 L 450 126 L 452 125 L 465 117 L 474 110 L 474 109" stroke="#ffffff" stroke-width="2" stroke-linecap="round" stroke-linejoin="round" fill="none"/><path d="M 466 105 L 465 105 L 464 105 L 464 110 L 465 120 L 464 133 L 459 141 L 454 147 L 451 148" stroke="#ffffff" stroke-width="2" stroke-linecap="round" stroke-linejoin="round" fill="none"/><path d="M 460 126 L 461 123 L 465 119 L 468 118 L 473 120 L 476 123 L 480 124 L 486 122" stroke="#ffffff" stroke-width="2" stroke-linecap="round" stroke-linejoin="round" fill="none"/><path d="M 491 102 L 490 101 L 492 99 L 495 99 L 497 100 L 497 100" stroke="#ffffff" stroke-width="2" stroke-linecap="round" stroke-linejoin="round" fill="none"/><path d="M 490 104 L 488 105 L 486 106 L 485 110 L 485 116 L 485 122 L 485 125 L 485 125 L 486 122 L 487 118 L 489 114 L 492 111 L 493 111 L 493 115 L 489 121 L 485 126 L 481 129 L 480 129 L 480 128 L 481 127 L 483 126 L 485 126 L 488 126 L 490 126 L 492 125 L 492 123 L 493 121 L 493 120 L 493 121 L 493 123 L 492 127 L 490 131 L 488 134 L 487 136 L 486 136 L 484 136 L 482 137 L 477 140 L 474 143 L 474 144 L 478 144 L 485 140 L 492 136 L 501 132 L 509 129" stroke="#ffffff" stroke-width="2" stroke-linecap="round" stroke-linejoin="round" fill="none"/><path d="M 519 102 L 519 102 L 515 109 L 515 121 L 518 130 L 520 133 L 521 134" stroke="#ffffff" stroke-width="2" stroke-linecap="round" stroke-linejoin="round" fill="none"/><path d="M 526 110 L 524 111 L 523 118 L 520 127 L 515 134 L 512 136 L 510 135 L 510 133 L 511 128 L 515 123 L 521 119 L 528 115 L 535 114 L 538 117 L 537 124 L 534 131 L 529 138 L 527 139" stroke="#ffffff" stroke-width="2" stroke-linecap="round" stroke-linejoin="round" fill="none"/></svg>
