<svg xmlns="http://www.w3.org/2000/svg" width="640" height="407.5" viewBox="0 0 640 407.5"><path d="M 13 31.5 L 10 31.5 L 10 37.5 L 10 47.5 L 11 57.5 L 13 64.5 L 14 65.5" stroke="#ffffff" stroke-width="2" stroke-linecap="round" stroke-linejoin="round" fill="none"/><path d="M 25 35.5 L 25 33.5 L 25 31.5 L 25 30.5 L 30 30.5 L 33 32.5 L 34 35.5 L 34 38.5 L 32 40.5 L 30 41.5 L 29 41.5 L 29 40.5 L 31 39.5 L 34 40.5 L 37 43.5 L 37 47.5 L 35 51.5 L 32 53.5 L 28 54.5 L 24 54.5 L 22 53.5 L 23 53.5" stroke="#ffffff" stroke-width="2" stroke-linecap="round" stroke-linejoin="round" fill="none"/><path d="M 71 19.5 L 70 17.5 L 67 19.5 L 63 29.5 L 57 46.5 L 49 65.5 L 42 80.5 L 39 89.5 L 37 95.5" stroke="#ffffff" stroke-width="2" stroke-linecap="round" stroke-linejoin="round" fill="none"/><path d="M 74 61.5 L 73 62.5 L 73 59.5 L 76 58.5 L 81 58.5 L 83 59.5 L 83 63.5 L 79 67.5 L 74 71.5 L 70 73.5 L 68 74.5 L 70 74.5 L 73 75.5 L 79 75.5 L 85 74.5 L 92 73.5 L 98 73.5" stroke="#ffffff" stroke-width="2" stroke-linecap="round" stroke-linejoin="round" fill="none"/><path d="M 150 36.5 L 148 35.5 L 149 31.5 L 153 26.5 L 159 23.5 L 163 24.5 L 164 31.5 L 161 40.5 L 157 46.5 L 152 52.5 L 149 53.5 L 148 53.5 L 150 53.5 L 155 52.5 L 164 48.5 L 177 42.5 L 183 40.5" stroke="#ffffff" stroke-width="2" stroke-linecap="round" stroke-linejoin="round" fill="none"/><path d="M 193 23.5 L 191 22.5 L 187 25.5 L 185 34.5 L 185 42.5 L 187 45.5 L 190 45.5 L 193 41.5 L 196 36.5 L 198 30.5 L 198 24.5 L 195 20.5 L 190 20.5 L 186 26.5 L 186 28.5" stroke="#ffffff" stroke-width="2" stroke-linecap="round" stroke-linejoin="round" fill="none"/><path d="M 215 25.5 L 214 24.5 L 214 23.5 L 217 23.5 L 220 25.5 L 221 27.5 L 221 31.5 L 217 35.5 L 212 37.5 L 208 39.5 L 207 39.5 L 209 39.5 L 211 39.5 L 216 39.5 L 222 37.5 L 229 35.5 L 233 34.5" stroke="#ffffff" stroke-width="2" stroke-linecap="round" stroke-linejoin="round" fill="none"/><path d="M 253 10.5 L 251 8.5 L 248 9.5 L 246 17.5 L 244 26.5 L 244 33.5 L 247 37.5 L 250 37.5 L 254 34.5 L 257 31.5 L 257 28.5 L 254 26.5 L 250 26.5 L 246 28.5 L 244 30.5" stroke="#ffffff" stroke-width="2" stroke-linecap="round" stroke-linejoin="round" fill="none"/><path d="M 224 65.5 L 222 63.5 L 219 63.5 L 213 67.5 L 208 76.5 L 208 84.5 L 211 88.5 L 219 87.5 L 227 82.5 L 230 80.5" stroke="#ffffff" stroke-width="2" stroke-linecap="round" stroke-linejoin="round" fill="none"/><path d="M 249 61.5 L 247 59.5 L 243 62.5 L 243 67.5 L 243 71.5 L 246 73.5 L 250 73.5 L 254 73.5 L 256 74.5 L 256 77.5 L 253 81.5 L 249 83.5 L 245 84.5 L 242 85.5 L 241 85.5" stroke="#ffffff" stroke-width="2" stroke-linecap="round" stroke-linejoin="round" fill="none"/><path d="M 243 67.5 L 243 64.5 L 243 63.5 L 248 60.5 L 256 59.5 L 266 59.5 L 270 60.5" stroke="#ffffff" stroke-width="2" stroke-linecap="round" stroke-linejoin="round" fill="none"/><path d="M 275 60.5 L 274 60.5 L 268 59.5 L 268 63.5 L 267 67.5 L 269 72.5 L 273 73.5 L 280 74.5 L 284 74.5 L 285 75.5 L 282 76.5 L 277 79.5 L 273 82.5 L 269 84.5 L 266 85.5" stroke="#ffffff" stroke-width="2" stroke-linecap="round" stroke-linejoin="round" fill="none"/><path d="M 267 66.5 L 267 64.5 L 279 59.5 L 290 59.5 L 296 58.5" stroke="#ffffff" stroke-width="2" stroke-linecap="round" stroke-linejoin="round" fill="none"/><path d="M 346 48.5 L 345 47.5 L 340 43.5 L 336 48.5 L 331 61.5 L 327 77.5 L 327 89.5 L 330 94.5" stroke="#ffffff" stroke-width="2" stroke-linecap="round" stroke-linejoin="round" fill="none"/><path d="M 365 65.5 L 364 65.5 L 358 62.5 L 356 62.5 L 355 64.5 L 352 70.5 L 349 76.5 L 348 81.5 L 351 82.5 L 358 81.5 L 365 78.5" stroke="#ffffff" stroke-width="2" stroke-linecap="round" stroke-linejoin="round" fill="none"/><path d="M 381 71.5 L 378 69.5 L 377 67.5 L 377 66.5 L 378 64.5 L 378 63.5 L 376 63.5 L 372 67.5 L 369 73.5 L 369 77.5 L 372 78.5 L 376 76.5 L 379 72.5 L 381 70.5 L 381 69.5 L 379 71.5 L 377 74.5 L 375 78.5 L 375 81.5" stroke="#ffffff" stroke-width="2" stroke-linecap="round" stroke-linejoin="round" fill="none"/><path d="M 399 69.5 L 399 67.5 L 397 65.5 L 395 64.5 L 392 63.5 L 389 66.5 L 388 70.5 L 387 73.5 L 388 76.5 L 388 78.5 L 386 78.5 L 382 77.5 L 380 75.5" stroke="#ffffff" stroke-width="2" stroke-linecap="round" stroke-linejoin="round" fill="none"/><path d="M 404 51.5 L 398 58.5 L 396 67.5 L 395 74.5 L 395 77.5 L 395 78.5 L 396 76.5 L 399 73.5 L 402 71.5 L 403 70.5 L 405 71.5 L 406 73.5 L 410 74.5 L 415 74.5 L 417 74.5" stroke="#ffffff" stroke-width="2" stroke-linecap="round" stroke-linejoin="round" fill="none"/><path d="M 429 44.5 L 434 45.5 L 437 51.5 L 437 61.5 L 431 72.5 L 424 81.5 L 418 89.5 L 414 92.5" stroke="#ffffff" stroke-width="2" stroke-linecap="round" stroke-linejoin="round" fill="none"/><path d="M 18 129.5 L 18 126.5 L 18 125.5 L 18 134.5 L 18 145.5 L 20 154.5 L 23 159.5 L 24 160.5" stroke="#ffffff" stroke-width="2" stroke-linecap="round" stroke-linejoin="round" fill="none"/><path d="M 32 122.5 L 33 121.5 L 33 122.5 L 33 128.5 L 34 138.5 L 34 148.5 L 34 152.5" stroke="#ffffff" stroke-width="2" stroke-linecap="round" stroke-linejoin="round" fill="none"/><path d="M 52 141.5 L 52 139.5 L 55 133.5 L 59 133.5 L 62 137.5 L 62 142.5 L 60 148.5 L 56 152.5 L 54 154.5" stroke="#ffffff" stroke-width="2" stroke-linecap="round" stroke-linejoin="round" fill="none"/><path d="M 76 133.5 L 75 132.5 L 75 130.5 L 80 128.5 L 85 127.5 L 88 127.5" stroke="#ffffff" stroke-width="2" stroke-linecap="round" stroke-linejoin="round" fill="none"/><path d="M 76 145.5 L 76 145.5 L 76 144.5 L 81 141.5 L 86 138.5 L 90 137.5" stroke="#ffffff" stroke-width="2" stroke-linecap="round" stroke-linejoin="round" fill="none"/><path d="M 84 118.5 L 83 117.5 L 82 115.5 L 83 120.5 L 85 128.5 L 86 140.5 L 86 150.5 L 87 155.5 L 89 157.5 L 92 155.5 L 95 152.5" stroke="#ffffff" stroke-width="2" stroke-linecap="round" stroke-linejoin="round" fill="none"/><path d="M 111 120.5 L 110 120.5 L 107 121.5 L 108 126.5 L 111 131.5" stroke="#ffffff" stroke-width="2" stroke-linecap="round" stroke-linejoin="round" fill="none"/><path d="M 121 126.5 L 120 125.5 L 119 125.5 L 118 126.5 L 115 129.5 L 112 135.5 L 110 142.5 L 109 145.5 L 113 145.5 L 118 143.5 L 120 142.5" stroke="#ffffff" stroke-width="2" stroke-linecap="round" stroke-linejoin="round" fill="none"/><path d="M 138 134.5 L 137 134.5 L 136 131.5 L 141 129.5 L 148 126.5 L 150 126.5" stroke="#ffffff" stroke-width="2" stroke-linecap="round" stroke-linejoin="round" fill="none"/><path d="M 172 110.5 L 170 111.5 L 168 112.5 L 166 115.5 L 163 118.5 L 163 120.5 L 164 120.5 L 167 118.5 L 170 117.5 L 172 116.5 L 173 116.5 L 171 119.5 L 169 122.5 L 168 123.5 L 167 124.5 L 167 124.5 L 170 124.5 L 172 123.5" stroke="#ffffff" stroke-width="2" stroke-linecap="round" stroke-linejoin="round" fill="none"/><path d="M 172 121.5 L 172 121.5 L 168 125.5 L 166 130.5 L 165 138.5 L 165 145.5 L 166 149.5 L 166 149.5" stroke="#ffffff" stroke-width="2" stroke-linecap="round" stroke-linejoin="round" fill="none"/><path d="M 166 134.5 L 164 134.5 L 163 135.5 L 158 140.5 L 157 145.5 L 157 146.5" stroke="#ffffff" stroke-width="2" stroke-linecap="round" stroke-linejoin="round" fill="none"/><path d="M 169 128.5 L 168 129.5 L 170 130.5 L 173 130.5" stroke="#ffffff" stroke-width="2" stroke-linecap="round" stroke-linejoin="round" fill="none"/><path d="M 178 120.5 L 178 119.5 L 179 115.5 L 184 112.5 L 189 110.5 L 191 108.5 L 191 107.5 L 190 107.5 L 188 108.5 L 187 112.5 L 185 117.5 L 184 121.5" stroke="#ffffff" stroke-width="2" stroke-linecap="round" stroke-linejoin="round" fill="none"/><path d="M 174 131.5 L 178 126.5 L 186 119.5 L 195 114.5 L 199 113.5 L 198 114.5 L 196 115.5 L 193 117.5 L 187 122.5 L 181 130.5 L 177 138.5 L 176 141.5" stroke="#ffffff" stroke-width="2" stroke-linecap="round" stroke-linejoin="round" fill="none"/><path d="M 190 126.5 L 190 126.5 L 188 130.5 L 187 136.5 L 187 143.5 L 186 146.5" stroke="#ffffff" stroke-width="2" stroke-linecap="round" stroke-linejoin="round" fill="none"/><path d="M 187 134.5 L 189 130.5 L 191 126.5 L 193 124.5 L 195 124.5 L 196 126.5 L 196 130.5 L 196 135.5 L 195 140.5 L 194 144.5 L 193 145.5" stroke="#ffffff" stroke-width="2" stroke-linecap="round" stroke-linejoin="round" fill="none"/><path d="M 194 138.5 L 194 137.5 L 193 134.5 L 194 133.5 L 196 133.5" stroke="#ffffff" stroke-width="2" stroke-linecap="round" stroke-linejoin="round" fill="none"/><path d="M 192 147.5 L 189 148.5 L 186 149.5 L 185 149.5 L 189 148.5 L 195 145.5" stroke="#ffffff" stroke-width="2" stroke-linecap="round" stroke-linejoin="round" fill="none"/><path d="M 240 129.5 L 239 129.5 L 243 125.5 L 253 119.5 L 263 115.5 L 269 114.5 L 272 114.5 L 273 115.5" stroke="#ffffff" stroke-width="2" stroke-linecap="round" stroke-linejoin="round" fill="none"/><path d="M 248 111.5 L 247 111.5 L 244 116.5 L 245 122.5 L 247 128.5 L 249 131.5" stroke="#ffffff" stroke-width="2" stroke-linecap="round" stroke-linejoin="round" fill="none"/><path d="M 257 107.5 L 257 106.5 L 258 110.5 L 259 121.5 L 257 136.5 L 253 148.5 L 249 156.5 L 246 160.5 L 245 161.5" stroke="#ffffff" stroke-width="2" stroke-linecap="round" stroke-linejoin="round" fill="none"/><path d="M 292 114.5 L 291 114.5 L 288 113.5 L 285 117.5 L 281 125.5 L 275 133.5 L 271 139.5 L 268 143.5" stroke="#ffffff" stroke-width="2" stroke-linecap="round" stroke-linejoin="round" fill="none"/><path d="M 276 130.5 L 276 132.5 L 276 140.5 L 276 148.5 L 277 154.5" stroke="#ffffff" stroke-width="2" stroke-linecap="round" stroke-linejoin="round" fill="none"/><path d="M 297 120.5 L 296 120.5 L 294 122.5 L 293 130.5 L 293 140.5 L 293 147.5 L 293 151.5 L 294 152.5" stroke="#ffffff" stroke-width="2" stroke-linecap="round" stroke-linejoin="round" fill="none"/><path d="M 291 140.5 L 292 140.5 L 297 140.5 L 304 138.5 L 306 138.5" stroke="#ffffff" stroke-width="2" stroke-linecap="round" stroke-linejoin="round" fill="none"/><path d="M 306 115.5 L 304 116.5 L 302 120.5 L 303 122.5" stroke="#ffffff" stroke-width="2" stroke-linecap="round" stroke-linejoin="round" fill="none"/><path d="M 310 113.5 L 311 112.5 L 311 110.5 L 310 116.5" stroke="#ffffff" stroke-width="2" stroke-linecap="round" stroke-linejoin="round" fill="none"/><path d="M 328 131.5 L 326 131.5 L 326 128.5 L 332 125.5 L 341 120.5 L 352 114.5 L 355 112.5 L 354 112.5 L 351 114.5 L 347 117.5 L 341 125.5 L 336 136.5 L 335 145.5 L 338 150.5 L 342 151.5 L 343 151.5" stroke="#ffffff" stroke-width="2" stroke-linecap="round" stroke-linejoin="round" fill="none"/><path d="M 346 129.5 L 346 128.5 L 347 126.5 L 349 129.5 L 352 134.5 L 353 136.5" stroke="#ffffff" stroke-width="2" stroke-linecap="round" stroke-linejoin="round" fill="none"/><path d="M 364 124.5 L 363 122.5 L 363 121.5 L 365 121.5 L 367 122.5 L 368 125.5 L 367 128.5 L 365 130.5 L 364 131.5 L 363 131.5 L 365 130.5 L 367 130.5 L 369 132.5 L 370 135.5 L 367 139.5 L 363 141.5 L 359 143.5 L 357 143.5 L 357 141.5" stroke="#ffffff" stroke-width="2" stroke-linecap="round" stroke-linejoin="round" fill="none"/><path d="M 391 125.5 L 389 124.5 L 385 125.5 L 384 131.5 L 384 138.5 L 386 142.5 L 389 142.5 L 394 141.5 L 399 137.5 L 400 136.5" stroke="#ffffff" stroke-width="2" stroke-linecap="round" stroke-linejoin="round" fill="none"/><path d="M 403 124.5 L 402 124.5 L 400 121.5 L 404 120.5 L 411 119.5 L 416 118.5 L 418 117.5 L 415 122.5 L 410 128.5 L 408 135.5 L 409 140.5 L 414 143.5 L 421 143.5 L 423 143.5" stroke="#ffffff" stroke-width="2" stroke-linecap="round" stroke-linejoin="round" fill="none"/><path d="M 440 120.5 L 439 120.5 L 439 118.5 L 443 114.5 L 455 108.5 L 467 103.5 L 472 103.5 L 471 104.5 L 468 104.5" stroke="#ffffff" stroke-width="2" stroke-linecap="round" stroke-linejoin="round" fill="none"/><path d="M 458 108.5 L 454 109.5 L 453 109.5 L 452 111.5 L 451 118.5 L 450 127.5 L 450 134.5 L 452 138.5 L 453 138.5" stroke="#ffffff" stroke-width="2" stroke-linecap="round" stroke-linejoin="round" fill="none"/><path d="M 455 125.5 L 454 123.5 L 459 117.5 L 461 118.5" stroke="#ffffff" stroke-width="2" stroke-linecap="round" stroke-linejoin="round" fill="none"/><path d="M 455 126.5 L 454 127.5 L 452 127.5 L 451 127.5 L 454 126.5 L 456 125.5" stroke="#ffffff" stroke-width="2" stroke-linecap="round" stroke-linejoin="round" fill="none"/><path d="M 441 150.5 L 440 152.5 L 440 149.5 L 446 144.5 L 454 138.5 L 461 129.5" stroke="#ffffff" stroke-width="2" stroke-linecap="round" stroke-linejoin="round" fill="none"/><path d="M 464 106.5 L 463 106.5 L 461 114.5 L 461 127.5 L 461 140.5 L 461 149.5 L 461 155.5 L 462 156.5" stroke="#ffffff" stroke-width="2" stroke-linecap="round" stroke-linejoin="round" fill="none"/><path d="M 488 114.5 L 488 112.5 L 488 113.5 L 488 118.5 L 488 125.5 L 488 131.5" stroke="#ffffff" stroke-width="2" stroke-linecap="round" stroke-linejoin="round" fill="none"/><path d="M 491 122.5 L 490 118.5 L 493 116.5 L 496 115.5 L 500 115.5 L 501 116.5 L 501 117.5" stroke="#ffffff" stroke-width="2" stroke-linecap="round" stroke-linejoin="round" fill="none"/><path d="M 474 140.5 L 473 140.5 L 471 140.5 L 476 139.5 L 484 138.5 L 492 135.5 L 499 133.5 L 503 133.5" stroke="#ffffff" stroke-width="2" stroke-linecap="round" stroke-linejoin="round" fill="none"/><path d="M 484 140.5 L 485 140.5 L 485 139.5 L 485 139.5 L 485 138.5 L 485 137.5 L 485 135.5 L 486 135.5" stroke="#ffffff" stroke-width="2" stroke-linecap="round" stroke-linejoin="round" fill="none"/><path d="M 539 122.5 L 538 121.5 L 540 117.5 L 544 115.5 L 548 115.5 L 551 116.5 L 552 117.5 L 550 118.5 L 547 121.5 L 544 124.5 L 541 129.5 L 540 134.5 L 542 138.5 L 547 139.5 L 553 138.5" stroke="#ffffff" stroke-width="2" stroke-linecap="round" stroke-linejoin="round" fill="none"/><path d="M 557 91.5 L 554 92.5 L 550 99.5 L 551 103.5" stroke="#ffffff" stroke-width="2" stroke-linecap="round" stroke-linejoin="round" fill="none"/><path d="M 562 95.5 L 562 94.5 L 562 90.5 L 561 96.5 L 561 100.5" stroke="#ffffff" stroke-width="2" stroke-linecap="round" stroke-linejoin="round" fill="none"/><path d="M 564 127.5 L 562 126.5 L 563 120.5 L 569 118.5 L 575 116.5 L 580 115.5" stroke="#ffffff" stroke-width="2" stroke-linecap="round" stroke-linejoin="round" fill="none"/><path d="M 575 112.5 L 574 110.5 L 572 114.5 L 569 121.5 L 567 128.5 L 567 131.5 L 569 132.5 L 574 130.5 L 576 128.5" stroke="#ffffff" stroke-width="2" stroke-linecap="round" stroke-linejoin="round" fill="none"/><path d="M 585 121.5 L 585 121.5 L 584 118.5 L 587 116.5 L 591 115.5 L 594 116.5 L 594 119.5 L 593 123.5 L 590 126.5 L 588 127.5 L 586 127.5 L 586 125.5 L 586 122.5 L 586 119.5 L 587 119.5 L 586 122.5 L 583 127.5 L 580 132.5 L 580 135.5" stroke="#ffffff" stroke-width="2" stroke-linecap="round" stroke-linejoin="round" fill="none"/><path d="M 598 135.5 L 597 134.5 L 597 133.5 L 598 133.5 L 600 134.5 L 600 136.5 L 599 138.5 L 597 140.5" stroke="#ffffff" stroke-width="2" stroke-linecap="round" stroke-linejoin="round" fill="none"/><path d="M 607 123.5 L 608 120.5 L 614 115.5 L 620 115.5 L 625 115.5 L 628 115.5 L 629 115.5 L 629 115.5 L 626 118.5 L 624 122.5 L 621 128.5 L 619 133.5 L 619 137.5 L 622 141.5 L 628 142.5 L 630 143.5" stroke="#ffffff" stroke-width="2" stroke-linecap="round" stroke-linejoin="round" fill="none"/><path d="M 317 180.5 L 317 176.5 L 319 171.5 L 324 167.5 L 327 167.5 L 328 170.5" stroke="#ffffff" stroke-width="2" stroke-linecap="round" stroke-linejoin="round" fill="none"/><path d="M 317 190.5 L 316 190.5 L 314 187.5 L 317 184.5 L 319 183.5" stroke="#ffffff" stroke-width="2" stroke-linecap="round" stroke-linejoin="round" fill="none"/><path d="M 315 209.5 L 315 209.5 L 312 211.5 L 315 206.5 L 322 199.5 L 325 195.5" stroke="#ffffff" stroke-width="2" stroke-linecap="round" stroke-linejoin="round" fill="none"/><path d="M 341 160.5 L 341 159.5 L 339 159.5 L 338 165.5 L 337 171.5" stroke="#ffffff" stroke-width="2" stroke-linecap="round" stroke-linejoin="round" fill="none"/><path d="M 327 189.5 L 328 181.5 L 335 176.5 L 344 172.5 L 348 171.5 L 347 174.5 L 342 180.5 L 337 185.5 L 333 190.5 L 331 192.5 L 333 189.5 L 337 186.5 L 342 183.5 L 348 181.5 L 353 180.5 L 355 180.5" stroke="#ffffff" stroke-width="2" stroke-linecap="round" stroke-linejoin="round" fill="none"/><path d="M 335 192.5 L 331 194.5 L 330 201.5 L 329 208.5 L 329 210.5" stroke="#ffffff" stroke-width="2" stroke-linecap="round" stroke-linejoin="round" fill="none"/><path d="M 339 191.5 L 338 191.5 L 336 195.5 L 337 198.5 L 340 199.5 L 343 199.5" stroke="#ffffff" stroke-width="2" stroke-linecap="round" stroke-linejoin="round" fill="none"/><path d="M 346 187.5 L 346 186.5 L 345 185.5 L 345 190.5 L 345 195.5 L 348 199.5 L 351 200.5 L 356 199.5 L 359 196.5 L 361 192.5" stroke="#ffffff" stroke-width="2" stroke-linecap="round" stroke-linejoin="round" fill="none"/><path d="M 369 182.5 L 369 181.5 L 374 172.5 L 382 169.5 L 388 167.5 L 392 167.5 L 393 167.5 L 392 167.5 L 389 166.5 L 387 165.5 L 385 164.5 L 383 164.5 L 382 164.5 L 382 168.5 L 381 174.5 L 380 183.5 L 379 191.5 L 377 196.5 L 375 198.5 L 374 198.5 L 373 196.5 L 373 192.5 L 374 188.5 L 376 183.5 L 380 180.5 L 383 179.5 L 385 184.5 L 384 192.5 L 381 200.5 L 378 206.5 L 375 211.5 L 372 213.5" stroke="#ffffff" stroke-width="2" stroke-linecap="round" stroke-linejoin="round" fill="none"/><path d="M 34 227.5 L 32 224.5 L 31 223.5 L 31 227.5 L 31 239.5 L 31 255.5 L 30 268.5 L 32 275.5" stroke="#ffffff" stroke-width="2" stroke-linecap="round" stroke-linejoin="round" fill="none"/><path d="M 67 227.5 L 66 227.5 L 63 227.5 L 63 227.5 L 62 235.5 L 62 244.5 L 62 252.5 L 62 258.5" stroke="#ffffff" stroke-width="2" stroke-linecap="round" stroke-linejoin="round" fill="none"/><path d="M 60 238.5 L 59 234.5 L 58 229.5 L 59 227.5 L 62 224.5 L 66 224.5 L 70 226.5 L 73 232.5 L 75 240.5 L 76 248.5 L 76 256.5 L 76 261.5 L 76 263.5" stroke="#ffffff" stroke-width="2" stroke-linecap="round" stroke-linejoin="round" fill="none"/><path d="M 69 242.5 L 67 240.5 L 64 235.5 L 66 234.5 L 71 233.5" stroke="#ffffff" stroke-width="2" stroke-linecap="round" stroke-linejoin="round" fill="none"/><path d="M 69 243.5 L 67 244.5 L 65 245.5 L 66 244.5 L 70 243.5 L 72 241.5" stroke="#ffffff" stroke-width="2" stroke-linecap="round" stroke-linejoin="round" fill="none"/><path d="M 101 245.5 L 100 244.5 L 99 242.5 L 100 238.5 L 105 234.5 L 111 231.5 L 115 231.5 L 117 236.5 L 117 240.5 L 116 242.5 L 115 243.5 L 113 242.5 L 112 239.5 L 111 235.5 L 110 230.5 L 109 225.5 L 109 222.5 L 109 221.5 L 109 223.5 L 108 231.5 L 107 240.5 L 107 249.5 L 107 251.5" stroke="#ffffff" stroke-width="2" stroke-linecap="round" stroke-linejoin="round" fill="none"/><path d="M 119 216.5 L 120 213.5 L 121 212.5 L 122 214.5 L 128 224.5 L 132 231.5" stroke="#ffffff" stroke-width="2" stroke-linecap="round" stroke-linejoin="round" fill="none"/><path d="M 139 244.5 L 138 244.5 L 136 243.5 L 139 239.5 L 146 233.5 L 155 227.5 L 162 223.5 L 166 223.5 L 167 223.5 L 167 223.5" stroke="#ffffff" stroke-width="2" stroke-linecap="round" stroke-linejoin="round" fill="none"/><path d="M 148 222.5 L 145 221.5 L 144 220.5 L 144 221.5 L 146 228.5 L 147 237.5 L 149 247.5 L 151 253.5 L 155 254.5 L 160 251.5 L 164 248.5 L 167 246.5 L 169 245.5 L 169 245.5" stroke="#ffffff" stroke-width="2" stroke-linecap="round" stroke-linejoin="round" fill="none"/><path d="M 159 216.5 L 157 216.5 L 157 217.5 L 157 223.5 L 160 232.5 L 162 239.5 L 163 241.5" stroke="#ffffff" stroke-width="2" stroke-linecap="round" stroke-linejoin="round" fill="none"/><path d="M 172 209.5 L 169 210.5 L 168 214.5 L 170 218.5 L 170 219.5" stroke="#ffffff" stroke-width="2" stroke-linecap="round" stroke-linejoin="round" fill="none"/><path d="M 180 205.5 L 179 205.5 L 178 214.5" stroke="#ffffff" stroke-width="2" stroke-linecap="round" stroke-linejoin="round" fill="none"/><path d="M 179 244.5 L 178 244.5 L 177 241.5 L 177 240.5 L 182 233.5 L 186 230.5 L 189 228.5 L 190 228.5 L 189 228.5 L 187 232.5 L 185 240.5 L 184 247.5 L 185 253.5 L 188 254.5 L 191 252.5 L 194 247.5 L 195 242.5 L 196 237.5 L 196 233.5 L 196 231.5 L 197 234.5 L 199 240.5 L 201 246.5 L 201 247.5" stroke="#ffffff" stroke-width="2" stroke-linecap="round" stroke-linejoin="round" fill="none"/><path d="M 213 230.5 L 212 231.5 L 209 231.5 L 209 232.5 L 209 236.5 L 212 239.5 L 213 241.5" stroke="#ffffff" stroke-width="2" stroke-linecap="round" stroke-linejoin="round" fill="none"/><path d="M 219 232.5 L 219 231.5 L 218 231.5 L 218 231.5 L 218 235.5 L 219 239.5" stroke="#ffffff" stroke-width="2" stroke-linecap="round" stroke-linejoin="round" fill="none"/><path d="M 233 232.5 L 231 232.5 L 230 231.5 L 230 230.5 L 233 229.5 L 238 228.5 L 241 228.5 L 243 228.5 L 244 228.5 L 242 228.5 L 240 232.5 L 238 238.5 L 237 246.5 L 237 252.5 L 241 254.5 L 244 254.5" stroke="#ffffff" stroke-width="2" stroke-linecap="round" stroke-linejoin="round" fill="none"/><path d="M 266 237.5 L 265 238.5 L 263 238.5 L 263 236.5 L 268 231.5 L 275 227.5 L 282 224.5 L 284 223.5" stroke="#ffffff" stroke-width="2" stroke-linecap="round" stroke-linejoin="round" fill="none"/><path d="M 275 221.5 L 274 220.5 L 273 220.5 L 272 220.5 L 272 226.5 L 272 237.5 L 270 249.5 L 269 257.5 L 268 261.5" stroke="#ffffff" stroke-width="2" stroke-linecap="round" stroke-linejoin="round" fill="none"/><path d="M 272 234.5 L 272 230.5 L 272 230.5 L 275 234.5 L 280 240.5 L 287 246.5 L 295 249.5" stroke="#ffffff" stroke-width="2" stroke-linecap="round" stroke-linejoin="round" fill="none"/><path d="M 314 216.5 L 313 215.5 L 311 214.5 L 312 220.5 L 312 225.5" stroke="#ffffff" stroke-width="2" stroke-linecap="round" stroke-linejoin="round" fill="none"/><path d="M 303 233.5 L 302 232.5 L 309 223.5 L 315 221.5 L 320 220.5 L 320 220.5 L 319 220.5 L 316 221.5 L 314 223.5 L 312 226.5 L 310 231.5 L 310 235.5" stroke="#ffffff" stroke-width="2" stroke-linecap="round" stroke-linejoin="round" fill="none"/><path d="M 319 226.5 L 318 224.5 L 316 227.5 L 314 232.5 L 313 234.5" stroke="#ffffff" stroke-width="2" stroke-linecap="round" stroke-linejoin="round" fill="none"/><path d="M 306 236.5 L 302 237.5 L 300 239.5 L 298 243.5 L 298 247.5 L 299 247.5" stroke="#ffffff" stroke-width="2" stroke-linecap="round" stroke-linejoin="round" fill="none"/><path d="M 323 231.5 L 323 230.5 L 325 227.5 L 326 226.5 L 330 225.5 L 330 227.5" stroke="#ffffff" stroke-width="2" stroke-linecap="round" stroke-linejoin="round" fill="none"/><path d="M 322 236.5 L 321 236.5 L 320 234.5 L 319 235.5 L 317 239.5 L 314 242.5 L 311 246.5 L 310 247.5" stroke="#ffffff" stroke-width="2" stroke-linecap="round" stroke-linejoin="round" fill="none"/><path d="M 309 248.5 L 310 247.5 L 311 246.5 L 313 243.5 L 316 239.5 L 320 236.5 L 323 235.5 L 324 239.5 L 322 246.5 L 318 257.5 L 314 267.5 L 311 273.5 L 310 274.5" stroke="#ffffff" stroke-width="2" stroke-linecap="round" stroke-linejoin="round" fill="none"/><path d="M 313 249.5 L 313 248.5 L 313 247.5 L 315 249.5 L 324 256.5 L 332 261.5 L 334 262.5" stroke="#ffffff" stroke-width="2" stroke-linecap="round" stroke-linejoin="round" fill="none"/><path d="M 354 255.5 L 354 255.5 L 353 256.5 L 352 255.5 L 354 249.5 L 361 241.5 L 373 230.5 L 381 221.5 L 385 221.5 L 384 226.5 L 380 234.5 L 376 240.5 L 373 243.5" stroke="#ffffff" stroke-width="2" stroke-linecap="round" stroke-linejoin="round" fill="none"/><path d="M 357 223.5 L 356 222.5 L 355 221.5 L 356 227.5 L 360 238.5 L 364 249.5 L 368 258.5 L 368 259.5" stroke="#ffffff" stroke-width="2" stroke-linecap="round" stroke-linejoin="round" fill="none"/><path d="M 375 217.5 L 375 216.5 L 374 214.5 L 374 223.5 L 374 233.5 L 375 235.5" stroke="#ffffff" stroke-width="2" stroke-linecap="round" stroke-linejoin="round" fill="none"/><path d="M 378 255.5 L 378 254.5 L 378 252.5 L 378 251.5 L 385 247.5 L 389 248.5 L 390 252.5 L 387 257.5 L 384 260.5 L 382 261.5" stroke="#ffffff" stroke-width="2" stroke-linecap="round" stroke-linejoin="round" fill="none"/><path d="M 411 237.5 L 410 235.5 L 414 228.5 L 420 224.5 L 426 221.5 L 430 218.5 L 432 217.5" stroke="#ffffff" stroke-width="2" stroke-linecap="round" stroke-linejoin="round" fill="none"/><path d="M 423 214.5 L 422 214.5 L 420 215.5 L 419 221.5 L 418 234.5 L 417 247.5 L 417 254.5 L 418 255.5" stroke="#ffffff" stroke-width="2" stroke-linecap="round" stroke-linejoin="round" fill="none"/><path d="M 429 241.5 L 429 240.5 L 430 236.5 L 433 234.5 L 435 234.5" stroke="#ffffff" stroke-width="2" stroke-linecap="round" stroke-linejoin="round" fill="none"/><path d="M 432 247.5 L 431 248.5 L 430 250.5 L 435 248.5 L 443 244.5 L 444 243.5" stroke="#ffffff" stroke-width="2" stroke-linecap="round" stroke-linejoin="round" fill="none"/><path d="M 98 317.5 L 98 315.5 L 97 310.5 L 97 309.5 L 99 311.5 L 103 321.5 L 108 336.5 L 112 349.5 L 114 353.5 L 116 353.5 L 117 348.5 L 118 339.5 L 120 328.5 L 121 318.5 L 124 309.5 L 125 307.5" stroke="#ffffff" stroke-width="2" stroke-linecap="round" stroke-linejoin="round" fill="none"/><path d="M 140 325.5 L 139 326.5 L 137 331.5 L 136 334.5 L 138 342.5 L 140 343.5" stroke="#ffffff" stroke-width="2" stroke-linecap="round" stroke-linejoin="round" fill="none"/><path d="M 139 291.5 L 139 290.5 L 136 291.5 L 136 300.5 L 137 311.5" stroke="#ffffff" stroke-width="2" stroke-linecap="round" stroke-linejoin="round" fill="none"/><path d="M 161 315.5 L 160 312.5 L 158 310.5 L 157 309.5 L 153 312.5 L 150 319.5 L 149 326.5 L 151 329.5 L 156 329.5 L 162 326.5 L 166 324.5 L 167 325.5 L 165 330.5 L 160 337.5 L 156 343.5 L 153 346.5" stroke="#ffffff" stroke-width="2" stroke-linecap="round" stroke-linejoin="round" fill="none"/><path d="M 180 324.5 L 177 325.5 L 175 327.5 L 175 331.5 L 175 335.5 L 176 337.5" stroke="#ffffff" stroke-width="2" stroke-linecap="round" stroke-linejoin="round" fill="none"/><path d="M 181 294.5 L 180 293.5 L 179 292.5 L 178 293.5 L 178 304.5 L 178 306.5" stroke="#ffffff" stroke-width="2" stroke-linecap="round" stroke-linejoin="round" fill="none"/><path d="M 195 322.5 L 194 322.5 L 190 322.5 L 190 321.5 L 198 313.5 L 206 307.5 L 212 303.5 L 214 301.5" stroke="#ffffff" stroke-width="2" stroke-linecap="round" stroke-linejoin="round" fill="none"/><path d="M 206 296.5 L 203 305.5 L 201 319.5 L 201 331.5 L 202 336.5" stroke="#ffffff" stroke-width="2" stroke-linecap="round" stroke-linejoin="round" fill="none"/><path d="M 233 321.5 L 233 319.5 L 238 312.5 L 248 302.5 L 258 294.5 L 260 293.5 L 260 293.5 L 258 295.5 L 256 296.5 L 254 297.5 L 253 299.5 L 253 306.5 L 252 319.5 L 250 334.5 L 247 342.5 L 244 344.5 L 242 344.5 L 240 340.5 L 240 337.5" stroke="#ffffff" stroke-width="2" stroke-linecap="round" stroke-linejoin="round" fill="none"/><path d="M 275 318.5 L 272 316.5 L 270 314.5 L 268 314.5 L 267 318.5 L 265 325.5 L 264 332.5 L 263 336.5 L 266 336.5 L 271 332.5 L 274 326.5 L 276 321.5 L 276 317.5 L 276 315.5 L 275 315.5 L 275 316.5 L 275 319.5 L 274 324.5 L 273 330.5 L 273 332.5" stroke="#ffffff" stroke-width="2" stroke-linecap="round" stroke-linejoin="round" fill="none"/><path d="M 294 317.5 L 291 315.5 L 290 315.5 L 290 320.5 L 290 329.5 L 290 340.5 L 291 348.5 L 292 352.5" stroke="#ffffff" stroke-width="2" stroke-linecap="round" stroke-linejoin="round" fill="none"/><path d="M 290 327.5 L 290 310.5 L 295 306.5 L 300 306.5 L 303 310.5 L 302 317.5 L 297 323.5 L 293 328.5 L 289 332.5" stroke="#ffffff" stroke-width="2" stroke-linecap="round" stroke-linejoin="round" fill="none"/><path d="M 315 317.5 L 315 317.5 L 311 314.5 L 310 313.5 L 307 314.5 L 304 318.5 L 302 322.5 L 302 324.5 L 305 324.5 L 310 321.5 L 313 318.5 L 315 314.5 L 316 312.5 L 315 313.5 L 313 318.5 L 313 322.5 L 314 324.5 L 315 324.5" stroke="#ffffff" stroke-width="2" stroke-linecap="round" stroke-linejoin="round" fill="none"/><path d="M 324 309.5 L 323 309.5 L 320 318.5 L 319 323.5 L 319 325.5 L 319 325.5 L 320 322.5 L 323 317.5 L 325 312.5 L 328 308.5 L 331 308.5 L 332 312.5 L 332 319.5 L 331 324.5 L 330 327.5" stroke="#ffffff" stroke-width="2" stroke-linecap="round" stroke-linejoin="round" fill="none"/><path d="M 364 329.5 L 367 322.5 L 373 318.5 L 376 319.5 L 376 326.5 L 374 332.5 L 371 336.5" stroke="#ffffff" stroke-width="2" stroke-linecap="round" stroke-linejoin="round" fill="none"/><path d="M 379 308.5 L 380 308.5 L 382 301.5 L 387 299.5 L 392 298.5 L 397 298.5 L 398 299.5 L 398 301.5 L 394 305.5 L 391 313.5 L 389 323.5 L 391 331.5 L 398 333.5 L 404 332.5" stroke="#ffffff" stroke-width="2" stroke-linecap="round" stroke-linejoin="round" fill="none"/><path d="M 439 291.5 L 439 288.5 L 437 280.5 L 436 281.5 L 432 291.5 L 428 307.5 L 425 323.5 L 425 331.5 L 426 333.5" stroke="#ffffff" stroke-width="2" stroke-linecap="round" stroke-linejoin="round" fill="none"/><path d="M 438 287.5 L 439 283.5 L 441 278.5 L 443 288.5 L 444 301.5 L 445 314.5 L 445 321.5" stroke="#ffffff" stroke-width="2" stroke-linecap="round" stroke-linejoin="round" fill="none"/><path d="M 428 316.5 L 428 314.5 L 430 310.5 L 438 305.5 L 446 302.5 L 453 301.5" stroke="#ffffff" stroke-width="2" stroke-linecap="round" stroke-linejoin="round" fill="none"/><path d="M 465 290.5 L 462 290.5 L 459 292.5 L 456 305.5 L 454 322.5 L 454 332.5 L 456 337.5 L 457 339.5" stroke="#ffffff" stroke-width="2" stroke-linecap="round" stroke-linejoin="round" fill="none"/><path d="M 453 329.5 L 453 321.5 L 453 316.5 L 457 297.5 L 462 289.5 L 467 288.5 L 468 294.5 L 467 303.5 L 463 310.5 L 460 316.5 L 457 321.5" stroke="#ffffff" stroke-width="2" stroke-linecap="round" stroke-linejoin="round" fill="none"/><path d="M 480 295.5 L 477 295.5 L 476 300.5 L 474 311.5 L 472 322.5 L 472 328.5 L 472 330.5" stroke="#ffffff" stroke-width="2" stroke-linecap="round" stroke-linejoin="round" fill="none"/><path d="M 471 323.5 L 471 321.5 L 473 304.5 L 478 296.5 L 483 293.5 L 485 296.5 L 486 301.5 L 482 307.5 L 479 312.5 L 475 317.5 L 474 317.5" stroke="#ffffff" stroke-width="2" stroke-linecap="round" stroke-linejoin="round" fill="none"/><path d="M 506 293.5 L 507 293.5 L 509 287.5 L 514 283.5 L 520 280.5 L 523 279.5 L 522 279.5 L 519 278.5 L 516 278.5 L 514 278.5 L 513 277.5 L 512 281.5 L 512 287.5 L 512 294.5 L 512 300.5" stroke="#ffffff" stroke-width="2" stroke-linecap="round" stroke-linejoin="round" fill="none"/><path d="M 505 305.5 L 507 297.5 L 514 292.5 L 522 288.5 L 527 285.5 L 527 285.5 L 526 285.5 L 523 287.5 L 517 293.5 L 511 301.5 L 504 310.5 L 500 317.5 L 500 319.5" stroke="#ffffff" stroke-width="2" stroke-linecap="round" stroke-linejoin="round" fill="none"/><path d="M 515 304.5 L 518 299.5 L 520 296.5 L 524 294.5 L 524 295.5 L 522 297.5 L 519 300.5 L 517 302.5 L 515 305.5 L 514 306.5 L 515 309.5 L 517 312.5 L 517 318.5 L 516 323.5 L 513 327.5 L 511 329.5 L 509 329.5" stroke="#ffffff" stroke-width="2" stroke-linecap="round" stroke-linejoin="round" fill="none"/><path d="M 507 318.5 L 507 317.5 L 511 312.5 L 519 309.5 L 525 307.5" stroke="#ffffff" stroke-width="2" stroke-linecap="round" stroke-linejoin="round" fill="none"/><path d="M 539 284.5 L 538 284.5 L 531 291.5 L 527 301.5 L 526 308.5 L 526 311.5" stroke="#ffffff" stroke-width="2" stroke-linecap="round" stroke-linejoin="round" fill="none"/><path d="M 528 303.5 L 528 302.5 L 528 299.5 L 530 295.5 L 535 293.5 L 540 292.5 L 542 292.5 L 542 292.5 L 540 292.5 L 538 293.5 L 536 299.5 L 534 305.5 L 531 313.5 L 530 319.5 L 529 322.5 L 529 323.5" stroke="#ffffff" stroke-width="2" stroke-linecap="round" stroke-linejoin="round" fill="none"/><path d="M 524 305.5 L 524 304.5 L 528 306.5 L 534 311.5 L 543 315.5" stroke="#ffffff" stroke-width="2" stroke-linecap="round" stroke-linejoin="round" fill="none"/><path d="M 555 298.5 L 555 297.5 L 555 291.5 L 560 290.5 L 565 290.5 L 565 290.5" stroke="#ffffff" stroke-width="2" stroke-linecap="round" stroke-linejoin="round" fill="none"/><path d="M 553 309.5 L 553 309.5 L 552 309.5 L 552 308.5 L 554 307.5 L 557 307.5 L 558 308.5 L 557 312.5 L 554 316.5 L 551 319.5 L 551 319.5 L 551 318.5 L 553 315.5 L 556 315.5 L 558 315.5 L 562 315.5 L 567 315.5 L 568 315.5" stroke="#ffffff" stroke-width="2" stroke-linecap="round" stroke-linejoin="round" fill="none"/><path d="M 576 302.5 L 576 300.5 L 578 297.5 L 584 297.5 L 589 296.5 L 593 296.5 L 593 297.5 L 591 298.5 L 588 302.5 L 585 308.5 L 585 314.5 L 588 319.5 L 595 322.5 L 598 323.5" stroke="#ffffff" stroke-width="2" stroke-linecap="round" stroke-linejoin="round" fill="none"/><path d="M 474 380.5 L 473 380.5 L 476 374.5 L 485 369.5 L 491 366.5 L 492 366.5" stroke="#ffffff" stroke-width="2" stroke-linecap="round" stroke-linejoin="round" fill="none"/><path d="M 478 387.5 L 476 388.5 L 475 388.5 L 480 385.5 L 485 382.5 L 488 379.5" stroke="#ffffff" stroke-width="2" stroke-linecap="round" stroke-linejoin="round" fill="none"/><path d="M 488 356.5 L 486 355.5 L 486 354.5 L 485 358.5 L 484 369.5 L 484 384.5 L 485 393.5 L 488 396.5 L 493 397.5 L 498 393.5 L 500 392.5" stroke="#ffffff" stroke-width="2" stroke-linecap="round" stroke-linejoin="round" fill="none"/><path d="M 522 357.5 L 522 357.5 L 519 356.5 L 518 360.5 L 517 365.5" stroke="#ffffff" stroke-width="2" stroke-linecap="round" stroke-linejoin="round" fill="none"/><path d="M 513 369.5 L 512 369.5 L 508 372.5 L 508 376.5 L 508 378.5 L 510 379.5 L 513 378.5 L 515 377.5 L 518 377.5 L 520 378.5 L 519 382.5 L 516 386.5 L 511 389.5 L 507 390.5 L 506 389.5" stroke="#ffffff" stroke-width="2" stroke-linecap="round" stroke-linejoin="round" fill="none"/><path d="M 541 391.5 L 539 389.5 L 541 386.5 L 545 385.5 L 548 386.5 L 549 389.5 L 547 393.5 L 543 396.5 L 542 397.5" stroke="#ffffff" stroke-width="2" stroke-linecap="round" stroke-linejoin="round" fill="none"/><path d="M 557 378.5 L 556 373.5 L 561 369.5 L 569 365.5 L 578 362.5 L 585 361.5 L 588 360.5" stroke="#ffffff" stroke-width="2" stroke-linecap="round" stroke-linejoin="round" fill="none"/><path d="M 577 353.5 L 577 353.5 L 575 356.5 L 571 366.5 L 567 380.5 L 567 389.5 L 568 393.5 L 571 396.5" stroke="#ffffff" stroke-width="2" stroke-linecap="round" stroke-linejoin="round" fill="none"/><path d="M 578 387.5 L 578 386.5 L 579 379.5 L 583 377.5 L 588 376.5 L 592 376.5" stroke="#ffffff" stroke-width="2" stroke-linecap="round" stroke-linejoin="round" fill="none"/><path d="M 583 390.5 L 583 390.5 L 580 390.5 L 580 391.5 L 582 391.5 L 589 388.5 L 593 386.5" stroke="#ffffff" stroke-width="2" stroke-linecap="round" stroke-linejoin="round" fill="none"/></svg>
