<svg xmlns="http://www.w3.org/2000/svg" width="679" height="442" viewBox="0 0 679 442"><path d="M 15 31 L 14 31 L 12 31 L 11 32 L 11 38 L 10 48 L 10 58 L 12 63" stroke="#ffffff" stroke-width="2" stroke-linecap="round" stroke-linejoin="round" fill="none"/><path d="M 30 34 L 28 34 L 27 35 L 27 38 L 27 44 L 29 47 L 33 48 L 36 45 L 38 40 L 38 35 L 37 30 L 34 29 L 30 30 L 26 36 L 25 41" stroke="#ffffff" stroke-width="2" stroke-linecap="round" stroke-linejoin="round" fill="none"/><path d="M 76 14 L 74 13 L 71 15 L 67 23 L 60 39 L 52 58 L 46 72 L 43 82 L 42 88" stroke="#ffffff" stroke-width="2" stroke-linecap="round" stroke-linejoin="round" fill="none"/><path d="M 84 43 L 83 43 L 81 46 L 79 56 L 76 71 L 76 81" stroke="#ffffff" stroke-width="2" stroke-linecap="round" stroke-linejoin="round" fill="none"/><path d="M 159 28 L 160 26 L 161 24 L 164 23 L 167 24 L 169 28 L 168 33 L 165 38 L 160 42 L 155 43 L 152 43 L 151 42 L 152 42 L 156 42 L 163 42 L 173 41 L 183 39 L 190 38 L 191 38" stroke="#ffffff" stroke-width="2" stroke-linecap="round" stroke-linejoin="round" fill="none"/><path d="M 190 25 L 189 25 L 185 25 L 184 28 L 184 34 L 187 39 L 191 40 L 194 38 L 196 34 L 197 29 L 195 24 L 190 23 L 186 24 L 183 28 L 184 32 L 185 33" stroke="#ffffff" stroke-width="2" stroke-linecap="round" stroke-linejoin="round" fill="none"/><path d="M 212 24 L 211 23 L 211 22 L 214 22 L 217 24 L 218 26 L 218 30 L 214 33 L 209 35 L 205 36 L 204 36 L 207 37 L 212 38 L 218 38 L 224 37 L 229 36 L 232 35" stroke="#ffffff" stroke-width="2" stroke-linecap="round" stroke-linejoin="round" fill="none"/><path d="M 243 11 L 242 11 L 240 10 L 238 11 L 235 17 L 232 27 L 231 36 L 233 40 L 237 41 L 241 40 L 244 37 L 245 33 L 245 30 L 242 28 L 237 28 L 231 32 L 227 36" stroke="#ffffff" stroke-width="2" stroke-linecap="round" stroke-linejoin="round" fill="none"/><path d="M 155 71 L 155 70 L 154 68 L 153 66 L 151 65 L 148 65 L 145 66 L 143 70 L 143 77 L 144 85 L 146 91 L 148 94 L 148 95 L 145 96 L 140 94 L 136 92 L 134 90 L 134 89" stroke="#ffffff" stroke-width="2" stroke-linecap="round" stroke-linejoin="round" fill="none"/><path d="M 161 78 L 160 78 L 159 77 L 160 76 L 166 73 L 174 71 L 177 69" stroke="#ffffff" stroke-width="2" stroke-linecap="round" stroke-linejoin="round" fill="none"/><path d="M 170 64 L 169 63 L 168 62 L 168 65 L 168 75 L 166 88 L 164 99 L 164 103" stroke="#ffffff" stroke-width="2" stroke-linecap="round" stroke-linejoin="round" fill="none"/><path d="M 195 66 L 192 66 L 189 67 L 187 73 L 185 84 L 185 93 L 186 98 L 187 102" stroke="#ffffff" stroke-width="2" stroke-linecap="round" stroke-linejoin="round" fill="none"/><path d="M 186 76 L 186 75 L 186 71 L 188 68 L 191 67 L 196 68 L 199 71 L 200 75 L 198 78 L 194 81 L 189 83 L 186 83 L 185 83 L 186 85 L 189 88 L 194 91 L 200 93 L 205 93" stroke="#ffffff" stroke-width="2" stroke-linecap="round" stroke-linejoin="round" fill="none"/><path d="M 213 78 L 210 80 L 209 82 L 210 84 L 214 84 L 218 83 L 221 81 L 222 79 L 220 76 L 217 75 L 214 77 L 210 81 L 208 87 L 208 92 L 212 95 L 219 94 L 225 90" stroke="#ffffff" stroke-width="2" stroke-linecap="round" stroke-linejoin="round" fill="none"/><path d="M 247 65 L 246 64 L 248 62 L 254 62 L 260 64 L 262 67 L 261 70 L 257 72 L 253 73 L 251 73 L 254 73 L 258 76 L 261 79 L 261 82 L 258 85 L 252 87 L 246 88 L 243 88 L 242 85" stroke="#ffffff" stroke-width="2" stroke-linecap="round" stroke-linejoin="round" fill="none"/><path d="M 280 67 L 278 67 L 278 66 L 279 66 L 283 65 L 287 67 L 288 70 L 287 74 L 282 78 L 276 80 L 272 80 L 271 80 L 272 80 L 274 80 L 279 80 L 284 80 L 291 80 L 298 80 L 299 80" stroke="#ffffff" stroke-width="2" stroke-linecap="round" stroke-linejoin="round" fill="none"/><path d="M 310 58 L 309 57 L 308 57 L 307 57 L 305 60 L 305 64 L 306 69 L 309 72 L 313 74 L 316 76 L 317 77 L 317 78 L 314 79 L 310 80 L 304 80 L 299 78 L 298 77" stroke="#ffffff" stroke-width="2" stroke-linecap="round" stroke-linejoin="round" fill="none"/><path d="M 304 64 L 304 63 L 305 61 L 308 60 L 316 60 L 328 60 L 331 60" stroke="#ffffff" stroke-width="2" stroke-linecap="round" stroke-linejoin="round" fill="none"/><path d="M 246 97 L 246 98 L 245 98 L 242 101 L 239 108 L 236 119 L 237 127 L 243 129 L 244 128" stroke="#ffffff" stroke-width="2" stroke-linecap="round" stroke-linejoin="round" fill="none"/><path d="M 262 102 L 261 102 L 260 102 L 258 102 L 258 104 L 258 106 L 260 109 L 264 111 L 268 113 L 270 114 L 270 115 L 267 116 L 262 117 L 257 117 L 256 117" stroke="#ffffff" stroke-width="2" stroke-linecap="round" stroke-linejoin="round" fill="none"/><path d="M 256 105 L 256 104 L 256 103 L 261 102 L 270 101 L 279 101" stroke="#ffffff" stroke-width="2" stroke-linecap="round" stroke-linejoin="round" fill="none"/><path d="M 287 105 L 286 105 L 285 104 L 284 105 L 283 107 L 282 111 L 281 115 L 281 116" stroke="#ffffff" stroke-width="2" stroke-linecap="round" stroke-linejoin="round" fill="none"/><path d="M 284 110 L 284 109 L 285 108 L 288 107 L 292 107 L 296 106 L 297 106 L 296 106 L 294 107 L 292 107 L 291 107 L 290 108 L 289 112 L 288 119 L 286 126 L 286 131" stroke="#ffffff" stroke-width="2" stroke-linecap="round" stroke-linejoin="round" fill="none"/><path d="M 309 92 L 308 91 L 308 90 L 308 92 L 307 99 L 306 108 L 306 114 L 305 119" stroke="#ffffff" stroke-width="2" stroke-linecap="round" stroke-linejoin="round" fill="none"/><path d="M 306 95 L 306 94 L 305 92 L 305 90 L 306 89 L 308 88 L 311 88 L 313 90 L 315 92 L 317 94 L 318 98 L 319 103 L 319 108 L 319 112 L 318 114 L 318 115" stroke="#ffffff" stroke-width="2" stroke-linecap="round" stroke-linejoin="round" fill="none"/><path d="M 309 101 L 309 100 L 309 98 L 309 97 L 311 96 L 313 96" stroke="#ffffff" stroke-width="2" stroke-linecap="round" stroke-linejoin="round" fill="none"/><path d="M 309 107 L 307 107 L 307 108 L 309 107 L 316 103 L 318 101" stroke="#ffffff" stroke-width="2" stroke-linecap="round" stroke-linejoin="round" fill="none"/><path d="M 334 84 L 334 82 L 335 82 L 339 85 L 342 93 L 343 103 L 339 112 L 333 117 L 327 121 L 326 121" stroke="#ffffff" stroke-width="2" stroke-linecap="round" stroke-linejoin="round" fill="none"/><path d="M 397 45 L 396 44 L 394 46 L 390 56 L 383 72 L 377 87 L 374 96 L 373 103 L 372 104" stroke="#ffffff" stroke-width="2" stroke-linecap="round" stroke-linejoin="round" fill="none"/><path d="M 431 64 L 429 63 L 428 61 L 426 60 L 424 60 L 421 62 L 417 69 L 414 77 L 413 83 L 417 86 L 425 85 L 432 82" stroke="#ffffff" stroke-width="2" stroke-linecap="round" stroke-linejoin="round" fill="none"/><path d="M 455 63 L 453 62 L 451 61 L 449 62 L 447 66 L 447 69 L 450 72 L 455 75 L 458 77 L 460 79 L 459 81 L 455 82 L 451 82 L 446 80 L 444 78" stroke="#ffffff" stroke-width="2" stroke-linecap="round" stroke-linejoin="round" fill="none"/><path d="M 448 66 L 447 65 L 447 64 L 448 62 L 455 62 L 463 62 L 472 63 L 475 63" stroke="#ffffff" stroke-width="2" stroke-linecap="round" stroke-linejoin="round" fill="none"/><path d="M 482 62 L 481 62 L 480 62 L 478 62 L 476 67 L 476 73 L 478 78 L 482 78 L 486 76 L 488 71 L 487 68 L 484 65 L 479 64 L 473 66 L 470 68" stroke="#ffffff" stroke-width="2" stroke-linecap="round" stroke-linejoin="round" fill="none"/><path d="M 541 25 L 539 26 L 537 27 L 536 31 L 535 41 L 535 52 L 534 60 L 533 64 L 533 65" stroke="#ffffff" stroke-width="2" stroke-linecap="round" stroke-linejoin="round" fill="none"/><path d="M 532 44 L 531 43 L 534 44 L 541 46 L 548 47" stroke="#ffffff" stroke-width="2" stroke-linecap="round" stroke-linejoin="round" fill="none"/><path d="M 554 39 L 553 38 L 554 37 L 558 36 L 561 36 L 563 36" stroke="#ffffff" stroke-width="2" stroke-linecap="round" stroke-linejoin="round" fill="none"/><path d="M 554 49 L 553 49 L 553 48 L 554 47 L 557 46 L 561 46 L 563 46 L 564 48 L 563 52 L 560 55 L 557 59 L 554 62 L 553 63" stroke="#ffffff" stroke-width="2" stroke-linecap="round" stroke-linejoin="round" fill="none"/><path d="M 574 47 L 573 47 L 573 46 L 574 45 L 578 44" stroke="#ffffff" stroke-width="2" stroke-linecap="round" stroke-linejoin="round" fill="none"/><path d="M 573 61 L 572 62 L 570 62 L 574 58 L 582 52 L 589 45 L 592 41" stroke="#ffffff" stroke-width="2" stroke-linecap="round" stroke-linejoin="round" fill="none"/><path d="M 598 42 L 599 41 L 601 40 L 604 40 L 605 41 L 604 44 L 602 50 L 598 56 L 595 60 L 594 61" stroke="#ffffff" stroke-width="2" stroke-linecap="round" stroke-linejoin="round" fill="none"/><path d="M 601 51 L 604 52 L 608 55 L 612 58" stroke="#ffffff" stroke-width="2" stroke-linecap="round" stroke-linejoin="round" fill="none"/><path d="M 618 46 L 619 44 L 621 41 L 625 39 L 629 37 L 633 36 L 635 36 L 637 36 L 638 38 L 638 42 L 636 46 L 633 51 L 630 55 L 626 59 L 623 61 L 621 62" stroke="#ffffff" stroke-width="2" stroke-linecap="round" stroke-linejoin="round" fill="none"/><path d="M 640 55 L 641 54 L 641 53 L 643 51 L 647 49 L 649 49 L 650 51 L 648 54 L 646 56 L 643 58 L 641 59 L 640 59 L 640 58 L 639 60 L 637 63 L 634 67 L 634 69" stroke="#ffffff" stroke-width="2" stroke-linecap="round" stroke-linejoin="round" fill="none"/><path d="M 652 60 L 653 59 L 660 59 L 669 58" stroke="#ffffff" stroke-width="2" stroke-linecap="round" stroke-linejoin="round" fill="none"/><path d="M 607 82 L 605 82 L 603 83 L 601 85 L 599 89 L 600 91 L 604 93 L 609 95 L 612 96 L 613 98 L 611 101 L 608 102 L 604 103 L 601 102" stroke="#ffffff" stroke-width="2" stroke-linecap="round" stroke-linejoin="round" fill="none"/><path d="M 600 85 L 600 84 L 600 82 L 602 81 L 608 81 L 617 82 L 624 83" stroke="#ffffff" stroke-width="2" stroke-linecap="round" stroke-linejoin="round" fill="none"/><path d="M 637 90 L 637 88 L 637 86 L 637 85 L 635 87 L 633 91 L 632 92" stroke="#ffffff" stroke-width="2" stroke-linecap="round" stroke-linejoin="round" fill="none"/><path d="M 656 79 L 651 79 L 646 84 L 642 92 L 638 101 L 634 109 L 632 113" stroke="#ffffff" stroke-width="2" stroke-linecap="round" stroke-linejoin="round" fill="none"/><path d="M 652 104 L 652 103 L 651 104" stroke="#ffffff" stroke-width="2" stroke-linecap="round" stroke-linejoin="round" fill="none"/><path d="M 576 85 L 574 85 L 571 85 L 567 86 L 564 89 L 560 92 L 557 96 L 555 98 L 555 99 L 558 100 L 565 102 L 573 103 L 581 105 L 585 106 L 585 107 L 584 107 L 583 106 L 582 103 L 580 99 L 578 93 L 576 88 L 574 85 L 573 83 L 573 82" stroke="#ffffff" stroke-width="2" stroke-linecap="round" stroke-linejoin="round" fill="none"/><path d="M 652 107 L 651 107 L 650 107 L 650 106" stroke="#ffffff" stroke-width="2" stroke-linecap="round" stroke-linejoin="round" fill="none"/><path d="M 35 146 L 34 144 L 33 142 L 32 141 L 31 148 L 29 161 L 29 173 L 30 180 L 30 181" stroke="#ffffff" stroke-width="2" stroke-linecap="round" stroke-linejoin="round" fill="none"/><path d="M 29 167 L 28 166 L 28 164 L 32 162 L 40 159 L 47 156 L 51 156" stroke="#ffffff" stroke-width="2" stroke-linecap="round" stroke-linejoin="round" fill="none"/><path d="M 50 138 L 49 137 L 47 136 L 47 140 L 47 150 L 47 163 L 48 175 L 48 183 L 48 186" stroke="#ffffff" stroke-width="2" stroke-linecap="round" stroke-linejoin="round" fill="none"/><path d="M 72 158 L 71 158 L 70 158 L 70 157 L 72 156 L 73 155" stroke="#ffffff" stroke-width="2" stroke-linecap="round" stroke-linejoin="round" fill="none"/><path d="M 72 165 L 69 167 L 70 167 L 74 166" stroke="#ffffff" stroke-width="2" stroke-linecap="round" stroke-linejoin="round" fill="none"/><path d="M 107 149 L 106 149 L 103 148 L 103 147 L 107 145 L 113 142 L 119 140 L 120 140" stroke="#ffffff" stroke-width="2" stroke-linecap="round" stroke-linejoin="round" fill="none"/><path d="M 108 149 L 106 149 L 104 149 L 102 153 L 101 161 L 102 169 L 105 175 L 109 177 L 114 176 L 119 173 L 120 169" stroke="#ffffff" stroke-width="2" stroke-linecap="round" stroke-linejoin="round" fill="none"/><path d="M 102 165 L 100 164 L 99 162 L 99 161 L 104 160 L 114 159 L 127 155 L 134 153" stroke="#ffffff" stroke-width="2" stroke-linecap="round" stroke-linejoin="round" fill="none"/><path d="M 151 148 L 150 147 L 148 145 L 147 145 L 145 148 L 142 155 L 138 163 L 135 170 L 133 173" stroke="#ffffff" stroke-width="2" stroke-linecap="round" stroke-linejoin="round" fill="none"/><path d="M 136 150 L 135 148 L 135 146 L 136 147 L 140 150 L 147 157 L 155 165 L 158 168" stroke="#ffffff" stroke-width="2" stroke-linecap="round" stroke-linejoin="round" fill="none"/><path d="M 57 202 L 55 202 L 55 201 L 54 203 L 55 209 L 56 218 L 56 224 L 55 229 L 52 230 L 49 230 L 46 228 L 44 223 L 43 216 L 43 208 L 45 200 L 49 194 L 55 191 L 62 190 L 70 194 L 74 201 L 74 208 L 71 217 L 66 224 L 60 228 L 55 231 L 53 230" stroke="#ffffff" stroke-width="2" stroke-linecap="round" stroke-linejoin="round" fill="none"/><path d="M 94 205 L 94 204 L 95 204" stroke="#ffffff" stroke-width="2" stroke-linecap="round" stroke-linejoin="round" fill="none"/><path d="M 94 215 L 92 216 L 91 216 L 93 216 L 98 212" stroke="#ffffff" stroke-width="2" stroke-linecap="round" stroke-linejoin="round" fill="none"/><path d="M 135 196 L 134 195 L 134 197 L 134 203 L 134 210 L 134 215 L 131 219 L 128 219 L 124 218 L 122 213 L 121 207 L 122 201 L 125 195 L 131 190 L 137 188 L 145 188 L 150 193 L 151 200 L 149 209 L 144 216 L 140 221 L 135 223 L 131 223 L 129 222" stroke="#ffffff" stroke-width="2" stroke-linecap="round" stroke-linejoin="round" fill="none"/><path d="M 226 145 L 226 143 L 226 141 L 225 142 L 223 148 L 220 155 L 217 162 L 216 165" stroke="#ffffff" stroke-width="2" stroke-linecap="round" stroke-linejoin="round" fill="none"/><path d="M 221 153 L 221 152 L 221 148 L 223 145 L 226 144 L 229 146 L 230 153 L 228 163 L 224 172 L 219 180 L 215 184" stroke="#ffffff" stroke-width="2" stroke-linecap="round" stroke-linejoin="round" fill="none"/><path d="M 216 162 L 216 160 L 216 158 L 218 157 L 222 158 L 227 159" stroke="#ffffff" stroke-width="2" stroke-linecap="round" stroke-linejoin="round" fill="none"/><path d="M 243 154 L 242 154 L 240 154 L 237 156 L 236 162 L 235 169" stroke="#ffffff" stroke-width="2" stroke-linecap="round" stroke-linejoin="round" fill="none"/><path d="M 239 161 L 239 159 L 239 156 L 241 154 L 245 154 L 248 157 L 248 163 L 247 172 L 243 180 L 238 186 L 234 189" stroke="#ffffff" stroke-width="2" stroke-linecap="round" stroke-linejoin="round" fill="none"/><path d="M 232 171 L 232 169 L 233 168 L 236 167 L 242 169 L 245 170" stroke="#ffffff" stroke-width="2" stroke-linecap="round" stroke-linejoin="round" fill="none"/><path d="M 267 148 L 266 147 L 266 146 L 266 150 L 266 157 L 266 166 L 266 172" stroke="#ffffff" stroke-width="2" stroke-linecap="round" stroke-linejoin="round" fill="none"/><path d="M 273 151 L 272 151 L 271 153 L 269 160 L 267 168 L 265 174 L 262 176 L 259 175 L 258 171 L 259 166 L 264 160 L 272 154 L 282 152 L 288 155 L 287 162 L 283 170 L 279 177 L 276 180" stroke="#ffffff" stroke-width="2" stroke-linecap="round" stroke-linejoin="round" fill="none"/><path d="M 304 139 L 302 139 L 300 138 L 298 142 L 297 153 L 297 165 L 298 173 L 299 175" stroke="#ffffff" stroke-width="2" stroke-linecap="round" stroke-linejoin="round" fill="none"/><path d="M 298 156 L 297 155 L 297 154 L 301 155 L 307 156 L 313 156" stroke="#ffffff" stroke-width="2" stroke-linecap="round" stroke-linejoin="round" fill="none"/><path d="M 322 157 L 321 157 L 319 156 L 320 155 L 324 153 L 328 151 L 332 150 L 335 149 L 336 150 L 335 153 L 333 158 L 329 165 L 325 171 L 323 175" stroke="#ffffff" stroke-width="2" stroke-linecap="round" stroke-linejoin="round" fill="none"/><path d="M 355 147 L 355 146 L 354 145 L 354 144 L 353 144 L 352 150 L 350 159 L 349 168 L 350 173" stroke="#ffffff" stroke-width="2" stroke-linecap="round" stroke-linejoin="round" fill="none"/><path d="M 364 150 L 364 148 L 364 145 L 366 145 L 368 145" stroke="#ffffff" stroke-width="2" stroke-linecap="round" stroke-linejoin="round" fill="none"/><path d="M 363 162 L 362 163 L 360 164 L 361 164 L 366 161 L 370 158" stroke="#ffffff" stroke-width="2" stroke-linecap="round" stroke-linejoin="round" fill="none"/><path d="M 390 144 L 389 143 L 388 142 L 387 143 L 386 150 L 384 160 L 384 168 L 385 171 L 388 170 L 394 164 L 398 158" stroke="#ffffff" stroke-width="2" stroke-linecap="round" stroke-linejoin="round" fill="none"/><path d="M 403 152 L 402 152 L 400 150 L 401 147 L 407 143 L 414 139 L 419 137 L 419 136" stroke="#ffffff" stroke-width="2" stroke-linecap="round" stroke-linejoin="round" fill="none"/><path d="M 413 133 L 412 133 L 411 133 L 409 139 L 407 151 L 404 164 L 403 170 L 403 172" stroke="#ffffff" stroke-width="2" stroke-linecap="round" stroke-linejoin="round" fill="none"/><path d="M 417 155 L 417 153 L 416 152 L 418 151 L 421 151 L 422 151" stroke="#ffffff" stroke-width="2" stroke-linecap="round" stroke-linejoin="round" fill="none"/><path d="M 419 165 L 417 166 L 416 165 L 420 163 L 426 158 L 428 156" stroke="#ffffff" stroke-width="2" stroke-linecap="round" stroke-linejoin="round" fill="none"/><path d="M 439 154 L 439 151 L 440 149 L 443 146 L 448 145 L 452 146 L 454 150 L 454 153 L 452 155 L 450 155 L 448 155 L 446 153 L 446 149 L 446 144 L 446 139 L 446 138 L 446 140 L 445 147 L 444 155 L 443 161 L 442 164" stroke="#ffffff" stroke-width="2" stroke-linecap="round" stroke-linejoin="round" fill="none"/><path d="M 455 134 L 456 132 L 457 129 L 459 129 L 462 133 L 468 139 L 470 141" stroke="#ffffff" stroke-width="2" stroke-linecap="round" stroke-linejoin="round" fill="none"/><path d="M 480 129 L 478 127 L 479 130 L 478 135 L 478 136" stroke="#ffffff" stroke-width="2" stroke-linecap="round" stroke-linejoin="round" fill="none"/><path d="M 473 142 L 471 142 L 469 144 L 467 148 L 466 152 L 467 153 L 470 152 L 474 150 L 478 148 L 481 148 L 482 152 L 479 158 L 473 164 L 466 169 L 461 171" stroke="#ffffff" stroke-width="2" stroke-linecap="round" stroke-linejoin="round" fill="none"/><path d="M 507 135 L 506 134 L 504 133 L 504 137 L 505 143 L 505 147 L 505 148" stroke="#ffffff" stroke-width="2" stroke-linecap="round" stroke-linejoin="round" fill="none"/><path d="M 506 136 L 506 135 L 506 132 L 506 130 L 509 128 L 513 126 L 518 126 L 522 126 L 522 127 L 521 131 L 520 135 L 518 138 L 518 139" stroke="#ffffff" stroke-width="2" stroke-linecap="round" stroke-linejoin="round" fill="none"/><path d="M 510 142 L 509 140 L 508 138 L 509 137 L 512 136 L 514 136" stroke="#ffffff" stroke-width="2" stroke-linecap="round" stroke-linejoin="round" fill="none"/><path d="M 506 149 L 505 149 L 504 149 L 504 148 L 508 146 L 513 144 L 516 144" stroke="#ffffff" stroke-width="2" stroke-linecap="round" stroke-linejoin="round" fill="none"/><path d="M 498 164 L 495 165 L 497 163 L 505 159 L 516 155 L 526 150 L 530 147 L 530 146" stroke="#ffffff" stroke-width="2" stroke-linecap="round" stroke-linejoin="round" fill="none"/><path d="M 517 141 L 516 141 L 514 141 L 514 145 L 513 155 L 513 166 L 512 174 L 511 180 L 511 181" stroke="#ffffff" stroke-width="2" stroke-linecap="round" stroke-linejoin="round" fill="none"/><path d="M 542 151 L 540 151 L 538 153 L 536 156 L 536 159" stroke="#ffffff" stroke-width="2" stroke-linecap="round" stroke-linejoin="round" fill="none"/><path d="M 549 148 L 550 146 L 550 145 L 550 146 L 550 151 L 550 154" stroke="#ffffff" stroke-width="2" stroke-linecap="round" stroke-linejoin="round" fill="none"/><path d="M 560 158 L 559 157 L 559 156 L 563 153 L 571 150 L 577 148 L 578 149 L 577 152 L 574 156 L 572 159 L 571 160 L 570 160 L 569 158 L 568 154 L 567 149 L 568 144 L 569 141 L 570 140 L 570 144 L 568 152 L 565 159 L 563 164 L 563 167" stroke="#ffffff" stroke-width="2" stroke-linecap="round" stroke-linejoin="round" fill="none"/><path d="M 580 139 L 579 137 L 580 138 L 585 142 L 593 148 L 595 149" stroke="#ffffff" stroke-width="2" stroke-linecap="round" stroke-linejoin="round" fill="none"/><path d="M 605 138 L 602 138 L 599 138 L 597 144 L 597 153 L 596 158 L 595 161 L 594 161 L 594 160 L 595 158 L 598 155 L 600 155 L 601 155 L 603 158 L 606 160 L 611 160 L 618 157 L 620 156" stroke="#ffffff" stroke-width="2" stroke-linecap="round" stroke-linejoin="round" fill="none"/><path d="M 629 138 L 628 136 L 628 135 L 627 136 L 626 143 L 626 150 L 625 156 L 626 158 L 629 158 L 634 155 L 635 154" stroke="#ffffff" stroke-width="2" stroke-linecap="round" stroke-linejoin="round" fill="none"/><path d="M 638 130 L 636 130 L 635 134 L 635 138" stroke="#ffffff" stroke-width="2" stroke-linecap="round" stroke-linejoin="round" fill="none"/><path d="M 640 132 L 640 131 L 639 136" stroke="#ffffff" stroke-width="2" stroke-linecap="round" stroke-linejoin="round" fill="none"/><path d="M 225 204 L 224 204 L 222 204 L 220 207 L 219 216 L 219 227 L 221 232 L 225 233 L 231 229 L 234 225" stroke="#ffffff" stroke-width="2" stroke-linecap="round" stroke-linejoin="round" fill="none"/><path d="M 239 211 L 238 210 L 240 207 L 244 204 L 250 201 L 256 198 L 257 198" stroke="#ffffff" stroke-width="2" stroke-linecap="round" stroke-linejoin="round" fill="none"/><path d="M 251 196 L 250 196 L 248 196 L 247 196 L 246 200 L 245 209 L 245 220 L 245 229 L 245 231" stroke="#ffffff" stroke-width="2" stroke-linecap="round" stroke-linejoin="round" fill="none"/><path d="M 258 213 L 257 212 L 256 209 L 256 208 L 258 207 L 260 207" stroke="#ffffff" stroke-width="2" stroke-linecap="round" stroke-linejoin="round" fill="none"/><path d="M 256 222 L 255 223 L 253 223 L 252 223 L 255 221 L 262 216 L 269 212" stroke="#ffffff" stroke-width="2" stroke-linecap="round" stroke-linejoin="round" fill="none"/><path d="M 279 209 L 276 208 L 275 209 L 275 212 L 275 217 L 278 220" stroke="#ffffff" stroke-width="2" stroke-linecap="round" stroke-linejoin="round" fill="none"/><path d="M 284 209 L 284 206 L 286 203 L 290 200 L 296 198 L 300 197 L 301 196" stroke="#ffffff" stroke-width="2" stroke-linecap="round" stroke-linejoin="round" fill="none"/><path d="M 293 193 L 293 192 L 292 191 L 292 192 L 293 197 L 293 208 L 291 220 L 288 230 L 283 236 L 282 238" stroke="#ffffff" stroke-width="2" stroke-linecap="round" stroke-linejoin="round" fill="none"/><path d="M 319 199 L 317 197 L 316 197 L 316 200 L 317 203 L 319 206" stroke="#ffffff" stroke-width="2" stroke-linecap="round" stroke-linejoin="round" fill="none"/><path d="M 328 205 L 325 204 L 323 203 L 320 204 L 318 207 L 317 211 L 316 216 L 316 219 L 320 220 L 325 219 L 326 218" stroke="#ffffff" stroke-width="2" stroke-linecap="round" stroke-linejoin="round" fill="none"/><path d="M 332 190 L 329 191 L 328 192 L 329 195 L 329 196" stroke="#ffffff" stroke-width="2" stroke-linecap="round" stroke-linejoin="round" fill="none"/><path d="M 340 189 L 339 188 L 338 189 L 337 193" stroke="#ffffff" stroke-width="2" stroke-linecap="round" stroke-linejoin="round" fill="none"/><path d="M 367 195 L 366 195 L 365 195 L 365 194 L 368 192 L 373 190 L 377 190 L 378 194 L 376 199 L 371 205 L 368 208 L 367 208 L 369 205 L 373 202 L 377 201 L 379 203 L 379 209 L 375 215 L 370 220 L 365 223 L 361 224" stroke="#ffffff" stroke-width="2" stroke-linecap="round" stroke-linejoin="round" fill="none"/><path d="M 401 195 L 400 195 L 396 195 L 394 195 L 394 200 L 393 207 L 395 213 L 398 215 L 400 213 L 403 209 L 405 204 L 405 199 L 404 195 L 401 193 L 397 193 L 394 198 L 393 201" stroke="#ffffff" stroke-width="2" stroke-linecap="round" stroke-linejoin="round" fill="none"/><path d="M 424 189 L 422 188 L 420 189 L 418 193 L 416 198 L 415 203 L 415 204" stroke="#ffffff" stroke-width="2" stroke-linecap="round" stroke-linejoin="round" fill="none"/><path d="M 429 192 L 429 190 L 430 188 L 434 187 L 439 187 L 440 187" stroke="#ffffff" stroke-width="2" stroke-linecap="round" stroke-linejoin="round" fill="none"/><path d="M 424 208 L 423 208 L 422 207 L 424 205 L 429 202 L 435 200 L 438 199 L 440 200 L 440 203 L 439 207 L 437 210 L 434 212 L 432 213 L 430 211 L 429 208 L 429 206 L 429 205 L 429 206 L 427 211 L 425 216" stroke="#ffffff" stroke-width="2" stroke-linecap="round" stroke-linejoin="round" fill="none"/><path d="M 469 198 L 469 196 L 472 192 L 479 187 L 486 184 L 487 183" stroke="#ffffff" stroke-width="2" stroke-linecap="round" stroke-linejoin="round" fill="none"/><path d="M 481 183 L 480 183 L 479 183 L 478 184 L 478 188 L 480 196 L 480 206 L 478 214 L 475 219 L 472 220 L 470 219 L 468 216 L 469 211 L 473 205 L 479 199 L 486 196 L 492 198 L 493 206 L 491 213 L 487 218 L 484 221 L 483 221" stroke="#ffffff" stroke-width="2" stroke-linecap="round" stroke-linejoin="round" fill="none"/><path d="M 504 183 L 504 181 L 504 185 L 503 194" stroke="#ffffff" stroke-width="2" stroke-linecap="round" stroke-linejoin="round" fill="none"/><path d="M 509 198 L 510 198 L 510 200 L 510 204 L 510 207 L 512 208" stroke="#ffffff" stroke-width="2" stroke-linecap="round" stroke-linejoin="round" fill="none"/><path d="M 519 198 L 520 198 L 521 196 L 522 195 L 522 198 L 520 204 L 519 210 L 519 211" stroke="#ffffff" stroke-width="2" stroke-linecap="round" stroke-linejoin="round" fill="none"/><path d="M 537 198 L 536 198 L 535 197 L 536 195 L 543 192 L 553 188 L 562 184 L 564 183" stroke="#ffffff" stroke-width="2" stroke-linecap="round" stroke-linejoin="round" fill="none"/><path d="M 550 183 L 548 181 L 548 180 L 547 183 L 546 191 L 544 202 L 542 212 L 541 217 L 541 218" stroke="#ffffff" stroke-width="2" stroke-linecap="round" stroke-linejoin="round" fill="none"/><path d="M 551 205 L 551 203 L 552 200 L 555 198 L 560 198 L 564 198" stroke="#ffffff" stroke-width="2" stroke-linecap="round" stroke-linejoin="round" fill="none"/><path d="M 555 211 L 553 211 L 552 211 L 557 209 L 565 205" stroke="#ffffff" stroke-width="2" stroke-linecap="round" stroke-linejoin="round" fill="none"/><path d="M 220 260 L 217 260 L 215 261 L 214 267 L 214 275 L 214 282 L 216 284" stroke="#ffffff" stroke-width="2" stroke-linecap="round" stroke-linejoin="round" fill="none"/><path d="M 227 262 L 229 264 L 233 269 L 237 276 L 239 279" stroke="#ffffff" stroke-width="2" stroke-linecap="round" stroke-linejoin="round" fill="none"/><path d="M 235 250 L 233 249 L 232 250 L 232 254 L 233 255" stroke="#ffffff" stroke-width="2" stroke-linecap="round" stroke-linejoin="round" fill="none"/><path d="M 240 249 L 240 248 L 239 248 L 238 251 L 238 258" stroke="#ffffff" stroke-width="2" stroke-linecap="round" stroke-linejoin="round" fill="none"/><path d="M 254 266 L 251 265 L 250 264 L 250 266 L 251 267" stroke="#ffffff" stroke-width="2" stroke-linecap="round" stroke-linejoin="round" fill="none"/><path d="M 259 266 L 258 266 L 256 266 L 255 268 L 255 269" stroke="#ffffff" stroke-width="2" stroke-linecap="round" stroke-linejoin="round" fill="none"/><path d="M 263 265 L 262 265 L 261 265 L 260 269 L 259 274" stroke="#ffffff" stroke-width="2" stroke-linecap="round" stroke-linejoin="round" fill="none"/><path d="M 280 249 L 278 249 L 276 249 L 275 253 L 275 258 L 274 263" stroke="#ffffff" stroke-width="2" stroke-linecap="round" stroke-linejoin="round" fill="none"/><path d="M 273 258 L 273 257 L 273 253 L 273 250 L 276 248 L 279 248 L 283 251 L 285 256 L 285 263 L 281 271 L 276 279 L 272 285" stroke="#ffffff" stroke-width="2" stroke-linecap="round" stroke-linejoin="round" fill="none"/><path d="M 306 261 L 306 258 L 307 255 L 312 250 L 320 246 L 326 244 L 327 244" stroke="#ffffff" stroke-width="2" stroke-linecap="round" stroke-linejoin="round" fill="none"/><path d="M 318 244 L 317 244 L 316 244 L 315 244 L 315 249 L 316 261 L 317 272 L 319 278 L 319 280 L 319 281" stroke="#ffffff" stroke-width="2" stroke-linecap="round" stroke-linejoin="round" fill="none"/><path d="M 320 256 L 319 255 L 318 254 L 315 256 L 312 263 L 309 269 L 308 273" stroke="#ffffff" stroke-width="2" stroke-linecap="round" stroke-linejoin="round" fill="none"/><path d="M 314 257 L 315 256 L 317 256 L 320 257 L 323 259" stroke="#ffffff" stroke-width="2" stroke-linecap="round" stroke-linejoin="round" fill="none"/><path d="M 327 248 L 326 246 L 326 243 L 328 241 L 331 240 L 334 239 L 337 239 L 339 239 L 339 240 L 338 244 L 336 249 L 335 254" stroke="#ffffff" stroke-width="2" stroke-linecap="round" stroke-linejoin="round" fill="none"/><path d="M 331 251 L 331 250 L 330 249 L 330 247 L 333 246 L 334 246" stroke="#ffffff" stroke-width="2" stroke-linecap="round" stroke-linejoin="round" fill="none"/><path d="M 331 258 L 330 259 L 329 259 L 332 256 L 336 252 L 338 248" stroke="#ffffff" stroke-width="2" stroke-linecap="round" stroke-linejoin="round" fill="none"/><path d="M 333 241 L 332 241 L 330 245 L 330 254 L 329 265 L 330 272 L 332 274 L 335 272" stroke="#ffffff" stroke-width="2" stroke-linecap="round" stroke-linejoin="round" fill="none"/><path d="M 349 254 L 350 253 L 350 252 L 347 255 L 343 260 L 338 264 L 336 265" stroke="#ffffff" stroke-width="2" stroke-linecap="round" stroke-linejoin="round" fill="none"/><path d="M 330 254 L 330 253 L 331 253 L 334 255 L 340 259 L 347 264 L 356 267 L 359 267" stroke="#ffffff" stroke-width="2" stroke-linecap="round" stroke-linejoin="round" fill="none"/><path d="M 366 248 L 365 248 L 365 247 L 365 246 L 369 244 L 375 243 L 380 242" stroke="#ffffff" stroke-width="2" stroke-linecap="round" stroke-linejoin="round" fill="none"/><path d="M 358 262 L 358 261 L 360 259 L 367 256 L 377 254 L 384 252 L 385 252" stroke="#ffffff" stroke-width="2" stroke-linecap="round" stroke-linejoin="round" fill="none"/><path d="M 373 256 L 372 256 L 370 256 L 369 258 L 368 263 L 367 270 L 367 275 L 368 276 L 370 274" stroke="#ffffff" stroke-width="2" stroke-linecap="round" stroke-linejoin="round" fill="none"/><path d="M 378 256 L 378 255 L 378 254 L 378 255 L 379 259 L 382 264 L 385 269 L 388 271 L 393 268 L 398 263" stroke="#ffffff" stroke-width="2" stroke-linecap="round" stroke-linejoin="round" fill="none"/><path d="M 414 249 L 414 248 L 413 247 L 413 245 L 417 243 L 424 240 L 432 237 L 437 235 L 438 234" stroke="#ffffff" stroke-width="2" stroke-linecap="round" stroke-linejoin="round" fill="none"/><path d="M 423 234 L 422 234 L 421 237 L 421 248 L 421 262 L 422 271 L 424 273" stroke="#ffffff" stroke-width="2" stroke-linecap="round" stroke-linejoin="round" fill="none"/><path d="M 435 244 L 433 244 L 431 245 L 428 253 L 424 265 L 420 273 L 417 277 L 415 276 L 413 272 L 413 266 L 417 259 L 423 253 L 431 250 L 438 251 L 441 257 L 440 263 L 438 268 L 437 271" stroke="#ffffff" stroke-width="2" stroke-linecap="round" stroke-linejoin="round" fill="none"/><path d="M 459 246 L 458 245 L 459 243 L 463 242 L 467 242 L 468 241" stroke="#ffffff" stroke-width="2" stroke-linecap="round" stroke-linejoin="round" fill="none"/><path d="M 458 252 L 456 252 L 455 251 L 456 250 L 461 248 L 466 247 L 470 245 L 471 245" stroke="#ffffff" stroke-width="2" stroke-linecap="round" stroke-linejoin="round" fill="none"/><path d="M 465 237 L 464 237 L 464 236 L 464 238 L 464 245 L 462 254 L 459 263 L 457 269 L 454 270 L 453 268 L 453 265 L 454 262 L 457 260 L 461 259 L 466 258 L 469 258" stroke="#ffffff" stroke-width="2" stroke-linecap="round" stroke-linejoin="round" fill="none"/><path d="M 481 260 L 480 258 L 480 256 L 484 251 L 491 248 L 496 248 L 497 251 L 496 255 L 494 258 L 492 260 L 491 261 L 489 259 L 489 255 L 489 249 L 491 242 L 493 237 L 494 237 L 494 239 L 492 246 L 488 255 L 484 263 L 483 268" stroke="#ffffff" stroke-width="2" stroke-linecap="round" stroke-linejoin="round" fill="none"/><path d="M 505 238 L 505 236 L 505 234 L 506 234 L 509 238 L 511 244 L 511 246" stroke="#ffffff" stroke-width="2" stroke-linecap="round" stroke-linejoin="round" fill="none"/><path d="M 507 264 L 507 263 L 506 261 L 510 258 L 515 256 L 518 257 L 518 260 L 514 265 L 508 269 L 506 271" stroke="#ffffff" stroke-width="2" stroke-linecap="round" stroke-linejoin="round" fill="none"/><path d="M 533 244 L 532 242 L 533 239 L 539 236 L 548 233 L 555 232 L 559 232" stroke="#ffffff" stroke-width="2" stroke-linecap="round" stroke-linejoin="round" fill="none"/><path d="M 548 228 L 547 228 L 546 227 L 545 230 L 543 239 L 540 252 L 538 262 L 538 268 L 538 270" stroke="#ffffff" stroke-width="2" stroke-linecap="round" stroke-linejoin="round" fill="none"/><path d="M 552 253 L 552 251 L 552 248 L 554 246 L 557 245 L 561 245" stroke="#ffffff" stroke-width="2" stroke-linecap="round" stroke-linejoin="round" fill="none"/><path d="M 554 258 L 553 258 L 551 259 L 551 260 L 555 260 L 565 258 L 570 256" stroke="#ffffff" stroke-width="2" stroke-linecap="round" stroke-linejoin="round" fill="none"/><path d="M 80 324 L 79 322 L 78 320 L 77 321 L 76 325 L 75 331 L 74 337 L 75 341 L 80 340 L 87 337 L 92 335 L 94 338 L 91 345 L 86 353 L 81 359 L 78 361 L 77 362" stroke="#ffffff" stroke-width="2" stroke-linecap="round" stroke-linejoin="round" fill="none"/><path d="M 76 331 L 75 329 L 76 325 L 81 321 L 88 319 L 94 317" stroke="#ffffff" stroke-width="2" stroke-linecap="round" stroke-linejoin="round" fill="none"/><path d="M 116 338 L 116 337 L 115 333 L 115 330 L 115 328 L 114 331 L 112 337 L 109 346 L 108 352 L 109 356 L 113 355 L 116 353" stroke="#ffffff" stroke-width="2" stroke-linecap="round" stroke-linejoin="round" fill="none"/><path d="M 160 327 L 159 326 L 157 325 L 155 324 L 153 326 L 151 331 L 149 337 L 148 341 L 150 345 L 154 346 L 159 346" stroke="#ffffff" stroke-width="2" stroke-linecap="round" stroke-linejoin="round" fill="none"/><path d="M 160 305 L 159 305 L 156 306 L 155 310 L 157 315" stroke="#ffffff" stroke-width="2" stroke-linecap="round" stroke-linejoin="round" fill="none"/><path d="M 168 303 L 168 301 L 168 300 L 168 302 L 169 309" stroke="#ffffff" stroke-width="2" stroke-linecap="round" stroke-linejoin="round" fill="none"/><path d="M 193 314 L 190 312 L 189 312 L 189 315 L 189 319" stroke="#ffffff" stroke-width="2" stroke-linecap="round" stroke-linejoin="round" fill="none"/><path d="M 184 320 L 183 320 L 180 321 L 178 324 L 176 330 L 176 335 L 177 336 L 178 336 L 181 335 L 184 334 L 188 334 L 190 336 L 190 340 L 185 344 L 179 347 L 172 349" stroke="#ffffff" stroke-width="2" stroke-linecap="round" stroke-linejoin="round" fill="none"/><path d="M 213 324 L 213 323 L 212 322 L 211 322 L 211 327 L 212 333 L 214 338 L 215 340" stroke="#ffffff" stroke-width="2" stroke-linecap="round" stroke-linejoin="round" fill="none"/><path d="M 224 319 L 224 318 L 222 320 L 222 326 L 222 333 L 223 334" stroke="#ffffff" stroke-width="2" stroke-linecap="round" stroke-linejoin="round" fill="none"/><path d="M 239 335 L 238 335 L 238 333 L 241 329 L 247 323 L 253 320 L 255 319" stroke="#ffffff" stroke-width="2" stroke-linecap="round" stroke-linejoin="round" fill="none"/><path d="M 247 315 L 246 315 L 245 314 L 245 316 L 244 323 L 244 333 L 245 340 L 247 341 L 251 339 L 256 334 L 257 332" stroke="#ffffff" stroke-width="2" stroke-linecap="round" stroke-linejoin="round" fill="none"/><path d="M 260 327 L 259 327 L 257 325 L 258 323 L 262 320 L 268 318 L 272 318 L 274 320 L 273 324 L 271 328 L 268 331 L 266 332 L 264 331 L 264 327 L 264 323 L 265 322 L 265 325 L 264 331 L 262 338 L 260 343" stroke="#ffffff" stroke-width="2" stroke-linecap="round" stroke-linejoin="round" fill="none"/><path d="M 277 334 L 277 332 L 280 332 L 284 333 L 285 336 L 283 341 L 278 345 L 276 346" stroke="#ffffff" stroke-width="2" stroke-linecap="round" stroke-linejoin="round" fill="none"/><path d="M 291 320 L 291 319 L 289 316 L 290 314 L 296 312 L 302 311 L 307 311 L 309 311 L 308 311 L 307 313 L 304 318 L 301 325 L 299 333 L 300 340 L 306 343 L 311 343" stroke="#ffffff" stroke-width="2" stroke-linecap="round" stroke-linejoin="round" fill="none"/><path d="M 357 294 L 356 292 L 355 292 L 351 295 L 347 301 L 341 308 L 339 310" stroke="#ffffff" stroke-width="2" stroke-linecap="round" stroke-linejoin="round" fill="none"/><path d="M 332 315 L 332 313 L 335 310 L 346 305 L 358 300 L 367 299 L 369 299" stroke="#ffffff" stroke-width="2" stroke-linecap="round" stroke-linejoin="round" fill="none"/><path d="M 346 312 L 345 312 L 343 312 L 343 314 L 343 319 L 343 325 L 344 329" stroke="#ffffff" stroke-width="2" stroke-linecap="round" stroke-linejoin="round" fill="none"/><path d="M 347 320 L 347 318 L 347 314 L 349 310 L 353 307 L 358 308 L 360 309 L 361 312 L 360 315 L 357 319" stroke="#ffffff" stroke-width="2" stroke-linecap="round" stroke-linejoin="round" fill="none"/><path d="M 349 321 L 348 320 L 348 318 L 348 316 L 351 315 L 354 315" stroke="#ffffff" stroke-width="2" stroke-linecap="round" stroke-linejoin="round" fill="none"/><path d="M 348 328 L 347 328 L 348 327 L 351 323 L 356 318 L 357 315" stroke="#ffffff" stroke-width="2" stroke-linecap="round" stroke-linejoin="round" fill="none"/><path d="M 354 303 L 353 303 L 352 304 L 352 311 L 352 323 L 353 333 L 353 339 L 353 342" stroke="#ffffff" stroke-width="2" stroke-linecap="round" stroke-linejoin="round" fill="none"/><path d="M 349 333 L 348 331 L 347 329 L 349 327 L 354 326 L 357 326" stroke="#ffffff" stroke-width="2" stroke-linecap="round" stroke-linejoin="round" fill="none"/><path d="M 346 346 L 342 347 L 341 347 L 346 345 L 356 340 L 368 334" stroke="#ffffff" stroke-width="2" stroke-linecap="round" stroke-linejoin="round" fill="none"/><path d="M 396 318 L 396 317 L 395 316 L 394 315 L 392 314 L 390 316 L 386 319 L 381 324 L 377 328 L 376 330 L 378 331 L 385 331 L 395 328 L 401 327" stroke="#ffffff" stroke-width="2" stroke-linecap="round" stroke-linejoin="round" fill="none"/><path d="M 418 308 L 416 307 L 414 307 L 412 311 L 410 318 L 410 326 L 411 330 L 415 332 L 419 332 L 423 329" stroke="#ffffff" stroke-width="2" stroke-linecap="round" stroke-linejoin="round" fill="none"/><path d="M 430 314 L 429 313 L 428 311 L 431 309 L 437 305 L 445 302 L 451 301 L 453 301 L 453 300" stroke="#ffffff" stroke-width="2" stroke-linecap="round" stroke-linejoin="round" fill="none"/><path d="M 448 295 L 447 294 L 446 292 L 446 291 L 445 294 L 444 303 L 440 314 L 436 324 L 434 330 L 433 333" stroke="#ffffff" stroke-width="2" stroke-linecap="round" stroke-linejoin="round" fill="none"/><path d="M 449 317 L 448 317 L 447 315 L 447 314 L 450 314 L 455 314 L 456 315" stroke="#ffffff" stroke-width="2" stroke-linecap="round" stroke-linejoin="round" fill="none"/><path d="M 450 326 L 448 326 L 446 326 L 447 326 L 454 323 L 461 319" stroke="#ffffff" stroke-width="2" stroke-linecap="round" stroke-linejoin="round" fill="none"/><path d="M 93 372 L 92 371 L 91 373 L 90 379 L 90 380" stroke="#ffffff" stroke-width="2" stroke-linecap="round" stroke-linejoin="round" fill="none"/><path d="M 87 392 L 86 391 L 86 386 L 91 380 L 97 373 L 102 372" stroke="#ffffff" stroke-width="2" stroke-linecap="round" stroke-linejoin="round" fill="none"/><path d="M 95 381 L 94 381 L 92 383 L 91 387 L 92 389 L 93 390" stroke="#ffffff" stroke-width="2" stroke-linecap="round" stroke-linejoin="round" fill="none"/><path d="M 101 376 L 100 376 L 99 375 L 98 377 L 97 381 L 96 384" stroke="#ffffff" stroke-width="2" stroke-linecap="round" stroke-linejoin="round" fill="none"/><path d="M 87 401 L 86 399 L 87 396 L 93 390 L 102 384 L 105 382" stroke="#ffffff" stroke-width="2" stroke-linecap="round" stroke-linejoin="round" fill="none"/><path d="M 93 394 L 91 395 L 88 400 L 85 410 L 82 421 L 81 428 L 81 432" stroke="#ffffff" stroke-width="2" stroke-linecap="round" stroke-linejoin="round" fill="none"/><path d="M 103 392 L 100 392 L 96 395 L 93 401 L 93 403" stroke="#ffffff" stroke-width="2" stroke-linecap="round" stroke-linejoin="round" fill="none"/><path d="M 103 398 L 102 398 L 99 399 L 97 402 L 97 406 L 97 407 L 99 407" stroke="#ffffff" stroke-width="2" stroke-linecap="round" stroke-linejoin="round" fill="none"/><path d="M 104 401 L 103 402 L 102 403 L 100 408 L 98 415 L 97 419" stroke="#ffffff" stroke-width="2" stroke-linecap="round" stroke-linejoin="round" fill="none"/><path d="M 108 382 L 108 379 L 110 376 L 113 375 L 116 375 L 118 375 L 119 374 L 118 373 L 116 373 L 114 373 L 112 375 L 111 377 L 111 381 L 110 386 L 109 396 L 109 405 L 109 410 L 109 411" stroke="#ffffff" stroke-width="2" stroke-linecap="round" stroke-linejoin="round" fill="none"/><path d="M 110 394 L 109 392 L 108 390 L 109 388 L 112 386 L 114 384 L 116 382 L 117 385 L 118 390 L 118 396 L 118 402 L 118 406" stroke="#ffffff" stroke-width="2" stroke-linecap="round" stroke-linejoin="round" fill="none"/><path d="M 111 401 L 111 399 L 111 395 L 114 392 L 117 391 L 118 391" stroke="#ffffff" stroke-width="2" stroke-linecap="round" stroke-linejoin="round" fill="none"/><path d="M 117 397 L 116 398 L 115 398 L 115 401 L 114 407 L 111 416 L 109 422 L 108 425" stroke="#ffffff" stroke-width="2" stroke-linecap="round" stroke-linejoin="round" fill="none"/><path d="M 114 410 L 115 410 L 118 410 L 123 410 L 128 410 L 135 408" stroke="#ffffff" stroke-width="2" stroke-linecap="round" stroke-linejoin="round" fill="none"/><path d="M 147 380 L 144 379 L 144 377 L 148 375 L 153 375 L 154 375" stroke="#ffffff" stroke-width="2" stroke-linecap="round" stroke-linejoin="round" fill="none"/><path d="M 146 389 L 144 389 L 144 388 L 148 385 L 153 383 L 156 381" stroke="#ffffff" stroke-width="2" stroke-linecap="round" stroke-linejoin="round" fill="none"/><path d="M 152 369 L 150 367 L 150 369 L 151 376 L 151 387 L 150 397 L 148 403 L 147 404 L 144 404 L 143 403 L 142 401 L 144 400 L 149 398 L 156 395 L 164 391 L 168 389" stroke="#ffffff" stroke-width="2" stroke-linecap="round" stroke-linejoin="round" fill="none"/><path d="M 176 372 L 175 371 L 173 371 L 173 373 L 173 379 L 173 388 L 173 396 L 173 401 L 173 403" stroke="#ffffff" stroke-width="2" stroke-linecap="round" stroke-linejoin="round" fill="none"/><path d="M 168 385 L 168 384 L 166 381 L 166 378 L 167 376 L 170 375 L 172 375" stroke="#ffffff" stroke-width="2" stroke-linecap="round" stroke-linejoin="round" fill="none"/><path d="M 169 397 L 168 397 L 166 398 L 165 397 L 167 394 L 172 389 L 178 383 L 184 379 L 189 379 L 191 381 L 190 386 L 188 392 L 187 396 L 186 397" stroke="#ffffff" stroke-width="2" stroke-linecap="round" stroke-linejoin="round" fill="none"/><path d="M 203 368 L 202 368 L 201 368 L 201 372 L 201 377" stroke="#ffffff" stroke-width="2" stroke-linecap="round" stroke-linejoin="round" fill="none"/><path d="M 211 366 L 211 365 L 211 368 L 211 375 L 209 386 L 203 397 L 195 404 L 187 407 L 185 408" stroke="#ffffff" stroke-width="2" stroke-linecap="round" stroke-linejoin="round" fill="none"/><path d="M 234 373 L 234 375 L 233 381 L 231 388 L 229 392 L 228 393 L 228 389 L 227 384 L 228 378 L 231 375 L 234 373 L 237 374 L 240 377 L 241 382 L 240 387 L 238 393 L 236 396" stroke="#ffffff" stroke-width="2" stroke-linecap="round" stroke-linejoin="round" fill="none"/><path d="M 255 377 L 254 376 L 253 375 L 256 373 L 259 374 L 262 377 L 262 383 L 258 389 L 254 392 L 250 393 L 249 390 L 251 386 L 257 383 L 265 381 L 276 379 L 285 378 L 290 377" stroke="#ffffff" stroke-width="2" stroke-linecap="round" stroke-linejoin="round" fill="none"/><path d="M 276 366 L 276 367 L 276 376 L 274 390 L 269 402 L 265 408" stroke="#ffffff" stroke-width="2" stroke-linecap="round" stroke-linejoin="round" fill="none"/><path d="M 306 374 L 305 373 L 306 372 L 310 370 L 313 370" stroke="#ffffff" stroke-width="2" stroke-linecap="round" stroke-linejoin="round" fill="none"/><path d="M 299 383 L 298 383 L 297 383 L 300 381 L 306 378 L 313 375 L 317 373 L 318 372" stroke="#ffffff" stroke-width="2" stroke-linecap="round" stroke-linejoin="round" fill="none"/><path d="M 312 363 L 311 364 L 310 368 L 309 378 L 308 389 L 308 395 L 306 398 L 304 398 L 301 398 L 300 396 L 300 394 L 303 392 L 309 390 L 317 387 L 324 385" stroke="#ffffff" stroke-width="2" stroke-linecap="round" stroke-linejoin="round" fill="none"/><path d="M 331 377 L 331 373 L 333 370 L 339 367 L 345 365 L 350 364 L 351 364" stroke="#ffffff" stroke-width="2" stroke-linecap="round" stroke-linejoin="round" fill="none"/><path d="M 344 360 L 343 360 L 341 360 L 340 362 L 338 371 L 336 383 L 335 393 L 334 398 L 335 399" stroke="#ffffff" stroke-width="2" stroke-linecap="round" stroke-linejoin="round" fill="none"/><path d="M 346 382 L 346 380 L 346 377 L 347 376 L 350 374 L 353 374" stroke="#ffffff" stroke-width="2" stroke-linecap="round" stroke-linejoin="round" fill="none"/><path d="M 347 394 L 344 395 L 343 395 L 344 394 L 351 389 L 359 385" stroke="#ffffff" stroke-width="2" stroke-linecap="round" stroke-linejoin="round" fill="none"/><path d="M 386 365 L 384 366 L 382 371 L 379 384 L 378 394 L 378 398 L 380 399 L 381 398 L 384 393 L 388 386 L 393 379 L 399 373 L 400 372" stroke="#ffffff" stroke-width="2" stroke-linecap="round" stroke-linejoin="round" fill="none"/><path d="M 426 362 L 425 361 L 422 359 L 421 359 L 418 363 L 413 372 L 407 381 L 403 388 L 403 390" stroke="#ffffff" stroke-width="2" stroke-linecap="round" stroke-linejoin="round" fill="none"/><path d="M 409 378 L 410 377 L 410 376 L 411 379 L 411 387 L 411 397 L 412 402" stroke="#ffffff" stroke-width="2" stroke-linecap="round" stroke-linejoin="round" fill="none"/><path d="M 431 389 L 430 386 L 433 381 L 441 373 L 450 366 L 455 361 L 458 360 L 459 362 L 458 365 L 455 370 L 451 375 L 447 379" stroke="#ffffff" stroke-width="2" stroke-linecap="round" stroke-linejoin="round" fill="none"/><path d="M 442 357 L 442 356 L 440 355 L 440 359 L 440 369 L 442 380 L 445 389 L 449 394 L 451 395" stroke="#ffffff" stroke-width="2" stroke-linecap="round" stroke-linejoin="round" fill="none"/><path d="M 475 380 L 475 379 L 478 377 L 485 376 L 496 376 L 503 375" stroke="#ffffff" stroke-width="2" stroke-linecap="round" stroke-linejoin="round" fill="none"/></svg>
