<svg xmlns="http://www.w3.org/2000/svg" width="705" height="523" viewBox="0 0 705 523"><path d="M 17 23 L 16 23 L 15 23 L 15 22 L 14 22 L 14 24 L 14 28 L 12 35 L 11 41 L 10 45 L 11 45" stroke="#ffffff" stroke-width="3" stroke-linecap="round" stroke-linejoin="round" fill="none"/><path d="M 31 21 L 30 21 L 29 21 L 28 21 L 26 23 L 26 26 L 28 28 L 32 30 L 35 31 L 38 32 L 40 34 L 40 35 L 38 37 L 34 37 L 30 37 L 26 36" stroke="#ffffff" stroke-width="3" stroke-linecap="round" stroke-linejoin="round" fill="none"/><path d="M 31 20 L 32 20 L 38 19 L 47 19" stroke="#ffffff" stroke-width="3" stroke-linecap="round" stroke-linejoin="round" fill="none"/><path d="M 79 13 L 78 12 L 76 11 L 74 11 L 72 15 L 68 25 L 61 40 L 54 52 L 48 61 L 45 68 L 45 70" stroke="#ffffff" stroke-width="3" stroke-linecap="round" stroke-linejoin="round" fill="none"/><path d="M 80 40 L 79 39 L 76 39 L 75 39 L 73 43 L 72 49 L 72 54 L 73 56" stroke="#ffffff" stroke-width="3" stroke-linecap="round" stroke-linejoin="round" fill="none"/><path d="M 95 36 L 94 36 L 92 36 L 90 39 L 89 44 L 91 50 L 94 52 L 99 51 L 103 47 L 106 42 L 107 38 L 107 35 L 104 34 L 101 34 L 96 37 L 92 41 L 90 45" stroke="#ffffff" stroke-width="3" stroke-linecap="round" stroke-linejoin="round" fill="none"/><path d="M 176 22 L 175 22 L 174 20 L 171 20 L 169 21 L 165 25 L 162 33 L 160 40 L 161 44 L 165 44 L 172 41 L 180 34" stroke="#ffffff" stroke-width="3" stroke-linecap="round" stroke-linejoin="round" fill="none"/><path d="M 207 26 L 206 25 L 204 22 L 203 19 L 202 17 L 201 15 L 199 15 L 197 16 L 195 19 L 194 25 L 194 32 L 194 39 L 194 45 L 194 47 L 192 48 L 189 47 L 186 46 L 184 44 L 184 42 L 185 39 L 189 35 L 195 30 L 200 27 L 205 25 L 210 24 L 212 24" stroke="#ffffff" stroke-width="3" stroke-linecap="round" stroke-linejoin="round" fill="none"/><path d="M 224 23 L 223 23 L 221 23 L 219 24 L 218 29 L 217 35 L 219 38 L 222 39 L 225 36 L 227 32 L 228 28 L 228 25 L 225 24 L 221 24 L 218 28" stroke="#ffffff" stroke-width="3" stroke-linecap="round" stroke-linejoin="round" fill="none"/><path d="M 260 10 L 260 9 L 258 9 L 255 10 L 252 15 L 248 24 L 242 37 L 236 48 L 232 54 L 231 57 L 231 58" stroke="#ffffff" stroke-width="3" stroke-linecap="round" stroke-linejoin="round" fill="none"/><path d="M 282 26 L 281 26 L 280 24 L 278 22 L 276 22 L 275 23 L 272 30 L 268 40 L 266 48 L 267 51 L 271 49 L 278 44 L 287 37" stroke="#ffffff" stroke-width="3" stroke-linecap="round" stroke-linejoin="round" fill="none"/><path d="M 302 29 L 300 29 L 297 29 L 295 29 L 294 33 L 294 38 L 296 43 L 299 44 L 303 43 L 306 39 L 308 34 L 308 29 L 305 26 L 301 25 L 297 27 L 293 32 L 293 36 L 294 36" stroke="#ffffff" stroke-width="3" stroke-linecap="round" stroke-linejoin="round" fill="none"/><path d="M 343 10 L 342 9 L 341 9 L 340 9 L 339 13 L 338 21 L 337 29 L 337 36 L 337 39" stroke="#ffffff" stroke-width="3" stroke-linecap="round" stroke-linejoin="round" fill="none"/><path d="M 337 28 L 335 27 L 335 26 L 338 24 L 342 24 L 346 23 L 351 22 L 353 21" stroke="#ffffff" stroke-width="3" stroke-linecap="round" stroke-linejoin="round" fill="none"/><path d="M 360 8 L 359 7 L 359 6 L 359 5 L 359 4 L 358 7 L 357 15 L 355 23 L 353 31 L 353 36 L 354 37" stroke="#ffffff" stroke-width="3" stroke-linecap="round" stroke-linejoin="round" fill="none"/><path d="M 374 12 L 374 11 L 373 11 L 371 14 L 370 19 L 370 24 L 370 27 L 372 28 L 375 28 L 377 27 L 381 25 L 386 22" stroke="#ffffff" stroke-width="3" stroke-linecap="round" stroke-linejoin="round" fill="none"/><path d="M 414 30 L 413 30 L 412 28 L 411 26 L 410 22 L 410 17 L 410 13 L 411 12 L 413 12 L 415 12 L 416 13 L 416 14 L 414 16 L 410 18 L 406 22 L 403 26 L 402 29 L 402 30 L 405 29 L 409 27 L 413 24 L 415 23 L 417 22 L 419 21 L 420 22 L 420 23 L 421 25 L 422 28 L 423 28" stroke="#ffffff" stroke-width="3" stroke-linecap="round" stroke-linejoin="round" fill="none"/><path d="M 438 10 L 438 9 L 438 8 L 438 7 L 436 11 L 435 19 L 433 26 L 433 32 L 433 34" stroke="#ffffff" stroke-width="3" stroke-linecap="round" stroke-linejoin="round" fill="none"/><path d="M 436 21 L 435 20 L 434 19 L 437 19 L 441 21 L 446 21 L 448 21" stroke="#ffffff" stroke-width="3" stroke-linecap="round" stroke-linejoin="round" fill="none"/><path d="M 450 26 L 448 25 L 449 24 L 453 23 L 459 21 L 466 19 L 470 18 L 471 18" stroke="#ffffff" stroke-width="3" stroke-linecap="round" stroke-linejoin="round" fill="none"/><path d="M 462 11 L 461 10 L 460 9 L 459 12 L 458 19 L 457 28 L 456 36 L 456 40 L 457 41" stroke="#ffffff" stroke-width="3" stroke-linecap="round" stroke-linejoin="round" fill="none"/><path d="M 473 30 L 473 29 L 475 27 L 480 26 L 488 24 L 494 24 L 495 23" stroke="#ffffff" stroke-width="3" stroke-linecap="round" stroke-linejoin="round" fill="none"/><path d="M 357 50 L 356 49 L 355 49 L 355 50 L 355 54 L 354 58 L 354 62 L 354 63" stroke="#ffffff" stroke-width="3" stroke-linecap="round" stroke-linejoin="round" fill="none"/><path d="M 364 50 L 363 50 L 363 51 L 364 55 L 366 60 L 366 61" stroke="#ffffff" stroke-width="3" stroke-linecap="round" stroke-linejoin="round" fill="none"/><path d="M 375 56 L 373 55 L 376 55 L 380 54 L 386 53 L 387 53" stroke="#ffffff" stroke-width="3" stroke-linecap="round" stroke-linejoin="round" fill="none"/><path d="M 397 54 L 397 52 L 401 51 L 406 50 L 409 50 L 410 50 L 409 51 L 408 53 L 406 57 L 403 60 L 401 62 L 399 63" stroke="#ffffff" stroke-width="3" stroke-linecap="round" stroke-linejoin="round" fill="none"/><path d="M 377 80 L 377 78 L 377 76 L 379 74 L 383 73 L 386 75 L 387 78 L 387 82 L 385 85 L 382 87 L 377 89 L 374 90 L 371 91 L 372 91 L 375 91 L 379 91 L 384 92 L 391 92 L 395 92" stroke="#ffffff" stroke-width="3" stroke-linecap="round" stroke-linejoin="round" fill="none"/><path d="M 416 72 L 416 71 L 415 70 L 414 70 L 413 70 L 411 70 L 409 72 L 406 74 L 403 77 L 401 79 L 402 81 L 406 81 L 412 82 L 418 82 L 422 83 L 423 83" stroke="#ffffff" stroke-width="3" stroke-linecap="round" stroke-linejoin="round" fill="none"/><path d="M 415 68 L 414 68 L 413 71 L 411 78 L 409 88 L 408 94 L 409 95" stroke="#ffffff" stroke-width="3" stroke-linecap="round" stroke-linejoin="round" fill="none"/><path d="M 435 73 L 434 73 L 432 74 L 431 75 L 431 80 L 431 85 L 434 87 L 437 87 L 440 85 L 441 82 L 441 78 L 440 75 L 438 72 L 435 71 L 431 73 L 429 77 L 429 78" stroke="#ffffff" stroke-width="3" stroke-linecap="round" stroke-linejoin="round" fill="none"/><path d="M 534 11 L 534 10 L 533 9 L 532 9 L 529 16 L 524 27 L 518 40 L 513 50 L 511 55 L 511 58" stroke="#ffffff" stroke-width="3" stroke-linecap="round" stroke-linejoin="round" fill="none"/><path d="M 543 23 L 543 21 L 546 20 L 553 19 L 560 19 L 563 19 L 564 19" stroke="#ffffff" stroke-width="3" stroke-linecap="round" stroke-linejoin="round" fill="none"/><path d="M 557 21 L 555 20 L 554 20 L 552 26 L 549 35 L 546 44 L 546 49 L 547 50" stroke="#ffffff" stroke-width="3" stroke-linecap="round" stroke-linejoin="round" fill="none"/><path d="M 580 21 L 577 22 L 575 25 L 573 32 L 570 39 L 567 45 L 566 48 L 566 49" stroke="#ffffff" stroke-width="3" stroke-linecap="round" stroke-linejoin="round" fill="none"/><path d="M 574 26 L 574 23 L 574 20 L 578 18 L 582 19 L 584 23 L 585 27 L 584 31 L 581 34 L 578 34 L 575 34 L 573 33 L 572 33 L 574 36 L 576 38 L 579 42 L 585 44 L 587 45" stroke="#ffffff" stroke-width="3" stroke-linecap="round" stroke-linejoin="round" fill="none"/><path d="M 613 11 L 614 11 L 614 9 L 613 7 L 612 7 L 608 9 L 604 13 L 603 17 L 603 20" stroke="#ffffff" stroke-width="3" stroke-linecap="round" stroke-linejoin="round" fill="none"/><path d="M 620 9 L 622 7 L 619 9 L 617 16 L 611 23 L 604 30 L 603 34" stroke="#ffffff" stroke-width="3" stroke-linecap="round" stroke-linejoin="round" fill="none"/><path d="M 622 21 L 622 20 L 622 19 L 622 17 L 623 17" stroke="#ffffff" stroke-width="3" stroke-linecap="round" stroke-linejoin="round" fill="none"/><path d="M 622 32 L 621 33 L 620 33 L 620 31 L 621 28 L 624 23 L 632 18 L 634 16" stroke="#ffffff" stroke-width="3" stroke-linecap="round" stroke-linejoin="round" fill="none"/><path d="M 643 10 L 643 9 L 642 8 L 641 8 L 638 11 L 635 15 L 633 20 L 633 21" stroke="#ffffff" stroke-width="3" stroke-linecap="round" stroke-linejoin="round" fill="none"/><path d="M 640 17 L 640 16 L 640 15 L 640 13 L 640 12 L 643 12 L 647 13 L 650 14 L 651 14 L 650 14 L 647 14 L 645 14 L 644 15 L 641 20 L 638 27 L 635 35 L 633 40" stroke="#ffffff" stroke-width="3" stroke-linecap="round" stroke-linejoin="round" fill="none"/><path d="M 647 28 L 647 27 L 646 26 L 646 25 L 649 25 L 651 25" stroke="#ffffff" stroke-width="3" stroke-linecap="round" stroke-linejoin="round" fill="none"/><path d="M 665 22 L 664 22 L 664 21 L 665 21 L 667 20 L 669 20 L 671 20" stroke="#ffffff" stroke-width="3" stroke-linecap="round" stroke-linejoin="round" fill="none"/><path d="M 665 28 L 665 29 L 664 29 L 665 27 L 667 26 L 669 25" stroke="#ffffff" stroke-width="3" stroke-linecap="round" stroke-linejoin="round" fill="none"/><path d="M 656 41 L 655 42 L 658 41 L 664 37 L 673 31" stroke="#ffffff" stroke-width="3" stroke-linecap="round" stroke-linejoin="round" fill="none"/><path d="M 690 4 L 687 5 L 685 7 L 683 11 L 682 15 L 682 16" stroke="#ffffff" stroke-width="3" stroke-linecap="round" stroke-linejoin="round" fill="none"/><path d="M 694 9 L 695 10 L 693 13 L 688 18 L 685 22" stroke="#ffffff" stroke-width="3" stroke-linecap="round" stroke-linejoin="round" fill="none"/><path d="M 622 54 L 624 52 L 623 51 L 620 51 L 616 54 L 614 56 L 614 59 L 618 62 L 622 64 L 625 66 L 625 68 L 625 70 L 622 70 L 619 70 L 615 68" stroke="#ffffff" stroke-width="3" stroke-linecap="round" stroke-linejoin="round" fill="none"/><path d="M 620 52 L 623 50 L 624 49 L 628 49 L 634 50 L 640 53" stroke="#ffffff" stroke-width="3" stroke-linecap="round" stroke-linejoin="round" fill="none"/><path d="M 657 59 L 657 58 L 657 57 L 655 57 L 653 58 L 649 62 L 647 67 L 647 70 L 650 72 L 654 72 L 658 69 L 660 65 L 661 62 L 659 59 L 656 57 L 652 57 L 649 60 L 648 61" stroke="#ffffff" stroke-width="3" stroke-linecap="round" stroke-linejoin="round" fill="none"/><path d="M 34 100 L 33 100 L 31 100 L 30 100 L 30 101 L 30 104 L 30 110 L 30 119 L 30 127 L 29 132 L 30 134 L 33 133" stroke="#ffffff" stroke-width="3" stroke-linecap="round" stroke-linejoin="round" fill="none"/><path d="M 33 124 L 32 124 L 31 123 L 30 122 L 29 122 L 31 121 L 36 120 L 41 119 L 46 117 L 51 115 L 53 114" stroke="#ffffff" stroke-width="3" stroke-linecap="round" stroke-linejoin="round" fill="none"/><path d="M 51 101 L 50 101 L 49 101 L 49 102 L 49 107 L 50 114 L 51 122 L 52 128" stroke="#ffffff" stroke-width="3" stroke-linecap="round" stroke-linejoin="round" fill="none"/><path d="M 71 106 L 69 106 L 68 106 L 68 107 L 67 111 L 67 117 L 67 122 L 67 127 L 67 129 L 69 129 L 73 129 L 78 127 L 85 124 L 89 122" stroke="#ffffff" stroke-width="3" stroke-linecap="round" stroke-linejoin="round" fill="none"/><path d="M 114 103 L 113 102 L 111 101 L 110 101 L 110 102 L 109 107 L 109 115 L 109 124 L 110 129 L 113 130" stroke="#ffffff" stroke-width="3" stroke-linecap="round" stroke-linejoin="round" fill="none"/><path d="M 128 108 L 129 108 L 129 107 L 129 106 L 131 105 L 134 106 L 136 108 L 137 111 L 135 114 L 132 117 L 129 118 L 127 119 L 126 119 L 127 119 L 131 119 L 136 119 L 143 118 L 149 117 L 153 117" stroke="#ffffff" stroke-width="3" stroke-linecap="round" stroke-linejoin="round" fill="none"/><path d="M 160 105 L 158 105 L 156 104 L 155 103 L 155 101 L 156 99 L 158 98 L 158 100 L 158 102 L 156 104 L 155 105" stroke="#ffffff" stroke-width="3" stroke-linecap="round" stroke-linejoin="round" fill="none"/><path d="M 182 90 L 180 90 L 178 91 L 176 94 L 172 102 L 167 112 L 163 121 L 161 127 L 161 130" stroke="#ffffff" stroke-width="3" stroke-linecap="round" stroke-linejoin="round" fill="none"/><path d="M 178 116 L 178 115 L 177 114 L 177 116 L 177 118" stroke="#ffffff" stroke-width="3" stroke-linecap="round" stroke-linejoin="round" fill="none"/><path d="M 206 95 L 206 94 L 205 94 L 203 98 L 201 105 L 199 113 L 198 118 L 199 121" stroke="#ffffff" stroke-width="3" stroke-linecap="round" stroke-linejoin="round" fill="none"/><path d="M 217 112 L 216 113 L 214 114 L 214 115 L 214 116 L 216 117" stroke="#ffffff" stroke-width="3" stroke-linecap="round" stroke-linejoin="round" fill="none"/><path d="M 236 95 L 234 95 L 232 96 L 231 97 L 230 101 L 231 104 L 234 107 L 238 108 L 242 109 L 244 110 L 244 111 L 243 111 L 240 112 L 236 112 L 232 112 L 227 111" stroke="#ffffff" stroke-width="3" stroke-linecap="round" stroke-linejoin="round" fill="none"/><path d="M 233 97 L 232 96 L 231 95 L 234 96 L 241 96 L 247 97" stroke="#ffffff" stroke-width="3" stroke-linecap="round" stroke-linejoin="round" fill="none"/><path d="M 275 91 L 276 91 L 275 91 L 273 94 L 268 99 L 262 106 L 258 111 L 256 113" stroke="#ffffff" stroke-width="3" stroke-linecap="round" stroke-linejoin="round" fill="none"/><path d="M 266 103 L 265 104 L 265 109 L 266 115 L 269 118" stroke="#ffffff" stroke-width="3" stroke-linecap="round" stroke-linejoin="round" fill="none"/><path d="M 288 85 L 286 84 L 284 85 L 281 90 L 280 95 L 279 98" stroke="#ffffff" stroke-width="3" stroke-linecap="round" stroke-linejoin="round" fill="none"/><path d="M 277 97 L 277 96 L 278 94 L 282 91 L 288 90 L 291 91" stroke="#ffffff" stroke-width="3" stroke-linecap="round" stroke-linejoin="round" fill="none"/><path d="M 288 91 L 287 92 L 285 92 L 283 94 L 281 97 L 280 100 L 280 102" stroke="#ffffff" stroke-width="3" stroke-linecap="round" stroke-linejoin="round" fill="none"/><path d="M 292 96 L 291 96 L 289 95 L 287 95 L 284 97 L 281 100 L 279 101" stroke="#ffffff" stroke-width="3" stroke-linecap="round" stroke-linejoin="round" fill="none"/><path d="M 273 107 L 273 105 L 275 104 L 279 104 L 283 104 L 287 104 L 289 104 L 290 104 L 289 104 L 287 105 L 285 107 L 282 109 L 280 112 L 279 115 L 281 118 L 285 118 L 289 117 L 291 115 L 291 113 L 290 112 L 287 112 L 283 112 L 279 113 L 276 115 L 275 117" stroke="#ffffff" stroke-width="3" stroke-linecap="round" stroke-linejoin="round" fill="none"/><path d="M 94 144 L 94 143 L 93 142 L 92 142 L 90 145 L 86 149 L 82 154 L 81 157" stroke="#ffffff" stroke-width="3" stroke-linecap="round" stroke-linejoin="round" fill="none"/><path d="M 87 149 L 88 148 L 89 146 L 91 145 L 93 145 L 95 149 L 95 154 L 95 160 L 92 165 L 88 170 L 84 172" stroke="#ffffff" stroke-width="3" stroke-linecap="round" stroke-linejoin="round" fill="none"/><path d="M 83 156 L 84 155 L 84 154 L 85 154 L 88 155 L 93 157" stroke="#ffffff" stroke-width="3" stroke-linecap="round" stroke-linejoin="round" fill="none"/><path d="M 106 152 L 104 152 L 102 154 L 100 159 L 98 165 L 98 169" stroke="#ffffff" stroke-width="3" stroke-linecap="round" stroke-linejoin="round" fill="none"/><path d="M 102 158 L 102 157 L 103 155 L 105 153 L 108 154 L 110 158 L 111 165 L 111 171 L 108 176 L 104 180" stroke="#ffffff" stroke-width="3" stroke-linecap="round" stroke-linejoin="round" fill="none"/><path d="M 98 167 L 98 166 L 99 165 L 100 164 L 102 164 L 108 166 L 115 168" stroke="#ffffff" stroke-width="3" stroke-linecap="round" stroke-linejoin="round" fill="none"/><path d="M 139 143 L 138 143 L 136 142 L 134 143 L 133 148 L 134 156 L 136 164 L 138 168 L 139 169" stroke="#ffffff" stroke-width="3" stroke-linecap="round" stroke-linejoin="round" fill="none"/><path d="M 143 150 L 143 149 L 142 149 L 141 149 L 140 153 L 138 159 L 136 166 L 133 169 L 131 169 L 129 167 L 129 164 L 131 160 L 134 156 L 138 152 L 143 151 L 148 153 L 151 157 L 151 162 L 150 168 L 148 172 L 148 173" stroke="#ffffff" stroke-width="3" stroke-linecap="round" stroke-linejoin="round" fill="none"/><path d="M 171 141 L 170 141 L 169 140 L 168 143 L 168 151 L 167 161 L 167 168 L 168 171 L 169 171" stroke="#ffffff" stroke-width="3" stroke-linecap="round" stroke-linejoin="round" fill="none"/><path d="M 170 154 L 168 153 L 167 152 L 168 152 L 172 152 L 177 153 L 179 153" stroke="#ffffff" stroke-width="3" stroke-linecap="round" stroke-linejoin="round" fill="none"/><path d="M 189 150 L 188 149 L 189 148 L 192 146 L 195 145 L 198 145 L 199 145 L 200 146 L 200 148 L 199 153 L 196 158 L 194 162 L 191 165" stroke="#ffffff" stroke-width="3" stroke-linecap="round" stroke-linejoin="round" fill="none"/><path d="M 236 142 L 236 143 L 238 142 L 241 140 L 246 138 L 248 138" stroke="#ffffff" stroke-width="3" stroke-linecap="round" stroke-linejoin="round" fill="none"/><path d="M 237 152 L 236 152 L 236 153 L 236 152 L 238 150 L 242 149 L 246 148 L 248 148 L 249 150 L 249 153 L 246 157 L 242 161 L 239 164 L 237 165 L 237 164" stroke="#ffffff" stroke-width="3" stroke-linecap="round" stroke-linejoin="round" fill="none"/><path d="M 258 151 L 258 152 L 257 152 L 257 153 L 257 154 L 257 155" stroke="#ffffff" stroke-width="3" stroke-linecap="round" stroke-linejoin="round" fill="none"/><path d="M 267 149 L 267 148 L 266 148 L 264 149 L 263 152 L 262 155" stroke="#ffffff" stroke-width="3" stroke-linecap="round" stroke-linejoin="round" fill="none"/><path d="M 269 150 L 270 149 L 270 150 L 269 154 L 266 159 L 262 164 L 260 166" stroke="#ffffff" stroke-width="3" stroke-linecap="round" stroke-linejoin="round" fill="none"/><path d="M 286 152 L 285 152 L 284 151 L 284 149 L 288 146 L 292 145 L 296 145 L 297 146 L 297 149 L 295 153 L 292 156 L 289 159 L 287 160 L 287 159" stroke="#ffffff" stroke-width="3" stroke-linecap="round" stroke-linejoin="round" fill="none"/><path d="M 303 136 L 302 133 L 302 129 L 303 126 L 304 126 L 306 127 L 306 131 L 305 134 L 303 137 L 301 137" stroke="#ffffff" stroke-width="3" stroke-linecap="round" stroke-linejoin="round" fill="none"/><path d="M 321 136 L 321 135 L 321 136 L 321 139 L 321 143 L 321 144" stroke="#ffffff" stroke-width="3" stroke-linecap="round" stroke-linejoin="round" fill="none"/><path d="M 330 142 L 329 142 L 327 141 L 325 141 L 324 141 L 323 142 L 321 144 L 319 148 L 318 153 L 318 156 L 321 157 L 328 155 L 335 152" stroke="#ffffff" stroke-width="3" stroke-linecap="round" stroke-linejoin="round" fill="none"/><path d="M 357 136 L 356 136 L 355 135 L 355 134 L 360 133 L 365 131 L 369 131 L 372 131 L 372 132" stroke="#ffffff" stroke-width="3" stroke-linecap="round" stroke-linejoin="round" fill="none"/><path d="M 364 129 L 364 128 L 363 127 L 363 128 L 364 134 L 365 143 L 365 151 L 365 155 L 365 157" stroke="#ffffff" stroke-width="3" stroke-linecap="round" stroke-linejoin="round" fill="none"/><path d="M 357 146 L 356 145 L 355 144 L 354 144 L 352 146 L 351 149 L 350 152 L 349 154" stroke="#ffffff" stroke-width="3" stroke-linecap="round" stroke-linejoin="round" fill="none"/><path d="M 374 139 L 375 138 L 375 137 L 376 140 L 377 144 L 379 145" stroke="#ffffff" stroke-width="3" stroke-linecap="round" stroke-linejoin="round" fill="none"/><path d="M 401 128 L 401 126 L 400 126 L 397 130 L 391 136 L 385 142 L 382 145 L 382 146" stroke="#ffffff" stroke-width="3" stroke-linecap="round" stroke-linejoin="round" fill="none"/><path d="M 394 137 L 393 137 L 392 137 L 391 140 L 389 146 L 389 151 L 390 153" stroke="#ffffff" stroke-width="3" stroke-linecap="round" stroke-linejoin="round" fill="none"/><path d="M 406 135 L 405 135 L 404 138 L 404 143 L 404 146 L 404 147" stroke="#ffffff" stroke-width="3" stroke-linecap="round" stroke-linejoin="round" fill="none"/><path d="M 418 132 L 416 132 L 414 133 L 413 137 L 413 142 L 415 145 L 418 145 L 422 143 L 427 138 L 431 133 L 434 129" stroke="#ffffff" stroke-width="3" stroke-linecap="round" stroke-linejoin="round" fill="none"/><path d="M 445 129 L 445 128 L 445 127 L 447 125 L 451 123 L 456 122 L 459 122" stroke="#ffffff" stroke-width="3" stroke-linecap="round" stroke-linejoin="round" fill="none"/><path d="M 442 137 L 442 138 L 445 136 L 450 134 L 455 132 L 460 130 L 461 130" stroke="#ffffff" stroke-width="3" stroke-linecap="round" stroke-linejoin="round" fill="none"/><path d="M 452 117 L 452 116 L 452 114 L 451 114 L 451 119 L 451 130 L 450 143 L 451 151 L 453 154" stroke="#ffffff" stroke-width="3" stroke-linecap="round" stroke-linejoin="round" fill="none"/><path d="M 469 143 L 470 142 L 471 140 L 475 137 L 482 133 L 486 131 L 487 132 L 487 134 L 485 136 L 483 138 L 482 139" stroke="#ffffff" stroke-width="3" stroke-linecap="round" stroke-linejoin="round" fill="none"/><path d="M 477 126 L 476 126 L 474 129 L 473 136 L 474 143 L 478 148 L 479 149" stroke="#ffffff" stroke-width="3" stroke-linecap="round" stroke-linejoin="round" fill="none"/><path d="M 496 133 L 495 132 L 494 132 L 494 133 L 494 134" stroke="#ffffff" stroke-width="3" stroke-linecap="round" stroke-linejoin="round" fill="none"/><path d="M 502 131 L 501 131 L 498 132 L 496 133 L 495 134 L 496 135" stroke="#ffffff" stroke-width="3" stroke-linecap="round" stroke-linejoin="round" fill="none"/><path d="M 509 130 L 508 131 L 505 133 L 501 137 L 497 141 L 493 145" stroke="#ffffff" stroke-width="3" stroke-linecap="round" stroke-linejoin="round" fill="none"/><path d="M 519 133 L 518 132 L 518 131 L 520 128 L 526 126 L 532 125 L 536 125 L 537 125 L 535 128 L 531 133 L 526 138 L 523 142 L 521 144 L 520 145 L 521 144" stroke="#ffffff" stroke-width="3" stroke-linecap="round" stroke-linejoin="round" fill="none"/><path d="M 542 121 L 542 118 L 542 114 L 545 108 L 549 104 L 551 104 L 552 106 L 553 109 L 553 113 L 552 115 L 550 117 L 548 118 L 545 118" stroke="#ffffff" stroke-width="3" stroke-linecap="round" stroke-linejoin="round" fill="none"/><path d="M 35 189 L 34 189 L 33 187 L 32 187 L 32 190 L 32 198 L 32 209 L 32 219 L 32 226 L 32 227" stroke="#ffffff" stroke-width="3" stroke-linecap="round" stroke-linejoin="round" fill="none"/><path d="M 31 213 L 30 213 L 28 211 L 29 210 L 33 209 L 38 209 L 43 209 L 46 210" stroke="#ffffff" stroke-width="3" stroke-linecap="round" stroke-linejoin="round" fill="none"/><path d="M 52 212 L 50 211 L 50 210 L 53 208 L 59 207 L 64 206 L 68 205" stroke="#ffffff" stroke-width="3" stroke-linecap="round" stroke-linejoin="round" fill="none"/><path d="M 61 197 L 61 196 L 61 195 L 60 197 L 60 205 L 59 216 L 59 224" stroke="#ffffff" stroke-width="3" stroke-linecap="round" stroke-linejoin="round" fill="none"/><path d="M 81 212 L 81 211 L 81 210 L 82 209 L 86 209 L 92 209 L 97 209" stroke="#ffffff" stroke-width="3" stroke-linecap="round" stroke-linejoin="round" fill="none"/><path d="M 113 202 L 114 202 L 115 200 L 119 198 L 125 195 L 130 194" stroke="#ffffff" stroke-width="3" stroke-linecap="round" stroke-linejoin="round" fill="none"/><path d="M 124 193 L 124 192 L 123 196 L 122 206 L 121 217 L 120 224 L 120 227 L 119 227 L 117 225 L 116 221 L 116 216 L 116 212 L 118 208 L 122 207 L 126 206 L 130 209 L 131 216 L 130 222 L 128 226 L 127 228" stroke="#ffffff" stroke-width="3" stroke-linecap="round" stroke-linejoin="round" fill="none"/><path d="M 140 198 L 141 197 L 141 196 L 141 198 L 140 205 L 139 209" stroke="#ffffff" stroke-width="3" stroke-linecap="round" stroke-linejoin="round" fill="none"/><path d="M 165 192 L 164 192 L 163 191 L 161 192 L 158 196 L 154 201 L 149 208 L 147 212" stroke="#ffffff" stroke-width="3" stroke-linecap="round" stroke-linejoin="round" fill="none"/><path d="M 154 205 L 154 204 L 153 202 L 152 204 L 152 210 L 152 217 L 151 223 L 152 223" stroke="#ffffff" stroke-width="3" stroke-linecap="round" stroke-linejoin="round" fill="none"/><path d="M 180 191 L 178 190 L 176 190 L 174 192 L 171 196 L 168 202 L 168 204" stroke="#ffffff" stroke-width="3" stroke-linecap="round" stroke-linejoin="round" fill="none"/><path d="M 164 212 L 163 210 L 163 208 L 165 205 L 170 202 L 176 199 L 180 197 L 180 195 L 178 194 L 175 195 L 173 196 L 172 199 L 171 202 L 171 207 L 171 212 L 170 216 L 169 219 L 168 219 L 166 219 L 164 218 L 163 218 L 164 218 L 167 217 L 173 216 L 180 214 L 187 211" stroke="#ffffff" stroke-width="3" stroke-linecap="round" stroke-linejoin="round" fill="none"/><path d="M 195 202 L 194 202 L 193 201 L 194 200 L 199 198 L 207 196 L 213 194 L 217 192 L 219 191" stroke="#ffffff" stroke-width="3" stroke-linecap="round" stroke-linejoin="round" fill="none"/><path d="M 205 189 L 204 189 L 203 189 L 203 188 L 202 189 L 202 195 L 202 203 L 202 210 L 205 215 L 209 215 L 215 213 L 219 210 L 221 208" stroke="#ffffff" stroke-width="3" stroke-linecap="round" stroke-linejoin="round" fill="none"/><path d="M 214 186 L 214 187 L 213 192 L 212 200 L 212 207 L 213 209" stroke="#ffffff" stroke-width="3" stroke-linecap="round" stroke-linejoin="round" fill="none"/><path d="M 258 199 L 258 198 L 259 197 L 266 194 L 279 189 L 288 186 L 291 185 L 292 185" stroke="#ffffff" stroke-width="3" stroke-linecap="round" stroke-linejoin="round" fill="none"/><path d="M 277 190 L 277 189 L 276 189 L 276 190 L 275 195 L 274 203 L 274 213 L 275 217" stroke="#ffffff" stroke-width="3" stroke-linecap="round" stroke-linejoin="round" fill="none"/><path d="M 319 188 L 319 186 L 319 184 L 316 182 L 313 182 L 310 183 L 305 187 L 301 193 L 298 199 L 298 205 L 303 209 L 310 208 L 319 205 L 323 202" stroke="#ffffff" stroke-width="3" stroke-linecap="round" stroke-linejoin="round" fill="none"/><path d="M 313 197 L 312 197 L 310 197 L 313 196 L 319 195 L 324 195 L 326 195 L 327 195 L 325 195 L 322 196 L 321 198 L 320 201 L 320 208 L 320 215 L 320 220 L 320 221" stroke="#ffffff" stroke-width="3" stroke-linecap="round" stroke-linejoin="round" fill="none"/><path d="M 359 191 L 358 189 L 357 188 L 356 189 L 355 194 L 355 200 L 355 206 L 357 208" stroke="#ffffff" stroke-width="3" stroke-linecap="round" stroke-linejoin="round" fill="none"/><path d="M 367 188 L 367 189 L 367 190 L 367 195 L 367 201 L 368 208 L 368 210" stroke="#ffffff" stroke-width="3" stroke-linecap="round" stroke-linejoin="round" fill="none"/><path d="M 266 244 L 265 245 L 264 245 L 264 244 L 267 242 L 276 238 L 284 236 L 289 235 L 290 235" stroke="#ffffff" stroke-width="3" stroke-linecap="round" stroke-linejoin="round" fill="none"/><path d="M 280 238 L 279 238 L 278 237 L 276 239 L 276 244 L 275 254 L 275 264 L 276 268" stroke="#ffffff" stroke-width="3" stroke-linecap="round" stroke-linejoin="round" fill="none"/><path d="M 320 236 L 320 235 L 320 234 L 319 233 L 318 231 L 316 231 L 313 231 L 310 232 L 307 235 L 304 240 L 302 247 L 303 252 L 308 254 L 315 252 L 320 248 L 323 245 L 323 244" stroke="#ffffff" stroke-width="3" stroke-linecap="round" stroke-linejoin="round" fill="none"/><path d="M 314 242 L 312 242 L 315 241 L 321 239 L 327 237 L 330 236 L 328 236 L 327 236 L 326 236 L 325 239 L 324 245 L 323 253 L 322 261 L 322 264" stroke="#ffffff" stroke-width="3" stroke-linecap="round" stroke-linejoin="round" fill="none"/><path d="M 358 241 L 358 238 L 358 235 L 358 233 L 358 231 L 357 230 L 356 229 L 354 230 L 351 233 L 348 238 L 346 243 L 348 245 L 352 245 L 357 241 L 360 238 L 360 235 L 358 236 L 356 239 L 355 245 L 354 251 L 354 258 L 354 261 L 356 262" stroke="#ffffff" stroke-width="3" stroke-linecap="round" stroke-linejoin="round" fill="none"/><path d="M 414 188 L 413 187 L 411 186 L 410 186 L 410 191 L 410 199 L 409 208 L 408 213 L 407 214 L 406 213 L 404 210 L 401 205 L 399 199 L 398 193 L 398 188 L 400 184 L 403 182 L 409 181 L 417 183 L 423 189 L 426 197 L 424 206 L 419 212 L 413 216 L 408 217 L 406 216 L 405 214" stroke="#ffffff" stroke-width="3" stroke-linecap="round" stroke-linejoin="round" fill="none"/><path d="M 411 227 L 411 226 L 410 230 L 410 235 L 410 241 L 409 246 L 408 249 L 406 249 L 403 247 L 401 244 L 399 239 L 398 234 L 398 229 L 402 225 L 408 222 L 416 221 L 423 223 L 426 229 L 426 236 L 424 241 L 420 246 L 415 248 L 411 249 L 406 248 L 404 246" stroke="#ffffff" stroke-width="3" stroke-linecap="round" stroke-linejoin="round" fill="none"/><path d="M 470 193 L 469 194 L 468 196 L 464 203 L 460 210 L 457 217 L 454 221 L 455 222" stroke="#ffffff" stroke-width="3" stroke-linecap="round" stroke-linejoin="round" fill="none"/><path d="M 469 215 L 470 216 L 470 218 L 470 221 L 471 223" stroke="#ffffff" stroke-width="3" stroke-linecap="round" stroke-linejoin="round" fill="none"/><path d="M 496 202 L 495 202 L 493 202 L 491 203 L 488 207 L 487 213 L 488 217 L 492 217 L 496 215 L 499 210 L 500 206 L 500 202 L 497 201 L 491 202 L 488 206 L 487 210" stroke="#ffffff" stroke-width="3" stroke-linecap="round" stroke-linejoin="round" fill="none"/><path d="M 516 199 L 515 198 L 514 198 L 512 198 L 512 200 L 512 203 L 513 205 L 516 208 L 519 212 L 520 215 L 521 217 L 519 218 L 516 218 L 512 217 L 510 214 L 509 213" stroke="#ffffff" stroke-width="3" stroke-linecap="round" stroke-linejoin="round" fill="none"/><path d="M 511 200 L 510 199 L 512 198 L 517 198 L 524 198 L 527 199" stroke="#ffffff" stroke-width="3" stroke-linecap="round" stroke-linejoin="round" fill="none"/><path d="M 541 196 L 539 195 L 538 193 L 538 192 L 538 194 L 538 198 L 536 201 L 536 203" stroke="#ffffff" stroke-width="3" stroke-linecap="round" stroke-linejoin="round" fill="none"/><path d="M 560 190 L 559 188 L 558 188 L 554 194 L 549 204 L 543 216 L 539 223 L 538 227 L 538 229" stroke="#ffffff" stroke-width="3" stroke-linecap="round" stroke-linejoin="round" fill="none"/><path d="M 555 222 L 555 221 L 555 222" stroke="#ffffff" stroke-width="3" stroke-linecap="round" stroke-linejoin="round" fill="none"/><path d="M 543 336 L 543 336" stroke="#ffffff" stroke-width="3" stroke-linecap="round" stroke-linejoin="round" fill="none"/><path d="M 269 286 L 268 286 L 266 287 L 264 291 L 263 297 L 263 302 L 264 304" stroke="#ffffff" stroke-width="3" stroke-linecap="round" stroke-linejoin="round" fill="none"/><path d="M 279 287 L 279 285 L 280 284 L 283 284 L 286 285 L 289 288 L 289 291 L 288 294 L 286 297 L 282 298 L 280 298 L 278 298 L 277 298 L 279 298 L 282 298 L 287 298 L 293 299 L 299 298 L 304 297" stroke="#ffffff" stroke-width="3" stroke-linecap="round" stroke-linejoin="round" fill="none"/><path d="M 323 286 L 322 285 L 320 286 L 318 290 L 317 295 L 317 300 L 318 302" stroke="#ffffff" stroke-width="3" stroke-linecap="round" stroke-linejoin="round" fill="none"/><path d="M 331 285 L 332 284 L 332 283 L 332 287 L 333 292 L 335 297 L 338 301 L 340 302" stroke="#ffffff" stroke-width="3" stroke-linecap="round" stroke-linejoin="round" fill="none"/><path d="M 341 283 L 341 280 L 340 277 L 340 274 L 342 273 L 343 276 L 344 280 L 343 284 L 341 287 L 340 288" stroke="#ffffff" stroke-width="3" stroke-linecap="round" stroke-linejoin="round" fill="none"/><path d="M 352 289 L 351 289 L 349 288 L 351 287 L 357 287 L 362 286" stroke="#ffffff" stroke-width="3" stroke-linecap="round" stroke-linejoin="round" fill="none"/><path d="M 382 279 L 380 279 L 379 278 L 379 276 L 381 275 L 386 274 L 388 275 L 390 277 L 389 282 L 386 287 L 383 292 L 380 294 L 381 293" stroke="#ffffff" stroke-width="3" stroke-linecap="round" stroke-linejoin="round" fill="none"/><path d="M 402 271 L 400 270 L 398 268 L 397 265 L 399 264 L 401 264 L 402 266 L 403 269 L 402 271 L 401 273 L 400 273" stroke="#ffffff" stroke-width="3" stroke-linecap="round" stroke-linejoin="round" fill="none"/><path d="M 409 278 L 408 278 L 407 278 L 406 278 L 406 282 L 406 285 L 407 289 L 409 290" stroke="#ffffff" stroke-width="3" stroke-linecap="round" stroke-linejoin="round" fill="none"/><path d="M 417 276 L 417 275 L 417 276 L 417 280 L 418 284 L 419 286 L 422 286 L 426 282 L 430 276 L 431 275" stroke="#ffffff" stroke-width="3" stroke-linecap="round" stroke-linejoin="round" fill="none"/><path d="M 454 269 L 453 268 L 452 267 L 451 269 L 450 274 L 448 282 L 449 286 L 452 286" stroke="#ffffff" stroke-width="3" stroke-linecap="round" stroke-linejoin="round" fill="none"/><path d="M 466 268 L 465 268 L 464 268 L 463 269 L 462 273 L 464 277 L 466 279 L 469 279 L 471 276 L 472 272 L 472 269 L 471 267 L 469 266 L 466 267 L 463 271 L 461 276 L 461 278" stroke="#ffffff" stroke-width="3" stroke-linecap="round" stroke-linejoin="round" fill="none"/><path d="M 487 261 L 486 261 L 483 261 L 482 262 L 482 264 L 485 265" stroke="#ffffff" stroke-width="3" stroke-linecap="round" stroke-linejoin="round" fill="none"/><path d="M 501 253 L 500 253 L 498 253 L 495 257 L 491 266 L 486 276 L 483 283 L 483 286 L 483 287" stroke="#ffffff" stroke-width="3" stroke-linecap="round" stroke-linejoin="round" fill="none"/><path d="M 504 273 L 504 274 L 504 276 L 505 279" stroke="#ffffff" stroke-width="3" stroke-linecap="round" stroke-linejoin="round" fill="none"/><path d="M 279 334 L 280 332 L 284 330 L 289 327 L 293 325 L 295 325" stroke="#ffffff" stroke-width="3" stroke-linecap="round" stroke-linejoin="round" fill="none"/><path d="M 286 323 L 285 322 L 284 322 L 283 321 L 282 322 L 281 327 L 281 334 L 282 340 L 285 343 L 290 343 L 296 338" stroke="#ffffff" stroke-width="3" stroke-linecap="round" stroke-linejoin="round" fill="none"/><path d="M 307 322 L 306 322 L 304 322 L 303 323 L 303 326 L 306 328 L 310 329 L 313 327 L 314 324 L 314 321 L 312 320 L 309 320 L 306 321 L 305 324" stroke="#ffffff" stroke-width="3" stroke-linecap="round" stroke-linejoin="round" fill="none"/><path d="M 325 327 L 323 327 L 322 326 L 323 323 L 328 321 L 332 320" stroke="#ffffff" stroke-width="3" stroke-linecap="round" stroke-linejoin="round" fill="none"/><path d="M 328 339 L 327 340 L 326 340 L 327 338 L 333 332 L 342 323 L 350 312" stroke="#ffffff" stroke-width="3" stroke-linecap="round" stroke-linejoin="round" fill="none"/><path d="M 239 321 L 238 322 L 237 329 L 237 338 L 237 345 L 237 346" stroke="#ffffff" stroke-width="3" stroke-linecap="round" stroke-linejoin="round" fill="none"/><path d="M 250 326 L 251 326 L 252 327 L 254 329 L 255 333 L 255 336 L 253 338 L 250 339 L 247 339 L 246 339 L 248 339 L 251 340 L 254 341 L 258 342 L 264 342 L 266 341" stroke="#ffffff" stroke-width="3" stroke-linecap="round" stroke-linejoin="round" fill="none"/><path d="M 369 314 L 369 313 L 368 312 L 366 312 L 365 314 L 364 318 L 364 322 L 364 324" stroke="#ffffff" stroke-width="3" stroke-linecap="round" stroke-linejoin="round" fill="none"/><path d="M 365 317 L 366 315 L 366 314 L 366 312 L 367 311 L 369 310 L 372 310 L 374 312 L 376 316 L 376 323 L 373 330 L 370 337 L 366 341 L 365 343" stroke="#ffffff" stroke-width="3" stroke-linecap="round" stroke-linejoin="round" fill="none"/><path d="M 417 308 L 415 308 L 416 307 L 419 305 L 426 303 L 431 302 L 434 302" stroke="#ffffff" stroke-width="3" stroke-linecap="round" stroke-linejoin="round" fill="none"/><path d="M 427 299 L 425 298 L 424 299 L 422 305 L 421 311 L 420 316 L 422 315 L 424 312 L 427 310 L 429 310 L 430 313 L 430 318 L 428 323 L 425 326 L 422 327 L 420 326" stroke="#ffffff" stroke-width="3" stroke-linecap="round" stroke-linejoin="round" fill="none"/><path d="M 453 308 L 452 306 L 452 305 L 454 304 L 458 304 L 460 303 L 458 302 L 455 302 L 453 302 L 451 303 L 450 307 L 450 312 L 450 316 L 449 319 L 447 320 L 445 320 L 444 318 L 444 316 L 447 315 L 452 313 L 459 312 L 466 311" stroke="#ffffff" stroke-width="3" stroke-linecap="round" stroke-linejoin="round" fill="none"/><path d="M 474 302 L 474 301 L 473 299 L 473 298 L 475 297 L 479 298 L 481 299 L 482 301 L 479 303 L 477 305 L 475 305 L 477 306 L 479 308 L 480 312 L 479 316 L 476 319 L 472 319 L 469 319 L 467 316 L 467 314" stroke="#ffffff" stroke-width="3" stroke-linecap="round" stroke-linejoin="round" fill="none"/><path d="M 497 314 L 496 313 L 496 311 L 498 312 L 498 314 L 498 316 L 497 318 L 496 319" stroke="#ffffff" stroke-width="3" stroke-linecap="round" stroke-linejoin="round" fill="none"/><path d="M 524 293 L 523 292 L 522 291 L 521 293 L 521 297 L 521 303 L 523 307 L 524 307" stroke="#ffffff" stroke-width="3" stroke-linecap="round" stroke-linejoin="round" fill="none"/><path d="M 532 304 L 531 304 L 529 302 L 527 302 L 525 301 L 522 302 L 519 306 L 516 311 L 515 316 L 519 319 L 527 319 L 534 317" stroke="#ffffff" stroke-width="3" stroke-linecap="round" stroke-linejoin="round" fill="none"/><path d="M 489 315 L 489 314 L 490 313 L 491 313 L 492 312 L 494 311" stroke="#ffffff" stroke-width="3" stroke-linecap="round" stroke-linejoin="round" fill="none"/><path d="M 43 362 L 44 361 L 44 359 L 43 358 L 41 361 L 39 368 L 37 374 L 36 381 L 36 382" stroke="#ffffff" stroke-width="3" stroke-linecap="round" stroke-linejoin="round" fill="none"/><path d="M 43 371 L 42 370 L 42 368 L 44 366 L 48 364 L 54 363 L 56 363" stroke="#ffffff" stroke-width="3" stroke-linecap="round" stroke-linejoin="round" fill="none"/><path d="M 40 382 L 38 382 L 41 380 L 47 377 L 53 374 L 56 373" stroke="#ffffff" stroke-width="3" stroke-linecap="round" stroke-linejoin="round" fill="none"/><path d="M 50 370 L 49 370 L 48 370 L 47 373 L 46 379 L 44 389 L 43 396 L 43 397" stroke="#ffffff" stroke-width="3" stroke-linecap="round" stroke-linejoin="round" fill="none"/><path d="M 47 381 L 47 379 L 49 381 L 51 385 L 55 390 L 57 391" stroke="#ffffff" stroke-width="3" stroke-linecap="round" stroke-linejoin="round" fill="none"/><path d="M 65 364 L 65 363 L 65 361 L 65 360 L 68 358 L 72 358 L 75 358" stroke="#ffffff" stroke-width="3" stroke-linecap="round" stroke-linejoin="round" fill="none"/><path d="M 65 368 L 64 369 L 63 371 L 63 374 L 63 378" stroke="#ffffff" stroke-width="3" stroke-linecap="round" stroke-linejoin="round" fill="none"/><path d="M 67 375 L 68 373 L 68 371 L 68 369 L 70 368 L 72 368 L 74 369 L 75 371 L 75 373" stroke="#ffffff" stroke-width="3" stroke-linecap="round" stroke-linejoin="round" fill="none"/><path d="M 64 382 L 63 382 L 63 381 L 65 380" stroke="#ffffff" stroke-width="3" stroke-linecap="round" stroke-linejoin="round" fill="none"/><path d="M 75 375 L 73 376 L 72 376 L 71 378 L 69 382 L 68 386 L 66 388" stroke="#ffffff" stroke-width="3" stroke-linecap="round" stroke-linejoin="round" fill="none"/><path d="M 58 391 L 59 391 L 62 391 L 71 388 L 82 384 L 84 383" stroke="#ffffff" stroke-width="3" stroke-linecap="round" stroke-linejoin="round" fill="none"/><path d="M 102 370 L 101 370 L 99 370 L 96 371 L 93 374 L 90 378 L 89 381 L 89 383 L 92 385 L 98 386 L 106 386" stroke="#ffffff" stroke-width="3" stroke-linecap="round" stroke-linejoin="round" fill="none"/><path d="M 122 367 L 122 365 L 124 364 L 128 362 L 134 360 L 138 359 L 141 359" stroke="#ffffff" stroke-width="3" stroke-linecap="round" stroke-linejoin="round" fill="none"/><path d="M 136 356 L 135 357 L 134 357 L 134 361 L 133 369 L 132 377 L 130 382 L 129 384 L 128 384 L 127 382 L 127 379 L 127 376 L 128 375 L 130 374 L 132 375 L 134 379 L 135 385 L 133 392 L 130 397 L 129 400" stroke="#ffffff" stroke-width="3" stroke-linecap="round" stroke-linejoin="round" fill="none"/><path d="M 154 371 L 154 370 L 153 369 L 154 368 L 157 367 L 160 368 L 162 371 L 162 374 L 160 376 L 158 377 L 157 377 L 157 376 L 158 376 L 160 377 L 162 380 L 162 386 L 159 390 L 156 392 L 153 392 L 151 391 L 151 388 L 151 387 L 153 386 L 156 385 L 160 385 L 165 385" stroke="#ffffff" stroke-width="3" stroke-linecap="round" stroke-linejoin="round" fill="none"/><path d="M 181 382 L 180 382 L 178 381 L 178 380 L 181 378 L 185 377 L 189 377 L 192 377 L 194 379 L 194 382 L 192 384 L 191 385 L 189 385 L 188 382 L 188 378 L 188 374 L 188 371 L 188 370 L 187 370 L 186 374 L 184 381 L 182 387 L 181 391 L 182 391" stroke="#ffffff" stroke-width="3" stroke-linecap="round" stroke-linejoin="round" fill="none"/><path d="M 196 367 L 197 367 L 198 366 L 200 366 L 206 369 L 216 373 L 222 376" stroke="#ffffff" stroke-width="3" stroke-linecap="round" stroke-linejoin="round" fill="none"/><path d="M 228 379 L 227 379 L 225 379 L 223 380 L 221 383 L 221 386 L 221 387" stroke="#ffffff" stroke-width="3" stroke-linecap="round" stroke-linejoin="round" fill="none"/><path d="M 233 380 L 234 379 L 237 377 L 239 376 L 242 376 L 244 377" stroke="#ffffff" stroke-width="3" stroke-linecap="round" stroke-linejoin="round" fill="none"/><path d="M 232 368 L 231 369 L 229 376 L 228 389 L 228 403 L 230 408" stroke="#ffffff" stroke-width="3" stroke-linecap="round" stroke-linejoin="round" fill="none"/><path d="M 248 366 L 247 365 L 245 365 L 244 366 L 244 370 L 246 375" stroke="#ffffff" stroke-width="3" stroke-linecap="round" stroke-linejoin="round" fill="none"/><path d="M 254 366 L 255 366 L 255 365 L 254 365 L 253 368 L 253 369" stroke="#ffffff" stroke-width="3" stroke-linecap="round" stroke-linejoin="round" fill="none"/><path d="M 264 364 L 264 363 L 263 363 L 259 365 L 255 370 L 253 371" stroke="#ffffff" stroke-width="3" stroke-linecap="round" stroke-linejoin="round" fill="none"/><path d="M 250 373 L 249 374 L 246 374 L 245 376 L 243 381 L 242 390 L 243 399 L 246 403 L 251 403 L 256 400 L 260 395 L 262 391 L 264 386 L 263 380 L 262 377 L 260 376 L 258 376 L 257 377" stroke="#ffffff" stroke-width="3" stroke-linecap="round" stroke-linejoin="round" fill="none"/><path d="M 255 383 L 255 382 L 255 381 L 254 380 L 253 382 L 253 386 L 252 390 L 251 392 L 251 393" stroke="#ffffff" stroke-width="3" stroke-linecap="round" stroke-linejoin="round" fill="none"/><path d="M 247 385 L 247 384 L 248 384 L 251 386 L 256 388 L 259 390" stroke="#ffffff" stroke-width="3" stroke-linecap="round" stroke-linejoin="round" fill="none"/><path d="M 287 372 L 286 373 L 284 379 L 282 387 L 282 393 L 283 395 L 285 393 L 287 389 L 288 385 L 289 383 L 290 383 L 291 386 L 293 388 L 296 389 L 301 389 L 305 386" stroke="#ffffff" stroke-width="3" stroke-linecap="round" stroke-linejoin="round" fill="none"/><path d="M 311 378 L 308 379 L 308 378 L 311 376 L 317 373 L 322 371 L 325 369" stroke="#ffffff" stroke-width="3" stroke-linecap="round" stroke-linejoin="round" fill="none"/><path d="M 321 365 L 320 365 L 319 365 L 317 366 L 316 370 L 315 380 L 314 390 L 314 396 L 314 397" stroke="#ffffff" stroke-width="3" stroke-linecap="round" stroke-linejoin="round" fill="none"/><path d="M 324 383 L 324 382 L 324 380 L 325 379 L 328 378 L 332 377 L 334 376" stroke="#ffffff" stroke-width="3" stroke-linecap="round" stroke-linejoin="round" fill="none"/><path d="M 325 387 L 325 388 L 325 389 L 326 389 L 330 387 L 335 384" stroke="#ffffff" stroke-width="3" stroke-linecap="round" stroke-linejoin="round" fill="none"/><path d="M 339 361 L 337 363 L 334 365 L 334 368 L 335 369 L 336 369" stroke="#ffffff" stroke-width="3" stroke-linecap="round" stroke-linejoin="round" fill="none"/><path d="M 345 357 L 346 357 L 345 360 L 344 365" stroke="#ffffff" stroke-width="3" stroke-linecap="round" stroke-linejoin="round" fill="none"/><path d="M 362 372 L 363 372 L 363 371 L 362 371 L 361 373 L 361 375 L 362 378 L 364 378 L 366 378" stroke="#ffffff" stroke-width="3" stroke-linecap="round" stroke-linejoin="round" fill="none"/><path d="M 374 367 L 375 364 L 377 361 L 382 358 L 388 357 L 393 356 L 394 356" stroke="#ffffff" stroke-width="3" stroke-linecap="round" stroke-linejoin="round" fill="none"/><path d="M 383 352 L 383 353 L 383 356 L 383 364 L 382 375 L 380 386 L 377 393 L 376 395" stroke="#ffffff" stroke-width="3" stroke-linecap="round" stroke-linejoin="round" fill="none"/><path d="M 405 360 L 406 359 L 405 359 L 405 363 L 405 367 L 406 371" stroke="#ffffff" stroke-width="3" stroke-linecap="round" stroke-linejoin="round" fill="none"/><path d="M 416 366 L 416 365 L 414 365 L 412 364 L 411 364 L 409 364 L 408 366 L 406 370 L 404 375 L 404 380 L 406 382 L 411 382 L 418 378 L 422 374" stroke="#ffffff" stroke-width="3" stroke-linecap="round" stroke-linejoin="round" fill="none"/><path d="M 427 351 L 425 352 L 423 354 L 421 356 L 422 359" stroke="#ffffff" stroke-width="3" stroke-linecap="round" stroke-linejoin="round" fill="none"/><path d="M 433 349 L 433 350 L 431 352 L 431 355 L 431 356" stroke="#ffffff" stroke-width="3" stroke-linecap="round" stroke-linejoin="round" fill="none"/><path d="M 463 355 L 462 355 L 459 358 L 457 363 L 458 366 L 462 367 L 468 366 L 472 366 L 473 370 L 472 374 L 469 377 L 466 379 L 462 379 L 459 378" stroke="#ffffff" stroke-width="3" stroke-linecap="round" stroke-linejoin="round" fill="none"/><path d="M 458 360 L 458 359 L 458 356 L 461 353 L 468 351 L 476 350 L 483 351" stroke="#ffffff" stroke-width="3" stroke-linecap="round" stroke-linejoin="round" fill="none"/><path d="M 499 358 L 498 355 L 498 352 L 497 351 L 495 352 L 492 358 L 489 365 L 488 372 L 489 376 L 495 376 L 501 373" stroke="#ffffff" stroke-width="3" stroke-linecap="round" stroke-linejoin="round" fill="none"/><path d="M 508 363 L 506 361 L 506 360 L 509 358 L 513 358 L 514 359 L 515 362 L 513 365 L 512 367 L 512 368 L 512 366 L 513 365 L 514 365 L 515 365 L 517 366 L 519 367 L 521 367" stroke="#ffffff" stroke-width="3" stroke-linecap="round" stroke-linejoin="round" fill="none"/><path d="M 538 359 L 536 358 L 534 357 L 539 354 L 547 352 L 555 351 L 558 351" stroke="#ffffff" stroke-width="3" stroke-linecap="round" stroke-linejoin="round" fill="none"/><path d="M 550 343 L 549 343 L 547 342 L 546 342 L 546 345 L 545 352 L 544 361 L 545 366 L 550 366 L 556 362 L 558 361" stroke="#ffffff" stroke-width="3" stroke-linecap="round" stroke-linejoin="round" fill="none"/><path d="M 558 355 L 556 356 L 556 355 L 559 353 L 563 351 L 567 350 L 570 352 L 570 355 L 568 359 L 566 361 L 564 361 L 564 360 L 564 357 L 564 353 L 564 350 L 563 349 L 562 349 L 561 352 L 560 357 L 557 364 L 554 371 L 553 374 L 555 374" stroke="#ffffff" stroke-width="3" stroke-linecap="round" stroke-linejoin="round" fill="none"/><path d="M 579 365 L 579 364 L 578 362 L 579 361 L 581 361 L 583 362 L 584 364 L 584 367 L 582 369 L 580 371 L 579 371" stroke="#ffffff" stroke-width="3" stroke-linecap="round" stroke-linejoin="round" fill="none"/><path d="M 595 351 L 594 349 L 594 347 L 597 345 L 603 344 L 610 344 L 616 344 L 618 344 L 616 345 L 614 346 L 611 349 L 608 355 L 606 363 L 608 369 L 612 371 L 618 371" stroke="#ffffff" stroke-width="3" stroke-linecap="round" stroke-linejoin="round" fill="none"/><path d="M 54 428 L 53 427 L 51 426 L 51 430 L 51 438 L 52 448 L 56 453 L 62 453 L 67 449 L 71 445" stroke="#ffffff" stroke-width="3" stroke-linecap="round" stroke-linejoin="round" fill="none"/><path d="M 77 446 L 76 445 L 75 444 L 76 442 L 79 441 L 81 442 L 83 446 L 82 450 L 81 454" stroke="#ffffff" stroke-width="3" stroke-linecap="round" stroke-linejoin="round" fill="none"/><path d="M 97 438 L 96 438 L 95 438 L 97 435 L 100 433 L 104 432 L 108 431 L 110 433 L 110 436 L 110 439 L 108 441 L 107 441 L 107 440 L 106 436 L 106 429 L 106 423 L 106 419 L 106 418 L 106 420 L 104 427 L 103 436 L 101 443 L 101 447 L 101 448" stroke="#ffffff" stroke-width="3" stroke-linecap="round" stroke-linejoin="round" fill="none"/><path d="M 115 416 L 116 416 L 118 417 L 122 421 L 127 426 L 128 428" stroke="#ffffff" stroke-width="3" stroke-linecap="round" stroke-linejoin="round" fill="none"/><path d="M 142 418 L 141 418 L 139 418 L 138 420 L 138 423 L 139 427 L 140 429" stroke="#ffffff" stroke-width="3" stroke-linecap="round" stroke-linejoin="round" fill="none"/><path d="M 146 417 L 147 417 L 148 417 L 149 420 L 149 428 L 147 438 L 141 447 L 134 453" stroke="#ffffff" stroke-width="3" stroke-linecap="round" stroke-linejoin="round" fill="none"/><path d="M 172 421 L 172 423 L 170 433 L 168 446 L 168 451 L 169 452 L 172 450 L 176 445 L 181 438" stroke="#ffffff" stroke-width="3" stroke-linecap="round" stroke-linejoin="round" fill="none"/><path d="M 204 420 L 202 421 L 200 422 L 198 425 L 194 431 L 189 440 L 184 446 L 183 448" stroke="#ffffff" stroke-width="3" stroke-linecap="round" stroke-linejoin="round" fill="none"/><path d="M 196 431 L 196 430 L 195 430 L 195 436 L 194 445 L 195 452 L 196 454" stroke="#ffffff" stroke-width="3" stroke-linecap="round" stroke-linejoin="round" fill="none"/><path d="M 208 447 L 208 446 L 208 444 L 213 437 L 222 428 L 229 423 L 232 421 L 234 421 L 234 422 L 233 424 L 230 428 L 227 431 L 224 434" stroke="#ffffff" stroke-width="3" stroke-linecap="round" stroke-linejoin="round" fill="none"/><path d="M 218 417 L 217 416 L 216 418 L 216 425 L 218 437 L 221 446 L 224 451 L 225 452" stroke="#ffffff" stroke-width="3" stroke-linecap="round" stroke-linejoin="round" fill="none"/><path d="M 242 440 L 240 440 L 240 439 L 245 437 L 252 434 L 259 432 L 260 431" stroke="#ffffff" stroke-width="3" stroke-linecap="round" stroke-linejoin="round" fill="none"/><path d="M 289 425 L 289 424 L 288 422 L 287 423 L 286 427 L 284 435 L 283 442 L 284 447 L 287 447" stroke="#ffffff" stroke-width="3" stroke-linecap="round" stroke-linejoin="round" fill="none"/><path d="M 298 431 L 299 430 L 300 427 L 301 425 L 304 423 L 308 422 L 312 422" stroke="#ffffff" stroke-width="3" stroke-linecap="round" stroke-linejoin="round" fill="none"/><path d="M 306 436 L 303 438 L 301 438 L 302 437 L 306 435 L 312 431 L 317 428" stroke="#ffffff" stroke-width="3" stroke-linecap="round" stroke-linejoin="round" fill="none"/><path d="M 335 430 L 332 429 L 330 429 L 328 431 L 328 434 L 330 436 L 334 435 L 337 433 L 339 431 L 339 428 L 337 427 L 334 427 L 331 430 L 331 431" stroke="#ffffff" stroke-width="3" stroke-linecap="round" stroke-linejoin="round" fill="none"/><path d="M 380 408 L 379 408 L 377 408 L 376 411 L 376 416 L 377 420" stroke="#ffffff" stroke-width="3" stroke-linecap="round" stroke-linejoin="round" fill="none"/><path d="M 392 407 L 390 407 L 388 407 L 386 410 L 383 413 L 382 415" stroke="#ffffff" stroke-width="3" stroke-linecap="round" stroke-linejoin="round" fill="none"/><path d="M 370 427 L 370 424 L 371 421 L 380 417 L 393 412 L 402 410 L 407 410 L 407 411" stroke="#ffffff" stroke-width="3" stroke-linecap="round" stroke-linejoin="round" fill="none"/><path d="M 383 423 L 382 423 L 381 423 L 380 424 L 380 430 L 380 437 L 380 443 L 380 447 L 380 448" stroke="#ffffff" stroke-width="3" stroke-linecap="round" stroke-linejoin="round" fill="none"/><path d="M 382 432 L 382 428 L 382 425 L 382 423 L 383 422 L 385 425 L 387 430 L 388 435 L 388 439 L 388 442" stroke="#ffffff" stroke-width="3" stroke-linecap="round" stroke-linejoin="round" fill="none"/><path d="M 383 433 L 383 431 L 383 430 L 382 429 L 382 428 L 383 429" stroke="#ffffff" stroke-width="3" stroke-linecap="round" stroke-linejoin="round" fill="none"/><path d="M 384 433 L 384 434 L 383 434 L 383 433 L 384 431" stroke="#ffffff" stroke-width="3" stroke-linecap="round" stroke-linejoin="round" fill="none"/><path d="M 397 419 L 396 420 L 395 421 L 394 424 L 393 427 L 394 429" stroke="#ffffff" stroke-width="3" stroke-linecap="round" stroke-linejoin="round" fill="none"/><path d="M 402 417 L 403 415 L 404 416 L 403 422 L 400 432 L 397 442 L 394 449 L 394 450" stroke="#ffffff" stroke-width="3" stroke-linecap="round" stroke-linejoin="round" fill="none"/><path d="M 419 415 L 419 413 L 419 411 L 420 408 L 423 406 L 425 406 L 426 406 L 426 407 L 425 407 L 423 410 L 420 415 L 418 421 L 417 426 L 418 427" stroke="#ffffff" stroke-width="3" stroke-linecap="round" stroke-linejoin="round" fill="none"/><path d="M 423 417 L 422 415 L 422 413 L 423 412 L 425 412" stroke="#ffffff" stroke-width="3" stroke-linecap="round" stroke-linejoin="round" fill="none"/><path d="M 419 425 L 417 424 L 415 423 L 416 421 L 421 419 L 422 418" stroke="#ffffff" stroke-width="3" stroke-linecap="round" stroke-linejoin="round" fill="none"/><path d="M 416 431 L 415 431 L 414 431 L 414 429 L 419 424 L 427 417" stroke="#ffffff" stroke-width="3" stroke-linecap="round" stroke-linejoin="round" fill="none"/><path d="M 443 396 L 442 396 L 440 400 L 436 407 L 433 413 L 433 414" stroke="#ffffff" stroke-width="3" stroke-linecap="round" stroke-linejoin="round" fill="none"/><path d="M 444 401 L 443 401 L 441 402 L 439 406 L 438 410 L 437 412" stroke="#ffffff" stroke-width="3" stroke-linecap="round" stroke-linejoin="round" fill="none"/><path d="M 429 425 L 428 425 L 425 427 L 423 428 L 423 429 L 427 427 L 431 424 L 434 422 L 435 421 L 436 420 L 435 422 L 434 426 L 432 430 L 429 435 L 426 440 L 423 442 L 423 443" stroke="#ffffff" stroke-width="3" stroke-linecap="round" stroke-linejoin="round" fill="none"/><path d="M 422 428 L 422 427 L 425 428 L 431 432 L 440 436 L 444 437" stroke="#ffffff" stroke-width="3" stroke-linecap="round" stroke-linejoin="round" fill="none"/><path d="M 459 417 L 458 416 L 458 414 L 462 410 L 468 408 L 473 408" stroke="#ffffff" stroke-width="3" stroke-linecap="round" stroke-linejoin="round" fill="none"/><path d="M 471 405 L 470 405 L 468 406 L 465 412 L 461 420 L 459 427 L 459 430" stroke="#ffffff" stroke-width="3" stroke-linecap="round" stroke-linejoin="round" fill="none"/><path d="M 479 409 L 481 407 L 483 406 L 486 405 L 488 405 L 489 404 L 488 404 L 486 407 L 483 412 L 480 418 L 477 425 L 475 430 L 473 432 L 472 432 L 471 431 L 471 429 L 471 427 L 473 424 L 477 422 L 483 419 L 490 417 L 492 417" stroke="#ffffff" stroke-width="3" stroke-linecap="round" stroke-linejoin="round" fill="none"/><path d="M 508 406 L 507 406 L 504 406 L 502 408 L 501 415 L 501 421 L 504 424 L 508 424 L 512 422 L 517 417 L 520 413" stroke="#ffffff" stroke-width="3" stroke-linecap="round" stroke-linejoin="round" fill="none"/><path d="M 146 480 L 145 480 L 144 479 L 141 479 L 138 481 L 135 486 L 135 491 L 137 494 L 141 495 L 146 495 L 149 496 L 151 498 L 149 501 L 144 505 L 138 509 L 133 512 L 132 513" stroke="#ffffff" stroke-width="3" stroke-linecap="round" stroke-linejoin="round" fill="none"/><path d="M 165 501 L 163 498 L 162 497 L 161 496 L 159 496 L 158 500 L 157 504 L 156 507 L 157 509 L 159 508 L 162 505 L 163 502 L 164 500 L 164 499 L 164 501 L 164 504 L 165 508 L 166 511" stroke="#ffffff" stroke-width="3" stroke-linecap="round" stroke-linejoin="round" fill="none"/><path d="M 184 471 L 183 471 L 182 471 L 181 476 L 181 488 L 181 502 L 181 510 L 182 512" stroke="#ffffff" stroke-width="3" stroke-linecap="round" stroke-linejoin="round" fill="none"/><path d="M 195 490 L 193 489 L 192 488 L 190 488 L 187 488 L 184 491 L 180 496 L 177 501 L 177 504 L 180 505 L 187 504 L 196 500" stroke="#ffffff" stroke-width="3" stroke-linecap="round" stroke-linejoin="round" fill="none"/><path d="M 209 493 L 208 493 L 207 492 L 206 491 L 205 491 L 206 491 L 207 491 L 207 492 L 207 495 L 206 498 L 207 501 L 209 503 L 212 503 L 214 500 L 215 497 L 216 494 L 216 492 L 216 490 L 216 489 L 216 488 L 217 487 L 217 488 L 217 490 L 218 493 L 218 496 L 220 498 L 220 499" stroke="#ffffff" stroke-width="3" stroke-linecap="round" stroke-linejoin="round" fill="none"/><path d="M 233 481 L 232 480 L 231 479 L 231 480 L 231 486 L 231 493 L 231 499 L 231 503 L 231 504 L 231 503 L 231 499 L 233 494 L 237 489 L 242 485 L 245 484" stroke="#ffffff" stroke-width="3" stroke-linecap="round" stroke-linejoin="round" fill="none"/><path d="M 259 484 L 258 484 L 257 483 L 254 483 L 252 485 L 251 489 L 250 494 L 250 498 L 252 499 L 255 497 L 258 494 L 260 490 L 261 487 L 261 485 L 260 484 L 259 484 L 259 485 L 259 487 L 261 492 L 262 496 L 263 498" stroke="#ffffff" stroke-width="3" stroke-linecap="round" stroke-linejoin="round" fill="none"/><path d="M 271 483 L 270 483 L 271 481 L 275 478 L 281 475 L 286 474 L 287 474" stroke="#ffffff" stroke-width="3" stroke-linecap="round" stroke-linejoin="round" fill="none"/><path d="M 279 472 L 279 471 L 279 470 L 278 470 L 277 475 L 276 483 L 276 490 L 276 493 L 278 493 L 281 489 L 285 486 L 288 485 L 289 489 L 285 495 L 280 500 L 276 503 L 275 504" stroke="#ffffff" stroke-width="3" stroke-linecap="round" stroke-linejoin="round" fill="none"/><path d="M 303 498 L 303 496 L 303 493 L 306 491 L 311 490 L 315 490 L 316 493 L 315 495 L 313 497 L 311 498 L 310 499" stroke="#ffffff" stroke-width="3" stroke-linecap="round" stroke-linejoin="round" fill="none"/><path d="M 308 486 L 307 486 L 306 486 L 305 490 L 304 496 L 304 499" stroke="#ffffff" stroke-width="3" stroke-linecap="round" stroke-linejoin="round" fill="none"/><path d="M 313 483 L 312 486 L 312 491 L 312 496" stroke="#ffffff" stroke-width="3" stroke-linecap="round" stroke-linejoin="round" fill="none"/><path d="M 328 477 L 327 482 L 325 490 L 324 496 L 324 498 L 326 497 L 329 493 L 331 489 L 332 488 L 333 490 L 335 492 L 337 494 L 341 495 L 342 495" stroke="#ffffff" stroke-width="3" stroke-linecap="round" stroke-linejoin="round" fill="none"/><path d="M 359 480 L 359 481 L 358 484 L 357 488 L 356 491 L 355 492 L 354 491 L 354 487 L 355 483 L 358 480 L 362 477 L 367 477 L 369 480 L 369 486 L 365 492 L 362 497 L 361 498" stroke="#ffffff" stroke-width="3" stroke-linecap="round" stroke-linejoin="round" fill="none"/><path d="M 385 479 L 385 478 L 385 480 L 386 486 L 387 492 L 389 495 L 392 494 L 395 490 L 397 484 L 398 480 L 399 479 L 400 482 L 400 487 L 402 490 L 404 491 L 407 488 L 412 482 L 416 475 L 418 473" stroke="#ffffff" stroke-width="3" stroke-linecap="round" stroke-linejoin="round" fill="none"/><path d="M 426 483 L 428 483 L 430 482 L 433 480 L 435 477 L 435 474 L 433 473 L 430 475 L 427 480 L 426 486 L 427 491 L 431 491 L 438 489 L 441 487" stroke="#ffffff" stroke-width="3" stroke-linecap="round" stroke-linejoin="round" fill="none"/><path d="M 461 459 L 460 460 L 459 461 L 458 466 L 457 476 L 456 485 L 456 489 L 456 491 L 457 491" stroke="#ffffff" stroke-width="3" stroke-linecap="round" stroke-linejoin="round" fill="none"/><path d="M 457 480 L 456 479 L 454 478 L 453 477 L 450 480 L 448 485 L 448 490 L 450 493 L 456 493 L 464 489 L 465 488" stroke="#ffffff" stroke-width="3" stroke-linecap="round" stroke-linejoin="round" fill="none"/><path d="M 480 458 L 480 457 L 479 456 L 479 460 L 478 470 L 476 481 L 476 487 L 477 488 L 478 488" stroke="#ffffff" stroke-width="3" stroke-linecap="round" stroke-linejoin="round" fill="none"/><path d="M 479 475 L 477 474 L 475 473 L 473 474 L 470 479 L 467 485 L 466 491 L 468 494 L 473 494 L 478 492 L 482 490" stroke="#ffffff" stroke-width="3" stroke-linecap="round" stroke-linejoin="round" fill="none"/><path d="M 489 478 L 488 478 L 488 481 L 488 484 L 488 487 L 489 487" stroke="#ffffff" stroke-width="3" stroke-linecap="round" stroke-linejoin="round" fill="none"/><path d="M 495 460 L 494 458 L 493 462 L 493 468 L 493 469" stroke="#ffffff" stroke-width="3" stroke-linecap="round" stroke-linejoin="round" fill="none"/><path d="M 503 465 L 503 467 L 500 472 L 498 478 L 496 482 L 496 483 L 497 482 L 499 478 L 503 473 L 505 470 L 508 469 L 508 470 L 508 474 L 508 478 L 509 481 L 510 481" stroke="#ffffff" stroke-width="3" stroke-linecap="round" stroke-linejoin="round" fill="none"/><path d="M 526 474 L 526 473 L 527 470 L 529 467 L 531 463 L 531 461 L 531 459 L 529 458 L 528 458 L 525 459 L 521 463 L 520 467 L 519 470 L 521 471 L 525 469 L 527 467 L 529 465 L 529 463 L 529 465 L 526 471 L 523 479 L 519 487 L 516 492 L 514 495 L 512 495 L 510 496 L 508 494 L 508 492 L 510 488 L 514 484 L 519 480 L 526 477 L 534 475 L 540 473" stroke="#ffffff" stroke-width="3" stroke-linecap="round" stroke-linejoin="round" fill="none"/><path d="M 571 452 L 572 450 L 570 451 L 566 457 L 561 462 L 556 466 L 553 468" stroke="#ffffff" stroke-width="3" stroke-linecap="round" stroke-linejoin="round" fill="none"/><path d="M 572 459 L 572 457 L 570 458 L 566 464 L 562 470 L 559 474" stroke="#ffffff" stroke-width="3" stroke-linecap="round" stroke-linejoin="round" fill="none"/><path d="M 564 467 L 564 468 L 564 472 L 563 479 L 563 484 L 565 486 L 566 486" stroke="#ffffff" stroke-width="3" stroke-linecap="round" stroke-linejoin="round" fill="none"/><path d="M 580 455 L 580 452 L 582 450 L 587 449 L 594 449 L 598 450 L 601 451 L 602 452" stroke="#ffffff" stroke-width="3" stroke-linecap="round" stroke-linejoin="round" fill="none"/><path d="M 578 467 L 577 467 L 582 465 L 588 464 L 595 463 L 598 462 L 599 462 L 596 462 L 593 463 L 590 466 L 588 471 L 587 478 L 587 484 L 585 489 L 583 491 L 582 491 L 582 490" stroke="#ffffff" stroke-width="3" stroke-linecap="round" stroke-linejoin="round" fill="none"/><path d="M 627 467 L 627 464 L 626 464 L 624 465 L 621 467 L 617 469 L 612 472 L 609 474 L 608 476 L 610 478 L 615 480 L 621 482 L 627 485 L 630 487" stroke="#ffffff" stroke-width="3" stroke-linecap="round" stroke-linejoin="round" fill="none"/></svg>
