<svg xmlns="http://www.w3.org/2000/svg" width="674" height="444" viewBox="0 0 674 444"><path d="M 13 31 L 13 30 L 12 27 L 13 25 L 16 24 L 19 24 L 22 28 L 22 32 L 22 36 L 19 39 L 15 43 L 12 45 L 10 47 L 14 48 L 19 47 L 25 45 L 32 43 L 36 41" stroke="#ffffff" stroke-width="2" stroke-linecap="round" stroke-linejoin="round" fill="none"/><path d="M 48 18 L 47 18 L 45 17 L 44 17 L 43 18 L 42 21 L 40 24 L 39 27 L 38 30 L 38 31 L 40 31 L 46 30 L 51 28 L 56 27 L 58 26" stroke="#ffffff" stroke-width="2" stroke-linecap="round" stroke-linejoin="round" fill="none"/><path d="M 48 17 L 47 16 L 46 15 L 45 14 L 45 15 L 47 21 L 48 31 L 47 43 L 47 49" stroke="#ffffff" stroke-width="2" stroke-linecap="round" stroke-linejoin="round" fill="none"/><path d="M 82 11 L 81 11 L 79 10 L 76 15 L 71 27 L 65 43 L 58 57 L 53 67 L 51 72 L 51 73" stroke="#ffffff" stroke-width="2" stroke-linecap="round" stroke-linejoin="round" fill="none"/><path d="M 88 43 L 85 41 L 84 40 L 83 43 L 83 48 L 84 53 L 86 57" stroke="#ffffff" stroke-width="2" stroke-linecap="round" stroke-linejoin="round" fill="none"/><path d="M 103 38 L 102 38 L 100 37 L 100 39 L 101 43 L 103 48 L 106 52 L 109 53 L 113 50 L 115 44 L 116 39 L 116 36 L 113 35 L 110 35 L 107 35 L 103 37 L 101 42 L 99 46 L 99 48" stroke="#ffffff" stroke-width="2" stroke-linecap="round" stroke-linejoin="round" fill="none"/><path d="M 212 32 L 212 30 L 212 29 L 211 27 L 209 26 L 207 27 L 203 32 L 199 41 L 199 49 L 202 51 L 209 49 L 216 43" stroke="#ffffff" stroke-width="2" stroke-linecap="round" stroke-linejoin="round" fill="none"/><path d="M 241 33 L 241 32 L 241 30 L 242 26 L 244 22 L 244 20 L 244 18 L 243 18 L 240 18 L 235 23 L 231 30 L 230 36 L 231 39 L 236 38 L 240 34 L 241 31 L 242 28 L 242 26 L 241 26 L 240 30 L 238 37 L 235 47 L 233 56 L 232 61 L 234 62" stroke="#ffffff" stroke-width="2" stroke-linecap="round" stroke-linejoin="round" fill="none"/><path d="M 261 30 L 259 29 L 258 29 L 257 34 L 256 42 L 256 49 L 258 52 L 261 52 L 264 48 L 267 43 L 268 37 L 268 32 L 265 29 L 261 29 L 257 34 L 255 38" stroke="#ffffff" stroke-width="2" stroke-linecap="round" stroke-linejoin="round" fill="none"/><path d="M 37 98 L 37 95 L 36 94 L 35 94 L 33 98 L 30 103 L 28 107 L 26 111 L 25 113 L 25 115 L 27 115 L 31 113 L 36 110 L 41 108 L 44 107" stroke="#ffffff" stroke-width="2" stroke-linecap="round" stroke-linejoin="round" fill="none"/><path d="M 38 96 L 38 95 L 37 92 L 36 91 L 36 93 L 36 100 L 36 110 L 35 119 L 35 127 L 36 128" stroke="#ffffff" stroke-width="2" stroke-linecap="round" stroke-linejoin="round" fill="none"/><path d="M 58 102 L 56 102 L 55 102 L 54 103 L 53 106 L 53 111 L 53 112" stroke="#ffffff" stroke-width="2" stroke-linecap="round" stroke-linejoin="round" fill="none"/><path d="M 58 108 L 57 107 L 56 105 L 58 103 L 61 102 L 64 102 L 65 102 L 64 103 L 63 105 L 61 108 L 59 113 L 58 119 L 58 125" stroke="#ffffff" stroke-width="2" stroke-linecap="round" stroke-linejoin="round" fill="none"/><path d="M 78 89 L 76 89 L 74 89 L 73 93 L 73 103 L 73 112 L 73 119 L 73 122" stroke="#ffffff" stroke-width="2" stroke-linecap="round" stroke-linejoin="round" fill="none"/><path d="M 74 96 L 73 93 L 73 91 L 74 90 L 77 89 L 80 89 L 82 90 L 84 94 L 85 100 L 85 107 L 84 114 L 84 119" stroke="#ffffff" stroke-width="2" stroke-linecap="round" stroke-linejoin="round" fill="none"/><path d="M 80 105 L 79 104 L 77 103 L 78 103 L 80 103" stroke="#ffffff" stroke-width="2" stroke-linecap="round" stroke-linejoin="round" fill="none"/><path d="M 79 109 L 77 110 L 75 111 L 78 111 L 80 110" stroke="#ffffff" stroke-width="2" stroke-linecap="round" stroke-linejoin="round" fill="none"/><path d="M 97 110 L 96 109 L 97 107 L 102 103 L 109 99 L 113 96 L 115 95" stroke="#ffffff" stroke-width="2" stroke-linecap="round" stroke-linejoin="round" fill="none"/><path d="M 109 90 L 108 89 L 107 89 L 107 90 L 106 96 L 105 104 L 106 109 L 109 110 L 114 107 L 119 103" stroke="#ffffff" stroke-width="2" stroke-linecap="round" stroke-linejoin="round" fill="none"/><path d="M 123 104 L 122 104 L 121 103 L 123 100 L 128 96 L 133 94 L 137 93 L 138 96 L 137 100 L 135 104 L 134 106 L 132 107 L 131 107 L 130 104 L 129 100 L 129 97 L 130 95 L 131 95 L 131 100 L 129 107 L 126 115 L 124 121" stroke="#ffffff" stroke-width="2" stroke-linecap="round" stroke-linejoin="round" fill="none"/><path d="M 144 112 L 143 111 L 143 109 L 146 106 L 151 105 L 153 107 L 153 112 L 150 116 L 147 119 L 146 120" stroke="#ffffff" stroke-width="2" stroke-linecap="round" stroke-linejoin="round" fill="none"/><path d="M 158 95 L 158 94 L 158 92 L 160 89 L 164 87 L 169 87 L 172 87 L 172 88 L 172 89 L 169 94 L 167 100 L 165 106 L 167 111 L 172 113 L 176 113" stroke="#ffffff" stroke-width="2" stroke-linecap="round" stroke-linejoin="round" fill="none"/><path d="M 187 98 L 186 97 L 186 95 L 189 91 L 193 87 L 198 85 L 199 85" stroke="#ffffff" stroke-width="2" stroke-linecap="round" stroke-linejoin="round" fill="none"/><path d="M 198 83 L 197 83 L 195 86 L 192 92 L 189 101 L 188 108 L 188 110 L 189 110" stroke="#ffffff" stroke-width="2" stroke-linecap="round" stroke-linejoin="round" fill="none"/><path d="M 204 88 L 207 84 L 211 80 L 215 78 L 218 78 L 218 79 L 218 80 L 216 81 L 214 82 L 212 83 L 211 86 L 209 92 L 207 101 L 206 108 L 205 112 L 204 113 L 203 112 L 202 110 L 202 108 L 204 106 L 208 103 L 215 99" stroke="#ffffff" stroke-width="2" stroke-linecap="round" stroke-linejoin="round" fill="none"/><path d="M 226 102 L 223 102 L 222 101 L 224 99 L 229 96 L 234 94 L 238 93 L 238 95 L 238 99 L 236 102 L 234 103 L 233 103 L 232 100 L 232 94 L 232 87 L 233 82 L 233 81 L 233 83 L 232 90 L 230 98 L 228 105 L 227 109 L 227 110" stroke="#ffffff" stroke-width="2" stroke-linecap="round" stroke-linejoin="round" fill="none"/><path d="M 243 79 L 244 78 L 244 77 L 244 78 L 246 83 L 248 88" stroke="#ffffff" stroke-width="2" stroke-linecap="round" stroke-linejoin="round" fill="none"/><path d="M 247 107 L 246 105 L 246 103 L 250 102 L 254 102 L 256 104 L 254 108 L 250 112 L 246 115" stroke="#ffffff" stroke-width="2" stroke-linecap="round" stroke-linejoin="round" fill="none"/><path d="M 264 94 L 262 92 L 262 90 L 265 87 L 272 84 L 279 82 L 281 81" stroke="#ffffff" stroke-width="2" stroke-linecap="round" stroke-linejoin="round" fill="none"/><path d="M 275 78 L 273 77 L 272 76 L 272 77 L 271 83 L 269 94 L 268 106 L 267 113 L 268 116 L 271 116" stroke="#ffffff" stroke-width="2" stroke-linecap="round" stroke-linejoin="round" fill="none"/><path d="M 281 98 L 280 96 L 280 94 L 280 93 L 283 93 L 285 93" stroke="#ffffff" stroke-width="2" stroke-linecap="round" stroke-linejoin="round" fill="none"/><path d="M 282 106 L 281 106 L 278 107 L 282 104 L 290 100 L 292 99" stroke="#ffffff" stroke-width="2" stroke-linecap="round" stroke-linejoin="round" fill="none"/><path d="M 357 83 L 356 83 L 356 82 L 361 78 L 372 71 L 381 66 L 385 65" stroke="#ffffff" stroke-width="2" stroke-linecap="round" stroke-linejoin="round" fill="none"/><path d="M 375 72 L 374 72 L 373 72 L 372 74 L 371 82 L 369 94 L 369 102 L 370 104" stroke="#ffffff" stroke-width="2" stroke-linecap="round" stroke-linejoin="round" fill="none"/><path d="M 393 84 L 391 82 L 390 80 L 388 79 L 387 79 L 386 80 L 383 85 L 382 90 L 382 93 L 385 94 L 389 91 L 391 87 L 392 83 L 392 80 L 392 79 L 391 79 L 391 81 L 391 85 L 390 90 L 390 95 L 390 96" stroke="#ffffff" stroke-width="2" stroke-linecap="round" stroke-linejoin="round" fill="none"/><path d="M 401 76 L 399 77 L 398 80 L 398 87 L 398 92 L 398 94 L 398 89 L 401 83 L 404 79 L 408 77 L 411 80 L 412 86 L 411 92 L 411 94" stroke="#ffffff" stroke-width="2" stroke-linecap="round" stroke-linejoin="round" fill="none"/><path d="M 458 61 L 456 61 L 454 60 L 451 60 L 449 60 L 447 62 L 447 67 L 448 72 L 452 78 L 455 83 L 456 86 L 455 88 L 452 90 L 447 90 L 442 90 L 441 86" stroke="#ffffff" stroke-width="2" stroke-linecap="round" stroke-linejoin="round" fill="none"/><path d="M 468 72 L 467 72 L 466 73 L 464 76 L 464 81 L 464 85 L 468 85 L 472 82 L 475 78 L 477 73 L 478 71 L 477 70 L 476 73 L 475 78 L 474 83 L 475 86" stroke="#ffffff" stroke-width="2" stroke-linecap="round" stroke-linejoin="round" fill="none"/><path d="M 489 76 L 489 75 L 489 74 L 489 73 L 488 71 L 487 71 L 485 71 L 482 74 L 480 79 L 480 82 L 482 84 L 486 83 L 489 81 L 491 78 L 491 75 L 491 73 L 490 74 L 490 77 L 490 82 L 490 85 L 490 87" stroke="#ffffff" stroke-width="2" stroke-linecap="round" stroke-linejoin="round" fill="none"/><path d="M 498 70 L 496 69 L 495 73 L 495 79 L 495 84 L 496 86 L 497 86 L 497 82 L 499 79 L 501 75 L 504 72 L 506 72 L 509 75 L 509 79 L 509 83 L 507 87" stroke="#ffffff" stroke-width="2" stroke-linecap="round" stroke-linejoin="round" fill="none"/><path d="M 538 59 L 538 58 L 535 56 L 532 56 L 529 61 L 526 71 L 524 84 L 524 93 L 527 96 L 529 96" stroke="#ffffff" stroke-width="2" stroke-linecap="round" stroke-linejoin="round" fill="none"/><path d="M 553 63 L 553 62 L 553 57 L 555 56 L 558 57 L 558 60 L 558 65 L 556 69 L 553 72 L 550 74 L 549 77" stroke="#ffffff" stroke-width="2" stroke-linecap="round" stroke-linejoin="round" fill="none"/><path d="M 556 82 L 552 82 L 550 83 L 550 84 L 552 85 L 556 85 L 558 85 L 558 83 L 558 82 L 555 82 L 553 83 L 552 84" stroke="#ffffff" stroke-width="2" stroke-linecap="round" stroke-linejoin="round" fill="none"/><path d="M 578 49 L 578 47 L 579 44 L 582 45 L 584 54 L 584 66 L 580 79 L 573 89 L 566 95 L 561 97 L 560 98" stroke="#ffffff" stroke-width="2" stroke-linecap="round" stroke-linejoin="round" fill="none"/><path d="M 605 77 L 605 75 L 605 73 L 604 78 L 602 83 L 601 87 L 599 90 L 598 89 L 599 85 L 602 79 L 606 74 L 611 72 L 615 74 L 616 79 L 613 86 L 609 92 L 605 97" stroke="#ffffff" stroke-width="2" stroke-linecap="round" stroke-linejoin="round" fill="none"/><path d="M 29 159 L 28 159 L 26 159 L 24 159 L 27 158 L 32 154 L 38 151 L 39 151" stroke="#ffffff" stroke-width="2" stroke-linecap="round" stroke-linejoin="round" fill="none"/><path d="M 29 159 L 27 159 L 26 159 L 25 163 L 25 170 L 26 176" stroke="#ffffff" stroke-width="2" stroke-linecap="round" stroke-linejoin="round" fill="none"/><path d="M 31 167 L 31 166 L 30 164 L 31 163 L 33 162" stroke="#ffffff" stroke-width="2" stroke-linecap="round" stroke-linejoin="round" fill="none"/><path d="M 29 174 L 28 174 L 26 174 L 27 172 L 31 168 L 33 167" stroke="#ffffff" stroke-width="2" stroke-linecap="round" stroke-linejoin="round" fill="none"/><path d="M 22 188 L 21 187 L 22 184 L 30 176 L 42 165" stroke="#ffffff" stroke-width="2" stroke-linecap="round" stroke-linejoin="round" fill="none"/><path d="M 56 143 L 55 143 L 53 142 L 51 144 L 48 150 L 46 156" stroke="#ffffff" stroke-width="2" stroke-linecap="round" stroke-linejoin="round" fill="none"/><path d="M 62 145 L 61 145 L 59 146 L 57 149 L 54 154 L 54 158" stroke="#ffffff" stroke-width="2" stroke-linecap="round" stroke-linejoin="round" fill="none"/><path d="M 58 152 L 57 153 L 56 154 L 54 158 L 53 159" stroke="#ffffff" stroke-width="2" stroke-linecap="round" stroke-linejoin="round" fill="none"/><path d="M 40 181 L 40 180 L 38 178 L 39 175 L 43 171 L 48 169 L 52 167 L 53 168 L 51 173 L 48 180 L 46 186 L 43 191" stroke="#ffffff" stroke-width="2" stroke-linecap="round" stroke-linejoin="round" fill="none"/><path d="M 43 176 L 44 177 L 50 180 L 60 182" stroke="#ffffff" stroke-width="2" stroke-linecap="round" stroke-linejoin="round" fill="none"/><path d="M 85 157 L 85 156 L 86 156 L 86 161 L 85 167 L 83 172 L 82 173 L 80 170 L 79 165 L 80 159 L 85 154 L 92 153 L 98 156 L 99 162 L 97 168 L 94 173 L 93 176" stroke="#ffffff" stroke-width="2" stroke-linecap="round" stroke-linejoin="round" fill="none"/><path d="M 132 141 L 132 140 L 131 139 L 128 142 L 124 148 L 121 155" stroke="#ffffff" stroke-width="2" stroke-linecap="round" stroke-linejoin="round" fill="none"/><path d="M 120 160 L 119 160 L 118 158 L 122 155 L 129 151 L 136 148 L 138 147" stroke="#ffffff" stroke-width="2" stroke-linecap="round" stroke-linejoin="round" fill="none"/><path d="M 119 169 L 117 169 L 116 169 L 118 167 L 124 163 L 131 158 L 135 155 L 136 155" stroke="#ffffff" stroke-width="2" stroke-linecap="round" stroke-linejoin="round" fill="none"/><path d="M 130 146 L 129 147 L 128 150 L 127 158 L 127 167 L 129 171 L 133 172 L 138 170 L 143 165 L 145 163" stroke="#ffffff" stroke-width="2" stroke-linecap="round" stroke-linejoin="round" fill="none"/><path d="M 167 152 L 166 152 L 165 152 L 165 150 L 169 146 L 175 142 L 179 139 L 181 139 L 180 140 L 179 144 L 177 151 L 174 159 L 173 165 L 173 168" stroke="#ffffff" stroke-width="2" stroke-linecap="round" stroke-linejoin="round" fill="none"/><path d="M 190 152 L 190 153 L 189 153 L 189 152 L 191 149 L 195 147 L 199 145 L 201 143 L 201 141 L 199 141 L 197 141 L 196 142 L 196 147 L 196 152 L 196 158 L 196 163 L 197 165" stroke="#ffffff" stroke-width="2" stroke-linecap="round" stroke-linejoin="round" fill="none"/><path d="M 199 152 L 197 152 L 196 151 L 195 152 L 193 155 L 190 161 L 190 163" stroke="#ffffff" stroke-width="2" stroke-linecap="round" stroke-linejoin="round" fill="none"/><path d="M 212 147 L 212 148 L 210 149 L 210 151 L 211 154 L 212 158 L 214 161" stroke="#ffffff" stroke-width="2" stroke-linecap="round" stroke-linejoin="round" fill="none"/><path d="M 213 152 L 212 150 L 212 147 L 213 144 L 216 142 L 219 141 L 221 139 L 223 138 L 225 138 L 225 140 L 225 144 L 224 150 L 223 155 L 223 156" stroke="#ffffff" stroke-width="2" stroke-linecap="round" stroke-linejoin="round" fill="none"/><path d="M 215 161 L 213 161 L 213 160 L 217 159 L 223 156" stroke="#ffffff" stroke-width="2" stroke-linecap="round" stroke-linejoin="round" fill="none"/><path d="M 237 154 L 237 155 L 238 154 L 241 152 L 248 150 L 249 149" stroke="#ffffff" stroke-width="2" stroke-linecap="round" stroke-linejoin="round" fill="none"/><path d="M 348 127 L 346 126 L 345 124 L 344 124 L 342 129 L 339 139 L 336 150 L 335 156 L 335 159" stroke="#ffffff" stroke-width="2" stroke-linecap="round" stroke-linejoin="round" fill="none"/><path d="M 346 128 L 346 126 L 346 125 L 348 124 L 352 124 L 358 124 L 362 123" stroke="#ffffff" stroke-width="2" stroke-linecap="round" stroke-linejoin="round" fill="none"/><path d="M 351 140 L 350 139 L 350 137 L 352 135 L 355 134 L 358 134" stroke="#ffffff" stroke-width="2" stroke-linecap="round" stroke-linejoin="round" fill="none"/><path d="M 350 150 L 349 150 L 349 148 L 350 147 L 353 145 L 357 144 L 360 144 L 361 145 L 360 148 L 358 154 L 355 159 L 352 162 L 351 163" stroke="#ffffff" stroke-width="2" stroke-linecap="round" stroke-linejoin="round" fill="none"/><path d="M 394 113 L 393 113 L 391 114 L 390 118 L 389 124 L 388 129" stroke="#ffffff" stroke-width="2" stroke-linecap="round" stroke-linejoin="round" fill="none"/><path d="M 383 132 L 382 132 L 382 131 L 386 128 L 394 125 L 400 124 L 402 125 L 400 127 L 395 132 L 390 137 L 385 143 L 380 147 L 379 149" stroke="#ffffff" stroke-width="2" stroke-linecap="round" stroke-linejoin="round" fill="none"/><path d="M 390 137 L 390 135 L 390 137 L 390 144 L 390 151 L 389 158 L 389 160" stroke="#ffffff" stroke-width="2" stroke-linecap="round" stroke-linejoin="round" fill="none"/><path d="M 397 135 L 396 135 L 396 136 L 399 139 L 404 141" stroke="#ffffff" stroke-width="2" stroke-linecap="round" stroke-linejoin="round" fill="none"/><path d="M 412 144 L 411 144 L 411 143 L 413 142 L 417 141 L 422 139" stroke="#ffffff" stroke-width="2" stroke-linecap="round" stroke-linejoin="round" fill="none"/><path d="M 434 144 L 434 145 L 434 144 L 435 142 L 439 138 L 444 136 L 447 137 L 447 140 L 445 145 L 442 149 L 440 152 L 438 152" stroke="#ffffff" stroke-width="2" stroke-linecap="round" stroke-linejoin="round" fill="none"/><path d="M 450 123 L 450 122 L 450 118 L 450 117 L 452 116 L 453 119 L 453 122 L 453 125 L 451 126 L 450 127" stroke="#ffffff" stroke-width="2" stroke-linecap="round" stroke-linejoin="round" fill="none"/><path d="M 460 140 L 459 138 L 461 134 L 466 131 L 471 130 L 473 130" stroke="#ffffff" stroke-width="2" stroke-linecap="round" stroke-linejoin="round" fill="none"/><path d="M 471 124 L 469 123 L 468 123 L 466 127 L 465 134 L 465 140 L 467 142 L 471 141 L 476 137 L 477 136" stroke="#ffffff" stroke-width="2" stroke-linecap="round" stroke-linejoin="round" fill="none"/><path d="M 477 136 L 476 135 L 475 134 L 479 131 L 486 129 L 491 128 L 493 129 L 493 133 L 491 136 L 489 139 L 486 141 L 484 141 L 482 138 L 481 135 L 481 131 L 482 130 L 483 131 L 483 135 L 482 140 L 479 147 L 477 152 L 476 154" stroke="#ffffff" stroke-width="2" stroke-linecap="round" stroke-linejoin="round" fill="none"/><path d="M 496 145 L 496 144 L 496 143 L 498 141 L 500 141 L 502 143 L 502 146 L 500 149 L 498 151 L 497 152" stroke="#ffffff" stroke-width="2" stroke-linecap="round" stroke-linejoin="round" fill="none"/><path d="M 508 132 L 507 129 L 508 128 L 512 127 L 518 127 L 522 127 L 525 127 L 526 127 L 525 127 L 523 130 L 520 134 L 518 139 L 517 145 L 519 149 L 523 151 L 526 152" stroke="#ffffff" stroke-width="2" stroke-linecap="round" stroke-linejoin="round" fill="none"/><path d="M 552 130 L 550 130 L 549 130 L 550 129 L 554 128 L 561 127 L 565 126 L 566 126" stroke="#ffffff" stroke-width="2" stroke-linecap="round" stroke-linejoin="round" fill="none"/><path d="M 549 136 L 547 137 L 550 137 L 555 135 L 561 134 L 564 133" stroke="#ffffff" stroke-width="2" stroke-linecap="round" stroke-linejoin="round" fill="none"/><path d="M 559 122 L 560 122 L 560 121 L 559 122 L 558 128 L 556 139 L 555 148 L 554 152 L 552 152 L 550 151 L 549 149 L 549 147 L 551 146 L 555 146 L 561 146 L 566 146" stroke="#ffffff" stroke-width="2" stroke-linecap="round" stroke-linejoin="round" fill="none"/><path d="M 584 128 L 584 125 L 584 123 L 586 123 L 588 124 L 590 127 L 590 130 L 588 133 L 585 135 L 583 135 L 582 135 L 584 136 L 587 139 L 589 143 L 589 147 L 587 149 L 583 150 L 579 150 L 577 148 L 577 146 L 579 146 L 582 146 L 585 146 L 587 147" stroke="#ffffff" stroke-width="2" stroke-linecap="round" stroke-linejoin="round" fill="none"/><path d="M 605 128 L 605 127 L 603 126 L 602 126 L 602 131 L 602 138 L 604 143" stroke="#ffffff" stroke-width="2" stroke-linecap="round" stroke-linejoin="round" fill="none"/><path d="M 611 129 L 610 129 L 609 129 L 608 130 L 607 134 L 605 140 L 603 145 L 601 149 L 599 150 L 597 149 L 596 146 L 596 143 L 597 141 L 600 138 L 605 137 L 609 137 L 613 140 L 613 145 L 611 149 L 610 151" stroke="#ffffff" stroke-width="2" stroke-linecap="round" stroke-linejoin="round" fill="none"/><path d="M 641 132 L 639 132 L 639 133 L 638 135 L 637 138 L 635 143 L 632 146 L 630 146 L 629 144 L 630 140 L 633 136 L 638 134 L 642 133 L 645 137 L 646 142 L 643 147 L 640 151" stroke="#ffffff" stroke-width="2" stroke-linecap="round" stroke-linejoin="round" fill="none"/><path d="M 26 230 L 24 230 L 24 228 L 28 224 L 34 219 L 41 216 L 46 214 L 47 214" stroke="#ffffff" stroke-width="2" stroke-linecap="round" stroke-linejoin="round" fill="none"/><path d="M 40 211 L 39 210 L 38 210 L 38 214 L 38 224 L 39 236 L 40 246 L 41 251 L 41 252" stroke="#ffffff" stroke-width="2" stroke-linecap="round" stroke-linejoin="round" fill="none"/><path d="M 36 235 L 35 235 L 33 235 L 31 239 L 29 245 L 28 250 L 28 251" stroke="#ffffff" stroke-width="2" stroke-linecap="round" stroke-linejoin="round" fill="none"/><path d="M 48 232 L 49 232 L 51 234 L 53 235" stroke="#ffffff" stroke-width="2" stroke-linecap="round" stroke-linejoin="round" fill="none"/><path d="M 58 203 L 55 203 L 53 204 L 53 209 L 54 210" stroke="#ffffff" stroke-width="2" stroke-linecap="round" stroke-linejoin="round" fill="none"/><path d="M 62 202 L 63 202 L 63 203 L 63 210 L 63 212" stroke="#ffffff" stroke-width="2" stroke-linecap="round" stroke-linejoin="round" fill="none"/><path d="M 71 229 L 69 228 L 69 227 L 71 225 L 75 223 L 78 222 L 79 221 L 80 224 L 79 229 L 77 236 L 75 242 L 74 244 L 74 245" stroke="#ffffff" stroke-width="2" stroke-linecap="round" stroke-linejoin="round" fill="none"/><path d="M 81 199 L 81 200 L 78 202 L 78 207 L 78 211" stroke="#ffffff" stroke-width="2" stroke-linecap="round" stroke-linejoin="round" fill="none"/><path d="M 88 196 L 87 197 L 86 202" stroke="#ffffff" stroke-width="2" stroke-linecap="round" stroke-linejoin="round" fill="none"/><path d="M 136 210 L 134 210 L 133 208 L 133 207 L 135 204 L 139 201 L 143 198 L 146 198 L 149 198 L 152 198 L 156 197 L 160 197 L 164 197 L 166 199 L 168 201 L 169 203 L 170 205 L 171 207 L 171 209 L 171 212 L 171 215 L 171 217 L 171 220 L 171 224 L 170 228 L 169 231 L 168 234 L 168 237 L 167 239 L 165 242 L 163 244 L 161 246 L 159 248 L 156 250 L 153 252 L 153 253" stroke="#ffffff" stroke-width="2" stroke-linecap="round" stroke-linejoin="round" fill="none"/><path d="M 141 229 L 140 229 L 140 228 L 140 227 L 140 226 L 142 225 L 143 225 L 145 225 L 146 225 L 146 226 L 146 229 L 144 233 L 142 236 L 140 238" stroke="#ffffff" stroke-width="2" stroke-linecap="round" stroke-linejoin="round" fill="none"/><path d="M 218 199 L 218 197 L 217 196 L 216 199 L 213 208 L 212 218 L 213 224 L 215 225" stroke="#ffffff" stroke-width="2" stroke-linecap="round" stroke-linejoin="round" fill="none"/><path d="M 229 204 L 229 202 L 229 200 L 230 199 L 232 199" stroke="#ffffff" stroke-width="2" stroke-linecap="round" stroke-linejoin="round" fill="none"/><path d="M 230 212 L 228 214 L 227 214 L 228 214 L 232 211 L 236 208" stroke="#ffffff" stroke-width="2" stroke-linecap="round" stroke-linejoin="round" fill="none"/><path d="M 252 205 L 251 204 L 250 202 L 252 198 L 257 195 L 259 194" stroke="#ffffff" stroke-width="2" stroke-linecap="round" stroke-linejoin="round" fill="none"/><path d="M 263 189 L 263 190 L 261 191 L 258 195 L 255 203 L 252 213 L 250 220 L 250 221" stroke="#ffffff" stroke-width="2" stroke-linecap="round" stroke-linejoin="round" fill="none"/><path d="M 271 195 L 271 192 L 271 190 L 274 189 L 277 189 L 280 188 L 281 189 L 279 191 L 276 194 L 274 198 L 272 203 L 270 209 L 268 215 L 266 218 L 264 218 L 263 217 L 264 215 L 267 211 L 271 208 L 276 206 L 277 205" stroke="#ffffff" stroke-width="2" stroke-linecap="round" stroke-linejoin="round" fill="none"/><path d="M 283 213 L 282 213 L 282 211 L 284 210 L 288 209 L 290 210 L 290 213 L 286 217 L 283 219" stroke="#ffffff" stroke-width="2" stroke-linecap="round" stroke-linejoin="round" fill="none"/><path d="M 299 196 L 298 196 L 299 195 L 303 193 L 309 191 L 315 189 L 318 189 L 317 189 L 314 190 L 310 194 L 307 200 L 306 207 L 308 213 L 314 216 L 318 216" stroke="#ffffff" stroke-width="2" stroke-linecap="round" stroke-linejoin="round" fill="none"/><path d="M 326 197 L 324 197 L 324 195 L 327 192 L 335 188 L 343 186 L 347 185" stroke="#ffffff" stroke-width="2" stroke-linecap="round" stroke-linejoin="round" fill="none"/><path d="M 342 179 L 340 180 L 338 180 L 335 182 L 333 190 L 332 201 L 332 210 L 332 214 L 332 215" stroke="#ffffff" stroke-width="2" stroke-linecap="round" stroke-linejoin="round" fill="none"/><path d="M 340 204 L 339 201 L 339 199 L 341 197 L 344 196 L 346 196" stroke="#ffffff" stroke-width="2" stroke-linecap="round" stroke-linejoin="round" fill="none"/><path d="M 343 209 L 343 210 L 341 211 L 340 211 L 344 208 L 351 203 L 353 202" stroke="#ffffff" stroke-width="2" stroke-linecap="round" stroke-linejoin="round" fill="none"/><path d="M 365 194 L 365 193 L 364 193 L 362 195 L 361 200 L 362 204 L 365 207 L 367 207" stroke="#ffffff" stroke-width="2" stroke-linecap="round" stroke-linejoin="round" fill="none"/><path d="M 371 195 L 371 194 L 372 192 L 374 189 L 379 186 L 385 184 L 389 182 L 390 181 L 389 181" stroke="#ffffff" stroke-width="2" stroke-linecap="round" stroke-linejoin="round" fill="none"/><path d="M 382 178 L 381 178 L 381 179 L 381 188 L 380 203 L 377 215 L 374 220 L 372 221" stroke="#ffffff" stroke-width="2" stroke-linecap="round" stroke-linejoin="round" fill="none"/><path d="M 398 190 L 398 189 L 397 189 L 398 192 L 399 194" stroke="#ffffff" stroke-width="2" stroke-linecap="round" stroke-linejoin="round" fill="none"/><path d="M 406 194 L 405 193 L 403 193 L 402 193 L 400 194 L 398 198 L 397 202 L 397 207 L 400 209 L 405 208 L 411 204 L 413 201" stroke="#ffffff" stroke-width="2" stroke-linecap="round" stroke-linejoin="round" fill="none"/><path d="M 414 178 L 414 179 L 410 182 L 408 185 L 408 188 L 409 188" stroke="#ffffff" stroke-width="2" stroke-linecap="round" stroke-linejoin="round" fill="none"/><path d="M 420 177 L 419 179 L 419 182" stroke="#ffffff" stroke-width="2" stroke-linecap="round" stroke-linejoin="round" fill="none"/><path d="M 457 172 L 456 171 L 455 169 L 455 170 L 456 173 L 457 178" stroke="#ffffff" stroke-width="2" stroke-linecap="round" stroke-linejoin="round" fill="none"/><path d="M 470 170 L 469 169 L 467 170 L 463 174 L 459 180 L 456 184" stroke="#ffffff" stroke-width="2" stroke-linecap="round" stroke-linejoin="round" fill="none"/><path d="M 447 190 L 448 187 L 456 181 L 469 175 L 479 172 L 482 172 L 481 173" stroke="#ffffff" stroke-width="2" stroke-linecap="round" stroke-linejoin="round" fill="none"/><path d="M 458 187 L 457 188 L 456 192 L 454 202 L 453 211 L 453 216 L 453 218" stroke="#ffffff" stroke-width="2" stroke-linecap="round" stroke-linejoin="round" fill="none"/><path d="M 454 204 L 454 202 L 455 195 L 456 190 L 457 188 L 460 190 L 461 195 L 462 202 L 462 209 L 462 213 L 461 214" stroke="#ffffff" stroke-width="2" stroke-linecap="round" stroke-linejoin="round" fill="none"/><path d="M 457 199 L 457 196 L 456 194 L 457 194 L 459 194" stroke="#ffffff" stroke-width="2" stroke-linecap="round" stroke-linejoin="round" fill="none"/><path d="M 458 199 L 458 201 L 457 202 L 457 201 L 460 199 L 465 196 L 466 195" stroke="#ffffff" stroke-width="2" stroke-linecap="round" stroke-linejoin="round" fill="none"/><path d="M 470 185 L 470 184 L 470 183 L 469 184 L 468 188 L 468 193 L 468 194" stroke="#ffffff" stroke-width="2" stroke-linecap="round" stroke-linejoin="round" fill="none"/><path d="M 475 182 L 475 181 L 476 180 L 476 183 L 476 191 L 474 200 L 471 209 L 467 215 L 464 217" stroke="#ffffff" stroke-width="2" stroke-linecap="round" stroke-linejoin="round" fill="none"/><path d="M 487 200 L 486 201 L 485 200 L 486 198 L 490 194 L 494 192 L 498 191 L 499 193 L 499 196 L 498 199 L 497 201 L 496 202 L 495 201 L 494 198 L 494 193 L 494 187 L 494 182 L 495 180 L 495 182 L 493 189 L 491 198 L 488 205 L 488 209 L 489 209" stroke="#ffffff" stroke-width="2" stroke-linecap="round" stroke-linejoin="round" fill="none"/><path d="M 502 178 L 502 177 L 503 175 L 503 177 L 504 183 L 506 190 L 508 191" stroke="#ffffff" stroke-width="2" stroke-linecap="round" stroke-linejoin="round" fill="none"/><path d="M 525 175 L 524 175 L 522 175 L 522 177 L 522 180 L 522 184" stroke="#ffffff" stroke-width="2" stroke-linecap="round" stroke-linejoin="round" fill="none"/><path d="M 520 183 L 520 182 L 517 186 L 515 191 L 514 196 L 514 198 L 516 197 L 519 195 L 522 194 L 524 195 L 525 199 L 521 205 L 516 209 L 511 211 L 509 212" stroke="#ffffff" stroke-width="2" stroke-linecap="round" stroke-linejoin="round" fill="none"/><path d="M 544 176 L 544 175 L 544 174 L 543 174 L 541 180 L 540 188 L 539 195 L 540 197" stroke="#ffffff" stroke-width="2" stroke-linecap="round" stroke-linejoin="round" fill="none"/><path d="M 543 181 L 543 179 L 542 175 L 543 173 L 545 172 L 547 172 L 548 175 L 549 179 L 549 184 L 549 190 L 549 193" stroke="#ffffff" stroke-width="2" stroke-linecap="round" stroke-linejoin="round" fill="none"/><path d="M 544 187 L 543 184 L 542 183 L 543 182 L 546 182" stroke="#ffffff" stroke-width="2" stroke-linecap="round" stroke-linejoin="round" fill="none"/><path d="M 544 193 L 541 193 L 540 193 L 540 191 L 543 190 L 546 190 L 546 193 L 544 199 L 540 207 L 536 212 L 534 214 L 535 213 L 538 209 L 541 203 L 544 197 L 547 193 L 548 191 L 549 196 L 549 202 L 550 206 L 553 208 L 558 207 L 561 205" stroke="#ffffff" stroke-width="2" stroke-linecap="round" stroke-linejoin="round" fill="none"/><path d="M 567 189 L 566 189 L 564 189 L 563 187 L 566 185 L 572 183 L 579 181 L 583 179" stroke="#ffffff" stroke-width="2" stroke-linecap="round" stroke-linejoin="round" fill="none"/><path d="M 576 175 L 574 175 L 573 175 L 572 178 L 570 187 L 568 198 L 567 205 L 567 209 L 567 210" stroke="#ffffff" stroke-width="2" stroke-linecap="round" stroke-linejoin="round" fill="none"/><path d="M 578 196 L 578 194 L 578 192 L 579 191 L 581 191" stroke="#ffffff" stroke-width="2" stroke-linecap="round" stroke-linejoin="round" fill="none"/><path d="M 579 200 L 578 201 L 576 201 L 575 201 L 579 200 L 583 198" stroke="#ffffff" stroke-width="2" stroke-linecap="round" stroke-linejoin="round" fill="none"/><path d="M 603 184 L 602 184 L 600 184 L 598 187 L 597 193 L 597 198 L 598 201" stroke="#ffffff" stroke-width="2" stroke-linecap="round" stroke-linejoin="round" fill="none"/><path d="M 601 189 L 601 187 L 601 183 L 601 181 L 602 181 L 603 181 L 605 183 L 605 187 L 605 192 L 604 197 L 604 200" stroke="#ffffff" stroke-width="2" stroke-linecap="round" stroke-linejoin="round" fill="none"/><path d="M 602 195 L 601 193 L 600 191 L 600 190 L 602 189 L 603 188" stroke="#ffffff" stroke-width="2" stroke-linecap="round" stroke-linejoin="round" fill="none"/><path d="M 601 199 L 598 199 L 597 199 L 598 197 L 602 195" stroke="#ffffff" stroke-width="2" stroke-linecap="round" stroke-linejoin="round" fill="none"/><path d="M 621 173 L 621 172 L 621 170 L 621 169 L 623 169 L 626 168 L 630 167 L 628 169 L 625 172 L 621 176 L 619 180 L 619 182" stroke="#ffffff" stroke-width="2" stroke-linecap="round" stroke-linejoin="round" fill="none"/><path d="M 619 185 L 619 183 L 620 181 L 622 179 L 624 179" stroke="#ffffff" stroke-width="2" stroke-linecap="round" stroke-linejoin="round" fill="none"/><path d="M 620 193 L 619 193 L 618 192 L 618 190 L 621 187 L 623 184 L 625 182 L 625 186 L 624 192 L 622 199 L 621 206 L 619 211 L 617 212" stroke="#ffffff" stroke-width="2" stroke-linecap="round" stroke-linejoin="round" fill="none"/><path d="M 611 201 L 610 201 L 609 199 L 610 197 L 614 196 L 621 194 L 626 193" stroke="#ffffff" stroke-width="2" stroke-linecap="round" stroke-linejoin="round" fill="none"/><path d="M 647 187 L 645 187 L 643 187 L 640 191 L 637 197 L 635 203 L 636 206 L 637 206" stroke="#ffffff" stroke-width="2" stroke-linecap="round" stroke-linejoin="round" fill="none"/><path d="M 651 192 L 650 190 L 651 188 L 653 187 L 656 186 L 660 186 L 661 187" stroke="#ffffff" stroke-width="2" stroke-linecap="round" stroke-linejoin="round" fill="none"/><path d="M 656 198 L 654 198 L 653 198 L 654 198 L 660 196 L 664 195" stroke="#ffffff" stroke-width="2" stroke-linecap="round" stroke-linejoin="round" fill="none"/><path d="M 33 270 L 31 269 L 29 267 L 29 270 L 29 276 L 30 283 L 31 288" stroke="#ffffff" stroke-width="2" stroke-linecap="round" stroke-linejoin="round" fill="none"/><path d="M 25 294 L 24 292 L 24 290 L 29 286 L 36 282 L 42 279 L 44 279 L 43 282 L 40 288 L 36 294 L 31 302 L 27 308 L 27 309" stroke="#ffffff" stroke-width="2" stroke-linecap="round" stroke-linejoin="round" fill="none"/><path d="M 37 293 L 36 293 L 35 294 L 35 300 L 35 308 L 36 315" stroke="#ffffff" stroke-width="2" stroke-linecap="round" stroke-linejoin="round" fill="none"/><path d="M 44 298 L 44 297 L 45 297 L 48 298 L 49 298" stroke="#ffffff" stroke-width="2" stroke-linecap="round" stroke-linejoin="round" fill="none"/><path d="M 65 302 L 63 302 L 65 300 L 70 296 L 77 292 L 79 291" stroke="#ffffff" stroke-width="2" stroke-linecap="round" stroke-linejoin="round" fill="none"/><path d="M 100 298 L 99 297 L 98 294 L 98 292 L 101 289 L 104 289 L 106 291 L 107 296 L 104 302 L 102 306 L 101 308" stroke="#ffffff" stroke-width="2" stroke-linecap="round" stroke-linejoin="round" fill="none"/><path d="M 111 280 L 111 276 L 112 271 L 115 266 L 116 266 L 116 268 L 115 273 L 113 277 L 111 281 L 109 283" stroke="#ffffff" stroke-width="2" stroke-linecap="round" stroke-linejoin="round" fill="none"/><path d="M 137 266 L 137 265 L 136 263 L 135 263 L 135 269 L 134 278 L 134 285 L 135 289" stroke="#ffffff" stroke-width="2" stroke-linecap="round" stroke-linejoin="round" fill="none"/><path d="M 135 276 L 135 274 L 135 270 L 137 266 L 141 263 L 145 262 L 147 262 L 147 265 L 147 268 L 147 272 L 146 276 L 146 278" stroke="#ffffff" stroke-width="2" stroke-linecap="round" stroke-linejoin="round" fill="none"/><path d="M 143 277 L 142 276 L 139 274 L 139 272 L 142 270 L 145 270" stroke="#ffffff" stroke-width="2" stroke-linecap="round" stroke-linejoin="round" fill="none"/><path d="M 139 286 L 138 286 L 136 285 L 137 283 L 141 280 L 144 279 L 146 279 L 146 282 L 143 289 L 139 295 L 136 300 L 134 303" stroke="#ffffff" stroke-width="2" stroke-linecap="round" stroke-linejoin="round" fill="none"/><path d="M 144 284 L 144 283 L 144 281 L 146 284 L 148 290 L 150 294 L 153 295 L 158 291 L 160 290" stroke="#ffffff" stroke-width="2" stroke-linecap="round" stroke-linejoin="round" fill="none"/><path d="M 171 267 L 170 268 L 168 268 L 169 267 L 173 265 L 177 263" stroke="#ffffff" stroke-width="2" stroke-linecap="round" stroke-linejoin="round" fill="none"/><path d="M 171 278 L 170 278 L 169 277 L 169 275 L 172 274 L 175 273 L 177 274 L 177 277 L 175 282 L 173 285 L 171 288 L 171 289 L 171 287 L 173 284 L 176 282 L 178 281 L 180 282 L 182 284 L 185 285 L 189 283 L 190 282" stroke="#ffffff" stroke-width="2" stroke-linecap="round" stroke-linejoin="round" fill="none"/><path d="M 197 264 L 196 263 L 195 262 L 198 261 L 201 261 L 204 261 L 206 261 L 206 262 L 204 266 L 200 273 L 198 281 L 199 285 L 204 285 L 210 282" stroke="#ffffff" stroke-width="2" stroke-linecap="round" stroke-linejoin="round" fill="none"/><path d="M 228 258 L 227 256 L 226 255 L 225 256 L 223 264 L 223 275 L 223 283 L 225 286" stroke="#ffffff" stroke-width="2" stroke-linecap="round" stroke-linejoin="round" fill="none"/><path d="M 235 257 L 236 257 L 236 256 L 238 254 L 240 253 L 242 252" stroke="#ffffff" stroke-width="2" stroke-linecap="round" stroke-linejoin="round" fill="none"/><path d="M 234 266 L 234 267 L 234 266 L 236 263 L 241 260 L 245 258 L 247 257" stroke="#ffffff" stroke-width="2" stroke-linecap="round" stroke-linejoin="round" fill="none"/><path d="M 245 255 L 244 256 L 242 256 L 241 257 L 241 261 L 240 268 L 239 275 L 239 280 L 238 282 L 237 281 L 236 279 L 236 276 L 237 273 L 240 272 L 243 271 L 246 270" stroke="#ffffff" stroke-width="2" stroke-linecap="round" stroke-linejoin="round" fill="none"/><path d="M 262 255 L 261 256 L 259 259 L 258 266 L 258 273 L 260 277 L 263 276 L 268 271 L 273 264" stroke="#ffffff" stroke-width="2" stroke-linecap="round" stroke-linejoin="round" fill="none"/><path d="M 286 261 L 285 261 L 284 260 L 283 262 L 283 266 L 285 270 L 286 270" stroke="#ffffff" stroke-width="2" stroke-linecap="round" stroke-linejoin="round" fill="none"/><path d="M 295 260 L 295 259 L 296 257 L 296 256 L 297 259 L 297 265 L 297 267" stroke="#ffffff" stroke-width="2" stroke-linecap="round" stroke-linejoin="round" fill="none"/><path d="M 240 258 L 239 258 L 238 258 L 239 257 L 240 256 L 241 256 L 241 255 L 242 254 L 245 251 L 248 249 L 252 248 L 254 248" stroke="#ffffff" stroke-width="2" stroke-linecap="round" stroke-linejoin="round" fill="none"/><path d="M 305 267 L 305 266 L 309 262 L 314 257 L 319 253 L 321 253 L 321 257 L 319 263 L 318 267 L 317 269 L 316 269 L 316 267 L 316 262 L 316 257 L 315 251 L 315 245 L 315 243 L 315 244 L 314 249 L 313 259 L 311 269 L 310 275 L 310 278" stroke="#ffffff" stroke-width="2" stroke-linecap="round" stroke-linejoin="round" fill="none"/><path d="M 334 236 L 334 235 L 333 235 L 335 237 L 341 242 L 344 244" stroke="#ffffff" stroke-width="2" stroke-linecap="round" stroke-linejoin="round" fill="none"/><path d="M 346 242 L 344 241 L 344 240 L 344 242 L 344 246 L 344 249" stroke="#ffffff" stroke-width="2" stroke-linecap="round" stroke-linejoin="round" fill="none"/><path d="M 343 250 L 342 251 L 340 253 L 339 258 L 338 263 L 338 266 L 341 265 L 345 262 L 350 260 L 353 261 L 354 264 L 350 270 L 344 274 L 338 277 L 334 278" stroke="#ffffff" stroke-width="2" stroke-linecap="round" stroke-linejoin="round" fill="none"/><path d="M 390 235 L 389 231 L 389 229 L 389 231 L 390 236 L 390 242" stroke="#ffffff" stroke-width="2" stroke-linecap="round" stroke-linejoin="round" fill="none"/><path d="M 385 251 L 385 250 L 384 248 L 385 244 L 391 240 L 399 238 L 404 237 L 404 240 L 402 244 L 397 250 L 392 256 L 388 261 L 384 264 L 384 266" stroke="#ffffff" stroke-width="2" stroke-linecap="round" stroke-linejoin="round" fill="none"/><path d="M 394 252 L 394 251 L 394 250 L 393 251 L 393 257 L 393 264 L 393 270 L 393 273" stroke="#ffffff" stroke-width="2" stroke-linecap="round" stroke-linejoin="round" fill="none"/><path d="M 399 257 L 398 256 L 397 254 L 399 254 L 403 256 L 408 258 L 409 258" stroke="#ffffff" stroke-width="2" stroke-linecap="round" stroke-linejoin="round" fill="none"/><path d="M 416 259 L 412 259 L 414 258 L 418 257 L 424 255" stroke="#ffffff" stroke-width="2" stroke-linecap="round" stroke-linejoin="round" fill="none"/><path d="M 439 256 L 439 255 L 439 252 L 442 248 L 446 246 L 450 247 L 451 253 L 448 260 L 445 265 L 442 268 L 441 268 L 441 267" stroke="#ffffff" stroke-width="2" stroke-linecap="round" stroke-linejoin="round" fill="none"/><path d="M 452 240 L 453 238 L 453 232 L 455 227 L 456 226 L 457 227 L 457 231 L 455 235 L 453 239 L 451 241" stroke="#ffffff" stroke-width="2" stroke-linecap="round" stroke-linejoin="round" fill="none"/><path d="M 471 241 L 469 240 L 470 239 L 475 236 L 480 233 L 484 232 L 485 232" stroke="#ffffff" stroke-width="2" stroke-linecap="round" stroke-linejoin="round" fill="none"/><path d="M 475 240 L 474 240 L 472 240 L 471 243 L 471 250 L 471 256" stroke="#ffffff" stroke-width="2" stroke-linecap="round" stroke-linejoin="round" fill="none"/><path d="M 474 248 L 474 245 L 474 243 L 476 242 L 478 242" stroke="#ffffff" stroke-width="2" stroke-linecap="round" stroke-linejoin="round" fill="none"/><path d="M 473 254 L 472 254 L 472 253 L 475 250 L 480 247 L 484 245" stroke="#ffffff" stroke-width="2" stroke-linecap="round" stroke-linejoin="round" fill="none"/><path d="M 457 270 L 455 269 L 458 266 L 467 261 L 477 256 L 481 254 L 481 253 L 479 253 L 477 255 L 475 259 L 473 264 L 472 269 L 472 272 L 476 272 L 481 268 L 486 262 L 489 257 L 490 255 L 488 256 L 483 260 L 478 265 L 474 269 L 470 272 L 467 273" stroke="#ffffff" stroke-width="2" stroke-linecap="round" stroke-linejoin="round" fill="none"/><path d="M 471 260 L 473 259 L 475 258 L 479 259 L 485 262 L 490 265 L 494 267" stroke="#ffffff" stroke-width="2" stroke-linecap="round" stroke-linejoin="round" fill="none"/><path d="M 510 239 L 508 237 L 508 236 L 508 238 L 508 246 L 508 255 L 508 262 L 508 265" stroke="#ffffff" stroke-width="2" stroke-linecap="round" stroke-linejoin="round" fill="none"/><path d="M 516 243 L 517 242 L 516 241 L 514 242 L 511 250 L 507 259 L 504 265 L 500 269 L 498 269 L 496 266 L 497 261 L 502 255 L 509 250 L 518 248 L 523 252 L 524 259 L 521 265 L 517 270 L 516 271" stroke="#ffffff" stroke-width="2" stroke-linecap="round" stroke-linejoin="round" fill="none"/><path d="M 549 242 L 548 242 L 545 243 L 544 247 L 543 257 L 545 266 L 547 270 L 550 270 L 553 267 L 555 261 L 558 254 L 560 248 L 563 244" stroke="#ffffff" stroke-width="2" stroke-linecap="round" stroke-linejoin="round" fill="none"/><path d="M 572 258 L 570 258 L 571 258 L 575 257 L 578 256 L 580 255 L 580 253 L 578 253 L 574 253 L 571 256 L 568 261 L 567 266 L 569 270 L 574 270 L 580 268" stroke="#ffffff" stroke-width="2" stroke-linecap="round" stroke-linejoin="round" fill="none"/><path d="M 594 249 L 592 250 L 589 253 L 587 259 L 587 265 L 588 268 L 589 268 L 589 266 L 591 263 L 593 259 L 598 256 L 600 255" stroke="#ffffff" stroke-width="2" stroke-linecap="round" stroke-linejoin="round" fill="none"/><path d="M 96 330 L 95 328 L 94 327 L 94 328 L 95 333 L 95 339 L 96 342" stroke="#ffffff" stroke-width="2" stroke-linecap="round" stroke-linejoin="round" fill="none"/><path d="M 90 351 L 89 351 L 89 348 L 91 345 L 96 340 L 103 337 L 107 336 L 107 337 L 106 340 L 104 346 L 100 353 L 95 361 L 90 368 L 87 372" stroke="#ffffff" stroke-width="2" stroke-linecap="round" stroke-linejoin="round" fill="none"/><path d="M 101 353 L 99 353 L 99 355 L 99 362 L 100 370 L 100 377" stroke="#ffffff" stroke-width="2" stroke-linecap="round" stroke-linejoin="round" fill="none"/><path d="M 106 354 L 107 356" stroke="#ffffff" stroke-width="2" stroke-linecap="round" stroke-linejoin="round" fill="none"/><path d="M 124 358 L 122 358 L 121 357 L 123 356 L 128 354 L 134 351 L 136 351" stroke="#ffffff" stroke-width="2" stroke-linecap="round" stroke-linejoin="round" fill="none"/><path d="M 154 353 L 153 353 L 151 352 L 151 349 L 153 346 L 159 343 L 164 342 L 166 347 L 165 353 L 162 358 L 159 362 L 158 363" stroke="#ffffff" stroke-width="2" stroke-linecap="round" stroke-linejoin="round" fill="none"/><path d="M 170 331 L 169 328 L 169 324 L 170 320 L 173 319 L 175 320 L 175 325 L 173 330 L 171 333 L 169 334" stroke="#ffffff" stroke-width="2" stroke-linecap="round" stroke-linejoin="round" fill="none"/><path d="M 192 340 L 192 339 L 191 339 L 190 339 L 190 342 L 189 346 L 188 350 L 187 351 L 186 350 L 186 346 L 188 341 L 191 337 L 194 336 L 198 338 L 198 344 L 197 349 L 195 354 L 193 355" stroke="#ffffff" stroke-width="2" stroke-linecap="round" stroke-linejoin="round" fill="none"/><path d="M 105 353 L 105 352 L 107 354 L 111 357 L 115 360" stroke="#ffffff" stroke-width="2" stroke-linecap="round" stroke-linejoin="round" fill="none"/><path d="M 221 331 L 220 330 L 218 327 L 218 324 L 219 323 L 222 324 L 225 327 L 227 331 L 228 336 L 226 342 L 223 347 L 219 349 L 217 349 L 216 347 L 216 343 L 219 340 L 224 338 L 232 335 L 243 332 L 252 330 L 257 329" stroke="#ffffff" stroke-width="2" stroke-linecap="round" stroke-linejoin="round" fill="none"/><path d="M 248 320 L 246 320 L 245 320 L 245 324 L 245 335 L 243 348 L 239 357 L 237 361" stroke="#ffffff" stroke-width="2" stroke-linecap="round" stroke-linejoin="round" fill="none"/><path d="M 274 323 L 273 323 L 274 320 L 280 316 L 290 310 L 295 308 L 296 308" stroke="#ffffff" stroke-width="2" stroke-linecap="round" stroke-linejoin="round" fill="none"/><path d="M 288 307 L 287 307 L 285 307 L 284 308 L 283 314 L 283 322 L 282 328 L 282 331 L 281 331 L 282 329 L 284 327 L 287 327 L 290 329 L 291 335 L 289 341 L 286 345 L 282 346" stroke="#ffffff" stroke-width="2" stroke-linecap="round" stroke-linejoin="round" fill="none"/><path d="M 332 319 L 331 319 L 331 320 L 330 324 L 330 329 L 330 330" stroke="#ffffff" stroke-width="2" stroke-linecap="round" stroke-linejoin="round" fill="none"/><path d="M 307 324 L 306 323 L 306 325 L 307 329 L 308 334 L 308 338 L 306 340 L 305 341 L 303 339 L 302 336 L 302 333 L 303 332 L 305 332 L 308 332 L 312 333 L 315 333 L 316 334" stroke="#ffffff" stroke-width="2" stroke-linecap="round" stroke-linejoin="round" fill="none"/><path d="M 329 331 L 328 330 L 328 328 L 330 326 L 334 324 L 339 321 L 341 319" stroke="#ffffff" stroke-width="2" stroke-linecap="round" stroke-linejoin="round" fill="none"/><path d="M 353 307 L 353 306 L 353 310 L 353 318 L 352 326" stroke="#ffffff" stroke-width="2" stroke-linecap="round" stroke-linejoin="round" fill="none"/><path d="M 390 305 L 391 305 L 391 304 L 389 304 L 385 308 L 380 315 L 376 321 L 376 322" stroke="#ffffff" stroke-width="2" stroke-linecap="round" stroke-linejoin="round" fill="none"/><path d="M 382 312 L 382 311 L 382 308 L 383 305 L 386 305 L 389 309 L 390 315 L 389 323 L 385 330 L 379 335 L 374 338 L 373 338 L 373 337" stroke="#ffffff" stroke-width="2" stroke-linecap="round" stroke-linejoin="round" fill="none"/><path d="M 376 322 L 376 320 L 377 319 L 381 318 L 387 318 L 393 318" stroke="#ffffff" stroke-width="2" stroke-linecap="round" stroke-linejoin="round" fill="none"/><path d="M 404 296 L 402 296 L 400 296 L 399 299 L 398 308 L 398 320 L 398 329 L 398 333 L 398 335" stroke="#ffffff" stroke-width="2" stroke-linecap="round" stroke-linejoin="round" fill="none"/><path d="M 398 317 L 398 315 L 398 314 L 399 314 L 404 316 L 412 316" stroke="#ffffff" stroke-width="2" stroke-linecap="round" stroke-linejoin="round" fill="none"/><path d="M 430 312 L 429 311 L 428 310 L 427 311 L 425 317 L 423 325 L 423 330 L 424 332" stroke="#ffffff" stroke-width="2" stroke-linecap="round" stroke-linejoin="round" fill="none"/><path d="M 434 314 L 434 312 L 435 311 L 437 313 L 439 318 L 441 323 L 443 326" stroke="#ffffff" stroke-width="2" stroke-linecap="round" stroke-linejoin="round" fill="none"/><path d="M 466 296 L 464 294 L 463 293 L 463 295 L 461 301 L 460 307 L 459 310" stroke="#ffffff" stroke-width="2" stroke-linecap="round" stroke-linejoin="round" fill="none"/><path d="M 452 313 L 453 312 L 453 310 L 455 308 L 459 307 L 466 306 L 471 305 L 473 304 L 473 305 L 470 307 L 466 312 L 461 317 L 456 323 L 452 327 L 451 328 L 452 327" stroke="#ffffff" stroke-width="2" stroke-linecap="round" stroke-linejoin="round" fill="none"/><path d="M 465 315 L 464 315 L 463 315 L 461 316 L 460 320 L 459 325 L 458 330 L 458 334 L 457 334" stroke="#ffffff" stroke-width="2" stroke-linecap="round" stroke-linejoin="round" fill="none"/><path d="M 465 318 L 465 316 L 464 315 L 465 316 L 467 319 L 471 324 L 476 326" stroke="#ffffff" stroke-width="2" stroke-linecap="round" stroke-linejoin="round" fill="none"/><path d="M 501 309 L 500 309 L 498 310 L 497 312 L 495 318 L 494 326 L 494 330 L 496 330" stroke="#ffffff" stroke-width="2" stroke-linecap="round" stroke-linejoin="round" fill="none"/><path d="M 506 316 L 505 314 L 505 313 L 508 311 L 513 310 L 514 310" stroke="#ffffff" stroke-width="2" stroke-linecap="round" stroke-linejoin="round" fill="none"/><path d="M 511 321 L 510 321 L 506 323 L 509 322 L 516 319 L 524 314" stroke="#ffffff" stroke-width="2" stroke-linecap="round" stroke-linejoin="round" fill="none"/><path d="M 548 306 L 545 306 L 540 309 L 536 317 L 535 326 L 538 330 L 544 330 L 552 326 L 554 324" stroke="#ffffff" stroke-width="2" stroke-linecap="round" stroke-linejoin="round" fill="none"/><path d="M 559 312 L 559 310 L 559 308 L 562 305 L 567 303 L 572 303 L 576 302 L 577 302" stroke="#ffffff" stroke-width="2" stroke-linecap="round" stroke-linejoin="round" fill="none"/><path d="M 571 299 L 569 298 L 568 298 L 567 302 L 566 311 L 564 322 L 563 329 L 563 331" stroke="#ffffff" stroke-width="2" stroke-linecap="round" stroke-linejoin="round" fill="none"/><path d="M 574 319 L 573 316 L 573 314 L 575 313 L 580 312 L 584 312" stroke="#ffffff" stroke-width="2" stroke-linecap="round" stroke-linejoin="round" fill="none"/><path d="M 576 325 L 573 326 L 572 326 L 573 326 L 580 323 L 589 319" stroke="#ffffff" stroke-width="2" stroke-linecap="round" stroke-linejoin="round" fill="none"/><path d="M 133 401 L 133 400 L 133 398 L 132 398 L 131 399 L 130 404 L 129 409 L 129 415 L 132 419 L 136 420 L 142 415 L 147 410" stroke="#ffffff" stroke-width="2" stroke-linecap="round" stroke-linejoin="round" fill="none"/><path d="M 143 396 L 142 396 L 141 396 L 139 401 L 136 413 L 132 425 L 130 431 L 129 433" stroke="#ffffff" stroke-width="2" stroke-linecap="round" stroke-linejoin="round" fill="none"/><path d="M 121 414 L 121 413 L 120 412 L 122 410 L 128 408 L 137 404 L 142 401" stroke="#ffffff" stroke-width="2" stroke-linecap="round" stroke-linejoin="round" fill="none"/><path d="M 155 387 L 155 386 L 155 383 L 154 382 L 153 387 L 151 394 L 150 399" stroke="#ffffff" stroke-width="2" stroke-linecap="round" stroke-linejoin="round" fill="none"/><path d="M 145 400 L 144 401 L 143 405 L 142 415 L 140 426 L 140 433 L 143 434 L 147 429 L 153 421 L 158 413 L 161 407 L 162 406 L 161 407 L 158 411 L 154 416 L 152 421 L 150 425 L 149 426 L 147 424 L 147 422" stroke="#ffffff" stroke-width="2" stroke-linecap="round" stroke-linejoin="round" fill="none"/><path d="M 145 411 L 145 410 L 148 412 L 154 418 L 163 425 L 174 429 L 180 430" stroke="#ffffff" stroke-width="2" stroke-linecap="round" stroke-linejoin="round" fill="none"/><path d="M 198 394 L 197 394 L 195 395 L 194 399 L 194 404 L 196 409" stroke="#ffffff" stroke-width="2" stroke-linecap="round" stroke-linejoin="round" fill="none"/><path d="M 200 402 L 200 401 L 200 399 L 201 397 L 204 397 L 208 397 L 211 398" stroke="#ffffff" stroke-width="2" stroke-linecap="round" stroke-linejoin="round" fill="none"/><path d="M 186 412 L 185 412 L 190 412 L 199 412 L 211 411 L 215 410" stroke="#ffffff" stroke-width="2" stroke-linecap="round" stroke-linejoin="round" fill="none"/><path d="M 191 400 L 192 400 L 194 400 L 199 400" stroke="#ffffff" stroke-width="2" stroke-linecap="round" stroke-linejoin="round" fill="none"/><path d="M 244 383 L 242 382 L 239 382 L 235 384 L 232 390 L 229 401 L 228 413 L 230 418 L 234 419 L 239 416 L 244 410 L 247 404 L 247 401 L 243 400 L 238 402 L 232 405 L 228 409" stroke="#ffffff" stroke-width="2" stroke-linecap="round" stroke-linejoin="round" fill="none"/><path d="M 255 390 L 256 388 L 260 386 L 270 383 L 279 382 L 282 382" stroke="#ffffff" stroke-width="2" stroke-linecap="round" stroke-linejoin="round" fill="none"/><path d="M 268 378 L 267 378 L 266 380 L 265 387 L 265 399 L 265 411 L 265 419 L 265 422" stroke="#ffffff" stroke-width="2" stroke-linecap="round" stroke-linejoin="round" fill="none"/><path d="M 274 392 L 273 392 L 272 392 L 269 395 L 264 400 L 258 407 L 251 413" stroke="#ffffff" stroke-width="2" stroke-linecap="round" stroke-linejoin="round" fill="none"/><path d="M 318 391 L 321 387 L 327 381 L 334 377 L 338 374 L 339 374 L 338 374 L 335 376 L 331 379 L 327 384 L 323 391 L 321 403 L 319 415 L 320 421 L 323 422 L 324 421" stroke="#ffffff" stroke-width="2" stroke-linecap="round" stroke-linejoin="round" fill="none"/><path d="M 332 391 L 332 390 L 332 389 L 333 392 L 336 398" stroke="#ffffff" stroke-width="2" stroke-linecap="round" stroke-linejoin="round" fill="none"/><path d="M 395 386 L 395 385 L 395 383 L 400 381 L 409 379 L 416 378" stroke="#ffffff" stroke-width="2" stroke-linecap="round" stroke-linejoin="round" fill="none"/><path d="M 349 412 L 350 412 L 350 411 L 352 411 L 355 413 L 358 414 L 360 414 L 362 414 L 363 413 L 364 413 L 366 413 L 369 413 L 371 412" stroke="#ffffff" stroke-width="2" stroke-linecap="round" stroke-linejoin="round" fill="none"/><path d="M 408 368 L 408 369 L 406 369 L 406 372 L 406 377 L 406 387 L 405 399 L 404 410 L 405 416 L 406 419 L 406 420" stroke="#ffffff" stroke-width="2" stroke-linecap="round" stroke-linejoin="round" fill="none"/><path d="M 419 388 L 418 388 L 414 388 L 407 390 L 397 397 L 388 405 L 382 412" stroke="#ffffff" stroke-width="2" stroke-linecap="round" stroke-linejoin="round" fill="none"/></svg>
